<svg width="28" height="28" viewBox="0 0 28 28" fill="none" xmlns="http://www.w3.org/2000/svg">
<g clip-path="url(#clip0_904_25814)">
<path d="M4.4135 3.29733L14 1.16699L23.5865 3.29733C23.8456 3.35492 24.0773 3.49912 24.2433 3.70613C24.4094 3.91314 24.5 4.17059 24.5 4.43599V16.0875C24.4999 17.2399 24.2153 18.3744 23.6715 19.3903C23.1277 20.4063 22.3415 21.2723 21.3827 21.9115L14 26.8337L6.61733 21.9115C5.65865 21.2724 4.87254 20.4066 4.32874 19.3909C3.78494 18.3751 3.50028 17.2408 3.5 16.0887V4.43599C3.50005 4.17059 3.59058 3.91314 3.75665 3.70613C3.92273 3.49912 4.15443 3.35492 4.4135 3.29733ZM5.83333 5.37166V16.0875C5.83335 16.8557 6.023 17.612 6.38547 18.2893C6.74794 18.9666 7.27201 19.544 7.91117 19.9702L14 24.0302L20.0888 19.9702C20.7278 19.5441 21.2518 18.9669 21.6143 18.2898C21.9767 17.6128 22.1665 16.8567 22.1667 16.0887V5.37166L14 3.55866L5.83333 5.37166ZM14 12.8337C13.2265 12.8337 12.4846 12.5264 11.9376 11.9794C11.3906 11.4324 11.0833 10.6905 11.0833 9.91699C11.0833 9.14344 11.3906 8.40158 11.9376 7.8546C12.4846 7.30762 13.2265 7.00033 14 7.00033C14.7735 7.00033 15.5154 7.30762 16.0624 7.8546C16.6094 8.40158 16.9167 9.14344 16.9167 9.91699C16.9167 10.6905 16.6094 11.4324 16.0624 11.9794C15.5154 12.5264 14.7735 12.8337 14 12.8337ZM8.7815 18.667C8.92292 17.3818 9.53363 16.194 10.4966 15.3312C11.4596 14.4684 12.707 13.9912 14 13.9912C15.293 13.9912 16.5404 14.4684 17.5034 15.3312C18.4664 16.194 19.0771 17.3818 19.2185 18.667H8.7815Z" fill="#4071DF"/>
</g>
<defs>
<clipPath id="clip0_904_25814">
<rect width="28" height="28" fill="white"/>
</clipPath>
</defs>
</svg>
