<svg width="33" height="32" viewBox="0 0 33 32" fill="none" xmlns="http://www.w3.org/2000/svg">
<path d="M0.980698 0.460938H32.0001V17.2061L30.4647 19.6052L32.0001 21.7403V31.4803H0.980698V15.6948L1.94031 14.5912L0.980698 13.5356V0.460938Z" fill="#016FD0"/>
<path d="M7.00224 22.0776V17.2076H12.1587L12.7119 17.9288L13.2835 17.2076H32.0001V21.7418C32.0001 21.7418 31.5106 22.0728 30.9445 22.0776H20.5807L19.957 21.3099V22.0776H17.913V20.7672C17.913 20.7672 17.6338 20.9501 17.0302 20.9501H16.3345V22.0776H13.2397L12.6873 21.341L12.1263 22.0776L7.00224 22.0776ZM0.980698 13.5371L2.14349 10.8262H4.15445L4.81432 12.3447V10.8262H7.31411L7.70695 11.9237L8.08779 10.8262H19.3092V11.3779C19.3092 11.3779 19.8992 10.8262 20.8686 10.8262L24.5096 10.8389L25.1581 12.3376V10.8262H27.25L27.8258 11.687V10.8262H29.9369V15.6962H27.8258L27.274 14.8325V15.6962H24.2005L23.8914 14.9285H23.0651L22.761 15.6962H20.6767C19.8425 15.6962 19.3092 15.1557 19.3092 15.1557V15.6962H16.1665L15.5428 14.9285V15.6962H3.85654L3.54766 14.9285H2.72397L2.41736 15.6962H0.980698V13.5371Z" fill="white"/>
<path d="M2.55511 11.4264L0.986755 15.0729H2.00784L2.29723 14.3427H3.97955L4.26742 15.0729H5.31102L3.74409 11.4264H2.55511ZM3.13537 12.275L3.64816 13.551H2.6211L3.13537 12.275ZM5.41895 15.0723V11.4258L6.86995 11.4312L7.71391 13.7822L8.53766 11.4258H9.97709V15.0723H9.06546V12.3854L8.09911 15.0723H7.29961L6.33058 12.3854V15.0723H5.41895ZM10.6008 15.0723V11.4258H13.5756V12.2414H11.5221V12.8652H13.5276V13.6329H11.5221V14.2806H13.5756V15.0723H10.6008ZM14.1034 11.4264V15.0729H15.0151V13.7774H15.3989L16.4919 15.0729H17.606L16.4065 13.7294C16.8988 13.6879 17.4066 13.2654 17.4066 12.6094C17.4066 11.8421 16.8043 11.4264 16.1321 11.4264H14.1034ZM15.0151 12.2421H16.0571C16.3071 12.2421 16.4889 12.4376 16.4889 12.6259C16.4889 12.8681 16.2533 13.0097 16.0706 13.0097H15.0151V12.2421ZM18.7095 15.0723H17.7787V11.4258H18.7095V15.0723ZM20.9166 15.0723H20.7157C19.7436 15.0723 19.1534 14.3064 19.1534 13.264C19.1534 12.1959 19.737 11.4258 20.9646 11.4258H21.9722V12.2894H20.9278C20.4294 12.2894 20.077 12.6784 20.077 13.273C20.077 13.9792 20.48 14.2758 21.0606 14.2758H21.3005L20.9166 15.0723ZM22.9003 11.4264L21.332 15.0729H22.3531L22.6424 14.3427H24.3248L24.6126 15.0729H25.6562L24.0893 11.4264H22.9003ZM23.4806 12.275L23.9934 13.551H22.9663L23.4806 12.275ZM25.7627 15.0723V11.4258H26.9217L28.4016 13.7169V11.4258H29.3132V15.0723H28.1917L26.6743 12.7213V15.0723H25.7627ZM7.62607 21.4537V17.8072H10.6008V18.6228H8.54727V19.2466H10.5528V20.0143H8.54727V20.662H10.6008V21.4537H7.62607ZM22.2025 21.4537V17.8072H25.1773V18.6228H23.1237V19.2466H25.1197V20.0143H23.1237V20.662H25.1773V21.4537H22.2025ZM10.7163 21.4537L12.1647 19.6529L10.6818 17.8072H11.8304L12.7135 18.9482L13.5997 17.8072H14.7032L13.2398 19.6304L14.6909 21.4537H13.5425L12.685 20.3307L11.8484 21.4537H10.7163ZM14.7991 17.8078V21.4543H15.7348V20.3028H16.6944C17.5063 20.3028 18.1218 19.872 18.1218 19.0343C18.1218 18.3403 17.6391 17.8078 16.8128 17.8078H14.7991ZM15.7348 18.6325H16.7453C17.0077 18.6325 17.1951 18.7932 17.1951 19.0523C17.1951 19.2956 17.0086 19.4721 16.7423 19.4721H15.7348V18.6325ZM18.5176 17.8072V21.4537H19.4292V20.1582H19.8131L20.9061 21.4537H22.0202L20.8207 20.1103C21.313 20.0687 21.8208 19.6462 21.8208 18.9902C21.8208 18.2228 21.2185 17.8072 20.5463 17.8072H18.5176ZM19.4292 18.6228H20.4713C20.7213 18.6228 20.9032 18.8184 20.9032 19.0067C20.9032 19.2489 20.6675 19.3905 20.4848 19.3905H19.4292V18.6228ZM25.5995 21.4537V20.662H27.424C27.6939 20.662 27.8108 20.5161 27.8108 20.3561C27.8108 20.2028 27.6943 20.0479 27.424 20.0479H26.5995C25.8829 20.0479 25.4838 19.6113 25.4838 18.9557C25.4838 18.371 25.8493 17.8072 26.9142 17.8072H28.6895L28.3056 18.6277H26.7703C26.4768 18.6277 26.3864 18.7817 26.3864 18.9287C26.3864 19.0799 26.4981 19.2466 26.7223 19.2466H27.5859C28.3848 19.2466 28.7315 19.6997 28.7315 20.2932C28.7315 20.9312 28.3452 21.4537 27.5424 21.4537H25.5995ZM28.9454 21.4537V20.662H30.7699C31.0398 20.662 31.1567 20.5161 31.1567 20.3561C31.1567 20.2028 31.0402 20.0479 30.7699 20.0479H29.9454C29.2288 20.0479 28.8297 19.6113 28.8297 18.9557C28.8297 18.371 29.1952 17.8072 30.2601 17.8072H32.0354L31.6515 18.6277H30.1161C29.8227 18.6277 29.7323 18.7817 29.7323 18.9287C29.7323 19.0799 29.8439 19.2466 30.0682 19.2466H30.9318C31.7307 19.2466 32.0774 19.6997 32.0774 20.2932C32.0774 20.9312 31.6911 21.4537 30.8883 21.4537H28.9454Z" fill="#016FD0"/>
</svg>
