<svg width="48" height="48" viewBox="0 0 48 48" fill="none" xmlns="http://www.w3.org/2000/svg">
<path d="M0.5 24C0.5 11.0213 11.0213 0.5 24 0.5C36.9787 0.5 47.5 11.0213 47.5 24C47.5 36.9787 36.9787 47.5 24 47.5C11.0213 47.5 0.5 36.9787 0.5 24Z" fill="white"/>
<path d="M0.5 24C0.5 11.0213 11.0213 0.5 24 0.5C36.9787 0.5 47.5 11.0213 47.5 24C47.5 36.9787 36.9787 47.5 24 47.5C11.0213 47.5 0.5 36.9787 0.5 24Z" stroke="#DCE0E0"/>
<g clip-path="url(#clip0_904_25728)">
<path d="M29.657 26.828L28.243 25.414L29.657 24C30.0284 23.6286 30.3231 23.1876 30.5241 22.7023C30.7251 22.217 30.8286 21.6968 30.8286 21.1715C30.8286 20.6462 30.7251 20.126 30.5241 19.6407C30.3231 19.1554 30.0284 18.7144 29.657 18.343C29.2856 17.9716 28.8446 17.6769 28.3593 17.4759C27.874 17.2749 27.3538 17.1714 26.8285 17.1714C26.3032 17.1714 25.783 17.2749 25.2977 17.4759C24.8124 17.6769 24.3714 17.9716 24 18.343L22.586 19.757L21.172 18.343L22.586 16.929C23.7143 15.8189 25.2356 15.1997 26.8184 15.2061C28.4012 15.2125 29.9174 15.8442 31.0366 16.9634C32.1558 18.0826 32.7875 19.5988 32.7939 21.1816C32.8003 22.7644 32.1811 24.2857 31.071 25.414L29.657 26.828ZM26.828 29.657L25.414 31.071C24.8585 31.6356 24.1967 32.0846 23.4669 32.3922C22.737 32.6998 21.9534 32.8598 21.1614 32.863C20.3693 32.8662 19.5845 32.7126 18.8521 32.411C18.1198 32.1094 17.4544 31.6658 16.8943 31.1057C16.3342 30.5456 15.8906 29.8802 15.589 29.1479C15.2874 28.4155 15.1338 27.6307 15.137 26.8386C15.1402 26.0466 15.3002 25.263 15.6078 24.5331C15.9154 23.8033 16.3644 23.1415 16.929 22.586L18.343 21.172L19.757 22.586L18.343 24C17.9716 24.3714 17.6769 24.8124 17.4759 25.2977C17.2749 25.783 17.1714 26.3032 17.1714 26.8285C17.1714 27.3538 17.2749 27.874 17.4759 28.3593C17.6769 28.8446 17.9716 29.2856 18.343 29.657C18.7144 30.0284 19.1554 30.3231 19.6407 30.5241C20.126 30.7251 20.6462 30.8286 21.1715 30.8286C21.6968 30.8286 22.217 30.7251 22.7023 30.5241C23.1876 30.3231 23.6286 30.0284 24 29.657L25.414 28.243L26.828 29.657ZM26.828 19.757L28.243 21.172L21.172 28.242L19.757 26.828L26.828 19.758V19.757Z" fill="#4071DF"/>
</g>
<defs>
<clipPath id="clip0_904_25728">
<rect width="24" height="24" fill="white" transform="translate(12 12)"/>
</clipPath>
</defs>
</svg>
