<svg width="37" height="38" viewBox="0 0 37 38" fill="none" xmlns="http://www.w3.org/2000/svg">
<g clip-path="url(#clip0_904_25544)">
<path d="M18.5353 0.503906C20.4407 4.29455 22.3437 8.044 24.1878 11.8346C21.1755 18.0102 18.1703 24.2318 15.0567 30.3661C13.8461 32.7074 12.7015 35.0972 11.5027 37.4385C7.65671 37.4821 3.80834 37.4821 0 37.4385C0.106383 37.1348 0.228236 36.8371 0.365054 36.5466C6.44615 24.5299 12.5272 12.5617 18.5353 0.503906ZM18.5353 23.5095C22.3813 23.5095 26.2297 23.4659 30.0757 23.5532C32.3815 28.197 34.7296 32.7971 37 37.4845C33.154 37.5281 29.3056 37.4845 25.4596 37.4845C23.1892 32.7971 20.8057 28.1945 18.5353 23.5095Z" fill="#AE285D"/>
</g>
<defs>
<clipPath id="clip0_904_25544">
<rect width="37" height="37" fill="white" transform="translate(0 0.5)"/>
</clipPath>
</defs>
</svg>
