<svg width="56" height="34" viewBox="0 0 56 34" fill="none" xmlns="http://www.w3.org/2000/svg">
<path d="M30.2393 18.7098C35.2067 18.7336 39.7405 14.6515 39.7405 9.68549C39.7405 4.25485 35.2067 0.501124 30.2393 0.50293H25.9644C20.9376 0.501124 16.8 4.25597 16.8 9.68549C16.8 14.6526 20.9376 18.7337 25.9644 18.7098H30.2393Z" fill="#0079BE"/>
<path d="M25.9845 1.25684C21.3912 1.25828 17.669 4.98817 17.6679 9.59158C17.669 14.1942 21.3911 17.9237 25.9845 17.9252C30.579 17.9237 34.3019 14.1942 34.3026 9.59158C34.3019 4.98817 30.579 1.25828 25.9845 1.25684ZM20.7129 9.59158C20.7172 7.34209 22.1196 5.42387 24.0971 4.6616V14.5204C22.1196 13.7586 20.7172 11.8414 20.7129 9.59158ZM27.8712 14.5226V4.66127C29.8495 5.4217 31.2541 7.34101 31.2577 9.59158C31.2541 11.8428 29.8495 13.7607 27.8712 14.5226Z" fill="white"/>
<path d="M30.2393 18.7098C35.2067 18.7336 39.7405 14.6515 39.7405 9.68549C39.7405 4.25485 35.2067 0.501124 30.2393 0.50293H25.9644C20.9376 0.501124 16.8 4.25597 16.8 9.68549C16.8 14.6526 20.9376 18.7337 25.9644 18.7098H30.2393Z" fill="#0079BE"/>
<path d="M25.9845 1.25684C21.3912 1.25828 17.669 4.98817 17.6679 9.59158C17.669 14.1942 21.3911 17.9237 25.9845 17.9252C30.579 17.9237 34.3019 14.1942 34.3026 9.59158C34.3019 4.98817 30.579 1.25828 25.9845 1.25684ZM20.7129 9.59158C20.7172 7.34209 22.1196 5.42387 24.0971 4.6616V14.5204C22.1196 13.7586 20.7172 11.8414 20.7129 9.59158ZM27.8712 14.5226V4.66127C29.8495 5.4217 31.2541 7.34101 31.2577 9.59158C31.2541 11.8428 29.8495 13.7607 27.8712 14.5226Z" fill="white"/>
<path d="M6.51109 21.5433C6.51109 20.682 6.06283 20.7387 5.63299 20.7294V20.4805C6.00549 20.4989 6.38737 20.4989 6.76063 20.4989C7.16198 20.4989 7.70686 20.4805 8.41432 20.4805C10.8888 20.4805 12.2364 22.1364 12.2364 23.8321C12.2364 24.7804 11.6825 27.1642 8.29929 27.1642C7.81212 27.1642 7.36244 27.1454 6.91349 27.1454C6.48365 27.1454 6.06283 27.1548 5.63295 27.1642V26.9157C6.20599 26.8579 6.48365 26.8388 6.51106 26.1874L6.51109 21.5433ZM7.44794 26.0346C7.44794 26.7719 7.97406 26.8579 8.44213 26.8579C10.5069 26.8579 11.1849 25.297 11.1849 23.87C11.1849 22.08 10.0378 20.7875 8.19371 20.7875C7.80137 20.7875 7.62107 20.8157 7.44798 20.8258L7.44794 26.0346Z" fill="#211E1F"/>
<path d="M12.5718 26.9152H12.7528C13.0201 26.9152 13.2116 26.9152 13.2116 26.5983V24.0039C13.2116 23.5831 13.0684 23.5245 12.7147 23.3341V23.1806C13.1636 23.0455 13.6995 22.8649 13.737 22.836C13.8044 22.7977 13.8614 22.7876 13.9093 22.7876C13.9566 22.7876 13.9764 22.8454 13.9764 22.9223V26.5983C13.9764 26.9152 14.1866 26.9152 14.4542 26.9152H14.6165V27.1641C14.2912 27.1641 13.9566 27.145 13.6133 27.145C13.2693 27.145 12.9249 27.1544 12.5719 27.1641V26.9152H12.5718ZM13.5941 21.3133C13.3454 21.3133 13.1261 21.0836 13.1261 20.8346C13.1261 20.5947 13.3555 20.374 13.5941 20.374C13.8419 20.374 14.0626 20.576 14.0626 20.8346C14.0626 21.0933 13.8516 21.3133 13.5941 21.3133Z" fill="#211E1F"/>
<path d="M15.5243 24.0615C15.5243 23.7075 15.4186 23.6121 14.9704 23.43V23.2484C15.3811 23.1143 15.7724 22.9897 16.2314 22.7881C16.2599 22.7881 16.288 22.8076 16.288 22.8839V23.5066C16.8337 23.1143 17.3021 22.7881 17.9432 22.7881C18.7546 22.7881 19.0412 23.3819 19.0412 24.1286V26.5989C19.0412 26.9157 19.2514 26.9157 19.5194 26.9157H19.6914V27.1646C19.356 27.1646 19.0218 27.1455 18.6785 27.1455C18.3341 27.1455 17.9896 27.1549 17.646 27.1646V26.9157H17.8177C18.0859 26.9157 18.276 26.9157 18.276 26.5989V24.1196C18.276 23.573 17.9432 23.3054 17.3976 23.3054C17.0922 23.3054 16.6046 23.5543 16.288 23.7652V26.5988C16.288 26.9157 16.4993 26.9157 16.7673 26.9157H16.9389V27.1646C16.6046 27.1646 16.2696 27.1454 15.9256 27.1454C15.5819 27.1454 15.2372 27.1549 14.8935 27.1646V26.9157H15.0659C15.3335 26.9157 15.5242 26.9157 15.5242 26.5988V24.0615H15.5243Z" fill="#211E1F"/>
<path d="M20.4181 24.5217C20.3982 24.6081 20.3982 24.7515 20.4181 25.0773C20.4744 25.9866 21.0589 26.7333 21.8222 26.7333C22.3484 26.7333 22.7602 26.4461 23.1132 26.0921L23.2466 26.2265C22.8067 26.8103 22.2621 27.308 21.4789 27.308C19.959 27.308 19.6532 25.833 19.6532 25.2208C19.6532 23.3437 20.9146 22.7881 21.5831 22.7881C22.3577 22.7881 23.1897 23.2762 23.1987 24.2912C23.1987 24.3494 23.1987 24.4061 23.1897 24.4643L23.1031 24.5217H20.4181ZM22.11 24.2151C22.3484 24.2151 22.3766 24.0904 22.3766 23.9759C22.3766 23.4875 22.0805 23.0948 21.545 23.0948C20.9626 23.0948 20.5612 23.525 20.4465 24.2151H22.11Z" fill="#211E1F"/>
<path d="M23.4188 26.9157H23.677C23.9437 26.9157 24.1349 26.9157 24.1349 26.5989V23.9087C24.1349 23.6121 23.7819 23.5543 23.638 23.4777V23.3347C24.3358 23.0373 24.7183 22.7881 24.8052 22.7881C24.8619 22.7881 24.89 22.817 24.89 22.9131V23.7747H24.9102C25.1485 23.4015 25.5506 22.7881 26.133 22.7881C26.3721 22.7881 26.6775 22.9506 26.6775 23.2956C26.6775 23.5543 26.4965 23.7848 26.229 23.7848C25.9315 23.7848 25.9315 23.5543 25.5976 23.5543C25.4349 23.5543 24.9002 23.7747 24.9002 24.3494V26.5989C24.9002 26.9157 25.0909 26.9157 25.3588 26.9157H25.8936V27.1646C25.3678 27.1549 24.9679 27.1455 24.5561 27.1455C24.1645 27.1455 23.7628 27.1549 23.4188 27.1646L23.4188 26.9157Z" fill="#211E1F"/>
<path d="M27.0983 25.833C27.2228 26.4652 27.6046 27.0017 28.3027 27.0017C28.8653 27.0017 29.0758 26.6571 29.0758 26.3218C29.0758 25.1918 26.993 25.5556 26.993 24.0142C26.993 23.4777 27.4235 22.7881 28.4743 22.7881C28.7798 22.7881 29.1905 22.8748 29.563 23.0666L29.6308 24.0424H29.4105C29.3153 23.4398 28.981 23.0948 28.3687 23.0948C27.9864 23.0948 27.6237 23.3152 27.6237 23.7266C27.6237 24.848 29.8407 24.5022 29.8407 26.0054C29.8407 26.6372 29.334 27.3081 28.1967 27.3081C27.8144 27.3081 27.3654 27.174 27.0312 26.9829L26.9259 25.8815L27.0983 25.833Z" fill="#211E1F"/>
<path d="M38.4704 22.2124H38.232C38.0503 21.0925 37.257 20.642 36.187 20.642C35.0872 20.642 33.4912 21.3789 33.4912 23.6769C33.4912 25.6124 34.8683 27.0003 36.3396 27.0003C37.2854 27.0003 38.0697 26.3493 38.2608 25.3437L38.4801 25.4007L38.2608 26.7987C37.8595 27.0484 36.7795 27.3067 36.1481 27.3067C33.9123 27.3067 32.4984 25.8606 32.4984 23.7061C32.4984 21.7431 34.2469 20.335 36.1199 20.335C36.8938 20.335 37.6392 20.5849 38.3752 20.8436L38.4704 22.2124Z" fill="#211E1F"/>
<path d="M38.8151 26.9161H38.9961C39.264 26.9161 39.4559 26.9161 39.4559 26.5993V21.2666C39.4559 20.6438 39.3123 20.6246 38.9488 20.5195V20.3663C39.3311 20.2421 39.7324 20.0694 39.9333 19.9542C40.0375 19.8971 40.1147 19.8486 40.1428 19.8486C40.2012 19.8486 40.2203 19.9065 40.2203 19.9834V26.5993C40.2203 26.9161 40.4302 26.9161 40.6981 26.9161H40.8593V27.165C40.5358 27.165 40.2012 27.1459 39.8568 27.1459C39.5132 27.1459 39.1692 27.1553 38.815 27.165V26.9161H38.8151Z" fill="#211E1F"/>
<path d="M44.9513 26.6377C44.9513 26.8107 45.0559 26.8201 45.2182 26.8201C45.3332 26.8201 45.476 26.8107 45.6008 26.8107V27.0123C45.1894 27.0502 44.4058 27.2514 44.224 27.3085L44.176 27.2796V26.5047C43.6034 26.9736 43.1631 27.3085 42.4841 27.3085C41.9681 27.3085 41.433 26.9736 41.433 26.1698V23.7177C41.433 23.4688 41.3951 23.2292 40.8607 23.1816V22.9995C41.2051 22.9901 41.9681 22.9327 42.0928 22.9327C42.1989 22.9327 42.1989 22.9995 42.1989 23.2101V25.6799C42.1989 25.9679 42.1989 26.7911 43.0297 26.7911C43.3546 26.7911 43.7844 26.5422 44.1855 26.2081V23.6309C44.1855 23.4402 43.7271 23.3351 43.3838 23.239V23.0666C44.2428 23.0088 44.779 22.9326 44.8739 22.9326C44.9513 22.9326 44.9513 22.9994 44.9513 23.1053L44.9513 26.6377Z" fill="#211E1F"/>
<path d="M46.8529 23.4781C47.2348 23.1526 47.7508 22.7885 48.2769 22.7885C49.3857 22.7885 50.054 23.7566 50.054 24.7995C50.054 26.0538 49.137 27.3084 47.7695 27.3084C47.0627 27.3084 46.6902 27.0783 46.4414 26.9735L46.1551 27.1931L45.955 27.0884C46.0397 26.5234 46.0884 25.9678 46.0884 25.384V21.2665C46.0884 20.6438 45.9441 20.6246 45.5813 20.5195V20.3663C45.9647 20.2421 46.3649 20.0694 46.5658 19.9541C46.6711 19.897 46.7472 19.8486 46.7768 19.8486C46.8337 19.8486 46.8528 19.9065 46.8528 19.9834V23.4781H46.8529V23.4781ZM46.8529 26.0824C46.8529 26.4465 47.1965 27.0599 47.837 27.0599C48.8596 27.0599 49.2895 26.0538 49.2895 25.2013C49.2895 24.1674 48.5066 23.3058 47.7609 23.3058C47.4064 23.3058 47.1107 23.536 46.8529 23.7566L46.8529 26.0824Z" fill="#211E1F"/>
<path d="M5.62216 32.7319H5.69536C5.88216 32.7319 6.07977 32.7066 6.07977 32.4353V29.7057C6.07977 29.434 5.88216 29.4084 5.69536 29.4084H5.62216V29.252C5.82518 29.252 6.1371 29.2725 6.39277 29.2725C6.65241 29.2725 6.96397 29.252 7.20846 29.252V29.4084H7.13525C6.94882 29.4084 6.75089 29.434 6.75089 29.7057V32.4353C6.75089 32.7066 6.94882 32.7319 7.13525 32.7319H7.20846V32.889C6.95892 32.889 6.64628 32.8684 6.387 32.8684C6.13209 32.8684 5.82518 32.889 5.62216 32.889V32.7319Z" fill="#211E1F"/>
<path d="M7.20859 32.9088C6.95725 32.9088 6.64573 32.8878 6.38678 32.8878C6.13255 32.8878 5.82679 32.9088 5.6223 32.9088H5.59998V32.8864V32.73V32.7072H5.6223H5.69517C5.88373 32.7029 6.05542 32.6877 6.05722 32.433V29.7034C6.05542 29.4487 5.88377 29.4317 5.69517 29.4281H5.59998V29.4061V29.2266H5.6223C5.82679 29.2266 6.13836 29.2472 6.39255 29.2472C6.65146 29.2472 6.9627 29.2266 7.20859 29.2266H7.23171V29.2504V29.4281H7.20859H7.13575C6.94716 29.4318 6.77439 29.4487 6.77335 29.7034V32.433C6.77439 32.6877 6.94712 32.7029 7.13575 32.7072H7.23167V32.73V32.9088H7.20859ZM7.18624 32.8643V32.7531H7.13579C6.95008 32.7531 6.72903 32.7209 6.72791 32.433V29.7034C6.72899 29.4155 6.95004 29.383 7.13579 29.383H7.18624V29.2724C6.94607 29.2724 6.64497 29.2927 6.39255 29.2927C6.14553 29.2927 5.84659 29.2739 5.64537 29.2724V29.383H5.69514C5.88049 29.383 6.10226 29.4155 6.10226 29.7034V32.433C6.10226 32.7209 5.88049 32.7531 5.69514 32.7531H5.64537V32.8643C5.84659 32.8622 6.14045 32.8434 6.38678 32.8434C6.63992 32.8434 6.94102 32.8629 7.18624 32.8643Z" fill="#211E1F"/>
<path d="M10.781 31.862L10.7915 31.8519V29.8983C10.7915 29.4705 10.4947 29.4084 10.3389 29.4084H10.2242V29.252C10.4691 29.252 10.7082 29.2725 10.9523 29.2725C11.1654 29.2725 11.3796 29.252 11.5924 29.252V29.4084H11.5145C11.2956 29.4084 11.0511 29.4499 11.0511 30.0699V32.4411C11.0511 32.6232 11.0565 32.8052 11.0821 32.9667H10.8841L8.20665 29.976V32.1229C8.20665 32.5762 8.29427 32.7319 8.69526 32.7319H8.78322V32.8891C8.56004 32.8891 8.33679 32.8685 8.11285 32.8685C7.87954 32.8685 7.64014 32.8891 7.40575 32.8891V32.7319H7.47859C7.83739 32.7319 7.94633 32.4877 7.94633 32.0712V29.8766C7.94633 29.5851 7.70653 29.4084 7.47358 29.4084H7.40578V29.252C7.60336 29.252 7.80605 29.2726 8.0033 29.2726C8.15941 29.2726 8.31054 29.252 8.46628 29.252L10.781 31.862Z" fill="#211E1F"/>
<path d="M11.082 32.9894L10.8674 32.9814L8.22849 30.0347V32.1227C8.23462 32.5757 8.3035 32.7044 8.69512 32.7094H8.80654V32.7318V32.911H8.78346C8.55845 32.911 8.33451 32.89 8.1127 32.89C7.87975 32.89 7.64103 32.911 7.4052 32.911H7.38248V32.8886V32.7094H7.4052H7.4784C7.82206 32.7076 7.92014 32.4865 7.92411 32.0711V29.8768C7.92335 29.5994 7.69621 29.4311 7.47335 29.4303H7.38245V29.4072V29.2295H7.40516C7.60389 29.2295 7.8076 29.2494 8.00268 29.2494C8.15738 29.2494 8.30815 29.2295 8.48337 29.2371L10.7689 31.8146V29.8986C10.766 29.4838 10.4902 29.434 10.3387 29.4303H10.2009V29.4072V29.2295H10.224C10.4696 29.2295 10.709 29.2494 10.9521 29.2494C11.1637 29.2494 11.3769 29.2295 11.5918 29.2295H11.6145V29.2519V29.4303H11.5918H11.5142C11.2997 29.4365 11.0794 29.4552 11.0733 30.0697V32.4406C11.0733 32.6227 11.0786 32.8047 11.1039 32.9626L11.109 32.9893H11.082V32.9894ZM10.8844 32.9434H11.0564C11.033 32.787 11.029 32.6136 11.029 32.4406V30.0697C11.029 29.4444 11.2904 29.3852 11.5144 29.3852H11.5692V29.2746C11.3643 29.2761 11.1588 29.2948 10.9522 29.2948C10.7142 29.2948 10.4827 29.2761 10.2472 29.2746L10.2469 29.3852H10.3388C10.4986 29.3852 10.8141 29.4567 10.8141 29.8985L10.8069 31.8673L10.7964 31.8782L10.7788 31.8944L8.4662 29.2746C8.3119 29.2746 8.16113 29.2948 8.00283 29.2948C7.81207 29.2948 7.61698 29.2761 7.42839 29.2746L7.4273 29.3852H7.47346C7.71759 29.3852 7.96821 29.5719 7.96821 29.8768V32.071C7.96821 32.4875 7.85246 32.7541 7.47851 32.7556L7.42839 32.7541V32.8665C7.65376 32.8643 7.88527 32.8455 8.11278 32.8455C8.3299 32.8455 8.5459 32.8643 8.76078 32.8665V32.7556H8.69519C8.28587 32.7541 8.18421 32.5757 8.18382 32.1227V29.9172L10.8844 32.9434ZM10.769 31.8514V31.8496L10.7646 31.846L10.769 31.8514Z" fill="#211E1F"/>
<path d="M12.3709 29.5127C11.9803 29.5127 11.9655 29.6067 11.8876 29.9867H11.7315C11.7521 29.8411 11.778 29.6955 11.7939 29.5438C11.8148 29.3978 11.8249 29.2526 11.8249 29.1016H11.95C11.9918 29.258 12.1217 29.2526 12.2627 29.2526H14.9452C15.0858 29.2526 15.2157 29.2476 15.2265 29.0908L15.3505 29.1118C15.3303 29.2526 15.3094 29.3932 15.2935 29.534C15.2841 29.6746 15.2841 29.8154 15.2841 29.9556L15.1276 30.0138C15.1168 29.8212 15.0909 29.5127 14.7429 29.5127H13.89V32.2849C13.89 32.6866 14.0722 32.7326 14.321 32.7326H14.4201V32.8897C14.2175 32.8897 13.8529 32.8691 13.5727 32.8691C13.2608 32.8691 12.8962 32.8897 12.6932 32.8897V32.7326H12.7924C13.079 32.7326 13.224 32.7069 13.224 32.2958V29.5127H12.3709Z" fill="#211E1F"/>
<path d="M14.4209 32.9099C14.216 32.9099 13.8522 32.8889 13.5727 32.8889C13.2611 32.8889 12.8973 32.9099 12.6932 32.9099H12.6715V32.8878V32.7083H12.6932H12.7923C13.079 32.7014 13.1944 32.6978 13.2009 32.2939V29.5336H12.3708V29.5108V29.4877H13.246V32.2939C13.246 32.7119 13.078 32.7541 12.7924 32.7545H12.7159V32.8643C12.9211 32.8633 13.2709 32.8444 13.5727 32.8444C13.8439 32.8444 14.1915 32.8633 14.3971 32.8643V32.7545H14.321C14.0696 32.7541 13.8673 32.6924 13.8673 32.2831V29.4877H14.7429C15.0919 29.4892 15.1374 29.7865 15.1489 29.9797L15.2611 29.9382C15.2611 29.8024 15.2618 29.6662 15.2712 29.5289C15.2863 29.3949 15.3054 29.2619 15.3249 29.129L15.2455 29.1156C15.2214 29.2674 15.0753 29.2749 14.9444 29.2735H12.2626H12.2356C12.1133 29.2735 11.9795 29.2677 11.933 29.1222H11.8472C11.8464 29.2663 11.8363 29.4061 11.8165 29.5448C11.8014 29.6879 11.7776 29.8255 11.7581 29.9632H11.8695C11.938 29.6001 11.9828 29.4823 12.3708 29.4878V29.5109V29.5336C11.9863 29.5405 11.9943 29.6055 11.9095 29.9906L11.9056 30.0083H11.8876H11.7055L11.7084 29.9812C11.7293 29.8353 11.7556 29.69 11.7711 29.5383C11.7927 29.3938 11.8028 29.2493 11.8028 29.0997V29.077H11.8248H11.9676L11.9712 29.0932C12.0069 29.2247 12.1032 29.2255 12.2356 29.2276H12.2626H14.9444C15.0894 29.2255 15.1947 29.2233 15.2037 29.0871L15.2059 29.0625L15.2293 29.0676L15.3761 29.0907L15.3728 29.1135C15.3519 29.2529 15.3313 29.3938 15.3162 29.5336C15.3057 29.6723 15.3057 29.8132 15.3057 29.9537V29.97L15.2913 29.9758L15.1071 30.0429L15.1056 30.0126C15.0919 29.8168 15.0714 29.5336 14.7428 29.5336H13.9127V32.283C13.9174 32.6761 14.0732 32.7032 14.3209 32.7082H14.4428V32.7306V32.9098L14.4209 32.9099Z" fill="#211E1F"/>
<path d="M15.5168 32.7319H15.59C15.7768 32.7319 15.9747 32.7066 15.9747 32.4353V29.7057C15.9747 29.434 15.7768 29.4084 15.59 29.4084H15.5168V29.252C15.8334 29.252 16.3751 29.2725 16.811 29.2725C17.2488 29.2725 17.7886 29.252 18.142 29.252C18.1334 29.4756 18.138 29.8202 18.1535 30.0489L17.9966 30.0908C17.9718 29.7523 17.9094 29.4817 17.3631 29.4817H16.6408V30.8462H17.2589C17.5708 30.8462 17.639 30.6695 17.6696 30.3874H17.8254C17.8153 30.5915 17.8099 30.7946 17.8099 30.9976C17.8099 31.1959 17.8153 31.3935 17.8254 31.5915L17.6696 31.6225C17.639 31.3101 17.6231 31.107 17.2639 31.107H16.6408V32.3204C16.6408 32.6596 16.9412 32.6596 17.2744 32.6596C17.8986 32.6596 18.1737 32.6174 18.3299 32.0242L18.4756 32.06C18.4074 32.3367 18.3454 32.6123 18.2993 32.889C17.9661 32.889 17.3678 32.8684 16.9004 32.8684C16.4317 32.8684 15.8133 32.889 15.5168 32.889V32.7319Z" fill="#211E1F"/>
<path d="M18.2988 32.911C17.9649 32.911 17.367 32.8896 16.9 32.8896C16.4316 32.8896 15.8135 32.911 15.5167 32.911H15.4948V32.8889V32.7318V32.7094H15.5167H15.5896C15.7781 32.7065 15.9491 32.6899 15.9516 32.4352V29.7056C15.9491 29.4513 15.7781 29.4343 15.5896 29.4303H15.4948V29.4083V29.2295H15.5167C15.834 29.2295 16.375 29.2494 16.8109 29.2494C17.2483 29.2494 17.7878 29.2295 18.1419 29.2295H18.1653L18.1642 29.2526C18.1606 29.331 18.1592 29.4234 18.1592 29.5217C18.1592 29.702 18.1642 29.8988 18.1747 30.0474L18.1754 30.0661L18.1581 30.0712L17.9753 30.1189L17.9743 30.0922C17.9436 29.7541 17.8985 29.5088 17.3631 29.5037H16.6624L16.6617 30.8226H17.2589C17.5582 30.8197 17.6119 30.6662 17.6472 30.3855L17.6491 30.3649H17.6692H17.8485L17.8481 30.3884C17.8381 30.5914 17.8315 30.7944 17.8315 30.9974C17.8315 31.1947 17.8381 31.3923 17.8481 31.5906L17.8485 31.6091L17.8297 31.6134L17.6491 31.6495L17.6472 31.6249C17.6115 31.307 17.609 31.1329 17.2635 31.129L16.6624 31.1286V32.3203C16.6628 32.6368 16.9354 32.635 17.2744 32.6368C17.9003 32.6332 18.1514 32.6029 18.3082 32.0176L18.3133 31.9967L18.3353 32.0006L18.5019 32.0436L18.4968 32.0653C18.4298 32.3413 18.3674 32.6166 18.3208 32.8925L18.3165 32.911H18.2988ZM18.2797 32.8655C18.3248 32.6028 18.3842 32.3391 18.4481 32.0768L18.3453 32.0508C18.1895 32.6339 17.888 32.6859 17.2743 32.6819C16.9469 32.6819 16.6187 32.6819 16.6172 32.3203V31.0841H17.2635C17.6266 31.0801 17.6638 31.2998 17.6894 31.5964L17.8019 31.5729C17.7918 31.3811 17.7871 31.1885 17.7871 30.9974C17.7871 30.8012 17.7918 30.6062 17.8019 30.41H17.6894C17.6605 30.6813 17.5758 30.8721 17.2588 30.8684H16.6173V29.4581H17.3631C17.904 29.4545 17.9937 29.7341 18.0168 30.0618L18.129 30.0314C18.12 29.8844 18.1138 29.6958 18.1138 29.5217C18.1138 29.4325 18.116 29.3483 18.1189 29.2746C17.7655 29.2761 17.239 29.2948 16.811 29.2948C16.3836 29.2948 15.8576 29.2761 15.5391 29.2746V29.3852H15.5896C15.7749 29.3852 15.9964 29.4177 15.997 29.7056V32.4352C15.9963 32.7224 15.7749 32.7542 15.5896 32.7556H15.5391V32.8655C15.8424 32.8651 16.4432 32.8456 16.9 32.8456C17.3587 32.8456 17.9443 32.8651 18.2797 32.8655Z" fill="#211E1F"/>
<path d="M19.1773 29.8043C19.1773 29.4243 18.9696 29.4087 18.8077 29.4087H18.7143V29.252C18.8809 29.252 19.2029 29.2729 19.5202 29.2729C19.8322 29.2729 20.0821 29.252 20.3572 29.252C21.012 29.252 21.5952 29.4293 21.5952 30.1699C21.5952 30.6377 21.2833 30.9245 20.8725 31.0867L21.7614 32.4197C21.907 32.6401 22.0106 32.7019 22.2659 32.7322V32.8894C22.0942 32.8894 21.9276 32.8688 21.7563 32.8688C21.5952 32.8688 21.4282 32.8894 21.2677 32.8894C20.8674 32.363 20.5234 31.8002 20.1855 31.2005H19.8433V32.3161C19.8433 32.7178 20.0298 32.7322 20.2688 32.7322H20.3626V32.8894C20.0654 32.8894 19.7651 32.8688 19.4683 32.8688C19.2184 32.8688 18.9739 32.8894 18.7143 32.8894V32.7322H18.8077C19.0009 32.7322 19.1773 32.6448 19.1773 32.4515V29.8043ZM19.8433 31.013H20.0972C20.6175 31.013 20.8977 30.8151 20.8977 30.2002C20.8977 29.7371 20.6017 29.4398 20.1383 29.4398C19.9821 29.4398 19.9158 29.4561 19.8432 29.4608V31.013H19.8433Z" fill="#211E1F"/>
<path d="M22.2659 32.9116C22.0918 32.9116 21.9262 32.8907 21.7553 32.8907C21.5967 32.8907 21.4308 32.9116 21.2494 32.9029C20.8506 32.3788 20.5087 31.8192 20.1726 31.2239H19.8654V32.3156C19.8708 32.7076 20.028 32.7043 20.2686 32.7101H20.385V32.7325V32.9117H20.3619C20.0648 32.9117 19.763 32.8907 19.4676 32.8907C19.2192 32.8907 18.9754 32.9117 18.7143 32.9117H18.6916V32.8893V32.7101H18.7143H18.8077C18.9952 32.709 19.1532 32.6274 19.1539 32.4518V29.8046C19.15 29.4347 18.9693 29.4368 18.8077 29.4314H18.6916V29.409V29.2295H18.7143C18.8827 29.2295 19.2037 29.25 19.5203 29.25C19.8307 29.25 20.0807 29.2295 20.3576 29.2295C21.0128 29.2309 21.6165 29.4123 21.6183 30.1687C21.6183 30.6394 21.3078 30.9331 20.9064 31.0971L21.7802 32.4077C21.9255 32.6237 22.016 32.6776 22.2692 32.7101L22.2883 32.713V32.7325V32.9117H22.2659V32.9116ZM19.8427 31.1783H20.1982L20.2044 31.1899C20.5433 31.7885 20.8848 32.3506 21.2678 32.8672C21.4265 32.8672 21.5934 32.8458 21.7553 32.8458C21.9215 32.8458 22.0816 32.8639 22.2435 32.8664V32.7523C21.9994 32.7219 21.8851 32.649 21.7431 32.4326L20.8383 31.076L20.8639 31.0656C21.2707 30.9052 21.5718 30.6267 21.5721 30.1686C21.5718 29.4457 21.0114 29.2782 20.3576 29.2753C20.0832 29.2753 19.8336 29.2959 19.5203 29.2959C19.2149 29.2959 18.9065 29.2767 18.7363 29.2753V29.3858H18.8077C18.9693 29.3862 19.1993 29.4129 19.1993 29.8045V32.4517C19.1993 32.6609 19.0035 32.7562 18.8077 32.7566H18.7363V32.8664C18.9866 32.8657 19.2235 32.8458 19.4676 32.8458C19.7586 32.8458 20.0518 32.8657 20.3396 32.8664V32.7566H20.2685C20.0312 32.7562 19.82 32.7266 19.82 32.3155V31.1783H19.8426H19.8427ZM19.8427 31.0353H19.82V29.44L19.8398 29.4382C19.9108 29.4328 19.9812 29.418 20.1384 29.418C20.6122 29.418 20.9202 29.7265 20.9209 30.2015C20.9194 30.8235 20.6216 31.0349 20.0972 31.0352H19.8427V31.0353ZM20.0972 30.9905C20.6121 30.9861 20.8711 30.807 20.8765 30.2015C20.8736 29.7463 20.5913 29.4638 20.1383 29.462C19.9977 29.462 19.9317 29.475 19.8654 29.4808V30.9905H20.0972Z" fill="#211E1F"/>
<path d="M25.7965 31.862L25.8059 31.8519V29.8983C25.8059 29.4705 25.5099 29.4084 25.3541 29.4084H25.2401V29.252C25.4843 29.252 25.723 29.2725 25.9678 29.2725C26.1813 29.2725 26.3937 29.252 26.6083 29.252V29.4084H26.53C26.3115 29.4084 26.067 29.4499 26.067 30.0699V32.4411C26.067 32.6232 26.0721 32.8052 26.0977 32.9667H25.9004L23.2226 29.976V32.1229C23.2226 32.5762 23.3109 32.7319 23.7112 32.7319H23.7996V32.8891C23.5763 32.8891 23.3524 32.8685 23.1292 32.8685C22.8944 32.8685 22.6553 32.8891 22.4217 32.8891V32.7319H22.4938C22.853 32.7319 22.9622 32.4877 22.9622 32.0712V29.8766C22.9622 29.5851 22.7231 29.4084 22.4895 29.4084H22.4217V29.252C22.6186 29.252 22.8223 29.2726 23.0195 29.2726C23.1746 29.2726 23.3261 29.252 23.4822 29.252L25.7965 31.862Z" fill="#211E1F"/>
<path d="M26.0978 32.9868L25.8837 32.9795L23.2444 30.0325V32.1202C23.2506 32.5735 23.3191 32.7021 23.7114 32.7072H23.8214V32.7296V32.9088H23.7987C23.5737 32.9088 23.3508 32.8874 23.1279 32.8874C22.8957 32.8874 22.6555 32.9088 22.4215 32.9088H22.3981V32.8867V32.7072H22.4215H22.4936C22.8369 32.7057 22.9354 32.4843 22.9386 32.0674V29.8743C22.9383 29.5968 22.7115 29.4285 22.4893 29.4281H22.3981V29.4061V29.2266H22.4215C22.6198 29.2266 22.8233 29.2471 23.0194 29.2471C23.1723 29.2471 23.323 29.2266 23.4976 29.2338L25.7835 31.8124V29.8956C25.782 29.4816 25.505 29.4303 25.354 29.4281H25.2165V29.4061V29.2266H25.2393C25.4852 29.2266 25.7246 29.2471 25.9677 29.2471C26.1798 29.2471 26.3929 29.2266 26.607 29.2266H26.6297V29.25V29.4281H26.607H26.5298C26.3153 29.4339 26.0942 29.453 26.0888 30.0675V32.4384C26.0888 32.6205 26.0935 32.8011 26.1199 32.9615L26.1227 32.9868H26.0978ZM25.9003 32.9412H26.0712C26.0484 32.7848 26.0434 32.6114 26.0434 32.4384V30.0675C26.0437 29.4422 26.307 29.3844 26.5298 29.3826H26.5843V29.2724C26.3802 29.2739 26.1743 29.2926 25.9677 29.2926C25.729 29.2926 25.497 29.2739 25.2616 29.2724V29.3826H25.3539C25.514 29.3844 25.8292 29.4545 25.8292 29.8956L25.822 31.8651L25.8119 31.8759L25.7961 31.8925L23.4817 29.2724C23.3273 29.2724 23.1766 29.2927 23.0194 29.2927C22.8269 29.2927 22.6325 29.2739 22.4432 29.2724V29.3826H22.4893C22.7335 29.3844 22.9841 29.569 22.9841 29.8743V32.0674C22.9841 32.4857 22.8665 32.7519 22.4937 32.7534L22.4432 32.753V32.8632C22.6678 32.8621 22.8997 32.8433 23.128 32.8433C23.3462 32.8433 23.5622 32.8621 23.7771 32.8632V32.7534H23.7114C23.3018 32.753 23.1994 32.5735 23.1987 32.1201V29.9158L25.9003 32.9412ZM25.7834 31.8495V31.8477L25.7794 31.8438L25.7834 31.8495Z" fill="#211E1F"/>
<path d="M27.4445 32.1427C27.3919 32.3193 27.3292 32.4559 27.3292 32.5487C27.3292 32.7055 27.5481 32.7308 27.719 32.7308H27.777V32.8879C27.5686 32.8767 27.3562 32.8673 27.1467 32.8673C26.9596 32.8673 26.7735 32.8768 26.586 32.8879V32.7308H26.6173C26.82 32.7308 26.992 32.6112 27.0688 32.3919L27.9018 30.0012C27.9689 29.8083 28.0634 29.5478 28.0948 29.3546C28.2603 29.2979 28.4687 29.1938 28.5672 29.131C28.5834 29.1256 28.5924 29.1201 28.6087 29.1201C28.6242 29.1201 28.6342 29.1201 28.6458 29.1364C28.6609 29.1776 28.6761 29.2249 28.6927 29.2664L29.6493 31.9917C29.7117 32.1737 29.7733 32.3663 29.8408 32.5231C29.9036 32.669 30.0132 32.7308 30.1852 32.7308H30.2158V32.8879C29.9819 32.8767 29.7475 32.8674 29.4986 32.8674C29.2437 32.8674 28.9829 32.8768 28.7179 32.8879V32.7308H28.7756C28.8947 32.7308 29.098 32.7106 29.098 32.5802C29.098 32.5126 29.0511 32.3721 28.9931 32.2048L28.7908 31.6004H27.6105L27.4445 32.1427ZM28.2033 29.8343H28.1928L27.7092 31.3089H28.6811L28.2033 29.8343Z" fill="#211E1F"/>
<path d="M30.2144 32.9103C29.9803 32.8998 29.7463 32.8889 29.4986 32.8889C29.2436 32.8889 28.9847 32.8998 28.7186 32.9103L28.6951 32.9117V32.8882V32.708H28.7179H28.7752C28.8956 32.708 29.0745 32.6805 29.0745 32.5805C29.0759 32.5212 29.029 32.3781 28.9717 32.2124L28.7737 31.6232H27.6267L27.4651 32.1495C27.4124 32.3272 27.3501 32.4648 27.3505 32.5497C27.3522 32.6769 27.5466 32.708 27.719 32.708H27.799V32.7314V32.9117L27.7756 32.9103C27.5675 32.8998 27.3551 32.8889 27.1478 32.8889C26.9614 32.8889 26.7739 32.8998 26.5875 32.9103L26.5633 32.9117V32.8882V32.708H26.586H26.617C26.8106 32.7072 26.9722 32.5971 27.0472 32.385L27.8799 29.9939C27.948 29.8007 28.0418 29.5409 28.0868 29.3332C28.2498 29.2779 28.4586 29.1732 28.5589 29.1096C28.5733 29.1049 28.5878 29.0977 28.609 29.0977C28.6217 29.0973 28.6497 29.1006 28.6664 29.1281C28.6812 29.171 28.6973 29.2173 28.7132 29.2596L29.671 31.9845C29.7324 32.1673 29.7943 32.3598 29.8622 32.5137C29.9224 32.6528 30.018 32.7073 30.1852 32.708H30.2383V32.7315V32.9118L30.2144 32.9103ZM28.7406 32.8637C28.9981 32.8546 29.2501 32.8445 29.4986 32.8445C29.7401 32.8445 29.9662 32.8546 30.1923 32.8637V32.7549H30.1851C30.007 32.756 29.884 32.6859 29.8202 32.5324C29.7524 32.3742 29.6889 32.1809 29.628 31.9985L28.6706 29.2739C28.6548 29.2324 28.6396 29.1851 28.6259 29.1482C28.6216 29.1432 28.6226 29.1432 28.6183 29.1432H28.6089C28.5981 29.1432 28.592 29.1464 28.5786 29.15C28.4784 29.2154 28.2696 29.3176 28.1156 29.3585C28.0835 29.5557 27.9901 29.8158 27.9223 30.0087L27.0901 32.4002C27.0108 32.6263 26.8286 32.7553 26.617 32.7549H26.6087V32.8637C26.7868 32.8546 26.9671 32.8445 27.1478 32.8445C27.3486 32.8445 27.5542 32.8546 27.7525 32.8637V32.7549H27.719C27.5499 32.7527 27.3133 32.7336 27.3068 32.5497C27.3071 32.4457 27.371 32.3124 27.4218 32.1365L27.4445 32.1433L27.4218 32.1357L27.5931 31.5787H28.8055L29.0142 32.1979C29.0727 32.3651 29.1199 32.5039 29.1199 32.5804C29.1127 32.7405 28.8931 32.7517 28.7752 32.7549H28.7405L28.7406 32.8637ZM27.6775 31.3316L28.1755 29.8118H28.1928H28.2036H28.2192L28.7128 31.3316H27.6775ZM27.7399 31.2864H28.65L28.1974 29.8902L27.7399 31.2864Z" fill="#211E1F"/>
<path d="M30.4445 29.5127C30.0543 29.5127 30.0388 29.6067 29.9605 29.9867H29.8043C29.8249 29.8411 29.8512 29.6955 29.8675 29.5438C29.8883 29.3978 29.8978 29.2526 29.8978 29.1016H30.0232C30.0647 29.258 30.1953 29.2526 30.3348 29.2526H33.0188C33.1584 29.2526 33.2882 29.2476 33.299 29.0908L33.4234 29.1118C33.4035 29.2526 33.3831 29.3932 33.3671 29.534C33.356 29.6746 33.356 29.8154 33.356 29.9556L33.2002 30.0138C33.1904 29.8212 33.1645 29.5127 32.8158 29.5127H31.963V32.2849C31.963 32.6866 32.1455 32.7326 32.3943 32.7326H32.493V32.8897C32.2904 32.8897 31.9269 32.8691 31.6456 32.8691C31.3341 32.8691 30.9695 32.8897 30.7668 32.8897V32.7326H30.8653C31.1519 32.7326 31.2977 32.7069 31.2977 32.2958V29.5127H30.4445Z" fill="#211E1F"/>
<path d="M32.493 32.9098C32.2889 32.9098 31.9247 32.8889 31.6456 32.8889C31.3347 32.8889 30.9705 32.9098 30.7667 32.9098H30.7437V32.8878V32.7083H30.7667H30.8652C31.1518 32.7014 31.2669 32.6978 31.2741 32.2939L31.2734 29.5336H30.4444V29.5108V29.4877H31.3192V32.2939C31.3192 32.7118 31.1508 32.753 30.8652 32.7541H30.7888V32.8654C30.9946 32.8632 31.3437 32.8444 31.6456 32.8444C31.9171 32.8444 32.2647 32.8632 32.4702 32.8654V32.7541H32.3935C32.1435 32.753 31.9409 32.6927 31.9402 32.283V29.4877H32.8157C33.1648 29.4891 33.2105 29.7864 33.2203 29.9797L33.3339 29.9382C33.3339 29.8023 33.3343 29.6661 33.3443 29.5296C33.3588 29.3956 33.3782 29.2619 33.3974 29.1289L33.3188 29.1156C33.295 29.2673 33.1482 29.2756 33.0187 29.2734H30.3347H30.3084C30.1858 29.2749 30.0531 29.2677 30.0058 29.1213H29.9208C29.9193 29.2658 29.9095 29.406 29.889 29.5448C29.8753 29.6882 29.8497 29.8262 29.8302 29.9631H29.9417C30.0106 29.6 30.0557 29.4822 30.4444 29.4877V29.5108L30.4443 29.5336C30.0589 29.5401 30.0675 29.6055 29.9824 29.9905L29.9784 30.0082H29.9604H29.7779L29.7811 29.9822C29.8028 29.8352 29.8287 29.69 29.8439 29.5393C29.8652 29.3937 29.8753 29.2492 29.8753 29.0997V29.0769H29.8976H30.0397L30.044 29.0932C30.0804 29.2247 30.1752 29.2254 30.3083 29.2276L30.3346 29.2283H33.0187C33.1622 29.2254 33.2671 29.2232 33.2761 29.0874L33.2776 29.0625L33.3021 29.0676L33.4496 29.0907L33.4457 29.1135C33.4244 29.2529 33.4045 29.3938 33.3887 29.5336C33.3782 29.6723 33.3782 29.8136 33.3782 29.9537V29.97L33.3635 29.9758L33.1792 30.043L33.1781 30.0126C33.1648 29.8168 33.1442 29.5336 32.8157 29.5336H31.9853V32.283C31.9907 32.6761 32.1461 32.7032 32.3935 32.7082H32.5153V32.7306V32.9098L32.493 32.9098Z" fill="#211E1F"/>
<path d="M33.6154 32.7319H33.6883C33.8761 32.7319 34.0726 32.7066 34.0726 32.4353V29.7057C34.0726 29.434 33.8761 29.4084 33.6883 29.4084H33.6154V29.252C33.8184 29.252 34.13 29.2725 34.3842 29.2725C34.6453 29.2725 34.9572 29.252 35.2017 29.252V29.4084H35.1288C34.9417 29.4084 34.7434 29.434 34.7434 29.7057V32.4353C34.7434 32.7066 34.9417 32.7319 35.1288 32.7319H35.2017V32.889C34.9518 32.889 34.6395 32.8684 34.3803 32.8684C34.125 32.8684 33.8184 32.889 33.6154 32.889V32.7319Z" fill="#211E1F"/>
<path d="M35.2019 32.911C34.9506 32.911 34.6394 32.8896 34.3801 32.8896C34.1259 32.8896 33.8187 32.911 33.6156 32.911H33.5929V32.8889V32.7318V32.7094H33.6156H33.6885C33.8763 32.7065 34.0487 32.6903 34.0495 32.4352V29.7056C34.0487 29.4513 33.8763 29.4339 33.6885 29.4303H33.5929V29.4083V29.2295H33.6156C33.8187 29.2295 34.1309 29.2494 34.3844 29.2494C34.6437 29.2494 34.9556 29.2295 35.2019 29.2295H35.2239V29.2519V29.4303H35.2019H35.1291C34.939 29.4339 34.7685 29.4513 34.7659 29.7056V32.4352C34.7685 32.6903 34.9391 32.7065 35.1291 32.7094H35.2239V32.7318V32.911H35.2019ZM35.1785 32.8655V32.7552H35.1291C34.9426 32.7552 34.722 32.7224 34.722 32.4352V29.7056C34.722 29.4177 34.9426 29.3852 35.1291 29.3852H35.1785V29.2746C34.9383 29.2761 34.638 29.2948 34.3844 29.2948C34.1381 29.2948 33.8399 29.2761 33.6384 29.2746V29.3852H33.6885C33.8735 29.3852 34.0949 29.4177 34.0956 29.7056V32.4352C34.0949 32.7224 33.8735 32.7552 33.6885 32.7552H33.6384V32.8655C33.8389 32.8633 34.1331 32.8456 34.3801 32.8456C34.6322 32.8456 34.9333 32.8644 35.1785 32.8655Z" fill="#211E1F"/>
<path d="M37.2755 29.1748C38.384 29.1748 39.2675 29.8633 39.2675 30.9727C39.2675 32.1714 38.4096 32.9679 37.3026 32.9679C36.1991 32.9679 35.3575 32.2176 35.3575 31.0974C35.3575 30.014 36.1941 29.1748 37.2755 29.1748ZM37.3541 32.7385C38.3631 32.7385 38.5387 31.847 38.5387 31.0873C38.5387 30.3257 38.1291 29.4038 37.2655 29.4038C36.3553 29.4038 36.0852 30.2166 36.0852 30.9142C36.0852 31.847 36.5114 32.7385 37.3541 32.7385Z" fill="#211E1F"/>
<path d="M35.3342 31.0947C35.3364 29.9987 36.1831 29.1509 37.2753 29.1494V29.1722V29.1942C36.2065 29.1942 35.3793 30.0226 35.3782 31.0947C35.3808 32.2023 36.2105 32.9414 37.3024 32.9418C38.3986 32.9414 39.2443 32.156 39.246 30.969C39.245 29.8737 38.3748 29.1956 37.2754 29.1942V29.1722V29.1494C38.3925 29.1501 39.2879 29.8455 39.2901 30.969C39.289 32.1802 38.4199 32.9851 37.3024 32.9873C36.1903 32.9851 35.3364 32.2272 35.3343 31.0947H35.3342V31.0947ZM36.0627 30.9116C36.0641 30.2108 36.3374 29.3777 37.2656 29.3777C38.1484 29.3799 38.5606 30.3192 38.562 31.0846C38.5606 31.8443 38.3821 32.7576 37.3544 32.7576V32.7359V32.7135C38.3432 32.7121 38.5144 31.8443 38.5169 31.0846C38.5169 30.3293 38.1109 29.4251 37.2656 29.424C36.3735 29.425 36.1095 30.2176 36.1078 30.9116C36.1085 31.8396 36.5308 32.7113 37.3544 32.7135V32.7359V32.7576C36.4911 32.7565 36.0641 31.8498 36.0627 30.9116Z" fill="#211E1F"/>
<path d="M42.7719 31.862L42.7824 31.8519V29.8983C42.7824 29.4705 42.4853 29.4084 42.3291 29.4084H42.2166V29.252C42.4604 29.252 42.6995 29.2725 42.9432 29.2725C43.1571 29.2725 43.3702 29.252 43.5836 29.252V29.4084H43.505C43.2872 29.4084 43.0424 29.4499 43.0424 30.0699V32.4411C43.0424 32.6232 43.0475 32.8052 43.0738 32.9667H42.8765L40.1979 29.976V32.1229C40.1979 32.5762 40.2859 32.7319 40.6862 32.7319H40.7752V32.8891C40.5513 32.8891 40.3281 32.8685 40.1045 32.8685C39.8705 32.8685 39.6307 32.8891 39.3967 32.8891V32.7319H39.4698C39.8294 32.7319 39.9372 32.4877 39.9372 32.0712V29.8766C39.9372 29.5851 39.6991 29.4084 39.4644 29.4084H39.3967V29.252C39.5942 29.252 39.7973 29.2726 39.9946 29.2726C40.1507 29.2726 40.3011 29.252 40.4576 29.252L42.7719 31.862Z" fill="#211E1F"/>
<path d="M43.074 32.989L42.8587 32.9814L40.2202 30.0347V32.1227C40.2259 32.5757 40.2948 32.704 40.6853 32.7087H40.7979V32.7322V32.911H40.7751C40.5497 32.911 40.3265 32.89 40.1044 32.89C39.871 32.89 39.6323 32.911 39.3961 32.911H39.3745V32.8886V32.7087H39.3961H39.4697C39.8127 32.7076 39.9111 32.4865 39.9154 32.0711V29.8765C39.9147 29.599 39.6878 29.4307 39.4643 29.4303H39.3745V29.4083V29.2295H39.3961C39.5956 29.2295 39.7982 29.2494 39.9944 29.2494C40.1487 29.2494 40.2987 29.2295 40.4747 29.2371L42.7595 31.8146V29.8986C42.758 29.4839 42.4811 29.434 42.3289 29.4304H42.1923V29.4084V29.2296H42.2157C42.4605 29.2296 42.7003 29.2494 42.9423 29.2494C43.1557 29.2494 43.3678 29.2296 43.5835 29.2296H43.6058V29.2519V29.4304H43.5835H43.5048C43.2909 29.4365 43.0696 29.456 43.0652 30.0698V32.4407C43.0652 32.6227 43.0692 32.8044 43.0945 32.9637L43.0988 32.989H43.074V32.989ZM42.8765 32.9434H43.0466C43.0239 32.787 43.0199 32.6136 43.0199 32.4406V30.0697C43.0199 29.4433 43.2821 29.3866 43.505 29.3848H43.5612V29.2746C43.3561 29.2761 43.1505 29.2948 42.9425 29.2948C42.7059 29.2948 42.4733 29.2761 42.2378 29.2746V29.3848H42.329C42.4902 29.3866 42.8039 29.4578 42.8039 29.8985L42.7982 31.8673L42.7885 31.8782L42.7719 31.8947L40.4576 29.2746C40.3043 29.2746 40.1524 29.2949 39.9945 29.2949C39.803 29.2949 39.6079 29.2761 39.4186 29.2746V29.3848H39.4644C39.7086 29.3866 39.9599 29.5712 39.9599 29.8765V32.0711C39.9599 32.4876 39.8438 32.7542 39.4698 32.7556L39.4186 32.7552V32.8655C39.6444 32.8644 39.8759 32.8456 40.1045 32.8456C40.3212 32.8456 40.5365 32.8644 40.7525 32.8655V32.7556H40.6854C40.2773 32.7552 40.1752 32.5757 40.1752 32.1227V29.9173L42.8765 32.9434ZM42.7596 31.8518V31.8499L42.7552 31.846L42.7596 31.8518Z" fill="#211E1F"/>
<path d="M44.4192 32.1427C44.3684 32.3193 44.3053 32.4559 44.3053 32.5487C44.3053 32.7055 44.5242 32.7308 44.6948 32.7308H44.7528V32.8879C44.5447 32.8767 44.3313 32.8673 44.1232 32.8673C43.9353 32.8673 43.7489 32.8768 43.5624 32.8879V32.7308H43.592C43.7957 32.7308 43.9681 32.6112 44.045 32.3919L44.878 30.0012C44.945 29.8083 45.0391 29.5478 45.0695 29.3546C45.236 29.2979 45.4437 29.1938 45.5436 29.131C45.5584 29.1256 45.5689 29.1201 45.5847 29.1201C45.6002 29.1201 45.6099 29.1201 45.6204 29.1364C45.6363 29.1776 45.6526 29.2249 45.668 29.2664L46.6244 31.9917C46.6867 32.1737 46.7488 32.3663 46.8173 32.5231C46.8797 32.669 46.9893 32.7308 47.1602 32.7308H47.192V32.8879C46.9576 32.8767 46.7236 32.8674 46.4737 32.8674C46.2194 32.8674 45.9591 32.8768 45.6936 32.8879V32.7308H45.7514C45.87 32.7308 46.0741 32.7106 46.0741 32.5802C46.0741 32.5126 46.0268 32.3721 45.9688 32.2048L45.7669 31.6004H44.5863L44.4192 32.1427ZM45.1794 29.8343H45.169L44.6847 31.3089H45.6579L45.1794 29.8343Z" fill="#211E1F"/>
<path d="M47.1898 32.9095C46.9558 32.9001 46.7221 32.8885 46.4737 32.8885C46.2201 32.8885 45.9598 32.9001 45.6944 32.9095L45.6713 32.9109V32.8871V32.7079H45.6937H45.7503C45.8714 32.7079 46.0507 32.6797 46.051 32.5797C46.0521 32.5204 46.0052 32.3785 45.9472 32.2116L45.7496 31.6224H44.6018L44.4409 32.1487C44.389 32.3271 44.327 32.464 44.3281 32.5483C44.3281 32.6761 44.5227 32.7079 44.6948 32.7079H44.7741V32.7303V32.9109L44.7511 32.9095C44.543 32.9001 44.3302 32.8885 44.1233 32.8885C43.9368 32.8885 43.75 32.9001 43.5625 32.9095L43.5397 32.9109V32.8871V32.7079H43.5625H43.5921C43.786 32.7072 43.9483 32.5956 44.0241 32.3842L44.8563 29.9931C44.9227 29.7999 45.0164 29.5401 45.0626 29.3331C45.226 29.2764 45.4347 29.1724 45.5357 29.1088C45.5494 29.1041 45.5635 29.0979 45.5847 29.0979C45.5985 29.0965 45.6251 29.0997 45.6417 29.1283C45.6572 29.1691 45.6723 29.2164 45.6897 29.2587L46.646 31.9836C46.708 32.1664 46.7704 32.359 46.8378 32.5139C46.8987 32.6519 46.9936 32.7065 47.1595 32.7079H47.2136V32.7303V32.9109L47.1898 32.9095ZM45.716 32.8636C45.9731 32.8538 46.2263 32.8437 46.4737 32.8437C46.7156 32.8437 46.9425 32.8538 47.1689 32.8629L47.1682 32.7541H47.1595C46.9835 32.7545 46.8606 32.6851 46.796 32.5316C46.7275 32.3734 46.6655 32.1801 46.6035 31.9984L45.6464 29.2731C45.6309 29.2316 45.615 29.1843 45.6024 29.1489C45.5981 29.1424 45.5985 29.1424 45.5945 29.1424H45.5847C45.5739 29.1424 45.5681 29.146 45.5555 29.1496C45.4542 29.2135 45.2457 29.3175 45.0918 29.3577C45.0596 29.5549 44.9652 29.8147 44.8982 30.0079L44.0655 32.3994C43.9865 32.6255 43.8048 32.7545 43.592 32.7541H43.5844V32.8629C43.7633 32.8538 43.9421 32.8437 44.1232 32.8437C44.3248 32.8437 44.5299 32.8538 44.7301 32.8629V32.7541H44.6947C44.5257 32.7519 44.2883 32.7335 44.2823 32.5482C44.2833 32.4449 44.3478 32.3123 44.398 32.1357L44.4192 32.1425L44.398 32.1349L44.5693 31.5779H45.782L45.9904 32.197C46.0477 32.3647 46.095 32.5031 46.095 32.5796C46.0874 32.7397 45.8692 32.7508 45.7502 32.7541H45.716V32.8636H45.716ZM44.6537 31.3305L45.1524 29.811H45.1682H45.1794H45.1957L45.6872 31.3305H44.6537ZM44.7161 31.2857H45.6255L45.1733 29.8902L44.7161 31.2857Z" fill="#211E1F"/>
<path d="M48.5022 32.3782C48.5022 32.5867 48.6464 32.6488 48.8131 32.6701C49.0262 32.686 49.2602 32.686 49.5004 32.6596C49.7182 32.6333 49.9058 32.5083 49.9987 32.3782C50.0817 32.2633 50.1286 32.1174 50.1599 32.0029H50.3107C50.2537 32.2998 50.1809 32.5924 50.1181 32.889C49.6616 32.889 49.2029 32.8684 48.746 32.8684C48.2877 32.8684 47.8308 32.889 47.3732 32.889V32.7318H47.4446C47.6329 32.7318 47.8362 32.7066 47.8362 32.3833V29.7057C47.8362 29.434 47.6328 29.4084 47.4446 29.4084H47.3732V29.252C47.648 29.252 47.9188 29.2725 48.194 29.2725C48.46 29.2725 48.7197 29.252 48.9851 29.252V29.4084H48.8542C48.6573 29.4084 48.5022 29.4142 48.5022 29.6894V32.3782Z" fill="#211E1F"/>
<path d="M50.1182 32.9109C49.6599 32.9109 49.2024 32.89 48.7462 32.89C48.2882 32.89 47.8305 32.9109 47.3723 32.9109H47.3502V32.8885V32.7094H47.3723H47.4447C47.6333 32.705 47.8115 32.692 47.8136 32.3832V29.7045C47.8114 29.4513 47.6344 29.434 47.4447 29.4303H47.3502V29.4083V29.2295H47.3723C47.6488 29.2295 47.9197 29.2494 48.1944 29.2494C48.4584 29.2494 48.718 29.2295 48.9852 29.2295H49.0065V29.2519V29.4303H48.9852H48.8547C48.6531 29.4361 48.5276 29.4267 48.5237 29.6894V32.3781C48.5251 32.5721 48.6521 32.6245 48.8143 32.6473C48.9063 32.6538 49.0025 32.6577 49.1028 32.6577C49.2301 32.6577 49.3624 32.6516 49.4966 32.6371C49.7086 32.6123 49.8911 32.4898 49.9805 32.3655C50.0606 32.2542 50.1068 32.1112 50.1377 31.9974L50.1425 31.9801H50.1597H50.3383L50.3335 32.0075C50.2748 32.3056 50.2034 32.5967 50.1403 32.8933L50.136 32.911H50.1183H50.1182V32.9109ZM50.0995 32.8654C50.1597 32.5829 50.2279 32.3065 50.2838 32.0248H50.177C50.1445 32.1382 50.0984 32.278 50.0166 32.3918C49.9195 32.5269 49.727 32.6541 49.5016 32.6819C49.3653 32.696 49.2304 32.7032 49.1028 32.7032C49.0022 32.7032 48.9045 32.6985 48.8103 32.6919C48.6412 32.6732 48.4771 32.6009 48.4779 32.3781V29.6893C48.4779 29.3999 48.6606 29.3851 48.8547 29.3851H48.9621V29.2746C48.7058 29.276 48.4533 29.2951 48.1944 29.2951C47.925 29.2951 47.6617 29.276 47.3949 29.2746V29.3851H47.4447C47.6304 29.3851 47.8576 29.4176 47.8576 29.7045V32.3831C47.8576 32.7202 47.6315 32.7552 47.4447 32.7552H47.3949V32.8654C47.8446 32.865 48.2943 32.8455 48.7461 32.8455C49.198 32.8455 49.6495 32.865 50.0995 32.8654Z" fill="#211E1F"/>
<path d="M50.2477 29.1045C50.561 29.1045 50.7951 29.3458 50.7951 29.655C50.7951 29.9628 50.5611 30.202 50.2477 30.202C49.9343 30.202 49.6999 29.9628 49.6999 29.655C49.6999 29.3458 49.9343 29.1045 50.2477 29.1045ZM50.2477 30.0997C50.4925 30.0997 50.6808 29.8902 50.6808 29.655C50.6808 29.4184 50.4954 29.2071 50.2477 29.2071C50.0014 29.2071 49.8132 29.4185 49.8132 29.655C49.8132 29.8902 50.0014 30.0997 50.2477 30.0997ZM49.9751 29.944V29.9169C50.0425 29.9075 50.0547 29.9097 50.0547 29.8678V29.4618C50.0547 29.4047 50.0486 29.3852 49.9776 29.3881V29.3603H50.2578C50.3544 29.3603 50.4427 29.4061 50.4427 29.5058C50.4427 29.5875 50.3886 29.6478 50.3133 29.6713L50.4031 29.797C50.4453 29.854 50.4925 29.9075 50.5239 29.9263V29.944H50.4172C50.366 29.944 50.3212 29.836 50.2202 29.6911H50.1597V29.8736C50.1597 29.9097 50.1723 29.9075 50.2397 29.9169V29.944L49.9751 29.944ZM50.1597 29.655H50.2242C50.2949 29.655 50.3281 29.6012 50.3281 29.5149C50.3281 29.4274 50.2768 29.3967 50.2206 29.3967H50.1597V29.655Z" fill="#211E1F"/>
<path d="M6.51109 21.5433C6.51109 20.682 6.06283 20.7387 5.63299 20.7294V20.4805C6.00549 20.4989 6.38737 20.4989 6.76063 20.4989C7.16198 20.4989 7.70686 20.4805 8.41432 20.4805C10.8888 20.4805 12.2364 22.1364 12.2364 23.8321C12.2364 24.7804 11.6825 27.1642 8.29929 27.1642C7.81212 27.1642 7.36244 27.1454 6.91349 27.1454C6.48365 27.1454 6.06283 27.1548 5.63295 27.1642V26.9157C6.20599 26.8579 6.48365 26.8388 6.51106 26.1874L6.51109 21.5433ZM7.44794 26.0346C7.44794 26.7719 7.97406 26.8579 8.44213 26.8579C10.5069 26.8579 11.1849 25.297 11.1849 23.87C11.1849 22.08 10.0378 20.7875 8.19371 20.7875C7.80137 20.7875 7.62107 20.8157 7.44798 20.8258L7.44794 26.0346Z" fill="#211E1F"/>
<path d="M12.5718 26.9152H12.7528C13.0201 26.9152 13.2116 26.9152 13.2116 26.5983V24.0039C13.2116 23.5831 13.0684 23.5245 12.7147 23.3341V23.1806C13.1636 23.0455 13.6995 22.8649 13.737 22.836C13.8044 22.7977 13.8614 22.7876 13.9093 22.7876C13.9566 22.7876 13.9764 22.8454 13.9764 22.9223V26.5983C13.9764 26.9152 14.1866 26.9152 14.4542 26.9152H14.6165V27.1641C14.2912 27.1641 13.9566 27.145 13.6133 27.145C13.2693 27.145 12.9249 27.1544 12.5719 27.1641V26.9152H12.5718ZM13.5941 21.3133C13.3454 21.3133 13.1261 21.0836 13.1261 20.8346C13.1261 20.5947 13.3555 20.374 13.5941 20.374C13.8419 20.374 14.0626 20.576 14.0626 20.8346C14.0626 21.0933 13.8516 21.3133 13.5941 21.3133Z" fill="#211E1F"/>
<path d="M15.5243 24.0615C15.5243 23.7075 15.4186 23.6121 14.9704 23.43V23.2484C15.3811 23.1143 15.7724 22.9897 16.2314 22.7881C16.2599 22.7881 16.288 22.8076 16.288 22.8839V23.5066C16.8337 23.1143 17.3021 22.7881 17.9432 22.7881C18.7546 22.7881 19.0412 23.3819 19.0412 24.1286V26.5989C19.0412 26.9157 19.2514 26.9157 19.5194 26.9157H19.6914V27.1646C19.356 27.1646 19.0218 27.1455 18.6785 27.1455C18.3341 27.1455 17.9896 27.1549 17.646 27.1646V26.9157H17.8177C18.0859 26.9157 18.276 26.9157 18.276 26.5989V24.1196C18.276 23.573 17.9432 23.3054 17.3976 23.3054C17.0922 23.3054 16.6046 23.5543 16.288 23.7652V26.5988C16.288 26.9157 16.4993 26.9157 16.7673 26.9157H16.9389V27.1646C16.6046 27.1646 16.2696 27.1454 15.9256 27.1454C15.5819 27.1454 15.2372 27.1549 14.8935 27.1646V26.9157H15.0659C15.3335 26.9157 15.5242 26.9157 15.5242 26.5988V24.0615H15.5243Z" fill="#211E1F"/>
<path d="M20.4181 24.5217C20.3982 24.6081 20.3982 24.7515 20.4181 25.0773C20.4744 25.9866 21.0589 26.7333 21.8222 26.7333C22.3484 26.7333 22.7602 26.4461 23.1132 26.0921L23.2466 26.2265C22.8067 26.8103 22.2621 27.308 21.4789 27.308C19.959 27.308 19.6532 25.833 19.6532 25.2208C19.6532 23.3437 20.9146 22.7881 21.5831 22.7881C22.3577 22.7881 23.1897 23.2762 23.1987 24.2912C23.1987 24.3494 23.1987 24.4061 23.1897 24.4643L23.1031 24.5217H20.4181ZM22.11 24.2151C22.3484 24.2151 22.3766 24.0904 22.3766 23.9759C22.3766 23.4875 22.0805 23.0948 21.545 23.0948C20.9626 23.0948 20.5612 23.525 20.4465 24.2151H22.11Z" fill="#211E1F"/>
<path d="M23.4188 26.9157H23.677C23.9437 26.9157 24.1349 26.9157 24.1349 26.5989V23.9087C24.1349 23.6121 23.7819 23.5543 23.638 23.4777V23.3347C24.3358 23.0373 24.7183 22.7881 24.8052 22.7881C24.8619 22.7881 24.89 22.817 24.89 22.9131V23.7747H24.9102C25.1485 23.4015 25.5506 22.7881 26.133 22.7881C26.3721 22.7881 26.6775 22.9506 26.6775 23.2956C26.6775 23.5543 26.4965 23.7848 26.229 23.7848C25.9315 23.7848 25.9315 23.5543 25.5976 23.5543C25.4349 23.5543 24.9002 23.7747 24.9002 24.3494V26.5989C24.9002 26.9157 25.0909 26.9157 25.3588 26.9157H25.8936V27.1646C25.3678 27.1549 24.9679 27.1455 24.5561 27.1455C24.1645 27.1455 23.7628 27.1549 23.4188 27.1646L23.4188 26.9157Z" fill="#211E1F"/>
<path d="M27.0983 25.833C27.2228 26.4652 27.6046 27.0017 28.3027 27.0017C28.8653 27.0017 29.0758 26.6571 29.0758 26.3218C29.0758 25.1918 26.993 25.5556 26.993 24.0142C26.993 23.4777 27.4235 22.7881 28.4743 22.7881C28.7798 22.7881 29.1905 22.8748 29.563 23.0666L29.6308 24.0424H29.4105C29.3153 23.4398 28.981 23.0948 28.3687 23.0948C27.9864 23.0948 27.6237 23.3152 27.6237 23.7266C27.6237 24.848 29.8407 24.5022 29.8407 26.0054C29.8407 26.6372 29.334 27.3081 28.1967 27.3081C27.8144 27.3081 27.3654 27.174 27.0312 26.9829L26.9259 25.8815L27.0983 25.833Z" fill="#211E1F"/>
<path d="M38.4704 22.2124H38.232C38.0503 21.0925 37.257 20.642 36.187 20.642C35.0872 20.642 33.4912 21.3789 33.4912 23.6769C33.4912 25.6124 34.8683 27.0003 36.3396 27.0003C37.2854 27.0003 38.0697 26.3493 38.2608 25.3437L38.4801 25.4007L38.2608 26.7987C37.8595 27.0484 36.7795 27.3067 36.1481 27.3067C33.9123 27.3067 32.4984 25.8606 32.4984 23.7061C32.4984 21.7431 34.2469 20.335 36.1199 20.335C36.8938 20.335 37.6392 20.5849 38.3752 20.8436L38.4704 22.2124Z" fill="#211E1F"/>
<path d="M38.8151 26.9161H38.9961C39.264 26.9161 39.4559 26.9161 39.4559 26.5993V21.2666C39.4559 20.6438 39.3123 20.6246 38.9488 20.5195V20.3663C39.3311 20.2421 39.7324 20.0694 39.9333 19.9542C40.0375 19.8971 40.1147 19.8486 40.1428 19.8486C40.2012 19.8486 40.2203 19.9065 40.2203 19.9834V26.5993C40.2203 26.9161 40.4302 26.9161 40.6981 26.9161H40.8593V27.165C40.5358 27.165 40.2012 27.1459 39.8568 27.1459C39.5132 27.1459 39.1692 27.1553 38.815 27.165V26.9161H38.8151Z" fill="#211E1F"/>
<path d="M44.9513 26.6377C44.9513 26.8107 45.0559 26.8201 45.2182 26.8201C45.3332 26.8201 45.476 26.8107 45.6008 26.8107V27.0123C45.1894 27.0502 44.4058 27.2514 44.224 27.3085L44.176 27.2796V26.5047C43.6034 26.9736 43.1631 27.3085 42.4841 27.3085C41.9681 27.3085 41.433 26.9736 41.433 26.1698V23.7177C41.433 23.4688 41.3951 23.2292 40.8607 23.1816V22.9995C41.2051 22.9901 41.9681 22.9327 42.0928 22.9327C42.1989 22.9327 42.1989 22.9995 42.1989 23.2101V25.6799C42.1989 25.9679 42.1989 26.7911 43.0297 26.7911C43.3546 26.7911 43.7844 26.5422 44.1855 26.2081V23.6309C44.1855 23.4402 43.7271 23.3351 43.3838 23.239V23.0666C44.2428 23.0088 44.779 22.9326 44.8739 22.9326C44.9513 22.9326 44.9513 22.9994 44.9513 23.1053L44.9513 26.6377Z" fill="#211E1F"/>
<path d="M46.8529 23.4781C47.2348 23.1526 47.7508 22.7885 48.2769 22.7885C49.3857 22.7885 50.054 23.7566 50.054 24.7995C50.054 26.0538 49.137 27.3084 47.7695 27.3084C47.0627 27.3084 46.6902 27.0783 46.4414 26.9735L46.1551 27.1931L45.955 27.0884C46.0397 26.5234 46.0884 25.9678 46.0884 25.384V21.2665C46.0884 20.6438 45.9441 20.6246 45.5813 20.5195V20.3663C45.9647 20.2421 46.3649 20.0694 46.5658 19.9541C46.6711 19.897 46.7472 19.8486 46.7768 19.8486C46.8337 19.8486 46.8528 19.9065 46.8528 19.9834V23.4781H46.8529V23.4781ZM46.8529 26.0824C46.8529 26.4465 47.1965 27.0599 47.837 27.0599C48.8596 27.0599 49.2895 26.0538 49.2895 25.2013C49.2895 24.1674 48.5066 23.3058 47.7609 23.3058C47.4064 23.3058 47.1107 23.536 46.8529 23.7566L46.8529 26.0824Z" fill="#211E1F"/>
<path d="M5.62216 32.7319H5.69536C5.88216 32.7319 6.07977 32.7066 6.07977 32.4353V29.7057C6.07977 29.434 5.88216 29.4084 5.69536 29.4084H5.62216V29.252C5.82518 29.252 6.1371 29.2725 6.39277 29.2725C6.65241 29.2725 6.96397 29.252 7.20846 29.252V29.4084H7.13525C6.94882 29.4084 6.75089 29.434 6.75089 29.7057V32.4353C6.75089 32.7066 6.94882 32.7319 7.13525 32.7319H7.20846V32.889C6.95892 32.889 6.64628 32.8684 6.387 32.8684C6.13209 32.8684 5.82518 32.889 5.62216 32.889V32.7319Z" fill="#211E1F"/>
<path d="M7.20859 32.9088C6.95725 32.9088 6.64573 32.8878 6.38678 32.8878C6.13255 32.8878 5.82679 32.9088 5.6223 32.9088H5.59998V32.8864V32.73V32.7072H5.6223H5.69517C5.88373 32.7029 6.05542 32.6877 6.05722 32.433V29.7034C6.05542 29.4487 5.88377 29.4317 5.69517 29.4281H5.59998V29.4061V29.2266H5.6223C5.82679 29.2266 6.13836 29.2472 6.39255 29.2472C6.65146 29.2472 6.9627 29.2266 7.20859 29.2266H7.23171V29.2504V29.4281H7.20859H7.13575C6.94716 29.4318 6.77439 29.4487 6.77335 29.7034V32.433C6.77439 32.6877 6.94712 32.7029 7.13575 32.7072H7.23167V32.73V32.9088H7.20859ZM7.18624 32.8643V32.7531H7.13579C6.95008 32.7531 6.72903 32.7209 6.72791 32.433V29.7034C6.72899 29.4155 6.95004 29.383 7.13579 29.383H7.18624V29.2724C6.94607 29.2724 6.64497 29.2927 6.39255 29.2927C6.14553 29.2927 5.84659 29.2739 5.64537 29.2724V29.383H5.69514C5.88049 29.383 6.10226 29.4155 6.10226 29.7034V32.433C6.10226 32.7209 5.88049 32.7531 5.69514 32.7531H5.64537V32.8643C5.84659 32.8622 6.14045 32.8434 6.38678 32.8434C6.63992 32.8434 6.94102 32.8629 7.18624 32.8643Z" fill="#211E1F"/>
<path d="M10.781 31.862L10.7915 31.8519V29.8983C10.7915 29.4705 10.4947 29.4084 10.3389 29.4084H10.2242V29.252C10.4691 29.252 10.7082 29.2725 10.9523 29.2725C11.1654 29.2725 11.3796 29.252 11.5924 29.252V29.4084H11.5145C11.2956 29.4084 11.0511 29.4499 11.0511 30.0699V32.4411C11.0511 32.6232 11.0565 32.8052 11.0821 32.9667H10.8841L8.20665 29.976V32.1229C8.20665 32.5762 8.29427 32.7319 8.69526 32.7319H8.78322V32.8891C8.56004 32.8891 8.33679 32.8685 8.11285 32.8685C7.87954 32.8685 7.64014 32.8891 7.40575 32.8891V32.7319H7.47859C7.83739 32.7319 7.94633 32.4877 7.94633 32.0712V29.8766C7.94633 29.5851 7.70653 29.4084 7.47358 29.4084H7.40578V29.252C7.60336 29.252 7.80605 29.2726 8.0033 29.2726C8.15941 29.2726 8.31054 29.252 8.46628 29.252L10.781 31.862Z" fill="#211E1F"/>
<path d="M11.082 32.9894L10.8674 32.9814L8.22849 30.0347V32.1227C8.23462 32.5757 8.3035 32.7044 8.69512 32.7094H8.80654V32.7318V32.911H8.78346C8.55845 32.911 8.33451 32.89 8.1127 32.89C7.87975 32.89 7.64103 32.911 7.4052 32.911H7.38248V32.8886V32.7094H7.4052H7.4784C7.82206 32.7076 7.92014 32.4865 7.92411 32.0711V29.8768C7.92335 29.5994 7.69621 29.4311 7.47335 29.4303H7.38245V29.4072V29.2295H7.40516C7.60389 29.2295 7.8076 29.2494 8.00268 29.2494C8.15738 29.2494 8.30815 29.2295 8.48337 29.2371L10.7689 31.8146V29.8986C10.766 29.4838 10.4902 29.434 10.3387 29.4303H10.2009V29.4072V29.2295H10.224C10.4696 29.2295 10.709 29.2494 10.9521 29.2494C11.1637 29.2494 11.3769 29.2295 11.5918 29.2295H11.6145V29.2519V29.4303H11.5918H11.5142C11.2997 29.4365 11.0794 29.4552 11.0733 30.0697V32.4406C11.0733 32.6227 11.0786 32.8047 11.1039 32.9626L11.109 32.9893H11.082V32.9894ZM10.8844 32.9434H11.0564C11.033 32.787 11.029 32.6136 11.029 32.4406V30.0697C11.029 29.4444 11.2904 29.3852 11.5144 29.3852H11.5692V29.2746C11.3643 29.2761 11.1588 29.2948 10.9522 29.2948C10.7142 29.2948 10.4827 29.2761 10.2472 29.2746L10.2469 29.3852H10.3388C10.4986 29.3852 10.8141 29.4567 10.8141 29.8985L10.8069 31.8673L10.7964 31.8782L10.7788 31.8944L8.4662 29.2746C8.3119 29.2746 8.16113 29.2948 8.00283 29.2948C7.81207 29.2948 7.61698 29.2761 7.42839 29.2746L7.4273 29.3852H7.47346C7.71759 29.3852 7.96821 29.5719 7.96821 29.8768V32.071C7.96821 32.4875 7.85246 32.7541 7.47851 32.7556L7.42839 32.7541V32.8665C7.65376 32.8643 7.88527 32.8455 8.11278 32.8455C8.3299 32.8455 8.5459 32.8643 8.76078 32.8665V32.7556H8.69519C8.28587 32.7541 8.18421 32.5757 8.18382 32.1227V29.9172L10.8844 32.9434ZM10.769 31.8514V31.8496L10.7646 31.846L10.769 31.8514Z" fill="#211E1F"/>
<path d="M12.3709 29.5127C11.9803 29.5127 11.9655 29.6067 11.8876 29.9867H11.7315C11.7521 29.8411 11.778 29.6955 11.7939 29.5438C11.8148 29.3978 11.8249 29.2526 11.8249 29.1016H11.95C11.9918 29.258 12.1217 29.2526 12.2627 29.2526H14.9452C15.0858 29.2526 15.2157 29.2476 15.2265 29.0908L15.3505 29.1118C15.3303 29.2526 15.3094 29.3932 15.2935 29.534C15.2841 29.6746 15.2841 29.8154 15.2841 29.9556L15.1276 30.0138C15.1168 29.8212 15.0909 29.5127 14.7429 29.5127H13.89V32.2849C13.89 32.6866 14.0722 32.7326 14.321 32.7326H14.4201V32.8897C14.2175 32.8897 13.8529 32.8691 13.5727 32.8691C13.2608 32.8691 12.8962 32.8897 12.6932 32.8897V32.7326H12.7924C13.079 32.7326 13.224 32.7069 13.224 32.2958V29.5127H12.3709Z" fill="#211E1F"/>
<path d="M14.4209 32.9099C14.216 32.9099 13.8522 32.8889 13.5727 32.8889C13.2611 32.8889 12.8973 32.9099 12.6932 32.9099H12.6715V32.8878V32.7083H12.6932H12.7923C13.079 32.7014 13.1944 32.6978 13.2009 32.2939V29.5336H12.3708V29.5108V29.4877H13.246V32.2939C13.246 32.7119 13.078 32.7541 12.7924 32.7545H12.7159V32.8643C12.9211 32.8633 13.2709 32.8444 13.5727 32.8444C13.8439 32.8444 14.1915 32.8633 14.3971 32.8643V32.7545H14.321C14.0696 32.7541 13.8673 32.6924 13.8673 32.2831V29.4877H14.7429C15.0919 29.4892 15.1374 29.7865 15.1489 29.9797L15.2611 29.9382C15.2611 29.8024 15.2618 29.6662 15.2712 29.5289C15.2863 29.3949 15.3054 29.2619 15.3249 29.129L15.2455 29.1156C15.2214 29.2674 15.0753 29.2749 14.9444 29.2735H12.2626H12.2356C12.1133 29.2735 11.9795 29.2677 11.933 29.1222H11.8472C11.8464 29.2663 11.8363 29.4061 11.8165 29.5448C11.8014 29.6879 11.7776 29.8255 11.7581 29.9632H11.8695C11.938 29.6001 11.9828 29.4823 12.3708 29.4878V29.5109V29.5336C11.9863 29.5405 11.9943 29.6055 11.9095 29.9906L11.9056 30.0083H11.8876H11.7055L11.7084 29.9812C11.7293 29.8353 11.7556 29.69 11.7711 29.5383C11.7927 29.3938 11.8028 29.2493 11.8028 29.0997V29.077H11.8248H11.9676L11.9712 29.0932C12.0069 29.2247 12.1032 29.2255 12.2356 29.2276H12.2626H14.9444C15.0894 29.2255 15.1947 29.2233 15.2037 29.0871L15.2059 29.0625L15.2293 29.0676L15.3761 29.0907L15.3728 29.1135C15.3519 29.2529 15.3313 29.3938 15.3162 29.5336C15.3057 29.6723 15.3057 29.8132 15.3057 29.9537V29.97L15.2913 29.9758L15.1071 30.0429L15.1056 30.0126C15.0919 29.8168 15.0714 29.5336 14.7428 29.5336H13.9127V32.283C13.9174 32.6761 14.0732 32.7032 14.3209 32.7082H14.4428V32.7306V32.9098L14.4209 32.9099Z" fill="#211E1F"/>
<path d="M15.5168 32.7319H15.59C15.7768 32.7319 15.9747 32.7066 15.9747 32.4353V29.7057C15.9747 29.434 15.7768 29.4084 15.59 29.4084H15.5168V29.252C15.8334 29.252 16.3751 29.2725 16.811 29.2725C17.2488 29.2725 17.7886 29.252 18.142 29.252C18.1334 29.4756 18.138 29.8202 18.1535 30.0489L17.9966 30.0908C17.9718 29.7523 17.9094 29.4817 17.3631 29.4817H16.6408V30.8462H17.2589C17.5708 30.8462 17.639 30.6695 17.6696 30.3874H17.8254C17.8153 30.5915 17.8099 30.7946 17.8099 30.9976C17.8099 31.1959 17.8153 31.3935 17.8254 31.5915L17.6696 31.6225C17.639 31.3101 17.6231 31.107 17.2639 31.107H16.6408V32.3204C16.6408 32.6596 16.9412 32.6596 17.2744 32.6596C17.8986 32.6596 18.1737 32.6174 18.3299 32.0242L18.4756 32.06C18.4074 32.3367 18.3454 32.6123 18.2993 32.889C17.9661 32.889 17.3678 32.8684 16.9004 32.8684C16.4317 32.8684 15.8133 32.889 15.5168 32.889V32.7319Z" fill="#211E1F"/>
<path d="M18.2988 32.911C17.9649 32.911 17.367 32.8896 16.9 32.8896C16.4316 32.8896 15.8135 32.911 15.5167 32.911H15.4948V32.8889V32.7318V32.7094H15.5167H15.5896C15.7781 32.7065 15.9491 32.6899 15.9516 32.4352V29.7056C15.9491 29.4513 15.7781 29.4343 15.5896 29.4303H15.4948V29.4083V29.2295H15.5167C15.834 29.2295 16.375 29.2494 16.8109 29.2494C17.2483 29.2494 17.7878 29.2295 18.1419 29.2295H18.1653L18.1642 29.2526C18.1606 29.331 18.1592 29.4234 18.1592 29.5217C18.1592 29.702 18.1642 29.8988 18.1747 30.0474L18.1754 30.0661L18.1581 30.0712L17.9753 30.1189L17.9743 30.0922C17.9436 29.7541 17.8985 29.5088 17.3631 29.5037H16.6624L16.6617 30.8226H17.2589C17.5582 30.8197 17.6119 30.6662 17.6472 30.3855L17.6491 30.3649H17.6692H17.8485L17.8481 30.3884C17.8381 30.5914 17.8315 30.7944 17.8315 30.9974C17.8315 31.1947 17.8381 31.3923 17.8481 31.5906L17.8485 31.6091L17.8297 31.6134L17.6491 31.6495L17.6472 31.6249C17.6115 31.307 17.609 31.1329 17.2635 31.129L16.6624 31.1286V32.3203C16.6628 32.6368 16.9354 32.635 17.2744 32.6368C17.9003 32.6332 18.1514 32.6029 18.3082 32.0176L18.3133 31.9967L18.3353 32.0006L18.5019 32.0436L18.4968 32.0653C18.4298 32.3413 18.3674 32.6166 18.3208 32.8925L18.3165 32.911H18.2988ZM18.2797 32.8655C18.3248 32.6028 18.3842 32.3391 18.4481 32.0768L18.3453 32.0508C18.1895 32.6339 17.888 32.6859 17.2743 32.6819C16.9469 32.6819 16.6187 32.6819 16.6172 32.3203V31.0841H17.2635C17.6266 31.0801 17.6638 31.2998 17.6894 31.5964L17.8019 31.5729C17.7918 31.3811 17.7871 31.1885 17.7871 30.9974C17.7871 30.8012 17.7918 30.6062 17.8019 30.41H17.6894C17.6605 30.6813 17.5758 30.8721 17.2588 30.8684H16.6173V29.4581H17.3631C17.904 29.4545 17.9937 29.7341 18.0168 30.0618L18.129 30.0314C18.12 29.8844 18.1138 29.6958 18.1138 29.5217C18.1138 29.4325 18.116 29.3483 18.1189 29.2746C17.7655 29.2761 17.239 29.2948 16.811 29.2948C16.3836 29.2948 15.8576 29.2761 15.5391 29.2746V29.3852H15.5896C15.7749 29.3852 15.9964 29.4177 15.997 29.7056V32.4352C15.9963 32.7224 15.7749 32.7542 15.5896 32.7556H15.5391V32.8655C15.8424 32.8651 16.4432 32.8456 16.9 32.8456C17.3587 32.8456 17.9443 32.8651 18.2797 32.8655Z" fill="#211E1F"/>
<path d="M19.1773 29.8043C19.1773 29.4243 18.9696 29.4087 18.8077 29.4087H18.7143V29.252C18.8809 29.252 19.2029 29.2729 19.5202 29.2729C19.8322 29.2729 20.0821 29.252 20.3572 29.252C21.012 29.252 21.5952 29.4293 21.5952 30.1699C21.5952 30.6377 21.2833 30.9245 20.8725 31.0867L21.7614 32.4197C21.907 32.6401 22.0106 32.7019 22.2659 32.7322V32.8894C22.0942 32.8894 21.9276 32.8688 21.7563 32.8688C21.5952 32.8688 21.4282 32.8894 21.2677 32.8894C20.8674 32.363 20.5234 31.8002 20.1855 31.2005H19.8433V32.3161C19.8433 32.7178 20.0298 32.7322 20.2688 32.7322H20.3626V32.8894C20.0654 32.8894 19.7651 32.8688 19.4683 32.8688C19.2184 32.8688 18.9739 32.8894 18.7143 32.8894V32.7322H18.8077C19.0009 32.7322 19.1773 32.6448 19.1773 32.4515V29.8043ZM19.8433 31.013H20.0972C20.6175 31.013 20.8977 30.8151 20.8977 30.2002C20.8977 29.7371 20.6017 29.4398 20.1383 29.4398C19.9821 29.4398 19.9158 29.4561 19.8432 29.4608V31.013H19.8433Z" fill="#211E1F"/>
<path d="M22.2659 32.9116C22.0918 32.9116 21.9262 32.8907 21.7553 32.8907C21.5967 32.8907 21.4308 32.9116 21.2494 32.9029C20.8506 32.3788 20.5087 31.8192 20.1726 31.2239H19.8654V32.3156C19.8708 32.7076 20.028 32.7043 20.2686 32.7101H20.385V32.7325V32.9117H20.3619C20.0648 32.9117 19.763 32.8907 19.4676 32.8907C19.2192 32.8907 18.9754 32.9117 18.7143 32.9117H18.6916V32.8893V32.7101H18.7143H18.8077C18.9952 32.709 19.1532 32.6274 19.1539 32.4518V29.8046C19.15 29.4347 18.9693 29.4368 18.8077 29.4314H18.6916V29.409V29.2295H18.7143C18.8827 29.2295 19.2037 29.25 19.5203 29.25C19.8307 29.25 20.0807 29.2295 20.3576 29.2295C21.0128 29.2309 21.6165 29.4123 21.6183 30.1687C21.6183 30.6394 21.3078 30.9331 20.9064 31.0971L21.7802 32.4077C21.9255 32.6237 22.016 32.6776 22.2692 32.7101L22.2883 32.713V32.7325V32.9117H22.2659V32.9116ZM19.8427 31.1783H20.1982L20.2044 31.1899C20.5433 31.7885 20.8848 32.3506 21.2678 32.8672C21.4265 32.8672 21.5934 32.8458 21.7553 32.8458C21.9215 32.8458 22.0816 32.8639 22.2435 32.8664V32.7523C21.9994 32.7219 21.8851 32.649 21.7431 32.4326L20.8383 31.076L20.8639 31.0656C21.2707 30.9052 21.5718 30.6267 21.5721 30.1686C21.5718 29.4457 21.0114 29.2782 20.3576 29.2753C20.0832 29.2753 19.8336 29.2959 19.5203 29.2959C19.2149 29.2959 18.9065 29.2767 18.7363 29.2753V29.3858H18.8077C18.9693 29.3862 19.1993 29.4129 19.1993 29.8045V32.4517C19.1993 32.6609 19.0035 32.7562 18.8077 32.7566H18.7363V32.8664C18.9866 32.8657 19.2235 32.8458 19.4676 32.8458C19.7586 32.8458 20.0518 32.8657 20.3396 32.8664V32.7566H20.2685C20.0312 32.7562 19.82 32.7266 19.82 32.3155V31.1783H19.8426H19.8427ZM19.8427 31.0353H19.82V29.44L19.8398 29.4382C19.9108 29.4328 19.9812 29.418 20.1384 29.418C20.6122 29.418 20.9202 29.7265 20.9209 30.2015C20.9194 30.8235 20.6216 31.0349 20.0972 31.0352H19.8427V31.0353ZM20.0972 30.9905C20.6121 30.9861 20.8711 30.807 20.8765 30.2015C20.8736 29.7463 20.5913 29.4638 20.1383 29.462C19.9977 29.462 19.9317 29.475 19.8654 29.4808V30.9905H20.0972Z" fill="#211E1F"/>
<path d="M25.7965 31.862L25.8059 31.8519V29.8983C25.8059 29.4705 25.5099 29.4084 25.3541 29.4084H25.2401V29.252C25.4843 29.252 25.723 29.2725 25.9678 29.2725C26.1813 29.2725 26.3937 29.252 26.6083 29.252V29.4084H26.53C26.3115 29.4084 26.067 29.4499 26.067 30.0699V32.4411C26.067 32.6232 26.0721 32.8052 26.0977 32.9667H25.9004L23.2226 29.976V32.1229C23.2226 32.5762 23.3109 32.7319 23.7112 32.7319H23.7996V32.8891C23.5763 32.8891 23.3524 32.8685 23.1292 32.8685C22.8944 32.8685 22.6553 32.8891 22.4217 32.8891V32.7319H22.4938C22.853 32.7319 22.9622 32.4877 22.9622 32.0712V29.8766C22.9622 29.5851 22.7231 29.4084 22.4895 29.4084H22.4217V29.252C22.6186 29.252 22.8223 29.2726 23.0195 29.2726C23.1746 29.2726 23.3261 29.252 23.4822 29.252L25.7965 31.862Z" fill="#211E1F"/>
<path d="M26.0978 32.9868L25.8837 32.9795L23.2444 30.0325V32.1202C23.2506 32.5735 23.3191 32.7021 23.7114 32.7072H23.8214V32.7296V32.9088H23.7987C23.5737 32.9088 23.3508 32.8874 23.1279 32.8874C22.8957 32.8874 22.6555 32.9088 22.4215 32.9088H22.3981V32.8867V32.7072H22.4215H22.4936C22.8369 32.7057 22.9354 32.4843 22.9386 32.0674V29.8743C22.9383 29.5968 22.7115 29.4285 22.4893 29.4281H22.3981V29.4061V29.2266H22.4215C22.6198 29.2266 22.8233 29.2471 23.0194 29.2471C23.1723 29.2471 23.323 29.2266 23.4976 29.2338L25.7835 31.8124V29.8956C25.782 29.4816 25.505 29.4303 25.354 29.4281H25.2165V29.4061V29.2266H25.2393C25.4852 29.2266 25.7246 29.2471 25.9677 29.2471C26.1798 29.2471 26.3929 29.2266 26.607 29.2266H26.6297V29.25V29.4281H26.607H26.5298C26.3153 29.4339 26.0942 29.453 26.0888 30.0675V32.4384C26.0888 32.6205 26.0935 32.8011 26.1199 32.9615L26.1227 32.9868H26.0978ZM25.9003 32.9412H26.0712C26.0484 32.7848 26.0434 32.6114 26.0434 32.4384V30.0675C26.0437 29.4422 26.307 29.3844 26.5298 29.3826H26.5843V29.2724C26.3802 29.2739 26.1743 29.2926 25.9677 29.2926C25.729 29.2926 25.497 29.2739 25.2616 29.2724V29.3826H25.3539C25.514 29.3844 25.8292 29.4545 25.8292 29.8956L25.822 31.8651L25.8119 31.8759L25.7961 31.8925L23.4817 29.2724C23.3273 29.2724 23.1766 29.2927 23.0194 29.2927C22.8269 29.2927 22.6325 29.2739 22.4432 29.2724V29.3826H22.4893C22.7335 29.3844 22.9841 29.569 22.9841 29.8743V32.0674C22.9841 32.4857 22.8665 32.7519 22.4937 32.7534L22.4432 32.753V32.8632C22.6678 32.8621 22.8997 32.8433 23.128 32.8433C23.3462 32.8433 23.5622 32.8621 23.7771 32.8632V32.7534H23.7114C23.3018 32.753 23.1994 32.5735 23.1987 32.1201V29.9158L25.9003 32.9412ZM25.7834 31.8495V31.8477L25.7794 31.8438L25.7834 31.8495Z" fill="#211E1F"/>
<path d="M27.4445 32.1427C27.3919 32.3193 27.3292 32.4559 27.3292 32.5487C27.3292 32.7055 27.5481 32.7308 27.719 32.7308H27.777V32.8879C27.5686 32.8767 27.3562 32.8673 27.1467 32.8673C26.9596 32.8673 26.7735 32.8768 26.586 32.8879V32.7308H26.6173C26.82 32.7308 26.992 32.6112 27.0688 32.3919L27.9018 30.0012C27.9689 29.8083 28.0634 29.5478 28.0948 29.3546C28.2603 29.2979 28.4687 29.1938 28.5672 29.131C28.5834 29.1256 28.5924 29.1201 28.6087 29.1201C28.6242 29.1201 28.6342 29.1201 28.6458 29.1364C28.6609 29.1776 28.6761 29.2249 28.6927 29.2664L29.6493 31.9917C29.7117 32.1737 29.7733 32.3663 29.8408 32.5231C29.9036 32.669 30.0132 32.7308 30.1852 32.7308H30.2158V32.8879C29.9819 32.8767 29.7475 32.8674 29.4986 32.8674C29.2437 32.8674 28.9829 32.8768 28.7179 32.8879V32.7308H28.7756C28.8947 32.7308 29.098 32.7106 29.098 32.5802C29.098 32.5126 29.0511 32.3721 28.9931 32.2048L28.7908 31.6004H27.6105L27.4445 32.1427ZM28.2033 29.8343H28.1928L27.7092 31.3089H28.6811L28.2033 29.8343Z" fill="#211E1F"/>
<path d="M30.2144 32.9103C29.9803 32.8998 29.7463 32.8889 29.4986 32.8889C29.2436 32.8889 28.9847 32.8998 28.7186 32.9103L28.6951 32.9117V32.8882V32.708H28.7179H28.7752C28.8956 32.708 29.0745 32.6805 29.0745 32.5805C29.0759 32.5212 29.029 32.3781 28.9717 32.2124L28.7737 31.6232H27.6267L27.4651 32.1495C27.4124 32.3272 27.3501 32.4648 27.3505 32.5497C27.3522 32.6769 27.5466 32.708 27.719 32.708H27.799V32.7314V32.9117L27.7756 32.9103C27.5675 32.8998 27.3551 32.8889 27.1478 32.8889C26.9614 32.8889 26.7739 32.8998 26.5875 32.9103L26.5633 32.9117V32.8882V32.708H26.586H26.617C26.8106 32.7072 26.9722 32.5971 27.0472 32.385L27.8799 29.9939C27.948 29.8007 28.0418 29.5409 28.0868 29.3332C28.2498 29.2779 28.4586 29.1732 28.5589 29.1096C28.5733 29.1049 28.5878 29.0977 28.609 29.0977C28.6217 29.0973 28.6497 29.1006 28.6664 29.1281C28.6812 29.171 28.6973 29.2173 28.7132 29.2596L29.671 31.9845C29.7324 32.1673 29.7943 32.3598 29.8622 32.5137C29.9224 32.6528 30.018 32.7073 30.1852 32.708H30.2383V32.7315V32.9118L30.2144 32.9103ZM28.7406 32.8637C28.9981 32.8546 29.2501 32.8445 29.4986 32.8445C29.7401 32.8445 29.9662 32.8546 30.1923 32.8637V32.7549H30.1851C30.007 32.756 29.884 32.6859 29.8202 32.5324C29.7524 32.3742 29.6889 32.1809 29.628 31.9985L28.6706 29.2739C28.6548 29.2324 28.6396 29.1851 28.6259 29.1482C28.6216 29.1432 28.6226 29.1432 28.6183 29.1432H28.6089C28.5981 29.1432 28.592 29.1464 28.5786 29.15C28.4784 29.2154 28.2696 29.3176 28.1156 29.3585C28.0835 29.5557 27.9901 29.8158 27.9223 30.0087L27.0901 32.4002C27.0108 32.6263 26.8286 32.7553 26.617 32.7549H26.6087V32.8637C26.7868 32.8546 26.9671 32.8445 27.1478 32.8445C27.3486 32.8445 27.5542 32.8546 27.7525 32.8637V32.7549H27.719C27.5499 32.7527 27.3133 32.7336 27.3068 32.5497C27.3071 32.4457 27.371 32.3124 27.4218 32.1365L27.4445 32.1433L27.4218 32.1357L27.5931 31.5787H28.8055L29.0142 32.1979C29.0727 32.3651 29.1199 32.5039 29.1199 32.5804C29.1127 32.7405 28.8931 32.7517 28.7752 32.7549H28.7405L28.7406 32.8637ZM27.6775 31.3316L28.1755 29.8118H28.1928H28.2036H28.2192L28.7128 31.3316H27.6775ZM27.7399 31.2864H28.65L28.1974 29.8902L27.7399 31.2864Z" fill="#211E1F"/>
<path d="M30.4445 29.5127C30.0543 29.5127 30.0388 29.6067 29.9605 29.9867H29.8043C29.8249 29.8411 29.8512 29.6955 29.8675 29.5438C29.8883 29.3978 29.8978 29.2526 29.8978 29.1016H30.0232C30.0647 29.258 30.1953 29.2526 30.3348 29.2526H33.0188C33.1584 29.2526 33.2882 29.2476 33.299 29.0908L33.4234 29.1118C33.4035 29.2526 33.3831 29.3932 33.3671 29.534C33.356 29.6746 33.356 29.8154 33.356 29.9556L33.2002 30.0138C33.1904 29.8212 33.1645 29.5127 32.8158 29.5127H31.963V32.2849C31.963 32.6866 32.1455 32.7326 32.3943 32.7326H32.493V32.8897C32.2904 32.8897 31.9269 32.8691 31.6456 32.8691C31.3341 32.8691 30.9695 32.8897 30.7668 32.8897V32.7326H30.8653C31.1519 32.7326 31.2977 32.7069 31.2977 32.2958V29.5127H30.4445Z" fill="#211E1F"/>
<path d="M32.493 32.9098C32.2889 32.9098 31.9247 32.8889 31.6456 32.8889C31.3347 32.8889 30.9705 32.9098 30.7667 32.9098H30.7437V32.8878V32.7083H30.7667H30.8652C31.1518 32.7014 31.2669 32.6978 31.2741 32.2939L31.2734 29.5336H30.4444V29.5108V29.4877H31.3192V32.2939C31.3192 32.7118 31.1508 32.753 30.8652 32.7541H30.7888V32.8654C30.9946 32.8632 31.3437 32.8444 31.6456 32.8444C31.9171 32.8444 32.2647 32.8632 32.4702 32.8654V32.7541H32.3935C32.1435 32.753 31.9409 32.6927 31.9402 32.283V29.4877H32.8157C33.1648 29.4891 33.2105 29.7864 33.2203 29.9797L33.3339 29.9382C33.3339 29.8023 33.3343 29.6661 33.3443 29.5296C33.3588 29.3956 33.3782 29.2619 33.3974 29.1289L33.3188 29.1156C33.295 29.2673 33.1482 29.2756 33.0187 29.2734H30.3347H30.3084C30.1858 29.2749 30.0531 29.2677 30.0058 29.1213H29.9208C29.9193 29.2658 29.9095 29.406 29.889 29.5448C29.8753 29.6882 29.8497 29.8262 29.8302 29.9631H29.9417C30.0106 29.6 30.0557 29.4822 30.4444 29.4877V29.5108L30.4443 29.5336C30.0589 29.5401 30.0675 29.6055 29.9824 29.9905L29.9784 30.0082H29.9604H29.7779L29.7811 29.9822C29.8028 29.8352 29.8287 29.69 29.8439 29.5393C29.8652 29.3937 29.8753 29.2492 29.8753 29.0997V29.0769H29.8976H30.0397L30.044 29.0932C30.0804 29.2247 30.1752 29.2254 30.3083 29.2276L30.3346 29.2283H33.0187C33.1622 29.2254 33.2671 29.2232 33.2761 29.0874L33.2776 29.0625L33.3021 29.0676L33.4496 29.0907L33.4457 29.1135C33.4244 29.2529 33.4045 29.3938 33.3887 29.5336C33.3782 29.6723 33.3782 29.8136 33.3782 29.9537V29.97L33.3635 29.9758L33.1792 30.043L33.1781 30.0126C33.1648 29.8168 33.1442 29.5336 32.8157 29.5336H31.9853V32.283C31.9907 32.6761 32.1461 32.7032 32.3935 32.7082H32.5153V32.7306V32.9098L32.493 32.9098Z" fill="#211E1F"/>
<path d="M33.6154 32.7319H33.6883C33.8761 32.7319 34.0726 32.7066 34.0726 32.4353V29.7057C34.0726 29.434 33.8761 29.4084 33.6883 29.4084H33.6154V29.252C33.8184 29.252 34.13 29.2725 34.3842 29.2725C34.6453 29.2725 34.9572 29.252 35.2017 29.252V29.4084H35.1288C34.9417 29.4084 34.7434 29.434 34.7434 29.7057V32.4353C34.7434 32.7066 34.9417 32.7319 35.1288 32.7319H35.2017V32.889C34.9518 32.889 34.6395 32.8684 34.3803 32.8684C34.125 32.8684 33.8184 32.889 33.6154 32.889V32.7319Z" fill="#211E1F"/>
<path d="M35.2019 32.911C34.9506 32.911 34.6394 32.8896 34.3801 32.8896C34.1259 32.8896 33.8187 32.911 33.6156 32.911H33.5929V32.8889V32.7318V32.7094H33.6156H33.6885C33.8763 32.7065 34.0487 32.6903 34.0495 32.4352V29.7056C34.0487 29.4513 33.8763 29.4339 33.6885 29.4303H33.5929V29.4083V29.2295H33.6156C33.8187 29.2295 34.1309 29.2494 34.3844 29.2494C34.6437 29.2494 34.9556 29.2295 35.2019 29.2295H35.2239V29.2519V29.4303H35.2019H35.1291C34.939 29.4339 34.7685 29.4513 34.7659 29.7056V32.4352C34.7685 32.6903 34.9391 32.7065 35.1291 32.7094H35.2239V32.7318V32.911H35.2019ZM35.1785 32.8655V32.7552H35.1291C34.9426 32.7552 34.722 32.7224 34.722 32.4352V29.7056C34.722 29.4177 34.9426 29.3852 35.1291 29.3852H35.1785V29.2746C34.9383 29.2761 34.638 29.2948 34.3844 29.2948C34.1381 29.2948 33.8399 29.2761 33.6384 29.2746V29.3852H33.6885C33.8735 29.3852 34.0949 29.4177 34.0956 29.7056V32.4352C34.0949 32.7224 33.8735 32.7552 33.6885 32.7552H33.6384V32.8655C33.8389 32.8633 34.1331 32.8456 34.3801 32.8456C34.6322 32.8456 34.9333 32.8644 35.1785 32.8655Z" fill="#211E1F"/>
<path d="M37.2755 29.1748C38.384 29.1748 39.2675 29.8633 39.2675 30.9727C39.2675 32.1714 38.4096 32.9679 37.3026 32.9679C36.1991 32.9679 35.3575 32.2176 35.3575 31.0974C35.3575 30.014 36.1941 29.1748 37.2755 29.1748ZM37.3541 32.7385C38.3631 32.7385 38.5387 31.847 38.5387 31.0873C38.5387 30.3257 38.1291 29.4038 37.2655 29.4038C36.3553 29.4038 36.0852 30.2166 36.0852 30.9142C36.0852 31.847 36.5114 32.7385 37.3541 32.7385Z" fill="#211E1F"/>
<path d="M35.3342 31.0947C35.3364 29.9987 36.1831 29.1509 37.2753 29.1494V29.1722V29.1942C36.2065 29.1942 35.3793 30.0226 35.3782 31.0947C35.3808 32.2023 36.2105 32.9414 37.3024 32.9418C38.3986 32.9414 39.2443 32.156 39.246 30.969C39.245 29.8737 38.3748 29.1956 37.2754 29.1942V29.1722V29.1494C38.3925 29.1501 39.2879 29.8455 39.2901 30.969C39.289 32.1802 38.4199 32.9851 37.3024 32.9873C36.1903 32.9851 35.3364 32.2272 35.3343 31.0947H35.3342V31.0947ZM36.0627 30.9116C36.0641 30.2108 36.3374 29.3777 37.2656 29.3777C38.1484 29.3799 38.5606 30.3192 38.562 31.0846C38.5606 31.8443 38.3821 32.7576 37.3544 32.7576V32.7359V32.7135C38.3432 32.7121 38.5144 31.8443 38.5169 31.0846C38.5169 30.3293 38.1109 29.4251 37.2656 29.424C36.3735 29.425 36.1095 30.2176 36.1078 30.9116C36.1085 31.8396 36.5308 32.7113 37.3544 32.7135V32.7359V32.7576C36.4911 32.7565 36.0641 31.8498 36.0627 30.9116Z" fill="#211E1F"/>
<path d="M42.7719 31.862L42.7824 31.8519V29.8983C42.7824 29.4705 42.4853 29.4084 42.3291 29.4084H42.2166V29.252C42.4604 29.252 42.6995 29.2725 42.9432 29.2725C43.1571 29.2725 43.3702 29.252 43.5836 29.252V29.4084H43.505C43.2872 29.4084 43.0424 29.4499 43.0424 30.0699V32.4411C43.0424 32.6232 43.0475 32.8052 43.0738 32.9667H42.8765L40.1979 29.976V32.1229C40.1979 32.5762 40.2859 32.7319 40.6862 32.7319H40.7752V32.8891C40.5513 32.8891 40.3281 32.8685 40.1045 32.8685C39.8705 32.8685 39.6307 32.8891 39.3967 32.8891V32.7319H39.4698C39.8294 32.7319 39.9372 32.4877 39.9372 32.0712V29.8766C39.9372 29.5851 39.6991 29.4084 39.4644 29.4084H39.3967V29.252C39.5942 29.252 39.7973 29.2726 39.9946 29.2726C40.1507 29.2726 40.3011 29.252 40.4576 29.252L42.7719 31.862Z" fill="#211E1F"/>
<path d="M43.074 32.989L42.8587 32.9814L40.2202 30.0347V32.1227C40.2259 32.5757 40.2948 32.704 40.6853 32.7087H40.7979V32.7322V32.911H40.7751C40.5497 32.911 40.3265 32.89 40.1044 32.89C39.871 32.89 39.6323 32.911 39.3961 32.911H39.3745V32.8886V32.7087H39.3961H39.4697C39.8127 32.7076 39.9111 32.4865 39.9154 32.0711V29.8765C39.9147 29.599 39.6878 29.4307 39.4643 29.4303H39.3745V29.4083V29.2295H39.3961C39.5956 29.2295 39.7982 29.2494 39.9944 29.2494C40.1487 29.2494 40.2987 29.2295 40.4747 29.2371L42.7595 31.8146V29.8986C42.758 29.4839 42.4811 29.434 42.3289 29.4304H42.1923V29.4084V29.2296H42.2157C42.4605 29.2296 42.7003 29.2494 42.9423 29.2494C43.1557 29.2494 43.3678 29.2296 43.5835 29.2296H43.6058V29.2519V29.4304H43.5835H43.5048C43.2909 29.4365 43.0696 29.456 43.0652 30.0698V32.4407C43.0652 32.6227 43.0692 32.8044 43.0945 32.9637L43.0988 32.989H43.074V32.989ZM42.8765 32.9434H43.0466C43.0239 32.787 43.0199 32.6136 43.0199 32.4406V30.0697C43.0199 29.4433 43.2821 29.3866 43.505 29.3848H43.5612V29.2746C43.3561 29.2761 43.1505 29.2948 42.9425 29.2948C42.7059 29.2948 42.4733 29.2761 42.2378 29.2746V29.3848H42.329C42.4902 29.3866 42.8039 29.4578 42.8039 29.8985L42.7982 31.8673L42.7885 31.8782L42.7719 31.8947L40.4576 29.2746C40.3043 29.2746 40.1524 29.2949 39.9945 29.2949C39.803 29.2949 39.6079 29.2761 39.4186 29.2746V29.3848H39.4644C39.7086 29.3866 39.9599 29.5712 39.9599 29.8765V32.0711C39.9599 32.4876 39.8438 32.7542 39.4698 32.7556L39.4186 32.7552V32.8655C39.6444 32.8644 39.8759 32.8456 40.1045 32.8456C40.3212 32.8456 40.5365 32.8644 40.7525 32.8655V32.7556H40.6854C40.2773 32.7552 40.1752 32.5757 40.1752 32.1227V29.9173L42.8765 32.9434ZM42.7596 31.8518V31.8499L42.7552 31.846L42.7596 31.8518Z" fill="#211E1F"/>
<path d="M44.4192 32.1427C44.3684 32.3193 44.3053 32.4559 44.3053 32.5487C44.3053 32.7055 44.5242 32.7308 44.6948 32.7308H44.7528V32.8879C44.5447 32.8767 44.3313 32.8673 44.1232 32.8673C43.9353 32.8673 43.7489 32.8768 43.5624 32.8879V32.7308H43.592C43.7957 32.7308 43.9681 32.6112 44.045 32.3919L44.878 30.0012C44.945 29.8083 45.0391 29.5478 45.0695 29.3546C45.236 29.2979 45.4437 29.1938 45.5436 29.131C45.5584 29.1256 45.5689 29.1201 45.5847 29.1201C45.6002 29.1201 45.6099 29.1201 45.6204 29.1364C45.6363 29.1776 45.6526 29.2249 45.668 29.2664L46.6244 31.9917C46.6867 32.1737 46.7488 32.3663 46.8173 32.5231C46.8797 32.669 46.9893 32.7308 47.1602 32.7308H47.192V32.8879C46.9576 32.8767 46.7236 32.8674 46.4737 32.8674C46.2194 32.8674 45.9591 32.8768 45.6936 32.8879V32.7308H45.7514C45.87 32.7308 46.0741 32.7106 46.0741 32.5802C46.0741 32.5126 46.0268 32.3721 45.9688 32.2048L45.7669 31.6004H44.5863L44.4192 32.1427ZM45.1794 29.8343H45.169L44.6847 31.3089H45.6579L45.1794 29.8343Z" fill="#211E1F"/>
<path d="M47.1898 32.9095C46.9558 32.9001 46.7221 32.8885 46.4737 32.8885C46.2201 32.8885 45.9598 32.9001 45.6944 32.9095L45.6713 32.9109V32.8871V32.7079H45.6937H45.7503C45.8714 32.7079 46.0507 32.6797 46.051 32.5797C46.0521 32.5204 46.0052 32.3785 45.9472 32.2116L45.7496 31.6224H44.6018L44.4409 32.1487C44.389 32.3271 44.327 32.464 44.3281 32.5483C44.3281 32.6761 44.5227 32.7079 44.6948 32.7079H44.7741V32.7303V32.9109L44.7511 32.9095C44.543 32.9001 44.3302 32.8885 44.1233 32.8885C43.9368 32.8885 43.75 32.9001 43.5625 32.9095L43.5397 32.9109V32.8871V32.7079H43.5625H43.5921C43.786 32.7072 43.9483 32.5956 44.0241 32.3842L44.8563 29.9931C44.9227 29.7999 45.0164 29.5401 45.0626 29.3331C45.226 29.2764 45.4347 29.1724 45.5357 29.1088C45.5494 29.1041 45.5635 29.0979 45.5847 29.0979C45.5985 29.0965 45.6251 29.0997 45.6417 29.1283C45.6572 29.1691 45.6723 29.2164 45.6897 29.2587L46.646 31.9836C46.708 32.1664 46.7704 32.359 46.8378 32.5139C46.8987 32.6519 46.9936 32.7065 47.1595 32.7079H47.2136V32.7303V32.9109L47.1898 32.9095ZM45.716 32.8636C45.9731 32.8538 46.2263 32.8437 46.4737 32.8437C46.7156 32.8437 46.9425 32.8538 47.1689 32.8629L47.1682 32.7541H47.1595C46.9835 32.7545 46.8606 32.6851 46.796 32.5316C46.7275 32.3734 46.6655 32.1801 46.6035 31.9984L45.6464 29.2731C45.6309 29.2316 45.615 29.1843 45.6024 29.1489C45.5981 29.1424 45.5985 29.1424 45.5945 29.1424H45.5847C45.5739 29.1424 45.5681 29.146 45.5555 29.1496C45.4542 29.2135 45.2457 29.3175 45.0918 29.3577C45.0596 29.5549 44.9652 29.8147 44.8982 30.0079L44.0655 32.3994C43.9865 32.6255 43.8048 32.7545 43.592 32.7541H43.5844V32.8629C43.7633 32.8538 43.9421 32.8437 44.1232 32.8437C44.3248 32.8437 44.5299 32.8538 44.7301 32.8629V32.7541H44.6947C44.5257 32.7519 44.2883 32.7335 44.2823 32.5482C44.2833 32.4449 44.3478 32.3123 44.398 32.1357L44.4192 32.1425L44.398 32.1349L44.5693 31.5779H45.782L45.9904 32.197C46.0477 32.3647 46.095 32.5031 46.095 32.5796C46.0874 32.7397 45.8692 32.7508 45.7502 32.7541H45.716V32.8636H45.716ZM44.6537 31.3305L45.1524 29.811H45.1682H45.1794H45.1957L45.6872 31.3305H44.6537ZM44.7161 31.2857H45.6255L45.1733 29.8902L44.7161 31.2857Z" fill="#211E1F"/>
<path d="M48.5022 32.3782C48.5022 32.5867 48.6464 32.6488 48.8131 32.6701C49.0262 32.686 49.2602 32.686 49.5004 32.6596C49.7182 32.6333 49.9058 32.5083 49.9987 32.3782C50.0817 32.2633 50.1286 32.1174 50.1599 32.0029H50.3107C50.2537 32.2998 50.1809 32.5924 50.1181 32.889C49.6616 32.889 49.2029 32.8684 48.746 32.8684C48.2877 32.8684 47.8308 32.889 47.3732 32.889V32.7318H47.4446C47.6329 32.7318 47.8362 32.7066 47.8362 32.3833V29.7057C47.8362 29.434 47.6328 29.4084 47.4446 29.4084H47.3732V29.252C47.648 29.252 47.9188 29.2725 48.194 29.2725C48.46 29.2725 48.7197 29.252 48.9851 29.252V29.4084H48.8542C48.6573 29.4084 48.5022 29.4142 48.5022 29.6894V32.3782Z" fill="#211E1F"/>
<path d="M50.1182 32.9109C49.6599 32.9109 49.2024 32.89 48.7462 32.89C48.2882 32.89 47.8305 32.9109 47.3723 32.9109H47.3502V32.8885V32.7094H47.3723H47.4447C47.6333 32.705 47.8115 32.692 47.8136 32.3832V29.7045C47.8114 29.4513 47.6344 29.434 47.4447 29.4303H47.3502V29.4083V29.2295H47.3723C47.6488 29.2295 47.9197 29.2494 48.1944 29.2494C48.4584 29.2494 48.718 29.2295 48.9852 29.2295H49.0065V29.2519V29.4303H48.9852H48.8547C48.6531 29.4361 48.5276 29.4267 48.5237 29.6894V32.3781C48.5251 32.5721 48.6521 32.6245 48.8143 32.6473C48.9063 32.6538 49.0025 32.6577 49.1028 32.6577C49.2301 32.6577 49.3624 32.6516 49.4966 32.6371C49.7086 32.6123 49.8911 32.4898 49.9805 32.3655C50.0606 32.2542 50.1068 32.1112 50.1377 31.9974L50.1425 31.9801H50.1597H50.3383L50.3335 32.0075C50.2748 32.3056 50.2034 32.5967 50.1403 32.8933L50.136 32.911H50.1183H50.1182V32.9109ZM50.0995 32.8654C50.1597 32.5829 50.2279 32.3065 50.2838 32.0248H50.177C50.1445 32.1382 50.0984 32.278 50.0166 32.3918C49.9195 32.5269 49.727 32.6541 49.5016 32.6819C49.3653 32.696 49.2304 32.7032 49.1028 32.7032C49.0022 32.7032 48.9045 32.6985 48.8103 32.6919C48.6412 32.6732 48.4771 32.6009 48.4779 32.3781V29.6893C48.4779 29.3999 48.6606 29.3851 48.8547 29.3851H48.9621V29.2746C48.7058 29.276 48.4533 29.2951 48.1944 29.2951C47.925 29.2951 47.6617 29.276 47.3949 29.2746V29.3851H47.4447C47.6304 29.3851 47.8576 29.4176 47.8576 29.7045V32.3831C47.8576 32.7202 47.6315 32.7552 47.4447 32.7552H47.3949V32.8654C47.8446 32.865 48.2943 32.8455 48.7461 32.8455C49.198 32.8455 49.6495 32.865 50.0995 32.8654Z" fill="#211E1F"/>
<path d="M50.2477 29.1045C50.561 29.1045 50.7951 29.3458 50.7951 29.655C50.7951 29.9628 50.5611 30.202 50.2477 30.202C49.9343 30.202 49.6999 29.9628 49.6999 29.655C49.6999 29.3458 49.9343 29.1045 50.2477 29.1045ZM50.2477 30.0997C50.4925 30.0997 50.6808 29.8902 50.6808 29.655C50.6808 29.4184 50.4954 29.2071 50.2477 29.2071C50.0014 29.2071 49.8132 29.4185 49.8132 29.655C49.8132 29.8902 50.0014 30.0997 50.2477 30.0997ZM49.9751 29.944V29.9169C50.0425 29.9075 50.0547 29.9097 50.0547 29.8678V29.4618C50.0547 29.4047 50.0486 29.3852 49.9776 29.3881V29.3603H50.2578C50.3544 29.3603 50.4427 29.4061 50.4427 29.5058C50.4427 29.5875 50.3886 29.6478 50.3133 29.6713L50.4031 29.797C50.4453 29.854 50.4925 29.9075 50.5239 29.9263V29.944H50.4172C50.366 29.944 50.3212 29.836 50.2202 29.6911H50.1597V29.8736C50.1597 29.9097 50.1723 29.9075 50.2397 29.9169V29.944L49.9751 29.944ZM50.1597 29.655H50.2242C50.2949 29.655 50.3281 29.6012 50.3281 29.5149C50.3281 29.4274 50.2768 29.3967 50.2206 29.3967H50.1597V29.655Z" fill="#211E1F"/>
</svg>
