<svg width="24" height="24" viewBox="0 0 24 24" fill="none" xmlns="http://www.w3.org/2000/svg">
<g clip-path="url(#clip0_904_25798)">
<path d="M7.10495 15.2102C7.7586 15.4693 8.30051 15.9497 8.63613 16.5676C8.97175 17.1855 9.07975 17.9016 8.9413 18.5909C8.80285 19.2803 8.42673 19.8992 7.87858 20.3396C7.33043 20.7799 6.64505 21.0138 5.94204 21.0005C5.23903 20.9871 4.56303 20.7273 4.032 20.2665C3.50098 19.8056 3.14864 19.1729 3.03648 18.4787C2.92432 17.7846 3.05945 17.0731 3.4183 16.4685C3.77715 15.8638 4.33692 15.4043 4.99995 15.1702V8.83023C4.33245 8.59432 3.76985 8.13003 3.41159 7.51942C3.05332 6.90881 2.92246 6.1912 3.04213 5.49344C3.16181 4.79567 3.52431 4.16268 4.06557 3.70635C4.60683 3.25002 5.29199 2.99974 5.99995 2.99974C6.7079 2.99974 7.39306 3.25002 7.93432 3.70635C8.47558 4.16268 8.83808 4.79567 8.95776 5.49344C9.07743 6.1912 8.94657 6.90881 8.58831 7.51942C8.23004 8.13003 7.66744 8.59432 6.99995 8.83023V12.0002C7.83595 11.3722 8.87395 11.0002 9.99995 11.0002H13.9999C14.6581 11.0003 15.2979 10.7839 15.821 10.3846C16.3441 9.98528 16.7215 9.42506 16.8949 8.79023C16.2381 8.53013 15.6941 8.04666 15.3587 7.42492C15.0233 6.80318 14.9179 6.08304 15.0612 5.39128C15.2045 4.69952 15.5873 4.08049 16.1421 3.64317C16.6969 3.20585 17.3882 2.97827 18.0943 3.00051C18.8004 3.02275 19.476 3.29338 20.0022 3.76475C20.5284 4.23611 20.8714 4.87801 20.9709 5.57741C21.0704 6.27682 20.92 6.9889 20.5461 7.5883C20.1722 8.1877 19.5988 8.63598 18.9269 8.85423C18.7255 10.0149 18.1209 11.0672 17.2195 11.8257C16.3182 12.5842 15.178 13.0001 13.9999 13.0002H9.99995C9.34184 13.0002 8.70196 13.2165 8.17885 13.6158C7.65575 14.0152 7.27841 14.5754 7.10495 15.2102ZM5.99995 17.0002C5.73473 17.0002 5.48038 17.1056 5.29284 17.2931C5.1053 17.4807 4.99995 17.735 4.99995 18.0002C4.99995 18.2654 5.1053 18.5198 5.29284 18.7073C5.48038 18.8949 5.73473 19.0002 5.99995 19.0002C6.26516 19.0002 6.51952 18.8949 6.70705 18.7073C6.89459 18.5198 6.99995 18.2654 6.99995 18.0002C6.99995 17.735 6.89459 17.4807 6.70705 17.2931C6.51952 17.1056 6.26516 17.0002 5.99995 17.0002ZM5.99995 5.00023C5.73473 5.00023 5.48038 5.10558 5.29284 5.29312C5.1053 5.48066 4.99995 5.73501 4.99995 6.00023C4.99995 6.26544 5.1053 6.5198 5.29284 6.70733C5.48038 6.89487 5.73473 7.00023 5.99995 7.00023C6.26516 7.00023 6.51952 6.89487 6.70705 6.70733C6.89459 6.5198 6.99995 6.26544 6.99995 6.00023C6.99995 5.73501 6.89459 5.48066 6.70705 5.29312C6.51952 5.10558 6.26516 5.00023 5.99995 5.00023ZM17.9999 5.00023C17.7347 5.00023 17.4804 5.10558 17.2928 5.29312C17.1053 5.48066 16.9999 5.73501 16.9999 6.00023C16.9999 6.26544 17.1053 6.5198 17.2928 6.70733C17.4804 6.89487 17.7347 7.00023 17.9999 7.00023C18.2652 7.00023 18.5195 6.89487 18.7071 6.70733C18.8946 6.5198 18.9999 6.26544 18.9999 6.00023C18.9999 5.73501 18.8946 5.48066 18.7071 5.29312C18.5195 5.10558 18.2652 5.00023 17.9999 5.00023Z" fill="#4071DF"/>
</g>
<defs>
<clipPath id="clip0_904_25798">
<rect width="24" height="24" fill="white"/>
</clipPath>
</defs>
</svg>
