<svg width="46" height="40" viewBox="0 0 46 40" fill="none" xmlns="http://www.w3.org/2000/svg">
<path d="M41.8576 8.04685C37.3118 5.43838 31.4991 6.98838 28.8721 11.5071L22.2502 22.91C20.3341 26.2028 22.8008 27.3534 25.5514 28.9928L31.9232 32.6485C34.0809 33.8858 36.837 33.1513 38.0817 31.0092L44.889 19.2906C47.1759 15.3528 45.8189 10.3202 41.8576 8.04685Z" fill="#EA4335"/>
<path d="M34.3649 12.7671L27.993 9.11133C24.4756 7.17034 22.4836 7.04187 21.0395 9.32359L11.6418 25.5023C9.01775 30.0182 10.5798 35.7937 15.1228 38.3966C19.0841 40.6699 24.1469 39.321 26.4338 35.3831L36.0113 18.8916C37.2615 16.7468 36.5226 14.0043 34.3649 12.7671Z" fill="#FBBC04"/>
<path d="M35.5912 4.44941L31.1157 1.88005C26.1654 -0.960226 19.8357 0.723827 16.9784 5.64472L8.45724 20.3152C7.19859 22.4797 7.94591 25.2501 10.1233 26.4985L15.1354 29.3751C17.6105 30.7966 20.774 29.9532 22.2041 27.4927L31.9389 10.7332C33.9561 7.26175 38.4204 6.07202 41.9125 8.07725L35.5912 4.44941Z" fill="#34A853"/>
<path d="M18.189 9.84194L13.3511 7.07149C11.1933 5.83708 8.43729 6.56879 7.19269 8.70807L1.3883 18.6784C-1.46896 23.5852 0.225166 29.8635 5.17548 32.6954L8.85871 34.8039L13.3258 37.3621L15.2643 38.4708C11.8227 36.1808 10.7298 31.5922 12.8341 27.9783L14.3372 25.3978L19.841 15.9442C21.0828 13.8105 20.3439 11.0763 18.189 9.84194Z" fill="#4285F4"/>
</svg>
