<svg width="38" height="38" viewBox="0 0 38 38" fill="none" xmlns="http://www.w3.org/2000/svg">
<g clip-path="url(#clip0_904_25545)">
<path fill-rule="evenodd" clip-rule="evenodd" d="M25.6388 8.27652C27.2038 6.57935 27.5838 4.56121 26.4858 3.7871C25.3879 3.01299 23.2142 3.76192 21.6467 5.46539C20.0792 7.16885 19.7016 9.1807 20.8021 9.95481C21.9026 10.7289 24.0737 9.97789 25.6388 8.27652ZM29.134 26.9601C37.3316 17.8931 39.1997 7.1185 33.2701 2.97522C27.3404 -1.16805 15.8115 2.84516 7.60633 11.9121C-0.598807 20.9791 -2.45943 31.7537 3.47768 35.8991C4.89444 36.867 6.63835 37.4304 8.45839 37.5081C9.84033 36.9276 10.9069 35.9225 11.4394 34.6991C13.3197 30.3698 14.7461 25.9094 15.7022 21.3693C16.0177 18.3505 14.6439 18.2225 13.8589 18.4889C12.8655 18.9369 11.8028 19.2653 10.7016 19.4644C9.75512 19.5127 9.6483 19.0008 10.1749 18.3966C10.7016 17.7924 18.1242 11.5911 20.8568 11.8932C21.272 11.9692 21.6619 12.1225 21.998 12.342C22.334 12.5615 22.6078 12.8416 22.7992 13.1619C22.9906 13.4822 23.0949 13.8346 23.1044 14.1933C23.1139 14.552 23.0283 14.9079 22.854 15.2351C22.3796 16.4435 20.8021 21.6462 20.1711 24.3399C19.454 26.9271 19.0626 29.5711 19.0036 32.2278C19.0028 32.6141 19.1222 32.9937 19.3497 33.3287C19.5773 33.6638 19.9051 33.9425 20.3003 34.1369C23.6765 32.1549 26.6582 29.7324 29.134 26.9601Z" fill="#5B5F60"/>
<path fill-rule="evenodd" clip-rule="evenodd" d="M26.9008 7.43863C28.4658 5.74146 28.8458 3.72332 27.7478 2.94921C26.6499 2.1751 24.4762 2.92403 22.9112 4.6275C21.3462 6.33096 20.9661 8.34071 22.0641 9.11692C23.1621 9.89313 25.3357 9.1421 26.9008 7.43863ZM30.396 26.1222C38.5936 17.0552 40.4617 6.28061 34.5321 2.13733C28.6024 -2.00594 17.0735 2.00727 8.86585 11.0742C0.658223 20.1412 -1.19743 30.9221 4.73719 35.0591C6.15404 36.0269 7.8979 36.5903 9.71791 36.6682C11.0944 36.0846 12.1559 35.0802 12.6865 33.8591C14.567 29.5292 15.9934 25.068 16.9493 20.5272C17.2647 17.5084 15.891 17.3804 15.106 17.6468C14.1102 18.0952 13.0449 18.4236 11.9412 18.6223C10.9948 18.6685 10.8879 18.1587 11.4146 17.5545C11.9412 16.9503 19.3639 10.7491 22.0964 11.0512C22.5111 11.128 22.9002 11.2821 23.2354 11.5022C23.5705 11.7223 23.8433 12.0028 24.0337 12.3232C24.2242 12.6436 24.3275 12.9959 24.3361 13.3544C24.3448 13.7129 24.2585 14.0684 24.0837 14.3951C23.6093 15.6035 22.0318 20.8041 21.3984 23.4999C20.6847 26.0903 20.2966 28.737 20.2408 31.3962C20.2401 31.7822 20.3596 32.1615 20.5872 32.4961C20.8148 32.8308 21.1425 33.1091 21.5375 33.3032C24.9146 31.3197 27.8964 28.8951 30.3711 26.1201" fill="#D2562E"/>
<path fill-rule="evenodd" clip-rule="evenodd" d="M26.8983 7.43968C28.4633 5.7425 28.8433 3.72646 27.7429 2.95025C26.6424 2.17404 24.4712 2.92508 22.9062 4.62854C21.3412 6.332 20.9611 8.34385 22.0591 9.12006C23.1571 9.89627 25.3308 9.14524 26.8958 7.44177M31.9162 21.9863C38.7377 14.3857 39.7587 5.3502 34.1917 1.87824C28.6247 -1.59372 18.5292 1.75866 11.7077 9.36761C4.88623 16.9766 3.86524 26.0016 9.43222 29.4777C10.741 30.2756 12.2922 30.7414 13.9037 30.8204C15.2856 27.475 16.3066 24.031 16.9542 20.5303C17.2697 17.5115 15.896 17.3835 15.111 17.65C14.1129 18.099 13.045 18.4274 11.9387 18.6255C10.9923 18.6716 10.8854 18.1618 11.4121 17.5577C11.9387 16.9535 19.3614 10.7522 22.0939 11.0543C22.5086 11.1312 22.8977 11.2853 23.2329 11.5053C23.568 11.7254 23.8408 12.0059 24.0312 12.3263C24.2217 12.6468 24.325 12.9991 24.3336 13.3575C24.3423 13.716 24.256 14.0716 24.0812 14.3983C23.6068 15.6067 22.0293 20.8073 21.3984 23.503C20.8889 25.6069 20.5124 27.7323 20.2706 29.87C24.9163 28.1644 28.9384 25.442 31.9212 21.9842L31.9162 21.9863Z" fill="#BA2A2F"/>
</g>
<defs>
<clipPath id="clip0_904_25545">
<rect width="38" height="37" fill="white" transform="translate(0 0.5)"/>
</clipPath>
</defs>
</svg>
