<svg width="47" height="32" viewBox="0 0 47 32" fill="none" xmlns="http://www.w3.org/2000/svg">
<path fill-rule="evenodd" clip-rule="evenodd" d="M23.2527 25.5989C20.8331 27.595 17.6945 28.8 14.2649 28.8C6.61235 28.8 0.408722 22.8006 0.408722 15.4C0.408722 7.99938 6.61235 2 14.2649 2C17.6945 2 20.8331 3.205 23.2527 5.20108C25.6723 3.205 28.8109 2 32.2405 2C39.8931 2 46.0967 7.99938 46.0967 15.4C46.0967 22.8006 39.8931 28.8 32.2405 28.8C28.8109 28.8 25.6723 27.595 23.2527 25.5989Z" fill="#ED0006"/>
<path fill-rule="evenodd" clip-rule="evenodd" d="M23.2527 25.5989C26.2319 23.1411 28.1211 19.4839 28.1211 15.4C28.1211 11.3161 26.2319 7.65889 23.2527 5.20108C25.6722 3.20499 28.8108 2 32.2405 2C39.893 2 46.0967 7.99938 46.0967 15.4C46.0967 22.8006 39.893 28.8 32.2405 28.8C28.8108 28.8 25.6722 27.595 23.2527 25.5989Z" fill="#F9A000"/>
<path fill-rule="evenodd" clip-rule="evenodd" d="M23.2526 25.5989C26.2318 23.1411 28.1209 19.4839 28.1209 15.4C28.1209 11.3162 26.2318 7.65898 23.2526 5.20117C20.2734 7.65898 18.3843 11.3162 18.3843 15.4C18.3843 19.4839 20.2734 23.1411 23.2526 25.5989Z" fill="#FF5E00"/>
</svg>
