<svg width="72" height="72" viewBox="0 0 72 72" fill="none" xmlns="http://www.w3.org/2000/svg">
<path fill-rule="evenodd" clip-rule="evenodd" d="M42.3504 10.8331C48.7753 10.8331 53.9836 16.0413 53.9836 22.4663C53.9836 28.8912 48.7753 34.0994 42.3504 34.0994C35.9255 34.0994 30.7172 28.8912 30.7172 22.4663C30.7165 16.0421 35.9255 10.8331 42.3504 10.8331ZM34.6838 49.5975C26.6162 47.0368 24.8036 46.4636 13.6995 51.9535L17.979 63.369L20.0512 62.5569C20.2951 62.4616 20.5532 62.4694 20.7787 62.5591L36.5882 67.5966C37.7395 67.9635 38.883 68.0795 39.9973 67.9472C41.1102 67.8149 42.1932 67.4338 43.2265 66.8073L63.8283 54.3037C65.6053 53.2249 66.3634 51.9727 66.3968 50.9081C66.4089 50.5142 66.3186 50.1451 66.1429 49.8251C65.9673 49.5044 65.7035 49.2306 65.37 49.0272C64.4953 48.4939 63.1449 48.4377 61.5641 49.227L47.4711 56.2607C47.3211 56.3354 47.2144 56.4456 47.1433 56.5978C46.9911 56.9256 46.7999 57.2349 46.5716 57.5187C45.5533 58.783 43.8331 59.5297 41.6727 58.9807L34.5914 57.1823C34.0588 57.0472 33.7366 56.5053 33.8717 55.9727C34.0069 55.4401 34.5487 55.1179 35.0814 55.253L42.1627 57.0514C43.4604 57.3814 44.4581 56.9768 45.0242 56.2742C45.2226 56.0282 45.3712 55.7466 45.4644 55.4479C45.4729 55.4102 45.4836 55.3725 45.4964 55.3362L45.4985 55.3284C45.5874 54.9857 45.6045 54.6251 45.5412 54.2745C45.3776 53.3686 44.6501 52.5031 43.1995 52.117C39.6396 51.1705 36.9274 50.3094 34.6838 49.5975ZM15.4922 64.046L16.1358 65.7626L11.2326 67.6009L5.8125 53.1424L10.7157 51.3042L15.4567 63.9514C15.4624 63.9713 15.4695 63.9905 15.4773 64.0104L15.4922 64.046ZM43.5458 28.7355C44.1218 28.5463 44.6373 28.2235 45.0562 27.8046C45.7488 27.112 46.1776 26.1548 46.1776 25.0981C46.1776 24.0414 45.7488 23.0842 45.0562 22.3916C44.3636 21.699 43.4064 21.2702 42.3497 21.2702C41.9529 21.2702 41.5938 21.1095 41.3342 20.8499C41.0746 20.5904 40.9139 20.2312 40.9139 19.8344C40.9139 19.4376 41.0746 19.0785 41.3342 18.819C41.5938 18.5594 41.9529 18.3987 42.3497 18.3987C42.595 18.3987 42.8233 18.457 43.0188 18.5608C43.2265 18.6703 43.4036 18.8289 43.5351 19.0202C43.9063 19.5649 44.6494 19.705 45.1934 19.3331C45.7382 18.9619 45.8782 18.2188 45.5063 17.6748C45.155 17.1628 44.6821 16.7404 44.1303 16.4495C43.9433 16.3507 43.7477 16.2675 43.5451 16.1999V15.9674C43.5451 15.3068 43.0096 14.7713 42.349 14.7713C41.6883 14.7713 41.1529 15.3068 41.1529 15.9674V16.1978C40.5769 16.3869 40.0613 16.7091 39.6425 17.1286C38.9498 17.8213 38.521 18.7784 38.521 19.8351C38.521 20.8919 38.9498 21.849 39.6425 22.5417C40.3351 23.2343 41.2922 23.6631 42.349 23.6631C42.7458 23.6631 43.1049 23.8238 43.3644 24.0834C43.624 24.3429 43.7847 24.702 43.7847 25.0988C43.7847 25.4956 43.624 25.8548 43.3644 26.1143C43.1049 26.3739 42.7458 26.5346 42.349 26.5346C42.1029 26.5346 41.8754 26.4763 41.6798 26.3724C41.4722 26.2629 41.2951 26.1044 41.1635 25.9131C40.7923 25.3683 40.0492 25.2283 39.5052 25.6002C38.9605 25.9714 38.8204 26.7145 39.1923 27.2585C39.5436 27.7705 40.0165 28.1929 40.5683 28.4845C40.7554 28.5833 40.9509 28.6665 41.1536 28.7341V28.9666C41.1536 29.6272 41.6891 30.1627 42.3497 30.1627C43.0103 30.1627 43.5458 29.6272 43.5458 28.9666V28.7355ZM33.0696 6.50171L33.3939 5.81335C33.6307 5.3113 33.4159 4.71254 32.9139 4.47574C32.4118 4.23894 31.8131 4.45369 31.5763 4.95574L29.5489 9.25515C29.3121 9.7572 29.5268 10.356 30.0289 10.5928C30.1946 10.671 30.3702 10.7001 30.5402 10.6866L35.2769 10.2934C35.8309 10.2479 36.2433 9.76147 36.1978 9.20751C36.1523 8.65355 35.6659 8.2411 35.1119 8.28661L33.817 8.39399C34.6718 7.87488 35.5784 7.43114 36.5271 7.07202C38.3333 6.38864 40.296 6.01459 42.3504 6.01459C46.8937 6.01459 51.0068 7.85639 53.9836 10.8331C56.9603 13.8099 58.8021 17.9237 58.8021 22.4663C58.8021 27.0096 56.9603 31.1227 53.9836 34.0994C51.0061 37.0769 46.893 38.918 42.3504 38.918C37.8071 38.918 33.694 37.0762 30.7172 34.0994C27.7398 31.122 25.8987 27.0089 25.8987 22.4663C25.8987 21.0817 26.0672 19.7427 26.3851 18.4691C26.7144 17.1493 27.2008 15.8956 27.8237 14.7286C28.0847 14.2394 27.8998 13.6321 27.4105 13.3711C26.9213 13.1101 26.314 13.295 26.053 13.7843C25.3497 15.102 24.8015 16.5114 24.4331 17.9891C24.074 19.4284 23.8841 20.9281 23.8841 22.467C23.8841 27.5664 25.9513 32.183 29.2929 35.5252C32.6344 38.8675 37.2517 40.934 42.3511 40.934C47.4505 40.934 52.0671 38.8668 55.4093 35.5252C58.7516 32.1837 60.8181 27.5664 60.8181 22.467C60.8181 17.3676 58.7509 12.751 55.4093 9.40875C52.0664 6.06722 47.4491 4 42.3504 4C40.0549 4 37.8533 4.42169 35.8188 5.19112C34.8623 5.55308 33.9429 5.99255 33.0696 6.50171Z" fill="#4071DF"/>
</svg>
