<svg width="212" height="48" viewBox="0 0 212 48" fill="none" xmlns="http://www.w3.org/2000/svg">
<path d="M0.5 23.9999C0.5 11.1464 10.9198 0.726562 23.7733 0.726562H188.227C201.08 0.726562 211.5 11.1464 211.5 23.9999C211.5 36.8534 201.08 47.2732 188.227 47.2732H23.7733C10.9198 47.2732 0.5 36.8534 0.5 23.9999Z" fill="white"/>
<path d="M0.5 23.9999C0.5 11.1464 10.9198 0.726562 23.7733 0.726562H188.227C201.08 0.726562 211.5 11.1464 211.5 23.9999C211.5 36.8534 201.08 47.2732 188.227 47.2732H23.7733C10.9198 47.2732 0.5 36.8534 0.5 23.9999Z" stroke="#DCE0E0"/>
<path d="M29.8422 30V18.128H34.6249C37.0333 18.128 38.5766 19.5526 38.5766 21.7574C38.5766 23.9453 37.0333 25.3699 34.6249 25.3699H32.1488V30H29.8422ZM32.1488 23.3856H34.4214C35.5747 23.3856 36.2701 22.775 36.2701 21.7574C36.2701 20.7229 35.5747 20.1123 34.4214 20.1123H32.1488V23.3856ZM42.3435 21.3165C44.5822 21.3165 46.1086 22.5206 46.1086 24.7933V30H44.0395V28.7619C43.5646 29.593 42.53 30.1357 41.4785 30.1357C39.7995 30.1357 38.6292 29.0502 38.6292 27.5917C38.6292 25.9126 39.9012 25.0138 42.4452 24.7424L44.0395 24.5898V24.505C44.0395 23.5382 43.378 22.9446 42.3435 22.9446C41.4107 22.9446 40.7492 23.5213 40.6475 24.4371L38.7479 24.0979C39.0193 22.4019 40.5287 21.3165 42.3435 21.3165ZM41.9534 28.5584C43.2763 28.5584 44.0395 27.5578 44.0395 26.3027V26.1162L42.4113 26.3027C41.275 26.4384 40.6983 26.9133 40.6983 27.5238C40.6983 28.1174 41.1732 28.5584 41.9534 28.5584ZM52.9194 21.4522H55.1072L50.5958 33.0867H48.425L49.7478 29.6608L46.4237 21.4522H48.7472L50.7994 26.9472L52.9194 21.4522ZM61.3409 30L58.6782 21.4522H60.8321L62.3076 27.015L64.0206 21.4522H65.971L67.684 27.015L69.1425 21.4522H71.2964L68.6507 30H66.7342L65.0043 24.4202L63.2404 30H61.3409ZM73.2653 20.1462C72.5021 20.1462 71.9424 19.5696 71.9424 18.8234C71.9424 18.0941 72.5021 17.5174 73.2653 17.5174C74.0454 17.5174 74.6221 18.0941 74.6221 18.8234C74.6221 19.5696 74.0454 20.1462 73.2653 20.1462ZM72.1968 30V21.4522H74.3337V30H72.1968ZM80.9659 29.9152C80.5419 30.0678 80.084 30.1357 79.5921 30.1357C77.8622 30.1357 76.5733 29.2029 76.5733 27.2016V23.2499H75.1317V21.4522H76.5733V18.9421H78.7102V21.4522H80.8641V23.2499H78.7102V26.9981C78.7102 27.8122 79.1512 28.2531 79.8126 28.2531C80.1349 28.2531 80.508 28.2022 80.8133 28.0496L80.9659 29.9152ZM82.3589 30V17.9923H84.4958V22.775C85.0555 21.8422 86.0222 21.3165 87.2094 21.3165C89.1259 21.3165 90.3979 22.5376 90.3979 24.4032V30H88.2609V24.929C88.2609 23.8774 87.6165 23.216 86.5649 23.216C85.2421 23.216 84.4958 24.3523 84.4958 26.2858V30H82.3589Z" fill="#4071DF"/>
<rect width="87.6267" height="15.5467" transform="translate(95.8067 16.2266)" fill="white"/>
<path d="M113.174 28.9908V18.2773H117.625C118.738 18.2773 119.62 18.5912 120.292 19.198C120.943 19.8048 121.279 20.6209 121.279 21.6462C121.279 22.6715 120.943 23.4876 120.292 24.0944C119.641 24.7012 118.738 25.0151 117.625 25.0151H115.589V28.9908H113.174ZM115.589 22.9226H117.373C117.835 22.9226 118.192 22.818 118.465 22.5878C118.717 22.3576 118.864 22.0438 118.864 21.6462C118.864 21.2486 118.738 20.9348 118.465 20.7046C118.213 20.4744 117.835 20.3698 117.373 20.3698H115.589V22.9226Z" fill="#4071DF"/>
<path d="M124.723 21.166C125.815 21.166 126.676 21.438 127.306 22.003C127.936 22.568 128.251 23.3631 128.251 24.4303V28.9918H126.067V28.0084C125.836 28.3432 125.521 28.6152 125.122 28.8035C124.723 29.0128 124.303 29.0964 123.883 29.0964C123.128 29.0964 122.519 28.8872 122.036 28.4478C121.553 28.0084 121.322 27.4643 121.322 26.8157C121.322 25.33 122.435 24.4721 124.66 24.221L126.067 24.0745V24.0327C126.067 23.656 125.941 23.3631 125.71 23.1329C125.479 22.9237 125.143 22.7981 124.723 22.7981C124.345 22.7981 124.051 22.9028 123.799 23.112C123.548 23.3213 123.401 23.6142 123.38 23.9908L121.406 23.6142C121.532 22.8609 121.91 22.275 122.519 21.8147C123.149 21.3962 123.883 21.166 124.723 21.166ZM124.45 27.5062C124.933 27.5062 125.332 27.3388 125.626 27.004C125.92 26.6692 126.067 26.2716 126.088 25.7904V25.7694V25.7276V25.6648L124.639 25.8322C124.261 25.8741 123.988 25.9787 123.778 26.1461C123.568 26.3135 123.485 26.5018 123.485 26.7529C123.485 26.9831 123.568 27.1505 123.736 27.2969C123.904 27.4434 124.156 27.5062 124.45 27.5062Z" fill="#4071DF"/>
<path d="M134.32 21.29H136.63L132.556 31.7733H130.247L131.465 28.6137L128.483 21.29H130.919L132.577 25.7679L134.32 21.29Z" fill="#4071DF"/>
<path d="M142.151 29.1168C140.681 29.1168 139.421 28.6356 138.392 27.673C137.363 26.7105 136.859 25.3713 136.859 23.6346C136.859 21.8979 137.384 20.5587 138.455 19.5961C139.526 18.6336 140.807 18.1523 142.34 18.1523C143.683 18.1523 144.796 18.4662 145.657 19.1149C146.539 19.7635 147.064 20.6633 147.274 21.7932L144.88 22.2745C144.754 21.6468 144.46 21.1446 143.998 20.7679C143.536 20.3913 142.969 20.203 142.298 20.203C141.395 20.203 140.66 20.5168 140.093 21.1236C139.547 21.7305 139.274 22.5674 139.274 23.6346C139.274 24.7018 139.547 25.5178 140.093 26.1246C140.639 26.7314 141.374 27.0244 142.256 27.0244C142.969 27.0244 143.557 26.8361 144.019 26.4803C144.481 26.1246 144.754 25.6643 144.838 25.0784H141.92V23.1533H147.085V28.9913H144.88V27.8823C144.649 28.2589 144.292 28.5519 143.788 28.7821C143.284 29.0122 142.739 29.1168 142.151 29.1168Z" fill="#4071DF"/>
<path d="M148.451 28.9919V18.1738H150.698V28.9919H148.451Z" fill="#4071DF"/>
<path d="M155.779 29.1174C154.582 29.1174 153.595 28.7407 152.839 27.9874C152.083 27.2342 151.705 26.2925 151.705 25.1417C151.705 23.9908 152.083 23.0283 152.839 22.2959C153.595 21.5427 154.582 21.166 155.779 21.166C156.954 21.166 157.92 21.5427 158.697 22.2959C159.474 23.0492 159.852 23.9908 159.852 25.1417C159.852 26.2925 159.474 27.2551 158.697 27.9874C157.92 28.7407 156.954 29.1174 155.779 29.1174ZM155.779 27.2132C156.324 27.2132 156.765 27.0249 157.101 26.6483C157.437 26.2716 157.605 25.7694 157.605 25.1626C157.605 24.5558 157.437 24.0536 157.101 23.677C156.765 23.3003 156.324 23.112 155.779 23.112C155.233 23.112 154.771 23.3003 154.435 23.677C154.099 24.0536 153.931 24.5558 153.931 25.1626C153.931 25.7694 154.099 26.2716 154.435 26.6483C154.771 27.0249 155.212 27.2132 155.779 27.2132Z" fill="#4071DF"/>
<path d="M164.41 29.1174C163.234 29.1174 162.289 28.7407 161.554 28.0084C160.819 27.276 160.441 26.3135 160.441 25.1417C160.441 23.9699 160.819 23.0074 161.554 22.275C162.289 21.5427 163.234 21.166 164.41 21.166C165.439 21.166 166.3 21.4171 166.972 21.8984C167.644 22.3796 168.043 23.0492 168.169 23.9071L165.985 24.3256C165.922 23.9281 165.754 23.6351 165.502 23.405C165.229 23.1748 164.893 23.0702 164.494 23.0702C163.969 23.0702 163.549 23.2585 163.234 23.6351C162.919 24.0118 162.772 24.514 162.772 25.1417C162.772 25.7694 162.94 26.2716 163.255 26.6483C163.57 27.0249 163.99 27.2132 164.515 27.2132C165.313 27.2132 165.796 26.8157 165.964 26.0415L168.169 26.4809C168.022 27.2969 167.623 27.9456 166.951 28.4059C166.279 28.8872 165.418 29.1174 164.41 29.1174Z" fill="#4071DF"/>
<path d="M172.157 21.166C173.249 21.166 174.11 21.438 174.74 22.003C175.37 22.568 175.685 23.3631 175.685 24.4303V28.9918H173.501V28.0084C173.27 28.3432 172.955 28.6152 172.556 28.8035C172.157 29.0128 171.737 29.0964 171.317 29.0964C170.561 29.0964 169.952 28.8872 169.469 28.4478C168.986 28.0084 168.755 27.4643 168.755 26.8157C168.755 25.33 169.868 24.4721 172.094 24.221L173.501 24.0745V24.0327C173.501 23.656 173.375 23.3631 173.144 23.1329C172.913 22.9237 172.577 22.7981 172.157 22.7981C171.779 22.7981 171.485 22.9028 171.233 23.112C170.981 23.3213 170.834 23.6142 170.813 23.9908L168.839 23.6142C168.965 22.8609 169.343 22.275 169.952 21.8147C170.582 21.3962 171.317 21.166 172.157 21.166ZM171.884 27.5062C172.367 27.5062 172.766 27.3388 173.06 27.004C173.354 26.6692 173.501 26.2716 173.522 25.7904V25.7694V25.7276V25.6648L172.073 25.8322C171.695 25.8741 171.422 25.9787 171.212 26.1461C171.002 26.3135 170.918 26.5018 170.918 26.7529C170.918 26.9831 171.002 27.1505 171.17 27.2969C171.338 27.4434 171.569 27.5062 171.884 27.5062Z" fill="#4071DF"/>
<path d="M177.048 28.9919V18.1738H179.295V28.9919H177.048Z" fill="#4071DF"/>
<path d="M181.017 19.5968V18.2786H180.534V18.0693H181.73V18.2995H181.268V19.6178H181.017V19.5968Z" fill="#4071DF"/>
<path d="M181.879 19.5968V18.0693H182.173L182.656 19.2411L183.139 18.0693H183.433V19.5968H183.181V18.5506L182.74 19.5968H182.53L182.089 18.5506V19.5968H181.879Z" fill="#4071DF"/>
<path d="M108.51 19.156L103.975 16.5404C103.24 16.1219 102.316 16.1219 101.56 16.5404L97.0036 19.156C96.2686 19.5954 95.8067 20.3906 95.8067 21.2485V26.4796C95.8067 27.3375 96.2686 28.1327 97.0036 28.5721L101.56 31.1877C101.938 31.3969 102.358 31.5015 102.757 31.5015C103.177 31.5015 103.597 31.3969 103.954 31.1877L108.51 28.5721C109.245 28.1536 109.707 27.3375 109.707 26.4796V21.2485C109.728 20.3906 109.266 19.5954 108.51 19.156ZM107.398 26.6052L102.841 29.2208C102.799 29.2417 102.736 29.2417 102.694 29.2208L98.1374 26.6052C98.0955 26.5843 98.0535 26.5215 98.0535 26.4796V21.2485C98.0535 21.1857 98.0745 21.1438 98.1374 21.1229L102.694 18.5073C102.715 18.4864 102.736 18.4864 102.778 18.4864C102.799 18.4864 102.841 18.4864 102.862 18.5073L107.419 21.1229C107.461 21.1438 107.503 21.2066 107.503 21.2485V22.7341H102.715C102.085 22.7341 101.581 23.2363 101.581 23.8641C101.581 24.4918 102.085 24.994 102.715 24.994H107.461V26.4796C107.461 26.5424 107.44 26.5843 107.398 26.6052Z" fill="#4071DF"/>
</svg>
