<svg width="93" height="40" viewBox="0 0 93 40" fill="none" xmlns="http://www.w3.org/2000/svg">
<g clip-path="url(#clip0_904_25538)">
<path d="M92.6891 13.684C92.2719 12.6509 91.4947 11.7556 90.4651 11.1217C89.4354 10.4878 88.2041 10.1466 86.9411 10.1452H86.8842C86.0626 10.1444 85.2494 10.288 84.4938 10.5674C83.7381 10.8467 83.0557 11.2559 82.4877 11.7703C81.9196 11.2562 81.2371 10.8471 80.4815 10.5678C79.7259 10.2885 78.9128 10.1447 78.0913 10.1452H78.0344C76.5718 10.1413 75.1569 10.5959 74.0506 11.4251V11.0207C74.0341 10.8248 73.9329 10.6416 73.7673 10.5076C73.6016 10.3737 73.3837 10.2988 73.1571 10.2981H69.0822C68.9636 10.2981 68.846 10.3184 68.7364 10.3579C68.6268 10.3973 68.5272 10.4551 68.4434 10.528C68.3596 10.6008 68.2932 10.6873 68.248 10.7824C68.2029 10.8775 68.1798 10.9795 68.1802 11.0823V30.2703C68.1798 30.3732 68.2029 30.4751 68.248 30.5702C68.2932 30.6653 68.3596 30.7518 68.4434 30.8247C68.5272 30.8975 68.6268 30.9553 68.7364 30.9947C68.846 31.0342 68.9636 31.0545 69.0822 31.0545H73.1628C73.38 31.0538 73.5896 30.985 73.7527 30.8608C73.9159 30.7365 74.0218 30.5654 74.0506 30.3788V16.6062C74.0476 16.5602 74.0476 16.5141 74.0506 16.4681C74.0792 16.1565 74.2376 15.8646 74.4962 15.6468C74.7549 15.429 75.0961 15.3002 75.4563 15.2844H76.2076C76.5187 15.3058 76.8156 15.4061 77.0612 15.5729C77.2377 15.6975 77.3791 15.8553 77.4748 16.0344C77.5704 16.2134 77.6178 16.4089 77.6133 16.6062L77.6275 30.3196C77.6275 30.5272 77.7224 30.7263 77.8915 30.8733C78.0606 31.0202 78.2901 31.1032 78.5296 31.1038H82.6101C82.8402 31.1028 83.0612 31.0257 83.2278 30.8882C83.3944 30.7506 83.4941 30.5631 83.5065 30.364V16.5889C83.5012 16.3713 83.5591 16.1561 83.675 15.9631C83.7908 15.77 83.9609 15.6053 84.1695 15.4841C84.396 15.3603 84.6538 15.2858 84.9207 15.2671H85.6719C86.0614 15.2825 86.4285 15.4295 86.6944 15.6765C86.9604 15.9236 87.1041 16.2511 87.0947 16.5889L87.109 30.2851C87.1086 30.388 87.1316 30.4899 87.1768 30.585C87.222 30.6801 87.2883 30.7666 87.3721 30.8394C87.4559 30.9123 87.5555 30.9701 87.6651 31.0095C87.7748 31.049 87.8923 31.0693 88.011 31.0693H92.0916C92.2103 31.0693 92.3278 31.049 92.4374 31.0095C92.547 30.9701 92.6466 30.9123 92.7304 30.8394C92.8142 30.7666 92.8806 30.6801 92.9258 30.585C92.9709 30.4899 92.994 30.388 92.9936 30.2851V15.5532C93.0305 14.9178 92.9252 14.2822 92.6834 13.6815M65.0728 10.3499H62.7537V7.06273C62.7555 6.95722 62.7298 6.85272 62.6786 6.75698C62.6275 6.66124 62.5521 6.57671 62.458 6.50967C62.364 6.44263 62.2538 6.39481 62.1355 6.36973C62.0172 6.34466 61.8939 6.34299 61.7748 6.36485C59.1882 6.98135 59.7061 10.0836 54.9853 10.3499H54.5015C54.4355 10.3505 54.3697 10.3571 54.3052 10.3696C54.1057 10.4082 53.9271 10.5044 53.7989 10.6424C53.6707 10.7804 53.6004 10.952 53.5995 11.1292V14.6654C53.6002 14.873 53.6959 15.0718 53.8655 15.2183C54.0351 15.3649 54.2649 15.4471 54.5044 15.4471H56.9658V30.438C56.9654 30.5398 56.9883 30.6406 57.033 30.7347C57.0778 30.8288 57.1436 30.9143 57.2267 30.9862C57.3097 31.0582 57.4084 31.1152 57.5169 31.154C57.6255 31.1928 57.7419 31.2126 57.8593 31.2123H61.9C62.0172 31.2123 62.1333 31.1923 62.2415 31.1533C62.3498 31.1144 62.4481 31.0573 62.5308 30.9854C62.6136 30.9134 62.6791 30.828 62.7237 30.7341C62.7683 30.6402 62.7911 30.5396 62.7907 30.438V15.4471H65.0671C65.3064 15.4471 65.5358 15.3648 65.705 15.2182C65.8742 15.0716 65.9692 14.8727 65.9692 14.6654V11.1316C65.9692 10.9243 65.8742 10.7255 65.705 10.5789C65.5358 10.4323 65.3064 10.3499 65.0671 10.3499" fill="#00BAF2"/>
<path d="M50.3956 10.3556H46.3179C46.0791 10.3562 45.8504 10.4389 45.6819 10.5854C45.5133 10.7319 45.4187 10.9304 45.4187 11.1373V18.4465C45.4142 18.6637 45.3115 18.8707 45.1327 19.0229C44.9538 19.1751 44.7132 19.2603 44.4626 19.2603H42.7552C42.5016 19.2603 42.2584 19.173 42.0791 19.0176C41.8998 18.8622 41.7991 18.6515 41.7991 18.4317L41.7849 11.1348C41.7845 11.0322 41.7608 10.9306 41.7151 10.8359C41.6694 10.7411 41.6027 10.6551 41.5187 10.5828C41.4346 10.5104 41.335 10.4531 41.2254 10.4141C41.1158 10.3751 40.9984 10.3552 40.88 10.3556H36.7994C36.5602 10.3556 36.3308 10.4379 36.1616 10.5845C35.9924 10.7311 35.8974 10.93 35.8974 11.1373V19.1469C35.8657 19.839 35.9997 20.5294 36.291 21.1745C36.5823 21.8195 37.0245 22.4054 37.5899 22.8951C38.1552 23.3848 38.8314 23.7677 39.5759 24.0198C40.3204 24.272 41.1171 24.3878 41.9158 24.36C41.9158 24.36 44.5536 24.36 44.6333 24.3723C44.8635 24.3969 45.0754 24.4936 45.2291 24.6441C45.3828 24.7947 45.4676 24.9888 45.4676 25.1898C45.4676 25.3908 45.3828 25.5849 45.2291 25.7355C45.0754 25.8861 44.8635 25.9827 44.6333 26.0073H44.565L38.5893 26.0246C38.3501 26.0246 38.1206 26.1069 37.9515 26.2535C37.7823 26.4001 37.6873 26.599 37.6873 26.8063V30.3549C37.6873 30.5622 37.7823 30.761 37.9515 30.9076C38.1206 31.0542 38.3501 31.1366 38.5893 31.1366H45.2906C46.0894 31.1647 46.8863 31.0492 47.631 30.7972C48.3757 30.5452 49.052 30.1622 49.6175 29.6725C50.1829 29.1827 50.6251 28.5967 50.9163 27.9515C51.2074 27.3062 51.3411 26.6157 51.309 25.9235V11.1274C51.309 10.9201 51.214 10.7213 51.0448 10.5747C50.8756 10.4281 50.6462 10.3457 50.407 10.3457M10.9104 16.8313V19.0137C10.9104 19.2335 10.8097 19.4442 10.6304 19.5996C10.4511 19.755 10.2079 19.8423 9.9543 19.8423H7.36483V15.4725H9.9543C10.08 15.4722 10.2045 15.4934 10.3206 15.5349C10.4368 15.5765 10.5424 15.6375 10.6312 15.7145C10.7201 15.7915 10.7905 15.883 10.8384 15.9836C10.8863 16.0843 10.9108 16.1922 10.9104 16.3011V16.8313ZM11.269 10.3531H2.35378C2.11907 10.3531 1.89397 10.4339 1.72801 10.5777C1.56204 10.7216 1.46881 10.9166 1.46881 11.12V14.5724C1.46881 14.5724 1.46881 14.5848 1.46881 14.5922C1.46881 14.5996 1.46881 14.6242 1.46881 14.6415V30.3302C1.46172 30.5282 1.54392 30.7209 1.69798 30.8673C1.85203 31.0137 2.06582 31.1023 2.29402 31.1144H6.44856C6.6878 31.1144 6.91723 31.032 7.0864 30.8854C7.25557 30.7388 7.3506 30.54 7.3506 30.3327L7.36483 24.9592H11.269C12.0065 24.9899 12.7433 24.8866 13.4321 24.6558C14.1208 24.4251 14.7463 24.0721 15.2683 23.6195C15.7903 23.1669 16.1973 22.6247 16.4631 22.0277C16.729 21.4307 16.8479 20.7922 16.8121 20.153V15.1667C16.8482 14.5272 16.7297 13.8881 16.464 13.2906C16.1984 12.6931 15.7915 12.1503 15.2696 11.697C14.7476 11.2437 14.1221 10.8901 13.4332 10.6586C12.7442 10.4272 12.007 10.3231 11.269 10.3531ZM27.8359 25.1319V25.6843C27.8352 25.7281 27.8304 25.7718 27.8217 25.815C27.776 26.0015 27.6566 26.1683 27.4841 26.2867C27.3117 26.4051 27.0969 26.4677 26.8769 26.4635H25.1696C24.923 26.4702 24.6833 26.3919 24.5031 26.2459C24.3229 26.0999 24.2167 25.8979 24.2078 25.6843V25.0184C24.2078 25.0184 24.2078 25.0012 24.2078 24.9938V22.6585C24.2167 22.4456 24.3227 22.2446 24.5024 22.0994C24.6822 21.9542 24.9211 21.8768 25.1667 21.8841H26.8741C26.9963 21.8805 27.1181 21.8978 27.2326 21.935C27.3471 21.9722 27.452 22.0286 27.5414 22.101C27.6307 22.1734 27.7027 22.2603 27.7532 22.3568C27.8037 22.4533 27.8318 22.5575 27.8359 22.6634V25.1319ZM27.1899 10.3728H21.5272C21.4117 10.3695 21.2965 10.3861 21.1883 10.4216C21.0802 10.457 20.9812 10.5107 20.8971 10.5795C20.813 10.6482 20.7454 10.7308 20.6982 10.8223C20.6511 10.9138 20.6253 11.0124 20.6224 11.1126V12.4887C20.6224 12.4887 20.6224 12.5059 20.6224 12.5158C20.6224 12.5257 20.6224 12.5355 20.6224 12.5454V14.4269C20.6313 14.64 20.7371 14.8413 20.9168 14.9868C21.0965 15.1324 21.3355 15.2104 21.5813 15.2037H26.9708C27.1831 15.2284 27.3792 15.3152 27.5267 15.4498C27.6742 15.5844 27.7642 15.7586 27.7818 15.9435V16.3997C27.7721 16.5838 27.6877 16.7589 27.5435 16.8943C27.3992 17.0296 27.2045 17.1165 26.9936 17.1395H24.3273C23.5503 17.0907 22.77 17.1813 22.0353 17.4058C21.3006 17.6303 20.6273 17.9839 20.0576 18.4443C19.4878 18.9047 19.0339 19.4621 18.7241 20.0816C18.4144 20.7011 18.2556 21.3693 18.2577 22.0444V26.1553C18.2149 26.8104 18.3332 27.466 18.6049 28.0785C18.8765 28.691 19.2953 29.2465 19.8334 29.7082C20.3715 30.1699 21.0167 30.5272 21.7262 30.7564C22.4357 30.9857 23.1933 31.0816 23.9488 31.0379H31.3473C31.9633 31.0559 32.5624 30.8614 33.0132 30.4972C33.4639 30.1329 33.7296 29.6285 33.7518 29.0947V15.6797C33.7518 12.427 31.8168 10.3728 27.207 10.3728H27.1899Z" fill="#1F336B"/>
</g>
<defs>
<clipPath id="clip0_904_25538">
<rect width="93" height="39" fill="white" transform="translate(0 0.5)"/>
</clipPath>
</defs>
</svg>
