<svg width="64" height="64" viewBox="0 0 64 64" fill="none" xmlns="http://www.w3.org/2000/svg">
<path d="M62 52.0003C62 52.5307 61.7893 53.0394 61.4142 53.4145C61.0391 53.7896 60.5304 54.0003 60 54.0003H4C3.46957 54.0003 2.96086 53.7896 2.58579 53.4145C2.21071 53.0394 2 52.5307 2 52.0003C2 51.4698 2.21071 50.9611 2.58579 50.5861C2.96086 50.211 3.46957 50.0003 4 50.0003H60C60.5304 50.0003 61.0391 50.211 61.4142 50.5861C61.7893 50.9611 62 51.4698 62 52.0003ZM4.075 24.5453C3.95604 24.1259 3.97739 23.6791 4.1358 23.2729C4.29421 22.8667 4.58099 22.5234 4.9525 22.2953L30.9525 6.29528C31.2676 6.10157 31.6302 5.99902 32 5.99902C32.3698 5.99902 32.7324 6.10157 33.0475 6.29528L59.0475 22.2953C59.4191 22.5231 59.7061 22.8662 59.8648 23.2722C60.0235 23.6782 60.0452 24.1249 59.9266 24.5444C59.808 24.9639 59.5556 25.3331 59.2078 25.5959C58.86 25.8587 58.4359 26.0007 58 26.0003H52V42.0003H56C56.5304 42.0003 57.0391 42.211 57.4142 42.5861C57.7893 42.9611 58 43.4698 58 44.0003C58 44.5307 57.7893 45.0394 57.4142 45.4145C57.0391 45.7896 56.5304 46.0003 56 46.0003H8C7.46957 46.0003 6.96086 45.7896 6.58579 45.4145C6.21071 45.0394 6 44.5307 6 44.0003C6 43.4698 6.21071 42.9611 6.58579 42.5861C6.96086 42.211 7.46957 42.0003 8 42.0003H12V26.0003H6C5.56447 26.0004 5.1408 25.8584 4.79335 25.5958C4.44591 25.3332 4.19368 24.9643 4.075 24.5453ZM36 40.0003C36 40.5307 36.2107 41.0394 36.5858 41.4145C36.9609 41.7896 37.4696 42.0003 38 42.0003C38.5304 42.0003 39.0391 41.7896 39.4142 41.4145C39.7893 41.0394 40 40.5307 40 40.0003V28.0003C40 27.4698 39.7893 26.9611 39.4142 26.5861C39.0391 26.211 38.5304 26.0003 38 26.0003C37.4696 26.0003 36.9609 26.211 36.5858 26.5861C36.2107 26.9611 36 27.4698 36 28.0003V40.0003ZM24 40.0003C24 40.5307 24.2107 41.0394 24.5858 41.4145C24.9609 41.7896 25.4696 42.0003 26 42.0003C26.5304 42.0003 27.0391 41.7896 27.4142 41.4145C27.7893 41.0394 28 40.5307 28 40.0003V28.0003C28 27.4698 27.7893 26.9611 27.4142 26.5861C27.0391 26.211 26.5304 26.0003 26 26.0003C25.4696 26.0003 24.9609 26.211 24.5858 26.5861C24.2107 26.9611 24 27.4698 24 28.0003V40.0003Z" fill="#4071DF"/>
</svg>
