<svg width="38" height="40" viewBox="0 0 38 40" fill="none" xmlns="http://www.w3.org/2000/svg">
<g clip-path="url(#clip0_904_25537)">
<path d="M18.9945 0.5C15.2374 0.5 11.5646 1.64344 8.44066 3.78573C5.3167 5.92802 2.88188 8.97295 1.44408 12.5354C0.0062777 16.0979 -0.369916 20.018 0.363068 23.7999C1.09605 27.5819 2.90529 31.0558 5.562 33.7824C8.2187 36.509 11.6036 38.3659 15.2885 39.1182C18.9735 39.8704 22.793 39.4843 26.2642 38.0087C29.7353 36.5331 32.7022 34.0342 34.7895 30.828C36.8769 27.6218 37.991 23.8524 37.991 19.9964C37.991 17.4361 37.4997 14.9009 36.545 12.5354C35.5903 10.17 34.1911 8.02077 32.4271 6.21036C30.6631 4.39995 28.5689 2.96386 26.2642 1.98407C23.9594 1.00429 21.4892 0.5 18.9945 0.5Z" fill="#673AB7"/>
<path d="M27.6879 14.7126V15.3793C27.6988 15.4593 27.6915 15.5409 27.6665 15.6176C27.6415 15.6942 27.5994 15.7639 27.5437 15.8211C27.488 15.8782 27.4202 15.9213 27.3455 15.947C27.2708 15.9727 27.1913 15.9802 27.1133 15.969H25.1198C25.0745 15.9653 25.0288 15.9715 24.986 15.9873C24.9431 16.0031 24.904 16.028 24.8712 16.0605C24.811 16.1398 24.7817 16.2394 24.7892 16.3397V32.1943C24.8006 32.2745 24.7936 32.3563 24.7688 32.4332C24.7439 32.5101 24.7019 32.5799 24.6461 32.6372C24.5903 32.6945 24.5222 32.7376 24.4473 32.7631C24.3724 32.7886 24.2927 32.7958 24.2146 32.784H22.6151C22.537 32.7958 22.4573 32.7886 22.3824 32.7631C22.3075 32.7376 22.2394 32.6945 22.1836 32.6372C22.1278 32.5799 22.0857 32.5101 22.0609 32.4332C22.0361 32.3563 22.0291 32.2745 22.0405 32.1943V26.473H21.9209C21.6787 26.9054 21.3081 27.247 20.8632 27.4478C20.3186 27.6809 19.7316 27.7917 19.1418 27.7727H18.267C17.6286 27.7826 16.9934 27.6766 16.3908 27.4598C15.8435 27.2576 15.3452 26.9366 14.9297 26.5187C14.5138 26.102 14.1933 25.5955 13.9917 25.036C13.7744 24.4139 13.6679 23.7568 13.6774 23.096V16.3397C13.6827 16.247 13.6588 16.155 13.6094 16.0773C13.585 16.0452 13.5542 16.0189 13.5189 16.0002C13.4837 15.9815 13.445 15.9708 13.4053 15.969H11.6534C11.5753 15.9747 11.4968 15.9638 11.4229 15.9369C11.349 15.91 11.2814 15.8676 11.2243 15.8125C11.1191 15.682 11.0678 15.5144 11.0812 15.3456V14.0434C11.0754 13.9676 11.0851 13.8914 11.1097 13.8197C11.1344 13.7479 11.1734 13.6823 11.2243 13.627C11.3444 13.5253 11.4982 13.4753 11.6534 13.4874H20.5466C19.904 12.8006 19.2786 12.0729 18.6704 11.3043C18.0622 10.5357 17.4868 9.72533 16.9443 8.87327L16.0977 7.58555L15.2534 6.30023C15.2146 6.22975 15.1847 6.15454 15.1643 6.07638C15.144 5.99783 15.1338 5.91693 15.1338 5.83568C15.1252 5.77262 15.131 5.70837 15.1507 5.648C15.1704 5.58762 15.2035 5.53276 15.2474 5.48774C15.2913 5.44271 15.3447 5.40875 15.4035 5.38852C15.4624 5.36828 15.525 5.36234 15.5864 5.37114H17.4134C17.5769 5.36703 17.7386 5.40686 17.8824 5.48667C18.0179 5.57002 18.1277 5.69102 18.199 5.83568L20.3566 9.40039L22.5143 12.9627C22.607 13.1191 22.7308 13.2537 22.8778 13.3574C23.0026 13.4435 23.1496 13.4895 23.2999 13.4898H27.1039C27.2592 13.4772 27.4132 13.5273 27.5331 13.6294C27.5839 13.6848 27.6228 13.7504 27.6474 13.8221C27.6721 13.8938 27.6819 13.97 27.6762 14.0458V14.7126H27.6879Z" fill="white"/>
<path d="M21.7192 15.9719H16.759C16.7133 15.9679 16.6672 15.9739 16.6239 15.9897C16.5806 16.0055 16.5411 16.0306 16.5081 16.0634C16.4478 16.1427 16.4186 16.2423 16.426 16.3426V22.8173C16.3767 23.4757 16.5832 24.1273 17.0006 24.6298C17.2324 24.8453 17.5047 25.01 17.8006 25.1139C18.0966 25.2178 18.4101 25.2586 18.722 25.2339H19.5358C19.9104 25.2414 20.2836 25.1853 20.6404 25.0678C20.9365 24.9686 21.2046 24.7967 21.4214 24.5672C21.6307 24.3431 21.7907 24.0755 21.8904 23.7825C21.9979 23.4521 22.0502 23.1054 22.0452 22.7571V16.345C22.0527 16.2443 22.0225 16.1445 21.9608 16.0658C21.9293 16.0335 21.8915 16.0084 21.8498 15.9922C21.8082 15.976 21.7637 15.9691 21.7192 15.9719Z" fill="#673AB7"/>
</g>
<defs>
<clipPath id="clip0_904_25537">
<rect width="38" height="39" fill="white" transform="translate(0 0.5)"/>
</clipPath>
</defs>
</svg>
