<svg width="28" height="28" viewBox="0 0 28 28" fill="none" xmlns="http://www.w3.org/2000/svg">
<path d="M21 9.33366H23.3333C23.6428 9.33366 23.9395 9.45658 24.1583 9.67537C24.3771 9.89416 24.5 10.1909 24.5 10.5003V24.5003C24.5 24.8097 24.3771 25.1065 24.1583 25.3253C23.9395 25.5441 23.6428 25.667 23.3333 25.667H4.66667C4.35725 25.667 4.0605 25.5441 3.84171 25.3253C3.62292 25.1065 3.5 24.8097 3.5 24.5003V10.5003C3.5 10.1909 3.62292 9.89416 3.84171 9.67537C4.0605 9.45658 4.35725 9.33366 4.66667 9.33366H7V8.16699C7 6.31048 7.7375 4.53 9.05025 3.21724C10.363 1.90449 12.1435 1.16699 14 1.16699C15.8565 1.16699 17.637 1.90449 18.9497 3.21724C20.2625 4.53 21 6.31048 21 8.16699V9.33366ZM5.83333 11.667V23.3337H22.1667V11.667H5.83333ZM12.8333 16.3337H15.1667V18.667H12.8333V16.3337ZM8.16667 16.3337H10.5V18.667H8.16667V16.3337ZM17.5 16.3337H19.8333V18.667H17.5V16.3337ZM18.6667 9.33366V8.16699C18.6667 6.92932 18.175 5.74233 17.2998 4.86716C16.4247 3.99199 15.2377 3.50033 14 3.50033C12.7623 3.50033 11.5753 3.99199 10.7002 4.86716C9.825 5.74233 9.33333 6.92932 9.33333 8.16699V9.33366H18.6667Z" fill="#4071DF"/>
</svg>
