<svg width="108" height="26" viewBox="0 0 108 26" fill="none" xmlns="http://www.w3.org/2000/svg">
<path d="M101.918 1.91849L108 13.0005L95.2139 24.0879L101.918 1.91849Z" fill="#008C44"/>
<path d="M97.703 1.91849L103.776 13.0005L90.9987 24.0879L97.703 1.91849Z" fill="#F47920"/>
<path d="M0.183228 20.0479L6.24751 2.67029e-05H15.9427C18.9728 2.67029e-05 20.9968 0.440178 22.0266 1.3472C23.049 2.24694 23.2459 3.71557 22.6296 5.77982C22.2569 6.99583 21.6904 8.01653 20.9121 8.82299C20.1402 9.63091 19.1221 10.2698 17.8683 10.7396C18.932 10.9742 19.6086 11.4401 19.912 12.1387C20.2138 12.8373 20.1788 13.8561 19.8125 15.1916L19.0749 17.9919L19.0728 18.0677C18.86 18.8518 18.923 19.2715 19.2698 19.3055L19.0463 20.0479H12.4876C12.5098 19.5761 12.5506 19.1544 12.594 18.8003C12.6416 18.4378 12.7004 18.157 12.7586 17.9642L13.3702 15.9621C13.6783 14.921 13.6974 14.1947 13.4114 13.7764C13.1229 13.3469 12.477 13.1356 11.4573 13.1356H8.70096L6.59906 20.0479H0.183228ZM10.0648 8.61798H13.017C14.0515 8.61798 14.815 8.48243 15.2857 8.20212C15.7585 7.91937 16.1095 7.44181 16.3155 6.75097C16.5288 6.04848 16.4764 5.55877 16.1704 5.2804C15.8649 4.99765 15.1337 4.86016 13.9843 4.86016H11.2015L10.0648 8.61798Z" fill="#1B3281"/>
<path d="M40.6337 5.26988L36.1631 20.0636H30.7304L31.398 17.8963C30.4419 18.7582 29.4634 19.4126 28.4771 19.8309C27.4987 20.2564 26.4662 20.4658 25.3793 20.4658C24.4808 20.4658 23.7094 20.3162 23.0884 20.0194C22.4599 19.7235 21.9919 19.2736 21.6769 18.6804C21.3973 18.1611 21.2755 17.5198 21.3232 16.7537C21.3735 15.9997 21.6636 14.7278 22.2015 12.9468L24.5184 5.26988H30.4609L28.1488 12.9108C27.811 14.0292 27.7306 14.8153 27.8952 15.2433C28.0668 15.6752 28.5247 15.8981 29.2681 15.8981C30.0167 15.8981 30.6462 15.6494 31.1661 15.1417C31.6935 14.6384 32.1006 13.8878 32.4066 12.889L34.6997 5.26988H40.6337Z" fill="#1B3281"/>
<path d="M38.4858 20.0479L44.5438 2.67029e-05H52.8773C54.716 2.67029e-05 56.1392 0.0996189 57.1541 0.318237C58.167 0.527626 58.9611 0.867699 59.5515 1.3472C60.2911 1.9744 60.7443 2.75074 60.9307 3.68205C61.1059 4.61337 61.0021 5.6982 60.6183 6.97202C59.9395 9.21311 58.7499 10.9305 57.0546 12.1305C55.354 13.3149 53.25 13.91 50.7388 13.91H46.8389L44.9864 20.0479H38.4858ZM48.3155 9.01392H50.4111C51.7659 9.01392 52.7184 8.8604 53.2765 8.56405C53.8165 8.26381 54.2003 7.73038 54.4344 6.97202C54.6684 6.20345 54.608 5.66614 54.2543 5.3659C53.9139 5.06712 53.044 4.91603 51.6521 4.91603H49.5608L48.3155 9.01392Z" fill="#1B3281"/>
<path d="M67.6056 20.0525L67.6659 18.6475C66.7077 19.3058 65.7372 19.8033 64.7614 20.1142C63.7899 20.431 62.7553 20.5918 61.6472 20.5918C59.9641 20.5918 58.7903 20.172 58.1116 19.3598C57.4413 18.546 57.3312 17.3776 57.7886 15.8871C58.2264 14.4161 59.0053 13.3332 60.1288 12.6409C61.2459 11.9403 63.1117 11.439 65.7292 11.1183C66.0612 11.0688 66.5059 11.0289 67.0629 10.9672C68.998 10.7617 70.0845 10.2885 70.3185 9.51657C70.4402 9.09391 70.3661 8.78201 70.0802 8.5906C69.8044 8.3919 69.2887 8.29425 68.5443 8.29425C67.9264 8.29425 67.4293 8.41182 67.0216 8.65618C66.6145 8.90298 66.3106 9.26346 66.1046 9.77065H60.3109C60.834 8.10526 61.9029 6.84699 63.5077 6.00555C65.1066 5.14954 67.2149 4.73756 69.8261 4.73756C71.0539 4.73756 72.1535 4.84299 73.1256 5.07181C74.0993 5.29091 74.8108 5.60329 75.2725 5.98126C75.8406 6.45299 76.1768 6.99079 76.2726 7.58544C76.3833 8.17862 76.262 9.02881 75.9232 10.1413L73.4311 18.3891C73.3511 18.6592 73.3358 18.9002 73.3792 19.1193C73.4311 19.3282 73.5306 19.507 73.7064 19.6347L73.5725 20.0525H67.6056ZM69.0499 13.4468C68.4188 13.6796 67.5987 13.9025 66.5795 14.1474C64.979 14.5414 64.0784 15.0671 63.8836 15.7176C63.7486 16.1359 63.8031 16.458 64.026 16.7028C64.2457 16.9355 64.6275 17.0531 65.1654 17.0531C66.1517 17.0531 66.9438 16.8243 67.5341 16.3725C68.126 15.9148 68.5687 15.1963 68.8784 14.2052C68.9324 13.9944 68.98 13.8428 69.0107 13.7296L69.0499 13.4468Z" fill="#1B3281"/>
<path d="M73.6056 25.8829L74.9244 21.5042H76.625C77.1931 21.5042 77.64 21.4012 77.9566 21.2137C78.278 21.0189 78.4966 20.6905 78.6226 20.2484C78.6856 20.0536 78.7243 19.8486 78.7508 19.6158C78.7677 19.369 78.7677 19.1082 78.7508 18.806L77.8433 5.25988H83.8583L83.7651 14.2359L89.0162 5.25988H94.6098L85.3265 19.9822C84.2729 21.6276 83.5073 22.7581 83.0213 23.3751C82.5416 23.9843 82.0863 24.458 81.6442 24.7786C81.0713 25.2222 80.4317 25.5365 79.7413 25.7197C79.0494 25.9067 77.9958 26 76.5795 26C76.1718 26 75.7027 25.9927 75.1955 25.9684C74.692 25.9504 74.1546 25.9228 73.6056 25.8829Z" fill="#1B3281"/>
</svg>
