<svg width="36" height="36" viewBox="0 0 36 36" fill="none" xmlns="http://www.w3.org/2000/svg">
<g clip-path="url(#clip0_904_25546)">
<path d="M36 18.0041C35.9328 22.7113 33.9993 27.199 30.6247 30.4807C27.2502 33.7624 22.7108 35.5693 18.0046 35.5041C13.298 35.5717 8.75727 33.7669 5.38092 30.4864C2.00456 27.206 0.0690412 22.7186 0 18.011H0C0.032097 15.6795 0.523031 13.3771 1.44477 11.2354C2.36651 9.0936 3.701 7.15441 5.37204 5.52852C7.04308 3.90262 9.01795 2.62187 11.1839 1.75939C13.3498 0.896907 15.6644 0.469589 17.9954 0.501835C22.7004 0.434214 27.2398 2.23782 30.6159 5.51628C33.992 8.79473 35.9285 13.2798 36 17.9857V18.0041Z" fill="#156DD1"/>
<path d="M21.2383 18.0052C21.2567 18.6499 21.0823 19.2854 20.7375 19.8304C20.3927 20.3754 19.8932 20.8052 19.3029 21.0647C18.7125 21.3242 18.0582 21.4017 17.4237 21.2872C16.7891 21.1727 16.2031 20.8715 15.7406 20.422C15.2781 19.9726 14.9602 19.3954 14.8275 18.7642C14.6948 18.1331 14.7534 17.4767 14.9958 16.879C15.2381 16.2813 15.6532 15.7695 16.188 15.4091C16.7227 15.0487 17.3528 14.8561 17.9976 14.8558C18.4172 14.8497 18.8338 14.9264 19.2237 15.0813C19.6137 15.2363 19.9693 15.4666 20.2702 15.7591C20.5711 16.0515 20.8115 16.4004 20.9776 16.7858C21.1438 17.1712 21.2324 17.5856 21.2383 18.0052Z" fill="white"/>
<path d="M19.1177 20.2939H16.8844V35.498H19.1177V20.2939Z" fill="white"/>
</g>
<defs>
<clipPath id="clip0_904_25546">
<rect width="36" height="35" fill="white" transform="translate(0 0.5)"/>
</clipPath>
</defs>
</svg>
