<svg width="67" height="22" viewBox="0 0 67 22" fill="none" xmlns="http://www.w3.org/2000/svg">
<path fill-rule="evenodd" clip-rule="evenodd" d="M16.7507 21.8377H10.9523L6.60416 4.77076C6.39778 3.98568 5.95958 3.29162 5.31499 2.96451C3.70636 2.14245 1.93375 1.48821 0 1.15825V0.501173H9.34082C10.63 0.501173 11.5969 1.48821 11.758 2.63455L14.0141 14.9455L19.8097 0.501173H25.4469L16.7507 21.8377ZM28.6699 21.8377H23.1937L27.703 0.501173H33.1791L28.6699 21.8377ZM40.2639 6.40296C40.4251 5.25378 41.3919 4.59671 42.52 4.59671C44.2926 4.43172 46.2235 4.76169 47.835 5.5809L48.8018 0.98704C47.1904 0.329961 45.4178 0 43.8091 0C38.4941 0 34.6266 2.95543 34.6266 7.05719C34.6266 10.1776 37.3661 11.816 39.2999 12.8031C41.3919 13.7873 42.1977 14.4444 42.0365 15.4285C42.0365 16.9048 40.4251 17.5619 38.8164 17.5619C36.8827 17.5619 34.9489 17.0698 33.1791 16.2478L32.2123 20.8445C34.146 21.6637 36.2381 21.9936 38.1718 21.9936C44.1314 22.1558 47.835 19.2032 47.835 14.7715C47.835 9.19057 40.2639 8.86345 40.2639 6.40296ZM67 21.8377L62.6519 0.501173H57.9815C57.0146 0.501173 56.0477 1.15825 55.7254 2.14245L47.6738 21.8377H53.3111L54.4363 18.7202H61.3627L62.0073 21.8377H67ZM58.7871 6.2378L60.3957 14.2792H55.8865L58.7871 6.2378Z" fill="#1434CB"/>
</svg>
