<svg width="60" height="60" viewBox="0 0 60 60" fill="none" xmlns="http://www.w3.org/2000/svg">
<path fill-rule="evenodd" clip-rule="evenodd" d="M4.27241 17.2456C3.39379 17.2456 2.5 17.8569 2.5 18.7954V55.0327C2.5 55.974 3.39516 56.5825 4.27241 56.5825H50.8175C54.3781 56.5825 57.8196 53.9928 57.8196 50.2488V14.6545C56.3531 16.3263 54.1852 17.2456 51.9697 17.2456C36.0703 17.2456 20.171 17.2456 4.27241 17.2456ZM8.30581 15.5607H49.2869V12.8463C49.2869 12.0841 48.6605 11.4577 47.8984 11.4577H10.0114C9.08658 11.4343 8.30581 11.8236 8.30581 12.8463V15.5607ZM50.9711 15.5607C60.9833 15.5607 58.7581 5 52.5396 5H13.2454C12.3916 5 11.6956 5.69463 11.6956 6.54982V9.77283H47.8984C51.2716 9.77283 50.9711 13.2205 50.9711 15.5607ZM4.46261 30.6827H14.0558C17.4573 30.6827 20.2406 33.4654 20.2406 36.8675C20.2406 40.269 17.4573 43.0517 14.0558 43.0517H4.46261V30.6827ZM14.1261 33.792C15.8241 33.792 17.2016 35.1696 17.2016 36.8675C17.2016 38.5655 15.8241 39.9424 14.1261 39.9424C12.4281 39.9424 11.0513 38.5655 11.0513 36.8675C11.0513 35.1696 12.4281 33.792 14.1261 33.792Z" fill="#4071DF"/>
</svg>
