<svg width="100" height="100" viewBox="0 0 100 100" fill="none" xmlns="http://www.w3.org/2000/svg">
<rect x="0.5" y="0.5" width="99" height="99" rx="49.5" fill="white"/>
<rect x="0.5" y="0.5" width="99" height="99" rx="49.5" stroke="#F0F3F5"/>
<path fill-rule="evenodd" clip-rule="evenodd" d="M51.7276 67.5C61.1019 67.5 68.7013 59.665 68.7013 50C68.7013 40.335 61.1019 32.5 51.7276 32.5C42.3533 32.5 34.7539 40.335 34.7539 50C34.7539 59.665 42.3533 67.5 51.7276 67.5ZM53.0006 39.5C53.0006 38.7751 52.4307 38.1875 51.7276 38.1875C51.0245 38.1875 50.4546 38.7751 50.4546 39.5V40.0543C47.6871 40.5652 45.3625 42.7088 45.3625 45.625C45.3625 48.98 48.4394 51.3125 51.7276 51.3125C54.064 51.3125 55.5467 52.8975 55.5467 54.375C55.5467 55.8525 54.064 57.4375 51.7276 57.4375C49.3912 57.4375 47.9085 55.8525 47.9085 54.375C47.9085 53.6501 47.3386 53.0625 46.6355 53.0625C45.9324 53.0625 45.3625 53.6501 45.3625 54.375C45.3625 57.2912 47.6871 59.4348 50.4546 59.9457V60.5C50.4546 61.2249 51.0245 61.8125 51.7276 61.8125C52.4307 61.8125 53.0006 61.2249 53.0006 60.5V59.9457C55.7681 59.4348 58.0927 57.2912 58.0927 54.375C58.0927 51.02 55.0158 48.6875 51.7276 48.6875C49.3912 48.6875 47.9085 47.1025 47.9085 45.625C47.9085 44.1475 49.3912 42.5625 51.7276 42.5625C54.064 42.5625 55.5467 44.1475 55.5467 45.625C55.5467 46.3499 56.1166 46.9375 56.8197 46.9375C57.5228 46.9375 58.0927 46.3499 58.0927 45.625C58.0927 42.7088 55.7681 40.5652 53.0006 40.0543V39.5Z" fill="#4071DF"/>
<path d="M71.6094 49.2498C71.5456 49.2623 71.4809 49.2712 71.4167 49.2833C71.4132 49.2842 71.4097 49.2847 71.4062 49.2856C71.474 49.2726 71.5421 49.2632 71.6094 49.2498Z" fill="#484848"/>
<path d="M70.6165 49.4203C70.5605 49.4288 70.5037 49.4342 70.4473 49.4422C70.5284 49.431 70.6113 49.423 70.692 49.4109C70.6855 49.4122 70.679 49.4122 70.6721 49.4136C70.6539 49.4158 70.6352 49.4176 70.6165 49.4203Z" fill="#484848"/>
<path d="M71.4065 49.2856C71.1699 49.3304 70.9329 49.3742 70.6934 49.4105C70.9329 49.3747 71.1695 49.3304 71.4065 49.2856Z" fill="#484848"/>
<path d="M69.7148 49.5361C69.9614 49.5124 70.2044 49.4752 70.4488 49.4417C70.2049 49.4752 69.9614 49.5083 69.7148 49.532V49.5361Z" fill="#484848"/>
</svg>
