<svg width="100" height="100" viewBox="0 0 100 100" fill="none" xmlns="http://www.w3.org/2000/svg">
<rect x="0.5" y="0.5" width="99" height="99" rx="49.5" fill="white"/>
<rect x="0.5" y="0.5" width="99" height="99" rx="49.5" stroke="#F0F3F5"/>
<path d="M39.413 57.8816H35.8211C35.3763 57.8816 35 58.2579 35 58.7026V65.0311C35 65.4759 35.3763 65.8522 35.8211 65.8522H39.413C39.8577 65.8522 40.234 65.4759 40.234 65.0311V58.7026C40.2681 58.2579 39.8918 57.8816 39.413 57.8816Z" fill="#4071DF"/>
<path d="M47.5887 52.032H43.9968C43.5521 52.032 43.1758 52.4083 43.1758 52.853V64.9969C43.1758 65.4416 43.5521 65.8179 43.9968 65.8179H47.5887C48.0335 65.8179 48.4098 65.4416 48.4098 64.9969V52.853C48.4098 52.4083 48.0679 52.032 47.5887 52.032Z" fill="#4071DF"/>
<path d="M55.7645 46.2168H52.1726C51.7278 46.2168 51.3516 46.5931 51.3516 47.0379V65.0313C51.3516 65.476 51.7279 65.8523 52.1726 65.8523H55.7645C56.2093 65.8523 56.5856 65.476 56.5856 65.0313V47.0379C56.5853 46.5931 56.209 46.2168 55.7645 46.2168Z" fill="#4071DF"/>
<path d="M67.293 39.8197L62.7774 34.449C62.4352 34.0727 61.8537 34.0727 61.5118 34.449L56.9962 39.8197C56.5514 40.3671 56.9277 41.1879 57.6118 41.1879H59.5274V65.0309C59.5274 65.4757 59.9037 65.852 60.3485 65.852H63.9404C64.3851 65.852 64.7614 65.4757 64.7614 65.0309V41.1879H66.677C67.3614 41.1879 67.7718 40.3669 67.2929 39.8197H67.293Z" fill="#4071DF"/>
</svg>
