<svg width="420" height="248" viewBox="0 0 420 248" fill="none" xmlns="http://www.w3.org/2000/svg">
<path d="M371.502 122.358L406.679 122.358" stroke="#4071DF" stroke-width="1.30423"/>
<ellipse cx="405.653" cy="122.299" rx="14.3465" ry="14.3465" fill="#2BBC5D"/>
<path d="M412.411 118.386L403.934 126.864L400.08 123.01" stroke="white" stroke-width="1.9947" stroke-linecap="round" stroke-linejoin="round"/>
<path d="M82.3652 30.5549H150.126V122.358H216.209" stroke="#4071DF" stroke-width="1.30423"/>
<path d="M77.2168 215.019H144.977V122.358H211.06" stroke="#4071DF" stroke-width="1.30423"/>
<path d="M76.3594 90.613H136.099V122.358H210.203" stroke="#4071DF" stroke-width="1.30423"/>
<path d="M104.672 153.245H125.39V122.358H175.026" stroke="#4071DF" stroke-width="1.30423"/>
<g filter="url(#filter0_d_27_52712)">
<rect x="175.883" y="13.3955" width="196.476" height="218.783" rx="15.6507" fill="white"/>
<rect x="176.209" y="13.7216" width="195.824" height="218.131" rx="15.3247" stroke="#DCE0E0" stroke-width="0.652114"/>
</g>
<path d="M365.494 122.358H351.64V56.2939H328.601" stroke="#CCCCCC" stroke-width="1.30423"/>
<path d="M356.057 122.358H342.203V102.624H329.46" stroke="#CCCCCC" stroke-width="1.30423"/>
<path d="M356.057 122.358H342.203V148.097H326.886" stroke="#CCCCCC" stroke-width="1.30423"/>
<path d="M372.359 122.358L351.642 122.358L351.642 195.285L305.438 195.285" stroke="#CCCCCC" stroke-width="1.30423"/>
<path d="M182.748 122.358H196.602V56.2939H219.641" stroke="#CCCCCC" stroke-width="1.30423"/>
<path d="M192.186 122.358H206.039V102.624H218.783" stroke="#CCCCCC" stroke-width="1.30423"/>
<path d="M192.186 122.358H206.039V148.097H221.357" stroke="#CCCCCC" stroke-width="1.30423"/>
<path d="M175.883 122.358L196.6 122.358L196.6 195.285L242.805 195.285" stroke="#CCCCCC" stroke-width="1.30423"/>
<path d="M248.167 56.2946C248.167 65.018 241.095 72.0898 232.372 72.0898C223.648 72.0898 216.576 65.018 216.576 56.2946C216.576 47.5712 223.648 40.4994 232.372 40.4994C241.095 40.4994 248.167 47.5712 248.167 56.2946Z" fill="#FAFAFA" stroke="#EAEAEA" stroke-width="0.73466"/>
<path d="M239.986 51.8865L230.435 61.4371L226.094 57.0959" stroke="#4071DF" stroke-width="2.2472" stroke-linecap="round" stroke-linejoin="round"/>
<path d="M289.93 56.2946C289.93 65.018 282.859 72.0898 274.135 72.0898C265.412 72.0898 258.34 65.018 258.34 56.2946C258.34 47.5712 265.412 40.4994 274.135 40.4994C282.859 40.4994 289.93 47.5712 289.93 56.2946Z" fill="#FAFAFA" stroke="#EAEAEA" stroke-width="0.73466"/>
<path d="M274 47.4783L274 58.9635" stroke="#4071DF" stroke-width="2.2472" stroke-linecap="round" stroke-linejoin="round"/>
<ellipse cx="273.967" cy="63.5761" rx="1.4045" ry="1.4045" fill="#4071DF"/>
<path d="M331.692 56.2948C331.692 65.0183 324.62 72.09 315.897 72.09C307.173 72.09 300.102 65.0183 300.102 56.2948C300.102 47.5714 307.173 40.4997 315.897 40.4997C324.62 40.4997 331.692 47.5714 331.692 56.2948Z" fill="#FAFAFA" stroke="#EAEAEA" stroke-width="0.73466"/>
<path d="M321.774 50.4177L310.02 62.1724" stroke="#4071DF" stroke-width="2.1372" stroke-linecap="round" stroke-linejoin="round"/>
<path d="M310.02 50.4174L321.774 62.1721" stroke="#4071DF" stroke-width="2.1372" stroke-linecap="round" stroke-linejoin="round"/>
<path d="M248.167 102.347C248.167 111.071 241.095 118.142 232.372 118.142C223.648 118.142 216.576 111.071 216.576 102.347C216.576 93.6236 223.648 86.5519 232.372 86.5519C241.095 86.5519 248.167 93.6236 248.167 102.347Z" fill="#FAFAFA" stroke="#EAEAEA" stroke-width="0.73466"/>
<path d="M238.652 100.003C238.746 100.003 238.839 99.9841 238.926 99.9481C239.013 99.912 239.092 99.8592 239.159 99.7926C239.225 99.726 239.278 99.6469 239.314 99.5599C239.35 99.4729 239.369 99.3796 239.369 99.2854V97.1339C239.369 96.9835 239.321 96.8368 239.233 96.7147C239.145 96.5926 239.021 96.5014 238.878 96.4539L232.424 94.3024C232.277 94.2534 232.117 94.2534 231.97 94.3024L225.516 96.4539C225.373 96.5014 225.249 96.5926 225.161 96.7147C225.073 96.8368 225.025 96.9835 225.025 97.1339V99.2854C225.025 99.3796 225.044 99.4729 225.08 99.5599C225.116 99.6469 225.169 99.726 225.235 99.7926C225.302 99.8592 225.381 99.912 225.468 99.9481C225.555 99.9841 225.648 100.003 225.743 100.003H226.46V105.155C226.041 105.302 225.679 105.575 225.422 105.937C225.165 106.299 225.027 106.731 225.025 107.174V108.609C225.025 108.703 225.044 108.796 225.08 108.883C225.116 108.97 225.169 109.049 225.235 109.116C225.302 109.182 225.381 109.235 225.468 109.271C225.555 109.307 225.648 109.326 225.743 109.326H238.652C238.746 109.326 238.839 109.307 238.926 109.271C239.013 109.235 239.092 109.182 239.159 109.116C239.225 109.049 239.278 108.97 239.314 108.883C239.35 108.796 239.369 108.703 239.369 108.609V107.174C239.367 106.731 239.229 106.299 238.972 105.937C238.715 105.575 238.353 105.302 237.934 105.155V100.003H238.652ZM237.934 107.891H226.46V107.174C226.46 106.984 226.536 106.802 226.67 106.667C226.804 106.533 226.987 106.457 227.177 106.457H237.217C237.407 106.457 237.59 106.533 237.724 106.667C237.859 106.802 237.934 106.984 237.934 107.174V107.891ZM227.894 105.023V100.003H229.328V105.023H227.894ZM230.763 105.023V100.003H233.631V105.023H230.763ZM235.066 105.023V100.003H236.5V105.023H235.066ZM226.46 98.5683V97.6508L232.197 95.7381L237.934 97.6508V98.5683H226.46Z" fill="#4071DF"/>
<path d="M290.042 102.347C290.042 111.071 282.97 118.142 274.247 118.142C265.523 118.142 258.451 111.071 258.451 102.347C258.451 93.6236 265.523 86.5519 274.247 86.5519C282.97 86.5519 290.042 93.6236 290.042 102.347Z" fill="#FAFAFA" stroke="#EAEAEA" stroke-width="0.73466"/>
<path d="M280.525 100.003C280.619 100.003 280.712 99.9843 280.799 99.9483C280.886 99.9123 280.965 99.8594 281.032 99.7928C281.098 99.7262 281.151 99.6472 281.187 99.5601C281.223 99.4731 281.242 99.3799 281.242 99.2857V97.1342C281.242 96.9837 281.194 96.837 281.106 96.715C281.018 96.5929 280.894 96.5016 280.751 96.4541L274.297 94.3026C274.15 94.2536 273.99 94.2536 273.843 94.3026L267.389 96.4541C267.246 96.5016 267.122 96.5929 267.034 96.715C266.946 96.837 266.898 96.9837 266.898 97.1342V99.2857C266.898 99.3799 266.917 99.4731 266.953 99.5601C266.989 99.6472 267.042 99.7262 267.108 99.7928C267.175 99.8594 267.254 99.9123 267.341 99.9483C267.428 99.9843 267.521 100.003 267.616 100.003H268.333V105.155C267.914 105.302 267.552 105.576 267.295 105.937C267.038 106.299 266.9 106.731 266.898 107.174V108.609C266.898 108.703 266.917 108.796 266.953 108.883C266.989 108.97 267.042 109.049 267.108 109.116C267.175 109.183 267.254 109.235 267.341 109.271C267.428 109.307 267.521 109.326 267.616 109.326H280.525C280.619 109.326 280.712 109.307 280.799 109.271C280.886 109.235 280.965 109.183 281.032 109.116C281.098 109.049 281.151 108.97 281.187 108.883C281.223 108.796 281.242 108.703 281.242 108.609V107.174C281.24 106.731 281.102 106.299 280.845 105.937C280.588 105.576 280.226 105.302 279.807 105.155V100.003H280.525ZM279.807 107.892H268.333V107.174C268.333 106.984 268.409 106.802 268.543 106.668C268.677 106.533 268.86 106.458 269.05 106.457H279.09C279.28 106.458 279.463 106.533 279.597 106.668C279.732 106.802 279.807 106.984 279.807 107.174V107.892ZM269.767 105.023V100.003H271.201V105.023H269.767ZM272.636 105.023V100.003H275.504V105.023H272.636ZM276.939 105.023V100.003H278.373V105.023H276.939ZM268.333 98.5685V97.651L274.07 95.7384L279.807 97.651V98.5685H268.333Z" fill="#4071DF"/>
<path d="M331.919 102.347C331.919 111.071 324.847 118.142 316.123 118.142C307.4 118.142 300.328 111.071 300.328 102.347C300.328 93.6236 307.4 86.5519 316.123 86.5519C324.847 86.5519 331.919 93.6236 331.919 102.347Z" fill="#FAFAFA" stroke="#EAEAEA" stroke-width="0.73466"/>
<path d="M322.403 100.003C322.498 100.003 322.591 99.9841 322.678 99.9481C322.765 99.912 322.844 99.8592 322.911 99.7926C322.977 99.726 323.03 99.6469 323.066 99.5599C323.102 99.4729 323.121 99.3796 323.121 99.2854V97.1339C323.121 96.9835 323.073 96.8368 322.985 96.7147C322.897 96.5926 322.773 96.5014 322.63 96.4539L316.176 94.3024C316.029 94.2534 315.869 94.2534 315.722 94.3024L309.268 96.4539C309.125 96.5014 309.001 96.5926 308.913 96.7147C308.825 96.8368 308.777 96.9835 308.777 97.1339V99.2854C308.777 99.3796 308.796 99.4729 308.832 99.5599C308.868 99.6469 308.921 99.726 308.987 99.7926C309.054 99.8592 309.133 99.912 309.22 99.9481C309.307 99.9841 309.4 100.003 309.495 100.003H310.212V105.155C309.793 105.302 309.431 105.575 309.174 105.937C308.917 106.299 308.779 106.731 308.777 107.174V108.609C308.777 108.703 308.796 108.796 308.832 108.883C308.868 108.97 308.921 109.049 308.987 109.116C309.054 109.182 309.133 109.235 309.22 109.271C309.307 109.307 309.4 109.326 309.495 109.326H322.403C322.498 109.326 322.591 109.307 322.678 109.271C322.765 109.235 322.844 109.182 322.911 109.116C322.977 109.049 323.03 108.97 323.066 108.883C323.102 108.796 323.121 108.703 323.121 108.609V107.174C323.119 106.731 322.981 106.299 322.724 105.937C322.467 105.575 322.105 105.302 321.686 105.155V100.003H322.403ZM321.686 107.891H310.212V107.174C310.212 106.984 310.287 106.802 310.422 106.667C310.556 106.533 310.739 106.457 310.929 106.457H320.969C321.159 106.457 321.342 106.533 321.476 106.667C321.611 106.802 321.686 106.984 321.686 107.174V107.891ZM311.646 105.023V100.003H313.08V105.023H311.646ZM314.515 105.023V100.003H317.383V105.023H314.515ZM318.818 105.023V100.003H320.252V105.023H318.818ZM310.212 98.5683V97.6508L315.949 95.7381L321.686 97.6508V98.5683H310.212Z" fill="#4071DF"/>
<path d="M250.37 148.4C250.37 157.123 243.298 164.195 234.575 164.195C225.851 164.195 218.779 157.123 218.779 148.4C218.779 139.676 225.851 132.604 234.575 132.604C243.298 132.604 250.37 139.676 250.37 148.4Z" fill="#FAFAFA" stroke="#EAEAEA" stroke-width="0.73466"/>
<path d="M236.779 155.011C235.334 155.011 234.049 154.601 232.922 153.781C231.796 152.961 231 151.901 230.534 150.604H227.963C227.755 150.604 227.58 150.533 227.439 150.392C227.298 150.251 227.228 150.077 227.229 149.869C227.229 149.661 227.299 149.486 227.44 149.345C227.581 149.204 227.756 149.134 227.963 149.134H230.204C230.179 149 230.167 148.877 230.167 148.767V148.032C230.167 147.922 230.179 147.8 230.204 147.665H227.963C227.755 147.665 227.58 147.594 227.439 147.453C227.298 147.312 227.228 147.138 227.229 146.93C227.229 146.722 227.299 146.547 227.44 146.406C227.581 146.265 227.756 146.195 227.963 146.196H230.534C231 144.898 231.796 143.839 232.922 143.018C234.049 142.198 235.334 141.788 236.779 141.788C237.453 141.788 238.092 141.879 238.699 142.063C239.305 142.247 239.871 142.51 240.397 142.853C240.618 143 240.737 143.208 240.756 143.477C240.774 143.747 240.679 143.985 240.471 144.194C240.324 144.341 240.137 144.426 239.911 144.451C239.685 144.475 239.467 144.426 239.259 144.304C238.891 144.096 238.499 143.93 238.083 143.808C237.667 143.685 237.232 143.624 236.779 143.624C235.861 143.624 235.025 143.86 234.272 144.332C233.52 144.803 232.947 145.425 232.555 146.196H236.779C236.987 146.196 237.162 146.266 237.303 146.407C237.444 146.548 237.514 146.723 237.514 146.93C237.514 147.138 237.443 147.313 237.302 147.454C237.161 147.595 236.987 147.665 236.779 147.665H232.077C232.053 147.8 232.034 147.922 232.022 148.032C232.01 148.142 232.004 148.265 232.004 148.4C232.004 148.534 232.01 148.657 232.022 148.767C232.034 148.877 232.053 149 232.077 149.134H236.779C236.987 149.134 237.162 149.205 237.303 149.346C237.444 149.487 237.514 149.661 237.514 149.869C237.514 150.077 237.443 150.252 237.302 150.393C237.161 150.534 236.987 150.604 236.779 150.604H232.555C232.947 151.375 233.519 151.996 234.272 152.468C235.024 152.94 235.86 153.175 236.779 153.175C237.22 153.175 237.655 153.114 238.083 152.991C238.512 152.869 238.903 152.703 239.259 152.495C239.467 152.373 239.681 152.321 239.901 152.339C240.122 152.357 240.312 152.446 240.471 152.605C240.679 152.814 240.774 153.052 240.756 153.322C240.738 153.591 240.618 153.799 240.397 153.946C239.871 154.289 239.304 154.552 238.698 154.736C238.092 154.92 237.452 155.011 236.779 155.011Z" fill="#4071DF"/>
<path d="M290.042 148.4C290.042 157.123 282.97 164.195 274.247 164.195C265.523 164.195 258.451 157.123 258.451 148.4C258.451 139.676 265.523 132.604 274.247 132.604C282.97 132.604 290.042 139.676 290.042 148.4Z" fill="#FAFAFA" stroke="#EAEAEA" stroke-width="0.73466"/>
<path d="M270.738 155.012C270.493 155.012 270.282 154.923 270.105 154.745C269.927 154.567 269.838 154.356 269.838 154.112C269.838 153.99 269.878 153.852 269.958 153.7C270.037 153.547 270.151 153.397 270.297 153.249C270.579 153.041 270.891 152.717 271.234 152.276C271.577 151.835 271.748 151.278 271.748 150.604C271.748 150.469 271.739 150.34 271.72 150.218C271.701 150.096 271.68 149.979 271.657 149.869H270.573C270.364 149.869 270.19 149.799 270.049 149.658C269.908 149.518 269.837 149.343 269.838 149.134C269.838 148.926 269.908 148.752 270.049 148.611C270.191 148.469 270.365 148.399 270.573 148.4H270.94C270.683 147.996 270.435 147.57 270.196 147.123C269.958 146.676 269.838 146.122 269.838 145.461C269.838 144.335 270.23 143.38 271.013 142.596C271.797 141.812 272.752 141.42 273.879 141.42C274.576 141.42 275.207 141.576 275.77 141.888C276.334 142.2 276.799 142.614 277.166 143.128C277.313 143.337 277.371 143.557 277.341 143.79C277.311 144.022 277.185 144.188 276.964 144.286C276.793 144.359 276.612 144.359 276.423 144.286C276.233 144.212 276.071 144.09 275.936 143.918C275.691 143.6 275.394 143.349 275.044 143.165C274.695 142.982 274.307 142.89 273.879 142.89C273.168 142.89 272.562 143.141 272.06 143.643C271.558 144.145 271.307 144.751 271.307 145.461C271.307 146.049 271.454 146.539 271.748 146.93C272.042 147.322 272.342 147.812 272.648 148.4H274.981C275.189 148.4 275.363 148.47 275.504 148.611C275.645 148.752 275.716 148.927 275.715 149.134C275.715 149.342 275.645 149.517 275.504 149.658C275.363 149.799 275.188 149.869 274.981 149.869H273.162C273.187 149.979 273.202 150.096 273.209 150.218C273.215 150.34 273.218 150.469 273.217 150.604C273.217 151.216 273.11 151.767 272.896 152.257C272.681 152.746 272.421 153.175 272.115 153.542H275.715C276.034 153.542 276.306 153.484 276.533 153.367C276.76 153.251 276.94 153.089 277.074 152.881C277.209 152.673 277.368 152.535 277.552 152.467C277.735 152.4 277.913 152.415 278.084 152.514C278.329 152.636 278.461 152.802 278.479 153.01C278.497 153.218 278.445 153.426 278.323 153.634C278.066 154.063 277.705 154.399 277.24 154.644C276.774 154.889 276.266 155.012 275.715 155.012H270.738Z" fill="#4071DF"/>
<path d="M329.714 148.4C329.714 157.123 322.642 164.195 313.918 164.195C305.195 164.195 298.123 157.123 298.123 148.4C298.123 139.676 305.195 132.604 313.918 132.604C322.642 132.604 329.714 139.676 329.714 148.4Z" fill="#FAFAFA" stroke="#EAEAEA" stroke-width="0.73466"/>
<path d="M312.814 149.869H312.277L316.024 153.77C316.472 154.24 316.142 155.011 315.495 155.011C315.297 155.011 315.106 154.931 314.966 154.784L310.536 150.17C310.345 149.979 310.242 149.715 310.242 149.45C310.242 148.87 310.713 148.4 311.293 148.4H312.814C314.107 148.4 315.179 147.444 315.356 146.196H310.242C309.838 146.196 309.508 145.865 309.508 145.461C309.508 145.057 309.838 144.726 310.242 144.726H315.135C314.724 143.859 313.842 143.257 312.814 143.257H310.242C309.838 143.257 309.508 142.926 309.508 142.522C309.508 142.118 309.838 141.788 310.242 141.788H317.589C317.993 141.788 318.324 142.118 318.324 142.522C318.324 142.926 317.993 143.257 317.589 143.257H315.929C316.281 143.683 316.546 144.183 316.7 144.726H317.589C317.993 144.726 318.324 145.057 318.324 145.461C318.324 145.865 317.993 146.196 317.589 146.196H316.84C316.649 148.253 314.915 149.869 312.814 149.869Z" fill="#4071DF"/>
<path d="M271.676 194.452C271.676 203.176 264.605 210.247 255.881 210.247C247.158 210.247 240.086 203.176 240.086 194.452C240.086 185.729 247.158 178.657 255.881 178.657C264.605 178.657 271.676 185.729 271.676 194.452Z" fill="#FAFAFA" stroke="#EAEAEA" stroke-width="0.73466"/>
<path d="M258.088 198.126C257.942 198.126 257.8 198.169 257.68 198.249C257.559 198.33 257.465 198.445 257.409 198.579C257.353 198.713 257.339 198.861 257.367 199.004C257.395 199.146 257.465 199.277 257.568 199.38C257.671 199.483 257.802 199.552 257.944 199.581C258.087 199.609 258.235 199.595 258.369 199.539C258.503 199.483 258.618 199.389 258.699 199.268C258.779 199.148 258.822 199.006 258.822 198.86C258.822 198.665 258.745 198.479 258.607 198.341C258.469 198.203 258.283 198.126 258.088 198.126ZM253.68 198.126H251.476C251.281 198.126 251.094 198.203 250.956 198.341C250.818 198.479 250.741 198.665 250.741 198.86C250.741 199.055 250.818 199.242 250.956 199.38C251.094 199.518 251.281 199.595 251.476 199.595H253.68C253.875 199.595 254.061 199.518 254.199 199.38C254.337 199.242 254.414 199.055 254.414 198.86C254.414 198.665 254.337 198.479 254.199 198.341C254.061 198.203 253.875 198.126 253.68 198.126ZM260.292 198.126C260.146 198.126 260.004 198.169 259.884 198.249C259.763 198.33 259.669 198.445 259.613 198.579C259.557 198.713 259.543 198.861 259.571 199.004C259.599 199.146 259.669 199.277 259.772 199.38C259.875 199.483 260.006 199.552 260.148 199.581C260.291 199.609 260.439 199.595 260.573 199.539C260.707 199.483 260.822 199.389 260.903 199.268C260.983 199.148 261.026 199.006 261.026 198.86C261.026 198.665 260.949 198.479 260.811 198.341C260.673 198.203 260.487 198.126 260.292 198.126ZM258.088 193.718C257.942 193.718 257.8 193.761 257.68 193.841C257.559 193.922 257.465 194.037 257.409 194.171C257.353 194.305 257.339 194.453 257.367 194.596C257.395 194.738 257.465 194.869 257.568 194.972C257.671 195.075 257.802 195.145 257.944 195.173C258.087 195.201 258.235 195.187 258.369 195.131C258.503 195.075 258.618 194.981 258.699 194.86C258.779 194.74 258.822 194.598 258.822 194.452C258.822 194.257 258.745 194.071 258.607 193.933C258.469 193.795 258.283 193.718 258.088 193.718ZM253.68 193.718H251.476C251.281 193.718 251.094 193.795 250.956 193.933C250.818 194.071 250.741 194.257 250.741 194.452C250.741 194.647 250.818 194.834 250.956 194.972C251.094 195.11 251.281 195.187 251.476 195.187H253.68C253.875 195.187 254.061 195.11 254.199 194.972C254.337 194.834 254.414 194.647 254.414 194.452C254.414 194.257 254.337 194.071 254.199 193.933C254.061 193.795 253.875 193.718 253.68 193.718ZM260.292 189.31C260.146 189.31 260.004 189.353 259.884 189.434C259.763 189.514 259.669 189.629 259.613 189.763C259.557 189.897 259.543 190.045 259.571 190.188C259.599 190.33 259.669 190.461 259.772 190.564C259.875 190.667 260.006 190.737 260.148 190.765C260.291 190.793 260.439 190.779 260.573 190.723C260.707 190.667 260.822 190.573 260.903 190.453C260.983 190.332 261.026 190.19 261.026 190.044C261.026 189.85 260.949 189.663 260.811 189.525C260.673 189.387 260.487 189.31 260.292 189.31ZM260.292 193.718C260.146 193.718 260.004 193.761 259.884 193.841C259.763 193.922 259.669 194.037 259.613 194.171C259.557 194.305 259.543 194.453 259.571 194.596C259.599 194.738 259.669 194.869 259.772 194.972C259.875 195.075 260.006 195.145 260.148 195.173C260.291 195.201 260.439 195.187 260.573 195.131C260.707 195.075 260.822 194.981 260.903 194.86C260.983 194.74 261.026 194.598 261.026 194.452C261.026 194.257 260.949 194.071 260.811 193.933C260.673 193.795 260.487 193.718 260.292 193.718ZM263.23 189.31C263.23 188.725 262.998 188.165 262.585 187.751C262.171 187.338 261.611 187.106 261.026 187.106H250.741C250.157 187.106 249.596 187.338 249.183 187.751C248.769 188.165 248.537 188.725 248.537 189.31V190.779C248.54 191.323 248.744 191.846 249.11 192.248C248.744 192.651 248.54 193.174 248.537 193.718V195.187C248.54 195.731 248.744 196.254 249.11 196.656C248.744 197.059 248.54 197.582 248.537 198.126V199.595C248.537 200.179 248.769 200.74 249.183 201.153C249.596 201.567 250.157 201.799 250.741 201.799H261.026C261.611 201.799 262.171 201.567 262.585 201.153C262.998 200.74 263.23 200.179 263.23 199.595V198.126C263.227 197.582 263.023 197.059 262.657 196.656C263.023 196.254 263.227 195.731 263.23 195.187V193.718C263.227 193.174 263.023 192.651 262.657 192.248C263.023 191.846 263.227 191.323 263.23 190.779V189.31ZM261.761 199.595C261.761 199.79 261.684 199.977 261.546 200.114C261.408 200.252 261.221 200.33 261.026 200.33H250.741C250.546 200.33 250.359 200.252 250.222 200.114C250.084 199.977 250.006 199.79 250.006 199.595V198.126C250.006 197.931 250.084 197.744 250.222 197.606C250.359 197.468 250.546 197.391 250.741 197.391H261.026C261.221 197.391 261.408 197.468 261.546 197.606C261.684 197.744 261.761 197.931 261.761 198.126V199.595ZM261.761 195.187C261.761 195.382 261.684 195.569 261.546 195.706C261.408 195.844 261.221 195.922 261.026 195.922H250.741C250.546 195.922 250.359 195.844 250.222 195.706C250.084 195.569 250.006 195.382 250.006 195.187V193.718C250.006 193.523 250.084 193.336 250.222 193.198C250.359 193.06 250.546 192.983 250.741 192.983H261.026C261.221 192.983 261.408 193.06 261.546 193.198C261.684 193.336 261.761 193.523 261.761 193.718V195.187ZM261.761 190.779C261.761 190.974 261.684 191.161 261.546 191.298C261.408 191.436 261.221 191.514 261.026 191.514H250.741C250.546 191.514 250.359 191.436 250.222 191.298C250.084 191.161 250.006 190.974 250.006 190.779V189.31C250.006 189.115 250.084 188.928 250.222 188.79C250.359 188.652 250.546 188.575 250.741 188.575H261.026C261.221 188.575 261.408 188.652 261.546 188.79C261.684 188.928 261.761 189.115 261.761 189.31V190.779ZM258.088 189.31C257.942 189.31 257.8 189.353 257.68 189.434C257.559 189.514 257.465 189.629 257.409 189.763C257.353 189.897 257.339 190.045 257.367 190.188C257.395 190.33 257.465 190.461 257.568 190.564C257.671 190.667 257.802 190.737 257.944 190.765C258.087 190.793 258.235 190.779 258.369 190.723C258.503 190.667 258.618 190.573 258.699 190.453C258.779 190.332 258.822 190.19 258.822 190.044C258.822 189.85 258.745 189.663 258.607 189.525C258.469 189.387 258.283 189.31 258.088 189.31ZM253.68 189.31H251.476C251.281 189.31 251.094 189.387 250.956 189.525C250.818 189.663 250.741 189.85 250.741 190.044C250.741 190.239 250.818 190.426 250.956 190.564C251.094 190.702 251.281 190.779 251.476 190.779H253.68C253.875 190.779 254.061 190.702 254.199 190.564C254.337 190.426 254.414 190.239 254.414 190.044C254.414 189.85 254.337 189.663 254.199 189.525C254.061 189.387 253.875 189.31 253.68 189.31Z" fill="#4071DF"/>
<path d="M308.409 194.452C308.409 203.176 301.337 210.248 292.614 210.248C283.89 210.248 276.819 203.176 276.819 194.452C276.819 185.729 283.89 178.657 292.614 178.657C301.337 178.657 308.409 185.729 308.409 194.452Z" fill="#FAFAFA" stroke="#EAEAEA" stroke-width="0.73466"/>
<path d="M294.816 198.126C294.671 198.126 294.529 198.169 294.408 198.249C294.287 198.33 294.193 198.445 294.137 198.579C294.082 198.713 294.067 198.861 294.096 199.004C294.124 199.146 294.194 199.277 294.297 199.38C294.399 199.483 294.53 199.552 294.673 199.581C294.815 199.609 294.963 199.595 295.097 199.539C295.232 199.483 295.346 199.389 295.427 199.268C295.508 199.148 295.551 199.006 295.551 198.86C295.551 198.665 295.473 198.479 295.336 198.341C295.198 198.203 295.011 198.126 294.816 198.126ZM290.408 198.126H288.204C288.009 198.126 287.823 198.203 287.685 198.341C287.547 198.479 287.47 198.665 287.47 198.86C287.47 199.055 287.547 199.242 287.685 199.38C287.823 199.518 288.009 199.595 288.204 199.595H290.408C290.603 199.595 290.79 199.518 290.928 199.38C291.066 199.242 291.143 199.055 291.143 198.86C291.143 198.665 291.066 198.479 290.928 198.341C290.79 198.203 290.603 198.126 290.408 198.126ZM297.02 198.126C296.875 198.126 296.733 198.169 296.612 198.249C296.491 198.33 296.397 198.445 296.341 198.579C296.286 198.713 296.271 198.861 296.3 199.004C296.328 199.146 296.398 199.277 296.501 199.38C296.603 199.483 296.734 199.552 296.877 199.581C297.019 199.609 297.167 199.595 297.301 199.539C297.436 199.483 297.55 199.389 297.631 199.268C297.712 199.148 297.755 199.006 297.755 198.86C297.755 198.665 297.677 198.479 297.54 198.341C297.402 198.203 297.215 198.126 297.02 198.126ZM294.816 193.718C294.671 193.718 294.529 193.761 294.408 193.841C294.287 193.922 294.193 194.037 294.137 194.171C294.082 194.305 294.067 194.453 294.096 194.596C294.124 194.738 294.194 194.869 294.297 194.972C294.399 195.075 294.53 195.145 294.673 195.173C294.815 195.201 294.963 195.187 295.097 195.131C295.232 195.075 295.346 194.981 295.427 194.86C295.508 194.74 295.551 194.598 295.551 194.452C295.551 194.257 295.473 194.071 295.336 193.933C295.198 193.795 295.011 193.718 294.816 193.718ZM290.408 193.718H288.204C288.009 193.718 287.823 193.795 287.685 193.933C287.547 194.071 287.47 194.257 287.47 194.452C287.47 194.647 287.547 194.834 287.685 194.972C287.823 195.11 288.009 195.187 288.204 195.187H290.408C290.603 195.187 290.79 195.11 290.928 194.972C291.066 194.834 291.143 194.647 291.143 194.452C291.143 194.257 291.066 194.071 290.928 193.933C290.79 193.795 290.603 193.718 290.408 193.718ZM297.02 189.31C296.875 189.31 296.733 189.353 296.612 189.434C296.491 189.514 296.397 189.629 296.341 189.763C296.286 189.897 296.271 190.045 296.3 190.188C296.328 190.33 296.398 190.461 296.501 190.564C296.603 190.667 296.734 190.737 296.877 190.765C297.019 190.793 297.167 190.779 297.301 190.723C297.436 190.667 297.55 190.573 297.631 190.453C297.712 190.332 297.755 190.19 297.755 190.044C297.755 189.85 297.677 189.663 297.54 189.525C297.402 189.387 297.215 189.31 297.02 189.31ZM297.02 193.718C296.875 193.718 296.733 193.761 296.612 193.841C296.491 193.922 296.397 194.037 296.341 194.171C296.286 194.305 296.271 194.453 296.3 194.596C296.328 194.738 296.398 194.869 296.501 194.972C296.603 195.075 296.734 195.145 296.877 195.173C297.019 195.201 297.167 195.187 297.301 195.131C297.436 195.075 297.55 194.981 297.631 194.86C297.712 194.74 297.755 194.598 297.755 194.452C297.755 194.257 297.677 194.071 297.54 193.933C297.402 193.795 297.215 193.718 297.02 193.718ZM299.959 189.31C299.959 188.725 299.727 188.165 299.313 187.751C298.9 187.338 298.339 187.106 297.755 187.106H287.47C286.885 187.106 286.324 187.338 285.911 187.751C285.498 188.165 285.266 188.725 285.266 189.31V190.779C285.269 191.323 285.473 191.846 285.839 192.248C285.473 192.651 285.269 193.174 285.266 193.718V195.187C285.269 195.731 285.473 196.254 285.839 196.656C285.473 197.059 285.269 197.582 285.266 198.126V199.595C285.266 200.179 285.498 200.74 285.911 201.153C286.324 201.567 286.885 201.799 287.47 201.799H297.755C298.339 201.799 298.9 201.567 299.313 201.153C299.727 200.74 299.959 200.179 299.959 199.595V198.126C299.956 197.582 299.752 197.059 299.386 196.656C299.752 196.254 299.956 195.731 299.959 195.187V193.718C299.956 193.174 299.752 192.651 299.386 192.248C299.752 191.846 299.956 191.323 299.959 190.779V189.31ZM298.49 199.595C298.49 199.79 298.412 199.977 298.274 200.114C298.137 200.252 297.95 200.33 297.755 200.33H287.47C287.275 200.33 287.088 200.252 286.95 200.114C286.812 199.977 286.735 199.79 286.735 199.595V198.126C286.735 197.931 286.812 197.744 286.95 197.606C287.088 197.468 287.275 197.391 287.47 197.391H297.755C297.95 197.391 298.137 197.468 298.274 197.606C298.412 197.744 298.49 197.931 298.49 198.126V199.595ZM298.49 195.187C298.49 195.382 298.412 195.569 298.274 195.706C298.137 195.844 297.95 195.922 297.755 195.922H287.47C287.275 195.922 287.088 195.844 286.95 195.706C286.812 195.569 286.735 195.382 286.735 195.187V193.718C286.735 193.523 286.812 193.336 286.95 193.198C287.088 193.06 287.275 192.983 287.47 192.983H297.755C297.95 192.983 298.137 193.06 298.274 193.198C298.412 193.336 298.49 193.523 298.49 193.718V195.187ZM298.49 190.779C298.49 190.974 298.412 191.161 298.274 191.298C298.137 191.436 297.95 191.514 297.755 191.514H287.47C287.275 191.514 287.088 191.436 286.95 191.298C286.812 191.161 286.735 190.974 286.735 190.779V189.31C286.735 189.115 286.812 188.928 286.95 188.79C287.088 188.652 287.275 188.575 287.47 188.575H297.755C297.95 188.575 298.137 188.652 298.274 188.79C298.412 188.928 298.49 189.115 298.49 189.31V190.779ZM294.816 189.31C294.671 189.31 294.529 189.353 294.408 189.434C294.287 189.514 294.193 189.629 294.137 189.763C294.082 189.897 294.067 190.045 294.096 190.188C294.124 190.33 294.194 190.461 294.297 190.564C294.399 190.667 294.53 190.737 294.673 190.765C294.815 190.793 294.963 190.779 295.097 190.723C295.232 190.667 295.346 190.573 295.427 190.453C295.508 190.332 295.551 190.19 295.551 190.044C295.551 189.85 295.473 189.663 295.336 189.525C295.198 189.387 295.011 189.31 294.816 189.31ZM290.408 189.31H288.204C288.009 189.31 287.823 189.387 287.685 189.525C287.547 189.663 287.47 189.85 287.47 190.044C287.47 190.239 287.547 190.426 287.685 190.564C287.823 190.702 288.009 190.779 288.204 190.779H290.408C290.603 190.779 290.79 190.702 290.928 190.564C291.066 190.426 291.143 190.239 291.143 190.044C291.143 189.85 291.066 189.663 290.928 189.525C290.79 189.387 290.603 189.31 290.408 189.31Z" fill="#4071DF"/>
<g filter="url(#filter1_d_27_52712)">
<path d="M18.2598 13.3955H72.0592C81.6033 13.3955 89.3402 21.1325 89.3402 30.6765C89.3402 40.2206 81.6032 47.9575 72.0592 47.9575H18.2598V13.3955Z" fill="white"/>
<path d="M18.3715 13.5073H72.0592C81.5415 13.5073 89.2285 21.1942 89.2285 30.6765C89.2285 40.1589 81.5415 47.8458 72.0592 47.8458H18.3715V13.5073Z" stroke="#DCE0E0" stroke-width="0.223497"/>
</g>
<ellipse cx="16.955" cy="30.3505" rx="16.955" ry="16.955" fill="#4071DF"/>
<path d="M12.391 32.3068H15.1299C15.372 32.3068 15.6042 32.2107 15.7754 32.0394C15.9466 31.8682 16.0428 31.636 16.0428 31.3939C16.0428 31.1517 15.9466 30.9195 15.7754 30.7483C15.6042 30.5771 15.372 30.4809 15.1299 30.4809H12.391C12.1488 30.4809 11.9166 30.5771 11.7454 30.7483C11.5742 30.9195 11.478 31.1517 11.478 31.3939C11.478 31.636 11.5742 31.8682 11.7454 32.0394C11.9166 32.2107 12.1488 32.3068 12.391 32.3068ZM23.3465 23.1772H10.5651C9.83866 23.1772 9.14201 23.4658 8.62837 23.9794C8.11473 24.4931 7.82617 25.1897 7.82617 25.9161V34.1328C7.82617 34.8592 8.11473 35.5558 8.62837 36.0694C9.14201 36.5831 9.83866 36.8716 10.5651 36.8716H23.3465C24.0729 36.8716 24.7695 36.5831 25.2832 36.0694C25.7968 35.5558 26.0854 34.8592 26.0854 34.1328V25.9161C26.0854 25.1897 25.7968 24.4931 25.2832 23.9794C24.7695 23.4658 24.0729 23.1772 23.3465 23.1772ZM24.2594 34.1328C24.2594 34.3749 24.1633 34.6071 23.9921 34.7783C23.8208 34.9495 23.5886 35.0457 23.3465 35.0457H10.5651C10.3229 35.0457 10.0907 34.9495 9.91949 34.7783C9.74828 34.6071 9.65209 34.3749 9.65209 34.1328V28.655H24.2594V34.1328ZM24.2594 26.8291H9.65209V25.9161C9.65209 25.674 9.74828 25.4418 9.91949 25.2706C10.0907 25.0994 10.3229 25.0032 10.5651 25.0032H23.3465C23.5886 25.0032 23.8208 25.0994 23.9921 25.2706C24.1633 25.4418 24.2594 25.674 24.2594 25.9161V26.8291Z" fill="white"/>
<path d="M46.6794 34.0208C44.4491 34.0208 42.3102 32.521 42.3102 29.3517C42.3102 26.1824 44.4622 24.6826 46.6794 24.6826C48.5705 24.6826 50.0051 25.7651 50.4355 27.4867L49.5747 27.6823C49.2617 26.2868 48.2183 25.4912 46.6794 25.4912C44.6578 25.4912 43.2231 26.8606 43.2231 29.3517C43.2231 31.8428 44.6578 33.2122 46.6794 33.2122C48.2183 33.2122 49.2096 32.4297 49.5747 31.0602L50.4355 31.2298C49.966 32.9253 48.5835 34.0208 46.6794 34.0208ZM53.9058 27.2389C55.4317 27.2389 56.5012 28.1909 56.5012 29.5865V33.9165H55.6795V32.7166C55.2883 33.5122 54.3884 34.0208 53.358 34.0208C52.0277 34.0208 51.1278 33.2383 51.1278 32.0906C51.1278 30.8255 52.1842 30.1473 54.3623 29.9256L55.6795 29.7951V29.6126C55.6795 28.6213 54.9622 27.9953 53.9058 27.9953C52.9015 27.9953 52.2103 28.5822 52.0929 29.5473L51.2973 29.3908C51.493 28.0996 52.5364 27.2389 53.9058 27.2389ZM53.4232 33.2644C54.8448 33.2644 55.6795 32.3906 55.6795 30.8777V30.4864L54.3884 30.6168C52.7972 30.7864 51.9886 31.282 51.9886 32.0906C51.9886 32.7949 52.5885 33.2644 53.4232 33.2644ZM61.6565 28.1518C61.3956 28.0475 61.0957 27.9953 60.7957 27.9953C59.7001 27.9953 58.8393 29.13 58.8393 31.3733V33.9165H58.0177V27.3432H58.8393V28.7387C59.2437 27.8649 60.1175 27.2389 60.9261 27.2389C61.213 27.2389 61.4739 27.278 61.7086 27.3562L61.6565 28.1518ZM64.9393 34.0208C62.8525 34.0208 61.7439 32.5079 61.7439 30.6298C61.7439 28.7518 62.8525 27.2389 64.9393 27.2389C65.8392 27.2389 66.7913 27.7214 67.2217 28.3996V24.6826H68.0433V33.9165H67.2217V32.8601C66.9347 33.4992 65.9826 34.0208 64.9393 34.0208ZM64.9653 33.2644C66.387 33.2644 67.313 32.221 67.313 30.6298C67.313 29.0387 66.387 27.9953 64.9653 27.9953C63.5437 27.9953 62.6177 29.0387 62.6177 30.6298C62.6177 32.221 63.5437 33.2644 64.9653 33.2644Z" fill="black"/>
<g filter="url(#filter2_d_27_52712)">
<path d="M18.2598 74.6941H72.0592C81.6033 74.6941 89.3402 82.4311 89.3402 91.9751C89.3402 101.519 81.6032 109.256 72.0592 109.256H18.2598V74.6941Z" fill="white"/>
<path d="M18.3715 74.8058H72.0592C81.5415 74.8058 89.2285 82.4928 89.2285 91.9751C89.2285 101.457 81.5415 109.144 72.0592 109.144H18.3715V74.8058Z" stroke="#DCE0E0" stroke-width="0.223497"/>
</g>
<ellipse cx="16.955" cy="91.6491" rx="16.955" ry="16.955" fill="#4071DF"/>
<path d="M23.8029 88.8231C23.9028 88.8231 24.0017 88.8034 24.094 88.7652C24.1863 88.727 24.2702 88.671 24.3409 88.6003C24.4115 88.5297 24.4676 88.4458 24.5058 88.3535C24.544 88.2611 24.5637 88.1622 24.5637 88.0623V85.7799C24.5637 85.6203 24.5135 85.4646 24.4202 85.3352C24.3268 85.2057 24.1951 85.1089 24.0436 85.0585L17.1964 82.7761C17.0401 82.7241 16.8712 82.7241 16.7149 82.7761L9.86773 85.0585C9.71626 85.1089 9.5845 85.2057 9.49115 85.3352C9.3978 85.4646 9.34759 85.6203 9.34766 85.7799V88.0623C9.34763 88.1622 9.36729 88.2611 9.40552 88.3535C9.44374 88.4458 9.49978 88.5297 9.57043 88.6003C9.64108 88.671 9.72496 88.727 9.81728 88.7652C9.9096 88.8034 10.0085 88.8231 10.1085 88.8231H10.8693V94.2889C10.4255 94.4452 10.041 94.735 9.76858 95.1186C9.49614 95.5021 9.3491 95.9606 9.34766 96.4311V97.9527C9.34763 98.0526 9.36729 98.1515 9.40552 98.2439C9.44374 98.3362 9.49978 98.4201 9.57043 98.4907C9.64108 98.5614 9.72496 98.6174 9.81728 98.6556C9.9096 98.6938 10.0085 98.7135 10.1085 98.7135H23.8029C23.9028 98.7135 24.0017 98.6938 24.094 98.6556C24.1863 98.6174 24.2702 98.5614 24.3409 98.4907C24.4115 98.4201 24.4676 98.3362 24.5058 98.2439C24.544 98.1515 24.5637 98.0526 24.5637 97.9527V96.4311C24.5622 95.9606 24.4152 95.5021 24.1427 95.1186C23.8703 94.735 23.4858 94.4452 23.0421 94.2889V88.8231H23.8029ZM23.0421 97.1919H10.8693V96.4311C10.8695 96.2294 10.9497 96.036 11.0923 95.8933C11.2349 95.7507 11.4283 95.6705 11.6301 95.6703H22.2813C22.483 95.6705 22.6764 95.7507 22.819 95.8933C22.9616 96.036 23.0419 96.2294 23.0421 96.4311V97.1919ZM12.3909 94.1487V88.8231H13.9125V94.1487H12.3909ZM15.4341 94.1487V88.8231H18.4773V94.1487H15.4341ZM19.9989 94.1487V88.8231H21.5205V94.1487H19.9989ZM10.8693 87.3015V86.3282L16.9557 84.2991L23.0421 86.3282V87.3015H10.8693Z" fill="white"/>
<path d="M42.7275 95.2153V86.0857H45.8968C47.6445 86.0857 48.6487 86.9596 48.6487 88.4333C48.6487 89.2811 48.0357 89.9593 47.3967 90.2201C48.3618 90.5332 49.04 91.2766 49.04 92.5808C49.04 94.185 47.9966 95.2153 46.1316 95.2153H42.7275ZM43.6014 89.9463H45.8968C47.0706 89.9463 47.7358 89.4506 47.7358 88.4203C47.7358 87.39 47.0706 86.8944 45.9099 86.8944H43.6014V89.9463ZM43.6014 94.4067H45.9359C47.3576 94.4067 48.114 93.7676 48.114 92.5808C48.114 91.3939 47.3576 90.7549 45.9359 90.7549H43.6014V94.4067ZM52.5812 88.5377C54.1071 88.5377 55.1766 89.4898 55.1766 90.8853V95.2153H54.3549V94.0154C53.9637 94.811 53.0638 95.3197 52.0334 95.3197C50.7031 95.3197 49.8032 94.5371 49.8032 93.3894C49.8032 92.1243 50.8596 91.4461 53.0377 91.2244L54.3549 91.094V90.9114C54.3549 89.9202 53.6376 89.2941 52.5812 89.2941C51.5769 89.2941 50.8857 89.881 50.7683 90.8462L49.9727 90.6897C50.1684 89.3985 51.2117 88.5377 52.5812 88.5377ZM52.0986 94.5632C53.5202 94.5632 54.3549 93.6894 54.3549 92.1765V91.7852L53.0638 91.9156C51.4726 92.0852 50.664 92.5808 50.664 93.3894C50.664 94.0937 51.2639 94.5632 52.0986 94.5632ZM56.6931 95.2153V88.642H57.5147V90.0115C57.9973 89.1507 58.819 88.5377 59.8623 88.5377C61.2057 88.5377 62.1839 89.4506 62.1839 90.8331V95.2153H61.3622V90.9375C61.3622 89.9854 60.7623 89.2941 59.745 89.2941C58.4147 89.2941 57.5147 90.4679 57.5147 92.333V95.2153H56.6931ZM68.1883 95.2153L65.4625 91.7983L64.5365 92.633V95.2153H63.7018V85.9814H64.5365V91.5113L67.8753 88.642H69.023L66.1146 91.2244L69.2578 95.2153H68.1883Z" fill="black"/>
<g filter="url(#filter3_d_27_52712)">
<path d="M19.5625 197.292H115.749C125.293 197.292 133.03 205.028 133.03 214.573C133.03 224.117 125.293 231.854 115.749 231.854H19.5625V197.292Z" fill="white"/>
<path d="M19.6742 197.403H115.749C125.232 197.403 132.919 205.09 132.919 214.573C132.919 224.055 125.232 231.742 115.749 231.742H19.6742V197.403Z" stroke="#DCE0E0" stroke-width="0.223497"/>
</g>
<ellipse cx="18.2587" cy="214.246" rx="16.955" ry="16.955" fill="#4071DF"/>
<path d="M44.0303 217.813V208.683H49.5993V209.492H44.9041V212.544H48.7516V213.352H44.9041V217.004H49.7428V217.813H44.0303ZM50.898 217.813V211.239H51.7196V212.609C52.2022 211.748 53.0238 211.135 54.0672 211.135C55.4106 211.135 56.3888 212.048 56.3888 213.431V217.813H55.5671V213.535C55.5671 212.583 54.9671 211.892 53.9498 211.892C52.6195 211.892 51.7196 213.065 51.7196 214.93V217.813H50.898ZM60.7368 217.917C58.7805 217.917 57.5154 216.574 57.5154 214.526C57.5154 212.478 58.7805 211.135 60.7368 211.135C62.1715 211.135 63.254 211.957 63.5018 213.196L62.6932 213.365C62.5236 212.518 61.7672 211.892 60.7368 211.892C59.3022 211.892 58.3762 212.935 58.3762 214.526C58.3762 216.117 59.3022 217.161 60.7368 217.161C61.7672 217.161 62.5236 216.613 62.7193 215.635L63.5279 215.791C63.2279 217.148 62.1715 217.917 60.7368 217.917ZM68.223 212.048C67.9621 211.944 67.6622 211.892 67.3622 211.892C66.2667 211.892 65.4059 213.026 65.4059 215.269V217.813H64.5842V211.239H65.4059V212.635C65.8102 211.761 66.684 211.135 67.4926 211.135C67.7796 211.135 68.0404 211.174 68.2752 211.252L68.223 212.048ZM73.389 211.239H74.2237L70.7805 220.186H69.9458L70.8588 217.813L68.2764 211.239H69.1633L71.2892 216.704L73.389 211.239ZM74.9844 220.186V211.239H75.8061V212.296C76.1452 211.657 77.0972 211.135 78.0885 211.135C80.1883 211.135 81.2838 212.648 81.2838 214.526C81.2838 216.404 80.1883 217.917 78.1015 217.917C77.2277 217.917 76.2756 217.435 75.8061 216.756V220.186H74.9844ZM78.0624 217.161C79.497 217.161 80.423 216.117 80.423 214.526C80.423 212.935 79.497 211.892 78.0624 211.892C76.6538 211.892 75.7278 212.935 75.7278 214.526C75.7278 216.117 76.6538 217.161 78.0624 217.161ZM85.6106 217.774C85.2976 217.878 84.9454 217.917 84.6063 217.917C83.589 217.917 82.8587 217.33 82.8587 215.948V211.996H81.5805V211.239H82.8587V209.218H83.6803V211.239H85.4932V211.996H83.6803V216.078C83.6803 216.822 84.0977 217.161 84.7107 217.161C84.9846 217.161 85.2845 217.122 85.5584 216.978L85.6106 217.774ZM86.516 208.579H87.5333V209.831H86.516V208.579ZM86.6073 217.813V211.239H87.429V217.813H86.6073ZM91.8501 217.917C89.9198 217.917 88.5504 216.509 88.5504 214.526C88.5504 212.544 89.9198 211.135 91.8501 211.135C93.7673 211.135 95.1498 212.544 95.1498 214.526C95.1498 216.509 93.7673 217.917 91.8501 217.917ZM91.8501 217.161C93.2978 217.161 94.289 216.065 94.289 214.526C94.289 212.987 93.2978 211.892 91.8501 211.892C90.3894 211.892 89.4112 212.987 89.4112 214.526C89.4112 216.065 90.3894 217.161 91.8501 217.161ZM96.2688 217.813V211.239H97.0905V212.609C97.573 211.748 98.3947 211.135 99.4381 211.135C100.781 211.135 101.76 212.048 101.76 213.431V217.813H100.938V213.535C100.938 212.583 100.338 211.892 99.3207 211.892C97.9904 211.892 97.0905 213.065 97.0905 214.93V217.813H96.2688Z" fill="black"/>
<path d="M15.9468 216.787C15.9468 217.273 15.5529 217.666 15.0672 217.666C14.5814 217.666 14.1876 217.273 14.1876 216.787C14.1876 216.301 14.5814 215.907 15.0672 215.907C15.5529 215.907 15.9468 216.301 15.9468 216.787Z" fill="white"/>
<path d="M19.4651 216.787C19.4651 217.273 19.0713 217.666 18.5855 217.666C18.0998 217.666 17.7059 217.273 17.7059 216.787C17.7059 216.301 18.0998 215.907 18.5855 215.907C19.0713 215.907 19.4651 216.301 19.4651 216.787Z" fill="white"/>
<path d="M22.1039 217.666C22.5897 217.666 22.9835 217.273 22.9835 216.787C22.9835 216.301 22.5897 215.907 22.1039 215.907C21.6181 215.907 21.2243 216.301 21.2243 216.787C21.2243 217.273 21.6181 217.666 22.1039 217.666Z" fill="white"/>
<path fill-rule="evenodd" clip-rule="evenodd" d="M12.6483 209.75V210.896C12.4487 210.91 12.2607 210.928 12.0838 210.952C11.2921 211.058 10.6254 211.286 10.096 211.816C9.56654 212.345 9.33882 213.012 9.23238 213.803C9.12985 214.566 9.12987 215.536 9.12988 216.738V216.835C9.12987 218.038 9.12985 219.008 9.23238 219.77C9.33882 220.562 9.56654 221.228 10.096 221.758C10.6254 222.287 11.2921 222.515 12.0838 222.622C12.8464 222.724 13.816 222.724 15.0189 222.724H22.1522C23.3551 222.724 24.3247 222.724 25.0873 222.622C25.879 222.515 26.5456 222.287 27.0751 221.758C27.6045 221.228 27.8323 220.562 27.9387 219.77C28.0412 219.008 28.0412 218.038 28.0412 216.835V216.739C28.0412 215.536 28.0412 214.566 27.9387 213.803C27.8323 213.012 27.6045 212.345 27.0751 211.816C26.5456 211.286 25.879 211.058 25.0873 210.952C24.9104 210.928 24.7223 210.91 24.5228 210.896V209.75C24.5228 206.471 21.8646 203.813 18.5855 203.813C15.3065 203.813 12.6483 206.471 12.6483 209.75ZM18.5855 205.132C16.0352 205.132 13.9677 207.2 13.9677 209.75V210.853C14.2962 210.849 14.6463 210.85 15.0188 210.85H22.1522C22.5247 210.85 22.8749 210.849 23.2034 210.853V209.75C23.2034 207.2 21.1359 205.132 18.5855 205.132ZM12.2596 212.26C11.6142 212.346 11.2724 212.505 11.0289 212.749C10.7855 212.992 10.6268 213.334 10.54 213.979C10.4507 214.644 10.4493 215.524 10.4493 216.787C10.4493 218.049 10.4507 218.93 10.54 219.594C10.6268 220.24 10.7855 220.582 11.0289 220.825C11.2724 221.068 11.6142 221.227 12.2596 221.314C12.924 221.403 13.8046 221.405 15.0672 221.405H22.1039C23.3665 221.405 24.2471 221.403 24.9115 221.314C25.5569 221.227 25.8987 221.068 26.1421 220.825C26.3856 220.582 26.5443 220.24 26.6311 219.594C26.7204 218.93 26.7218 218.049 26.7218 216.787C26.7218 215.524 26.7204 214.644 26.6311 213.979C26.5443 213.334 26.3856 212.992 26.1421 212.749C25.8987 212.505 25.5569 212.346 24.9115 212.26C24.2471 212.17 23.3665 212.169 22.1039 212.169H15.0672C13.8046 212.169 12.924 212.17 12.2596 212.26Z" fill="white"/>
<path d="M15.9468 216.787C15.9468 217.273 15.5529 217.666 15.0672 217.666C14.5814 217.666 14.1876 217.273 14.1876 216.787C14.1876 216.301 14.5814 215.907 15.0672 215.907C15.5529 215.907 15.9468 216.301 15.9468 216.787Z" stroke="white" stroke-width="0.600359"/>
<path d="M19.4651 216.787C19.4651 217.273 19.0713 217.666 18.5855 217.666C18.0998 217.666 17.7059 217.273 17.7059 216.787C17.7059 216.301 18.0998 215.907 18.5855 215.907C19.0713 215.907 19.4651 216.301 19.4651 216.787Z" stroke="white" stroke-width="0.600359"/>
<path d="M22.1039 217.666C22.5897 217.666 22.9835 217.273 22.9835 216.787C22.9835 216.301 22.5897 215.907 22.1039 215.907C21.6181 215.907 21.2243 216.301 21.2243 216.787C21.2243 217.273 21.6181 217.666 22.1039 217.666Z" stroke="white" stroke-width="0.600359"/>
<path fill-rule="evenodd" clip-rule="evenodd" d="M12.6483 209.75V210.896C12.4487 210.91 12.2607 210.928 12.0838 210.952C11.2921 211.058 10.6254 211.286 10.096 211.816C9.56654 212.345 9.33882 213.012 9.23238 213.803C9.12985 214.566 9.12987 215.536 9.12988 216.738V216.835C9.12987 218.038 9.12985 219.008 9.23238 219.77C9.33882 220.562 9.56654 221.228 10.096 221.758C10.6254 222.287 11.2921 222.515 12.0838 222.622C12.8464 222.724 13.816 222.724 15.0189 222.724H22.1522C23.3551 222.724 24.3247 222.724 25.0873 222.622C25.879 222.515 26.5456 222.287 27.0751 221.758C27.6045 221.228 27.8323 220.562 27.9387 219.77C28.0412 219.008 28.0412 218.038 28.0412 216.835V216.739C28.0412 215.536 28.0412 214.566 27.9387 213.803C27.8323 213.012 27.6045 212.345 27.0751 211.816C26.5456 211.286 25.879 211.058 25.0873 210.952C24.9104 210.928 24.7223 210.91 24.5228 210.896V209.75C24.5228 206.471 21.8646 203.813 18.5855 203.813C15.3065 203.813 12.6483 206.471 12.6483 209.75ZM18.5855 205.132C16.0352 205.132 13.9677 207.2 13.9677 209.75V210.853C14.2962 210.849 14.6463 210.85 15.0188 210.85H22.1522C22.5247 210.85 22.8749 210.849 23.2034 210.853V209.75C23.2034 207.2 21.1359 205.132 18.5855 205.132ZM12.2596 212.26C11.6142 212.346 11.2724 212.505 11.0289 212.749C10.7855 212.992 10.6268 213.334 10.54 213.979C10.4507 214.644 10.4493 215.524 10.4493 216.787C10.4493 218.049 10.4507 218.93 10.54 219.594C10.6268 220.24 10.7855 220.582 11.0289 220.825C11.2724 221.068 11.6142 221.227 12.2596 221.314C12.924 221.403 13.8046 221.405 15.0672 221.405H22.1039C23.3665 221.405 24.2471 221.403 24.9115 221.314C25.5569 221.227 25.8987 221.068 26.1421 220.825C26.3856 220.582 26.5443 220.24 26.6311 219.594C26.7204 218.93 26.7218 218.049 26.7218 216.787C26.7218 215.524 26.7204 214.644 26.6311 213.979C26.5443 213.334 26.3856 212.992 26.1421 212.749C25.8987 212.505 25.5569 212.346 24.9115 212.26C24.2471 212.17 23.3665 212.169 22.1039 212.169H15.0672C13.8046 212.169 12.924 212.17 12.2596 212.26Z" stroke="white" stroke-width="0.600359"/>
<g filter="url(#filter4_d_27_52712)">
<path d="M19.5625 135.993H104.011C113.555 135.993 121.292 143.73 121.292 153.274C121.292 162.818 113.555 170.555 104.011 170.555H19.5625V135.993Z" fill="white"/>
<path d="M19.6742 136.105H104.011C113.494 136.105 121.181 143.792 121.181 153.274C121.181 162.756 113.494 170.443 104.011 170.443H19.6742V136.105Z" stroke="#DCE0E0" stroke-width="0.223497"/>
</g>
<ellipse cx="18.2587" cy="152.948" rx="16.955" ry="16.955" fill="#4071DF"/>
<path d="M20.0954 151.868H19.0143V146.831H19.3747C20.0437 146.831 20.6853 147.097 21.1584 147.569C21.6315 148.041 21.8973 148.682 21.8973 149.35C21.8973 149.636 22.0112 149.911 22.214 150.113C22.4167 150.316 22.6917 150.429 22.9784 150.429C23.2652 150.429 23.5402 150.316 23.7429 150.113C23.9457 149.911 24.0596 149.636 24.0596 149.35C24.0581 148.11 23.5641 146.921 22.6858 146.044C21.8075 145.167 20.6167 144.674 19.3747 144.673H19.0143V143.593C19.0143 143.307 18.9004 143.032 18.6976 142.83C18.4949 142.628 18.2199 142.514 17.9331 142.514C17.6464 142.514 17.3714 142.628 17.1687 142.83C16.9659 143.032 16.852 143.307 16.852 143.593V144.673H16.4916C15.2491 144.673 14.0575 145.165 13.1789 146.043C12.3003 146.92 11.8067 148.109 11.8067 149.35C11.8067 150.59 12.3003 151.78 13.1789 152.657C14.0575 153.534 15.2491 154.027 16.4916 154.027H16.852V159.064H15.7709C15.1018 159.064 14.4602 158.799 13.9871 158.326C13.514 157.854 13.2482 157.214 13.2482 156.546C13.2482 156.259 13.1343 155.985 12.9316 155.782C12.7288 155.58 12.4538 155.466 12.1671 155.466C11.8803 155.466 11.6053 155.58 11.4026 155.782C11.1998 155.985 11.0859 156.259 11.0859 156.546C11.0874 157.786 11.5814 158.974 12.4597 159.851C13.338 160.728 14.5288 161.221 15.7709 161.223H16.852V162.302C16.852 162.588 16.9659 162.863 17.1687 163.065C17.3714 163.268 17.6464 163.382 17.9331 163.382C18.2199 163.382 18.4949 163.268 18.6976 163.065C18.9004 162.863 19.0143 162.588 19.0143 162.302V161.223H20.0954C21.3379 161.223 22.5296 160.73 23.4082 159.853C24.2867 158.976 24.7803 157.786 24.7803 156.546C24.7803 155.305 24.2867 154.115 23.4082 153.238C22.5296 152.361 21.3379 151.868 20.0954 151.868ZM16.4916 151.868C15.8226 151.868 15.1809 151.603 14.7078 151.131C14.2347 150.658 13.969 150.018 13.969 149.35C13.969 148.682 14.2347 148.041 14.7078 147.569C15.1809 147.097 15.8226 146.831 16.4916 146.831H16.852V151.868H16.4916ZM20.0954 159.064H19.0143V154.027H20.0954C20.7645 154.027 21.4061 154.292 21.8792 154.765C22.3523 155.237 22.6181 155.878 22.6181 156.546C22.6181 157.214 22.3523 157.854 21.8792 158.326C21.4061 158.799 20.7645 159.064 20.0954 159.064Z" fill="white"/>
<path d="M47.9821 156.618C45.7519 156.618 43.6129 155.118 43.6129 151.949C43.6129 148.78 45.7649 147.28 47.9821 147.28C49.8732 147.28 51.3079 148.362 51.7383 150.084L50.8775 150.28C50.5645 148.884 49.5211 148.089 47.9821 148.089C45.9605 148.089 44.5259 149.458 44.5259 151.949C44.5259 154.44 45.9605 155.81 47.9821 155.81C49.5211 155.81 50.5123 155.027 50.8775 153.658L51.7383 153.827C51.2687 155.523 49.8863 156.618 47.9821 156.618ZM58.2865 149.941V156.514H57.4648V155.144C56.9823 156.005 56.1606 156.618 55.1172 156.618C53.7739 156.618 52.7957 155.705 52.7957 154.323V149.941H53.6174V154.218C53.6174 155.171 54.2173 155.862 55.2346 155.862C56.5649 155.862 57.4648 154.688 57.4648 152.823V149.941H58.2865ZM63.4432 150.749C63.1824 150.645 62.8824 150.593 62.5824 150.593C61.4869 150.593 60.6261 151.727 60.6261 153.971V156.514H59.8044V149.941H60.6261V151.336C61.0304 150.462 61.9042 149.836 62.7128 149.836C62.9998 149.836 63.2606 149.875 63.4954 149.954L63.4432 150.749ZM67.8918 150.749C67.631 150.645 67.331 150.593 67.0311 150.593C65.9355 150.593 65.0747 151.727 65.0747 153.971V156.514H64.253V149.941H65.0747V151.336C65.479 150.462 66.3529 149.836 67.1615 149.836C67.4484 149.836 67.7092 149.875 67.944 149.954L67.8918 150.749ZM74.1874 152.875C74.1874 152.993 74.1743 153.214 74.1613 153.306H68.814C68.827 154.831 69.7791 155.862 71.1094 155.862C72.231 155.862 73.0136 155.34 73.2092 154.414L73.9918 154.571C73.6918 155.875 72.6223 156.618 71.1225 156.618C69.2574 156.618 67.9793 155.184 67.9793 153.227C67.9793 151.271 69.2574 149.836 71.1225 149.836C72.9223 149.836 74.1874 151.101 74.1874 152.875ZM68.8792 152.549H73.3396C73.2092 151.414 72.4136 150.593 71.1225 150.593C69.9617 150.593 69.1139 151.336 68.8792 152.549ZM75.3028 156.514V149.941H76.1245V151.31C76.607 150.449 77.4287 149.836 78.4721 149.836C79.8154 149.836 80.7936 150.749 80.7936 152.132V156.514H79.9719V152.236C79.9719 151.284 79.372 150.593 78.3547 150.593C77.0244 150.593 76.1245 151.767 76.1245 153.632V156.514H75.3028ZM85.1417 156.618C83.1853 156.618 81.9202 155.275 81.9202 153.227C81.9202 151.18 83.1853 149.836 85.1417 149.836C86.5763 149.836 87.6588 150.658 87.9066 151.897L87.098 152.066C86.9285 151.219 86.172 150.593 85.1417 150.593C83.707 150.593 82.781 151.636 82.781 153.227C82.781 154.818 83.707 155.862 85.1417 155.862C86.172 155.862 86.9285 155.314 87.1241 154.336L87.9327 154.492C87.6328 155.849 86.5763 156.618 85.1417 156.618ZM93.1541 149.941H93.9888L90.5457 158.888H89.711L90.6239 156.514L88.0416 149.941H88.9284L91.0543 155.405L93.1541 149.941Z" fill="black"/>
<defs>
<filter id="filter0_d_27_52712" x="163.013" y="3.09984" width="222.216" height="244.522" filterUnits="userSpaceOnUse" color-interpolation-filters="sRGB">
<feFlood flood-opacity="0" result="BackgroundImageFix"/>
<feColorMatrix in="SourceAlpha" type="matrix" values="0 0 0 0 0 0 0 0 0 0 0 0 0 0 0 0 0 0 127 0" result="hardAlpha"/>
<feOffset dy="2.57392"/>
<feGaussianBlur stdDeviation="6.43479"/>
<feComposite in2="hardAlpha" operator="out"/>
<feColorMatrix type="matrix" values="0 0 0 0 0 0 0 0 0 0 0 0 0 0 0 0 0 0 0.04 0"/>
<feBlend mode="normal" in2="BackgroundImageFix" result="effect1_dropShadow_27_52712"/>
<feBlend mode="normal" in="SourceGraphic" in2="effect1_dropShadow_27_52712" result="shape"/>
</filter>
<filter id="filter1_d_27_52712" x="5.39018" y="0.525927" width="96.8192" height="60.3012" filterUnits="userSpaceOnUse" color-interpolation-filters="sRGB">
<feFlood flood-opacity="0" result="BackgroundImageFix"/>
<feColorMatrix in="SourceAlpha" type="matrix" values="0 0 0 0 0 0 0 0 0 0 0 0 0 0 0 0 0 0 127 0" result="hardAlpha"/>
<feOffset/>
<feGaussianBlur stdDeviation="6.43479"/>
<feComposite in2="hardAlpha" operator="out"/>
<feColorMatrix type="matrix" values="0 0 0 0 0 0 0 0 0 0 0 0 0 0 0 0 0 0 0.05 0"/>
<feBlend mode="normal" in2="BackgroundImageFix" result="effect1_dropShadow_27_52712"/>
<feBlend mode="normal" in="SourceGraphic" in2="effect1_dropShadow_27_52712" result="shape"/>
</filter>
<filter id="filter2_d_27_52712" x="5.39018" y="61.8245" width="96.8192" height="60.3012" filterUnits="userSpaceOnUse" color-interpolation-filters="sRGB">
<feFlood flood-opacity="0" result="BackgroundImageFix"/>
<feColorMatrix in="SourceAlpha" type="matrix" values="0 0 0 0 0 0 0 0 0 0 0 0 0 0 0 0 0 0 127 0" result="hardAlpha"/>
<feOffset/>
<feGaussianBlur stdDeviation="6.43479"/>
<feComposite in2="hardAlpha" operator="out"/>
<feColorMatrix type="matrix" values="0 0 0 0 0 0 0 0 0 0 0 0 0 0 0 0 0 0 0.05 0"/>
<feBlend mode="normal" in2="BackgroundImageFix" result="effect1_dropShadow_27_52712"/>
<feBlend mode="normal" in="SourceGraphic" in2="effect1_dropShadow_27_52712" result="shape"/>
</filter>
<filter id="filter3_d_27_52712" x="6.69292" y="184.422" width="139.208" height="60.3012" filterUnits="userSpaceOnUse" color-interpolation-filters="sRGB">
<feFlood flood-opacity="0" result="BackgroundImageFix"/>
<feColorMatrix in="SourceAlpha" type="matrix" values="0 0 0 0 0 0 0 0 0 0 0 0 0 0 0 0 0 0 127 0" result="hardAlpha"/>
<feOffset/>
<feGaussianBlur stdDeviation="6.43479"/>
<feComposite in2="hardAlpha" operator="out"/>
<feColorMatrix type="matrix" values="0 0 0 0 0 0 0 0 0 0 0 0 0 0 0 0 0 0 0.05 0"/>
<feBlend mode="normal" in2="BackgroundImageFix" result="effect1_dropShadow_27_52712"/>
<feBlend mode="normal" in="SourceGraphic" in2="effect1_dropShadow_27_52712" result="shape"/>
</filter>
<filter id="filter4_d_27_52712" x="6.69292" y="123.123" width="127.47" height="60.3012" filterUnits="userSpaceOnUse" color-interpolation-filters="sRGB">
<feFlood flood-opacity="0" result="BackgroundImageFix"/>
<feColorMatrix in="SourceAlpha" type="matrix" values="0 0 0 0 0 0 0 0 0 0 0 0 0 0 0 0 0 0 127 0" result="hardAlpha"/>
<feOffset/>
<feGaussianBlur stdDeviation="6.43479"/>
<feComposite in2="hardAlpha" operator="out"/>
<feColorMatrix type="matrix" values="0 0 0 0 0 0 0 0 0 0 0 0 0 0 0 0 0 0 0.05 0"/>
<feBlend mode="normal" in2="BackgroundImageFix" result="effect1_dropShadow_27_52712"/>
<feBlend mode="normal" in="SourceGraphic" in2="effect1_dropShadow_27_52712" result="shape"/>
</filter>
</defs>
</svg>
