<svg width="434" height="251" viewBox="0 0 434 251" fill="none" xmlns="http://www.w3.org/2000/svg">
<g filter="url(#filter0_d_27_52615)">
<circle cx="82.311" cy="141.102" r="39.4126" fill="white"/>
<circle cx="82.311" cy="141.102" r="38.9126" stroke="#F0F3F5"/>
</g>
<ellipse cx="82.1992" cy="127.342" rx="19.1035" ry="8.18723" stroke="#4071DF" stroke-width="3.34312"/>
<path d="M63.0957 143.717C63.0957 143.717 63.0957 150.111 63.0957 154.633C63.0957 159.155 71.6486 162.82 82.1992 162.82C92.7498 162.82 101.303 159.155 101.303 154.633C101.303 152.376 101.303 143.717 101.303 143.717" stroke="#4071DF" stroke-width="3.34312" stroke-linecap="square"/>
<path d="M63.0957 127.342C63.0957 127.342 63.0957 136.466 63.0957 140.988C63.0957 145.509 71.6486 149.175 82.1992 149.175C92.7498 149.175 101.303 145.509 101.303 140.988C101.303 138.731 101.303 127.342 101.303 127.342" stroke="#4071DF" stroke-width="3.34312"/>
<g filter="url(#filter1_d_27_52615)">
<circle cx="120.162" cy="168.155" r="17.0098" fill="white"/>
<circle cx="120.162" cy="168.155" r="16.7438" stroke="#EAEAEA" stroke-width="0.532055"/>
</g>
<path fill-rule="evenodd" clip-rule="evenodd" d="M125.677 164.218C125.677 161.173 123.209 158.705 120.165 158.705C117.12 158.705 114.652 161.173 114.652 164.218V168.943H116.227V164.218C116.227 162.043 117.99 160.28 120.165 160.28C122.339 160.28 124.102 162.043 124.102 164.218V168.943H125.677L125.677 164.218Z" fill="#484848"/>
<path fill-rule="evenodd" clip-rule="evenodd" d="M112.289 168.16V176.025C112.289 176.898 112.997 177.605 113.857 177.605H126.471C127.337 177.605 128.039 176.899 128.039 176.025V168.16C128.039 167.287 127.332 166.58 126.471 166.58H113.857C112.991 166.58 112.289 167.286 112.289 168.16Z" fill="#484848"/>
<g filter="url(#filter2_d_27_52615)">
<circle cx="315.088" cy="141.102" r="39.4126" fill="white"/>
<circle cx="315.088" cy="141.102" r="38.9126" stroke="#F0F3F5"/>
</g>
<path d="M295.675 132.408H329.997L326.811 135.594C326.118 136.288 326.118 137.413 326.811 138.106C327.505 138.8 328.629 138.8 329.323 138.106L335.536 131.893C335.869 131.56 336.057 131.108 336.057 130.637C336.057 130.166 335.869 129.715 335.536 129.382L329.323 123.169C328.629 122.475 327.505 122.475 326.811 123.169C326.118 123.862 326.118 124.986 326.811 125.681L329.997 128.858H295.675C294.695 128.858 293.9 129.653 293.9 130.633C293.9 131.614 294.695 132.408 295.675 132.408Z" fill="#4071DF"/>
<path d="M334.801 149.331H300.408L303.585 146.153V146.153C304.279 145.459 304.279 144.335 303.585 143.641C302.892 142.948 301.767 142.948 301.073 143.641L294.861 149.854C294.527 150.187 294.34 150.639 294.34 151.11C294.34 151.581 294.527 152.033 294.861 152.366L301.073 158.579C301.767 159.273 302.892 159.273 303.585 158.579C304.279 157.885 304.279 156.761 303.585 156.067L300.399 152.881H334.8C335.781 152.881 336.575 152.086 336.575 151.106C336.575 150.125 335.781 149.331 334.8 149.331L334.801 149.331Z" fill="#4071DF"/>
<g filter="url(#filter3_d_27_52615)">
<circle cx="352.941" cy="168.155" r="17.0098" fill="white"/>
<circle cx="352.941" cy="168.155" r="16.7438" stroke="#EAEAEA" stroke-width="0.532055"/>
</g>
<path fill-rule="evenodd" clip-rule="evenodd" d="M358.451 164.218C358.451 161.173 355.983 158.705 352.938 158.705C349.894 158.705 347.426 161.173 347.426 164.218V168.943H349.001V164.218C349.001 162.043 350.764 160.28 352.938 160.28C355.113 160.28 356.876 162.043 356.876 164.218V168.943H358.451L358.451 164.218Z" fill="#484848"/>
<path fill-rule="evenodd" clip-rule="evenodd" d="M345.064 168.16V176.025C345.064 176.898 345.772 177.605 346.632 177.605H359.247C360.112 177.605 360.814 176.899 360.814 176.025V168.16C360.814 167.287 360.107 166.58 359.247 166.58H346.632C345.766 166.58 345.064 167.286 345.064 168.16Z" fill="#484848"/>
<g filter="url(#filter4_d_27_52615)">
<circle cx="201.391" cy="141.102" r="39.4126" fill="white"/>
<circle cx="201.391" cy="141.102" r="38.9126" stroke="#F0F3F5"/>
</g>
<path fill-rule="evenodd" clip-rule="evenodd" d="M201.93 120.629C196.127 120.629 191.423 125.333 191.423 131.136C191.423 136.939 196.127 141.643 201.93 141.643C207.733 141.643 212.437 136.939 212.437 131.136C212.437 125.333 207.733 120.629 201.93 120.629ZM195.243 131.136C195.243 127.443 198.237 124.45 201.93 124.45C205.622 124.45 208.616 127.443 208.616 131.136C208.616 134.829 205.622 137.822 201.93 137.822C198.237 137.822 195.243 134.829 195.243 131.136Z" fill="#4071DF"/>
<path d="M194.288 145.464C187.958 145.464 182.826 150.596 182.826 156.926V160.747C182.826 161.802 183.681 162.657 184.737 162.657C185.792 162.657 186.647 161.802 186.647 160.747V156.926C186.647 152.706 190.068 149.284 194.288 149.284H209.571C213.791 149.284 217.213 152.706 217.213 156.926V160.747C217.213 161.802 218.068 162.657 219.123 162.657C220.178 162.657 221.033 161.802 221.033 160.747V156.926C221.033 150.596 215.901 145.464 209.571 145.464H194.288Z" fill="#4071DF"/>
<g filter="url(#filter5_d_27_52615)">
<circle cx="239.504" cy="168.155" r="17.0098" fill="white"/>
<circle cx="239.504" cy="168.155" r="16.7438" stroke="#EAEAEA" stroke-width="0.532055"/>
</g>
<path fill-rule="evenodd" clip-rule="evenodd" d="M245.019 164.218C245.019 161.173 242.551 158.705 239.507 158.705C236.462 158.705 233.994 161.173 233.994 164.218V168.943H235.569V164.218C235.569 162.043 237.332 160.28 239.507 160.28C241.681 160.28 243.444 162.043 243.444 164.218V168.943H245.019L245.019 164.218Z" fill="#484848"/>
<path fill-rule="evenodd" clip-rule="evenodd" d="M231.631 168.16V176.025C231.631 176.898 232.338 177.605 233.199 177.605H245.813C246.679 177.605 247.381 176.899 247.381 176.025V168.16C247.381 167.287 246.673 166.58 245.813 166.58H233.199C232.333 166.58 231.631 167.286 231.631 168.16Z" fill="#484848"/>
<path d="M8.19131 123.558C8.63848 124.005 9.36348 124.005 9.81064 123.558L17.0976 116.271C17.5448 115.824 17.5448 115.099 17.0976 114.651C16.6505 114.204 15.9255 114.204 15.4783 114.651L9.00098 121.129L2.52366 114.651C2.0765 114.204 1.3515 114.204 0.904334 114.651C0.45717 115.099 0.45717 115.824 0.904334 116.271L8.19131 123.558ZM397.292 150.335C396.844 149.888 396.119 149.888 395.672 150.335L388.385 157.622C387.938 158.069 387.938 158.794 388.385 159.242C388.832 159.689 389.557 159.689 390.005 159.242L396.482 152.764L402.959 159.242C403.406 159.689 404.131 159.689 404.578 159.242C405.026 158.794 405.026 158.069 404.578 157.622L397.292 150.335ZM395.337 88.3969C395.337 89.0293 395.849 89.5419 396.482 89.5419C397.114 89.5419 397.627 89.0293 397.627 88.3969H395.337ZM10.146 195.572C10.146 194.94 9.63336 194.427 9.00098 194.427C8.36859 194.427 7.85594 194.94 7.85594 195.572H10.146ZM27.3216 34.1221H378.161V31.832H27.3216V34.1221ZM378.161 238.855H27.3216V241.145H378.161V238.855ZM10.146 122.748V51.2977H7.85594V122.748H10.146ZM395.337 151.145V221.679H397.627V151.145H395.337ZM395.337 51.2977V88.3969H397.627V51.2977H395.337ZM10.146 221.679V195.572H7.85594V221.679H10.146ZM27.3216 238.855C17.8358 238.855 10.146 231.165 10.146 221.679H7.85594C7.85594 232.43 16.571 241.145 27.3216 241.145V238.855ZM378.161 241.145C388.912 241.145 397.627 232.43 397.627 221.679H395.337C395.337 231.165 387.647 238.855 378.161 238.855V241.145ZM378.161 34.1221C387.647 34.1221 395.337 41.8119 395.337 51.2977H397.627C397.627 40.5471 388.912 31.832 378.161 31.832V34.1221ZM27.3216 31.832C16.571 31.832 7.85594 40.5471 7.85594 51.2977H10.146C10.146 41.8119 17.8358 34.1221 27.3216 34.1221V31.832Z" fill="#4071DF"/>
<circle cx="202.284" cy="32.9771" r="32.9771" fill="#4071DF"/>
<path d="M188.537 20.3662C193.105 19.8814 197.596 18.6819 201.568 16.0434C201.812 15.8846 202.044 15.7076 202.259 15.5317C203.806 16.723 205.551 17.5694 207.276 18.2636C210.699 19.6594 214.231 20.2784 217.84 20.4988C217.945 20.5067 218.049 20.5131 218.151 20.5187C218.122 20.7661 218.092 21.0122 218.062 21.2587C217.812 23.0382 217.572 24.8139 217.333 26.585C216.857 30.1195 216.383 33.6355 215.829 37.1268L215.829 37.1276C215.029 42.1903 212.053 45.8439 207.463 48.4621L207.459 48.4641C206.219 49.1763 204.926 49.7128 203.543 50.2866C203.129 50.4584 202.707 50.6335 202.275 50.8177C202.274 50.8184 202.272 50.819 202.27 50.8197C198.525 49.5438 195.205 47.7313 192.592 44.9902C190.266 42.5294 188.972 39.557 188.523 36.2183L188.523 36.2158L186.385 20.5368C187.09 20.493 187.815 20.4442 188.537 20.3662Z" stroke="white" stroke-width="2.74809"/>
<defs>
<filter id="filter0_d_27_52615" x="29.158" y="87.9485" width="106.305" height="106.306" filterUnits="userSpaceOnUse" color-interpolation-filters="sRGB">
<feFlood flood-opacity="0" result="BackgroundImageFix"/>
<feColorMatrix in="SourceAlpha" type="matrix" values="0 0 0 0 0 0 0 0 0 0 0 0 0 0 0 0 0 0 127 0" result="hardAlpha"/>
<feOffset/>
<feGaussianBlur stdDeviation="6.87023"/>
<feComposite in2="hardAlpha" operator="out"/>
<feColorMatrix type="matrix" values="0 0 0 0 0 0 0 0 0 0 0 0 0 0 0 0 0 0 0.05 0"/>
<feBlend mode="normal" in2="BackgroundImageFix" result="effect1_dropShadow_27_52615"/>
<feBlend mode="normal" in="SourceGraphic" in2="effect1_dropShadow_27_52615" result="shape"/>
</filter>
<filter id="filter1_d_27_52615" x="39.8004" y="90.2776" width="160.723" height="160.723" filterUnits="userSpaceOnUse" color-interpolation-filters="sRGB">
<feFlood flood-opacity="0" result="BackgroundImageFix"/>
<feColorMatrix in="SourceAlpha" type="matrix" values="0 0 0 0 0 0 0 0 0 0 0 0 0 0 0 0 0 0 127 0" result="hardAlpha"/>
<feMorphology radius="7.45317" operator="dilate" in="SourceAlpha" result="effect1_dropShadow_27_52615"/>
<feOffset dy="2.48439"/>
<feGaussianBlur stdDeviation="27.9494"/>
<feComposite in2="hardAlpha" operator="out"/>
<feColorMatrix type="matrix" values="0 0 0 0 0 0 0 0 0 0 0 0 0 0 0 0 0 0 0.05 0"/>
<feBlend mode="normal" in2="BackgroundImageFix" result="effect1_dropShadow_27_52615"/>
<feBlend mode="normal" in="SourceGraphic" in2="effect1_dropShadow_27_52615" result="shape"/>
</filter>
<filter id="filter2_d_27_52615" x="261.935" y="87.9485" width="106.305" height="106.306" filterUnits="userSpaceOnUse" color-interpolation-filters="sRGB">
<feFlood flood-opacity="0" result="BackgroundImageFix"/>
<feColorMatrix in="SourceAlpha" type="matrix" values="0 0 0 0 0 0 0 0 0 0 0 0 0 0 0 0 0 0 127 0" result="hardAlpha"/>
<feOffset/>
<feGaussianBlur stdDeviation="6.87023"/>
<feComposite in2="hardAlpha" operator="out"/>
<feColorMatrix type="matrix" values="0 0 0 0 0 0 0 0 0 0 0 0 0 0 0 0 0 0 0.05 0"/>
<feBlend mode="normal" in2="BackgroundImageFix" result="effect1_dropShadow_27_52615"/>
<feBlend mode="normal" in="SourceGraphic" in2="effect1_dropShadow_27_52615" result="shape"/>
</filter>
<filter id="filter3_d_27_52615" x="272.58" y="90.2776" width="160.723" height="160.723" filterUnits="userSpaceOnUse" color-interpolation-filters="sRGB">
<feFlood flood-opacity="0" result="BackgroundImageFix"/>
<feColorMatrix in="SourceAlpha" type="matrix" values="0 0 0 0 0 0 0 0 0 0 0 0 0 0 0 0 0 0 127 0" result="hardAlpha"/>
<feMorphology radius="7.45317" operator="dilate" in="SourceAlpha" result="effect1_dropShadow_27_52615"/>
<feOffset dy="2.48439"/>
<feGaussianBlur stdDeviation="27.9494"/>
<feComposite in2="hardAlpha" operator="out"/>
<feColorMatrix type="matrix" values="0 0 0 0 0 0 0 0 0 0 0 0 0 0 0 0 0 0 0.05 0"/>
<feBlend mode="normal" in2="BackgroundImageFix" result="effect1_dropShadow_27_52615"/>
<feBlend mode="normal" in="SourceGraphic" in2="effect1_dropShadow_27_52615" result="shape"/>
</filter>
<filter id="filter4_d_27_52615" x="148.238" y="87.9485" width="106.305" height="106.306" filterUnits="userSpaceOnUse" color-interpolation-filters="sRGB">
<feFlood flood-opacity="0" result="BackgroundImageFix"/>
<feColorMatrix in="SourceAlpha" type="matrix" values="0 0 0 0 0 0 0 0 0 0 0 0 0 0 0 0 0 0 127 0" result="hardAlpha"/>
<feOffset/>
<feGaussianBlur stdDeviation="6.87023"/>
<feComposite in2="hardAlpha" operator="out"/>
<feColorMatrix type="matrix" values="0 0 0 0 0 0 0 0 0 0 0 0 0 0 0 0 0 0 0.05 0"/>
<feBlend mode="normal" in2="BackgroundImageFix" result="effect1_dropShadow_27_52615"/>
<feBlend mode="normal" in="SourceGraphic" in2="effect1_dropShadow_27_52615" result="shape"/>
</filter>
<filter id="filter5_d_27_52615" x="159.142" y="90.2776" width="160.723" height="160.723" filterUnits="userSpaceOnUse" color-interpolation-filters="sRGB">
<feFlood flood-opacity="0" result="BackgroundImageFix"/>
<feColorMatrix in="SourceAlpha" type="matrix" values="0 0 0 0 0 0 0 0 0 0 0 0 0 0 0 0 0 0 127 0" result="hardAlpha"/>
<feMorphology radius="7.45317" operator="dilate" in="SourceAlpha" result="effect1_dropShadow_27_52615"/>
<feOffset dy="2.48439"/>
<feGaussianBlur stdDeviation="27.9494"/>
<feComposite in2="hardAlpha" operator="out"/>
<feColorMatrix type="matrix" values="0 0 0 0 0 0 0 0 0 0 0 0 0 0 0 0 0 0 0.05 0"/>
<feBlend mode="normal" in2="BackgroundImageFix" result="effect1_dropShadow_27_52615"/>
<feBlend mode="normal" in="SourceGraphic" in2="effect1_dropShadow_27_52615" result="shape"/>
</filter>
</defs>
</svg>
