<svg width="308" height="300" viewBox="0 0 308 300" fill="none" xmlns="http://www.w3.org/2000/svg">
<g opacity="0.8" filter="url(#filter0_d_270_23365)">
<circle cx="162.379" cy="153.641" r="53.1553" fill="url(#paint0_linear_270_23365)" shape-rendering="crispEdges"/>
<circle cx="162.379" cy="153.641" r="53.1553" stroke="white" stroke-width="2.18447" stroke-miterlimit="10" stroke-linecap="round" stroke-linejoin="round" shape-rendering="crispEdges"/>
</g>
<path d="M162.53 198.059C138.122 198.059 118.264 178.2 118.264 153.793C118.264 129.385 138.122 109.526 162.53 109.526C186.938 109.526 206.796 129.383 206.796 153.793C206.796 178.202 186.938 198.059 162.53 198.059ZM162.53 114.605C140.923 114.605 123.344 132.185 123.344 153.793C123.344 175.4 140.923 192.978 162.53 192.978C184.137 192.978 201.715 175.4 201.715 153.793C201.715 132.185 184.137 114.605 162.53 114.605Z" fill="#4071DF"/>
<path d="M162.53 161.678C153.419 161.678 146.005 154.265 146.005 145.153C146.005 136.041 153.419 128.629 162.53 128.629C171.641 128.629 179.055 136.041 179.055 145.153C179.055 154.265 171.641 161.678 162.53 161.678ZM162.53 133.708C156.219 133.708 151.085 138.842 151.085 145.153C151.085 151.464 156.219 156.598 162.53 156.598C168.841 156.598 173.975 151.464 173.975 145.153C173.975 138.842 168.841 133.708 162.53 133.708Z" fill="#4071DF"/>
<path d="M137.096 189.392C136.93 189.392 136.763 189.376 136.596 189.342C135.22 189.068 134.328 187.73 134.602 186.355C137.251 173.089 148.996 163.46 162.53 163.46C170.134 163.46 177.284 166.424 182.665 171.805C186.679 175.82 189.375 180.854 190.459 186.363C190.73 187.739 189.833 189.075 188.459 189.345C187.076 189.617 185.747 188.719 185.476 187.344C184.587 182.828 182.374 178.697 179.074 175.397C174.652 170.975 168.776 168.54 162.53 168.54C151.409 168.54 141.758 176.45 139.583 187.349C139.342 188.558 138.282 189.392 137.096 189.392Z" fill="#4071DF"/>
<circle cx="162.378" cy="153.641" r="83.5558" stroke="#757575" stroke-width="0.364078" stroke-dasharray="8.74 8.74"/>
<circle cx="162.379" cy="153.641" r="133.799" stroke="#757575" stroke-width="0.364078" stroke-dasharray="8.74 8.74"/>
<circle cx="283.252" cy="194.417" r="24.3932" fill="white" stroke="#DCE0E0" stroke-width="0.728155"/>
<path d="M283.529 179.857C279.68 179.787 276.005 181.278 273.197 184.017C270.319 186.826 268.689 190.709 268.689 194.696V194.835C268.689 196.776 270.284 198.371 272.226 198.371C274.168 198.371 275.763 196.776 275.763 194.835C275.763 193.864 276.56 193.066 277.531 193.066C277.878 193.066 278.224 193.17 278.502 193.378C279.056 193.76 279.334 194.523 279.125 195.285L279.091 195.389C278.917 196.048 278.432 196.638 277.704 196.915C276.144 197.574 275.173 199.065 275.173 200.764C275.208 205.202 278.814 208.877 283.252 208.981H283.46C291.399 208.877 297.814 202.393 297.814 194.419C297.814 186.548 291.399 179.995 283.529 179.857L283.529 179.857ZM283.355 207.594C279.611 207.559 276.595 204.508 276.595 200.729C276.595 199.619 277.253 198.614 278.293 198.163C279.403 197.678 280.2 196.777 280.478 195.701L280.512 195.597C280.824 194.28 280.339 192.928 279.299 192.2C278.779 191.853 278.155 191.68 277.531 191.68C275.797 191.68 274.375 193.101 274.375 194.835C274.375 196.014 273.405 196.984 272.226 196.984C271.047 196.984 270.076 196.014 270.076 194.835V194.696C270.076 191.09 271.567 187.554 274.167 185.023C276.698 182.526 280.027 181.209 283.528 181.244C290.636 181.382 296.426 187.276 296.426 194.419C296.426 201.63 290.567 207.525 283.355 207.594L283.355 207.594Z" fill="#4071DF"/>
<path d="M288.557 194.037C288.557 195.563 289.805 196.811 291.33 196.811C292.856 196.811 294.104 195.563 294.104 194.037C294.104 192.512 292.856 191.264 291.33 191.264C289.805 191.264 288.557 192.512 288.557 194.037ZM292.717 194.037C292.717 194.8 292.093 195.424 291.33 195.424C290.568 195.424 289.944 194.8 289.944 194.037C289.944 193.275 290.568 192.651 291.33 192.651C292.093 192.651 292.717 193.275 292.717 194.037Z" fill="#4071DF"/>
<path d="M288.592 190.536C290.013 190.536 291.192 189.357 291.192 187.935C291.192 186.514 290.013 185.335 288.592 185.335C287.17 185.335 285.991 186.514 285.991 187.935C285.991 189.357 287.17 190.536 288.592 190.536ZM288.592 186.722C289.25 186.722 289.805 187.276 289.805 187.935C289.805 188.594 289.25 189.149 288.592 189.149C287.933 189.149 287.378 188.594 287.378 187.935C287.378 187.276 287.933 186.722 288.592 186.722Z" fill="#4071DF"/>
<path d="M282.87 183.15C281.518 183.15 280.443 184.225 280.443 185.577C280.443 186.93 281.518 188.004 282.87 188.004C284.222 188.004 285.297 186.93 285.297 185.577C285.297 184.225 284.222 183.15 282.87 183.15ZM282.87 186.618C282.281 186.618 281.83 186.167 281.83 185.577C281.83 184.988 282.281 184.537 282.87 184.537C283.46 184.537 283.91 184.988 283.91 185.577C283.91 186.167 283.46 186.618 282.87 186.618Z" fill="#4071DF"/>
<path d="M289.077 197.573C287.448 197.573 286.13 198.891 286.13 200.52C286.13 202.15 287.447 203.468 289.077 203.468C290.707 203.468 292.024 202.15 292.024 200.52C292.024 198.891 290.672 197.573 289.077 197.573ZM289.077 202.081C288.21 202.081 287.517 201.387 287.517 200.52C287.517 199.654 288.21 198.96 289.077 198.96C289.944 198.96 290.637 199.654 290.637 200.52C290.637 201.387 289.909 202.081 289.077 202.081Z" fill="#4071DF"/>
<circle cx="28.3981" cy="128.883" r="28.034" fill="white" stroke="#DCE0E0" stroke-width="0.728155"/>
<path d="M40.9718 123.247L40.9718 123.248C40.9729 123.425 40.9274 123.599 40.8397 123.752C40.7521 123.906 40.6254 124.034 40.4724 124.123L40.4494 124.136L37.269 125.953L37.0476 126.079L37.269 126.206L40.4735 128.036L40.4735 128.036C40.6797 128.154 40.8378 128.341 40.9191 128.564L40.9191 128.564C41.0007 128.787 41.0007 129.031 40.9191 129.254L40.9191 129.255C40.8378 129.478 40.6797 129.665 40.4735 129.782C40.4735 129.783 40.4734 129.783 40.4734 129.783L37.269 131.613L37.0476 131.739L37.269 131.866L40.4734 133.696C40.4734 133.696 40.4735 133.696 40.4735 133.696C40.6797 133.814 40.8378 134.001 40.9191 134.224L40.9191 134.224C41.0007 134.447 41.0007 134.692 40.9191 134.915L40.9191 134.915C40.8378 135.138 40.6797 135.325 40.4735 135.443L39.9964 135.715H39.9976L29.0571 141.966L29.0565 141.967C28.7453 142.147 28.3621 142.147 28.0509 141.967L28.0503 141.966L16.6337 135.443L16.6336 135.443C16.4275 135.325 16.2696 135.138 16.188 134.915C16.1064 134.692 16.1064 134.447 16.188 134.224L16.188 134.224C16.2696 134.001 16.4275 133.814 16.6337 133.696C16.6337 133.696 16.6337 133.696 16.6337 133.696L19.8381 131.866L20.0595 131.739L19.8381 131.613L16.6337 129.783C16.6337 129.783 16.6337 129.783 16.6337 129.782C16.4275 129.665 16.2696 129.478 16.188 129.254C16.1064 129.031 16.1064 128.787 16.188 128.564C16.2696 128.341 16.4275 128.154 16.6336 128.036L16.6338 128.036L19.8307 126.205L20.0517 126.079L19.8306 125.952L16.6262 124.122C16.6261 124.122 16.6261 124.122 16.6261 124.122C16.4198 124.004 16.2618 123.817 16.1805 123.594L16.1805 123.594C16.0989 123.371 16.0989 123.126 16.1805 122.903L16.1805 122.903C16.2618 122.68 16.4198 122.494 16.6262 122.376L17.1023 122.104H17.102L28.0425 115.852L28.0431 115.852C28.1959 115.763 28.3694 115.717 28.546 115.717C28.7226 115.717 28.8958 115.763 29.0487 115.852L29.0493 115.852L40.4658 122.376C40.6195 122.464 40.7471 122.59 40.8359 122.743L40.836 122.743C40.9247 122.896 40.9715 123.07 40.9718 123.247ZM35.1915 133.004C35.1902 133.003 35.1881 133.001 35.1825 132.994C35.1769 132.988 35.1664 132.976 35.1523 132.963C35.1374 132.95 35.1205 132.938 35.1004 132.928L35.0292 132.889L34.9589 132.929L29.0567 136.302L29.0562 136.303C28.7449 136.482 28.3617 136.482 28.0504 136.303L28.0497 136.302L22.1438 132.937L22.0609 132.889L21.9845 132.946C21.9686 132.958 21.9555 132.971 21.9471 132.979L21.9418 132.985L21.9113 133.002L19.3825 134.441L19.1606 134.567L19.3823 134.694L28.4772 139.894L28.5494 139.935L28.6217 139.894L37.7207 134.702L37.9422 134.575L37.7207 134.449L35.1915 133.004ZM29.0562 130.642C28.7542 130.816 28.3843 130.822 28.0782 130.658L28.0502 130.642L22.1481 127.268L22.0651 127.221L21.9886 127.278C21.9727 127.29 21.9596 127.303 21.9512 127.311L21.946 127.316L21.9152 127.334L19.3824 128.781L19.1611 128.907L19.3824 129.033L28.4773 134.233L28.5495 134.275L28.6218 134.233L37.7167 129.033L37.9384 128.907L37.7165 128.78L35.2596 127.382L35.2593 127.365L35.179 127.329C35.1788 127.329 35.1786 127.329 35.1784 127.328C35.1747 127.325 35.1643 127.313 35.1515 127.302C35.1375 127.29 35.1212 127.278 35.1012 127.267L35.0297 127.228L34.9589 127.269L29.0568 130.642L29.0562 130.642ZM28.4774 128.573L28.5497 128.614L28.622 128.573L37.7169 123.373L37.9381 123.247L37.7168 123.12L28.6219 117.924L28.5497 117.883L28.4774 117.924L19.3825 123.12L19.1613 123.247L19.3825 123.373L28.4774 128.573Z" fill="#4071DF" stroke="white" stroke-width="0.291262"/>
<circle cx="134.709" cy="272.33" r="27.3058" fill="white" stroke="#DCE0E0" stroke-width="0.728155"/>
<path d="M145.094 281.068H123.677C122.533 281.068 121.603 280.137 121.603 278.993V264.939C121.603 263.795 122.533 262.864 123.677 262.864H145.094C146.238 262.864 147.169 263.795 147.169 264.939V278.993C147.169 280.137 146.238 281.068 145.094 281.068ZM123.677 264.336C123.345 264.336 123.075 264.607 123.075 264.939V278.993C123.075 279.325 123.345 279.596 123.677 279.596H145.094C145.426 279.596 145.696 279.325 145.696 278.993L145.696 264.939C145.696 264.607 145.426 264.336 145.094 264.336H123.677Z" fill="#4071DF"/>
<path d="M134.385 274.763C133.702 274.763 133.018 274.56 132.434 274.155L121.918 266.825C121.584 266.592 121.502 266.134 121.735 265.8C121.967 265.466 122.427 265.385 122.76 265.617L133.275 272.947C133.939 273.407 134.832 273.408 135.497 272.946L146.011 265.617C146.344 265.384 146.804 265.466 147.036 265.8C147.269 266.133 147.187 266.592 146.853 266.825L136.337 274.154C135.753 274.56 135.069 274.763 134.385 274.763L134.385 274.763Z" fill="#4071DF"/>
<rect x="160.923" y="105.582" width="2.91262" height="7.72365" fill="#4071DF"/>
<rect x="160.923" y="193.975" width="2.91262" height="7.72365" fill="#4071DF"/>
<rect x="213.35" y="153.641" width="2.91262" height="16.7476" transform="rotate(90 213.35 153.641)" fill="#4071DF"/>
<rect x="128.884" y="153.641" width="2.91262" height="16.7476" transform="rotate(90 128.884 153.641)" fill="#4071DF"/>
<circle cx="231.553" cy="34.9515" r="34.5874" fill="white" stroke="#DCE0E0" stroke-width="0.728155"/>
<path d="M231.345 18.9332C222.837 18.9332 215.925 25.8233 215.925 34.3054C215.925 34.9079 215.972 35.5036 216.04 36.0921C214.036 37.7613 213.461 40.6848 214.807 43.0197L217.839 48.2765C219.342 50.8842 222.676 51.7748 225.279 50.2687L225.279 50.2682C225.284 50.2685 225.288 50.2685 225.292 50.2682L226.821 49.3812V49.3815C227.209 49.1526 227.341 48.6539 227.117 48.2634L219.458 34.9739C219.292 34.6771 218.96 34.5136 218.623 34.5626C218.523 34.5793 218.428 34.614 218.34 34.6653L217.595 35.1024C217.582 34.8388 217.569 34.5741 217.569 34.3054C217.569 26.7151 223.722 20.5784 231.344 20.5784C238.966 20.5784 245.119 26.7151 245.119 34.3054C245.119 34.5741 245.106 34.8388 245.093 35.1024L244.348 34.6653H244.348C244.204 34.5839 244.038 34.548 243.873 34.5626C243.604 34.5859 243.364 34.7396 243.23 34.9739L235.572 48.2634H235.571C235.347 48.6539 235.479 49.1526 235.867 49.3815L237.396 50.2685V50.2682C237.4 50.2685 237.405 50.2685 237.409 50.2682C240.012 51.7743 243.346 50.8839 244.849 48.2759L247.882 43.0191C249.227 40.6841 248.652 37.7608 246.648 36.0915C246.716 35.5033 246.763 34.9074 246.763 34.3049C246.763 25.8226 239.852 18.9326 231.343 18.9326L231.345 18.9332ZM218.457 36.5027L225.293 48.3658L224.458 48.8541C222.619 49.9178 220.329 49.2966 219.266 47.4532L216.234 42.1964C215.24 40.4712 215.703 38.3353 217.274 37.1967H217.275C217.32 37.1749 217.363 37.1491 217.403 37.1196C217.474 37.0723 217.547 37.0215 217.622 36.9782L218.457 36.5027ZM244.233 36.5027L245.068 36.9782C245.152 37.0264 245.235 37.0794 245.313 37.1325H245.313C245.333 37.1508 245.355 37.1681 245.377 37.1841C245.385 37.1896 245.395 37.1916 245.403 37.1967C246.981 38.3338 247.452 40.4682 246.457 42.1964L243.424 47.4532C242.362 49.2969 240.071 49.9178 238.233 48.8541L237.398 48.3658L244.233 36.5027Z" fill="#4071DF"/>
<defs>
<filter id="filter0_d_270_23365" x="97.2095" y="90.6557" width="130.34" height="130.34" filterUnits="userSpaceOnUse" color-interpolation-filters="sRGB">
<feFlood flood-opacity="0" result="BackgroundImageFix"/>
<feColorMatrix in="SourceAlpha" type="matrix" values="0 0 0 0 0 0 0 0 0 0 0 0 0 0 0 0 0 0 127 0" result="hardAlpha"/>
<feOffset dy="2.18447"/>
<feGaussianBlur stdDeviation="5.46116"/>
<feComposite in2="hardAlpha" operator="out"/>
<feColorMatrix type="matrix" values="0 0 0 0 0 0 0 0 0 0 0 0 0 0 0 0 0 0 0.06 0"/>
<feBlend mode="normal" in2="BackgroundImageFix" result="effect1_dropShadow_270_23365"/>
<feBlend mode="normal" in="SourceGraphic" in2="effect1_dropShadow_270_23365" result="shape"/>
</filter>
<linearGradient id="paint0_linear_270_23365" x1="162.379" y1="100.485" x2="162.379" y2="206.796" gradientUnits="userSpaceOnUse">
<stop stop-color="white"/>
<stop offset="1" stop-color="white" stop-opacity="0.62"/>
</linearGradient>
</defs>
</svg>
