<svg width="327" height="279" viewBox="0 0 327 279" fill="none" xmlns="http://www.w3.org/2000/svg">
<mask id="path-1-outside-1_270_23286" maskUnits="userSpaceOnUse" x="17" y="0" width="279" height="279" fill="black">
<rect fill="white" x="17" width="279" height="279"/>
<path d="M156.5 1C80.0896 1 18 63.0896 18 139.5C18 215.91 80.0896 278 156.5 278C232.686 278 294.604 216.265 294.967 140.165C294.987 139.944 294.998 139.722 295 139.5C294.997 139.265 294.984 139.03 294.961 138.796V138.763C294.56 62.699 232.661 1 156.5 1ZM149.575 15.5979V75.3357C132.864 74.8371 117.044 72.5546 102.745 68.8872C105.28 61.9815 108.158 55.5773 111.335 49.8046C122 30.4423 135.451 18.5507 149.575 15.5979ZM163.425 15.5951C177.552 18.5452 191.003 30.4423 201.665 49.8046C204.842 55.5745 207.72 61.9788 210.255 68.8844C195.956 72.5519 180.136 74.8371 163.425 75.3329V15.5951ZM113.809 22.329C108.396 28.3011 103.496 35.3203 99.1998 43.1206C95.5268 49.7963 92.2609 57.1091 89.4244 64.9233C81.1532 62.0979 73.5523 58.7933 66.8046 55.0759C66.342 54.8239 65.9099 54.5607 65.4584 54.3031C78.839 39.9947 95.4036 29.0414 113.809 22.3318M199.191 22.3318C217.597 29.0422 234.161 39.9964 247.542 54.3059C247.09 54.5635 246.655 54.8266 246.195 55.0815C239.448 58.7933 231.844 62.1062 223.57 64.9316C220.739 57.1147 217.476 49.7991 213.8 43.1234C209.504 35.3231 204.604 28.3039 199.191 22.3318ZM56.4614 65.084C57.6664 65.8042 58.8713 66.5244 60.1234 67.2169C67.7132 71.3968 76.1201 75.0559 85.1725 78.139C80.5355 94.7091 77.7544 113.116 77.2198 132.575H32.0494C33.3616 108.165 41.8542 84.6854 56.4614 65.084ZM256.539 65.084C271.146 84.6854 279.638 108.165 280.951 132.575H235.733C235.198 113.121 232.428 94.7146 227.805 78.1445C236.866 75.0615 245.279 71.3996 252.877 67.2141C254.126 66.5271 255.334 65.8042 256.539 65.084ZM98.4879 82.1111C114.18 86.1997 131.415 88.6511 149.575 89.1497V132.575H91.0809C91.6183 114.44 94.2553 97.3406 98.4879 82.1139M214.512 82.1139C218.745 97.3406 221.382 114.44 221.919 132.575H163.425V89.1469C181.582 88.6483 198.823 86.1997 214.512 82.1139ZM32.0522 146.425H77.2198C77.7544 165.884 80.5355 184.288 85.1725 200.855C76.1229 203.944 67.716 207.606 60.1234 211.786C58.8741 212.473 57.6664 213.199 56.4614 213.919C41.8537 194.317 33.3639 170.836 32.0522 146.425ZM91.0781 146.425H149.575V189.803C131.409 190.302 114.174 192.767 98.4824 196.864C94.2526 181.643 91.6155 164.552 91.0781 146.425ZM163.425 146.425H221.919C221.382 164.552 218.747 181.643 214.518 196.864C198.826 192.767 181.591 190.305 163.425 189.803V146.425ZM235.736 146.425H280.951C279.638 170.835 271.146 194.315 256.539 213.916C255.334 213.196 254.129 212.476 252.877 211.783C245.281 207.6 236.866 203.939 227.811 200.85C232.437 184.283 235.204 165.879 235.736 146.425ZM149.575 203.664V263.402C135.448 260.452 121.997 248.555 111.335 229.193C108.158 223.423 105.28 217.018 102.745 210.113C117.044 206.445 132.864 204.16 149.575 203.664ZM163.425 203.664C180.136 204.163 195.956 206.445 210.255 210.113C207.72 217.018 204.842 223.423 201.665 229.195C191 248.558 177.549 260.452 163.425 263.405V203.664ZM223.57 214.068C231.844 216.894 239.448 220.204 246.195 223.921C246.658 224.173 247.09 224.436 247.542 224.694C234.161 239.004 217.597 249.958 199.191 256.668C204.604 250.696 209.504 243.677 213.8 235.877C217.473 229.201 220.736 221.888 223.57 214.068ZM89.4244 214.074C92.2609 221.888 95.5268 229.201 99.2026 235.877C103.496 243.677 108.396 250.696 113.809 256.668C95.4033 249.958 78.8387 239.004 65.4584 224.694C65.9099 224.436 66.3448 224.173 66.8046 223.919C73.5523 220.207 81.1532 216.899 89.4244 214.074Z"/>
</mask>
<path d="M156.5 1C80.0896 1 18 63.0896 18 139.5C18 215.91 80.0896 278 156.5 278C232.686 278 294.604 216.265 294.967 140.165C294.987 139.944 294.998 139.722 295 139.5C294.997 139.265 294.984 139.03 294.961 138.796V138.763C294.56 62.699 232.661 1 156.5 1ZM149.575 15.5979V75.3357C132.864 74.8371 117.044 72.5546 102.745 68.8872C105.28 61.9815 108.158 55.5773 111.335 49.8046C122 30.4423 135.451 18.5507 149.575 15.5979ZM163.425 15.5951C177.552 18.5452 191.003 30.4423 201.665 49.8046C204.842 55.5745 207.72 61.9788 210.255 68.8844C195.956 72.5519 180.136 74.8371 163.425 75.3329V15.5951ZM113.809 22.329C108.396 28.3011 103.496 35.3203 99.1998 43.1206C95.5268 49.7963 92.2609 57.1091 89.4244 64.9233C81.1532 62.0979 73.5523 58.7933 66.8046 55.0759C66.342 54.8239 65.9099 54.5607 65.4584 54.3031C78.839 39.9947 95.4036 29.0414 113.809 22.3318M199.191 22.3318C217.597 29.0422 234.161 39.9964 247.542 54.3059C247.09 54.5635 246.655 54.8266 246.195 55.0815C239.448 58.7933 231.844 62.1062 223.57 64.9316C220.739 57.1147 217.476 49.7991 213.8 43.1234C209.504 35.3231 204.604 28.3039 199.191 22.3318ZM56.4614 65.084C57.6664 65.8042 58.8713 66.5244 60.1234 67.2169C67.7132 71.3968 76.1201 75.0559 85.1725 78.139C80.5355 94.7091 77.7544 113.116 77.2198 132.575H32.0494C33.3616 108.165 41.8542 84.6854 56.4614 65.084ZM256.539 65.084C271.146 84.6854 279.638 108.165 280.951 132.575H235.733C235.198 113.121 232.428 94.7146 227.805 78.1445C236.866 75.0615 245.279 71.3996 252.877 67.2141C254.126 66.5271 255.334 65.8042 256.539 65.084ZM98.4879 82.1111C114.18 86.1997 131.415 88.6511 149.575 89.1497V132.575H91.0809C91.6183 114.44 94.2553 97.3406 98.4879 82.1139M214.512 82.1139C218.745 97.3406 221.382 114.44 221.919 132.575H163.425V89.1469C181.582 88.6483 198.823 86.1997 214.512 82.1139ZM32.0522 146.425H77.2198C77.7544 165.884 80.5355 184.288 85.1725 200.855C76.1229 203.944 67.716 207.606 60.1234 211.786C58.8741 212.473 57.6664 213.199 56.4614 213.919C41.8537 194.317 33.3639 170.836 32.0522 146.425ZM91.0781 146.425H149.575V189.803C131.409 190.302 114.174 192.767 98.4824 196.864C94.2526 181.643 91.6155 164.552 91.0781 146.425ZM163.425 146.425H221.919C221.382 164.552 218.747 181.643 214.518 196.864C198.826 192.767 181.591 190.305 163.425 189.803V146.425ZM235.736 146.425H280.951C279.638 170.835 271.146 194.315 256.539 213.916C255.334 213.196 254.129 212.476 252.877 211.783C245.281 207.6 236.866 203.939 227.811 200.85C232.437 184.283 235.204 165.879 235.736 146.425ZM149.575 203.664V263.402C135.448 260.452 121.997 248.555 111.335 229.193C108.158 223.423 105.28 217.018 102.745 210.113C117.044 206.445 132.864 204.16 149.575 203.664ZM163.425 203.664C180.136 204.163 195.956 206.445 210.255 210.113C207.72 217.018 204.842 223.423 201.665 229.195C191 248.558 177.549 260.452 163.425 263.405V203.664ZM223.57 214.068C231.844 216.894 239.448 220.204 246.195 223.921C246.658 224.173 247.09 224.436 247.542 224.694C234.161 239.004 217.597 249.958 199.191 256.668C204.604 250.696 209.504 243.677 213.8 235.877C217.473 229.201 220.736 221.888 223.57 214.068ZM89.4244 214.074C92.2609 221.888 95.5268 229.201 99.2026 235.877C103.496 243.677 108.396 250.696 113.809 256.668C95.4033 249.958 78.8387 239.004 65.4584 224.694C65.9099 224.436 66.3448 224.173 66.8046 223.919C73.5523 220.207 81.1532 216.899 89.4244 214.074Z" fill="white"/>
<path d="M294.967 140.165L294.369 140.111L294.367 140.136L294.367 140.162L294.967 140.165ZM295 139.5L295.6 139.506L295.6 139.492L295 139.5ZM294.961 138.796H294.361V138.826L294.364 138.855L294.961 138.796ZM294.961 138.763H295.561V138.76L294.961 138.763ZM149.575 15.5979H150.175V14.8595L149.452 15.0106L149.575 15.5979ZM149.575 75.3357L149.557 75.9355L150.175 75.9539V75.3357H149.575ZM102.745 68.8872L102.182 68.6804L101.953 69.3035L102.596 69.4683L102.745 68.8872ZM111.335 49.8046L110.81 49.5152L110.81 49.5153L111.335 49.8046ZM163.425 15.5951L163.548 15.0078L162.825 14.8569V15.5951H163.425ZM201.665 49.8046L201.139 50.094L201.665 49.8046ZM210.255 68.8844L210.404 69.4656L211.047 69.3007L210.818 68.6777L210.255 68.8844ZM163.425 75.3329H162.825V75.951L163.443 75.9327L163.425 75.3329ZM99.1998 43.1206L98.6742 42.8312L98.6741 42.8314L99.1998 43.1206ZM89.4244 64.9233L89.2305 65.4911L89.7876 65.6814L89.9884 65.128L89.4244 64.9233ZM66.8046 55.0759L67.0941 54.5504L67.0917 54.5491L66.8046 55.0759ZM65.4584 54.3031L65.0202 53.8933L64.5015 54.4479L65.1611 54.8243L65.4584 54.3031ZM199.191 22.3318L199.397 21.7681L198.747 22.7347L199.191 22.3318ZM247.542 54.3059L247.839 54.827L248.498 54.4507L247.98 53.8961L247.542 54.3059ZM246.195 55.0815L246.485 55.6072L246.486 55.6063L246.195 55.0815ZM223.57 64.9316L223.006 65.1359L223.206 65.6898L223.764 65.4994L223.57 64.9316ZM213.8 43.1234L214.326 42.834L214.326 42.8339L213.8 43.1234ZM56.4614 65.084L56.7693 64.5689L56.3041 64.2909L55.9803 64.7254L56.4614 65.084ZM60.1234 67.2169L59.833 67.7419L59.8339 67.7424L60.1234 67.2169ZM85.1725 78.139L85.7503 78.3007L85.9033 77.754L85.3659 77.571L85.1725 78.139ZM77.2198 132.575V133.175H77.8036L77.8196 132.591L77.2198 132.575ZM32.0494 132.575L31.4503 132.543L31.4163 133.175H32.0494V132.575ZM256.539 65.084L257.02 64.7254L256.696 64.2909L256.231 64.5689L256.539 65.084ZM280.951 132.575V133.175H281.584L281.55 132.543L280.951 132.575ZM235.733 132.575L235.133 132.591L235.149 133.175H235.733V132.575ZM227.805 78.1445L227.612 77.5765L227.075 77.7592L227.227 78.3057L227.805 78.1445ZM252.877 67.2141L252.587 66.6883L252.587 66.6885L252.877 67.2141ZM149.575 89.1497H150.175V88.566L149.591 88.5499L149.575 89.1497ZM149.575 132.575V133.175H150.175V132.575H149.575ZM91.0809 132.575L90.4812 132.557L90.4629 133.175H91.0809V132.575ZM214.512 82.1139L215.09 81.9532L214.932 81.3845L214.361 81.5333L214.512 82.1139ZM221.919 132.575V133.175H222.537L222.519 132.557L221.919 132.575ZM163.425 132.575H162.825V133.175H163.425V132.575ZM163.425 89.1469L163.409 88.5472L162.825 88.5632V89.1469H163.425ZM32.0522 146.425V145.825H31.4191L31.4531 146.457L32.0522 146.425ZM77.2198 146.425L77.8196 146.409L77.8036 145.825H77.2198V146.425ZM85.1725 200.855L85.3663 201.423L85.9032 201.24L85.7503 200.694L85.1725 200.855ZM60.1234 211.786L60.4125 212.312L60.4128 212.312L60.1234 211.786ZM56.4614 213.919L55.9803 214.277L56.3041 214.712L56.7693 214.434L56.4614 213.919ZM91.0781 146.425V145.825H90.4601L90.4784 146.443L91.0781 146.425ZM149.575 146.425H150.175V145.825H149.575V146.425ZM149.575 189.803L149.591 190.403L150.175 190.387V189.803H149.575ZM98.4824 196.864L97.9043 197.025L98.0624 197.594L98.6339 197.444L98.4824 196.864ZM163.425 146.425V145.825H162.825V146.425H163.425ZM221.919 146.425L222.519 146.443L222.537 145.825H221.919V146.425ZM214.518 196.864L214.366 197.444L214.938 197.594L215.096 197.025L214.518 196.864ZM163.425 189.803H162.825V190.387L163.408 190.403L163.425 189.803ZM235.736 146.425V145.825H235.152L235.136 146.409L235.736 146.425ZM280.951 146.425L281.55 146.457L281.584 145.825H280.951V146.425ZM256.539 213.916L256.231 214.431L256.696 214.709L257.02 214.275L256.539 213.916ZM252.877 211.783L253.167 211.258L253.166 211.258L252.877 211.783ZM227.811 200.85L227.233 200.689L227.08 201.235L227.617 201.418L227.811 200.85ZM149.575 203.664H150.175V203.046L149.557 203.065L149.575 203.664ZM149.575 263.402L149.452 263.989L150.175 264.14V263.402H149.575ZM111.335 229.193L111.861 228.903L111.335 229.193ZM102.745 210.113L102.596 209.532L101.953 209.697L102.182 210.32L102.745 210.113ZM163.425 203.664L163.443 203.065L162.825 203.046V203.664H163.425ZM210.255 210.113L210.818 210.32L211.047 209.697L210.404 209.532L210.255 210.113ZM201.665 229.195L202.19 229.485L202.19 229.485L201.665 229.195ZM163.425 263.405H162.825V264.143L163.548 263.992L163.425 263.405ZM223.57 214.068L223.764 213.501L223.207 213.31L223.006 213.864L223.57 214.068ZM246.195 223.921L245.906 224.447L245.908 224.448L246.195 223.921ZM247.542 224.694L247.98 225.104L248.498 224.549L247.839 224.173L247.542 224.694ZM199.191 256.668L198.747 256.265L199.397 257.232L199.191 256.668ZM213.8 235.877L214.326 236.166L214.326 236.166L213.8 235.877ZM89.4244 214.074L89.9884 213.869L89.7876 213.316L89.2305 213.506L89.4244 214.074ZM99.2026 235.877L99.7282 235.587L99.7281 235.587L99.2026 235.877ZM113.809 256.668L113.603 257.232L114.253 256.265L113.809 256.668ZM65.4584 224.694L65.1611 224.173L64.5015 224.549L65.0202 225.104L65.4584 224.694ZM66.8046 223.919L66.5154 223.393L66.5138 223.394L66.8046 223.919ZM156.5 0.4C79.7582 0.4 17.4 62.7582 17.4 139.5H18.6C18.6 63.4209 80.4209 1.6 156.5 1.6V0.4ZM17.4 139.5C17.4 216.242 79.7582 278.6 156.5 278.6V277.4C80.4209 277.4 18.6 215.579 18.6 139.5H17.4ZM156.5 278.6C233.017 278.6 295.202 216.598 295.567 140.168L294.367 140.162C294.005 215.932 232.355 277.4 156.5 277.4V278.6ZM295.564 140.219C295.586 139.982 295.598 139.744 295.6 139.506L294.4 139.494C294.398 139.7 294.388 139.906 294.369 140.111L295.564 140.219ZM295.6 139.492C295.597 139.24 295.583 138.989 295.558 138.738L294.364 138.855C294.385 139.072 294.397 139.29 294.4 139.508L295.6 139.492ZM295.561 138.796V138.763H294.361V138.796H295.561ZM295.561 138.76C295.158 62.3661 232.992 0.4 156.5 0.4V1.6C232.331 1.6 293.961 63.0318 294.361 138.766L295.561 138.76ZM148.975 15.5979V75.3357H150.175V15.5979H148.975ZM149.593 74.736C132.924 74.2387 117.149 71.9621 102.894 68.306L102.596 69.4683C116.939 73.1472 132.803 75.4356 149.557 75.9355L149.593 74.736ZM103.309 69.0939C105.834 62.2131 108.7 55.8369 111.861 50.0939L110.81 49.5153C107.616 55.3177 104.726 61.75 102.182 68.6804L103.309 69.0939ZM111.861 50.0941C122.483 30.8075 135.816 19.0874 149.698 16.1852L149.452 15.0106C135.086 18.014 121.516 30.0771 110.81 49.5152L111.861 50.0941ZM163.302 16.1825C177.187 19.0819 190.519 30.8074 201.139 50.094L202.19 49.5152C191.487 30.0773 177.917 18.0085 163.548 15.0078L163.302 16.1825ZM201.139 50.094C204.3 55.8342 207.166 62.2103 209.691 69.0911L210.818 68.6777C208.274 61.7472 205.384 55.3149 202.19 49.5152L201.139 50.094ZM210.106 68.3032C195.851 71.9593 180.076 74.2386 163.407 74.7332L163.443 75.9327C180.197 75.4356 196.061 73.1444 210.404 69.4656L210.106 68.3032ZM164.025 75.3329V15.5951H162.825V75.3329H164.025ZM113.364 21.9261C107.916 27.9374 102.99 34.9959 98.6742 42.8312L99.7253 43.4101C104.002 35.6447 108.876 28.6648 114.253 22.7319L113.364 21.9261ZM98.6741 42.8314C94.9845 49.5373 91.7062 56.8788 88.8605 64.7186L89.9884 65.128C92.8156 57.3395 96.0691 50.0554 99.7255 43.4099L98.6741 42.8314ZM89.6184 64.3555C81.3756 61.5398 73.8073 58.2487 67.0941 54.5504L66.5151 55.6015C73.2974 59.3378 80.9309 62.656 89.2305 65.4911L89.6184 64.3555ZM67.0917 54.5491C66.6331 54.2992 66.2295 54.0522 65.7557 53.782L65.1611 54.8243C65.5904 55.0692 66.051 55.3486 66.5175 55.6028L67.0917 54.5491ZM65.8966 54.7129C79.2128 40.4734 95.6977 29.5729 114.014 22.8955L113.603 21.7681C95.1095 28.51 78.4651 39.516 65.0202 53.8933L65.8966 54.7129ZM198.986 22.8955C217.303 29.5736 233.787 40.4751 247.103 54.7157L247.98 53.8961C234.535 39.5178 217.891 28.5108 199.397 21.7681L198.986 22.8955ZM247.244 53.7847C246.77 54.0552 246.365 54.3014 245.905 54.5567L246.486 55.6063C246.945 55.3518 247.41 55.0718 247.839 54.827L247.244 53.7847ZM245.906 54.5558C239.193 58.2488 231.621 61.5482 223.376 64.3638L223.764 65.4994C232.067 62.6642 239.703 59.3377 246.485 55.6072L245.906 54.5558ZM224.134 64.7273C221.294 56.8846 218.018 49.5402 214.326 42.834L213.275 43.4128C216.934 50.058 220.184 57.3447 223.006 65.1359L224.134 64.7273ZM214.326 42.8339C210.01 34.9987 205.084 27.9402 199.636 21.9288L198.747 22.7347C204.124 28.6676 208.998 35.6474 213.275 43.4129L214.326 42.8339ZM56.1536 65.599C57.3573 66.3184 58.5707 67.0437 59.833 67.7419L60.4138 66.6918C59.172 66.005 57.9755 65.2899 56.7693 64.5689L56.1536 65.599ZM59.8339 67.7424C67.4577 71.9411 75.8973 75.6139 84.9791 78.7069L85.3659 77.571C76.343 74.498 67.9686 70.8525 60.4128 66.6913L59.8339 67.7424ZM84.5947 77.9773C79.9436 94.5977 77.1559 113.053 76.6201 132.559L77.8196 132.591C78.353 113.178 81.1274 94.8205 85.7503 78.3007L84.5947 77.9773ZM77.2198 131.975H32.0494V133.175H77.2198V131.975ZM32.6486 132.607C33.9544 108.315 42.4059 84.9492 56.9426 65.4425L55.9803 64.7254C41.3025 84.4217 32.7688 108.014 31.4503 132.543L32.6486 132.607ZM256.057 65.4425C270.594 84.9492 279.046 108.315 280.351 132.607L281.55 132.543C280.231 108.014 271.698 84.4217 257.02 64.7254L256.057 65.4425ZM280.951 131.975H235.733V133.175H280.951V131.975ZM236.333 132.559C235.797 113.059 233.02 94.6036 228.383 77.9833L227.227 78.3057C231.837 94.8257 234.6 113.184 235.133 132.591L236.333 132.559ZM227.999 78.7125C237.089 75.6195 245.534 71.9438 253.166 67.7396L252.587 66.6885C245.023 70.8553 236.643 74.5035 227.612 77.5765L227.999 78.7125ZM253.166 67.7398C254.426 67.0468 255.643 66.3181 256.846 65.599L256.231 64.5689C255.024 65.2902 253.826 66.0075 252.587 66.6883L253.166 67.7398ZM98.3366 82.6918C114.075 86.7924 131.355 89.2497 149.559 89.7495L149.591 88.5499C131.474 88.0525 114.285 85.6069 98.6392 81.5305L98.3366 82.6918ZM148.975 89.1497V132.575H150.175V89.1497H148.975ZM149.575 131.975H91.0809V133.175H149.575V131.975ZM91.6806 132.593C92.2167 114.504 94.847 97.4526 99.066 82.2746L97.9098 81.9532C93.6637 97.2286 91.0199 114.376 90.4812 132.557L91.6806 132.593ZM213.934 82.2746C218.153 97.4526 220.783 114.504 221.319 132.593L222.519 132.557C221.98 114.376 219.336 97.2286 215.09 81.9532L213.934 82.2746ZM221.919 131.975H163.425V133.175H221.919V131.975ZM164.025 132.575V89.1469H162.825V132.575H164.025ZM163.441 89.7467C181.642 89.2469 198.928 86.7924 214.663 82.6945L214.361 81.5333C198.718 85.6069 181.523 88.0497 163.409 88.5472L163.441 89.7467ZM32.0522 147.025H77.2198V145.825H32.0522V147.025ZM76.6201 146.441C77.1559 165.947 79.9436 184.4 84.5947 201.017L85.7503 200.694C81.1274 184.177 78.353 165.822 77.8196 146.409L76.6201 146.441ZM84.9787 200.288C75.8998 203.386 67.4604 207.062 59.834 211.26L60.4128 212.312C67.9715 208.15 76.346 204.502 85.3663 201.423L84.9787 200.288ZM59.8343 211.26C58.5736 211.953 57.3559 212.685 56.1536 213.404L56.7693 214.434C57.9769 213.712 59.1746 212.992 60.4125 212.312L59.8343 211.26ZM56.9426 213.56C42.4055 194.053 33.9567 170.686 32.6513 146.393L31.4531 146.457C32.7711 170.987 41.3019 194.58 55.9803 214.277L56.9426 213.56ZM91.0781 147.025H149.575V145.825H91.0781V147.025ZM148.975 146.425V189.803H150.175V146.425H148.975ZM149.559 189.203C131.35 189.703 114.069 192.174 98.3308 196.283L98.6339 197.444C114.28 193.36 131.469 190.9 149.591 190.403L149.559 189.203ZM99.0604 196.703C94.8442 181.531 92.2139 164.488 91.6779 146.407L90.4784 146.443C91.0172 164.616 93.6609 181.755 97.9043 197.025L99.0604 196.703ZM163.425 147.025H221.919V145.825H163.425V147.025ZM221.319 146.407C220.783 164.488 218.156 181.531 213.94 196.703L215.096 197.025C219.339 181.755 221.98 164.616 222.519 146.443L221.319 146.407ZM214.669 196.283C198.931 192.174 181.65 189.706 163.442 189.203L163.408 190.403C181.531 190.903 198.72 193.36 214.366 197.444L214.669 196.283ZM164.025 189.803V146.425H162.825V189.803H164.025ZM235.736 147.025H280.951V145.825H235.736V147.025ZM280.351 146.393C279.046 170.685 270.594 194.051 256.057 213.558L257.02 214.275C271.698 194.578 280.231 170.986 281.55 146.457L280.351 146.393ZM256.846 213.401C255.643 212.682 254.429 211.956 253.167 211.258L252.586 212.308C253.828 212.995 255.024 213.71 256.231 214.431L256.846 213.401ZM253.166 211.258C245.537 207.056 237.089 203.381 228.005 200.282L227.617 201.418C236.643 204.496 245.026 208.145 252.587 212.309L253.166 211.258ZM228.389 201.011C233.029 184.394 235.803 165.941 236.336 146.441L235.136 146.409C234.605 165.817 231.845 184.172 227.233 200.689L228.389 201.011ZM148.975 203.664V263.402H150.175V203.664H148.975ZM149.698 262.815C135.813 259.915 122.481 248.19 111.861 228.903L110.81 229.482C121.513 248.92 135.083 260.989 149.452 263.989L149.698 262.815ZM111.861 228.903C108.7 223.163 105.834 216.787 103.309 209.906L102.182 210.32C104.726 217.25 107.616 223.682 110.81 229.482L111.861 228.903ZM102.894 210.694C117.149 207.038 132.924 204.759 149.593 204.264L149.557 203.065C132.803 203.562 116.939 205.853 102.596 209.532L102.894 210.694ZM163.407 204.264C180.076 204.761 195.851 207.038 210.106 210.694L210.404 209.532C196.061 205.853 180.197 203.564 163.443 203.065L163.407 204.264ZM209.691 209.906C207.166 216.787 204.3 223.163 201.139 228.906L202.19 229.485C205.384 223.682 208.274 217.25 210.818 210.32L209.691 209.906ZM201.139 228.906C190.516 248.193 177.184 259.915 163.302 262.818L163.548 263.992C177.914 260.989 191.484 248.923 202.19 229.485L201.139 228.906ZM164.025 263.405V203.664H162.825V263.405H164.025ZM223.376 214.636C231.621 217.452 239.193 220.748 245.906 224.447L246.485 223.396C239.703 219.659 232.067 216.336 223.764 213.501L223.376 214.636ZM245.908 224.448C246.367 224.698 246.771 224.945 247.244 225.215L247.839 224.173C247.41 223.928 246.949 223.649 246.482 223.394L245.908 224.448ZM247.103 224.284C233.787 238.525 217.303 249.426 198.986 256.105L199.397 257.232C217.891 250.489 234.535 239.482 247.98 225.104L247.103 224.284ZM199.636 257.071C205.084 251.06 210.01 244.001 214.326 236.166L213.275 235.587C208.998 243.353 204.124 250.332 198.747 256.265L199.636 257.071ZM214.326 236.166C218.016 229.46 221.291 222.118 224.134 214.273L223.006 213.864C220.182 221.658 216.931 228.942 213.275 235.587L214.326 236.166ZM88.8605 214.279C91.7062 222.118 94.9845 229.46 98.677 236.166L99.7281 235.587C96.069 228.942 92.8156 221.658 89.9884 213.869L88.8605 214.279ZM98.6769 236.166C102.99 244.001 107.916 251.06 113.364 257.071L114.253 256.265C108.876 250.332 104.002 243.353 99.7282 235.587L98.6769 236.166ZM114.014 256.105C95.6974 249.426 79.2125 238.525 65.8967 224.284L65.0202 225.104C78.4648 239.482 95.1092 250.489 113.603 257.232L114.014 256.105ZM65.7557 225.215C66.2298 224.945 66.6349 224.699 67.0955 224.443L66.5138 223.394C66.0547 223.648 65.59 223.928 65.1611 224.173L65.7557 225.215ZM67.0938 224.444C73.8073 220.751 81.3757 217.457 89.6184 214.642L89.2305 213.506C80.9307 216.341 73.2974 219.662 66.5154 223.393L67.0938 224.444Z" fill="#DCE0E0" mask="url(#path-1-outside-1_270_23286)"/>
<rect x="216" y="5" width="110.318" height="107" rx="53.5" fill="#4071DF"/>
<path d="M252.378 70.9062H246.718C246.017 70.9062 245.424 71.4993 245.424 72.2002V82.1733C245.424 82.8742 246.017 83.4672 246.718 83.4672H252.378C253.079 83.4672 253.672 82.8741 253.672 82.1733V72.2002C253.726 71.4992 253.133 70.9062 252.378 70.9062Z" fill="white"/>
<path d="M265.263 61.6875H259.603C258.902 61.6875 258.309 62.2805 258.309 62.9814V82.119C258.309 82.8199 258.902 83.4129 259.603 83.4129H265.263C265.964 83.4129 266.557 82.8199 266.557 82.119V62.9814C266.557 62.2805 266.018 61.6875 265.263 61.6875Z" fill="white"/>
<path d="M278.148 52.5234H272.487C271.786 52.5234 271.193 53.1165 271.193 53.8173V82.1733C271.193 82.8742 271.786 83.4672 272.487 83.4672H278.148C278.849 83.4672 279.442 82.8742 279.442 82.1733V53.8173C279.441 53.1164 278.848 52.5234 278.148 52.5234Z" fill="white"/>
<path d="M296.314 42.4418L289.198 33.978C288.659 33.3849 287.743 33.3849 287.204 33.978L280.087 42.4418C279.387 43.3044 279.98 44.598 281.058 44.598H284.076V82.1723C284.076 82.8732 284.669 83.4662 285.37 83.4662H291.031C291.732 83.4662 292.325 82.8732 292.325 82.1723V44.598H295.344C296.422 44.598 297.069 43.3041 296.314 42.4418H296.314Z" fill="white"/>
<rect y="197" width="83.1085" height="80.609" rx="40.3045" fill="#4071DF"/>
<path d="M58.2228 249.904C59.4122 250.934 59.5432 252.729 58.5165 253.917C54.566 258.494 49.2753 261.014 43.6232 261.014C34.9324 261.014 26.8302 254.887 23.8998 244.891H17.0691C15.4973 244.891 14.2246 243.619 14.2246 242.047C14.2246 240.475 15.4973 239.202 17.0691 239.202H22.8732C22.7859 237.939 22.7859 236.673 22.8732 235.409L17.0691 235.408C15.4973 235.408 14.2246 234.135 14.2246 232.564C14.2246 230.992 15.4973 229.719 17.0691 229.719H23.8985C26.8329 219.708 34.9483 213.597 43.6219 213.597C49.274 213.597 54.5657 216.117 58.5176 220.692C59.5442 221.881 59.4132 223.677 58.2238 224.705C57.0371 225.731 55.2391 225.6 54.211 224.411C51.3546 221.107 47.5974 219.287 43.6228 219.287C37.3238 219.287 32.2197 223.763 29.8702 229.719H39.8284C41.4002 229.719 42.6729 230.992 42.6729 232.564C42.6742 234.135 41.4015 235.408 39.8284 235.408H28.5178C28.404 236.669 28.404 237.94 28.5178 239.201L39.8284 239.202C41.4002 239.202 42.6729 240.475 42.6729 242.047C42.6742 243.619 41.4015 244.891 39.8284 244.891H29.8689C32.2265 250.866 37.3411 255.323 43.6215 255.323C47.597 255.323 51.3545 253.503 54.2083 250.198C55.2376 249.01 57.0316 248.883 58.2225 249.904L58.2228 249.904Z" fill="white"/>
</svg>
