<svg width="338" height="335" viewBox="0 0 338 335" fill="none" xmlns="http://www.w3.org/2000/svg">
<path d="M3 13.3467V312.653" stroke="#A6AEF5" stroke-opacity="0.5" stroke-width="0.735611"/>
<path d="M36.4658 13.3467V312.653" stroke="#A6AEF5" stroke-opacity="0.5" stroke-width="0.735611"/>
<path d="M69.9326 13.3467V312.653" stroke="#A6AEF5" stroke-opacity="0.5" stroke-width="0.735611"/>
<path d="M103.398 13.3467V312.653" stroke="#A6AEF5" stroke-opacity="0.5" stroke-width="0.735611"/>
<path d="M136.864 13.3467V312.653" stroke="#A6AEF5" stroke-opacity="0.5" stroke-width="0.735611"/>
<path d="M170.331 13.3467V312.653" stroke="#A6AEF5" stroke-opacity="0.5" stroke-width="0.735611"/>
<path d="M203.798 13.3467V312.653" stroke="#A6AEF5" stroke-opacity="0.5" stroke-width="0.735611"/>
<path d="M237.264 13.3467V312.653" stroke="#A6AEF5" stroke-opacity="0.5" stroke-width="0.735611"/>
<path d="M270.73 13.3467V312.653" stroke="#A6AEF5" stroke-opacity="0.5" stroke-width="0.735611"/>
<path d="M304.196 13.3467V312.653" stroke="#A6AEF5" stroke-opacity="0.5" stroke-width="0.735611"/>
<path d="M337.592 13.3467V312.653" stroke="#A6AEF5" stroke-opacity="0.5" stroke-width="0.735611"/>
<path d="M3 313H337.903" stroke="#A6AEF5" stroke-opacity="0.5" stroke-width="0.735611"/>
<path d="M3 279.759H337.903" stroke="#A6AEF5" stroke-opacity="0.5" stroke-width="0.735611"/>
<path d="M3 246.518L337.903 246.518" stroke="#A6AEF5" stroke-opacity="0.5" stroke-width="0.735611"/>
<path d="M3 213.277L337.903 213.277" stroke="#A6AEF5" stroke-opacity="0.5" stroke-width="0.735611"/>
<path d="M3 180.036L337.903 180.036" stroke="#A6AEF5" stroke-opacity="0.5" stroke-width="0.735611"/>
<path d="M3 145.964L337.903 145.964" stroke="#A6AEF5" stroke-opacity="0.5" stroke-width="0.735611"/>
<path d="M3 112.723L337.903 112.723" stroke="#A6AEF5" stroke-opacity="0.5" stroke-width="0.735611"/>
<path d="M3 79.4824L337.903 79.4824" stroke="#A6AEF5" stroke-opacity="0.5" stroke-width="0.735611"/>
<path d="M3 46.2412L337.903 46.2412" stroke="#A6AEF5" stroke-opacity="0.5" stroke-width="0.735611"/>
<path d="M3 13H337.903" stroke="#A6AEF5" stroke-opacity="0.5" stroke-width="0.735611"/>
<g opacity="0.8" filter="url(#filter0_d_270_23405)">
<path d="M172.628 54.7967C170.936 52.2527 166.738 52.2527 165.044 54.7967C158.181 65.1246 104.563 89.3531 84.9756 89.3531C82.4615 89.3531 78.624 91.4055 78.624 93.9293V180.846C78.624 225.569 161.187 270.806 165.764 272.107C166.165 272.219 167.476 272.279 167.897 272.279C168.318 272.279 170.973 272.219 171.374 272.107C175.171 271.03 258.956 222.432 258.956 185.424V93.9336C258.956 91.4097 255.119 89.3574 252.605 89.3574C230.653 89.3574 179.29 64.8172 172.627 54.801L172.628 54.7967Z" fill="url(#paint0_linear_270_23405)" shape-rendering="crispEdges"/>
<path d="M172.628 54.7967C170.936 52.2527 166.738 52.2527 165.044 54.7967C158.181 65.1246 104.563 89.3531 84.9756 89.3531C82.4615 89.3531 78.624 91.4055 78.624 93.9293V180.846C78.624 225.569 161.187 270.806 165.764 272.107C166.165 272.219 167.476 272.279 167.897 272.279C168.318 272.279 170.973 272.219 171.374 272.107C175.171 271.03 258.956 222.432 258.956 185.424V93.9336C258.956 91.4097 255.119 89.3574 252.605 89.3574C230.653 89.3574 179.29 64.8172 172.627 54.801L172.628 54.7967Z" stroke="#DCE0E0" stroke-miterlimit="10" stroke-linecap="round" stroke-linejoin="round" shape-rendering="crispEdges"/>
</g>
<g filter="url(#filter1_d_270_23405)">
<circle cx="168.017" cy="162.227" r="35.3759" fill="#4071DF"/>
</g>
<path fill-rule="evenodd" clip-rule="evenodd" d="M179.481 154.038C179.481 147.706 174.348 142.573 168.016 142.573C161.685 142.573 156.552 147.706 156.552 154.038V163.865H159.828V154.038C159.828 149.515 163.494 145.849 168.016 145.849C172.539 145.849 176.205 149.515 176.205 154.038V163.865H179.481L179.481 154.038Z" fill="#F4F4F4"/>
<path fill-rule="evenodd" clip-rule="evenodd" d="M151.639 162.236V178.595C151.639 180.409 153.11 181.88 154.899 181.88H181.134C182.934 181.88 184.394 180.411 184.394 178.595V162.236C184.394 160.422 182.923 158.951 181.134 158.951H154.899C153.099 158.951 151.639 160.42 151.639 162.236Z" fill="#F4F4F4"/>
<defs>
<filter id="filter0_d_270_23405" x="65.6587" y="42.4164" width="206.263" height="245.321" filterUnits="userSpaceOnUse" color-interpolation-filters="sRGB">
<feFlood flood-opacity="0" result="BackgroundImageFix"/>
<feColorMatrix in="SourceAlpha" type="matrix" values="0 0 0 0 0 0 0 0 0 0 0 0 0 0 0 0 0 0 127 0" result="hardAlpha"/>
<feOffset dy="2.49307"/>
<feGaussianBlur stdDeviation="6.23269"/>
<feComposite in2="hardAlpha" operator="out"/>
<feColorMatrix type="matrix" values="0 0 0 0 0 0 0 0 0 0 0 0 0 0 0 0 0 0 0.04 0"/>
<feBlend mode="normal" in2="BackgroundImageFix" result="effect1_dropShadow_270_23405"/>
<feBlend mode="normal" in="SourceGraphic" in2="effect1_dropShadow_270_23405" result="shape"/>
</filter>
<filter id="filter1_d_270_23405" x="0.885207" y="0.262046" width="334.263" height="334.263" filterUnits="userSpaceOnUse" color-interpolation-filters="sRGB">
<feFlood flood-opacity="0" result="BackgroundImageFix"/>
<feColorMatrix in="SourceAlpha" type="matrix" values="0 0 0 0 0 0 0 0 0 0 0 0 0 0 0 0 0 0 127 0" result="hardAlpha"/>
<feMorphology radius="15.5006" operator="dilate" in="SourceAlpha" result="effect1_dropShadow_270_23405"/>
<feOffset dy="5.16688"/>
<feGaussianBlur stdDeviation="58.1274"/>
<feComposite in2="hardAlpha" operator="out"/>
<feColorMatrix type="matrix" values="0 0 0 0 0 0 0 0 0 0 0 0 0 0 0 0 0 0 0.05 0"/>
<feBlend mode="normal" in2="BackgroundImageFix" result="effect1_dropShadow_270_23405"/>
<feBlend mode="normal" in="SourceGraphic" in2="effect1_dropShadow_270_23405" result="shape"/>
</filter>
<linearGradient id="paint0_linear_270_23405" x1="168.79" y1="52.8887" x2="168.79" y2="272.279" gradientUnits="userSpaceOnUse">
<stop stop-color="white"/>
<stop offset="1" stop-color="white" stop-opacity="0.62"/>
</linearGradient>
</defs>
</svg>
