<svg width="204" height="300" viewBox="0 0 204 300" fill="none" xmlns="http://www.w3.org/2000/svg">
<circle cx="78.7285" cy="51.3811" r="24.0331" fill="#4071DF"/>
<path d="M80.3553 49.339L80.3553 49.339C78.9908 48.8026 78.0046 48.3502 77.3587 47.8847C76.7046 47.4134 76.3689 46.9054 76.3689 46.2618C76.3689 45.74 76.5582 45.2073 77.043 44.8096C77.5227 44.4161 78.2668 44.1752 79.3386 44.1752C80.6057 44.1752 81.6277 44.4012 82.4368 44.6703C82.8018 44.791 83.1992 44.7502 83.5353 44.5548L83.5355 44.5547C83.8721 44.3594 84.1205 44.0272 84.2174 43.633L84.2176 43.6322L84.2349 43.5629C84.3584 43.0603 84.2837 42.5273 84.0288 42.0838L80.3553 49.339ZM80.3553 49.339L80.3594 49.3406M80.3553 49.339L80.3594 49.3406M80.3594 49.3406C82.2555 50.0394 83.5594 50.8372 84.3902 51.8133C85.2158 52.7833 85.5901 53.9483 85.5901 55.4188C85.5901 58.2087 83.7463 60.6048 80.3418 61.3432L80.1785 61.3786V61.5456V64.1358C80.1785 64.5338 79.8729 64.8397 79.5131 64.8397H77.768C77.409 64.8397 77.1026 64.5336 77.1026 64.1358V61.8573V61.6599L76.9054 61.6504C75.679 61.591 74.4756 61.3665 73.4494 61.0455L73.4493 61.0454C72.4602 60.7368 71.8681 59.6609 72.1268 58.5999M80.3594 49.3406L72.1268 58.5999M74.1449 57.292C73.6956 57.1254 73.2008 57.1625 72.7802 57.3969C72.3597 57.63 72.0526 58.0372 71.9339 58.5192L71.9261 58.5484M74.1449 57.292L80.3857 64.1358C80.3857 64.6397 79.9957 65.0469 79.5131 65.0469H77.768C77.2864 65.0469 76.8954 64.6397 76.8954 64.1358V61.8573C75.6512 61.7971 74.4304 61.5694 73.3876 61.2432C72.2873 60.8999 71.6416 59.71 71.9261 58.5484M74.1449 57.292C75.2164 57.6893 76.452 57.9681 77.7643 57.9681C79.595 57.9681 80.848 57.231 80.848 55.8881C80.848 54.6143 79.8211 53.809 77.4434 52.97C74.0056 51.7615 71.6602 50.0853 71.6602 46.8311L74.1449 57.292ZM71.9261 58.5484L72.1261 58.6022L72.1268 58.5999M71.9261 58.5484L72.1273 58.5977C72.1271 58.5984 72.127 58.5991 72.1268 58.5999M72.1268 58.5999L72.134 58.5731L72.134 58.5731L72.1351 58.5687C72.2405 58.1407 72.5124 57.7822 72.8807 57.578L72.8811 57.5778C73.2486 57.3731 73.6802 57.3406 74.0729 57.4863C75.1629 57.8904 76.423 58.1752 77.7643 58.1752C78.7034 58.1752 79.5184 57.9868 80.1056 57.6054C80.7017 57.2182 81.0552 56.6352 81.0552 55.8881C81.0552 55.1822 80.7651 54.6069 80.1706 54.1074C79.587 53.617 78.7065 53.196 77.5123 52.7746L77.5121 52.7745C75.8034 52.1739 74.3905 51.4647 73.4062 50.5184C72.4296 49.5795 71.8673 48.4003 71.8673 46.8311C71.8673 44.0496 73.706 41.8505 76.9414 41.1159L77.1027 41.0792V40.9138V38.6262C77.1027 38.2292 77.4092 37.9223 77.7681 37.9223H79.5132C79.8729 37.9223 80.1786 38.229 80.1786 38.6262V40.6351V40.831L80.3742 40.8419C81.3528 40.8968 82.1816 41.0262 82.8854 41.2046C83.3615 41.3254 83.7739 41.6406 84.0288 42.0838L72.1268 58.5999Z" fill="white" stroke="#4071DF" stroke-width="0.414365"/>
<circle cx="176.103" cy="72.5137" r="21.1326" fill="#4071DF"/>
<path d="M169.941 80.3866H181.537V77.5071H173.684C174.312 76.8527 174.6 76.2507 174.731 75.8319C175.071 74.7849 174.993 73.4761 174.993 73.4237H179.312L179.312 70.7799H175.202V68.0838C175.281 67.8482 175.516 67.3248 176.04 66.9844C176.537 66.6703 177.035 66.6703 177.453 66.6964C177.453 66.6964 178.396 66.7226 179.836 67.377C179.809 67.3509 180.699 65.4662 180.778 64.9949C179.914 64.4975 177.925 63.4767 175.569 63.9216C175.071 64.0263 174.339 64.1572 173.606 64.733C172.192 65.8063 171.956 67.5077 171.904 67.9789V70.7799H169.889V73.3189H171.852C171.773 74.0258 171.695 74.7324 171.59 75.4392C171.512 75.6486 171.381 75.9102 171.224 76.2245C171.093 76.46 170.988 76.6434 170.805 76.8528C170.648 77.0361 170.386 77.2977 169.915 77.5072V80.3864L169.941 80.3866Z" fill="white"/>
<circle cx="16.5746" cy="91.9891" r="16.5746" fill="#4071DF"/>
<path d="M12.5659 87.8769C13.7834 87.8769 14.9461 88.4051 15.7487 89.3207L17.0383 88.1922C15.9098 86.9026 14.2808 86.162 12.5659 86.162C9.29052 86.162 6.62891 88.8269 6.62891 92.099C6.62891 95.3711 9.29382 98.036 12.5659 98.036C14.2808 98.036 15.9101 97.2951 17.0383 96.0056L15.7487 94.8771C14.9461 95.7963 13.787 96.3209 12.5659 96.3209C10.2371 96.3209 8.34372 94.4278 8.34372 92.0988C8.34372 89.7736 10.2371 87.8769 12.5659 87.8769ZM21.6927 91.1351C20.3448 91.1351 19.405 90.4353 19.405 89.8111V89.1458C19.405 88.5183 20.3448 87.8219 21.6927 87.8219H24.8378V86.107H22.5501V85.3594H20.8352V86.1757C19.0175 86.4673 17.6902 87.6675 17.6902 89.1458V89.8078C17.6902 91.5124 19.4462 92.8466 21.6927 92.8466C23.0406 92.8466 23.9803 93.5464 23.9803 94.1706V94.8326C23.9803 95.4601 23.0406 96.1565 21.6927 96.1565H18.5476V97.8714H20.8352V98.619H22.5501V97.8028C24.3679 97.5111 25.6952 96.3109 25.6952 94.8326V94.1706C25.6919 92.4694 23.9358 91.1351 21.6927 91.1351V91.1351Z" fill="white"/>
<circle cx="141.297" cy="13.674" r="13.674" fill="#4071DF"/>
<path d="M142.19 12.5954L142.19 12.5954L142.194 12.597C143.266 12.9921 143.992 13.4392 144.45 13.978C144.904 14.5106 145.112 15.1516 145.112 15.9715C145.112 17.5127 144.096 18.8429 142.196 19.255L142.033 19.2904V19.4574V20.9311C142.033 21.1119 141.895 21.2424 141.743 21.2424H140.751C140.599 21.2424 140.461 21.1118 140.461 20.9311V19.6348V19.4374L140.264 19.4278C139.574 19.3944 138.897 19.268 138.32 19.0876L138.32 19.0876C137.805 18.927 137.491 18.3639 137.627 17.8036L137.631 17.7894L137.631 17.7894L137.632 17.785C137.687 17.5648 137.826 17.3818 138.013 17.2781L138.014 17.2779C138.2 17.1741 138.418 17.1577 138.617 17.2315C139.245 17.4644 139.973 17.6291 140.748 17.6291C141.293 17.6291 141.776 17.5201 142.129 17.2905C142.492 17.055 142.71 16.6962 142.71 16.2385C142.71 15.8071 142.531 15.4558 142.175 15.157C141.83 14.8672 141.317 14.6234 140.635 14.3828L140.635 14.3827C139.667 14.0425 138.877 13.6442 138.331 13.1189C137.792 12.6011 137.483 11.9533 137.483 11.0854C137.483 9.55107 138.493 8.33099 140.3 7.92069L140.461 7.88406V7.71865V6.41708C140.461 6.23682 140.599 6.10586 140.751 6.10586H141.743C141.895 6.10586 142.033 6.23668 142.033 6.41708V7.56006V7.75596L142.228 7.76692C142.78 7.79783 143.246 7.87073 143.64 7.97067C143.887 8.03325 144.102 8.19691 144.235 8.42881C144.369 8.66102 144.408 8.94071 144.343 9.20458L144.333 9.24369L144.333 9.24448C144.284 9.44579 144.157 9.61433 143.987 9.71293L143.987 9.71304C143.818 9.81137 143.618 9.83178 143.435 9.77121C142.967 9.61559 142.376 9.48494 141.644 9.48494C141.022 9.48494 140.576 9.62459 140.281 9.86619C139.982 10.1119 139.865 10.4421 139.865 10.7615C139.865 11.1665 140.08 11.4793 140.465 11.7573C140.843 12.0294 141.414 12.2903 142.19 12.5954Z" fill="white" stroke="#4071DF" stroke-width="0.414365"/>
<rect x="12.8441" y="146.271" width="189.779" height="153.315" rx="16.1602" fill="white" stroke="#DCE0E0" stroke-width="0.828729"/>
<rect opacity="0.8" x="43.9219" y="152.486" width="127.624" height="10.7735" rx="5.38674" fill="#CCCCCC" stroke="white" stroke-width="2.48619"/>
<path d="M131.291 215.698L131.302 215.708L131.313 215.718C131.34 215.741 131.366 215.757 131.384 215.768C131.384 215.769 131.385 215.769 131.386 215.769C138.131 222.591 141.333 230.657 141.333 239.212C141.333 247.782 138.118 255.843 131.39 262.651C131.387 262.652 131.385 262.654 131.382 262.656C131.363 262.668 131.336 262.685 131.308 262.71L131.3 262.717L131.292 262.724C125.097 268.724 116.77 272.085 108.097 272.085C99.4243 272.085 91.0978 268.724 84.9018 262.724L84.8912 262.714L84.8798 262.704C84.8523 262.681 84.8269 262.665 84.8091 262.654C84.8081 262.653 84.807 262.653 84.8061 262.652C78.0613 255.831 74.8597 247.765 74.8597 239.211C74.8597 230.64 78.0749 222.579 84.804 215.77C84.8053 215.77 84.8067 215.769 84.8081 215.768C84.8272 215.757 84.8552 215.738 84.8852 215.712L84.8929 215.705L84.9003 215.698C91.0953 209.697 99.4226 206.336 108.096 206.336C116.769 206.336 125.095 209.697 131.291 215.698ZM84.7763 262.635C84.7739 262.634 84.7746 262.634 84.7771 262.636L84.7763 262.635ZM100.332 208.622L100.168 208.614L100.116 208.658C95.0922 209.947 90.4618 212.432 86.6281 215.895L86.2881 216.202L86.6278 216.51C88.5009 218.205 90.5723 219.673 92.7981 220.881L92.952 220.598L93.2864 220.813L93.2869 220.812L93.6846 220.42L93.5085 220.324C95.2897 215.562 97.7316 211.776 100.581 209.351L100.382 209.118L100.332 208.622L100.332 208.622ZM85.6368 217.403L85.3116 217.665L85.0606 217.421C79.6399 223.009 76.4949 230.381 76.2299 238.123L76.2153 238.552H76.644H89.9663H90.3768L90.3807 238.141C90.4298 232.917 91.211 227.726 92.7018 222.714L92.7986 222.388L92.4984 222.229C90.0133 220.915 87.7079 219.293 85.6368 217.403ZM76.6435 239.87H76.0852L76.2316 240.353C76.5095 248.075 79.6524 255.425 85.0603 261.001L85.3402 261.29L85.6371 261.019C87.7082 259.128 90.0135 257.507 92.4986 256.192L92.7989 256.033L92.702 255.708C91.2113 250.696 90.4301 245.504 90.3809 240.28L89.9671 240.284V239.87H89.9666H89.5483H76.6435ZM100.21 269.787L100.304 269.418L100.604 269.091L100.604 269.091L100.523 269.011L100.508 269.007C97.6237 266.523 95.1636 262.64 93.3854 257.762L93.2208 257.31L92.7984 257.54C90.6164 258.725 88.5828 260.158 86.7389 261.812L85.8813 261.852L86.6282 262.526C90.486 266.011 95.1503 268.505 100.21 269.787ZM106.956 270.681L107.425 270.743V270.27V254.116V253.688L106.997 253.702C102.78 253.836 98.6322 254.8 94.7963 256.539L94.4492 256.697L94.577 257.056C95.9357 260.873 97.7233 264.098 99.8186 266.459C101.914 268.819 104.336 270.336 106.956 270.681ZM107.023 252.383L107.425 252.371L107.425 251.968L107.424 240.283L107.424 239.869H107.01H92.1369H91.7177L91.7225 240.288C91.78 245.26 92.512 250.2 93.8985 254.978L94.0308 255.434L94.4648 255.241C98.4205 253.483 102.688 252.511 107.023 252.383ZM107.01 238.551H107.425L107.425 238.137L107.425 226.452L107.425 226.05L107.023 226.038C102.688 225.909 98.421 224.938 94.4653 223.179L94.0313 222.986L93.899 223.442C92.5125 228.221 91.7805 233.161 91.723 238.132L91.7182 238.551H92.1374H107.01ZM106.997 224.72L107.425 224.733V224.306V208.151V207.679L106.956 207.741C104.336 208.086 101.914 209.602 99.8186 211.963C97.7233 214.324 95.9357 217.549 94.577 221.366L94.4492 221.725L94.7963 221.882C98.632 223.621 102.78 224.586 106.997 224.72ZM115.981 208.634L115.888 209.003L115.587 209.33L115.588 209.33L115.668 209.41L115.684 209.414C118.568 211.899 121.028 215.781 122.806 220.659L122.971 221.111L123.394 220.882C125.576 219.697 127.609 218.263 129.453 216.61L130.31 216.569L129.564 215.895C125.706 212.41 121.042 209.917 115.981 208.634ZM109.236 207.74L108.767 207.679V208.151V224.305V224.733L109.195 224.72C113.412 224.586 117.56 223.621 121.396 221.882L121.743 221.725L121.615 221.366C120.256 217.548 118.469 214.323 116.373 211.963C114.278 209.602 111.856 208.086 109.236 207.74ZM109.169 226.039L108.767 226.051L108.767 226.453L108.768 238.138L108.768 238.552H109.182H124.055H124.474L124.469 238.133C124.412 233.162 123.68 228.222 122.293 223.443L122.161 222.987L121.727 223.18C117.771 224.939 113.504 225.91 109.169 226.039ZM109.181 239.87H108.767L108.767 240.284L108.767 251.969L108.767 252.372L109.169 252.384C113.504 252.512 117.771 253.484 121.727 255.242L122.161 255.435L122.293 254.979C123.679 250.201 124.411 245.26 124.469 240.289L124.474 239.87H124.055H109.181ZM108.767 270.27V270.743L109.236 270.681C111.856 270.336 114.278 268.819 116.373 266.459C118.469 264.098 120.256 260.873 121.615 257.056L121.743 256.697L121.396 256.539C117.56 254.8 113.412 253.836 109.195 253.702L108.767 253.688V254.116V270.27ZM115.611 269.07L114.713 269.835L115.892 269.799L115.892 269.799L115.938 269.798L115.982 269.787C121.042 268.505 125.706 266.011 129.564 262.526L129.904 262.219L129.564 261.911C127.691 260.216 125.62 258.748 123.394 257.54L123.233 257.837L122.807 257.762C121.016 262.681 118.527 266.588 115.611 269.07ZM130.556 261.018L131.043 261.463L131.204 260.927C136.581 255.347 139.7 248.006 139.964 240.298L139.55 240.284V239.869H139.55H139.149H126.227H125.816L125.812 240.28C125.763 245.504 124.982 250.695 123.491 255.707L123.394 256.033L123.695 256.192C126.18 257.506 128.485 259.128 130.556 261.018ZM125.812 238.141L125.816 238.551L126.227 238.551L139.549 238.55L139.978 238.55L139.964 238.122C139.698 230.381 136.554 223.009 131.133 217.42L130.853 217.131L130.556 217.402C128.485 219.293 126.18 220.914 123.695 222.229L123.394 222.388L123.491 222.713C124.982 227.725 125.763 232.917 125.812 238.141Z" fill="#4071DF" stroke="#4071DF" stroke-width="0.828729"/>
<g filter="url(#filter0_d_270_23138)">
<rect x="77.9004" y="97.79" width="63.7479" height="61.8307" rx="30.9153" fill="#4071DF"/>
</g>
<path d="M117.57 135.446C118.206 135.997 118.276 136.957 117.727 137.593C115.614 140.041 112.783 141.39 109.759 141.39C105.11 141.39 100.775 138.112 99.2074 132.764H95.553C94.7121 132.764 94.0312 132.083 94.0312 131.243C94.0312 130.402 94.7121 129.721 95.553 129.721H98.6582C98.6115 129.045 98.6115 128.367 98.6582 127.692L95.553 127.691C94.7121 127.691 94.0312 127.01 94.0312 126.169C94.0312 125.328 94.7121 124.647 95.553 124.647H99.2067C100.777 119.291 105.118 116.022 109.758 116.022C112.782 116.022 115.613 117.37 117.728 119.818C118.277 120.454 118.207 121.415 117.57 121.965C116.936 122.514 115.974 122.444 115.424 121.808C113.895 120.04 111.885 119.066 109.759 119.066C106.389 119.066 103.658 121.461 102.401 124.647H107.729C108.57 124.647 109.251 125.328 109.251 126.169C109.252 127.01 108.571 127.691 107.729 127.691H101.678C101.617 128.365 101.617 129.046 101.678 129.72L107.729 129.721C108.57 129.721 109.251 130.402 109.251 131.242C109.252 132.083 108.571 132.764 107.729 132.764H102.401C103.662 135.961 106.398 138.345 109.758 138.345C111.885 138.345 113.895 137.371 115.422 135.603C115.973 134.968 116.933 134.9 117.57 135.446L117.57 135.446Z" fill="white"/>
<defs>
<filter id="filter0_d_270_23138" x="65.4695" y="87.8453" width="88.6099" height="86.6926" filterUnits="userSpaceOnUse" color-interpolation-filters="sRGB">
<feFlood flood-opacity="0" result="BackgroundImageFix"/>
<feColorMatrix in="SourceAlpha" type="matrix" values="0 0 0 0 0 0 0 0 0 0 0 0 0 0 0 0 0 0 127 0" result="hardAlpha"/>
<feOffset dy="2.48619"/>
<feGaussianBlur stdDeviation="6.21547"/>
<feComposite in2="hardAlpha" operator="out"/>
<feColorMatrix type="matrix" values="0 0 0 0 0 0 0 0 0 0 0 0 0 0 0 0 0 0 0.04 0"/>
<feBlend mode="normal" in2="BackgroundImageFix" result="effect1_dropShadow_270_23138"/>
<feBlend mode="normal" in="SourceGraphic" in2="effect1_dropShadow_270_23138" result="shape"/>
</filter>
</defs>
</svg>
