<svg width="417" height="272" viewBox="0 0 417 272" fill="none" xmlns="http://www.w3.org/2000/svg">
<rect x="0.430986" y="0.430986" width="415.758" height="271.138" rx="17.7644" fill="white" stroke="#DCE0E0" stroke-width="0.861972"/>
<path d="M44.8993 132.519C44.8993 134.174 43.6581 135.338 41.7119 135.583V137.177L40.1949 137.162V135.568C38.4479 135.292 37.0841 134.02 36.8083 132.289L38.4479 131.783C38.6318 133.162 39.6892 134.066 40.9764 134.066C42.2483 134.066 43.0758 133.469 43.0758 132.549C43.0758 130.006 37.2067 131.4 37.2067 127.538C37.2067 126.037 38.4479 124.933 40.1949 124.703V123.248H41.7119V124.719C43.321 124.979 44.5162 125.96 44.7767 127.339L43.1677 127.998C42.9532 126.91 42.1104 126.221 40.8844 126.221C39.7198 126.221 39.0149 126.711 39.0149 127.538C39.0149 129.699 44.8993 128.197 44.8993 132.519ZM48.2839 135.507V126.849C47.5637 127.477 46.7668 127.814 45.8014 128.013V126.404C46.8281 126.175 47.8088 125.608 48.575 124.78H49.9695V135.507H48.2839ZM51.4595 135.507V134.02L55.3518 130.695C56.5624 129.668 57.0834 128.841 57.0834 127.983C57.0834 126.91 56.3632 126.221 55.2445 126.221C53.9267 126.221 53.1605 127.201 53.3137 128.703L51.5821 128.58C51.3982 126.312 52.9919 124.657 55.2445 124.657C57.4512 124.657 58.907 125.991 58.907 127.983C58.907 129.301 58.1408 130.496 56.4245 131.89L53.9727 133.928H58.8916V135.507H51.4595ZM64.5517 135.629C61.8393 135.629 60.3069 133.438 60.3069 130.143C60.3069 126.849 61.8393 124.657 64.5517 124.657C67.2487 124.657 68.7964 126.849 68.7964 130.143C68.7964 133.438 67.2487 135.629 64.5517 135.629ZM64.5517 134.051C66.13 134.051 66.9882 132.565 66.9882 130.143C66.9882 127.722 66.13 126.221 64.5517 126.221C62.958 126.221 62.1152 127.722 62.1152 130.143C62.1152 132.565 62.958 134.051 64.5517 134.051ZM74.204 135.629C71.4916 135.629 69.9592 133.438 69.9592 130.143C69.9592 126.849 71.4916 124.657 74.204 124.657C76.901 124.657 78.4487 126.849 78.4487 130.143C78.4487 133.438 76.901 135.629 74.204 135.629ZM74.204 134.051C75.7823 134.051 76.6405 132.565 76.6405 130.143C76.6405 127.722 75.7823 126.221 74.204 126.221C72.6103 126.221 71.7675 127.722 71.7675 130.143C71.7675 132.565 72.6103 134.051 74.204 134.051ZM81.0979 135.629C80.4697 135.629 80.0099 135.17 80.0099 134.557C80.0099 133.944 80.4697 133.484 81.0979 133.484C81.7262 133.484 82.1859 133.944 82.1859 134.557C82.1859 135.17 81.7262 135.629 81.0979 135.629ZM83.6338 135.507V134.02L87.5261 130.695C88.7367 129.668 89.2577 128.841 89.2577 127.983C89.2577 126.91 88.5375 126.221 87.4188 126.221C86.101 126.221 85.3348 127.201 85.488 128.703L83.7564 128.58C83.5725 126.312 85.1662 124.657 87.4188 124.657C89.6255 124.657 91.0813 125.991 91.0813 127.983C91.0813 129.301 90.3151 130.496 88.5988 131.89L86.1469 133.928H91.0659V135.507H83.6338ZM96.0257 135.629C93.8497 135.629 92.2867 134.388 92.0875 132.488L93.7425 132.228C93.8957 133.331 94.7998 134.051 96.0257 134.051C97.3283 134.051 98.2017 133.27 98.2017 132.074C98.2017 130.848 97.3896 130.128 96.087 130.128C95.7039 130.128 95.2289 130.235 94.8918 130.465L94.1562 129.301L97.2823 126.343H92.394V124.78H99.397V126.266L96.5161 128.933C98.5848 128.81 100.025 130.067 100.025 132.12C100.025 134.22 98.4316 135.629 96.0257 135.629Z" fill="#484848"/>
<path d="M160.191 134.465L159.419 132.41H155.833L155.061 134.465H153.555L156.941 125.749H158.298L161.698 134.465H160.191ZM156.306 131.153H158.946L157.626 127.667L156.306 131.153ZM166.212 134.564C163.958 134.564 161.929 133.083 161.929 130.107C161.929 127.131 163.983 125.65 166.212 125.65C168.229 125.65 169.686 126.758 169.997 128.488L168.553 128.8C168.304 127.629 167.42 126.919 166.212 126.919C164.618 126.919 163.41 128.04 163.41 130.107C163.41 132.174 164.606 133.282 166.212 133.282C167.432 133.282 168.254 132.622 168.528 131.526L169.984 131.838C169.561 133.518 168.167 134.564 166.212 134.564ZM176.695 125.749H178.165V134.465H176.695V130.555H172.587V134.465H171.13V125.749H172.587V129.273H176.695V125.749Z" fill="#484848"/>
<rect x="227.943" y="113.972" width="84.9859" height="31.9859" rx="15.993" fill="#E1FBF5"/>
<path d="M243.109 134.564C241.415 134.564 240.021 133.444 239.772 131.85L241.104 131.439C241.253 132.56 242.112 133.294 243.158 133.294C244.192 133.294 244.864 132.809 244.864 132.062C244.864 129.995 240.095 131.128 240.095 127.99C240.095 126.608 241.378 125.65 243.084 125.65C244.715 125.65 245.997 126.521 246.246 127.828L244.939 128.364C244.764 127.48 244.08 126.919 243.084 126.919C242.137 126.919 241.565 127.318 241.565 127.99C241.565 129.746 246.346 128.526 246.346 132.037C246.346 133.556 245.063 134.564 243.109 134.564ZM253.254 128.189V134.465H251.897V133.419C251.486 134.091 250.752 134.564 249.843 134.564C248.498 134.564 247.564 133.68 247.564 132.323V128.189H248.921V132.012C248.921 132.796 249.419 133.344 250.216 133.344C251.262 133.344 251.897 132.448 251.897 130.941V128.189H253.254ZM257.673 134.564C255.793 134.564 254.523 133.257 254.523 131.327C254.523 129.397 255.793 128.09 257.673 128.09C259.217 128.09 260.325 128.912 260.537 130.206L259.217 130.468C259.093 129.758 258.508 129.273 257.711 129.273C256.628 129.273 255.93 130.082 255.93 131.327C255.93 132.572 256.64 133.381 257.711 133.381C258.508 133.381 259.068 132.946 259.217 132.211L260.55 132.472C260.288 133.78 259.205 134.564 257.673 134.564ZM264.592 134.564C262.712 134.564 261.442 133.257 261.442 131.327C261.442 129.397 262.712 128.09 264.592 128.09C266.136 128.09 267.244 128.912 267.455 130.206L266.136 130.468C266.011 129.758 265.426 129.273 264.629 129.273C263.546 129.273 262.849 130.082 262.849 131.327C262.849 132.572 263.558 133.381 264.629 133.381C265.426 133.381 265.986 132.946 266.136 132.211L267.468 132.472C267.206 133.78 266.123 134.564 264.592 134.564ZM274.511 131.09C274.511 131.277 274.498 131.539 274.486 131.651H269.692C269.817 132.734 270.514 133.406 271.51 133.406C272.332 133.406 272.917 133.02 273.079 132.336L274.361 132.659C274.025 133.867 272.954 134.564 271.485 134.564C269.493 134.564 268.36 133.02 268.36 131.327C268.36 129.634 269.431 128.09 271.423 128.09C273.44 128.09 274.511 129.559 274.511 131.09ZM269.755 130.617H273.067C272.979 129.771 272.419 129.161 271.423 129.161C270.564 129.161 269.954 129.684 269.755 130.617ZM277.878 134.564C276.347 134.564 275.475 133.618 275.189 132.722L276.31 132.248C276.521 132.921 277.007 133.481 277.878 133.481C278.526 133.481 278.962 133.107 278.962 132.659C278.962 131.302 275.463 132.186 275.463 129.808C275.463 128.824 276.322 128.09 277.679 128.09C278.862 128.09 279.858 128.712 280.132 129.634L279.011 130.107C278.85 129.484 278.264 129.136 277.692 129.136C277.094 129.136 276.721 129.372 276.721 129.783C276.721 130.991 280.244 130.07 280.244 132.647C280.244 133.73 279.298 134.564 277.878 134.564ZM283.63 134.564C282.098 134.564 281.227 133.618 280.94 132.722L282.061 132.248C282.272 132.921 282.758 133.481 283.63 133.481C284.277 133.481 284.713 133.107 284.713 132.659C284.713 131.302 281.214 132.186 281.214 129.808C281.214 128.824 282.073 128.09 283.43 128.09C284.613 128.09 285.609 128.712 285.883 129.634L284.763 130.107C284.601 129.484 284.016 129.136 283.443 129.136C282.845 129.136 282.472 129.372 282.472 129.783C282.472 130.991 285.995 130.07 285.995 132.647C285.995 133.73 285.049 134.564 283.63 134.564ZM287.678 134.465V129.347H286.645V128.189H287.678V127.654C287.678 126.235 288.549 125.45 289.745 125.45C290.056 125.45 290.367 125.5 290.641 125.587L290.567 126.733C290.342 126.646 290.131 126.608 289.919 126.608C289.384 126.608 289.035 127.007 289.035 127.629V128.189H290.567V129.347H289.035V134.465H287.678ZM297.306 128.189V134.465H295.949V133.419C295.538 134.091 294.803 134.564 293.894 134.564C292.55 134.564 291.616 133.68 291.616 132.323V128.189H292.973V132.012C292.973 132.796 293.471 133.344 294.268 133.344C295.314 133.344 295.949 132.448 295.949 130.941V128.189H297.306ZM298.911 134.465V125.65H300.268V134.465H298.911Z" fill="#0E8151"/>
<path d="M358.677 137.437H344.311M356.282 129.455L351.494 134.244M351.494 134.244L346.705 129.455M351.494 134.244V123.07" stroke="#4071DF" stroke-width="1.59624" stroke-linecap="round" stroke-linejoin="round"/>
<path d="M43.4282 181.46C44.9146 181.46 45.926 180.647 46.2325 179.299L48.0407 179.682C47.5197 181.751 45.8188 183.038 43.4282 183.038C41.1909 183.038 39.1528 181.827 38.4633 179.406H36.9615V178.18H38.2487C38.2334 177.981 38.2181 177.766 38.2181 177.552C38.2181 177.307 38.2334 177.077 38.2487 176.862H36.9615V175.621H38.4939C39.1988 173.246 41.2522 172.066 43.4282 172.066C45.8954 172.066 47.673 173.43 48.0561 175.56L46.2785 175.943C45.9873 174.502 44.9146 173.629 43.4282 173.629C42.0491 173.629 40.9151 174.288 40.3788 175.621H44.8533L44.4702 176.862H40.0723C40.057 177.077 40.0416 177.307 40.0416 177.552C40.0416 177.766 40.057 177.981 40.0723 178.18H43.9952L43.6274 179.406H40.3481C40.8691 180.785 42.0337 181.46 43.4282 181.46ZM52.9902 183.038C50.7376 183.038 49.0826 181.781 49.0826 179.789C49.0826 178.563 49.8488 177.521 51.0441 177.138C50.1247 176.724 49.527 175.851 49.527 174.916C49.527 173.277 50.9062 172.066 52.9902 172.066C55.0283 172.066 56.3922 173.277 56.3922 174.916C56.3922 175.866 55.7945 176.74 54.8751 177.138C56.0704 177.521 56.8519 178.563 56.8519 179.789C56.8519 181.781 55.1969 183.038 52.9902 183.038ZM52.9902 176.479C54.0169 176.479 54.7065 175.882 54.7218 174.977C54.7218 174.073 54.0323 173.491 52.9902 173.491C51.9022 173.491 51.1973 174.073 51.2127 174.977C51.2127 175.882 51.9176 176.479 52.9902 176.479ZM52.9749 181.536C54.2468 181.536 55.0743 180.847 55.0743 179.774C55.0743 178.701 54.2468 177.996 52.9749 177.996C51.6877 177.996 50.8449 178.701 50.8449 179.774C50.8449 180.847 51.6877 181.536 52.9749 181.536ZM61.8644 183.038C59.6117 183.038 57.9568 181.781 57.9568 179.789C57.9568 178.563 58.723 177.521 59.9182 177.138C58.9988 176.724 58.4012 175.851 58.4012 174.916C58.4012 173.277 59.7803 172.066 61.8644 172.066C63.9024 172.066 65.2663 173.277 65.2663 174.916C65.2663 175.866 64.6686 176.74 63.7492 177.138C64.9445 177.521 65.726 178.563 65.726 179.789C65.726 181.781 64.071 183.038 61.8644 183.038ZM61.8644 176.479C62.8911 176.479 63.5806 175.882 63.596 174.977C63.596 174.073 62.9064 173.491 61.8644 173.491C60.7764 173.491 60.0715 174.073 60.0868 174.977C60.0868 175.882 60.7917 176.479 61.8644 176.479ZM61.849 181.536C63.1209 181.536 63.9484 180.847 63.9484 179.774C63.9484 178.701 63.1209 177.996 61.849 177.996C60.5618 177.996 59.719 178.701 59.719 179.774C59.719 180.847 60.5618 181.536 61.849 181.536ZM71.1063 183.038C68.3939 183.038 66.8615 180.847 66.8615 177.552C66.8615 174.257 68.3939 172.066 71.1063 172.066C73.8033 172.066 75.351 174.257 75.351 177.552C75.351 180.847 73.8033 183.038 71.1063 183.038ZM71.1063 181.46C72.6846 181.46 73.5428 179.973 73.5428 177.552C73.5428 175.131 72.6846 173.629 71.1063 173.629C69.5126 173.629 68.6697 175.131 68.6697 177.552C68.6697 179.973 69.5126 181.46 71.1063 181.46ZM78.0002 183.038C77.372 183.038 76.9122 182.578 76.9122 181.965C76.9122 181.352 77.372 180.893 78.0002 180.893C78.6285 180.893 79.0882 181.352 79.0882 181.965C79.0882 182.578 78.6285 183.038 78.0002 183.038ZM81.4309 182.915V174.257C80.7107 174.886 79.9138 175.223 78.9484 175.422V173.813C79.9751 173.583 80.9558 173.016 81.722 172.189H83.1165V182.915H81.4309ZM88.9892 183.038C86.2768 183.038 84.7444 180.847 84.7444 177.552C84.7444 174.257 86.2768 172.066 88.9892 172.066C91.6862 172.066 93.2339 174.257 93.2339 177.552C93.2339 180.847 91.6862 183.038 88.9892 183.038ZM88.9892 181.46C90.5675 181.46 91.4257 179.973 91.4257 177.552C91.4257 175.131 90.5675 173.629 88.9892 173.629C87.3955 173.629 86.5527 175.131 86.5527 177.552C86.5527 179.973 87.3955 181.46 88.9892 181.46Z" fill="#484848"/>
<path d="M144.063 181.394V172.679H149.827V173.949H145.519V176.24H149.018V177.51H145.519V181.394H144.063ZM156.113 178.02C156.113 178.207 156.101 178.468 156.088 178.58H151.295C151.419 179.664 152.116 180.336 153.112 180.336C153.934 180.336 154.519 179.95 154.681 179.265L155.964 179.589C155.627 180.797 154.557 181.494 153.088 181.494C151.095 181.494 149.962 179.95 149.962 178.257C149.962 176.563 151.033 175.02 153.025 175.02C155.042 175.02 156.113 176.489 156.113 178.02ZM151.357 177.547H154.669C154.582 176.7 154.021 176.09 153.025 176.09C152.166 176.09 151.556 176.613 151.357 177.547ZM160.04 181.494C158.122 181.494 157.039 180.149 157.039 178.257C157.039 176.364 158.122 175.02 160.015 175.02C160.824 175.02 161.558 175.381 161.932 175.904V172.579H163.289V181.394H161.932V180.597C161.633 181.12 160.874 181.494 160.04 181.494ZM160.214 180.311C161.309 180.311 162.032 179.489 162.032 178.257C162.032 177.012 161.309 176.202 160.214 176.202C159.118 176.202 158.396 177.012 158.396 178.257C158.396 179.489 159.118 180.311 160.214 180.311ZM166.881 181.394L164.292 172.679H165.798L167.641 179.676L169.521 172.679H171.127L172.995 179.676L174.85 172.679H176.356L173.792 181.394H172.248L170.33 174.746L168.4 181.394H166.881ZM177.939 174.073C177.441 174.073 177.068 173.687 177.068 173.202C177.068 172.704 177.441 172.318 177.939 172.318C178.45 172.318 178.836 172.704 178.836 173.202C178.836 173.687 178.45 174.073 177.939 174.073ZM177.267 181.394V175.119H178.624V181.394H177.267ZM184.131 176.439C183.907 176.339 183.608 176.289 183.322 176.289C182.4 176.289 181.591 177.111 181.591 179.054V181.394H180.234V175.119H181.591V176.314C181.927 175.567 182.749 175.02 183.508 175.02C183.745 175.02 184.019 175.057 184.206 175.132L184.131 176.439ZM190.742 178.02C190.742 178.207 190.729 178.468 190.717 178.58H185.923C186.048 179.664 186.745 180.336 187.741 180.336C188.563 180.336 189.148 179.95 189.31 179.265L190.592 179.589C190.256 180.797 189.185 181.494 187.716 181.494C185.724 181.494 184.591 179.95 184.591 178.257C184.591 176.563 185.662 175.02 187.654 175.02C189.671 175.02 190.742 176.489 190.742 178.02ZM185.985 177.547H189.297C189.21 176.7 188.65 176.09 187.654 176.09C186.795 176.09 186.185 176.613 185.985 177.547Z" fill="#484848"/>
<rect x="227.943" y="160.901" width="84.9859" height="31.9859" rx="15.993" fill="#E1FBF5"/>
<path d="M243.109 181.494C241.415 181.494 240.021 180.373 239.772 178.78L241.104 178.369C241.253 179.489 242.112 180.224 243.158 180.224C244.192 180.224 244.864 179.738 244.864 178.991C244.864 176.924 240.095 178.057 240.095 174.92C240.095 173.538 241.378 172.579 243.084 172.579C244.715 172.579 245.997 173.451 246.246 174.758L244.939 175.293C244.764 174.409 244.08 173.849 243.084 173.849C242.137 173.849 241.565 174.248 241.565 174.92C241.565 176.675 246.346 175.455 246.346 178.966C246.346 180.485 245.063 181.494 243.109 181.494ZM253.254 175.119V181.394H251.897V180.348C251.486 181.021 250.752 181.494 249.843 181.494C248.498 181.494 247.564 180.61 247.564 179.253V175.119H248.921V178.941C248.921 179.726 249.419 180.274 250.216 180.274C251.262 180.274 251.897 179.377 251.897 177.871V175.119H253.254ZM257.673 181.494C255.793 181.494 254.523 180.187 254.523 178.257C254.523 176.327 255.793 175.02 257.673 175.02C259.217 175.02 260.325 175.841 260.537 177.136L259.217 177.398C259.093 176.688 258.508 176.202 257.711 176.202C256.628 176.202 255.93 177.012 255.93 178.257C255.93 179.502 256.64 180.311 257.711 180.311C258.508 180.311 259.068 179.875 259.217 179.141L260.55 179.402C260.288 180.709 259.205 181.494 257.673 181.494ZM264.592 181.494C262.712 181.494 261.442 180.187 261.442 178.257C261.442 176.327 262.712 175.02 264.592 175.02C266.136 175.02 267.244 175.841 267.455 177.136L266.136 177.398C266.011 176.688 265.426 176.202 264.629 176.202C263.546 176.202 262.849 177.012 262.849 178.257C262.849 179.502 263.558 180.311 264.629 180.311C265.426 180.311 265.986 179.875 266.136 179.141L267.468 179.402C267.206 180.709 266.123 181.494 264.592 181.494ZM274.511 178.02C274.511 178.207 274.498 178.468 274.486 178.58H269.692C269.817 179.664 270.514 180.336 271.51 180.336C272.332 180.336 272.917 179.95 273.079 179.265L274.361 179.589C274.025 180.797 272.954 181.494 271.485 181.494C269.493 181.494 268.36 179.95 268.36 178.257C268.36 176.563 269.431 175.02 271.423 175.02C273.44 175.02 274.511 176.489 274.511 178.02ZM269.755 177.547H273.067C272.979 176.7 272.419 176.09 271.423 176.09C270.564 176.09 269.954 176.613 269.755 177.547ZM277.878 181.494C276.347 181.494 275.475 180.548 275.189 179.651L276.31 179.178C276.521 179.85 277.007 180.411 277.878 180.411C278.526 180.411 278.962 180.037 278.962 179.589C278.962 178.232 275.463 179.116 275.463 176.738C275.463 175.754 276.322 175.02 277.679 175.02C278.862 175.02 279.858 175.642 280.132 176.563L279.011 177.037C278.85 176.414 278.264 176.065 277.692 176.065C277.094 176.065 276.721 176.302 276.721 176.713C276.721 177.921 280.244 176.999 280.244 179.576C280.244 180.66 279.298 181.494 277.878 181.494ZM283.63 181.494C282.098 181.494 281.227 180.548 280.94 179.651L282.061 179.178C282.272 179.85 282.758 180.411 283.63 180.411C284.277 180.411 284.713 180.037 284.713 179.589C284.713 178.232 281.214 179.116 281.214 176.738C281.214 175.754 282.073 175.02 283.43 175.02C284.613 175.02 285.609 175.642 285.883 176.563L284.763 177.037C284.601 176.414 284.016 176.065 283.443 176.065C282.845 176.065 282.472 176.302 282.472 176.713C282.472 177.921 285.995 176.999 285.995 179.576C285.995 180.66 285.049 181.494 283.63 181.494ZM287.678 181.394V176.277H286.645V175.119H287.678V174.584C287.678 173.164 288.549 172.38 289.745 172.38C290.056 172.38 290.367 172.43 290.641 172.517L290.567 173.662C290.342 173.575 290.131 173.538 289.919 173.538C289.384 173.538 289.035 173.936 289.035 174.559V175.119H290.567V176.277H289.035V181.394H287.678ZM297.306 175.119V181.394H295.949V180.348C295.538 181.021 294.803 181.494 293.894 181.494C292.55 181.494 291.616 180.61 291.616 179.253V175.119H292.973V178.941C292.973 179.726 293.471 180.274 294.268 180.274C295.314 180.274 295.949 179.377 295.949 177.871V175.119H297.306ZM298.911 181.394V172.579H300.268V181.394H298.911Z" fill="#0E8151"/>
<path d="M358.677 183.887H344.311M356.282 175.906L351.494 180.695M351.494 180.695L346.705 175.906M351.494 180.695V169.521" stroke="#4071DF" stroke-width="1.59624" stroke-linecap="round" stroke-linejoin="round"/>
<path d="M37.4519 229.81V219.083H40.8232C43.8113 219.083 46.2785 220.907 46.2785 224.447C46.2785 227.987 43.8113 229.81 40.8232 229.81H37.4519ZM39.2141 228.232H40.7006C42.6314 228.232 44.4396 227.19 44.4396 224.447C44.4396 221.704 42.6314 220.646 40.7006 220.646H39.2141V228.232ZM47.8207 229.81V218.961H49.491V223.42C50.0273 222.455 50.9314 221.964 52.0194 221.964C53.7664 221.964 54.9157 223.052 54.9157 224.738V229.81H53.2454V225.121C53.2454 224.094 52.6018 223.466 51.5597 223.466C50.2725 223.466 49.491 224.585 49.491 226.469V229.81H47.8207ZM59.5407 229.933C57.6559 229.933 56.5832 228.768 56.2308 227.665L57.6099 227.082C57.8704 227.91 58.4681 228.599 59.5407 228.599C60.3376 228.599 60.8739 228.14 60.8739 227.588C60.8739 225.918 56.5679 227.006 56.5679 224.079C56.5679 222.868 57.6253 221.964 59.2956 221.964C60.7513 221.964 61.9773 222.73 62.3144 223.864L60.9352 224.447C60.736 223.68 60.0158 223.251 59.3109 223.251C58.5753 223.251 58.1156 223.543 58.1156 224.048C58.1156 225.535 62.4523 224.401 62.4523 227.573C62.4523 228.906 61.2877 229.933 59.5407 229.933ZM71.1126 229.933C68.86 229.933 67.205 228.676 67.205 226.684C67.205 225.458 67.9712 224.416 69.1665 224.033C68.247 223.619 67.6494 222.746 67.6494 221.811C67.6494 220.171 69.0285 218.961 71.1126 218.961C73.1507 218.961 74.5145 220.171 74.5145 221.811C74.5145 222.761 73.9169 223.635 72.9974 224.033C74.1927 224.416 74.9742 225.458 74.9742 226.684C74.9742 228.676 73.3192 229.933 71.1126 229.933ZM71.1126 223.374C72.1393 223.374 72.8289 222.776 72.8442 221.872C72.8442 220.968 72.1546 220.386 71.1126 220.386C70.0246 220.386 69.3197 220.968 69.335 221.872C69.335 222.776 70.0399 223.374 71.1126 223.374ZM71.0973 228.431C72.3692 228.431 73.1967 227.741 73.1967 226.669C73.1967 225.596 72.3692 224.891 71.0973 224.891C69.8101 224.891 68.9672 225.596 68.9672 226.669C68.9672 227.741 69.8101 228.431 71.0973 228.431ZM75.9259 231.603L76.876 227.956H78.96L77.0445 231.603H75.9259ZM84.71 222.592C86.9166 222.592 88.495 224.125 88.495 226.255C88.495 228.4 86.8247 229.933 84.4954 229.933C82.0742 229.933 80.4346 227.941 80.4346 224.968C80.4346 220.999 82.6719 218.961 85.4608 218.961C86.5795 218.961 87.6675 219.313 88.5103 220.003L87.6522 221.336C87.0699 220.83 86.3037 220.524 85.4762 220.524C83.576 220.524 82.1968 221.98 82.1049 224.018C82.6106 223.144 83.6066 222.592 84.71 222.592ZM84.5261 228.354C85.798 228.354 86.7021 227.45 86.7021 226.178C86.7174 224.922 85.798 224.033 84.5261 224.033C83.2542 224.033 82.3348 224.922 82.3348 226.178C82.3348 227.45 83.2542 228.354 84.5261 228.354ZM93.5291 229.933C91.4298 229.933 89.8974 228.768 89.6062 226.96L91.2459 226.669C91.4451 227.695 92.3032 228.354 93.4678 228.354C94.7244 228.354 95.5519 227.511 95.5519 226.24C95.5519 224.937 94.6938 224.125 93.3452 224.125C92.4105 224.125 91.6903 224.539 91.1846 225.289L89.882 225.014L90.7402 219.083H96.5786V220.646H92.058L91.629 223.481C92.15 223.006 92.9775 222.669 93.7283 222.669C95.9043 222.669 97.3601 224.094 97.3601 226.24C97.3601 228.462 95.8584 229.933 93.5291 229.933ZM102.772 229.933C100.059 229.933 98.527 227.741 98.527 224.447C98.527 221.152 100.059 218.961 102.772 218.961C105.469 218.961 107.016 221.152 107.016 224.447C107.016 227.741 105.469 229.933 102.772 229.933ZM102.772 228.354C104.35 228.354 105.208 226.868 105.208 224.447C105.208 222.025 104.35 220.524 102.772 220.524C101.178 220.524 100.335 222.025 100.335 224.447C100.335 226.868 101.178 228.354 102.772 228.354Z" fill="#484848"/>
<path d="M157.256 228.389C155.562 228.389 154.168 227.268 153.919 225.674L155.251 225.264C155.4 226.384 156.26 227.119 157.305 227.119C158.339 227.119 159.011 226.633 159.011 225.886C159.011 223.819 154.243 224.952 154.243 221.815C154.243 220.433 155.525 219.474 157.231 219.474C158.862 219.474 160.144 220.346 160.393 221.653L159.086 222.188C158.912 221.304 158.227 220.744 157.231 220.744C156.284 220.744 155.712 221.142 155.712 221.815C155.712 223.57 160.493 222.35 160.493 225.861C160.493 227.38 159.21 228.389 157.256 228.389ZM161.774 228.289V219.574H167.464V220.844H163.23V223.035H166.642V224.305H163.23V227.007H167.601V228.289H161.774ZM168.935 228.289V219.574H172.372C174.102 219.574 175.223 220.595 175.223 222.176C175.223 223.757 174.102 224.778 172.372 224.778H170.404V228.289H168.935ZM170.404 223.508H172.272C173.193 223.508 173.741 223.01 173.741 222.176C173.741 221.342 173.193 220.844 172.272 220.844H170.404V223.508ZM181.293 228.289L180.521 226.235H176.935L176.163 228.289H174.656L178.043 219.574H179.4L182.799 228.289H181.293ZM177.408 224.977H180.048L178.728 221.491L177.408 224.977Z" fill="#484848"/>
<rect x="226.029" y="207.831" width="89.9859" height="31.9859" rx="15.993" fill="#FFF2EF"/>
<path d="M244.257 228.324L243.485 226.269H239.9L239.128 228.324H237.621L241.008 219.608H242.365L245.764 228.324H244.257ZM240.373 225.012H243.012L241.692 221.526L240.373 225.012ZM249.921 228.423C249.087 228.423 248.328 228.05 248.029 227.527V228.324H246.672V219.509H248.029V222.833C248.402 222.31 249.137 221.949 249.946 221.949C251.839 221.949 252.922 223.294 252.922 225.186C252.922 227.079 251.839 228.423 249.921 228.423ZM249.747 227.241C250.843 227.241 251.565 226.419 251.565 225.186C251.565 223.941 250.843 223.132 249.747 223.132C248.651 223.132 247.929 223.941 247.929 225.186C247.929 226.419 248.651 227.241 249.747 227.241ZM256.528 221.949C258.121 221.949 259.217 222.845 259.217 224.414V228.324H257.885V227.365C257.524 228 256.752 228.423 255.917 228.423C254.672 228.423 253.813 227.639 253.813 226.568C253.813 225.336 254.772 224.676 256.702 224.476L257.885 224.352V224.265C257.885 223.493 257.349 223.02 256.528 223.02C255.768 223.02 255.233 223.468 255.146 224.215L253.925 223.991C254.125 222.758 255.195 221.949 256.528 221.949ZM256.191 227.377C257.25 227.377 257.872 226.643 257.885 225.622V225.36L256.689 225.497C255.668 225.609 255.146 225.983 255.146 226.531C255.146 227.029 255.556 227.377 256.191 227.377ZM260.812 228.324V222.049H262.169V223.094C262.593 222.422 263.315 221.949 264.236 221.949C265.568 221.949 266.502 222.833 266.502 224.19V228.324H265.145V224.501C265.145 223.717 264.66 223.169 263.863 223.169C262.804 223.169 262.169 224.066 262.169 225.572V228.324H260.812ZM270.76 228.423C268.842 228.423 267.759 227.079 267.759 225.186C267.759 223.294 268.842 221.949 270.735 221.949C271.544 221.949 272.279 222.31 272.652 222.833V219.509H274.01V228.324H272.652V227.527C272.354 228.05 271.594 228.423 270.76 228.423ZM270.934 227.241C272.03 227.241 272.752 226.419 272.752 225.186C272.752 223.941 272.03 223.132 270.934 223.132C269.839 223.132 269.116 223.941 269.116 225.186C269.116 226.419 269.839 227.241 270.934 227.241ZM278.511 228.423C276.618 228.423 275.273 227.066 275.273 225.186C275.273 223.306 276.618 221.949 278.511 221.949C280.391 221.949 281.748 223.306 281.748 225.186C281.748 227.066 280.391 228.423 278.511 228.423ZM278.511 227.241C279.619 227.241 280.378 226.394 280.378 225.186C280.378 223.978 279.619 223.132 278.511 223.132C277.39 223.132 276.643 223.978 276.643 225.186C276.643 226.394 277.39 227.241 278.511 227.241ZM283.002 228.324V222.049H284.359V223.094C284.783 222.422 285.505 221.949 286.426 221.949C287.758 221.949 288.692 222.833 288.692 224.19V228.324H287.335V224.501C287.335 223.717 286.85 223.169 286.053 223.169C284.994 223.169 284.359 224.066 284.359 225.572V228.324H283.002ZM296.1 224.95C296.1 225.136 296.087 225.398 296.075 225.51H291.281C291.406 226.593 292.103 227.265 293.099 227.265C293.921 227.265 294.506 226.879 294.668 226.195L295.95 226.518C295.614 227.726 294.544 228.423 293.074 228.423C291.082 228.423 289.949 226.879 289.949 225.186C289.949 223.493 291.02 221.949 293.012 221.949C295.029 221.949 296.1 223.418 296.1 224.95ZM291.344 224.476H294.656C294.568 223.63 294.008 223.02 293.012 223.02C292.153 223.02 291.543 223.543 291.344 224.476ZM300.026 228.423C298.109 228.423 297.026 227.079 297.026 225.186C297.026 223.294 298.109 221.949 300.001 221.949C300.811 221.949 301.545 222.31 301.919 222.833V219.509H303.276V228.324H301.919V227.527C301.62 228.05 300.861 228.423 300.026 228.423ZM300.201 227.241C301.296 227.241 302.018 226.419 302.018 225.186C302.018 223.941 301.296 223.132 300.201 223.132C299.105 223.132 298.383 223.941 298.383 225.186C298.383 226.419 299.105 227.241 300.201 227.241Z" fill="#D3452C"/>
<path d="M358.677 230.817H344.311M356.282 222.835L351.494 227.624M351.494 227.624L346.705 222.835M351.494 227.624V216.45" stroke="#4071DF" stroke-width="1.59624" stroke-linecap="round" stroke-linejoin="round"/>
<path d="M33.0806 43.8169V32.6496H29.0389V30.4084H39.7274V32.6496H35.6857V43.8169H33.0806ZM46.4145 36.4997C46.0697 36.3465 45.61 36.2699 45.1886 36.2699C43.8286 36.2699 42.6027 37.4 42.6027 40.2732V43.8169H40.1892V34.1628H42.6027V35.9251C43.0816 34.8332 44.3458 34.0096 45.5142 34.0096C45.859 34.0096 46.2804 34.067 46.5678 34.1628L46.4145 36.4997ZM51.425 34.0096C53.9535 34.0096 55.6774 35.3696 55.6774 37.9363V43.8169H53.3405V42.4186C52.8042 43.3572 51.6357 43.9701 50.4481 43.9701C48.5518 43.9701 47.2301 42.7442 47.2301 41.0969C47.2301 39.2006 48.6667 38.1853 51.54 37.8789L53.3405 37.7065V37.6107C53.3405 36.5189 52.5935 35.8484 51.425 35.8484C50.3715 35.8484 49.6245 36.4997 49.5095 37.5341L47.3642 37.151C47.6707 35.2355 49.3754 34.0096 51.425 34.0096ZM50.9845 42.1887C52.4785 42.1887 53.3405 41.0586 53.3405 39.6411V39.4304L51.5016 39.6411C50.2183 39.7944 49.567 40.3307 49.567 41.0203C49.567 41.6907 50.1033 42.1887 50.9845 42.1887ZM58.0347 43.8169V34.1628H60.4482V35.6186C61.0612 34.68 62.153 34.0096 63.513 34.0096C65.62 34.0096 67.0375 35.3887 67.0375 37.4958V43.8169H64.624V38.0704C64.624 36.9403 63.9152 36.1549 62.7851 36.1549C61.3102 36.1549 60.4482 37.4191 60.4482 39.5837V43.8169H58.0347ZM72.7418 43.9701C70.4049 43.9701 69.0066 42.5335 68.5277 41.116L70.5006 40.3115C70.788 41.2884 71.535 42.093 72.7418 42.093C73.642 42.093 74.2359 41.6141 74.2359 41.0011C74.2359 39.1814 68.9682 40.369 68.9682 36.7104C68.9682 35.1972 70.2899 34.0096 72.397 34.0096C74.2742 34.0096 75.864 34.9673 76.2854 36.3656L74.3316 37.1893C74.0635 36.2699 73.2206 35.791 72.4353 35.791C71.6691 35.791 71.1519 36.1166 71.1519 36.6721C71.1519 38.3769 76.4578 37.0169 76.4578 40.9628C76.4578 42.6293 74.9637 43.9701 72.7418 43.9701ZM81.9158 34.0096C84.4442 34.0096 86.1682 35.3696 86.1682 37.9363V43.8169H83.8313V42.4186C83.2949 43.3572 82.1265 43.9701 80.9389 43.9701C79.0425 43.9701 77.7209 42.7442 77.7209 41.0969C77.7209 39.2006 79.1575 38.1853 82.0307 37.8789L83.8313 37.7065V37.6107C83.8313 36.5189 83.0842 35.8484 81.9158 35.8484C80.8623 35.8484 80.1152 36.4997 80.0003 37.5341L77.8549 37.151C78.1614 35.2355 79.8662 34.0096 81.9158 34.0096ZM81.4752 42.1887C82.9693 42.1887 83.8313 41.0586 83.8313 39.6411V39.4304L81.9924 39.6411C80.709 39.7944 80.0578 40.3307 80.0578 41.0203C80.0578 41.6907 80.5941 42.1887 81.4752 42.1887ZM92.9119 43.9701C90.0195 43.9701 88.0082 41.9397 88.0082 38.9899C88.0082 36.04 90.0195 34.0096 92.9119 34.0096C95.3829 34.0096 97.126 35.293 97.4516 37.3425L95.0956 37.8022C94.9232 36.787 94.1187 36.0975 92.9885 36.0975C91.4944 36.0975 90.5175 37.2276 90.5175 38.9899C90.5175 40.7521 91.4944 41.8822 92.9885 41.8822C94.1187 41.8822 94.8657 41.2693 95.0956 40.2349L97.4516 40.7138C97.0877 42.7442 95.3446 43.9701 92.9119 43.9701ZM104.822 43.7211C104.343 43.8935 103.826 43.9701 103.27 43.9701C101.316 43.9701 99.8605 42.9166 99.8605 40.6563V36.1932H98.2323V34.1628H99.8605V31.3279H102.274V34.1628H104.707V36.1932H102.274V40.4265C102.274 41.3459 102.772 41.8439 103.519 41.8439C103.883 41.8439 104.304 41.7865 104.649 41.6141L104.822 43.7211ZM107.69 32.6879C106.828 32.6879 106.196 32.0366 106.196 31.1938C106.196 30.3701 106.828 29.7189 107.69 29.7189C108.571 29.7189 109.222 30.3701 109.222 31.1938C109.222 32.0366 108.571 32.6879 107.69 32.6879ZM106.483 43.8169V34.1628H108.897V43.8169H106.483ZM115.755 43.9701C112.824 43.9701 110.717 41.8631 110.717 38.9899C110.717 36.1166 112.824 34.0096 115.755 34.0096C118.686 34.0096 120.793 36.1166 120.793 38.9899C120.793 41.8631 118.686 43.9701 115.755 43.9701ZM115.755 41.8822C117.307 41.8822 118.36 40.7138 118.36 38.9899C118.36 37.2659 117.307 36.0975 115.755 36.0975C114.184 36.0975 113.15 37.2659 113.15 38.9899C113.15 40.7138 114.184 41.8822 115.755 41.8822ZM122.608 43.8169V34.1628H125.021V35.6186C125.634 34.68 126.726 34.0096 128.086 34.0096C130.193 34.0096 131.611 35.3887 131.611 37.4958V43.8169H129.197V38.0704C129.197 36.9403 128.488 36.1549 127.358 36.1549C125.883 36.1549 125.021 37.4191 125.021 39.5837V43.8169H122.608ZM137.315 43.9701C134.978 43.9701 133.58 42.5335 133.101 41.116L135.074 40.3115C135.361 41.2884 136.108 42.093 137.315 42.093C138.215 42.093 138.809 41.6141 138.809 41.0011C138.809 39.1814 133.541 40.369 133.541 36.7104C133.541 35.1972 134.863 34.0096 136.97 34.0096C138.847 34.0096 140.437 34.9673 140.858 36.3656L138.905 37.1893C138.637 36.2699 137.794 35.791 137.008 35.791C136.242 35.791 135.725 36.1166 135.725 36.6721C135.725 38.3769 141.031 37.0169 141.031 40.9628C141.031 42.6293 139.537 43.9701 137.315 43.9701Z" fill="#757575"/>
<rect x="21.0703" y="65.1267" width="373.521" height="33.5211" rx="3.83099" fill="#FAFAFA"/>
<path d="M41.6532 85.7466L40.9407 83.8502H37.6307L36.9181 85.7466H35.5275L38.6536 77.7015H39.9063L43.0439 85.7466H41.6532ZM38.0674 82.6895H40.5039L39.2857 79.4714L38.0674 82.6895ZM44.8857 85.7466V77.7015H46.4372L49.0002 83.8158L51.5631 77.7015H53.1146V85.7466H51.8274V80.2185L49.5288 85.7466H48.483L46.1729 80.2185V85.7466H44.8857ZM59.3191 85.8385C56.9975 85.8385 55.2966 84.1031 55.2966 81.724C55.2966 79.345 56.9975 77.6096 59.3191 77.6096C61.6407 77.6096 63.3416 79.345 63.3416 81.724C63.3416 84.1031 61.6407 85.8385 59.3191 85.8385ZM59.3191 84.6548C60.8707 84.6548 61.9855 83.425 61.9855 81.724C61.9855 80.0231 60.8707 78.7818 59.3191 78.7818C57.7676 78.7818 56.6527 80.0231 56.6527 81.724C56.6527 83.425 57.7676 84.6548 59.3191 84.6548ZM68.6594 85.8385C66.7976 85.8385 65.5334 84.7812 65.5334 82.8848V77.7015H66.8091V82.9078C66.8091 84.0341 67.5561 84.6548 68.6594 84.6548C69.7513 84.6548 70.4983 84.0341 70.4983 82.9078V77.7015H71.774V82.8848C71.774 84.7812 70.5098 85.8385 68.6594 85.8385ZM74.3139 85.7466V77.7015H75.7276L79.4168 83.6204V77.7015H80.704V85.7466H79.2904L75.5897 79.8392V85.7466H74.3139ZM85.1365 85.7466V78.8738H82.654V77.7015H88.9637V78.8738H86.4812V85.7466H85.1365Z" fill="#757575"/>
<path d="M147.059 85.7466H145.508L143.473 82.3332H141.979V85.7466H140.635L140.623 77.7015H143.646C145.197 77.7015 146.209 78.6095 146.209 80.0116C146.209 80.954 145.703 81.7355 144.853 82.1033L147.059 85.7466ZM141.979 78.8738V81.1494H143.45C144.335 81.1494 144.841 80.7357 144.841 80.0116C144.841 79.299 144.335 78.8738 143.45 78.8738H141.979ZM148.955 85.7466V77.7015H154.207V78.8738H150.299V80.8966H153.448V82.0688H150.299V84.5628H154.333V85.7466H148.955ZM156.523 85.7466V77.7015H158.075L160.638 83.8158L163.201 77.7015H164.752V85.7466H163.465V80.2185L161.166 85.7466H160.12L157.81 80.2185V85.7466H156.523ZM167.29 85.7466V77.7015H168.635V85.7466H167.29ZM173.062 85.7466V78.8738H170.58V77.7015H176.889V78.8738H174.407V85.7466H173.062ZM180.709 85.7466V78.8738H178.227V77.7015H184.536V78.8738H182.054V85.7466H180.709ZM186.37 85.7466V77.7015H191.623V78.8738H187.715V80.8966H190.864V82.0688H187.715V84.5628H191.749V85.7466H186.37ZM200.375 85.7466H198.823L196.789 82.3332H195.295V85.7466H193.95L193.939 77.7015H196.962C198.513 77.7015 199.524 78.6095 199.524 80.0116C199.524 80.954 199.019 81.7355 198.168 82.1033L200.375 85.7466ZM195.295 78.8738V81.1494H196.766C197.651 81.1494 198.157 80.7357 198.157 80.0116C198.157 79.299 197.651 78.8738 196.766 78.8738H195.295Z" fill="#757575"/>
<path d="M253.361 85.8385C251.798 85.8385 250.511 84.8042 250.281 83.3331L251.511 82.9538C251.649 83.9882 252.442 84.6662 253.407 84.6662C254.361 84.6662 254.982 84.218 254.982 83.5284C254.982 81.6206 250.58 82.6665 250.58 79.7702C250.58 78.4945 251.764 77.6096 253.338 77.6096C254.844 77.6096 256.027 78.4141 256.257 79.6208L255.051 80.115C254.89 79.299 254.258 78.7818 253.338 78.7818C252.465 78.7818 251.936 79.1496 251.936 79.7702C251.936 81.3908 256.349 80.2644 256.349 83.5055C256.349 84.9076 255.166 85.8385 253.361 85.8385ZM260.172 85.7466V78.8738H257.69V77.7015H263.999V78.8738H261.517V85.7466H260.172ZM270.281 85.7466L269.569 83.8502H266.259L265.546 85.7466H264.156L267.282 77.7015H268.535L271.672 85.7466H270.281ZM266.696 82.6895H269.132L267.914 79.4714L266.696 82.6895ZM274.321 85.7466V78.8738H271.839V77.7015H278.148V78.8738H275.666V85.7466H274.321ZM283.21 85.8385C281.348 85.8385 280.083 84.7812 280.083 82.8848V77.7015H281.359V82.9078C281.359 84.0341 282.106 84.6548 283.21 84.6548C284.301 84.6548 285.048 84.0341 285.048 82.9078V77.7015H286.324V82.8848C286.324 84.7812 285.06 85.8385 283.21 85.8385ZM291.439 85.8385C289.876 85.8385 288.589 84.8042 288.359 83.3331L289.589 82.9538C289.727 83.9882 290.52 84.6662 291.485 84.6662C292.439 84.6662 293.06 84.218 293.06 83.5284C293.06 81.6206 288.658 82.6665 288.658 79.7702C288.658 78.4945 289.842 77.6096 291.416 77.6096C292.922 77.6096 294.105 78.4141 294.335 79.6208L293.128 80.115C292.968 79.299 292.335 78.7818 291.416 78.7818C290.543 78.7818 290.014 79.1496 290.014 79.7702C290.014 81.3908 294.427 80.2644 294.427 83.5055C294.427 84.9076 293.243 85.8385 291.439 85.8385Z" fill="#757575"/>
<path d="M336.961 85.7466V77.7015H342.282V78.8738H338.306V80.9885H341.535V82.1608H338.306V85.7466H336.961ZM344.428 85.7466V77.7015H345.773V85.7466H344.428ZM354.752 85.7466H353.2L351.166 82.3332H349.672V85.7466H348.327L348.316 77.7015H351.338C352.89 77.7015 353.901 78.6095 353.901 80.0116C353.901 80.954 353.395 81.7355 352.545 82.1033L354.752 85.7466ZM349.672 78.8738V81.1494H351.143C352.028 81.1494 352.533 80.7357 352.533 80.0116C352.533 79.299 352.028 78.8738 351.143 78.8738H349.672ZM359.852 85.8385C357.771 85.8385 355.898 84.4709 355.898 81.724C355.898 78.9772 357.794 77.6096 359.852 77.6096C361.713 77.6096 363.058 78.6324 363.345 80.23L362.012 80.5173C361.782 79.4369 360.966 78.7818 359.852 78.7818C358.381 78.7818 357.266 79.8162 357.266 81.724C357.266 83.6319 358.369 84.6548 359.852 84.6548C360.978 84.6548 361.736 84.0456 361.989 83.0342L363.334 83.3216C362.943 84.8731 361.656 85.8385 359.852 85.8385Z" fill="#757575"/>
</svg>
