<svg width="312" height="312" viewBox="0 0 312 312" fill="none" xmlns="http://www.w3.org/2000/svg">
<circle opacity="0.5" cx="156" cy="156" r="155.586" fill="white" stroke="#DCE0E0" stroke-width="0.828729"/>
<circle cx="156" cy="156" r="117.586" fill="white" stroke="#DCE0E0" stroke-width="0.828729"/>
<circle cx="157" cy="156" r="63.5" fill="#4071DF" stroke="white"/>
<circle cx="236" cy="80" r="24" fill="#03BB5F"/>
<path d="M246.469 73.8008L232.069 88.2008L225.523 81.6553" stroke="white" stroke-width="3" stroke-linecap="round" stroke-linejoin="round"/>
<path d="M141.004 181.025L141.003 181.024C138.689 180.319 137.245 177.777 137.959 175.39L138.116 174.929L138.122 174.913L138.126 174.898C138.852 172.206 141.598 170.797 144.213 171.789L144.224 171.793L144.236 171.797C147.157 172.746 150.585 173.544 154.35 173.544C157.055 173.544 159.364 173.026 161.016 172.022C162.686 171.007 163.686 169.487 163.686 167.561C163.686 165.66 162.872 164.153 161.206 162.84C159.57 161.552 157.092 160.433 153.711 159.256L153.706 159.254C148.825 157.616 144.766 155.723 141.93 153.206C139.116 150.708 137.5 147.59 137.5 143.437C137.5 136.962 141.472 131.567 148.661 128.992C151.04 128.14 152.922 126.005 152.922 123.386C152.922 121.325 154.775 119.5 156.921 119.5C159.066 119.5 160.919 121.325 160.919 123.386C160.919 125.591 162.647 127.361 164.791 127.623C166.54 127.837 168.107 128.126 169.494 128.416C172.152 129.143 173.699 131.554 172.986 134.058C172.256 136.621 169.634 138.178 167.017 137.474C164.881 136.834 162.104 136.358 158.688 136.358C155.655 136.358 153.563 136.996 152.218 138.028C150.857 139.072 150.316 140.479 150.316 141.871C150.316 143.591 151.266 144.939 153.106 146.182C154.929 147.415 157.714 148.607 161.567 150.017L161.567 150.017L161.576 150.02C167.005 151.889 170.728 154.008 173.095 156.619C175.446 159.213 176.5 162.336 176.5 166.309C176.5 172.835 172.514 178.528 164.984 181.247C162.279 182.224 160.114 184.636 160.114 187.614C160.114 189.67 158.271 191.491 156.132 191.5C153.988 191.349 152.281 189.528 152.28 187.455C152.28 187.45 152.28 187.446 152.28 187.441V184.095C152.28 183.426 151.753 182.886 151.097 182.849C147.384 182.636 143.841 181.899 141.004 181.025ZM152.238 187.655C152.15 187.86 151.981 187.952 151.81 187.957C151.81 187.956 151.81 187.956 151.81 187.955C151.982 187.947 152.152 187.853 152.238 187.655ZM151.886 186.966C152.083 187.008 152.256 187.163 152.278 187.403C152.255 187.172 152.083 187.012 151.886 186.966Z" fill="white" stroke="white"/>
</svg>
