<svg width="577" height="522" viewBox="0 0 577 522" fill="none" xmlns="http://www.w3.org/2000/svg">
<g filter="url(#filter0_d_75_4680)">
<g clip-path="url(#clip0_75_4680)">
<rect x="10" y="38.2877" width="286.46" height="436.667" rx="32.8321" fill="url(#paint0_linear_75_4680)"/>
<g clip-path="url(#clip1_75_4680)">
<mask id="mask0_75_4680" style="mask-type:luminance" maskUnits="userSpaceOnUse" x="43" y="74" width="50" height="50">
<rect x="43.6531" y="74.4029" width="49.2011" height="49.2011" fill="white"/>
</mask>
<g mask="url(#mask0_75_4680)">
<path fill-rule="evenodd" clip-rule="evenodd" d="M55.9534 74.4029H80.5539V123.604H55.9534V74.4029Z" fill="#F7FCFF"/>
<path fill-rule="evenodd" clip-rule="evenodd" d="M68.2174 88.7532L68.2537 113.354H67.332L67.8975 107.266C63.7613 108.258 61.8642 108.504 62.2062 108.004C62.5481 107.503 62.8175 106.794 63.0145 105.875L57.491 100.962C58.0718 100.952 58.5985 100.76 59.0711 100.385C59.5436 100.011 59.3074 98.712 58.3623 96.4896L61.151 97.0305L62.2062 95.5016L64.3102 98.4378H65.256L64.3102 91.7123L66.0056 92.975L68.2174 88.7532ZM68.2176 88.7532L70.502 92.9749L72.1974 91.7123L71.2516 98.4378H72.1974L74.3014 95.5016L75.3566 97.0305L78.1453 96.4896C77.2002 98.7119 76.964 100.011 77.4365 100.385C77.9091 100.76 78.4358 100.952 79.0166 100.962L73.4931 105.875C73.6901 106.794 73.9595 107.503 74.3014 108.004C74.6434 108.504 72.7463 108.258 68.6101 107.266L69.1757 113.354H68.2539L68.2176 88.7532Z" fill="#E31D1C"/>
<path fill-rule="evenodd" clip-rule="evenodd" d="M80.554 74.4029H92.8542V123.604H80.554V74.4029Z" fill="#E31D1C"/>
<path fill-rule="evenodd" clip-rule="evenodd" d="M43.6531 74.4029H55.9534V123.604H43.6531V74.4029Z" fill="#E31D1C"/>
</g>
</g>
<rect x="43.6531" y="74.4029" width="49.2011" height="49.2011" rx="24.6006" fill="url(#paint1_linear_75_4680)" style="mix-blend-mode:overlay"/>
<rect x="44.6781" y="75.4279" width="47.1511" height="47.1511" rx="23.5755" stroke="black" stroke-opacity="0.1" stroke-width="2.05005"/>
<path d="M117.275 107.74C115.443 107.74 113.768 107.366 112.251 106.617C110.754 105.849 109.523 104.647 108.558 103.012C107.593 101.377 107.11 99.4268 107.11 97.1614C107.11 93.8125 108.095 91.2122 110.065 89.3605C112.035 87.5087 114.438 86.5829 117.275 86.5829C119.658 86.5829 121.658 87.1936 123.273 88.4149C124.888 89.6166 125.883 91.2516 126.258 93.32L122.83 94.0587C122.534 92.6798 121.894 91.5963 120.909 90.8084C119.924 90.0007 118.713 89.5969 117.275 89.5969C115.325 89.5969 113.729 90.2666 112.488 91.6062C111.247 92.926 110.626 94.7778 110.626 97.1614C110.626 99.545 111.237 101.397 112.458 102.717C113.699 104.036 115.305 104.696 117.275 104.696C118.713 104.696 119.905 104.332 120.85 103.603C121.796 102.874 122.436 101.85 122.771 100.53L126.228 101.269C125.716 103.278 124.672 104.864 123.096 106.026C121.52 107.169 119.58 107.74 117.275 107.74ZM141.979 107.503L140.146 102.628H131.636L129.804 107.503H126.229L134.266 86.8193H137.487L145.554 107.503H141.979ZM132.759 99.6435H139.024L135.891 91.3698L132.759 99.6435ZM146.796 107.503V86.8193H153.297C156.331 86.8193 158.842 87.7254 160.832 89.5378C162.821 91.3501 163.816 93.8913 163.816 97.1614C163.816 100.431 162.821 102.973 160.832 104.785C158.842 106.597 156.331 107.503 153.297 107.503H146.796ZM150.194 104.46H153.06C155.109 104.46 156.823 103.869 158.202 102.687C159.581 101.485 160.27 99.6435 160.27 97.1614C160.27 94.6793 159.581 92.8374 158.202 91.6357C156.823 90.4341 155.109 89.8333 153.06 89.8333H150.194V104.46Z" fill="#1A1A1A"/>
<path d="M51.5131 169.662L50.6709 167.372H46.6671L45.8249 169.662H43.7565L47.7308 159.32H49.6072L53.5815 169.662H51.5131ZM47.3024 165.673H50.0504L48.6764 161.95L47.3024 165.673ZM59.7272 169.78C56.9939 169.78 54.5857 167.993 54.5857 164.491C54.5857 160.99 57.0383 159.202 59.7272 159.202C62.2093 159.202 63.9675 160.561 64.3221 162.644L62.3275 163.058C62.0616 161.743 61.0569 160.931 59.7272 160.931C57.9838 160.931 56.6246 162.172 56.6246 164.491C56.6246 166.811 57.9691 168.037 59.7272 168.037C61.0717 168.037 62.0025 167.298 62.2684 166.087L64.2925 166.53C63.7902 168.554 62.1059 169.78 59.7272 169.78ZM71.3403 169.78C68.607 169.78 66.1988 167.993 66.1988 164.491C66.1988 160.99 68.6513 159.202 71.3403 159.202C73.8224 159.202 75.5805 160.561 75.9351 162.644L73.9406 163.058C73.6746 161.743 72.67 160.931 71.3403 160.931C69.5969 160.931 68.2377 162.172 68.2377 164.491C68.2377 166.811 69.5821 168.037 71.3403 168.037C72.6848 168.037 73.6155 167.298 73.8815 166.087L75.9056 166.53C75.4033 168.554 73.719 169.78 71.3403 169.78ZM83.0568 169.78C80.028 169.78 77.8118 167.55 77.8118 164.491C77.8118 161.433 80.028 159.202 83.0568 159.202C86.0708 159.202 88.2869 161.433 88.2869 164.491C88.2869 167.55 86.0708 169.78 83.0568 169.78ZM83.0568 168.037C84.9331 168.037 86.2628 166.545 86.2628 164.491C86.2628 162.438 84.9331 160.931 83.0568 160.931C81.1804 160.931 79.8359 162.438 79.8359 164.491C79.8359 166.545 81.1804 168.037 83.0568 168.037ZM94.6821 169.78C92.2591 169.78 90.6043 168.451 90.6043 165.91V159.32H92.4955V165.924C92.4955 167.328 93.3967 168.022 94.6821 168.022C95.9822 168.022 96.8835 167.328 96.8835 165.924V159.32H98.7598V165.91C98.7598 168.451 97.1051 169.78 94.6821 169.78ZM101.525 169.662V159.32H103.564L107.996 166.501V159.32H109.872V169.662H107.834L103.416 162.497V169.662H101.525ZM115.04 169.662V161.049H111.923V159.32H120.167V161.049H117.05V169.662H115.04ZM133.098 159.32H135.107V169.662H133.098V165.156H128.562V169.662H126.553V159.32H128.562V163.427H133.098V159.32ZM142.664 169.78C139.636 169.78 137.419 167.55 137.419 164.491C137.419 161.433 139.636 159.202 142.664 159.202C145.678 159.202 147.894 161.433 147.894 164.491C147.894 167.55 145.678 169.78 142.664 169.78ZM142.664 168.037C144.541 168.037 145.87 166.545 145.87 164.491C145.87 162.438 144.541 160.931 142.664 160.931C140.788 160.931 139.443 162.438 139.443 164.491C139.443 166.545 140.788 168.037 142.664 168.037ZM150.212 169.662V159.32H152.221V167.919H157.023V169.662H150.212ZM158.997 169.662V159.32H162.38C165.232 159.32 167.684 161.019 167.684 164.491C167.684 167.963 165.232 169.662 162.38 169.662H158.997ZM160.977 167.919H162.203C163.976 167.919 165.646 167.018 165.646 164.491C165.646 161.965 163.976 161.049 162.203 161.049H160.977V167.919ZM170.004 169.662V159.32H176.919V161.049H172.013V163.324H175.943V165.067H172.013V167.919H177.081V169.662H170.004ZM187.846 169.662H185.512L183.045 165.422H181.419V169.662H179.41L179.395 159.32H183.384C185.408 159.32 186.723 160.517 186.723 162.378C186.723 163.546 186.118 164.536 185.098 165.038L187.846 169.662ZM181.419 161.049V163.693H183.074C184.108 163.693 184.699 163.206 184.699 162.378C184.699 161.551 184.108 161.049 183.074 161.049H181.419ZM194.195 169.662V159.32H196.234L200.667 166.501V159.32H202.543V169.662H200.504L196.086 162.497V169.662H194.195ZM212.217 169.662L211.375 167.372H207.371L206.529 169.662H204.461L208.435 159.32H210.311L214.286 169.662H212.217ZM208.006 165.673H210.754L209.38 161.95L208.006 165.673ZM216.181 169.662V159.32H218.441L221.603 166.811L224.765 159.32H227.025V169.662H225.134V163.058L222.356 169.662H220.849L218.072 163.058V169.662H216.181ZM229.799 169.662V159.32H236.714V161.049H231.809V163.324H235.739V165.067H231.809V167.919H236.876V169.662H229.799Z" fill="black"/>
<g filter="url(#filter1_f_75_4680)">
<path d="M52.7147 200.512L51.582 197.59H46.4766L45.3439 200.512H43.8008L48.3481 189.021H49.7106L54.2743 200.512H52.7147ZM46.9855 196.26H51.0731L49.0375 190.991L46.9855 196.26ZM59.1887 200.643C56.9725 200.643 55.1996 199.215 54.822 197.114L56.2338 196.654C56.4636 198.263 57.6948 199.314 59.2215 199.314C60.7975 199.314 61.8152 198.575 61.8152 197.426C61.8152 194.356 55.2817 195.965 55.2817 191.893C55.2817 190.104 56.8904 188.889 59.1558 188.889C61.2571 188.889 62.8823 190.022 63.1778 191.729L61.8152 192.255C61.5854 191.007 60.6005 190.219 59.1558 190.219C57.6784 190.219 56.7919 190.859 56.7919 191.893C56.7919 194.52 63.3584 192.813 63.3584 197.409C63.3584 199.363 61.7003 200.643 59.1887 200.643ZM72.3369 200.512L68.1836 194.635L66.657 196.211V200.512H65.1631V189.021H66.657V194.225L71.6803 189.021H73.6666L69.2343 193.584L74.1427 200.512H72.3369ZM82.2049 200.512V190.35H78.5441V189.021H87.3431V190.35H83.6987V200.512H82.2049ZM94.7384 195.997C94.7384 196.194 94.722 196.49 94.7056 196.638H88.172C88.2705 198.312 89.3211 199.412 90.815 199.412C92.079 199.412 92.949 198.821 93.1953 197.787L94.5086 198.099C94.0982 199.708 92.7192 200.643 90.815 200.643C88.3361 200.643 86.7766 198.723 86.7766 196.375C86.7766 194.028 88.2869 192.107 90.7821 192.107C93.2281 192.107 94.7384 193.863 94.7384 195.997ZM88.2541 195.472H93.2609C93.1296 194.208 92.2432 193.272 90.7821 193.272C89.4853 193.272 88.5331 194.093 88.2541 195.472ZM100.163 200.643C97.7003 200.643 96.0587 198.936 96.0587 196.375C96.0587 193.814 97.7003 192.107 100.163 192.107C102.083 192.107 103.495 193.158 103.791 194.799L102.412 195.078C102.231 194.077 101.361 193.355 100.196 193.355C98.5704 193.355 97.5198 194.553 97.5198 196.375C97.5198 198.197 98.5704 199.396 100.196 199.396C101.361 199.396 102.215 198.755 102.445 197.656L103.807 197.935C103.446 199.642 102.067 200.643 100.163 200.643ZM105.544 200.512V188.889H106.94V193.863C107.547 192.681 108.549 192.107 109.763 192.107C111.635 192.107 112.866 193.272 112.866 195.062V200.512H111.471V195.324C111.471 194.11 110.715 193.371 109.451 193.371C107.925 193.371 106.94 194.75 106.94 196.966V200.512H105.544ZM119.156 200.512V189.021H123.523C125.756 189.021 127.2 190.334 127.2 192.353C127.2 194.372 125.756 195.686 123.523 195.686H120.65V200.512H119.156ZM120.65 194.339H123.474C124.836 194.339 125.657 193.601 125.657 192.353C125.657 191.106 124.836 190.35 123.474 190.35H120.65V194.339ZM130.843 200.512L127.822 192.238H129.251L131.549 198.887L133.863 192.238H135.308L132.271 200.512H130.843ZM141.061 200.446C140.65 200.594 140.207 200.643 139.764 200.643C138.352 200.643 137.318 199.855 137.318 198.033V193.469H135.775V192.238H137.318V189.727H138.713V192.238H140.929V193.469H138.713V198.082C138.713 198.952 139.206 199.379 139.928 199.379C140.256 199.379 140.634 199.33 140.962 199.166L141.061 200.446ZM142.689 198.805H144.298V200.512H142.689V198.805ZM150.594 200.512V189.021H152.088V199.166H157.784V200.512H150.594ZM163.056 200.446C162.645 200.594 162.202 200.643 161.759 200.643C160.347 200.643 159.313 199.855 159.313 198.033V193.469H157.77V192.238H159.313V189.727H160.708V192.238H162.924V193.469H160.708V198.082C160.708 198.952 161.201 199.379 161.923 199.379C162.251 199.379 162.629 199.33 162.957 199.166L163.056 200.446ZM167.988 200.643C165.411 200.643 163.999 198.805 163.999 196.375C163.999 193.945 165.411 192.107 167.972 192.107C169.072 192.107 170.155 192.649 170.681 193.42V188.889H172.076V200.512H170.681V199.314C170.303 200.069 169.203 200.643 167.988 200.643ZM168.12 199.396C169.745 199.396 170.812 198.197 170.812 196.375C170.812 194.553 169.745 193.355 168.12 193.355C166.495 193.355 165.428 194.553 165.428 196.375C165.428 198.197 166.495 199.396 168.12 199.396ZM174.335 198.805H175.943V200.512H174.335V198.805Z" fill="#757575"/>
</g>
<path d="M51.5131 245.176L50.6709 242.886H46.6671L45.8249 245.176H43.7565L47.7308 234.834H49.6072L53.5815 245.176H51.5131ZM47.3024 241.187H50.0504L48.6764 237.464L47.3024 241.187ZM59.7272 245.294C56.9939 245.294 54.5857 243.507 54.5857 240.005C54.5857 236.504 57.0383 234.716 59.7272 234.716C62.2093 234.716 63.9675 236.075 64.3221 238.158L62.3275 238.572C62.0616 237.257 61.0569 236.444 59.7272 236.444C57.9838 236.444 56.6246 237.686 56.6246 240.005C56.6246 242.325 57.9691 243.551 59.7272 243.551C61.0717 243.551 62.0025 242.812 62.2684 241.601L64.2925 242.044C63.7902 244.068 62.1059 245.294 59.7272 245.294ZM71.3403 245.294C68.607 245.294 66.1988 243.507 66.1988 240.005C66.1988 236.504 68.6513 234.716 71.3403 234.716C73.8224 234.716 75.5805 236.075 75.9351 238.158L73.9406 238.572C73.6746 237.257 72.67 236.444 71.3403 236.444C69.5969 236.444 68.2377 237.686 68.2377 240.005C68.2377 242.325 69.5821 243.551 71.3403 243.551C72.6848 243.551 73.6155 242.812 73.8815 241.601L75.9056 242.044C75.4033 244.068 73.719 245.294 71.3403 245.294ZM83.0568 245.294C80.028 245.294 77.8118 243.063 77.8118 240.005C77.8118 236.947 80.028 234.716 83.0568 234.716C86.0708 234.716 88.2869 236.947 88.2869 240.005C88.2869 243.063 86.0708 245.294 83.0568 245.294ZM83.0568 243.551C84.9331 243.551 86.2628 242.059 86.2628 240.005C86.2628 237.951 84.9331 236.444 83.0568 236.444C81.1804 236.444 79.8359 237.951 79.8359 240.005C79.8359 242.059 81.1804 243.551 83.0568 243.551ZM94.6821 245.294C92.2591 245.294 90.6043 243.965 90.6043 241.423V234.834H92.4955V241.438C92.4955 242.842 93.3967 243.536 94.6821 243.536C95.9822 243.536 96.8835 242.842 96.8835 241.438V234.834H98.7598V241.423C98.7598 243.965 97.1051 245.294 94.6821 245.294ZM101.525 245.176V234.834H103.564L107.996 242.014V234.834H109.872V245.176H107.834L103.416 238.011V245.176H101.525ZM115.04 245.176V236.563H111.923V234.834H120.167V236.563H117.05V245.176H115.04ZM126.553 245.176V234.834H128.592L133.024 242.014V234.834H134.9V245.176H132.862L128.444 238.011V245.176H126.553ZM141.768 245.294C139.345 245.294 137.69 243.965 137.69 241.423V234.834H139.581V241.438C139.581 242.842 140.482 243.536 141.768 243.536C143.068 243.536 143.969 242.842 143.969 241.438V234.834H145.845V241.423C145.845 243.965 144.191 245.294 141.768 245.294ZM148.61 245.176V234.834H150.871L154.033 242.325L157.194 234.834H159.455V245.176H157.564V238.572L154.786 245.176H153.279L150.501 238.572V245.176H148.61ZM162.229 245.176V234.834H166.292C168.183 234.834 169.542 235.78 169.542 237.493C169.542 238.469 168.922 239.207 168.286 239.532C169.262 239.902 170.045 240.729 170.045 242.103C170.045 244.039 168.597 245.176 166.44 245.176H162.229ZM164.238 238.867H166.144C167.164 238.867 167.666 238.424 167.666 237.656C167.666 236.873 167.164 236.444 166.115 236.444H164.238V238.867ZM164.238 243.433H166.233C167.533 243.433 168.139 242.945 168.139 242.014C168.139 241.069 167.533 240.567 166.233 240.567H164.238V243.433ZM172.356 245.176V234.834H179.27V236.563H174.365V238.838H178.295V240.581H174.365V243.433H179.433V245.176H172.356ZM190.198 245.176H187.864L185.396 240.936H183.771V245.176H181.762L181.747 234.834H185.736C187.76 234.834 189.075 236.031 189.075 237.892C189.075 239.06 188.469 240.049 187.45 240.552L190.198 245.176ZM183.771 236.563V239.207H185.426C186.46 239.207 187.051 238.72 187.051 237.892C187.051 237.065 186.46 236.563 185.426 236.563H183.771Z" fill="black"/>
<g filter="url(#filter2_f_75_4680)">
<path d="M53.2729 276.026H51.7134L48.5779 271.085L45.4424 276.026H43.8829L47.8063 269.837L44.441 264.535H46.0006L48.5779 268.606L51.1552 264.535H52.7311L49.3659 269.853L53.2729 276.026ZM63.1161 276.026H61.5566L58.4211 271.085L55.2856 276.026H53.7261L57.6495 269.837L54.2843 264.535H55.8438L58.4211 268.606L60.9984 264.535H62.5744L59.2091 269.853L63.1161 276.026ZM72.9593 276.026H71.3998L68.2643 271.085L65.1289 276.026H63.5693L67.4928 269.837L64.1275 264.535H65.687L68.2643 268.606L70.8416 264.535H72.4176L69.0523 269.853L72.9593 276.026ZM82.8025 276.026H81.243L78.1075 271.085L74.9721 276.026H73.4125L77.336 269.837L73.9707 264.535H75.5302L78.1075 268.606L80.6848 264.535H82.2608L78.8955 269.853L82.8025 276.026ZM92.6457 276.026H91.0862L87.9507 271.085L84.8153 276.026H83.2558L87.1792 269.837L83.8139 264.535H85.3734L87.9507 268.606L90.5281 264.535H92.104L88.7387 269.853L92.6457 276.026ZM102.489 276.026H100.929L97.794 271.085L94.6585 276.026H93.099L97.0224 269.837L93.6571 264.535H95.2166L97.794 268.606L100.371 264.535H101.947L98.5819 269.853L102.489 276.026ZM112.332 276.026H110.773L107.637 271.085L104.502 276.026H102.942L106.866 269.837L103.5 264.535H105.06L107.637 268.606L110.214 264.535H111.79L108.425 269.853L112.332 276.026ZM122.175 276.026H120.616L117.48 271.085L114.345 276.026H112.785L116.709 269.837L113.344 264.535H114.903L117.48 268.606L120.058 264.535H121.634L118.268 269.853L122.175 276.026ZM132.019 276.026H130.459L127.324 271.085L124.188 276.026H122.629L126.552 269.837L123.187 264.535H124.746L127.324 268.606L129.901 264.535H131.477L128.112 269.853L132.019 276.026ZM141.862 276.026H140.302L137.167 271.085L134.031 276.026H132.472L136.395 269.837L133.03 264.535H134.589L137.167 268.606L139.744 264.535H141.32L137.955 269.853L141.862 276.026ZM151.705 276.026H150.145L147.01 271.085L143.875 276.026H142.315L146.238 269.837L142.873 264.535H144.433L147.01 268.606L149.587 264.535H151.163L147.798 269.853L151.705 276.026ZM161.548 276.026H159.989L156.853 271.085L153.718 276.026H152.158L156.082 269.837L152.716 264.535H154.276L156.853 268.606L159.431 264.535H161.006L157.641 269.853L161.548 276.026ZM162.264 276.026L162.248 274.729L166.565 271.002C167.911 269.837 168.486 268.885 168.486 267.851C168.486 266.57 167.632 265.733 166.286 265.733C164.677 265.733 163.774 266.866 163.939 268.573L162.494 268.474C162.313 266.061 163.889 264.403 166.286 264.403C168.551 264.403 170.029 265.766 170.029 267.851C170.029 269.246 169.257 270.526 167.484 272.02L164.365 274.68H170.029V276.026H162.264ZM175.248 276.157C172.982 276.157 171.357 274.844 171.144 272.841L172.555 272.628C172.719 273.957 173.787 274.811 175.248 274.811C176.84 274.811 177.874 273.859 177.874 272.414C177.874 270.92 176.922 270.05 175.33 270.05C174.903 270.05 174.427 270.182 174.066 270.411L173.425 269.459L177.053 265.864H171.472V264.535H178.81V265.831L175.543 269.016C177.808 268.803 179.417 270.182 179.417 272.447C179.417 274.663 177.776 276.157 175.248 276.157ZM182.877 276.026V266.406C182.089 267.128 181.235 267.489 180.152 267.686V266.357C181.301 266.11 182.302 265.519 183.107 264.535H184.289V276.026H182.877Z" fill="#757575"/>
</g>
<path d="M53.0792 320.69H50.7448L48.2775 316.45H46.6523V320.69H44.643L44.6282 310.348H48.6173C50.6414 310.348 51.9563 311.544 51.9563 313.406C51.9563 314.573 51.3506 315.563 50.3311 316.065L53.0792 320.69ZM46.6523 312.076V314.721H48.307C49.3412 314.721 49.9322 314.233 49.9322 313.406C49.9322 312.579 49.3412 312.076 48.307 312.076H46.6523ZM59.2968 320.808C56.268 320.808 54.0519 318.577 54.0519 315.519C54.0519 312.46 56.268 310.23 59.2968 310.23C62.3108 310.23 64.5269 312.46 64.5269 315.519C64.5269 318.577 62.3108 320.808 59.2968 320.808ZM59.2968 319.065C61.1731 319.065 62.5028 317.572 62.5028 315.519C62.5028 313.465 61.1731 311.958 59.2968 311.958C57.4204 311.958 56.076 313.465 56.076 315.519C56.076 317.572 57.4204 319.065 59.2968 319.065ZM70.9221 320.808C68.4991 320.808 66.8444 319.478 66.8444 316.937V310.348H68.7355V316.952C68.7355 318.355 69.6367 319.05 70.9221 319.05C72.2222 319.05 73.1235 318.355 73.1235 316.952V310.348H74.9998V316.937C74.9998 319.478 73.3451 320.808 70.9221 320.808ZM80.1436 320.69V312.076H77.0261V310.348H85.2703V312.076H82.1529V320.69H80.1436ZM87.1127 320.69V310.348H89.122V320.69H87.1127ZM91.8868 320.69V310.348H93.9257L98.358 317.528V310.348H100.234V320.69H98.1955L93.778 313.524V320.69H91.8868ZM107.633 320.808C105.004 320.808 102.566 319.05 102.566 315.519C102.566 311.988 105.063 310.23 107.766 310.23C110.248 310.23 112.007 311.53 112.406 313.672L110.426 314.086C110.175 312.785 109.14 311.958 107.752 311.958C105.905 311.958 104.59 313.258 104.59 315.519C104.59 317.779 105.905 319.065 107.722 319.065C109.288 319.065 110.337 318.134 110.441 316.789H107.367V315.164H112.302V320.69H110.485V319.434C110.027 320.276 108.889 320.808 107.633 320.808ZM119.324 320.69V310.348H121.363L125.796 317.528V310.348H127.672V320.69H125.633L121.216 313.524V320.69H119.324ZM134.539 320.808C132.116 320.808 130.461 319.478 130.461 316.937V310.348H132.352V316.952C132.352 318.355 133.254 319.05 134.539 319.05C135.839 319.05 136.74 318.355 136.74 316.952V310.348H138.617V316.937C138.617 319.478 136.962 320.808 134.539 320.808ZM141.382 320.69V310.348H143.642L146.804 317.838L149.966 310.348H152.226V320.69H150.335V314.086L147.558 320.69H146.051L143.273 314.086V320.69H141.382ZM155 320.69V310.348H159.063C160.955 310.348 162.314 311.293 162.314 313.007C162.314 313.982 161.693 314.721 161.058 315.046C162.033 315.415 162.816 316.243 162.816 317.617C162.816 319.552 161.368 320.69 159.211 320.69H155ZM157.01 314.381H158.916C159.935 314.381 160.437 313.938 160.437 313.17C160.437 312.387 159.935 311.958 158.886 311.958H157.01V314.381ZM157.01 318.946H159.004C160.304 318.946 160.91 318.459 160.91 317.528C160.91 316.583 160.304 316.08 159.004 316.08H157.01V318.946ZM165.127 320.69V310.348H172.042V312.076H167.137V314.352H171.067V316.095H167.137V318.946H172.204V320.69H165.127ZM182.969 320.69H180.635L178.168 316.45H176.543V320.69H174.533L174.519 310.348H178.508C180.532 310.348 181.847 311.544 181.847 313.406C181.847 314.573 181.241 315.563 180.221 316.065L182.969 320.69ZM176.543 312.076V314.721H178.197C179.232 314.721 179.823 314.233 179.823 313.406C179.823 312.579 179.232 312.076 178.197 312.076H176.543Z" fill="black"/>
<g filter="url(#filter3_f_75_4680)">
<path d="M53.2729 351.539H51.7134L48.5779 346.598L45.4424 351.539H43.8829L47.8063 345.351L44.441 340.048H46.0006L48.5779 344.119L51.1552 340.048H52.7311L49.3659 345.367L53.2729 351.539ZM63.1161 351.539H61.5566L58.4211 346.598L55.2856 351.539H53.7261L57.6495 345.351L54.2843 340.048H55.8438L58.4211 344.119L60.9984 340.048H62.5744L59.2091 345.367L63.1161 351.539ZM72.9593 351.539H71.3998L68.2643 346.598L65.1289 351.539H63.5693L67.4928 345.351L64.1275 340.048H65.687L68.2643 344.119L70.8416 340.048H72.4176L69.0523 345.367L72.9593 351.539ZM82.8025 351.539H81.243L78.1075 346.598L74.9721 351.539H73.4125L77.336 345.351L73.9707 340.048H75.5302L78.1075 344.119L80.6848 340.048H82.2608L78.8955 345.367L82.8025 351.539ZM92.6457 351.539H91.0862L87.9507 346.598L84.8153 351.539H83.2558L87.1792 345.351L83.8139 340.048H85.3734L87.9507 344.119L90.5281 340.048H92.104L88.7387 345.367L92.6457 351.539ZM102.489 351.539H100.929L97.794 346.598L94.6585 351.539H93.099L97.0224 345.351L93.6571 340.048H95.2166L97.794 344.119L100.371 340.048H101.947L98.5819 345.367L102.489 351.539ZM112.332 351.539H110.773L107.637 346.598L104.502 351.539H102.942L106.866 345.351L103.5 340.048H105.06L107.637 344.119L110.214 340.048H111.79L108.425 345.367L112.332 351.539ZM122.175 351.539H120.616L117.48 346.598L114.345 351.539H112.785L116.709 345.351L113.344 340.048H114.903L117.48 344.119L120.058 340.048H121.634L118.268 345.367L122.175 351.539ZM132.019 351.539H130.459L127.324 346.598L124.188 351.539H122.629L126.552 345.351L123.187 340.048H124.746L127.324 344.119L129.901 340.048H131.477L128.112 345.367L132.019 351.539ZM141.862 351.539H140.302L137.167 346.598L134.031 351.539H132.472L136.395 345.351L133.03 340.048H134.589L137.167 344.119L139.744 340.048H141.32L137.955 345.367L141.862 351.539ZM151.705 351.539H150.145L147.01 346.598L143.875 351.539H142.315L146.238 345.351L142.873 340.048H144.433L147.01 344.119L149.587 340.048H151.163L147.798 345.367L151.705 351.539ZM161.548 351.539H159.989L156.853 346.598L153.718 351.539H152.158L156.082 345.351L152.716 340.048H154.276L156.853 344.119L159.431 340.048H161.006L157.641 345.367L161.548 351.539ZM162.264 351.539L162.248 350.243L166.565 346.516C167.911 345.351 168.486 344.398 168.486 343.364C168.486 342.084 167.632 341.247 166.286 341.247C164.677 341.247 163.774 342.379 163.939 344.087L162.494 343.988C162.313 341.575 163.889 339.917 166.286 339.917C168.551 339.917 170.029 341.279 170.029 343.364C170.029 344.76 169.257 346.04 167.484 347.534L164.365 350.193H170.029V351.539H162.264ZM175.248 351.671C172.982 351.671 171.357 350.357 171.144 348.355L172.555 348.141C172.719 349.471 173.787 350.325 175.248 350.325C176.84 350.325 177.874 349.373 177.874 347.928C177.874 346.434 176.922 345.564 175.33 345.564C174.903 345.564 174.427 345.695 174.066 345.925L173.425 344.973L177.053 341.378H171.472V340.048H178.81V341.345L175.543 344.53C177.808 344.316 179.417 345.695 179.417 347.961C179.417 350.177 177.776 351.671 175.248 351.671ZM182.877 351.539V341.92C182.089 342.642 181.235 343.003 180.152 343.2V341.87C181.301 341.624 182.302 341.033 183.107 340.048H184.289V351.539H182.877Z" fill="#757575"/>
</g>
<path d="M51.5131 396.204L50.6709 393.914H46.6671L45.8249 396.204H43.7565L47.7308 385.862H49.6072L53.5815 396.204H51.5131ZM47.3024 392.215H50.0504L48.6764 388.491L47.3024 392.215ZM59.7272 396.322C56.9939 396.322 54.5857 394.534 54.5857 391.033C54.5857 387.531 57.0383 385.743 59.7272 385.743C62.2093 385.743 63.9675 387.103 64.3221 389.186L62.3275 389.599C62.0616 388.285 61.0569 387.472 59.7272 387.472C57.9838 387.472 56.6246 388.713 56.6246 391.033C56.6246 393.352 57.9691 394.578 59.7272 394.578C61.0717 394.578 62.0025 393.84 62.2684 392.628L64.2925 393.071C63.7902 395.096 62.1059 396.322 59.7272 396.322ZM71.3403 396.322C68.607 396.322 66.1988 394.534 66.1988 391.033C66.1988 387.531 68.6513 385.743 71.3403 385.743C73.8224 385.743 75.5805 387.103 75.9351 389.186L73.9406 389.599C73.6746 388.285 72.67 387.472 71.3403 387.472C69.5969 387.472 68.2377 388.713 68.2377 391.033C68.2377 393.352 69.5821 394.578 71.3403 394.578C72.6848 394.578 73.6155 393.84 73.8815 392.628L75.9056 393.071C75.4033 395.096 73.719 396.322 71.3403 396.322ZM83.0568 396.322C80.028 396.322 77.8118 394.091 77.8118 391.033C77.8118 387.974 80.028 385.743 83.0568 385.743C86.0708 385.743 88.2869 387.974 88.2869 391.033C88.2869 394.091 86.0708 396.322 83.0568 396.322ZM83.0568 394.578C84.9331 394.578 86.2628 393.086 86.2628 391.033C86.2628 388.979 84.9331 387.472 83.0568 387.472C81.1804 387.472 79.8359 388.979 79.8359 391.033C79.8359 393.086 81.1804 394.578 83.0568 394.578ZM94.6821 396.322C92.2591 396.322 90.6043 394.992 90.6043 392.451V385.862H92.4955V392.466C92.4955 393.869 93.3967 394.564 94.6821 394.564C95.9822 394.564 96.8835 393.869 96.8835 392.466V385.862H98.7598V392.451C98.7598 394.992 97.1051 396.322 94.6821 396.322ZM101.525 396.204V385.862H103.564L107.996 393.042V385.862H109.872V396.204H107.834L103.416 389.038V396.204H101.525ZM115.04 396.204V387.59H111.923V385.862H120.167V387.59H117.05V396.204H115.04ZM128.932 396.204V387.59H125.814V385.862H134.058V387.59H130.941V396.204H128.932ZM138.674 396.204V391.919L135.128 385.862H137.285L139.679 390.028L142.087 385.862H144.244L140.683 391.919V396.204H138.674ZM145.812 396.204V385.862H149.978C152.076 385.862 153.42 387.103 153.42 389.023C153.42 390.929 152.076 392.17 149.978 392.17H147.821V396.204H145.812ZM147.821 390.442H149.801C150.805 390.442 151.411 389.91 151.411 389.023C151.411 388.122 150.805 387.59 149.801 387.59H147.821V390.442ZM155.505 396.204V385.862H162.42V387.59H157.515V389.865H161.445V391.609H157.515V394.46H162.582V396.204H155.505Z" fill="black"/>
<g filter="url(#filter4_f_75_4680)">
<path d="M49.9076 427.185C47.0184 427.185 44.3261 425.264 44.3261 421.308C44.3261 417.351 47.0348 415.431 49.9076 415.431C52.4192 415.431 54.2743 416.842 54.7503 419.059L53.2729 419.387C52.9117 417.729 51.6805 416.76 49.8912 416.76C47.5601 416.76 45.8692 418.369 45.8692 421.308C45.8692 424.246 47.5601 425.838 49.8912 425.838C51.6805 425.838 52.8461 424.919 53.2565 423.327L54.7503 423.639C54.1758 425.806 52.3864 427.185 49.9076 427.185ZM56.5047 427.053V415.431H57.9V420.405C58.5074 419.223 59.5088 418.648 60.7236 418.648C62.595 418.648 63.8262 419.814 63.8262 421.603V427.053H62.4308V421.866C62.4308 420.651 61.6757 419.912 60.4117 419.912C58.885 419.912 57.9 421.291 57.9 423.507V427.053H56.5047ZM73.5771 422.539C73.5771 422.736 73.5607 423.031 73.5443 423.179H67.0107C67.1092 424.853 68.1598 425.953 69.6537 425.953C70.9177 425.953 71.7877 425.362 72.034 424.328L73.3473 424.64C72.9369 426.249 71.5579 427.185 69.6537 427.185C67.1748 427.185 65.6153 425.264 65.6153 422.916C65.6153 420.569 67.1256 418.648 69.6208 418.648C72.0668 418.648 73.5771 420.405 73.5771 422.539ZM67.0927 422.013H72.0996C71.9683 420.749 71.0818 419.814 69.6208 419.814C68.324 419.814 67.3718 420.635 67.0927 422.013ZM79.0014 427.185C76.539 427.185 74.8974 425.477 74.8974 422.916C74.8974 420.355 76.539 418.648 79.0014 418.648C80.9221 418.648 82.3339 419.699 82.6294 421.34L81.2504 421.62C81.0699 420.618 80.1998 419.896 79.0343 419.896C77.4091 419.896 76.3584 421.094 76.3584 422.916C76.3584 424.739 77.4091 425.937 79.0343 425.937C80.1998 425.937 81.0534 425.297 81.2833 424.197L82.6458 424.476C82.2846 426.183 80.9057 427.185 79.0014 427.185ZM90.0138 427.053L86.8947 422.982L85.7949 423.983V427.053H84.3831V415.431H85.7949V422.145L89.6198 418.78H91.4748L87.9289 422.046L91.7539 427.053H90.0138ZM93.0056 415.431H94.6144V417.204H93.0056V415.431ZM93.1041 427.053V418.78H94.4995V427.053H93.1041ZM96.7592 427.053V418.78H98.1546V420.339C98.7292 419.354 99.7305 418.648 100.995 418.648C102.718 418.648 103.949 419.814 103.949 421.57V427.053H102.554V421.833C102.554 420.717 101.848 419.912 100.683 419.912C99.1396 419.912 98.1546 421.242 98.1546 423.425V427.053H96.7592ZM112.324 418.78H113.703V426.659C113.703 428.744 112.127 430.172 109.846 430.172C107.925 430.172 106.431 429.154 106.185 427.661L107.531 427.431C107.613 428.35 108.582 428.99 109.846 428.99C111.307 428.99 112.324 428.104 112.324 426.807V425.658C111.947 426.364 110.863 426.84 109.681 426.84C107.137 426.84 105.742 425.083 105.742 422.752C105.742 420.405 107.137 418.648 109.649 418.648C110.749 418.648 111.832 419.174 112.324 419.896V418.78ZM109.813 425.592C111.405 425.592 112.439 424.476 112.439 422.752C112.439 421.012 111.405 419.896 109.813 419.896C108.204 419.896 107.17 421.012 107.17 422.752C107.17 424.476 108.204 425.592 109.813 425.592ZM127.853 427.053L126.721 424.131H121.615L120.483 427.053H118.939L123.487 415.562H124.849L129.413 427.053H127.853ZM122.124 422.801H126.212L124.176 417.532L122.124 422.801ZM134.245 427.185C131.783 427.185 130.141 425.477 130.141 422.916C130.141 420.355 131.783 418.648 134.245 418.648C136.166 418.648 137.578 419.699 137.873 421.34L136.494 421.62C136.314 420.618 135.444 419.896 134.278 419.896C132.653 419.896 131.602 421.094 131.602 422.916C131.602 424.739 132.653 425.937 134.278 425.937C135.444 425.937 136.297 425.297 136.527 424.197L137.89 424.476C137.528 426.183 136.15 427.185 134.245 427.185ZM143.255 427.185C140.792 427.185 139.151 425.477 139.151 422.916C139.151 420.355 140.792 418.648 143.255 418.648C145.176 418.648 146.587 419.699 146.883 421.34L145.504 421.62C145.323 420.618 144.453 419.896 143.288 419.896C141.662 419.896 140.612 421.094 140.612 422.916C140.612 424.739 141.662 425.937 143.288 425.937C144.453 425.937 145.307 425.297 145.537 424.197L146.899 424.476C146.538 426.183 145.159 427.185 143.255 427.185ZM152.363 427.185C149.901 427.185 148.16 425.395 148.16 422.916C148.16 420.438 149.901 418.648 152.363 418.648C154.809 418.648 156.582 420.438 156.582 422.916C156.582 425.395 154.809 427.185 152.363 427.185ZM152.363 425.937C154.021 425.937 155.137 424.689 155.137 422.916C155.137 421.143 154.021 419.896 152.363 419.896C150.705 419.896 149.589 421.143 149.589 422.916C149.589 424.689 150.705 425.937 152.363 425.937ZM165.558 418.78V427.053H164.162V425.494C163.588 426.479 162.586 427.185 161.322 427.185C159.599 427.185 158.367 426.019 158.367 424.262V418.78H159.763V424C159.763 425.116 160.469 425.921 161.634 425.921C163.177 425.921 164.162 424.591 164.162 422.407V418.78H165.558ZM167.826 427.053V418.78H169.221V420.339C169.796 419.354 170.797 418.648 172.061 418.648C173.785 418.648 175.016 419.814 175.016 421.57V427.053H173.621V421.833C173.621 420.717 172.915 419.912 171.749 419.912C170.206 419.912 169.221 421.242 169.221 423.425V427.053H167.826ZM181.379 426.988C180.969 427.135 180.526 427.185 180.082 427.185C178.671 427.185 177.636 426.397 177.636 424.574V420.011H176.093V418.78H177.636V416.268H179.032V418.78H181.248V420.011H179.032V424.624C179.032 425.494 179.524 425.921 180.247 425.921C180.575 425.921 180.952 425.871 181.281 425.707L181.379 426.988Z" fill="#757575"/>
</g>
<g filter="url(#filter5_b_75_4680)">
<rect x="10" y="38" width="286.46" height="436.25" rx="32.8321" fill="url(#paint2_radial_75_4680)" fill-opacity="0.7"/>
</g>
<g filter="url(#filter6_d_75_4680)">
<path d="M154.889 209.84C154.889 209.84 154.889 209.839 154.889 209.839C154.157 208.739 152.342 208.74 151.61 209.84C148.642 214.305 125.458 224.782 116.988 224.782C115.901 224.782 114.242 225.669 114.242 226.761V264.344C114.242 283.682 149.942 303.242 151.921 303.805C152.095 303.853 152.662 303.88 152.844 303.88C153.026 303.88 154.174 303.853 154.347 303.805C155.989 303.339 192.218 282.325 192.218 266.323V226.762C192.218 225.671 190.559 224.784 189.471 224.784C179.98 224.784 157.773 214.174 154.889 209.842C154.889 209.842 154.889 209.841 154.889 209.84Z" fill="url(#paint3_linear_75_4680)"/>
<path d="M154.889 209.84C154.889 209.84 154.889 209.839 154.889 209.839C154.157 208.739 152.342 208.74 151.61 209.84C148.642 214.305 125.458 224.782 116.988 224.782C115.901 224.782 114.242 225.669 114.242 226.761V264.344C114.242 283.682 149.942 303.242 151.921 303.805C152.095 303.853 152.662 303.88 152.844 303.88C153.026 303.88 154.174 303.853 154.347 303.805C155.989 303.339 192.218 282.325 192.218 266.323V226.762C192.218 225.671 190.559 224.784 189.471 224.784C179.98 224.784 157.773 214.174 154.889 209.842C154.889 209.842 154.889 209.841 154.889 209.84Z" stroke="url(#paint4_linear_75_4680)" stroke-width="1.6416"/>
</g>
<g filter="url(#filter7_b_75_4680)">
<ellipse cx="152.82" cy="256.211" rx="17.2368" ry="16.8264" fill="url(#paint5_linear_75_4680)"/>
</g>
<path fill-rule="evenodd" clip-rule="evenodd" d="M157.852 252.752C157.852 250.014 155.633 247.794 152.895 247.794C150.157 247.794 147.938 250.014 147.938 252.752V257.001H149.354V252.752C149.354 250.796 150.939 249.211 152.895 249.211C154.851 249.211 156.436 250.796 156.436 252.752V257.001H157.852L157.852 252.752Z" fill="white"/>
<path fill-rule="evenodd" clip-rule="evenodd" d="M145.813 256.296V263.37C145.813 264.155 146.45 264.79 147.223 264.79H158.567C159.346 264.79 159.977 264.155 159.977 263.37V256.296C159.977 255.512 159.341 254.876 158.567 254.876H147.223C146.445 254.876 145.813 255.511 145.813 256.296Z" fill="white"/>
</g>
<rect x="10" y="38.2877" width="286.46" height="436.667" rx="32.8321" stroke="url(#paint6_linear_75_4680)" stroke-width="1.6416"/>
</g>
<g filter="url(#filter8_d_75_4680)">
<rect x="238.512" y="7" width="328.008" height="500" rx="37.594" fill="url(#paint7_linear_75_4680)"/>
<rect x="238.512" y="7" width="328.008" height="500" rx="37.594" stroke="url(#paint8_linear_75_4680)" stroke-width="1.8797"/>
<g clip-path="url(#clip2_75_4680)">
<mask id="mask1_75_4680" style="mask-type:luminance" maskUnits="userSpaceOnUse" x="277" y="48" width="57" height="57">
<rect x="277.046" y="48.3533" width="56.391" height="56.391" fill="white"/>
</mask>
<g mask="url(#mask1_75_4680)">
<path fill-rule="evenodd" clip-rule="evenodd" d="M277.046 48.3533H333.437V104.744H277.046V48.3533Z" fill="#F7FCFF"/>
<path fill-rule="evenodd" clip-rule="evenodd" d="M277.046 82.8145V87.5138H333.437V82.8145H277.046Z" fill="#E31D1C"/>
<path fill-rule="evenodd" clip-rule="evenodd" d="M277.046 91.4297V96.129H333.437V91.4297H277.046Z" fill="#E31D1C"/>
<path fill-rule="evenodd" clip-rule="evenodd" d="M277.046 65.5839V70.2831H333.437V65.5839H277.046Z" fill="#E31D1C"/>
<path fill-rule="evenodd" clip-rule="evenodd" d="M277.046 100.045V104.744H333.437V100.045H277.046Z" fill="#E31D1C"/>
<path fill-rule="evenodd" clip-rule="evenodd" d="M277.046 74.1992V78.8985H333.437V74.1992H277.046Z" fill="#E31D1C"/>
<path fill-rule="evenodd" clip-rule="evenodd" d="M277.046 48.3533V53.0526H333.437V48.3533H277.046Z" fill="#E31D1C"/>
<path fill-rule="evenodd" clip-rule="evenodd" d="M277.046 56.9687V61.6679H333.437V56.9687H277.046Z" fill="#E31D1C"/>
<rect x="277.046" y="48.3533" width="35.2444" height="30.5451" fill="#2E42A5"/>
<path fill-rule="evenodd" clip-rule="evenodd" d="M280.08 55.258L278.801 56.4537L279.233 54.3259L278.097 52.9774H279.581L280.078 51.2408L280.662 52.9774H281.927L280.933 54.3259L281.318 56.4537L280.08 55.258ZM287.129 55.258L285.85 56.4537L286.282 54.3259L285.146 52.9774H286.629L287.127 51.2408L287.711 52.9774H288.976L287.982 54.3259L288.367 56.4537L287.129 55.258ZM292.899 56.4537L294.178 55.258L295.416 56.4537L295.031 54.3259L296.025 52.9774H294.76L294.176 51.2408L293.678 52.9774H292.194L293.331 54.3259L292.899 56.4537ZM301.227 55.258L299.948 56.4537L300.379 54.3259L299.243 52.9774H300.727L301.225 51.2408L301.809 52.9774H303.074L302.08 54.3259L302.464 56.4537L301.227 55.258ZM278.801 65.8522L280.08 64.6565L281.318 65.8522L280.933 63.7243L281.927 62.3759H280.662L280.078 60.6393L279.581 62.3759H278.097L279.233 63.7243L278.801 65.8522ZM287.129 64.6565L285.85 65.8522L286.282 63.7243L285.146 62.3759H286.629L287.127 60.6393L287.711 62.3759H288.976L287.982 63.7243L288.367 65.8522L287.129 64.6565ZM292.899 65.8522L294.178 64.6565L295.416 65.8522L295.031 63.7243L296.025 62.3759H294.76L294.176 60.6393L293.678 62.3759H292.194L293.331 63.7243L292.899 65.8522ZM301.227 64.6565L299.948 65.8522L300.379 63.7243L299.243 62.3759H300.727L301.225 60.6393L301.809 62.3759H303.074L302.08 63.7243L302.464 65.8522L301.227 64.6565ZM278.801 75.2507L280.08 74.055L281.318 75.2507L280.933 73.1228L281.927 71.7744H280.662L280.078 70.0378L279.581 71.7744H278.097L279.233 73.1228L278.801 75.2507ZM287.129 74.055L285.85 75.2507L286.282 73.1228L285.146 71.7744H286.629L287.127 70.0378L287.711 71.7744H288.976L287.982 73.1228L288.367 75.2507L287.129 74.055ZM292.899 75.2507L294.178 74.055L295.416 75.2507L295.031 73.1228L296.025 71.7744H294.76L294.176 70.0378L293.678 71.7744H292.194L293.331 73.1228L292.899 75.2507ZM301.227 74.055L299.948 75.2507L300.379 73.1228L299.243 71.7744H300.727L301.225 70.0378L301.809 71.7744H303.074L302.08 73.1228L302.464 75.2507L301.227 74.055ZM306.996 56.4537L308.276 55.258L309.513 56.4537L309.128 54.3259L310.122 52.9774H308.857L308.274 51.2408L307.776 52.9774H306.292L307.428 54.3259L306.996 56.4537ZM308.276 64.6565L306.996 65.8522L307.428 63.7243L306.292 62.3759H307.776L308.274 60.6393L308.857 62.3759H310.122L309.128 63.7243L309.513 65.8522L308.276 64.6565ZM306.996 75.2507L308.276 74.055L309.513 75.2507L309.128 73.1228L310.122 71.7744H308.857L308.274 70.0378L307.776 71.7744H306.292L307.428 73.1228L306.996 75.2507ZM283.605 59.9572L282.325 61.1529L282.757 59.0251L281.621 57.6766H283.105L283.603 55.9401L284.186 57.6766H285.451L284.457 59.0251L284.842 61.1529L283.605 59.9572ZM289.374 61.1529L290.653 59.9572L291.891 61.1529L291.506 59.0251L292.5 57.6766H291.235L290.652 55.9401L290.154 57.6766H288.67L289.806 59.0251L289.374 61.1529ZM297.702 59.9572L296.423 61.1529L296.855 59.0251L295.719 57.6766H297.203L297.701 55.9401L298.284 57.6766H299.549L298.555 59.0251L298.94 61.1529L297.702 59.9572ZM282.325 70.5514L283.605 69.3557L284.842 70.5514L284.457 68.4236L285.451 67.0751H284.186L283.603 65.3386L283.105 67.0751H281.621L282.757 68.4236L282.325 70.5514ZM290.653 69.3557L289.374 70.5514L289.806 68.4236L288.67 67.0751H290.154L290.652 65.3386L291.235 67.0751H292.5L291.506 68.4236L291.891 70.5514L290.653 69.3557ZM296.423 70.5514L297.702 69.3557L298.94 70.5514L298.555 68.4236L299.549 67.0751H298.284L297.701 65.3386L297.203 67.0751H295.719L296.855 68.4236L296.423 70.5514ZM304.751 59.9572L303.472 61.1529L303.904 59.0251L302.768 57.6766H304.252L304.749 55.9401L305.333 57.6766H306.598L305.604 59.0251L305.989 61.1529L304.751 59.9572ZM303.472 70.5514L304.751 69.3557L305.989 70.5514L305.604 68.4236L306.598 67.0751H305.333L304.749 65.3386L304.252 67.0751H302.768L303.904 68.4236L303.472 70.5514Z" fill="#F7FCFF"/>
</g>
</g>
<rect x="277.046" y="48.3533" width="56.391" height="56.391" rx="28.1955" fill="url(#paint9_linear_75_4680)" style="mix-blend-mode:overlay"/>
<rect x="278.221" y="49.5281" width="54.0414" height="54.0414" rx="27.0207" stroke="black" stroke-opacity="0.1" stroke-width="2.34962"/>
<path d="M360.012 86.8195C354.531 86.8195 350.809 83.7067 350.809 78.124V62.8646H354.565V78.1917C354.565 81.5075 356.764 83.3345 360.012 83.3345C363.226 83.3345 365.425 81.5075 365.425 78.1917V62.8646H369.181V78.124C369.181 83.7067 365.459 86.8195 360.012 86.8195ZM380.404 86.8195C375.803 86.8195 372.013 83.7744 371.337 79.4436L374.957 78.327C375.363 81.3721 377.698 83.3684 380.54 83.3684C383.348 83.3684 385.175 82.0488 385.175 80.0188C385.175 74.4022 372.216 77.4812 372.216 68.9548C372.216 65.1992 375.701 62.5939 380.337 62.5939C384.769 62.5939 388.254 64.9624 388.931 68.515L385.378 69.9699C384.904 67.5676 383.044 66.0451 380.337 66.0451C377.765 66.0451 376.209 67.1278 376.209 68.9548C376.209 73.7255 389.201 70.4097 389.201 79.9511C389.201 84.0789 385.716 86.8195 380.404 86.8195ZM391.667 86.5488V62.8646H399.11C405.708 62.8646 411.156 66.8909 411.156 74.7067C411.156 82.5225 405.708 86.5488 399.11 86.5488H391.667ZM395.558 83.0639H398.84C403.103 83.0639 407.095 80.7631 407.095 74.7067C407.095 68.6503 403.103 66.3157 398.84 66.3157H395.558V83.0639Z" fill="#1A1A1A"/>
<path d="M286.046 158.398L285.082 155.776H280.497L279.533 158.398H277.164L281.715 146.556H283.864L288.414 158.398H286.046ZM281.224 153.831H284.371L282.798 149.568L281.224 153.831ZM295.451 158.534C292.322 158.534 289.564 156.487 289.564 152.477C289.564 148.468 292.372 146.421 295.451 146.421C298.294 146.421 300.307 147.977 300.713 150.363L298.429 150.836C298.124 149.331 296.974 148.4 295.451 148.4C293.455 148.4 291.899 149.821 291.899 152.477C291.899 155.133 293.438 156.538 295.451 156.538C296.991 156.538 298.057 155.692 298.361 154.304L300.679 154.812C300.104 157.13 298.175 158.534 295.451 158.534ZM308.749 158.534C305.619 158.534 302.862 156.487 302.862 152.477C302.862 148.468 305.67 146.421 308.749 146.421C311.591 146.421 313.604 147.977 314.01 150.363L311.726 150.836C311.422 149.331 310.271 148.4 308.749 148.4C306.753 148.4 305.196 149.821 305.196 152.477C305.196 155.133 306.736 156.538 308.749 156.538C310.288 156.538 311.354 155.692 311.659 154.304L313.976 154.812C313.401 157.13 311.472 158.534 308.749 158.534ZM322.165 158.534C318.697 158.534 316.159 155.979 316.159 152.477C316.159 148.976 318.697 146.421 322.165 146.421C325.616 146.421 328.153 148.976 328.153 152.477C328.153 155.979 325.616 158.534 322.165 158.534ZM322.165 156.538C324.313 156.538 325.836 154.829 325.836 152.477C325.836 150.126 324.313 148.4 322.165 148.4C320.016 148.4 318.477 150.126 318.477 152.477C318.477 154.829 320.016 156.538 322.165 156.538ZM335.476 158.534C332.702 158.534 330.807 157.011 330.807 154.101V146.556H332.972V154.118C332.972 155.726 334.004 156.521 335.476 156.521C336.965 156.521 337.997 155.726 337.997 154.118V146.556H340.145V154.101C340.145 157.011 338.25 158.534 335.476 158.534ZM343.311 158.398V146.556H345.646L350.721 154.778V146.556H352.87V158.398H350.535L345.477 150.194V158.398H343.311ZM358.787 158.398V148.536H355.218V146.556H364.657V148.536H361.088V158.398H358.787ZM379.464 146.556H381.764V158.398H379.464V153.239H374.27V158.398H371.969V146.556H374.27V151.259H379.464V146.556ZM390.418 158.534C386.949 158.534 384.412 155.979 384.412 152.477C384.412 148.976 386.949 146.421 390.418 146.421C393.869 146.421 396.406 148.976 396.406 152.477C396.406 155.979 393.869 158.534 390.418 158.534ZM390.418 156.538C392.566 156.538 394.089 154.829 394.089 152.477C394.089 150.126 392.566 148.4 390.418 148.4C388.269 148.4 386.73 150.126 386.73 152.477C386.73 154.829 388.269 156.538 390.418 156.538ZM399.06 158.398V146.556H401.361V156.402H406.859V158.398H399.06ZM409.119 158.398V146.556H412.993C416.258 146.556 419.066 148.502 419.066 152.477C419.066 156.453 416.258 158.398 412.993 158.398H409.119ZM411.386 156.402H412.79C414.82 156.402 416.732 155.37 416.732 152.477C416.732 149.585 414.82 148.536 412.79 148.536H411.386V156.402ZM421.723 158.398V146.556H429.64V148.536H424.023V151.141H428.523V153.137H424.023V156.402H429.826V158.398H421.723ZM442.153 158.398H439.48L436.654 153.543H434.794V158.398H432.493L432.476 146.556H437.044C439.361 146.556 440.867 147.927 440.867 150.058C440.867 151.395 440.173 152.528 439.006 153.103L442.153 158.398ZM434.794 148.536V151.564H436.688C437.872 151.564 438.549 151.006 438.549 150.058C438.549 149.111 437.872 148.536 436.688 148.536H434.794ZM449.423 158.398V146.556H451.757L456.832 154.778V146.556H458.981V158.398H456.646L451.588 150.194V158.398H449.423ZM470.058 158.398L469.094 155.776H464.509L463.545 158.398H461.177L465.727 146.556H467.876L472.427 158.398H470.058ZM465.237 153.831H468.383L466.81 149.568L465.237 153.831ZM474.597 158.398V146.556H477.185L480.805 155.133L484.425 146.556H487.014V158.398H484.848V150.836L481.668 158.398H479.942L476.762 150.836V158.398H474.597ZM490.19 158.398V146.556H498.108V148.536H492.491V151.141H496.991V153.137H492.491V156.402H498.294V158.398H490.19Z" fill="black"/>
<g filter="url(#filter9_f_75_4680)">
<path d="M287.422 192.677L286.125 189.331H280.279L278.982 192.677H277.215L282.422 179.519H283.982L289.208 192.677H287.422ZM280.862 187.808H285.542L283.211 181.774L280.862 187.808ZM294.835 192.827C292.297 192.827 290.267 191.192 289.835 188.786L291.451 188.259C291.714 190.101 293.124 191.304 294.872 191.304C296.677 191.304 297.842 190.459 297.842 189.143C297.842 185.628 290.361 187.47 290.361 182.808C290.361 180.759 292.203 179.368 294.797 179.368C297.203 179.368 299.064 180.665 299.402 182.62L297.842 183.222C297.579 181.793 296.451 180.891 294.797 180.891C293.105 180.891 292.09 181.624 292.09 182.808C292.09 185.816 299.609 183.861 299.609 189.124C299.609 191.361 297.711 192.827 294.835 192.827ZM309.89 192.677L305.134 185.947L303.386 187.752V192.677H301.676V179.519H303.386V185.477L309.138 179.519H311.413L306.337 184.744L311.958 192.677H309.89ZM321.189 192.677V181.041H316.997V179.519H327.073V181.041H322.9V192.677H321.189ZM335.541 187.507C335.541 187.733 335.522 188.071 335.503 188.241H328.022C328.135 190.158 329.338 191.417 331.048 191.417C332.495 191.417 333.492 190.741 333.774 189.556L335.277 189.913C334.807 191.756 333.228 192.827 331.048 192.827C328.21 192.827 326.424 190.628 326.424 187.94C326.424 185.252 328.153 183.053 331.01 183.053C333.811 183.053 335.541 185.064 335.541 187.507ZM328.116 186.906H333.849C333.698 185.459 332.683 184.387 331.01 184.387C329.525 184.387 328.435 185.327 328.116 186.906ZM341.752 192.827C338.932 192.827 337.052 190.872 337.052 187.94C337.052 185.007 338.932 183.053 341.752 183.053C343.951 183.053 345.567 184.256 345.906 186.135L344.327 186.455C344.12 185.308 343.124 184.481 341.789 184.481C339.928 184.481 338.725 185.853 338.725 187.94C338.725 190.026 339.928 191.398 341.789 191.398C343.124 191.398 344.101 190.665 344.364 189.406L345.925 189.726C345.511 191.68 343.932 192.827 341.752 192.827ZM347.914 192.677V179.368H349.512V185.064C350.207 183.71 351.354 183.053 352.745 183.053C354.887 183.053 356.297 184.387 356.297 186.436V192.677H354.7V186.737C354.7 185.346 353.835 184.5 352.387 184.5C350.639 184.5 349.512 186.079 349.512 188.616V192.677H347.914ZM363.5 192.677V179.519H368.5C371.057 179.519 372.711 181.022 372.711 183.335C372.711 185.647 371.057 187.15 368.5 187.15H365.211V192.677H363.5ZM365.211 185.609H368.444C370.004 185.609 370.944 184.763 370.944 183.335C370.944 181.906 370.004 181.041 368.444 181.041H365.211V185.609ZM376.882 192.677L373.423 183.203H375.058L377.69 190.816L380.34 183.203H381.994L378.517 192.677H376.882ZM388.581 192.601C388.111 192.771 387.604 192.827 387.096 192.827C385.48 192.827 384.296 191.925 384.296 189.838V184.613H382.529V183.203H384.296V180.327H385.893V183.203H388.431V184.613H385.893V189.895C385.893 190.891 386.457 191.38 387.284 191.38C387.66 191.38 388.093 191.323 388.468 191.135L388.581 192.601ZM390.446 190.722H392.288V192.677H390.446V190.722ZM399.497 192.677V179.519H401.208V191.135H407.73V192.677H399.497ZM413.766 192.601C413.296 192.771 412.789 192.827 412.281 192.827C410.665 192.827 409.481 191.925 409.481 189.838V184.613H407.714V183.203H409.481V180.327H411.078V183.203H413.616V184.613H411.078V189.895C411.078 190.891 411.642 191.38 412.469 191.38C412.845 191.38 413.278 191.323 413.653 191.135L413.766 192.601ZM419.415 192.827C416.463 192.827 414.847 190.722 414.847 187.94C414.847 185.158 416.463 183.053 419.396 183.053C420.655 183.053 421.896 183.673 422.497 184.556V179.368H424.095V192.677H422.497V191.304C422.065 192.169 420.806 192.827 419.415 192.827ZM419.565 191.398C421.426 191.398 422.648 190.026 422.648 187.94C422.648 185.853 421.426 184.481 419.565 184.481C417.704 184.481 416.482 185.853 416.482 187.94C416.482 190.026 417.704 191.398 419.565 191.398ZM426.681 190.722H428.523V192.677H426.681V190.722Z" fill="#757575"/>
</g>
<path d="M286.046 244.865L285.082 242.243H280.497L279.533 244.865H277.164L281.715 233.023H283.864L288.414 244.865H286.046ZM281.224 240.297H284.371L282.798 236.034L281.224 240.297ZM295.451 245C292.322 245 289.564 242.953 289.564 238.944C289.564 234.934 292.372 232.887 295.451 232.887C298.294 232.887 300.307 234.444 300.713 236.829L298.429 237.303C298.124 235.797 296.974 234.867 295.451 234.867C293.455 234.867 291.899 236.288 291.899 238.944C291.899 241.6 293.438 243.004 295.451 243.004C296.991 243.004 298.057 242.158 298.361 240.771L300.679 241.278C300.104 243.596 298.175 245 295.451 245ZM308.749 245C305.619 245 302.862 242.953 302.862 238.944C302.862 234.934 305.67 232.887 308.749 232.887C311.591 232.887 313.604 234.444 314.01 236.829L311.726 237.303C311.422 235.797 310.271 234.867 308.749 234.867C306.753 234.867 305.196 236.288 305.196 238.944C305.196 241.6 306.736 243.004 308.749 243.004C310.288 243.004 311.354 242.158 311.659 240.771L313.976 241.278C313.401 243.596 311.472 245 308.749 245ZM322.165 245C318.697 245 316.159 242.446 316.159 238.944C316.159 235.442 318.697 232.887 322.165 232.887C325.616 232.887 328.153 235.442 328.153 238.944C328.153 242.446 325.616 245 322.165 245ZM322.165 243.004C324.313 243.004 325.836 241.295 325.836 238.944C325.836 236.592 324.313 234.867 322.165 234.867C320.016 234.867 318.477 236.592 318.477 238.944C318.477 241.295 320.016 243.004 322.165 243.004ZM335.476 245C332.702 245 330.807 243.477 330.807 240.568V233.023H332.972V240.585C332.972 242.192 334.004 242.987 335.476 242.987C336.965 242.987 337.997 242.192 337.997 240.585V233.023H340.145V240.568C340.145 243.477 338.25 245 335.476 245ZM343.311 244.865V233.023H345.646L350.721 241.244V233.023H352.87V244.865H350.535L345.477 236.66V244.865H343.311ZM358.787 244.865V235.002H355.218V233.023H364.657V235.002H361.088V244.865H358.787ZM371.969 244.865V233.023H374.304L379.379 241.244V233.023H381.528V244.865H379.193L374.135 236.66V244.865H371.969ZM389.391 245C386.616 245 384.722 243.477 384.722 240.568V233.023H386.887V240.585C386.887 242.192 387.919 242.987 389.391 242.987C390.879 242.987 391.911 242.192 391.911 240.585V233.023H394.06V240.568C394.06 243.477 392.165 245 389.391 245ZM397.226 244.865V233.023H399.814L403.435 241.6L407.055 233.023H409.643V244.865H407.478V237.303L404.297 244.865H402.572L399.391 237.303V244.865H397.226ZM412.82 244.865V233.023H417.472C419.637 233.023 421.194 234.105 421.194 236.068C421.194 237.184 420.483 238.03 419.756 238.402C420.872 238.825 421.769 239.773 421.769 241.346C421.769 243.562 420.111 244.865 417.641 244.865H412.82ZM415.121 237.641H417.303C418.47 237.641 419.045 237.133 419.045 236.254C419.045 235.357 418.47 234.867 417.269 234.867H415.121V237.641ZM415.121 242.868H417.404C418.893 242.868 419.587 242.31 419.587 241.244C419.587 240.162 418.893 239.586 417.404 239.586H415.121V242.868ZM424.416 244.865V233.023H432.333V235.002H426.716V237.607H431.216V239.603H426.716V242.868H432.519V244.865H424.416ZM444.845 244.865H442.172L439.347 240.009H437.486V244.865H435.186L435.169 233.023H439.736C442.054 233.023 443.56 234.393 443.56 236.524C443.56 237.861 442.866 238.994 441.699 239.57L444.845 244.865ZM437.486 235.002V238.03H439.381C440.565 238.03 441.242 237.472 441.242 236.524C441.242 235.577 440.565 235.002 439.381 235.002H437.486Z" fill="black"/>
<g filter="url(#filter10_f_75_4680)">
<path d="M288.061 279.143H286.275L282.685 273.485L279.095 279.143H277.309L281.802 272.056L277.948 265.985H279.734L282.685 270.647L285.636 265.985H287.441L283.587 272.075L288.061 279.143ZM299.332 279.143H297.546L293.956 273.485L290.366 279.143H288.58L293.072 272.056L289.219 265.985H291.005L293.956 270.647L296.907 265.985H298.711L294.858 272.075L299.332 279.143ZM310.603 279.143H308.817L305.227 273.485L301.636 279.143H299.851L304.343 272.056L300.49 265.985H302.276L305.227 270.647L308.178 265.985H309.982L306.129 272.075L310.603 279.143ZM321.873 279.143H320.088L316.498 273.485L312.907 279.143H311.122L315.614 272.056L311.761 265.985H313.546L316.498 270.647L319.449 265.985H321.253L317.4 272.075L321.873 279.143ZM333.144 279.143H331.359L327.768 273.485L324.178 279.143H322.392L326.885 272.056L323.032 265.985H324.817L327.768 270.647L330.72 265.985H332.524L328.671 272.075L333.144 279.143ZM344.415 279.143H342.629L339.039 273.485L335.449 279.143H333.663L338.156 272.056L334.302 265.985H336.088L339.039 270.647L341.99 265.985H343.795L339.942 272.075L344.415 279.143ZM355.686 279.143H353.9L350.31 273.485L346.72 279.143H344.934L349.427 272.056L345.573 265.985H347.359L350.31 270.647L353.261 265.985H355.066L351.212 272.075L355.686 279.143ZM366.957 279.143H365.171L361.581 273.485L357.991 279.143H356.205L360.698 272.056L356.844 265.985H358.63L361.581 270.647L364.532 265.985H366.337L362.483 272.075L366.957 279.143ZM378.228 279.143H376.442L372.852 273.485L369.262 279.143H367.476L371.968 272.056L368.115 265.985H369.901L372.852 270.647L375.803 265.985H377.607L373.754 272.075L378.228 279.143ZM389.499 279.143H387.713L384.123 273.485L380.532 279.143H378.747L383.239 272.056L379.386 265.985H381.172L384.123 270.647L387.074 265.985H388.878L385.025 272.075L389.499 279.143ZM400.769 279.143H398.984L395.394 273.485L391.803 279.143H390.018L394.51 272.056L390.657 265.985H392.442L395.394 270.647L398.345 265.985H400.149L396.296 272.075L400.769 279.143ZM412.04 279.143H410.255L406.664 273.485L403.074 279.143H401.288L405.781 272.056L401.928 265.985H403.713L406.664 270.647L409.616 265.985H411.42L407.567 272.075L412.04 279.143ZM412.86 279.143L412.841 277.658L417.785 273.391C419.326 272.056 419.984 270.966 419.984 269.782C419.984 268.316 419.007 267.357 417.465 267.357C415.623 267.357 414.589 268.654 414.777 270.609L413.123 270.496C412.916 267.733 414.721 265.835 417.465 265.835C420.059 265.835 421.751 267.395 421.751 269.782C421.751 271.38 420.868 272.846 418.837 274.556L415.266 277.602H421.751V279.143H412.86ZM427.727 279.293C425.133 279.293 423.272 277.789 423.027 275.496L424.644 275.252C424.832 276.774 426.054 277.752 427.727 277.752C429.55 277.752 430.734 276.662 430.734 275.008C430.734 273.297 429.644 272.301 427.821 272.301C427.332 272.301 426.787 272.451 426.373 272.714L425.64 271.624L429.794 267.508H423.403V265.985H431.806V267.47L428.065 271.117C430.659 270.872 432.501 272.451 432.501 275.045C432.501 277.583 430.621 279.293 427.727 279.293ZM436.463 279.143V268.128C435.56 268.955 434.583 269.368 433.342 269.594V268.071C434.658 267.789 435.805 267.113 436.726 265.985H438.079V279.143H436.463Z" fill="#757575"/>
</g>
<path d="M287.839 331.331H285.166L282.341 326.476H280.48V331.331H278.179L278.162 319.489H282.73C285.048 319.489 286.553 320.859 286.553 322.991C286.553 324.327 285.86 325.461 284.693 326.036L287.839 331.331ZM280.48 321.468V324.496H282.375C283.559 324.496 284.236 323.938 284.236 322.991C284.236 322.043 283.559 321.468 282.375 321.468H280.48ZM294.959 331.466C291.491 331.466 288.953 328.912 288.953 325.41C288.953 321.908 291.491 319.353 294.959 319.353C298.41 319.353 300.947 321.908 300.947 325.41C300.947 328.912 298.41 331.466 294.959 331.466ZM294.959 329.47C297.107 329.47 298.63 327.761 298.63 325.41C298.63 323.058 297.107 321.333 294.959 321.333C292.81 321.333 291.271 323.058 291.271 325.41C291.271 327.761 292.81 329.47 294.959 329.47ZM308.27 331.466C305.496 331.466 303.601 329.944 303.601 327.034V319.489H305.766V327.051C305.766 328.658 306.798 329.453 308.27 329.453C309.759 329.453 310.791 328.658 310.791 327.051V319.489H312.939V327.034C312.939 329.944 311.044 331.466 308.27 331.466ZM318.829 331.331V321.468H315.259V319.489H324.699V321.468H321.13V331.331H318.829ZM326.809 331.331V319.489H329.11V331.331H326.809ZM332.275 331.331V319.489H334.61L339.685 327.711V319.489H341.834V331.331H339.499L334.441 323.126V331.331H332.275ZM350.306 331.466C347.295 331.466 344.503 329.453 344.503 325.41C344.503 321.367 347.362 319.353 350.458 319.353C353.3 319.353 355.313 320.842 355.77 323.295L353.503 323.769C353.216 322.28 352.031 321.333 350.441 321.333C348.326 321.333 346.821 322.821 346.821 325.41C346.821 327.998 348.326 329.47 350.407 329.47C352.201 329.47 353.402 328.404 353.52 326.865H350.001V325.004H355.652V331.331H353.571V329.893C353.046 330.857 351.744 331.466 350.306 331.466ZM363.692 331.331V319.489H366.027L371.102 327.711V319.489H373.251V331.331H370.916L365.858 323.126V331.331H363.692ZM381.114 331.466C378.339 331.466 376.445 329.944 376.445 327.034V319.489H378.61V327.051C378.61 328.658 379.642 329.453 381.114 329.453C382.603 329.453 383.634 328.658 383.634 327.051V319.489H385.783V327.034C385.783 329.944 383.888 331.466 381.114 331.466ZM388.949 331.331V319.489H391.537L395.158 328.066L398.778 319.489H401.366V331.331H399.201V323.769L396.02 331.331H394.295L391.114 323.769V331.331H388.949ZM404.543 331.331V319.489H409.195C411.361 319.489 412.917 320.571 412.917 322.534C412.917 323.65 412.206 324.496 411.479 324.868C412.595 325.291 413.492 326.239 413.492 327.812C413.492 330.028 411.834 331.331 409.364 331.331H404.543ZM406.844 324.107H409.026C410.193 324.107 410.768 323.6 410.768 322.72C410.768 321.823 410.193 321.333 408.992 321.333H406.844V324.107ZM406.844 329.335H409.127C410.616 329.335 411.31 328.776 411.31 327.711C411.31 326.628 410.616 326.053 409.127 326.053H406.844V329.335ZM416.139 331.331V319.489H424.056V321.468H418.439V324.073H422.939V326.07H418.439V329.335H424.242V331.331H416.139ZM436.569 331.331H433.896L431.07 326.476H429.209V331.331H426.909L426.892 319.489H431.459C433.777 319.489 435.283 320.859 435.283 322.991C435.283 324.327 434.589 325.461 433.422 326.036L436.569 331.331ZM429.209 321.468V324.496H431.104C432.288 324.496 432.965 323.938 432.965 322.991C432.965 322.043 432.288 321.468 431.104 321.468H429.209Z" fill="black"/>
<g filter="url(#filter11_f_75_4680)">
<path d="M288.061 365.609H286.275L282.685 359.951L279.095 365.609H277.309L281.802 358.523L277.948 352.451H279.734L282.685 357.113L285.636 352.451H287.441L283.587 358.541L288.061 365.609ZM299.332 365.609H297.546L293.956 359.951L290.366 365.609H288.58L293.072 358.523L289.219 352.451H291.005L293.956 357.113L296.907 352.451H298.711L294.858 358.541L299.332 365.609ZM310.603 365.609H308.817L305.227 359.951L301.636 365.609H299.851L304.343 358.523L300.49 352.451H302.276L305.227 357.113L308.178 352.451H309.982L306.129 358.541L310.603 365.609ZM321.873 365.609H320.088L316.498 359.951L312.907 365.609H311.122L315.614 358.523L311.761 352.451H313.546L316.498 357.113L319.449 352.451H321.253L317.4 358.541L321.873 365.609ZM333.144 365.609H331.359L327.768 359.951L324.178 365.609H322.392L326.885 358.523L323.032 352.451H324.817L327.768 357.113L330.72 352.451H332.524L328.671 358.541L333.144 365.609ZM344.415 365.609H342.629L339.039 359.951L335.449 365.609H333.663L338.156 358.523L334.302 352.451H336.088L339.039 357.113L341.99 352.451H343.795L339.942 358.541L344.415 365.609ZM355.686 365.609H353.9L350.31 359.951L346.72 365.609H344.934L349.427 358.523L345.573 352.451H347.359L350.31 357.113L353.261 352.451H355.066L351.212 358.541L355.686 365.609ZM366.957 365.609H365.171L361.581 359.951L357.991 365.609H356.205L360.698 358.523L356.844 352.451H358.63L361.581 357.113L364.532 352.451H366.337L362.483 358.541L366.957 365.609ZM378.228 365.609H376.442L372.852 359.951L369.262 365.609H367.476L371.968 358.523L368.115 352.451H369.901L372.852 357.113L375.803 352.451H377.607L373.754 358.541L378.228 365.609ZM389.499 365.609H387.713L384.123 359.951L380.532 365.609H378.747L383.239 358.523L379.386 352.451H381.172L384.123 357.113L387.074 352.451H388.878L385.025 358.541L389.499 365.609ZM400.769 365.609H398.984L395.394 359.951L391.803 365.609H390.018L394.51 358.523L390.657 352.451H392.442L395.394 357.113L398.345 352.451H400.149L396.296 358.541L400.769 365.609ZM412.04 365.609H410.255L406.664 359.951L403.074 365.609H401.288L405.781 358.523L401.928 352.451H403.713L406.664 357.113L409.616 352.451H411.42L407.567 358.541L412.04 365.609ZM412.86 365.609L412.841 364.124L417.785 359.857C419.326 358.523 419.984 357.432 419.984 356.248C419.984 354.782 419.007 353.823 417.465 353.823C415.623 353.823 414.589 355.12 414.777 357.075L413.123 356.962C412.916 354.199 414.721 352.301 417.465 352.301C420.059 352.301 421.751 353.861 421.751 356.248C421.751 357.846 420.868 359.312 418.837 361.023L415.266 364.068H421.751V365.609H412.86ZM427.727 365.759C425.133 365.759 423.272 364.256 423.027 361.962L424.644 361.718C424.832 363.241 426.054 364.218 427.727 364.218C429.55 364.218 430.734 363.128 430.734 361.474C430.734 359.763 429.644 358.767 427.821 358.767C427.332 358.767 426.787 358.917 426.373 359.18L425.64 358.09L429.794 353.974H423.403V352.451H431.806V353.936L428.065 357.583C430.659 357.338 432.501 358.917 432.501 361.511C432.501 364.049 430.621 365.759 427.727 365.759ZM436.463 365.609V354.594C435.56 355.421 434.583 355.835 433.342 356.06V354.538C434.658 354.256 435.805 353.579 436.726 352.451H438.079V365.609H436.463Z" fill="#757575"/>
</g>
<path d="M286.046 417.797L285.082 415.175H280.497L279.533 417.797H277.164L281.715 405.955H283.864L288.414 417.797H286.046ZM281.224 413.229H284.371L282.798 408.966L281.224 413.229ZM295.451 417.932C292.322 417.932 289.564 415.885 289.564 411.876C289.564 407.867 292.372 405.82 295.451 405.82C298.294 405.82 300.307 407.376 300.713 409.761L298.429 410.235C298.124 408.729 296.974 407.799 295.451 407.799C293.455 407.799 291.899 409.22 291.899 411.876C291.899 414.532 293.438 415.936 295.451 415.936C296.991 415.936 298.057 415.09 298.361 413.703L300.679 414.211C300.104 416.528 298.175 417.932 295.451 417.932ZM308.749 417.932C305.619 417.932 302.862 415.885 302.862 411.876C302.862 407.867 305.67 405.82 308.749 405.82C311.591 405.82 313.604 407.376 314.01 409.761L311.726 410.235C311.422 408.729 310.271 407.799 308.749 407.799C306.753 407.799 305.196 409.22 305.196 411.876C305.196 414.532 306.736 415.936 308.749 415.936C310.288 415.936 311.354 415.09 311.659 413.703L313.976 414.211C313.401 416.528 311.472 417.932 308.749 417.932ZM322.165 417.932C318.697 417.932 316.159 415.378 316.159 411.876C316.159 408.374 318.697 405.82 322.165 405.82C325.616 405.82 328.153 408.374 328.153 411.876C328.153 415.378 325.616 417.932 322.165 417.932ZM322.165 415.936C324.313 415.936 325.836 414.227 325.836 411.876C325.836 409.524 324.313 407.799 322.165 407.799C320.016 407.799 318.477 409.524 318.477 411.876C318.477 414.227 320.016 415.936 322.165 415.936ZM335.476 417.932C332.702 417.932 330.807 416.41 330.807 413.5V405.955H332.972V413.517C332.972 415.124 334.004 415.919 335.476 415.919C336.965 415.919 337.997 415.124 337.997 413.517V405.955H340.145V413.5C340.145 416.41 338.25 417.932 335.476 417.932ZM343.311 417.797V405.955H345.646L350.721 414.177V405.955H352.87V417.797H350.535L345.477 409.592V417.797H343.311ZM358.787 417.797V407.934H355.218V405.955H364.657V407.934H361.088V417.797H358.787ZM374.693 417.797V407.934H371.123V405.955H380.563V407.934H376.994V417.797H374.693ZM385.849 417.797V412.891L381.789 405.955H384.258L386.999 410.726L389.757 405.955H392.226L388.149 412.891V417.797H385.849ZM394.021 417.797V405.955H398.792C401.194 405.955 402.734 407.376 402.734 409.575C402.734 411.758 401.194 413.179 398.792 413.179H396.322V417.797H394.021ZM396.322 411.199H398.589C399.739 411.199 400.433 410.59 400.433 409.575C400.433 408.543 399.739 407.934 398.589 407.934H396.322V411.199ZM405.121 417.797V405.955H413.038V407.934H407.422V410.539H411.922V412.536H407.422V415.801H413.224V417.797H405.121Z" fill="black"/>
<g filter="url(#filter12_f_75_4680)">
<path d="M284.208 452.226C280.899 452.226 277.817 450.026 277.817 445.496C277.817 440.966 280.918 438.767 284.208 438.767C287.083 438.767 289.208 440.383 289.753 442.921L288.061 443.297C287.647 441.399 286.238 440.289 284.189 440.289C281.52 440.289 279.583 442.132 279.583 445.496C279.583 448.861 281.52 450.684 284.189 450.684C286.238 450.684 287.572 449.632 288.042 447.808L289.753 448.165C289.095 450.647 287.046 452.226 284.208 452.226ZM291.761 452.075V438.767H293.359V444.462C294.055 443.109 295.201 442.451 296.592 442.451C298.735 442.451 300.145 443.786 300.145 445.835V452.075H298.547V446.135C298.547 444.744 297.683 443.899 296.235 443.899C294.487 443.899 293.359 445.477 293.359 448.015V452.075H291.761ZM311.31 446.906C311.31 447.132 311.291 447.47 311.272 447.639H303.791C303.904 449.556 305.107 450.816 306.818 450.816C308.265 450.816 309.261 450.139 309.543 448.955L311.047 449.312C310.577 451.154 308.998 452.226 306.818 452.226C303.979 452.226 302.193 450.026 302.193 447.338C302.193 444.65 303.923 442.451 306.78 442.451C309.581 442.451 311.31 444.462 311.31 446.906ZM303.885 446.305H309.618C309.468 444.857 308.453 443.786 306.78 443.786C305.295 443.786 304.205 444.726 303.885 446.305ZM317.521 452.226C314.702 452.226 312.822 450.271 312.822 447.338C312.822 444.406 314.702 442.451 317.521 442.451C319.72 442.451 321.337 443.654 321.675 445.534L320.096 445.853C319.89 444.707 318.893 443.88 317.559 443.88C315.698 443.88 314.495 445.252 314.495 447.338C314.495 449.425 315.698 450.797 317.559 450.797C318.893 450.797 319.871 450.064 320.134 448.805L321.694 449.124C321.281 451.079 319.702 452.226 317.521 452.226ZM330.131 452.075L326.559 447.414L325.3 448.56V452.075H323.683V438.767H325.3V446.455L329.68 442.602H331.804L327.743 446.342L332.123 452.075H330.131ZM333.556 438.767H335.399V440.797H333.556V438.767ZM333.669 452.075V442.602H335.267V452.075H333.669ZM337.854 452.075V442.602H339.452V444.387C340.11 443.259 341.257 442.451 342.704 442.451C344.678 442.451 346.088 443.786 346.088 445.797V452.075H344.49V446.098C344.49 444.82 343.682 443.899 342.347 443.899C340.58 443.899 339.452 445.421 339.452 447.921V452.075H337.854ZM355.677 442.602H357.256V451.624C357.256 454.011 355.452 455.647 352.839 455.647C350.64 455.647 348.929 454.481 348.647 452.771L350.189 452.508C350.283 453.56 351.392 454.293 352.839 454.293C354.512 454.293 355.677 453.278 355.677 451.793V450.477C355.245 451.286 354.004 451.831 352.651 451.831C349.737 451.831 348.14 449.82 348.14 447.15C348.14 444.462 349.737 442.451 352.613 442.451C353.873 442.451 355.113 443.053 355.677 443.88V442.602ZM352.801 450.402C354.625 450.402 355.809 449.124 355.809 447.15C355.809 445.158 354.625 443.88 352.801 443.88C350.959 443.88 349.775 445.158 349.775 447.15C349.775 449.124 350.959 450.402 352.801 450.402ZM373.458 452.075L372.161 448.729H366.316L365.019 452.075H363.252L368.458 438.917H370.019L375.244 452.075H373.458ZM366.898 447.207H371.579L369.248 441.173L366.898 447.207ZM380.777 452.226C377.958 452.226 376.078 450.271 376.078 447.338C376.078 444.406 377.958 442.451 380.777 442.451C382.977 442.451 384.593 443.654 384.932 445.534L383.353 445.853C383.146 444.707 382.15 443.88 380.815 443.88C378.954 443.88 377.751 445.252 377.751 447.338C377.751 449.425 378.954 450.797 380.815 450.797C382.15 450.797 383.127 450.064 383.39 448.805L384.95 449.124C384.537 451.079 382.958 452.226 380.777 452.226ZM391.094 452.226C388.274 452.226 386.394 450.271 386.394 447.338C386.394 444.406 388.274 442.451 391.094 442.451C393.293 442.451 394.91 443.654 395.248 445.534L393.669 445.853C393.462 444.707 392.466 443.88 391.131 443.88C389.27 443.88 388.067 445.252 388.067 447.338C388.067 449.425 389.27 450.797 391.131 450.797C392.466 450.797 393.443 450.064 393.707 448.805L395.267 449.124C394.853 451.079 393.274 452.226 391.094 452.226ZM401.523 452.226C398.703 452.226 396.711 450.177 396.711 447.338C396.711 444.5 398.703 442.451 401.523 442.451C404.324 442.451 406.354 444.5 406.354 447.338C406.354 450.177 404.324 452.226 401.523 452.226ZM401.523 450.797C403.421 450.797 404.7 449.368 404.7 447.338C404.7 445.308 403.421 443.88 401.523 443.88C399.624 443.88 398.346 445.308 398.346 447.338C398.346 449.368 399.624 450.797 401.523 450.797ZM416.631 442.602V452.075H415.034V450.289C414.376 451.417 413.229 452.226 411.782 452.226C409.808 452.226 408.398 450.891 408.398 448.88V442.602H409.996V448.579C409.996 449.857 410.804 450.778 412.139 450.778C413.906 450.778 415.034 449.256 415.034 446.756V442.602H416.631ZM419.229 452.075V442.602H420.826V444.387C421.484 443.259 422.631 442.451 424.078 442.451C426.052 442.451 427.462 443.786 427.462 445.797V452.075H425.864V446.098C425.864 444.82 425.056 443.899 423.721 443.899C421.954 443.899 420.826 445.421 420.826 447.921V452.075H419.229ZM434.748 452C434.278 452.169 433.77 452.226 433.263 452.226C431.646 452.226 430.462 451.323 430.462 449.237V444.011H428.695V442.602H430.462V439.726H432.06V442.602H434.597V444.011H432.06V449.293C432.06 450.289 432.624 450.778 433.451 450.778C433.827 450.778 434.259 450.722 434.635 450.534L434.748 452Z" fill="#757575"/>
</g>
</g>
<defs>
<filter id="filter0_d_75_4680" x="0.971178" y="32.542" width="304.518" height="454.724" filterUnits="userSpaceOnUse" color-interpolation-filters="sRGB">
<feFlood flood-opacity="0" result="BackgroundImageFix"/>
<feColorMatrix in="SourceAlpha" type="matrix" values="0 0 0 0 0 0 0 0 0 0 0 0 0 0 0 0 0 0 127 0" result="hardAlpha"/>
<feOffset dy="3.28321"/>
<feGaussianBlur stdDeviation="4.10401"/>
<feComposite in2="hardAlpha" operator="out"/>
<feColorMatrix type="matrix" values="0 0 0 0 0 0 0 0 0 0 0 0 0 0 0 0 0 0 0.02 0"/>
<feBlend mode="normal" in2="BackgroundImageFix" result="effect1_dropShadow_75_4680"/>
<feBlend mode="normal" in="SourceGraphic" in2="effect1_dropShadow_75_4680" result="shape"/>
</filter>
<filter id="filter1_f_75_4680" x="38.4656" y="183.554" width="142.813" height="22.4243" filterUnits="userSpaceOnUse" color-interpolation-filters="sRGB">
<feFlood flood-opacity="0" result="BackgroundImageFix"/>
<feBlend mode="normal" in="SourceGraphic" in2="BackgroundImageFix" result="shape"/>
<feGaussianBlur stdDeviation="2.66761" result="effect1_foregroundBlur_75_4680"/>
</filter>
<filter id="filter2_f_75_4680" x="38.5476" y="259.068" width="151.076" height="22.4243" filterUnits="userSpaceOnUse" color-interpolation-filters="sRGB">
<feFlood flood-opacity="0" result="BackgroundImageFix"/>
<feBlend mode="normal" in="SourceGraphic" in2="BackgroundImageFix" result="shape"/>
<feGaussianBlur stdDeviation="2.66761" result="effect1_foregroundBlur_75_4680"/>
</filter>
<filter id="filter3_f_75_4680" x="38.5476" y="334.582" width="151.076" height="22.4243" filterUnits="userSpaceOnUse" color-interpolation-filters="sRGB">
<feFlood flood-opacity="0" result="BackgroundImageFix"/>
<feBlend mode="normal" in="SourceGraphic" in2="BackgroundImageFix" result="shape"/>
<feGaussianBlur stdDeviation="2.66761" result="effect1_foregroundBlur_75_4680"/>
</filter>
<filter id="filter4_f_75_4680" x="38.991" y="410.095" width="147.724" height="25.412" filterUnits="userSpaceOnUse" color-interpolation-filters="sRGB">
<feFlood flood-opacity="0" result="BackgroundImageFix"/>
<feBlend mode="normal" in="SourceGraphic" in2="BackgroundImageFix" result="shape"/>
<feGaussianBlur stdDeviation="2.66761" result="effect1_foregroundBlur_75_4680"/>
</filter>
<filter id="filter5_b_75_4680" x="-3.37907" y="24.6209" width="313.218" height="463.008" filterUnits="userSpaceOnUse" color-interpolation-filters="sRGB">
<feFlood flood-opacity="0" result="BackgroundImageFix"/>
<feGaussianBlur in="BackgroundImageFix" stdDeviation="6.68954"/>
<feComposite in2="SourceAlpha" operator="in" result="effect1_backgroundBlur_75_4680"/>
<feBlend mode="normal" in="SourceGraphic" in2="effect1_backgroundBlur_75_4680" result="shape"/>
</filter>
<filter id="filter6_d_75_4680" x="105.213" y="203.269" width="96.0337" height="112.923" filterUnits="userSpaceOnUse" color-interpolation-filters="sRGB">
<feFlood flood-opacity="0" result="BackgroundImageFix"/>
<feColorMatrix in="SourceAlpha" type="matrix" values="0 0 0 0 0 0 0 0 0 0 0 0 0 0 0 0 0 0 127 0" result="hardAlpha"/>
<feOffset dy="3.28321"/>
<feGaussianBlur stdDeviation="4.10401"/>
<feComposite in2="hardAlpha" operator="out"/>
<feColorMatrix type="matrix" values="0 0 0 0 0 0 0 0 0 0 0 0 0 0 0 0 0 0 0.02 0"/>
<feBlend mode="normal" in2="BackgroundImageFix" result="effect1_dropShadow_75_4680"/>
<feBlend mode="normal" in="SourceGraphic" in2="effect1_dropShadow_75_4680" result="shape"/>
</filter>
<filter id="filter7_b_75_4680" x="124.748" y="228.55" width="56.1428" height="55.3221" filterUnits="userSpaceOnUse" color-interpolation-filters="sRGB">
<feFlood flood-opacity="0" result="BackgroundImageFix"/>
<feGaussianBlur in="BackgroundImageFix" stdDeviation="5.41729"/>
<feComposite in2="SourceAlpha" operator="in" result="effect1_backgroundBlur_75_4680"/>
<feBlend mode="normal" in="SourceGraphic" in2="effect1_backgroundBlur_75_4680" result="shape"/>
</filter>
<filter id="filter8_d_75_4680" x="228.174" y="0.421083" width="348.684" height="520.677" filterUnits="userSpaceOnUse" color-interpolation-filters="sRGB">
<feFlood flood-opacity="0" result="BackgroundImageFix"/>
<feColorMatrix in="SourceAlpha" type="matrix" values="0 0 0 0 0 0 0 0 0 0 0 0 0 0 0 0 0 0 127 0" result="hardAlpha"/>
<feOffset dy="3.7594"/>
<feGaussianBlur stdDeviation="4.69925"/>
<feComposite in2="hardAlpha" operator="out"/>
<feColorMatrix type="matrix" values="0 0 0 0 0 0 0 0 0 0 0 0 0 0 0 0 0 0 0.02 0"/>
<feBlend mode="normal" in2="BackgroundImageFix" result="effect1_dropShadow_75_4680"/>
<feBlend mode="normal" in="SourceGraphic" in2="effect1_dropShadow_75_4680" result="shape"/>
</filter>
<filter id="filter9_f_75_4680" x="271.106" y="173.259" width="163.526" height="25.6767" filterUnits="userSpaceOnUse" color-interpolation-filters="sRGB">
<feFlood flood-opacity="0" result="BackgroundImageFix"/>
<feBlend mode="normal" in="SourceGraphic" in2="BackgroundImageFix" result="shape"/>
<feGaussianBlur stdDeviation="3.05451" result="effect1_foregroundBlur_75_4680"/>
</filter>
<filter id="filter10_f_75_4680" x="271.2" y="259.726" width="172.988" height="25.6767" filterUnits="userSpaceOnUse" color-interpolation-filters="sRGB">
<feFlood flood-opacity="0" result="BackgroundImageFix"/>
<feBlend mode="normal" in="SourceGraphic" in2="BackgroundImageFix" result="shape"/>
<feGaussianBlur stdDeviation="3.05451" result="effect1_foregroundBlur_75_4680"/>
</filter>
<filter id="filter11_f_75_4680" x="271.2" y="346.192" width="172.988" height="25.6767" filterUnits="userSpaceOnUse" color-interpolation-filters="sRGB">
<feFlood flood-opacity="0" result="BackgroundImageFix"/>
<feBlend mode="normal" in="SourceGraphic" in2="BackgroundImageFix" result="shape"/>
<feGaussianBlur stdDeviation="3.05451" result="effect1_foregroundBlur_75_4680"/>
</filter>
<filter id="filter12_f_75_4680" x="271.708" y="432.658" width="169.149" height="29.0977" filterUnits="userSpaceOnUse" color-interpolation-filters="sRGB">
<feFlood flood-opacity="0" result="BackgroundImageFix"/>
<feBlend mode="normal" in="SourceGraphic" in2="BackgroundImageFix" result="shape"/>
<feGaussianBlur stdDeviation="3.05451" result="effect1_foregroundBlur_75_4680"/>
</filter>
<linearGradient id="paint0_linear_75_4680" x1="20.8629" y1="43.3381" x2="267.409" y2="482.455" gradientUnits="userSpaceOnUse">
<stop offset="0.005" stop-color="#F7F7F7"/>
<stop offset="0.285" stop-color="white"/>
<stop offset="0.53" stop-color="#F4F4F4"/>
<stop offset="0.575" stop-color="#F4F4F4"/>
<stop offset="0.92" stop-color="white"/>
</linearGradient>
<linearGradient id="paint1_linear_75_4680" x1="68.2536" y1="74.4029" x2="68.2536" y2="123.604" gradientUnits="userSpaceOnUse">
<stop stop-color="white" stop-opacity="0.7"/>
<stop offset="1" stop-opacity="0.3"/>
</linearGradient>
<radialGradient id="paint2_radial_75_4680" cx="0" cy="0" r="1" gradientUnits="userSpaceOnUse" gradientTransform="translate(153.23 256.125) rotate(90) scale(218.125 143.23)">
<stop stop-color="#FBFBFB"/>
<stop offset="1" stop-color="#F8F8F8"/>
</radialGradient>
<linearGradient id="paint3_linear_75_4680" x1="117.199" y1="210.112" x2="164.02" y2="314.601" gradientUnits="userSpaceOnUse">
<stop offset="0.005" stop-color="#F7F7F7"/>
<stop offset="0.285" stop-color="white"/>
<stop offset="0.53" stop-color="#F4F4F4"/>
<stop offset="0.575" stop-color="#F4F4F4"/>
<stop offset="0.92" stop-color="white"/>
</linearGradient>
<linearGradient id="paint4_linear_75_4680" x1="118.513" y1="209.014" x2="164.652" y2="314.325" gradientUnits="userSpaceOnUse">
<stop stop-color="#E0E0E0"/>
<stop offset="0.41" stop-color="#E8E8E8"/>
<stop offset="1" stop-color="#D5D5D5"/>
</linearGradient>
<linearGradient id="paint5_linear_75_4680" x1="152.82" y1="239.384" x2="152.82" y2="273.037" gradientUnits="userSpaceOnUse">
<stop stop-color="#97B3F2"/>
<stop offset="1" stop-color="#6C99FE"/>
</linearGradient>
<linearGradient id="paint6_linear_75_4680" x1="25.6909" y1="38.2877" x2="269.425" y2="482.286" gradientUnits="userSpaceOnUse">
<stop stop-color="#E0E0E0"/>
<stop offset="0.41" stop-color="#E8E8E8"/>
<stop offset="1" stop-color="#D5D5D5"/>
</linearGradient>
<linearGradient id="paint7_linear_75_4680" x1="250.95" y1="12.7829" x2="533.256" y2="515.589" gradientUnits="userSpaceOnUse">
<stop offset="0.005" stop-color="#F7F7F7"/>
<stop offset="0.285" stop-color="white"/>
<stop offset="0.53" stop-color="#F4F4F4"/>
<stop offset="0.575" stop-color="#F4F4F4"/>
<stop offset="0.92" stop-color="white"/>
</linearGradient>
<linearGradient id="paint8_linear_75_4680" x1="256.479" y1="7" x2="535.563" y2="515.395" gradientUnits="userSpaceOnUse">
<stop stop-color="#E0E0E0"/>
<stop offset="0.41" stop-color="#E8E8E8"/>
<stop offset="1" stop-color="#D5D5D5"/>
</linearGradient>
<linearGradient id="paint9_linear_75_4680" x1="305.241" y1="48.3533" x2="305.241" y2="104.744" gradientUnits="userSpaceOnUse">
<stop stop-color="white" stop-opacity="0.7"/>
<stop offset="1" stop-opacity="0.3"/>
</linearGradient>
<clipPath id="clip0_75_4680">
<rect x="10" y="38.2877" width="286.46" height="436.667" rx="32.8321" fill="white"/>
</clipPath>
<clipPath id="clip1_75_4680">
<rect x="43.6531" y="74.4029" width="49.2011" height="49.2011" rx="24.6006" fill="white"/>
</clipPath>
<clipPath id="clip2_75_4680">
<rect x="277.046" y="48.3533" width="56.391" height="56.391" rx="28.1955" fill="white"/>
</clipPath>
</defs>
</svg>
