<svg width="120" height="120" viewBox="0 0 120 120" fill="none" xmlns="http://www.w3.org/2000/svg">
<rect x="0.5" y="0.5" width="119" height="119" rx="59.5" fill="white"/>
<rect x="0.5" y="0.5" width="119" height="119" rx="59.5" stroke="#F0F3F5"/>
<path fill-rule="evenodd" clip-rule="evenodd" d="M57.9604 39.4293C58.3763 38.5544 59.2402 38 60.1853 38C61.1303 38 61.9942 38.5544 62.4101 39.4293L68.0003 51.1602C68.1622 51.4986 68.4749 51.7345 68.8378 51.7881L81.3871 53.644C82.3222 53.7826 83.1009 54.4572 83.3925 55.3846C83.6855 56.3108 83.44 57.3285 82.7627 58.0077L73.6686 67.1139C73.4057 67.3769 73.2861 67.7567 73.3481 68.1292L75.5143 81.0069C75.6762 81.9676 75.2933 82.9385 74.5283 83.5114C73.764 84.0842 72.7491 84.1596 71.9127 83.7047L60.7039 77.6015C60.3801 77.4254 59.9916 77.4254 59.6678 77.6015L48.459 83.7047C47.6227 84.1596 46.6077 84.0842 45.8434 83.5114C45.0784 82.9386 44.6956 81.9676 44.8575 81.0069L47.0236 68.1292C47.0857 67.7567 46.9661 67.3769 46.7031 67.1139L37.6091 58.0077C36.9317 57.3285 36.6862 56.3108 36.9792 55.3846C37.2708 54.4572 38.0495 53.7826 38.9847 53.644L51.534 51.7881C51.8968 51.7345 52.2095 51.4986 52.3714 51.1602L57.9616 39.4293H57.9604Z" fill="#4071DF"/>
</svg>
