<svg width="466" height="304" viewBox="0 0 466 304" fill="none" xmlns="http://www.w3.org/2000/svg">
<path opacity="0.9" d="M281.668 87.1249L232.486 115.499L183.304 87.1249V30.3743L232.486 2L281.668 30.3743V87.1249Z" stroke="url(#paint0_linear_27_50160)" stroke-width="3.27287" stroke-miterlimit="10" stroke-linecap="round" stroke-linejoin="round"/>
<path opacity="0.9" d="M388.284 87.4886L339.102 115.863L289.92 87.4886V30.738L339.102 2.36377L388.284 30.738V87.4886Z" stroke="url(#paint1_linear_27_50160)" stroke-width="3.27287" stroke-miterlimit="10" stroke-linecap="round" stroke-linejoin="round"/>
<path opacity="0.9" d="M175.096 87.1249L125.913 115.499L76.7314 87.1249V30.3743L125.913 2L175.096 30.3743V87.1249Z" stroke="url(#paint2_linear_27_50160)" stroke-width="3.27287" stroke-miterlimit="10" stroke-linecap="round" stroke-linejoin="round"/>
<path opacity="0.9" d="M122.902 123.426L122.884 180.206L73.7203 208.612L24.5728 180.236L24.591 123.456L73.7549 95.0504L122.902 123.426Z" stroke="url(#paint3_linear_27_50160)" stroke-width="3.27287" stroke-miterlimit="10" stroke-linecap="round" stroke-linejoin="round"/>
<path opacity="0.9" d="M342.157 182.368L342.175 125.588L391.339 97.1819L440.487 125.557L440.469 182.337L391.305 210.743L342.157 182.368Z" stroke="url(#paint4_linear_27_50160)" stroke-width="3.27287" stroke-miterlimit="10" stroke-linecap="round" stroke-linejoin="round"/>
<path opacity="0.9" d="M183.303 216.875L232.485 188.501L281.667 216.875L281.667 273.626L232.485 302L183.303 273.626L183.303 216.875Z" stroke="url(#paint5_linear_27_50160)" stroke-width="3.27287" stroke-miterlimit="10" stroke-linecap="round" stroke-linejoin="round"/>
<path opacity="0.9" d="M289.875 216.875L339.057 188.501L388.239 216.875L388.239 273.626L339.057 302L289.875 273.626L289.875 216.875Z" stroke="url(#paint6_linear_27_50160)" stroke-width="3.27287" stroke-miterlimit="10" stroke-linecap="round" stroke-linejoin="round"/>
<path opacity="0.9" d="M76.7316 216.875L125.914 188.501L175.096 216.875L175.096 273.626L125.914 302L76.7316 273.626L76.7316 216.875Z" stroke="url(#paint7_linear_27_50160)" stroke-width="3.27287" stroke-miterlimit="10" stroke-linecap="round" stroke-linejoin="round"/>
<g filter="url(#filter0_d_27_50160)">
<path d="M227.315 180.908L178.133 209.283L128.951 180.908V124.158L178.133 95.7834L227.315 124.158V180.908Z" fill="#4071DF"/>
<path d="M195.643 142.265C195.643 142.218 195.644 142.104 195.589 141.977V141.944L195.54 141.846L193.132 136.975L193.131 136.974C192.786 136.282 192.085 135.784 191.235 135.784L165.188 135.784H165.188C164.426 135.784 163.647 136.199 163.287 136.981L160.883 141.845L160.834 141.943V142.027C160.829 142.039 160.823 142.052 160.818 142.066C160.802 142.109 160.78 142.181 160.78 142.272V149.166C160.78 151.109 161.913 152.83 163.516 153.673V169.632C163.516 169.902 163.608 170.164 163.803 170.36C163.999 170.555 164.261 170.648 164.531 170.648H191.892C192.162 170.648 192.424 170.556 192.619 170.36C192.815 170.165 192.907 169.903 192.907 169.632V153.673C194.508 152.836 195.643 151.164 195.643 149.166L195.643 142.272C195.643 142.27 195.643 142.267 195.643 142.265ZM185.349 149.167V149.635H185.366C185.137 151.075 183.868 152.2 182.37 152.2H182.206C180.549 152.2 179.172 150.823 179.172 149.167V143.288H185.349V149.167ZM177.141 149.167V149.635H177.158C176.929 151.075 175.66 152.2 174.162 152.2H173.998C172.341 152.2 170.964 150.823 170.964 149.167V143.288H177.141V149.167ZM191.253 137.885L192.939 141.256L163.428 141.256L165.1 137.914C165.131 137.87 165.16 137.841 165.182 137.824C165.188 137.82 165.192 137.817 165.195 137.815H191.18C191.195 137.815 191.203 137.817 191.205 137.818C191.207 137.818 191.207 137.819 191.207 137.819L191.207 137.819C191.208 137.819 191.212 137.822 191.22 137.832C191.228 137.841 191.24 137.858 191.253 137.884L191.253 137.885ZM165.198 137.814C165.198 137.814 165.198 137.814 165.197 137.814L165.198 137.814ZM193.557 149.167V149.635H193.575C193.345 151.075 192.076 152.2 190.578 152.2H190.414C188.757 152.2 187.38 150.823 187.38 149.167V143.288H193.557V149.167ZM162.811 149.167V143.288H168.988V149.167C168.988 150.824 167.611 152.201 165.954 152.201H165.79C165.79 152.201 165.79 152.201 165.79 152.201C164.193 152.2 162.811 150.828 162.811 149.167ZM185.404 168.617H171.019V159.704H185.404V168.617ZM191.095 168.617H187.435L187.435 158.688C187.435 158.418 187.343 158.156 187.148 157.96C186.952 157.765 186.69 157.672 186.42 157.672H170.003C169.733 157.672 169.471 157.764 169.276 157.96C169.08 158.155 168.988 158.417 168.988 158.688V168.617H165.547L165.547 154.229C165.642 154.232 165.733 154.232 165.816 154.231C165.826 154.231 165.835 154.231 165.845 154.231H166.009C167.662 154.231 169.138 153.435 170.058 152.219C170.979 153.435 172.455 154.231 174.108 154.231H174.272C175.925 154.231 177.401 153.435 178.321 152.219C179.242 153.435 180.717 154.231 182.371 154.231H182.535C184.188 154.231 185.664 153.435 186.584 152.219C187.504 153.435 188.98 154.231 190.634 154.231H190.798H190.811C190.906 154.231 191 154.231 191.095 154.229L191.095 168.617Z" fill="white" stroke="white" stroke-width="0.936829"/>
</g>
<g filter="url(#filter1_d_27_50160)">
<path d="M332.456 180.908L283.274 209.283L234.092 180.908V124.158L283.274 95.7834L332.456 124.158V180.908Z" fill="white"/>
<path d="M297.191 141.393L286.321 135.103C284.559 134.096 282.345 134.096 280.533 135.103L269.613 141.393C267.851 142.45 266.744 144.363 266.744 146.426V159.007C266.744 161.071 267.851 162.983 269.613 164.04L280.533 170.331C281.439 170.834 282.446 171.086 283.402 171.086C284.408 171.086 285.415 170.834 286.27 170.331L297.191 164.04C298.952 163.033 300.059 161.071 300.059 159.007V146.426C300.11 144.363 299.003 142.45 297.191 141.393ZM294.524 159.309L283.603 165.6C283.502 165.65 283.351 165.65 283.251 165.6L272.33 159.309C272.23 159.259 272.129 159.108 272.129 159.007V146.426C272.129 146.275 272.179 146.174 272.33 146.124L283.251 139.833C283.301 139.783 283.351 139.783 283.452 139.783C283.502 139.783 283.603 139.783 283.653 139.833L294.574 146.124C294.675 146.174 294.775 146.325 294.775 146.426V149.999H283.301C281.791 149.999 280.584 151.207 280.584 152.717C280.584 154.226 281.791 155.434 283.301 155.434H294.675V159.007C294.675 159.158 294.624 159.259 294.524 159.309Z" fill="#4071DF"/>
</g>
<defs>
<filter id="filter0_d_27_50160" x="116.678" y="85.9648" width="122.911" height="138.046" filterUnits="userSpaceOnUse" color-interpolation-filters="sRGB">
<feFlood flood-opacity="0" result="BackgroundImageFix"/>
<feColorMatrix in="SourceAlpha" type="matrix" values="0 0 0 0 0 0 0 0 0 0 0 0 0 0 0 0 0 0 127 0" result="hardAlpha"/>
<feOffset dy="2.45465"/>
<feGaussianBlur stdDeviation="6.13663"/>
<feComposite in2="hardAlpha" operator="out"/>
<feColorMatrix type="matrix" values="0 0 0 0 0 0 0 0 0 0 0 0 0 0 0 0 0 0 0.04 0"/>
<feBlend mode="normal" in2="BackgroundImageFix" result="effect1_dropShadow_27_50160"/>
<feBlend mode="normal" in="SourceGraphic" in2="effect1_dropShadow_27_50160" result="shape"/>
</filter>
<filter id="filter1_d_27_50160" x="221.819" y="85.9648" width="122.911" height="138.046" filterUnits="userSpaceOnUse" color-interpolation-filters="sRGB">
<feFlood flood-opacity="0" result="BackgroundImageFix"/>
<feColorMatrix in="SourceAlpha" type="matrix" values="0 0 0 0 0 0 0 0 0 0 0 0 0 0 0 0 0 0 127 0" result="hardAlpha"/>
<feOffset dy="2.45465"/>
<feGaussianBlur stdDeviation="6.13663"/>
<feComposite in2="hardAlpha" operator="out"/>
<feColorMatrix type="matrix" values="0 0 0 0 0 0 0 0 0 0 0 0 0 0 0 0 0 0 0.04 0"/>
<feBlend mode="normal" in2="BackgroundImageFix" result="effect1_dropShadow_27_50160"/>
<feBlend mode="normal" in="SourceGraphic" in2="effect1_dropShadow_27_50160" result="shape"/>
</filter>
<linearGradient id="paint0_linear_27_50160" x1="232.327" y1="114.966" x2="232.327" y2="5.73001" gradientUnits="userSpaceOnUse">
<stop stop-color="#1470EC" stop-opacity="0.07"/>
<stop offset="1" stop-color="#1470EC" stop-opacity="0"/>
</linearGradient>
<linearGradient id="paint1_linear_27_50160" x1="338.943" y1="115.33" x2="338.943" y2="6.09378" gradientUnits="userSpaceOnUse">
<stop stop-color="#1470EC" stop-opacity="0.07"/>
<stop offset="1" stop-color="#1470EC" stop-opacity="0"/>
</linearGradient>
<linearGradient id="paint2_linear_27_50160" x1="125.755" y1="114.966" x2="125.755" y2="5.73001" gradientUnits="userSpaceOnUse">
<stop stop-color="#1470EC" stop-opacity="0.07"/>
<stop offset="1" stop-color="#1470EC" stop-opacity="0"/>
</linearGradient>
<linearGradient id="paint3_linear_27_50160" x1="122.343" y1="180.077" x2="27.7418" y2="125.459" gradientUnits="userSpaceOnUse">
<stop stop-color="#1470EC" stop-opacity="0.07"/>
<stop offset="1" stop-color="#1470EC" stop-opacity="0"/>
</linearGradient>
<linearGradient id="paint4_linear_27_50160" x1="342.716" y1="125.716" x2="437.318" y2="180.335" gradientUnits="userSpaceOnUse">
<stop stop-color="#1470EC" stop-opacity="0.07"/>
<stop offset="1" stop-color="#1470EC" stop-opacity="0"/>
</linearGradient>
<linearGradient id="paint5_linear_27_50160" x1="232.644" y1="189.034" x2="232.644" y2="298.27" gradientUnits="userSpaceOnUse">
<stop stop-color="#1470EC" stop-opacity="0.07"/>
<stop offset="1" stop-color="#1470EC" stop-opacity="0"/>
</linearGradient>
<linearGradient id="paint6_linear_27_50160" x1="339.216" y1="189.034" x2="339.216" y2="298.27" gradientUnits="userSpaceOnUse">
<stop stop-color="#1470EC" stop-opacity="0.07"/>
<stop offset="1" stop-color="#1470EC" stop-opacity="0"/>
</linearGradient>
<linearGradient id="paint7_linear_27_50160" x1="126.073" y1="189.034" x2="126.073" y2="298.27" gradientUnits="userSpaceOnUse">
<stop stop-color="#1470EC" stop-opacity="0.07"/>
<stop offset="1" stop-color="#1470EC" stop-opacity="0"/>
</linearGradient>
</defs>
</svg>
