<svg width="107" height="28" viewBox="0 0 107 28" fill="none" xmlns="http://www.w3.org/2000/svg">
<path d="M12.6926 0L0 7.00468V21.0025L3.62494 23.0009L3.60111 9.00919L12.6689 3.9979L21.7368 9.00919V22.9956L25.3613 21.0025V6.99311L12.6926 0Z" fill="#F1501D"/>
<path d="M14.4937 23.0002L12.6813 24.0028L10.8629 23.0065V9.00952L7.23828 11.008L7.2442 24.9993L12.6813 28L18.1182 24.9993V11.008L14.4937 9.00952V23.0002Z" fill="#F1501D"/>
<path d="M33.665 7.08972L38.6462 19.1261H38.6876L43.55 7.08972H45.4455V20.8817H44.1366V8.8676H44.0954C44.0298 9.08277 43.9531 9.30383 43.8759 9.51878L43.6392 10.1189L43.408 10.7585L39.2327 20.8817H38.048L33.825 10.7585C33.7424 10.5776 33.665 10.3847 33.5824 10.1924C33.4993 9.99996 33.428 9.7789 33.3632 9.58686L33.1201 8.91299H33.0787V20.8817H31.8291V7.08972H33.665Z" fill="#464648"/>
<path d="M52.3344 19.897C52.7414 19.7503 53.1149 19.5314 53.4363 19.2512C53.7235 18.9935 53.9514 18.6812 54.1052 18.3344C54.2493 18.0081 54.324 17.6576 54.3242 17.3036V15.4804C53.942 15.6768 53.531 15.8163 53.1047 15.8938C52.6246 15.9902 52.133 16.0751 51.6238 16.1373C51.1142 16.1995 50.7651 16.2676 50.3918 16.3412C50.0483 16.3977 49.7176 16.5107 49.4147 16.6753C49.1411 16.825 48.9142 17.0422 48.7571 17.3036C48.5834 17.6212 48.4995 17.976 48.5145 18.3344C48.5042 18.6351 48.5689 18.9337 48.7038 19.2063C48.8242 19.4293 48.9961 19.6231 49.2073 19.7724C49.4301 19.9197 49.6819 20.0221 49.9477 20.072C50.2395 20.1303 50.5377 20.1591 50.8361 20.1574C51.3489 20.1674 51.8585 20.0788 52.3344 19.897ZM49.2606 20.9498C48.8684 20.8475 48.5017 20.67 48.1826 20.4289C47.8779 20.1962 47.6329 19.8996 47.4661 19.5631C47.2804 19.182 47.1893 18.7656 47.1994 18.3455C47.1798 17.844 47.2979 17.3457 47.5428 16.9016C47.7693 16.5319 48.0886 16.2222 48.4728 16.0011C48.8969 15.7656 49.3564 15.5939 49.8353 15.4917C50.3941 15.3684 50.9597 15.2737 51.5289 15.2087C52.0383 15.1576 52.4767 15.107 52.8322 15.0443C53.1283 15.0035 53.4185 14.9293 53.6969 14.8239C53.8926 14.7545 54.062 14.6299 54.1828 14.4669C54.2919 14.2827 54.3454 14.0727 54.3365 13.861V13.6688C54.3825 13.0939 54.1435 12.5319 53.6907 12.1513C53.1449 11.7951 52.4906 11.6236 51.831 11.6642C49.9791 11.6642 49.0038 12.4023 48.9051 13.8778H47.6436C47.6767 12.9929 48.0825 12.1574 48.7689 11.5623C49.6339 10.9263 50.7134 10.6179 51.8016 10.6961C52.7566 10.6498 53.7012 10.9045 54.4903 11.4206C55.1984 12.0097 55.5669 12.8883 55.4795 13.7818V19.2063C55.465 19.4365 55.5339 19.6641 55.675 19.8516C55.8018 19.9943 55.9885 20.0751 56.1847 20.072C56.2552 20.0805 56.3269 20.0805 56.3972 20.072C56.4835 20.0596 56.5693 20.0408 56.6524 20.0157H56.7116V20.8878C56.5998 20.93 56.4846 20.9642 56.3679 20.9895C56.2031 21.0269 56.034 21.0437 55.8646 21.0404C55.4695 21.0607 55.0812 20.9398 54.7751 20.701C54.4819 20.4162 54.3219 20.0301 54.3308 19.631V19.4215H54.2714C54.1082 19.631 53.9297 19.8296 53.7383 20.0157C53.5141 20.2368 53.2592 20.4278 52.9804 20.5819C52.6526 20.7466 52.3042 20.8702 51.9439 20.9498C51.5084 21.057 51.0603 21.1083 50.6112 21.1028C50.1555 21.115 49.7003 21.0637 49.2606 20.9498Z" fill="#464648"/>
<path d="M64.333 18.5898C64.9216 17.7332 65.2118 16.7208 65.1622 15.697C65.1685 15.149 65.1012 14.603 64.9607 14.0718C64.8406 13.6159 64.6266 13.1866 64.333 12.8093C64.0528 12.4588 63.6891 12.1772 63.2728 11.988C62.8078 11.787 62.302 11.6884 61.792 11.6995C60.8456 11.6576 59.9406 12.0725 59.3814 12.8036C58.7682 13.6632 58.4668 14.6916 58.5226 15.7306C58.5203 16.2614 58.5877 16.7904 58.7243 17.3048C58.8406 17.7528 59.0413 18.1767 59.3163 18.556C59.5805 18.9062 59.9276 19.1915 60.3291 19.3883C60.7746 19.5974 61.2662 19.7002 61.7624 19.6884C62.7538 19.7561 63.7153 19.3434 64.3212 18.5898H64.333ZM58.8422 23.6292C58.188 23.2001 57.7571 22.5244 57.6577 21.7719H58.8422C58.9284 22.3167 59.2956 22.7833 59.8197 23.0122C60.4281 23.2791 61.0925 23.4092 61.7624 23.3915C62.6662 23.4762 63.5671 23.209 64.262 22.6495C64.8133 22.086 65.1 21.3313 65.0554 20.5605V18.9754H64.9962C64.6528 19.4968 64.1914 19.9379 63.6458 20.2659C63.0484 20.586 62.3701 20.7408 61.6855 20.713C61.0463 20.7213 60.4145 20.5958 59.8316 20.3455C59.2892 20.1094 58.8076 19.7611 58.4218 19.3263C58.0171 18.863 57.7109 18.3286 57.5216 17.7522C57.3072 17.1001 57.2016 16.4201 57.2077 15.7365C57.1968 15.0067 57.3192 14.2804 57.5694 13.5906C57.7849 13.0118 58.1147 12.4771 58.5404 12.0166C58.9359 11.6013 59.4205 11.2729 59.962 11.054C60.508 10.8368 61.0937 10.7251 61.6855 10.7255C62.3867 10.6991 63.0809 10.8641 63.6873 11.2011C64.2187 11.5193 64.6664 11.9492 64.9962 12.4581H65.0554V10.9123H66.2875V20.4979C66.3355 21.4762 65.9895 22.4343 65.322 23.1765C64.3851 24.0279 63.1171 24.4635 61.8277 24.3769C60.7823 24.4347 59.7451 24.1732 58.8658 23.6292" fill="#464648"/>
<path d="M75.528 13.7937C75.4054 13.3848 75.2042 13.0011 74.9358 12.6618C74.6763 12.3461 74.344 12.0926 73.9644 11.92C73.5278 11.7315 73.0517 11.6408 72.5725 11.6541C72.0905 11.6449 71.6113 11.7357 71.1689 11.92C70.7719 12.0944 70.4191 12.347 70.1323 12.6618C69.838 12.9972 69.6088 13.3807 69.4572 13.7937C69.2847 14.2423 69.1729 14.7105 69.1254 15.1861H75.7413C75.7313 14.7188 75.6578 14.2543 75.5221 13.805L75.528 13.7937ZM70.624 20.7329C70.0351 20.4838 69.5139 20.1078 69.1017 19.6353C68.6802 19.1453 68.362 18.5822 68.166 17.9763C67.942 17.3074 67.8319 16.6077 67.8403 15.905C67.8348 15.2009 67.9509 14.5012 68.1838 13.8336C68.3952 13.2293 68.7205 12.6671 69.1431 12.1749C69.5483 11.7069 70.0584 11.3314 70.6358 11.0768C71.2524 10.8058 71.9241 10.6703 72.6021 10.6806C73.3337 10.6555 74.0604 10.8115 74.7107 11.1335C75.2722 11.4237 75.7502 11.8419 76.1025 12.3505C76.4699 12.8798 76.7273 13.4717 76.8607 14.0939C77.0105 14.7596 77.0863 15.4389 77.0858 16.1201H69.1313C69.1427 16.6511 69.2292 17.1784 69.386 17.6879C69.5276 18.1428 69.752 18.5704 70.0495 18.9502C70.3408 19.313 70.7182 19.6041 71.1511 19.7993C71.6361 20.0164 72.1674 20.1233 72.703 20.1105C73.4356 20.1547 74.1599 19.937 74.7344 19.4991C75.2319 19.0634 75.5854 18.4993 75.7532 17.8746H76.9376C76.7494 18.7905 76.2548 19.6228 75.528 20.2466C74.7232 20.864 73.7097 21.178 72.6793 21.1293C71.9644 21.142 71.2554 21.0069 70.6003 20.7329" fill="#464648"/>
<path d="M79.8872 10.9124V12.4581H79.9585C80.3156 11.9494 80.7863 11.5237 81.3385 11.2125C81.981 10.8672 82.71 10.697 83.4468 10.7204C84.314 10.6929 85.1605 10.9801 85.816 11.5239C86.467 12.1231 86.8093 12.9661 86.7519 13.8281V20.9052H85.5021V13.9189C85.5565 13.3002 85.325 12.69 84.8685 12.2486C84.3727 11.8754 83.7514 11.6882 83.1211 11.7222C82.6948 11.7183 82.2712 11.7894 81.8715 11.9315C81.4953 12.0598 81.1466 12.2519 80.8409 12.4976C80.2339 13.0159 79.889 13.758 79.8931 14.5358V20.8827H78.6436V10.9124H79.8872Z" fill="#464648"/>
<path d="M89.9727 20.5423C89.5767 20.1903 89.3752 19.6815 89.4278 19.1664V11.8903H87.8525V10.9106H89.4337V7.84161H90.6835V10.9106H92.6202V11.8903H90.6776V18.9744C90.6469 19.2446 90.7397 19.515 90.9323 19.7158C91.1519 19.8673 91.4203 19.9391 91.6904 19.9199C91.842 19.9192 91.9932 19.902 92.1404 19.8688C92.2686 19.8452 92.3935 19.8094 92.5137 19.7612H92.5788V20.7863C92.2069 20.9051 91.8159 20.9644 91.4239 20.9614C90.9038 20.9858 90.3915 20.8383 89.9727 20.5423Z" fill="#464648"/>
<path d="M99.8708 19.8002C100.31 19.5861 100.69 19.276 100.978 18.8939C101.289 18.4905 101.52 18.0355 101.66 17.5521C101.952 16.4757 101.952 15.346 101.66 14.2691C101.524 13.7849 101.297 13.3282 100.99 12.9214C100.701 12.54 100.322 12.2293 99.8826 12.0159C98.9071 11.5781 97.7784 11.5781 96.8029 12.0159C96.3656 12.2325 95.9873 12.5424 95.6953 12.9214C95.3844 13.3264 95.1552 13.7834 95.02 14.2691C94.7205 15.3445 94.7205 16.4766 95.02 17.5521C95.1552 18.0381 95.3844 18.495 95.6953 18.9C95.9873 19.2786 96.3656 19.5889 96.8029 19.8056C97.7784 20.2436 98.9071 20.2436 99.8826 19.8056L99.8708 19.8002ZM96.3231 20.7339C95.7342 20.4816 95.2126 20.1065 94.7949 19.6361C94.3675 19.1471 94.0433 18.5838 93.8414 17.9768C93.3901 16.6295 93.3901 15.1808 93.8414 13.8334C94.0433 13.2261 94.3675 12.6629 94.7949 12.1743C95.2126 11.7038 95.7342 11.3285 96.3231 11.076C97.6147 10.5475 99.0767 10.5475 100.368 11.076C100.948 11.3313 101.463 11.7064 101.873 12.1743C102.303 12.6602 102.626 13.2248 102.82 13.8334C103.255 15.1832 103.255 16.6269 102.82 17.9768C102.626 18.5854 102.303 19.1501 101.873 19.6361C101.461 20.1046 100.945 20.4795 100.362 20.7339C99.0708 21.2624 97.6088 21.2624 96.3171 20.7339" fill="#464648"/>
<path d="M104.745 10.7582H104.549V11.177H104.733C104.899 11.177 105.005 11.109 105.005 10.9677C105.005 10.8262 104.911 10.7582 104.745 10.7582ZM105.136 11.9688L104.691 11.3577H104.549V11.9234H104.295V10.5263H104.745C105.053 10.5263 105.266 10.6734 105.266 10.9391C105.275 11.1212 105.149 11.284 104.964 11.3294L105.39 11.8949L105.136 11.9688ZM104.751 10.1419C104.142 10.1275 103.637 10.5871 103.622 11.1678C103.622 11.2029 103.622 11.2378 103.625 11.2729C103.625 11.8665 104.129 12.3477 104.751 12.3477C105.372 12.3477 105.876 11.8665 105.876 11.2729C105.922 10.6937 105.467 10.1881 104.861 10.1445C104.824 10.1419 104.787 10.1408 104.751 10.1419ZM104.751 12.5624C104.055 12.5918 103.465 12.0769 103.435 11.4122C103.433 11.3695 103.433 11.327 103.436 11.2845C103.396 10.6106 103.936 10.0338 104.642 9.99606C104.678 9.99388 104.714 9.99388 104.751 9.99476C105.447 9.96816 106.033 10.4853 106.061 11.1502C106.064 11.1951 106.063 11.2396 106.06 11.2845C106.099 11.9518 105.565 12.5234 104.866 12.5613C104.828 12.5633 104.789 12.5639 104.751 12.5624Z" fill="#464648"/>
</svg>
