<svg width="141" height="24" viewBox="0 0 141 24" fill="none" xmlns="http://www.w3.org/2000/svg">
<path d="M50.9643 14.3297C50.9502 14.2415 50.9433 14.1017 50.9433 13.91C50.9433 12.703 51.3263 11.7612 52.0921 11.0839C52.8581 10.4066 53.7047 10.0681 54.632 10.0681C55.8543 10.0681 56.7043 10.5539 57.1822 11.5256L50.9643 14.3297ZM59.8591 12.6073C59.8447 11.1796 59.3322 10.0203 58.3207 9.12954C57.3089 8.23904 56.0369 7.79395 54.5053 7.79395C53.5359 7.79395 52.6156 8.0183 51.7445 8.46733C50.8729 8.91635 50.1429 9.6154 49.5525 10.5651C48.9623 11.5145 48.667 12.6151 48.667 13.8662C48.667 15.6768 49.2361 17.1341 50.3742 18.238C51.5126 19.3423 52.8752 19.8943 54.4635 19.8943C56.2763 19.8943 57.8497 19.1732 59.1848 17.7304L57.7934 16.1182C56.9786 17.1489 55.9423 17.6643 54.6845 17.6643C53.4266 17.6643 52.4327 17.1932 51.7021 16.2511L59.8802 12.6517L59.8591 12.6073Z" fill="#1F0047"/>
<path d="M45.9597 8.52273C45.3062 8.994 44.7896 9.5972 44.4106 10.3329V7.97086H42.0498V19.7154H44.4106V14.6818C44.4106 13.3429 44.7057 12.2757 45.2961 11.4811C45.8859 10.6865 46.7642 10.2889 47.9306 10.2889H48.0572L48.0361 7.79395C47.305 7.80904 46.613 8.05207 45.9597 8.52273Z" fill="#1F0047"/>
<path d="M68.3197 13.7332C67.9404 13.4681 67.5853 13.2622 67.2554 13.1148C66.9251 12.9678 66.5842 12.8355 66.2332 12.7174C65.8819 12.6 65.4778 12.4822 65.0212 12.3642C64.5643 12.2467 64.2099 12.1214 63.9569 11.9889C63.5915 11.8122 63.4092 11.5326 63.4092 11.1501C63.4092 10.7231 63.5846 10.403 63.9359 10.1896C64.2866 9.9764 64.7437 9.86951 65.3056 9.86951C66.3734 9.86951 67.3641 10.1859 68.2778 10.8188L69.163 8.98632C68.0108 8.19161 66.7881 7.79395 65.4957 7.79395C64.2027 7.79395 63.1522 8.12156 62.3443 8.77678C61.5362 9.43169 61.1324 10.304 61.1324 11.3931C61.1324 12.9385 62.2988 14.0421 64.6313 14.7045C64.6872 14.7193 64.7714 14.7489 64.8842 14.793C66.3734 15.2643 67.1184 15.7943 67.1184 16.383C67.1184 16.7804 66.9632 17.1077 66.6546 17.3653C66.3454 17.6228 65.9237 17.7515 65.3901 17.7515C64.1675 17.7515 62.903 17.2366 61.5961 16.2061L60.458 18.1268C61.1324 18.6863 61.9085 19.1205 62.7868 19.4294C63.665 19.7386 64.5116 19.8931 65.3264 19.8931C66.5352 19.8931 67.5256 19.5586 68.2986 18.8886C69.071 18.2189 69.4578 17.3248 69.4578 16.2061C69.4578 15.0874 69.0785 14.2631 68.3197 13.7332Z" fill="#1F0047"/>
<path d="M37.0849 11.9997C36.5857 12.5516 35.648 12.8275 34.271 12.8275H31.3836V6.64635H33.9125C35.2615 6.64635 36.2523 6.86703 36.8845 7.30869C37.5167 7.75035 37.8331 8.50447 37.8331 9.57165C37.8331 10.6388 37.5836 11.4476 37.0849 11.9997ZM38.8446 5.6311C37.8187 4.73358 36.1888 4.28467 33.9546 4.28467H28.8965V19.7154H31.3836V15.1898H33.997C36.1611 15.1898 37.7662 14.7557 38.8132 13.8875C39.8596 13.0195 40.3834 11.6505 40.3834 9.78146C40.3834 7.91247 39.8703 6.52891 38.8446 5.6311Z" fill="#1F0047"/>
<path d="M74.9822 17.7527C74.4763 17.7527 74.0829 17.5869 73.802 17.2557C73.5208 16.9245 73.3803 16.4797 73.3803 15.9199V9.95872H76.3312V7.97165H73.3803V4.28467H71.0195V15.8538C71.0195 17.0905 71.3743 18.0728 72.0838 18.8013C72.7934 19.5302 73.6503 19.8944 74.6552 19.8944C75.6597 19.8944 76.5767 19.5045 77.4059 18.724L76.4362 16.9797C75.973 17.4954 75.4881 17.7527 74.9822 17.7527Z" fill="#1F0047"/>
<path d="M85.7865 16.6373C85.1401 17.3515 84.3536 17.7081 83.426 17.7081C82.4987 17.7081 81.6902 17.3551 81.002 16.6485C80.3133 15.9416 79.9692 15.0254 79.9692 13.8994C79.9692 12.7731 80.3066 11.8346 80.981 11.0839C81.6556 10.3332 82.4632 9.95783 83.4049 9.95783C84.3461 9.95783 85.1401 10.3332 85.7865 11.0839C86.4329 11.8346 86.7562 12.7697 86.7562 13.8882C86.7559 15.0073 86.4326 15.9235 85.7865 16.6373ZM86.7141 10.0022C85.7582 8.53044 84.5428 7.79395 83.0675 7.79395C81.5922 7.79395 80.3133 8.33869 79.2317 9.42788C78.1492 10.5174 77.6084 11.975 77.6084 13.7997C77.6084 15.6251 78.1354 17.0978 79.1893 18.216C80.2432 19.3348 81.4794 19.8943 82.899 19.8943C83.6014 19.8943 84.3005 19.7141 84.9959 19.3532C85.6913 18.9927 86.2638 18.4739 86.7138 17.7966V19.7177H89.0743V7.97059H86.7138V10.0022H86.7141Z" fill="#1F0047"/>
<path d="M124.066 16.6151C123.399 17.3292 122.552 17.6861 121.527 17.6861C120.501 17.6861 119.654 17.3292 118.987 16.6151C118.319 15.9012 117.986 14.9778 117.986 13.844C117.986 12.7107 118.319 11.787 118.987 11.0729C119.654 10.3591 120.501 10.0019 121.527 10.0019C122.552 10.0019 123.399 10.3591 124.066 11.0729C124.734 11.787 125.067 12.7104 125.067 13.844C125.067 14.9778 124.734 15.9012 124.066 16.6151ZM121.527 7.79395C119.84 7.79395 118.435 8.37914 117.311 9.54953C116.187 10.7199 115.625 12.1515 115.625 13.8443C115.625 15.5371 116.187 16.9687 117.311 18.139C118.435 19.3091 119.84 19.8943 121.527 19.8943C123.213 19.8943 124.618 19.3091 125.742 18.139C126.866 16.9687 127.428 15.5371 127.428 13.8443C127.428 12.1515 126.866 10.7199 125.742 9.54953C124.618 8.37914 123.213 7.79395 121.527 7.79395Z" fill="#E2066F"/>
<path d="M136.889 16.6254C136.2 17.332 135.393 17.6855 134.465 17.6855C133.538 17.6855 132.751 17.3286 132.104 16.6145C131.458 15.9008 131.135 14.9847 131.135 13.8657C131.135 12.7473 131.458 11.8161 132.104 11.0727C132.751 10.3293 133.545 9.95765 134.486 9.95765C135.427 9.95765 136.236 10.3293 136.91 11.0727C137.585 11.8161 137.922 12.7506 137.922 13.8765C137.922 15.0028 137.577 15.9189 136.889 16.6254ZM138.681 9.42775C137.613 8.33865 136.327 7.79395 134.823 7.79395C133.32 7.79395 132.104 8.53762 131.177 10.0241V7.97088H128.816V24H131.177V17.9506C132.301 19.246 133.569 19.8933 134.982 19.8933C136.394 19.8933 137.63 19.3269 138.691 18.1934C139.752 17.0602 140.283 15.5879 140.283 13.7775C140.283 11.9671 139.748 10.5171 138.681 9.42775Z" fill="#E2066F"/>
<path d="M110.129 7.79305C109.343 7.79305 108.608 7.99957 107.927 8.41108C107.245 8.82351 106.736 9.39021 106.399 10.1115V3.35571H104.038V19.7153H106.399V13.3566C106.399 12.2675 106.701 11.4397 107.305 10.8729C107.909 10.3062 108.619 10.023 109.434 10.023C111.148 10.023 112.005 11.1045 112.005 13.2681V19.7153H114.366V12.5175C114.366 10.9871 113.976 9.81713 113.196 9.00738C112.416 8.19823 111.394 7.79305 110.129 7.79305Z" fill="#E2066F"/>
<path d="M101.215 12.2983C100.449 11.6065 99.3109 11.0694 97.8007 10.6865C96.2899 10.304 95.3029 9.94681 94.8392 9.61559C94.3756 9.28467 94.1437 8.80611 94.1437 8.1805C94.1437 7.5549 94.3756 7.0875 94.8392 6.77862C95.3029 6.46944 95.8965 6.31486 96.6205 6.31486C97.3439 6.31486 98.0776 6.4474 98.8229 6.7122C99.5674 6.9773 100.157 7.31576 100.594 7.7279L101.921 5.76292C101.247 5.17475 100.446 4.71763 99.5183 4.39426C98.591 4.07058 97.6562 3.90845 96.7151 3.90845C95.2536 3.90845 94.0275 4.29492 93.037 5.06727C92.0463 5.84022 91.5513 6.94046 91.5513 8.368C91.5513 9.79584 91.9866 10.8556 92.8576 11.5474C93.2932 11.9151 93.7922 12.2134 94.354 12.4414C94.9162 12.6699 95.7382 12.9199 96.8207 13.192C97.9023 13.4646 98.6646 13.7663 99.1073 14.0975C99.5498 14.4284 99.7713 14.8922 99.7713 15.4882C99.7713 16.0845 99.5359 16.5628 99.0649 16.9233C98.5942 17.2844 97.9582 17.4643 97.1575 17.4643C95.5556 17.4643 94.0096 16.7874 92.5205 15.4329L90.9609 17.3982C92.7452 19.0616 94.7898 19.8931 97.0944 19.8931C98.6678 19.8931 99.9397 19.4737 100.909 18.6346C101.879 17.7959 102.364 16.7032 102.364 15.3559C102.364 14.0087 101.981 12.9903 101.215 12.2983Z" fill="#E2066F"/>
<path d="M7.42588 18.4145C7.60886 18.3294 7.79417 18.2509 7.98128 18.1772C8.19243 18.0942 8.40541 18.016 8.62112 17.9477C8.88971 17.8632 9.16048 17.7865 9.43504 17.7255C9.80509 17.643 10.1795 17.582 10.5567 17.5437C10.3453 18.2406 10.1114 18.9336 9.85796 19.6221C9.86883 19.7555 9.87474 19.8896 9.87809 20.024C10.3883 19.9186 10.9155 19.8621 11.4552 19.8621C11.9951 19.8621 12.5221 19.9186 13.0323 20.024C13.0358 19.8896 13.0415 19.7552 13.0525 19.6221C12.799 18.9336 12.5651 18.2406 12.3536 17.5437C12.7309 17.582 13.1053 17.6427 13.4753 17.7255C13.7496 17.7865 14.0207 17.8632 14.2893 17.9477C14.5053 18.016 14.7179 18.0942 14.9293 18.1772C15.1162 18.2509 15.3017 18.3294 15.4848 18.4145C16.7827 19.0203 17.9661 19.9183 18.9367 21.0841C21.369 18.8835 22.9109 15.6317 22.9109 12.0004C22.9109 5.37272 17.7821 0 11.4555 0C5.12882 0 0 5.37272 0 12.0004C0 15.6317 1.54159 18.8835 3.97424 21.0841C4.94448 19.9183 6.12784 19.02 7.42588 18.4145Z" fill="#A0DBE8"/>
<path d="M8.18115 20.5835C8.71898 20.3346 9.28678 20.1442 9.87826 20.0221C9.87491 19.8875 9.8692 19.7536 9.85813 19.6205C10.1116 18.9327 10.3455 18.2404 10.5569 17.5442C10.1796 17.5825 9.80526 17.6431 9.43521 17.7258C9.16085 17.7867 8.88988 17.8633 8.62129 17.9478C8.40558 18.016 8.1926 18.0941 7.98145 18.1771L8.81647 18.3888L8.18115 20.5835Z" fill="#525353"/>
<path d="M6.21209 21.8781C6.233 21.6548 6.24584 21.4293 6.24584 21.2014C6.24584 21.0643 6.35201 20.9532 6.48287 20.9532H6.69108L7.42565 18.4146C6.12761 19.0201 4.94425 19.9178 3.97363 21.083C4.50867 21.5669 5.08633 21.9995 5.70091 22.3744C5.86454 22.2014 6.03505 22.0357 6.21209 21.8781Z" fill="#525353"/>
<path d="M15.4844 18.4139L16.219 20.9532H16.427C16.5579 20.9532 16.664 21.0643 16.664 21.2014C16.664 21.4296 16.6767 21.6552 16.6978 21.8786C16.8749 22.0362 17.0453 22.202 17.2089 22.3744C17.8235 21.9997 18.4012 21.567 18.9363 21.083C17.9657 19.9176 16.7823 19.0196 15.4844 18.4139Z" fill="#525353"/>
<path d="M14.0942 18.3888L14.9292 18.1771C14.718 18.0941 14.5049 18.016 14.2891 17.9478C14.0206 17.8633 13.7498 17.7867 13.4755 17.7258C13.1054 17.6434 12.7308 17.5825 12.3535 17.5442C12.5652 18.2404 12.7991 18.9327 13.0524 19.6205C13.0417 19.7539 13.0356 19.8878 13.0322 20.0221C13.624 20.1442 14.1917 20.3346 14.7296 20.5835L14.0942 18.3888Z" fill="#525353"/>
<path d="M11.455 20.953H13.0693C13.0361 20.6416 13.0243 20.3314 13.0321 20.0236C12.5219 19.9182 11.9949 19.8618 11.455 19.8618C10.9154 19.8618 10.3884 19.9182 9.87791 20.0236C9.88561 20.3314 9.87379 20.6416 9.84082 20.953H11.455Z" fill="#1A1A1A"/>
<path d="M8.0752 20.9508H9.84179C9.87493 20.6401 9.88679 20.3307 9.87888 20.0237C9.2874 20.1456 8.7194 20.3355 8.18177 20.5838L8.0752 20.9508Z" fill="#1A1A1A"/>
<path d="M14.8366 20.9505L14.7298 20.5835C14.1919 20.3352 13.6243 20.1456 13.0324 20.0237C13.0249 20.3304 13.0368 20.6401 13.0697 20.9508L14.8366 20.9505Z" fill="#1A1A1A"/>
<path d="M8.0743 20.9519L8.18087 20.584L8.81639 18.3879L7.98134 18.176C7.79426 18.2497 7.60875 18.3282 7.42597 18.4133L6.69141 20.9516H7.48005L8.0743 20.9519Z" fill="#AA9678"/>
<path d="M14.7291 20.584L14.8356 20.9519H15.43H16.2189L15.4842 18.4133C15.3011 18.3282 15.1156 18.2497 14.9287 18.176L14.0938 18.3879L14.7291 20.584Z" fill="#AA9678"/>
<path d="M16.6974 21.8775C16.6764 21.6544 16.6637 21.4291 16.6637 21.2015C16.6637 21.0646 16.5576 20.9536 16.4266 20.9536H16.2186H15.4298H14.8356H13.069H11.4547H9.84032H8.07376H7.47948H6.69084H6.48262C6.35159 20.9536 6.24559 21.0646 6.24559 21.2015C6.24559 21.4291 6.23276 21.6544 6.21184 21.8775C6.18874 22.1247 6.15226 22.3687 6.10449 22.6087C6.24876 22.6886 6.39422 22.7661 6.54183 22.8396C6.63912 22.3931 6.69894 21.9339 6.71492 21.4656C6.71512 21.4602 6.7157 21.4547 6.7159 21.4493H6.73664H7.93006H9.76907H11.4544H13.1397H14.979H16.1722H16.193C16.1933 21.4547 16.1938 21.4602 16.1938 21.4656C16.2097 21.9339 16.2697 22.3931 16.3669 22.8396C16.5149 22.7661 16.6602 22.6886 16.8044 22.6087C16.7571 22.3684 16.7205 22.1247 16.6974 21.8775Z" fill="#8B7460"/>
<path d="M14.7348 19.2419C14.7003 19.2002 14.6647 19.1556 14.6279 19.1049C14.6647 19.1559 14.7003 19.2002 14.7348 19.2419Z" fill="#525353"/>
<path d="M14.9987 19.5139C14.9987 19.5139 14.9995 19.5166 15.0013 19.5217C14.9995 19.5166 14.9987 19.5139 14.9987 19.5139C14.9987 19.5139 14.8827 19.4176 14.7354 19.2406C14.8824 19.4176 14.9987 19.5139 14.9987 19.5139Z" fill="#AA9678"/>
<path d="M19.0822 9.3288C19.0802 9.32609 19.0785 9.32367 19.0765 9.32095H19.0767C18.9816 9.18241 18.8832 9.05624 18.7825 8.94155C18.7825 8.94094 18.782 8.94064 18.7817 8.94034C18.782 8.94094 18.7823 8.94125 18.7825 8.94155C18.7817 8.94034 18.7808 8.93913 18.7802 8.93823C18.7344 8.88631 18.6882 8.83651 18.6415 8.78942C18.6236 8.77192 18.6055 8.75622 18.5876 8.73932C18.5582 8.71155 18.529 8.68257 18.499 8.65662V8.65722V9.7728L18.9072 11.7293C18.9115 11.7444 18.917 11.7586 18.9207 11.7746L19.2034 12.1063L19.206 12.103H19.5019C19.5022 12.074 19.5039 12.0459 19.5039 12.0169V12.0166C19.5039 11.0939 19.3591 10.2071 19.0966 9.37649C19.0917 9.36079 19.0874 9.3448 19.0822 9.3288Z" fill="#BBBCBD"/>
<path d="M18.9471 11.9221C18.9477 11.9251 18.9486 11.9281 18.9489 11.9314C18.9492 11.9332 18.9497 11.935 18.9497 11.9368C18.9497 11.9371 18.9497 11.9374 18.9497 11.9377C18.9552 11.9834 18.9572 12.031 18.9584 12.0791C18.9584 12.0881 18.9598 12.0963 18.9598 12.1053C18.9598 12.1062 18.9601 12.1074 18.9601 12.1086C18.9601 12.1098 18.9598 12.1107 18.9598 12.1119C18.9598 12.1215 18.9584 12.1303 18.9584 12.1399C18.9572 12.1871 18.9552 12.2338 18.95 12.2786C18.95 12.2789 18.95 12.2792 18.95 12.2792C18.9497 12.2816 18.9492 12.2837 18.9489 12.2861C18.9486 12.2897 18.9474 12.293 18.9469 12.2967C18.9405 12.3454 18.9321 12.3929 18.9212 12.4381C18.9212 12.4384 18.9212 12.4387 18.9209 12.4387L18.9226 12.4369C18.9229 12.436 18.9229 12.4354 18.9232 12.4348L19.2035 12.1074L18.9209 11.7767C18.9209 11.777 18.9209 11.7773 18.9209 11.7773C18.9321 11.8237 18.9408 11.8721 18.9471 11.9221Z" fill="#676A6A"/>
<path d="M18.9466 12.298C18.9475 12.2916 18.9489 12.2862 18.9498 12.2799C18.9553 12.2349 18.957 12.1882 18.9582 12.1409C18.9582 12.13 18.9599 12.1201 18.9599 12.1095C18.9599 12.0993 18.9585 12.0899 18.9582 12.08C18.9573 12.0317 18.9553 11.9841 18.9498 11.9383C18.9492 11.9328 18.9478 11.928 18.9469 11.9226C18.9406 11.8725 18.9319 11.824 18.9207 11.7779C18.9169 11.7619 18.9114 11.7474 18.9068 11.7317C18.8797 11.6383 18.8425 11.555 18.799 11.4863C18.7929 11.4773 18.7871 11.4682 18.7808 11.4598C18.769 11.4429 18.7568 11.4263 18.7439 11.4115C18.7251 11.3901 18.7055 11.3702 18.6847 11.3539C18.6769 11.3479 18.6686 11.3434 18.6605 11.338C18.6426 11.3259 18.6245 11.3153 18.6054 11.3075C18.5973 11.3039 18.5893 11.3006 18.5809 11.2979C18.5544 11.2891 18.527 11.2831 18.4987 11.2831C18.4707 11.2831 18.4436 11.2891 18.4168 11.2979C18.4084 11.3006 18.4003 11.3039 18.3923 11.3075C18.3732 11.3153 18.3551 11.3259 18.3372 11.338C18.3294 11.3434 18.3207 11.3476 18.3132 11.3539C18.2925 11.3702 18.2729 11.3901 18.2538 11.4115C18.2411 11.4263 18.229 11.4429 18.2169 11.4598C18.2109 11.4685 18.2048 11.4776 18.1987 11.4866C18.1549 11.5556 18.118 11.6383 18.0909 11.732C18.0897 11.7356 18.0886 11.7396 18.0874 11.7432C18.0756 11.786 18.0663 11.8315 18.0583 11.8783C18.056 11.8924 18.0528 11.906 18.0511 11.9208C18.0439 11.9726 18.0401 12.0272 18.0395 12.0827C18.0392 12.0902 18.0381 12.0978 18.0381 12.1053H18.0401C18.0401 12.5618 18.2463 12.9317 18.501 12.9317C18.5449 12.9317 18.587 12.9197 18.6271 12.8992C18.6337 12.8959 18.64 12.8922 18.6464 12.8883C18.6631 12.8784 18.6793 12.8672 18.6951 12.8542C18.7038 12.847 18.7118 12.8383 18.7202 12.8298C18.7404 12.8102 18.7597 12.7876 18.7782 12.7626C18.7909 12.7454 18.8033 12.7276 18.8151 12.708C18.8226 12.6957 18.8292 12.6821 18.8362 12.6688C18.8489 12.6441 18.8613 12.6182 18.8722 12.5904C18.8763 12.5805 18.8806 12.5711 18.8843 12.5606C18.8982 12.5223 18.9109 12.4822 18.921 12.4397C18.9319 12.3944 18.9403 12.3468 18.9466 12.298ZM18.5154 11.9992C18.42 11.9992 18.3427 11.8605 18.3427 11.6892C18.3427 11.5183 18.42 11.3796 18.5154 11.3796C18.6109 11.3796 18.6882 11.5183 18.6882 11.6892C18.6882 11.8605 18.6109 11.9992 18.5154 11.9992Z" fill="#1A1A1A"/>
<path d="M18.5155 11.9982C18.611 11.9982 18.6883 11.8594 18.6883 11.688C18.6883 11.517 18.611 11.3782 18.5155 11.3782C18.4201 11.3782 18.3428 11.517 18.3428 11.688C18.3428 11.8594 18.4201 11.9982 18.5155 11.9982Z" fill="white"/>
<path d="M18.0908 11.729C18.1179 11.6352 18.1551 11.5523 18.1987 11.4836C18.2047 11.4742 18.2108 11.4655 18.2169 11.4568C18.2287 11.4399 18.2411 11.4236 18.2538 11.4085C18.2728 11.3871 18.2924 11.3675 18.3132 11.351C18.321 11.3449 18.3293 11.3404 18.3371 11.335C18.355 11.3229 18.3732 11.3124 18.3922 11.3045C18.4003 11.3009 18.4084 11.2976 18.4167 11.2949C18.4433 11.2861 18.4707 11.2801 18.4987 11.2801C18.5269 11.2801 18.5543 11.2861 18.5809 11.2949C18.5892 11.2976 18.5973 11.3009 18.6054 11.3045C18.6241 11.3124 18.6426 11.3229 18.6605 11.335C18.6685 11.3404 18.6769 11.3449 18.6847 11.351C18.7055 11.3675 18.7251 11.3871 18.7438 11.4085C18.7568 11.4233 18.7689 11.4399 18.7807 11.4568C18.7871 11.4655 18.7928 11.4742 18.7989 11.4833C18.8425 11.5523 18.8794 11.6352 18.9068 11.7287V11.729L18.4987 9.77502L18.0908 11.729Z" fill="#909393"/>
<path d="M13.0926 12.0896C13.092 12.0504 13.0897 12.0115 13.0854 11.9732C13.0854 11.9726 13.0851 11.972 13.0851 11.9714C13.0807 11.934 13.075 11.8967 13.0672 11.8602C13.0669 11.8593 13.0666 11.8584 13.0666 11.8572C13.0588 11.8213 13.0496 11.786 13.0386 11.7514C13.0384 11.7505 13.0381 11.7496 13.0378 11.7487C13.0268 11.714 13.0141 11.6799 13 11.6471C13 11.6465 12.9994 11.6456 12.9991 11.645C12.9847 11.6118 12.9691 11.579 12.9518 11.5476C12.8993 11.4518 12.8339 11.3643 12.758 11.2887C12.6614 11.1925 12.5477 11.1147 12.4226 11.0608C12.4217 11.0605 12.4205 11.0599 12.4194 11.0596C12.3577 11.0331 12.2931 11.0129 12.2261 10.9987C12.2247 10.9984 12.223 10.9984 12.2212 10.9978C12.1543 10.9842 12.0851 10.9767 12.0142 10.9767C11.9446 10.9767 11.8766 10.9839 11.8108 10.9972C11.8085 10.9978 11.8059 10.9978 11.8036 10.9984C11.7381 11.012 11.6747 11.0318 11.6141 11.0575C11.6127 11.0581 11.6109 11.0587 11.6092 11.0593C11.5478 11.0855 11.4889 11.1175 11.4335 11.1548C11.4333 11.1548 11.4333 11.1548 11.433 11.1548C11.377 11.1925 11.3248 11.2353 11.2766 11.2826L11.2755 11.2866L11.2715 11.2875C11.1947 11.3637 11.1284 11.452 11.0756 11.5491C11.075 11.5503 11.0742 11.5512 11.0736 11.5521C11.0574 11.582 11.043 11.613 11.0295 11.6444C11.028 11.6477 11.0263 11.651 11.0248 11.6543C11.0127 11.6832 11.0021 11.7134 10.9923 11.7438C10.9902 11.7499 10.9879 11.7553 10.9862 11.7613C10.9775 11.7897 10.9706 11.8186 10.964 11.8481C10.9623 11.8563 10.9597 11.8644 10.9579 11.8729C10.9522 11.9018 10.9484 11.931 10.9447 11.9609C10.9435 11.9699 10.9415 11.9784 10.9406 11.9877C10.9366 12.0263 10.9346 12.0655 10.9346 12.1053C10.9346 12.18 10.9421 12.2527 10.9553 12.3235C10.9553 12.3247 10.9556 12.3262 10.9559 12.328C10.9695 12.3983 10.9891 12.4664 11.0148 12.5315C11.0153 12.5321 11.0153 12.5333 11.0159 12.5342C11.0678 12.6656 11.1428 12.785 11.2357 12.886C11.3089 12.9659 11.3935 13.0346 11.4863 13.0894C11.4866 13.0897 11.4872 13.0901 11.4878 13.0904C11.5166 13.1072 11.5466 13.1226 11.5772 13.1371C11.5798 13.1383 11.5821 13.1398 11.5847 13.1407C11.6127 13.1537 11.6421 13.1645 11.6715 13.1751C11.6767 13.1769 11.6816 13.179 11.6865 13.1808C11.7136 13.1901 11.7416 13.1974 11.7699 13.204C11.7776 13.2058 11.7849 13.2085 11.7926 13.21C11.82 13.2161 11.848 13.22 11.8763 13.2239C11.8846 13.2251 11.8933 13.2269 11.9017 13.2281C11.9386 13.232 11.9761 13.2341 12.0139 13.2341C12.163 13.2341 12.3049 13.2025 12.4341 13.1455C12.4984 13.1169 12.5599 13.0819 12.6172 13.0415C12.7323 12.9604 12.8313 12.8567 12.9088 12.7365C12.9475 12.6765 12.9812 12.6123 13.0084 12.5448C13.0629 12.4097 13.0932 12.2611 13.0932 12.1053C13.0932 12.1028 13.0929 12.1001 13.0929 12.0974C13.0929 12.095 13.0926 12.0923 13.0926 12.0896ZM12.0142 11.9573C11.79 11.9573 11.6086 11.7674 11.6086 11.5331C11.6086 11.2989 11.7903 11.1093 12.0142 11.1093C12.238 11.1093 12.4194 11.2992 12.4194 11.5331C12.4197 11.7674 12.238 11.9573 12.0142 11.9573Z" fill="#1A1A1A"/>
<path d="M12.0149 11.9557C12.2387 11.9557 12.4202 11.7661 12.4202 11.5319C12.4202 11.2977 12.2387 11.1078 12.0149 11.1078C11.7908 11.1078 11.6094 11.2977 11.6094 11.5319C11.6094 11.7661 11.7908 11.9557 12.0149 11.9557Z" fill="white"/>
<path d="M11.2718 11.2861L11.2758 11.2852L11.277 11.2813L12.0202 8.90145C12.0202 8.90145 12.0202 8.76054 12.0202 8.61993C12.0202 8.5801 12.0202 8.54087 12.0202 8.50436C12.0202 8.49229 12.0202 8.48022 12.0202 8.46875C12.0202 8.45125 12.0202 8.43496 12.0202 8.41987C12.0202 8.40931 12.0202 8.39905 12.0202 8.3903C12.0202 8.37853 12.0202 8.36888 12.0202 8.36073C12.0202 8.35409 12.0202 8.34836 12.0202 8.34473C12.0202 8.34051 12.0202 8.3384 12.0202 8.3384C11.6063 8.24938 11.1806 8.20081 10.7448 8.20081C10.5994 8.20081 10.4552 8.20714 10.3119 8.2174C10.2911 8.21891 10.2701 8.22042 10.2493 8.22193C9.50295 8.28137 8.76836 8.48505 8.08807 8.81003C7.50467 9.08884 6.96252 9.45636 6.47525 9.89177C6.47505 9.89208 6.47464 9.89238 6.47444 9.89268C6.34358 10.0089 6.21826 10.132 6.09571 10.2578C6.07281 10.2813 6.04953 10.3043 6.02703 10.3281C5.91178 10.4497 5.80027 10.5755 5.69252 10.7047C5.66901 10.7327 5.64614 10.7617 5.62303 10.7901C5.51487 10.9237 5.40948 11.0598 5.30963 11.2007C5.30132 11.2125 5.29345 11.2249 5.28514 11.2366C5.18982 11.3724 5.09925 11.5118 5.0118 11.6534C4.99484 11.6811 4.97727 11.7086 4.96049 11.7363C4.88985 11.8537 4.82392 11.9744 4.75879 12.0951H8.13898H8.1449L11.2718 11.2861Z" fill="#BBBCBD"/>
<path d="M14.1306 11.0201C14.1376 10.9274 14.1433 10.834 14.1477 10.7413C14.154 10.6153 14.158 10.4893 14.1603 10.3633C14.1621 10.2655 14.1621 10.1676 14.1615 10.0697C14.1615 10.0416 14.1621 10.0135 14.1618 9.9851C14.1592 9.73285 14.15 9.4803 14.1353 9.22774C14.1347 9.22744 14.1338 9.22683 14.1332 9.22623C14.1327 9.22562 14.1327 9.22502 14.1321 9.22442C14.1312 9.22381 14.1278 9.2217 14.1246 9.21989C14.1217 9.21837 14.1194 9.21656 14.1139 9.21354C14.0698 9.18666 13.9608 9.1217 13.8633 9.0634C13.8615 9.06219 13.8592 9.06098 13.8572 9.05977C13.8327 9.04497 13.8088 9.03107 13.7871 9.01808C13.7868 9.01808 13.7863 9.01748 13.786 9.01748C13.7675 9.0063 13.7519 8.99724 13.7375 8.98878C13.7346 8.98727 13.7306 8.98455 13.728 8.98334C13.7121 8.97397 13.6997 8.96703 13.6928 8.9631C13.5371 8.87852 13.3781 8.80027 13.2166 8.72867C12.8316 8.55829 12.313 8.40875 12.0205 8.33655V8.55104V8.60118V8.61871C12.0205 8.75979 12.0205 8.90057 12.0205 8.90057L12.7574 11.2868L12.7583 11.289C12.8342 11.3648 12.8996 11.4524 12.9521 11.5485C12.9694 11.5802 12.985 11.6128 12.9994 11.646C12.9997 11.6467 13 11.6473 13.0003 11.6482C13.0144 11.6811 13.0271 11.7152 13.0381 11.75C13.0384 11.7509 13.0387 11.7518 13.0389 11.7527C13.0496 11.7874 13.0591 11.8228 13.0669 11.8587C13.0669 11.8599 13.0672 11.8608 13.0675 11.8617C13.0753 11.8983 13.0813 11.9355 13.0854 11.9732C13.0854 11.9738 13.0857 11.9744 13.0857 11.975C13.09 12.0131 13.0923 12.0521 13.0929 12.0916L13.0958 12.098H13.9977C14.0588 11.7518 14.1012 11.4013 14.1283 11.0494C14.1289 11.0394 14.1298 11.0298 14.1306 11.0201Z" fill="#E2DDDB"/>
<path d="M15.3114 10.1765C15.3108 10.178 15.3102 10.1795 15.3096 10.1806C15.3102 10.1795 15.3108 10.178 15.3114 10.1765Z" fill="#FBB040"/>
<path d="M13.1008 15.4956C13.3053 15.2822 13.4985 15.0778 13.6828 14.8777C13.7924 14.7587 13.8994 14.641 14.0016 14.5247C14.7555 13.6676 15.3093 12.8652 15.6421 11.8333C15.6499 11.8088 15.658 11.7765 15.6655 11.7403C15.6666 11.7349 15.6678 11.7294 15.669 11.7237C15.677 11.685 15.6845 11.6425 15.692 11.5939C15.6949 11.5607 15.6981 11.5284 15.7007 11.4973C15.617 11.0477 15.4546 10.6112 15.3113 10.1798C15.3119 10.1813 15.3125 10.1828 15.313 10.1843C15.3122 10.1834 15.3093 10.1807 15.3087 10.1801C15.2813 10.1529 15.2525 10.1272 15.2248 10.1004C15.14 10.0185 15.0537 9.93853 14.9658 9.86125C14.7024 9.62848 14.4255 9.41624 14.1351 9.22876C14.1498 9.48115 14.1593 9.73354 14.1616 9.98563C14.1622 10.014 14.1613 10.0421 14.1616 10.0702C14.1619 10.168 14.1622 10.2658 14.1605 10.3636C14.1579 10.4895 14.1538 10.6154 14.1478 10.7413C14.1432 10.8343 14.1374 10.9273 14.1305 11.0199C14.1299 11.0296 14.1287 11.0393 14.1282 11.0489C14.1013 11.4009 14.0587 11.7512 13.9978 12.0968L13.8917 12.6218C13.6704 13.5614 13.2211 14.4139 12.8513 15.2943C12.7532 15.5277 12.6604 15.7637 12.5787 16.0041C12.5712 16.0261 12.5635 16.0493 12.5557 16.072C12.671 15.9449 12.7734 15.8353 12.851 15.7544C12.9358 15.6665 13.0192 15.5805 13.1008 15.4956Z" fill="#FBB040"/>
<path d="M11.2773 11.2812C11.3255 11.2338 11.378 11.191 11.4337 11.1533C11.434 11.1533 11.4342 11.1533 11.4342 11.1533C11.4896 11.1162 11.5485 11.0839 11.6099 11.0577C11.6116 11.057 11.6134 11.0564 11.6148 11.0558C11.6754 11.0302 11.7388 11.0103 11.8043 10.9967C11.8066 10.9961 11.8092 10.9961 11.8115 10.9955C11.8773 10.9825 11.9453 10.975 12.0148 10.975C12.0858 10.975 12.1547 10.9825 12.2219 10.9961C12.2237 10.9967 12.2254 10.9967 12.2268 10.997C12.2938 11.0112 12.3584 11.0317 12.4201 11.058C12.4212 11.0586 12.4221 11.0589 12.4233 11.0592C12.5487 11.1132 12.6621 11.191 12.7587 11.2872L12.7578 11.2851L12.0212 8.90222L11.2773 11.2812Z" fill="#909393"/>
<path d="M11.016 12.5332C10.9906 12.468 10.9704 12.3998 10.9569 12.3295C10.9569 12.328 10.9566 12.3265 10.9563 12.325C10.943 12.2544 10.9358 12.1814 10.9358 12.1065C10.9358 12.0667 10.9378 12.0275 10.9419 11.9888C10.9428 11.9798 10.9445 11.971 10.9456 11.962C10.9494 11.9324 10.9531 11.9028 10.9592 11.8739C10.9609 11.8654 10.9632 11.8573 10.9652 11.8491C10.9719 11.8198 10.9788 11.7906 10.9875 11.7622C10.9892 11.7565 10.9915 11.7507 10.9935 11.7447C11.0033 11.7145 11.0137 11.6844 11.0261 11.6551C11.0275 11.6518 11.0293 11.6484 11.0307 11.6451C11.0443 11.6137 11.0587 11.5827 11.0748 11.5531C11.0754 11.5519 11.0763 11.5507 11.0769 11.5498C11.1296 11.4526 11.1957 11.3645 11.2727 11.2878L8.14556 12.0966H8.13965L11.2369 12.8881C11.1444 12.7867 11.0691 12.6675 11.0172 12.5356C11.0166 12.535 11.0163 12.5341 11.016 12.5332Z" fill="#676A6A"/>
<path d="M18.051 11.9175C18.053 11.903 18.0559 11.8891 18.0582 11.8749C18.0663 11.8284 18.0755 11.7829 18.0873 11.7397C18.0888 11.7352 18.0894 11.7295 18.0905 11.7246L18.4986 9.76843V8.65302C18.1652 8.36481 17.8081 8.20728 17.4364 8.20728C16.9668 8.20728 16.529 8.47858 16.2016 8.81417C15.8431 9.18115 15.5665 9.64289 15.3424 10.1089C15.332 10.1303 15.3216 10.1508 15.3115 10.1725C15.3805 10.235 15.4488 10.2987 15.516 10.363C15.6686 10.509 15.8177 10.659 15.9648 10.8111C16.0335 10.8817 16.1007 10.9542 16.1681 11.0263C16.2397 11.1026 16.3115 11.1787 16.3819 11.2563C16.4724 11.3561 16.5624 11.4566 16.6516 11.5583C16.689 11.6012 16.7263 11.6441 16.7635 11.6872C16.8705 11.8115 16.9772 11.9365 17.0825 12.0629V12.0632C17.1001 12.0826 17.1125 12.0961 17.1174 12.1022H18.0374C18.0374 12.0943 18.0389 12.0871 18.0389 12.0792C18.0403 12.024 18.0438 11.9697 18.051 11.9175Z" fill="#E2DDDB"/>
<path d="M15.3121 10.1793C15.3118 10.1782 15.3115 10.1774 15.3112 10.1765C15.3104 10.1776 15.3101 10.1785 15.3096 10.1796C15.3101 10.1802 15.3129 10.1827 15.3135 10.1836C15.3132 10.1822 15.3126 10.1808 15.3121 10.1793Z" fill="#E2DDDB"/>
<path d="M4.20349 13.3287C4.20606 13.3214 4.20903 13.3145 4.21159 13.3072C4.27081 13.1448 4.33573 12.9845 4.40403 12.826C4.42295 12.7819 4.44271 12.7381 4.46224 12.694C4.51811 12.5696 4.57712 12.4471 4.63829 12.3251C4.66316 12.2756 4.68744 12.2261 4.71328 12.1768C4.7275 12.15 4.74369 12.124 4.75808 12.0968C4.82341 11.9761 4.88914 11.8553 4.95978 11.7378C4.97656 11.7101 4.99413 11.6826 5.01111 11.6548C5.09854 11.5132 5.18931 11.3737 5.28446 11.2379C5.29274 11.2261 5.30044 11.2137 5.30892 11.2019C5.40877 11.0612 5.51416 10.9248 5.62232 10.791C5.64543 10.7626 5.66833 10.7337 5.6918 10.7056C5.79956 10.5764 5.91087 10.4505 6.02632 10.3288C6.04902 10.3049 6.07213 10.282 6.095 10.2584C6.21758 10.1325 6.3429 10.0097 6.47373 9.89312C6.47393 9.89282 6.47434 9.89252 6.47454 9.89221C6.98904 8.08613 8.56379 6.77158 10.4269 6.77158C11.1771 6.77158 11.9227 6.99802 12.5622 7.40742C13.2178 7.82769 13.7519 8.443 14.0992 9.16036C14.1009 9.16399 14.1027 9.16761 14.1044 9.17123C14.1131 9.18935 14.1229 9.20656 14.1315 9.22498C14.1318 9.22558 14.1321 9.22618 14.1327 9.22709C14.1332 9.22739 14.1338 9.228 14.1344 9.2283C14.4248 9.41579 14.7017 9.62803 14.9651 9.86081C15.053 9.93841 15.1393 10.0184 15.2241 10.1002C15.2521 10.1271 15.2809 10.1525 15.3083 10.1796C15.3089 10.1787 15.3092 10.1775 15.3097 10.1763C15.3103 10.1757 15.3106 10.1751 15.3109 10.1745C15.3201 10.154 15.3296 10.1331 15.3392 10.1135C15.6016 8.37749 16.3328 7.12694 17.1949 7.12694C17.845 7.12694 18.4207 7.83705 18.7775 8.9294L18.781 8.94117C18.7813 8.94177 18.7815 8.94208 18.7818 8.94238C18.8825 9.05711 18.9808 9.18361 19.076 9.32219H19.0757C19.0778 9.32461 19.0795 9.32732 19.0815 9.33004V9.32974V9.33004C19.0867 9.34574 19.091 9.36205 19.0959 9.37775L19.0824 9.32098C18.0097 5.99474 15.0063 3.60022 11.4688 3.60022C7.03149 3.60022 3.43457 7.36787 3.43457 12.0156C3.43457 12.9316 3.57431 13.8138 3.83384 14.6348C3.83424 14.633 3.83465 14.6314 3.83482 14.6299C3.88596 14.3824 3.94693 14.1363 4.01817 13.8926C4.07442 13.7027 4.1362 13.5146 4.20349 13.3287Z" fill="#525353"/>
<path d="M19.2037 12.109L18.9234 12.4368C18.9231 12.4377 18.9231 12.4383 18.9228 12.4393C18.9121 12.4821 18.8991 12.5225 18.8847 12.5614C18.881 12.5716 18.8766 12.5813 18.8726 12.5913C18.8614 12.6187 18.8495 12.6449 18.8366 12.6697C18.8296 12.6829 18.8227 12.6965 18.8155 12.7089C18.8037 12.7285 18.7913 12.746 18.7786 12.7635C18.7601 12.7885 18.7408 12.8108 18.7206 12.8307C18.7122 12.8388 18.7042 12.8479 18.6955 12.8551C18.6797 12.8684 18.6632 12.8793 18.6468 12.8892C18.6404 12.8928 18.6341 12.8964 18.6274 12.8998C18.5874 12.9203 18.5452 12.9326 18.5014 12.9326C18.2467 12.9326 18.0405 12.5626 18.0405 12.106H18.0385H18.0382H17.1181H17.1152C17.1155 12.106 17.1158 12.1063 17.1158 12.1066C17.2877 12.3141 17.4567 12.5246 17.6229 12.7366C17.6249 12.7393 17.6269 12.742 17.6292 12.7445C17.791 12.951 17.9505 13.1597 18.1083 13.3696C18.1161 13.3799 18.1239 13.3901 18.1316 13.4004C18.2811 13.6 18.4293 13.8009 18.5758 14.0023C18.59 14.0219 18.6044 14.0412 18.6185 14.0608C18.7737 14.2744 18.9274 14.4885 19.08 14.7029C19.0809 14.7041 19.082 14.7059 19.0832 14.7074C19.3474 13.8889 19.495 13.015 19.5043 12.1057H19.5025H19.2066L19.2037 12.109Z" fill="white"/>
<path d="M10.2491 8.22187C10.2698 8.22006 10.2909 8.21885 10.3116 8.21734C10.455 8.20707 10.5992 8.20043 10.7446 8.20043C11.1804 8.20043 11.6061 8.24966 12.02 8.33814C12.02 8.33814 12.02 8.34056 12.02 8.34478C12.02 8.34841 12.02 8.35414 12.02 8.36079C12.02 8.36894 12.02 8.37891 12.02 8.39038C12.02 8.39914 12.02 8.40941 12.02 8.41998C12.02 8.43477 12.02 8.45169 12.02 8.4689C12.02 8.48037 12.02 8.49215 12.02 8.50453C12.02 8.51993 12.02 8.53624 12.02 8.55255V8.33814C12.3125 8.41031 12.8311 8.5598 13.2161 8.73012C13.3776 8.80169 13.5366 8.87991 13.692 8.96446C13.6992 8.96839 13.7116 8.97563 13.7275 8.98469C13.7301 8.9862 13.7341 8.98862 13.737 8.99013C13.7514 8.99858 13.767 9.00765 13.7855 9.01882C13.7858 9.01882 13.7863 9.01942 13.7866 9.01942C13.8083 9.03241 13.8319 9.0463 13.8567 9.0611C13.8587 9.0623 13.8607 9.06351 13.8628 9.06472C13.962 9.12391 14.0713 9.18944 14.1131 9.21481C14.1186 9.21813 14.1212 9.21964 14.1241 9.22115C14.1261 9.22236 14.131 9.22538 14.1316 9.22568C14.1229 9.20756 14.1131 9.19004 14.1045 9.17162C14.1024 9.1683 14.101 9.16437 14.0993 9.16105C13.7523 8.44353 13.2178 7.82778 12.5622 7.40771C11.9228 6.99822 11.1772 6.77173 10.427 6.77173C8.56386 6.77173 6.98914 8.08658 6.47461 9.89307C6.96188 9.457 7.50383 9.08949 8.08744 8.81015C8.76813 8.48491 9.5029 8.28106 10.2491 8.22187Z" fill="#1A1A1A"/>
<path d="M16.2022 8.81514C16.5296 8.47972 16.9674 8.20801 17.437 8.20801C17.8088 8.20801 18.1659 8.3656 18.4993 8.65422C18.4993 8.65422 18.4993 8.65664 18.4993 8.65754V8.65815V8.65754C18.529 8.6829 18.5581 8.71188 18.5878 8.73996C18.6057 8.75717 18.6239 8.77257 18.6415 8.79038C18.6882 8.83718 18.7343 8.88699 18.7802 8.93892C18.7814 8.94013 18.7819 8.94133 18.7828 8.94224C18.7825 8.94193 18.7822 8.94133 18.7819 8.94133L18.7782 8.92956C18.4214 7.83697 17.8457 7.1272 17.1956 7.1272C16.3335 7.1272 15.6023 8.37738 15.3398 10.1133L15.3427 10.1109C15.5671 9.64416 15.844 9.18225 16.2022 8.81514Z" fill="#1A1A1A"/>
<path d="M8.59292 19.8646C8.66632 19.8942 8.74093 19.9207 8.81535 19.9482C9.64642 20.2531 10.539 20.421 11.4697 20.421C12.5308 20.421 13.5429 20.2036 14.4702 19.812C14.5195 19.7915 14.5674 19.7686 14.6159 19.7471C14.6946 19.7118 14.7728 19.6756 14.8504 19.6381C14.9196 19.6043 14.9888 19.5708 15.0569 19.5352C15.0404 19.5373 15.024 19.5406 15.0076 19.5427C14.7191 19.5765 14.4333 19.5787 14.1535 19.5367C12.5006 19.2879 12.1343 18.4528 12.1867 17.5834C12.0676 17.5115 11.9465 17.4306 11.8233 17.337C10.5519 16.3712 9.79741 15.342 9.79741 15.342C9.79741 15.342 10.7781 16.1348 12.243 16.7284C12.2744 16.741 12.3039 16.7522 12.335 16.7643C12.4034 16.5164 12.4844 16.2806 12.5556 16.072C12.5631 16.0494 12.5712 16.0261 12.5787 16.0041C12.6601 15.7635 12.7532 15.5277 12.8513 15.294C13.2208 14.4139 13.6701 13.5613 13.8916 12.6215L13.9975 12.0968H13.0956H13.0936C13.0936 12.0974 13.0936 12.098 13.0936 12.0986L13.093 12.0989C13.093 12.1016 13.0936 12.104 13.0936 12.1068C13.0936 12.2628 13.0633 12.4114 13.0088 12.5469C12.9814 12.6146 12.9479 12.6786 12.9093 12.739C12.8317 12.8591 12.7325 12.963 12.6177 13.0442C12.5603 13.0849 12.4988 13.12 12.4342 13.1483C12.3053 13.2057 12.1631 13.2374 12.0143 13.2374C11.9762 13.2374 11.939 13.2353 11.9021 13.2311C11.8934 13.2302 11.8851 13.228 11.8767 13.2268C11.8484 13.2232 11.8204 13.219 11.793 13.2129C11.7853 13.2114 11.778 13.209 11.7703 13.2072C11.742 13.2003 11.714 13.193 11.6866 13.184C11.6817 13.1822 11.6768 13.18 11.6719 13.1782C11.6425 13.1677 11.6131 13.1565 11.5848 13.1435C11.5822 13.1423 11.5799 13.1411 11.5773 13.1399C11.5467 13.1257 11.5167 13.1103 11.4879 13.0931C11.4876 13.0931 11.487 13.0925 11.4867 13.0925C11.3936 13.0375 11.3091 12.9687 11.2361 12.8884L8.13858 12.0968H4.75839C4.74379 12.1237 4.72781 12.1496 4.71359 12.1768C4.68772 12.2257 4.66347 12.2755 4.6386 12.325C4.5774 12.4467 4.51821 12.5693 4.46255 12.694C4.44282 12.7377 4.42326 12.7815 4.40431 12.8259C4.33624 12.9844 4.27129 13.1447 4.2119 13.3068C4.20934 13.3141 4.20636 13.3213 4.2038 13.3283C4.13651 13.5146 4.07473 13.7026 4.01926 13.8922C3.94822 14.1359 3.88705 14.3819 3.83594 14.6295C4.3682 16.3295 5.40337 17.7902 6.75687 18.82C6.79613 18.8499 6.83777 18.8764 6.87764 18.9057C7.10659 19.0733 7.34301 19.23 7.58855 19.3725C7.91064 19.559 8.24556 19.7248 8.59292 19.8646Z" fill="white"/>
<path d="M14.1405 17.2516C14.1281 17.3416 14.1197 17.4303 14.1174 17.5161C14.1125 17.6715 14.1229 17.8195 14.1445 17.9592C14.1589 18.0522 14.1783 18.1419 14.2016 18.2273C14.2365 18.3559 14.2804 18.4761 14.3294 18.5872C14.3784 18.698 14.4327 18.8 14.4883 18.8927C14.5068 18.9235 14.5255 18.9531 14.5443 18.9817C14.5725 19.0249 14.6008 19.0654 14.6288 19.1034C14.6657 19.1541 14.7012 19.1985 14.7358 19.2402C14.8832 19.4177 14.9994 19.5143 14.9994 19.5143C14.9994 19.5143 15 19.5173 15.0017 19.5221C15.0032 19.5273 15.0058 19.5345 15.0084 19.5436C15.0248 19.5417 15.0412 19.5384 15.0577 19.536C15.4159 19.4892 15.777 19.3875 16.1329 19.2531C16.3146 19.1849 16.4952 19.1106 16.6734 19.0258C16.7277 18.9996 16.7807 18.9709 16.8347 18.9437C18.6748 18.0115 20.2159 16.3632 20.2159 16.3632C17.9033 17.5529 15.6432 17.5055 14.1405 17.2516Z" fill="#9F2255"/>
<path d="M18.5748 14.0041C18.4283 13.8021 18.2803 13.601 18.1306 13.4014C18.1228 13.3912 18.115 13.3809 18.1073 13.3706C17.9498 13.1602 17.79 12.9516 17.6282 12.7448C17.6262 12.742 17.6241 12.7393 17.6221 12.7369C17.4554 12.5244 17.2867 12.3139 17.1151 12.1059C17.1041 12.0929 17.0934 12.0796 17.0822 12.0663C16.9772 11.9398 16.8705 11.8148 16.7632 11.6905C16.726 11.6473 16.6888 11.6044 16.6513 11.5615C16.5624 11.4598 16.4727 11.3592 16.3819 11.2593C16.3112 11.1817 16.2397 11.1053 16.1682 11.0292C16.1007 10.9574 16.0332 10.8846 15.9648 10.8137C15.8174 10.6618 15.6683 10.5118 15.516 10.3656C15.4485 10.301 15.3802 10.2373 15.3112 10.1748C15.3107 10.1757 15.3107 10.1763 15.3101 10.1769C15.4555 10.6138 15.621 11.0564 15.7038 11.512C15.7254 11.6307 15.7433 11.746 15.7577 11.8589C15.9599 13.4365 15.4774 14.4663 14.711 15.8211C14.6562 15.9183 14.5997 16.017 14.542 16.1178C14.3666 16.4237 14.2544 16.7135 14.1895 16.9859C14.1679 17.0767 14.1515 17.1652 14.1396 17.2519C15.6424 17.5061 17.9025 17.5532 20.2148 16.3633C20.2148 16.3633 19.7614 15.665 19.079 14.7054C18.9264 14.4908 18.7727 14.2764 18.6178 14.0627C18.6036 14.0427 18.5892 14.0234 18.5748 14.0041Z" fill="#E2066F"/>
<path d="M14.999 19.5111C14.999 19.5111 14.883 19.4145 14.7356 19.2371C14.701 19.1951 14.6655 19.1508 14.6283 19.1001C14.6007 19.062 14.5724 19.0216 14.5441 18.9787C14.5254 18.9501 14.5066 18.9202 14.4882 18.8894C14.4325 18.7971 14.3783 18.6951 14.3292 18.584C14.2802 18.4729 14.2364 18.3528 14.2015 18.2246C14.1781 18.1385 14.1588 18.0492 14.1444 17.9563C14.1227 17.8165 14.1126 17.6687 14.117 17.5132C14.1196 17.4275 14.1279 17.3391 14.14 17.2489C14.1521 17.1622 14.1683 17.0735 14.1902 16.983C14.2551 16.7111 14.3673 16.4213 14.5427 16.1153C14.5433 16.1144 14.5435 16.1135 14.5438 16.1129C14.6012 16.013 14.6572 15.9149 14.7114 15.8189C15.4778 14.4645 15.9603 13.4351 15.7584 11.8582C15.744 11.7456 15.7261 11.6303 15.7045 11.5117C15.6929 11.5935 15.6811 11.6641 15.669 11.7233C15.6678 11.729 15.6667 11.7344 15.6655 11.7402C15.6577 11.7761 15.6502 11.8087 15.6422 11.8331C15.3093 12.8647 14.7558 13.6665 14.0019 14.5233C13.8995 14.6395 13.7925 14.7575 13.6832 14.8761C13.4989 15.0762 13.3056 15.2805 13.1008 15.4939C13.0195 15.5787 12.9361 15.665 12.8513 15.7529C12.7738 15.8337 12.6714 15.9436 12.556 16.0703C12.4848 16.2792 12.4037 16.5149 12.3353 16.7624C12.3045 16.7503 12.2751 16.7394 12.2436 16.7264C10.7787 16.1331 9.79785 15.3406 9.79785 15.3406C9.79785 15.3406 10.5523 16.3694 11.8237 17.3352C11.9468 17.4287 12.068 17.5093 12.1871 17.5814C12.1346 18.4506 12.5009 19.2851 14.1539 19.534C14.4334 19.576 14.7195 19.5739 15.0079 19.5398C15.005 19.531 15.0027 19.5235 15.0013 19.5187C14.9998 19.5138 14.999 19.5111 14.999 19.5111Z" fill="#1A1A1A"/>
</svg>
