<svg width="107" height="40" viewBox="0 0 107 40" fill="none" xmlns="http://www.w3.org/2000/svg">
<path d="M28.8559 7.80326C28.8429 7.71701 28.8034 7.63781 28.7436 7.57811C28.6838 7.51842 28.6072 7.48161 28.5256 7.47348C28.3937 7.45097 25.4974 7.23712 25.4974 7.23712L23.289 4.8814C23.0906 4.64504 22.6496 4.71482 22.4828 4.76434C22.4617 4.76434 22.0418 4.90503 21.357 5.14252C20.6902 3.08731 19.5105 1.20093 17.434 1.20093H17.2568C16.6606 0.379302 15.9326 0 15.3153 0C10.4786 0.0225105 8.17203 6.45826 7.44399 9.74704L4.06333 10.8534C3.02613 11.2057 2.98709 11.2316 2.84992 12.2862L0 35.7343L21.3644 40L32.9435 37.337C32.9435 37.3145 28.878 8.02836 28.8569 7.80551L28.8559 7.80326ZM20.1721 5.5387C19.634 5.72779 19.0114 5.91688 18.3615 6.1296V5.70528C18.3826 4.64504 18.2317 3.5893 17.9204 2.58083C19.003 2.75866 19.7311 4.05526 20.1721 5.5387ZM16.6163 2.8532C16.9698 3.9641 17.1439 5.13464 17.0995 6.30856V6.52016L13.3644 7.75824C14.0956 4.84651 15.443 3.40696 16.6142 2.86558L16.6163 2.8532ZM15.1813 1.42041C15.4029 1.42604 15.6171 1.4992 15.7996 1.63201C14.2412 2.40637 12.5941 4.36028 11.8872 8.2726L8.93279 9.2383C9.76634 6.26917 11.711 1.41366 15.1792 1.41366L15.1813 1.42041Z" fill="#95BF47"/>
<path d="M28.5253 7.47243C28.3934 7.44992 25.497 7.23607 25.497 7.23607L23.2886 4.88032C23.2074 4.79027 23.0966 4.74075 22.9794 4.73962L21.3672 39.996L32.9463 37.3329L28.8566 7.8236C28.8291 7.64351 28.6962 7.49944 28.5263 7.4713L28.5253 7.47243Z" fill="#5E8E3E"/>
<path d="M17.4337 14.3051L15.9967 18.8298C15.1283 18.3796 14.1776 18.1398 13.2132 18.1207C10.9584 18.1207 10.8497 19.6289 10.8497 20.0071C10.8497 22.0668 15.9091 22.8592 15.9091 27.7148C15.9091 31.5326 13.6332 33.9841 10.5838 33.9841C6.91621 33.9841 5.03809 31.5563 5.03809 31.5563L6.01302 28.0896C6.01302 28.0896 7.93336 29.8567 9.57092 29.8567C9.76665 29.865 9.96191 29.8307 10.1448 29.756C10.3278 29.6813 10.4946 29.5677 10.6351 29.4221C10.7756 29.2765 10.8869 29.102 10.9623 28.9091C11.0376 28.7162 11.0754 28.509 11.0734 28.3001C11.0734 25.5875 6.91938 25.4705 6.91938 21.0403C6.91938 17.3148 9.43692 13.6849 14.4973 13.6849C16.4862 13.7165 17.4369 14.304 17.4369 14.304L17.4337 14.3051Z" fill="white"/>
<path d="M42.9973 21.0448C42.1711 20.5721 41.7438 20.1636 41.7438 19.6042C41.7438 18.8952 42.3241 18.4372 43.2664 18.4372C43.9658 18.4534 44.6556 18.6143 45.2975 18.911L46.0593 16.4418C46.0593 16.4418 45.3608 15.8656 43.3139 15.8656C40.4587 15.8656 38.475 17.61 38.475 20.0612C38.475 21.4477 39.3951 22.5146 40.6317 23.2754C41.6309 23.8944 41.9823 24.304 41.9823 24.95C41.9823 25.596 41.4906 26.1351 40.5547 26.1351C39.1756 26.1351 37.8746 25.3743 37.8746 25.3743L37.0664 27.8435C37.0664 27.8435 38.2724 28.7055 40.2867 28.7055C43.2199 28.7055 45.3302 27.166 45.3302 24.3839C45.346 22.8781 44.2825 21.8292 43.0089 21.0335L42.9973 21.0448ZM54.703 15.851C53.2596 15.851 52.1179 16.5791 51.2443 17.7034L51.1957 17.6865L52.4492 10.6909H49.1836L46.0108 28.5063H49.2785L50.3727 22.4156C50.8011 20.1152 51.9164 18.6927 52.9578 18.6927C53.6858 18.6927 53.9728 19.2171 53.9728 19.979C53.9728 20.4967 53.9243 21.011 53.8304 21.5186L52.5938 28.4895H55.8615L57.1467 21.2868C57.287 20.5406 57.3683 19.7832 57.3841 19.0247C57.3683 17.0619 56.4007 15.878 54.704 15.878L54.703 15.851ZM64.7584 15.851C60.8249 15.851 58.2229 19.6414 58.2229 23.8415C58.2229 26.5492 59.793 28.7145 62.7283 28.7145C66.587 28.7145 69.2005 25.0254 69.2005 20.724C69.2005 18.22 67.8215 15.851 64.7637 15.851H64.7584ZM63.1546 26.0529C62.0436 26.0529 61.5687 25.04 61.5687 23.7908C61.5687 21.7943 62.5331 18.5295 64.3142 18.5295C65.4717 18.5295 65.8579 19.5952 65.8579 20.6284C65.8536 22.7723 64.8871 26.0529 63.1567 26.0529H63.1546ZM77.5572 15.851C75.3414 15.851 74.0985 17.9082 74.0985 17.9082H74.0499L74.243 16.0558H71.3488L70.684 20.6757L68.4155 33.4334H71.6685L72.5738 28.2723H72.6371C72.6371 28.2723 73.3018 28.7292 74.5574 28.7292C78.396 28.7292 80.902 24.5336 80.902 20.293C80.9178 17.9578 79.9376 15.8611 77.5551 15.8611L77.5572 15.851ZM74.4319 26.1036C73.9388 26.114 73.4589 25.9333 73.0813 25.5949L73.6215 22.3289C74.0077 20.1625 75.065 18.7073 76.2066 18.7073C77.2058 18.7073 77.5065 19.6887 77.5065 20.6205C77.5118 22.8905 76.2615 26.1047 74.4361 26.1047L74.4319 26.1036ZM85.5847 10.8428C85.0845 10.8395 84.6034 11.051 84.252 11.4303C83.9007 11.8096 83.7055 12.3239 83.7245 12.8573C83.7245 13.886 84.3438 14.6017 85.2681 14.6017H85.3167C85.5688 14.6124 85.8203 14.5679 86.0557 14.4709C86.291 14.3738 86.5053 14.2264 86.6851 14.0376C86.865 13.8488 87.0066 13.6227 87.1014 13.3733C87.1961 13.1238 87.2419 12.8563 87.2359 12.5872C87.2359 11.5744 86.6007 10.8428 85.6005 10.8428H85.5847ZM81.0201 28.4726H84.2879L86.5079 16.1267H83.2285L81.0201 28.4726ZM94.835 16.1098H92.5528L92.6646 15.5336C92.8577 14.3485 93.5214 13.2828 94.5934 13.2828C94.9486 13.2829 95.3018 13.3398 95.6411 13.4516L96.2721 10.7247C96.2721 10.7247 95.6918 10.4208 94.4953 10.4208C93.3308 10.3899 92.1944 10.8038 91.2908 11.5879C90.1798 12.6007 89.6554 14.057 89.3916 15.5302L89.2861 16.1064H87.7635L87.2866 18.7287H88.8091L87.0724 28.4748H90.3518L92.0885 18.7287H94.3423L94.7854 16.1064L94.835 16.1098ZM102.704 16.1267L99.7372 24.6203H99.6886L98.8804 16.1267H95.4365L97.4043 27.462C97.4516 27.6557 97.429 27.8613 97.341 28.0382C96.9136 28.8789 96.3048 29.598 95.5641 30.1371C94.9965 30.5535 94.3771 30.8844 93.724 31.1185L94.6293 34.0783C95.8263 33.7366 96.9251 33.0835 97.8274 32.1775C99.3183 30.6874 100.697 28.387 102.111 25.2561L106.108 16.1199H102.703L102.704 16.1267Z" fill="#1A1A1A"/>
</svg>
