<svg width="117" height="24" viewBox="0 0 117 24" fill="none" xmlns="http://www.w3.org/2000/svg">
<path fill-rule="evenodd" clip-rule="evenodd" d="M3.68153 0H35.8567C36.3402 0 36.8192 0.0970691 37.2657 0.286036C37.7125 0.475002 38.1185 0.751679 38.4603 1.10079C38.8022 1.44989 39.0735 1.86405 39.2584 2.32008C39.4434 2.77587 39.5384 3.26466 39.5381 3.75815V16.2837C39.5381 16.7769 39.4429 17.2652 39.2579 17.721C39.0727 18.1768 38.8017 18.5907 38.4598 18.9393C38.118 19.2881 37.712 19.5646 37.2653 19.7533C36.8187 19.9418 36.34 20.0388 35.8567 20.0386H24.3173L25.8965 24L18.9258 20.0386H3.67686C2.70154 20.0374 1.76656 19.6412 1.07721 18.9373C0.387823 18.2332 0.000411009 17.2787 0 16.2837V3.75815C0 2.76157 0.387824 1.8059 1.0782 1.10128C1.76857 0.396411 2.70497 0.000246371 3.68153 0Z" fill="#7D57A4"/>
<path d="M1.99056 3.40261C2.11232 3.24739 2.26601 3.12125 2.44076 3.0333C2.61554 2.9451 2.80709 2.89731 3.00196 2.89312C3.8225 2.83473 4.29345 3.22965 4.41481 4.07741C4.92103 7.51647 5.46303 10.4357 6.04084 12.8353L9.58228 5.96361C9.90287 5.34325 10.3078 5.01534 10.7977 4.97937C11.507 4.92837 11.9507 5.38932 12.1279 6.36223C12.4613 8.28563 12.9733 10.1726 13.6576 11.9969C14.0828 7.81162 14.7929 4.78596 15.7875 2.91997C15.8835 2.7108 16.0337 2.53219 16.2218 2.40334C16.4099 2.27473 16.6289 2.20082 16.855 2.18973C17.2234 2.15869 17.589 2.27547 17.8743 2.51519C18.0198 2.62729 18.1395 2.77092 18.2248 2.93549C18.3099 3.10007 18.3588 3.28189 18.3675 3.46765C18.3936 3.74235 18.3394 4.01853 18.212 4.26169C17.5812 5.45559 17.0626 7.44083 16.656 10.2172C16.2544 12.8972 16.1062 14.9935 16.2109 16.506C16.2476 16.8767 16.1824 17.2507 16.0225 17.5855C15.9449 17.7548 15.8241 17.8994 15.6727 18.0041C15.5211 18.1088 15.3449 18.1702 15.1621 18.181C14.7358 18.2128 14.3111 18.0081 13.8831 17.5698C12.381 15.9979 11.1881 13.6592 10.3042 10.5537C9.26701 12.6707 8.489 14.2541 7.9704 15.3042C7.02112 17.167 6.20785 18.1224 5.53046 18.1699C5.09063 18.2017 4.71616 17.8248 4.40703 17.0396C3.57715 14.8834 2.68713 10.7119 1.73692 4.52506C1.69938 4.33043 1.70254 4.12964 1.74626 3.93624C1.78997 3.74284 1.87321 3.56102 1.99056 3.40261Z" fill="white"/>
<path d="M36.7221 5.99349C36.4552 5.50172 36.0853 5.07599 35.639 4.74683C35.1924 4.41742 34.6804 4.19248 34.139 4.08802C33.8506 4.02593 33.5566 3.99391 33.2617 3.99292C31.7138 3.99292 30.4494 4.81483 29.468 6.45865C28.6322 7.85658 28.1973 9.46542 28.2123 11.1028C28.2123 12.3729 28.4717 13.4616 28.9903 14.3688C29.257 14.861 29.6269 15.287 30.0737 15.6164C30.5205 15.9458 31.033 16.1703 31.5748 16.274C31.8628 16.3378 32.1563 16.3701 32.4508 16.3708C34.014 16.3708 35.2783 15.5489 36.2429 13.9051C37.0785 12.4973 37.5137 10.8799 37.5001 9.23407C37.5001 7.96376 37.2407 6.88365 36.7221 5.99349ZM34.6837 10.5677C34.4628 11.6473 34.053 12.4609 33.4546 13.0081C32.9805 13.4432 32.5458 13.6205 32.1505 13.54C31.7554 13.4594 31.4385 13.1039 31.1998 12.4729C31.0171 11.9945 30.9206 11.4862 30.915 10.9725C30.9136 10.5662 30.9532 10.1607 31.0333 9.76279C31.1875 9.0584 31.4771 8.39245 31.886 7.80336C32.4234 6.99796 32.9846 6.65969 33.5697 6.78879C33.965 6.87034 34.2812 7.22487 34.5189 7.85264C34.7009 8.33085 34.7969 8.83864 34.802 9.35159C34.8041 9.76008 34.7645 10.1676 34.6837 10.5677Z" fill="white"/>
<path d="M26.5952 5.99349C26.3282 5.50172 25.9583 5.07599 25.512 4.74683C25.0655 4.41742 24.5534 4.19248 24.0123 4.08802C23.7237 4.02593 23.4297 3.99391 23.1347 3.99292C21.5859 3.99292 20.322 4.81483 19.3425 6.45865C18.5058 7.85609 18.0703 9.46517 18.0853 11.1028C18.0853 12.3729 18.3448 13.4616 18.8634 14.3688C19.1298 14.8613 19.4995 15.2875 19.9465 15.6169C20.3933 15.9466 20.9061 16.1708 21.4479 16.274C21.7358 16.3378 22.0293 16.3701 22.324 16.3708C23.8883 16.3708 25.1528 15.5489 26.1174 13.9051C26.9561 12.4981 27.3949 10.8808 27.3857 9.23407C27.3857 7.96376 27.1263 6.88365 26.6077 5.99349H26.5952ZM24.5568 10.5677C24.3358 11.6495 23.925 12.4641 23.3245 13.0113C22.8494 13.4464 22.4147 13.6235 22.0206 13.5432C21.6263 13.4626 21.3105 13.1061 21.0729 12.4729C20.8901 11.9945 20.7936 11.4862 20.7881 10.9725C20.7866 10.5662 20.8263 10.1607 20.9065 9.76279C21.0618 9.0589 21.3516 8.39294 21.759 7.80336C22.2943 6.99993 22.8557 6.66289 23.4427 6.79199C23.838 6.87354 24.1538 7.22808 24.3905 7.85584C24.573 8.33381 24.6695 8.84159 24.675 9.35455C24.6767 9.76107 24.6371 10.1664 24.5568 10.5645V10.5677Z" fill="white"/>
<path d="M43.6253 5.8525C42.5497 6.94374 42.0117 8.32696 42.0117 10.0014C42.0117 11.8084 42.5448 13.2678 43.6113 14.3792C44.6777 15.4907 46.0725 16.0443 47.7953 16.0401C48.3662 16.0258 48.9326 15.9356 49.4805 15.7715V13.1088C49.0039 13.2628 48.5083 13.3478 48.0086 13.3614C47.1527 13.3614 46.468 13.0682 45.9547 12.4818C45.4412 11.8951 45.1849 11.0986 45.1859 10.0921C45.1859 9.15728 45.4407 8.38658 45.9499 7.78023C46.1827 7.49048 46.4765 7.25838 46.8096 7.10094C47.1426 6.94374 47.5062 6.86539 47.8732 6.8718C48.4172 6.87574 48.958 6.95606 49.4805 7.11005V4.43454C48.9041 4.28474 48.311 4.21181 47.716 4.21698C46.0677 4.21698 44.7041 4.76223 43.6253 5.8525ZM54.841 4.21698C53.3502 4.21698 52.1859 4.72306 51.3477 5.73497C50.5097 6.74688 50.0946 8.15794 50.103 9.96814C50.103 11.9306 50.5179 13.4316 51.3477 14.4711C52.1777 15.5106 53.3841 16.031 54.967 16.032C56.4971 16.032 57.6755 15.5118 58.5024 14.4711C59.329 13.4306 59.7451 11.971 59.7501 10.0921C59.7501 8.20894 59.3302 6.75969 58.4898 5.74458C57.6496 4.72946 56.4333 4.22018 54.841 4.21698ZM56.1217 12.7912C55.9882 13.0132 55.7991 13.1948 55.574 13.3178C55.349 13.4405 55.0961 13.4998 54.841 13.49C54.5997 13.4971 54.3613 13.4358 54.1524 13.3124C53.9433 13.1889 53.7724 13.0086 53.6585 12.7912C53.3877 12.3275 53.2523 11.3999 53.2523 10.0078C53.2523 7.84108 53.7881 6.75748 54.8596 6.75748C56.0008 6.75748 56.5714 7.85365 56.5714 10.046C56.5682 11.4073 56.4183 12.3224 56.1217 12.7912ZM67.7435 4.53457L67.1645 7.0561C67.0141 7.70188 66.8736 8.36342 66.7429 9.04074L66.4194 10.7874C66.108 9.04394 65.6863 6.96124 65.1542 4.53925H61.3964L59.9851 15.7654H62.8001L63.5655 8.02932L65.4871 15.7654H67.4991L69.3322 8.02785L70.1271 15.7479H73.0697L71.5758 4.53457H67.7435ZM81.206 4.53457L80.6272 7.0561C80.4768 7.70188 80.3361 8.36342 80.2056 9.04074L79.8818 10.7874C79.5707 9.04394 79.1486 6.96124 78.6152 4.53925H74.8591L73.443 15.7543H76.258L77.0219 8.01824L78.9452 15.7543H80.9555L82.7947 8.02785L83.5899 15.7479H86.5322L85.0415 4.53457H81.206ZM90.3413 11.3146H92.9865V8.98062H90.3413V6.9164H93.3818V4.53457H87.3695V15.7604H93.4019V13.3582H90.3413V11.3146ZM101.773 9.54411C102.177 8.89069 102.323 8.1057 102.182 7.34683C102.042 6.58796 101.626 5.91114 101.017 5.45237C100.207 4.84059 99.1021 4.53457 97.7027 4.53457H94.2391V15.7604H97.2126V10.6413H97.261L99.6635 15.7543H102.803L100.429 10.6923C100.984 10.4621 101.454 10.0608 101.773 9.54411ZM97.2126 9.36326V6.69711C97.9169 6.71411 98.4217 6.83484 98.7266 7.0593C99.0317 7.28376 99.184 7.65407 99.184 8.17075C99.184 8.94342 98.5269 9.34084 97.2126 9.36326ZM103.994 5.8525C102.915 6.94374 102.375 8.32696 102.375 10.0014C102.375 11.8084 102.91 13.265 103.978 14.3711C105.047 15.4773 106.441 16.031 108.162 16.032C108.735 16.0209 109.303 15.9334 109.854 15.7715V13.1088C109.377 13.2628 108.881 13.3478 108.382 13.3614C107.525 13.3614 106.84 13.0682 106.326 12.4818C105.813 11.8951 105.555 11.0986 105.553 10.0921C105.553 9.15728 105.808 8.38658 106.318 7.78023C106.551 7.49048 106.845 7.25838 107.178 7.10094C107.511 6.94374 107.875 6.86539 108.242 6.8718C108.787 6.8755 109.329 6.95557 109.854 7.11005V4.43454C109.276 4.28449 108.681 4.21131 108.085 4.21698C106.436 4.21698 105.073 4.76223 103.994 5.8525ZM113.641 13.3582V11.3146H116.286V8.98062H113.641V6.9164H116.681V4.53457H110.667V15.7604H116.7V13.3582H113.641Z" fill="#1A1A1A"/>
</svg>
