<svg width="64" height="64" viewBox="0 0 64 64" fill="none" xmlns="http://www.w3.org/2000/svg">
<g filter="url(#filter0_d_980_24105)">
<rect x="4" y="3" width="56" height="56" rx="28" fill="white" shape-rendering="crispEdges"/>
<rect x="4.5" y="3.5" width="55" height="55" rx="27.5" stroke="#DCE0E0" shape-rendering="crispEdges"/>
<g clip-path="url(#clip0_980_24105)">
<path d="M44 31C44 24.3726 38.6274 19 32 19C25.3726 19 20 24.3726 20 31C20 36.9895 24.3882 41.954 30.125 42.8542V34.4688H27.0781V31H30.125V28.3563C30.125 25.3488 31.9166 23.6875 34.6576 23.6875C35.9701 23.6875 37.3438 23.9219 37.3438 23.9219V26.875H35.8306C34.34 26.875 33.875 27.8001 33.875 28.75V31H37.2031L36.6711 34.4688H33.875V42.8542C39.6118 41.954 44 36.9895 44 31Z" fill="#1877F2"/>
<path d="M36.6711 34.4688L37.2031 31H33.875V28.75C33.875 27.801 34.34 26.875 35.8306 26.875H37.3438V23.9219C37.3438 23.9219 35.9705 23.6875 34.6576 23.6875C31.9166 23.6875 30.125 25.3488 30.125 28.3563V31H27.0781V34.4688H30.125V42.8542C31.3674 43.0486 32.6326 43.0486 33.875 42.8542V34.4688H36.6711Z" fill="white"/>
</g>
</g>
<defs>
<filter id="filter0_d_980_24105" x="0" y="0" width="64" height="64" filterUnits="userSpaceOnUse" color-interpolation-filters="sRGB">
<feFlood flood-opacity="0" result="BackgroundImageFix"/>
<feColorMatrix in="SourceAlpha" type="matrix" values="0 0 0 0 0 0 0 0 0 0 0 0 0 0 0 0 0 0 127 0" result="hardAlpha"/>
<feOffset dy="1"/>
<feGaussianBlur stdDeviation="2"/>
<feComposite in2="hardAlpha" operator="out"/>
<feColorMatrix type="matrix" values="0 0 0 0 0 0 0 0 0 0 0 0 0 0 0 0 0 0 0.05 0"/>
<feBlend mode="normal" in2="BackgroundImageFix" result="effect1_dropShadow_980_24105"/>
<feBlend mode="normal" in="SourceGraphic" in2="effect1_dropShadow_980_24105" result="shape"/>
</filter>
<clipPath id="clip0_980_24105">
<rect width="24" height="24" fill="white" transform="translate(20 19)"/>
</clipPath>
</defs>
</svg>
