<svg width="64" height="64" viewBox="0 0 64 64" fill="none" xmlns="http://www.w3.org/2000/svg">
<g filter="url(#filter0_d_980_24098)">
<rect x="4" y="3" width="56" height="56" rx="28" fill="white" shape-rendering="crispEdges"/>
<rect x="4.5" y="3.5" width="55" height="55" rx="27.5" stroke="#DCE0E0" shape-rendering="crispEdges"/>
<g clip-path="url(#clip0_980_24098)">
<path d="M42.2283 19H21.7717C21.3018 19 20.8512 19.1867 20.5189 19.5189C20.1867 19.8512 20 20.3018 20 20.7717V41.2283C20 41.6982 20.1867 42.1488 20.5189 42.4811C20.8512 42.8133 21.3018 43 21.7717 43H42.2283C42.6982 43 43.1488 42.8133 43.4811 42.4811C43.8133 42.1488 44 41.6982 44 41.2283V20.7717C44 20.3018 43.8133 19.8512 43.4811 19.5189C43.1488 19.1867 42.6982 19 42.2283 19ZM27.1533 39.445H23.545V27.9833H27.1533V39.445ZM25.3467 26.395C24.9374 26.3927 24.5379 26.2692 24.1987 26.0401C23.8596 25.811 23.5958 25.4865 23.4409 25.1077C23.2859 24.7288 23.2466 24.3126 23.328 23.9115C23.4094 23.5103 23.6078 23.1423 23.8982 22.8538C24.1885 22.5653 24.5578 22.3693 24.9595 22.2905C25.3611 22.2117 25.7771 22.2536 26.155 22.411C26.5328 22.5684 26.8555 22.8342 27.0825 23.1748C27.3094 23.5155 27.4303 23.9157 27.43 24.325C27.4339 24.599 27.3825 24.871 27.279 25.1248C27.1755 25.3786 27.022 25.6089 26.8276 25.8021C26.6332 25.9952 26.4018 26.1473 26.1474 26.2492C25.893 26.351 25.6207 26.4006 25.3467 26.395ZM40.4533 39.455H36.8467V33.1933C36.8467 31.3467 36.0617 30.7767 35.0483 30.7767C33.9783 30.7767 32.9283 31.5833 32.9283 33.24V39.455H29.32V27.9917H32.79V29.58H32.8367C33.185 28.875 34.405 27.67 36.2667 27.67C38.28 27.67 40.455 28.865 40.455 32.365L40.4533 39.455Z" fill="#0A66C2"/>
</g>
</g>
<defs>
<filter id="filter0_d_980_24098" x="0" y="0" width="64" height="64" filterUnits="userSpaceOnUse" color-interpolation-filters="sRGB">
<feFlood flood-opacity="0" result="BackgroundImageFix"/>
<feColorMatrix in="SourceAlpha" type="matrix" values="0 0 0 0 0 0 0 0 0 0 0 0 0 0 0 0 0 0 127 0" result="hardAlpha"/>
<feOffset dy="1"/>
<feGaussianBlur stdDeviation="2"/>
<feComposite in2="hardAlpha" operator="out"/>
<feColorMatrix type="matrix" values="0 0 0 0 0 0 0 0 0 0 0 0 0 0 0 0 0 0 0.05 0"/>
<feBlend mode="normal" in2="BackgroundImageFix" result="effect1_dropShadow_980_24098"/>
<feBlend mode="normal" in="SourceGraphic" in2="effect1_dropShadow_980_24098" result="shape"/>
</filter>
<clipPath id="clip0_980_24098">
<rect width="24" height="24" fill="white" transform="translate(20 19)"/>
</clipPath>
</defs>
</svg>
