<svg width="60" height="60" viewBox="0 0 60 60" fill="none" xmlns="http://www.w3.org/2000/svg">
<rect x="0.6" y="0.6" width="58.8" height="58.8" rx="29.4" fill="white"/>
<rect x="0.6" y="0.6" width="58.8" height="58.8" rx="29.4" stroke="#DCE0E0" stroke-width="1.2"/>
<path d="M28.8004 37.1256C26.3796 36.8176 24.167 35.5994 22.6122 33.7185C21.0574 31.8377 20.2771 29.4354 20.4299 27C20.5827 24.5645 21.6572 22.2786 23.4349 20.6069C25.2126 18.9351 27.5601 18.003 30.0004 18C32.4436 17.9982 34.7957 18.928 36.5772 20.6C38.3587 22.272 39.4357 24.5604 39.5887 26.9988C39.7417 29.4373 38.9592 31.8423 37.4006 33.7239C35.8421 35.6055 33.6247 36.822 31.2004 37.1256V39.6144C35.9356 39.7248 39.6004 40.482 39.6004 41.4C39.6004 42.3936 35.302 43.2 30.0004 43.2C24.6988 43.2 20.4004 42.3936 20.4004 41.4C20.4004 40.482 24.0652 39.7248 28.8004 39.6144V37.1256ZM30.0004 30C30.6369 30 31.2474 29.7471 31.6974 29.2971C32.1475 28.847 32.4004 28.2365 32.4004 27.6C32.4004 26.9635 32.1475 26.353 31.6974 25.9029C31.2474 25.4529 30.6369 25.2 30.0004 25.2C29.3639 25.2 28.7534 25.4529 28.3033 25.9029C27.8532 26.353 27.6004 26.9635 27.6004 27.6C27.6004 28.2365 27.8532 28.847 28.3033 29.2971C28.7534 29.7471 29.3639 30 30.0004 30Z" fill="#4071DF"/>
</svg>
