<svg width="64" height="64" viewBox="0 0 64 64" fill="none" xmlns="http://www.w3.org/2000/svg">
<g filter="url(#filter0_d_980_24111)">
<rect x="4" y="3" width="56" height="56" rx="28" fill="white" shape-rendering="crispEdges"/>
<rect x="4.5" y="3.5" width="55" height="55" rx="27.5" stroke="#DCE0E0" shape-rendering="crispEdges"/>
<g clip-path="url(#clip0_980_24111)">
<path d="M43.5221 25.1869C43.3864 24.6763 43.119 24.2103 42.7466 23.8355C42.3743 23.4608 41.91 23.1904 41.4003 23.0514C39.5239 22.5469 32.0239 22.5469 32.0239 22.5469C32.0239 22.5469 24.5239 22.5469 22.6476 23.0514C22.1379 23.1904 21.6736 23.4608 21.3012 23.8355C20.9288 24.2103 20.6614 24.6763 20.5257 25.1869C20.0239 27.0714 20.0239 31.0014 20.0239 31.0014C20.0239 31.0014 20.0239 34.9314 20.5257 36.816C20.6614 37.3266 20.9288 37.7925 21.3012 38.1673C21.6736 38.5421 22.1379 38.8125 22.6476 38.9514C24.5239 39.456 32.0239 39.456 32.0239 39.456C32.0239 39.456 39.5239 39.456 41.4003 38.9514C41.91 38.8125 42.3743 38.5421 42.7466 38.1673C43.119 37.7925 43.3864 37.3266 43.5221 36.816C44.0239 34.9314 44.0239 31.0014 44.0239 31.0014C44.0239 31.0014 44.0239 27.0714 43.5221 25.1869Z" fill="#FF0302"/>
<path d="M29.5693 34.567V27.4297L35.8421 30.9983L29.5693 34.567Z" fill="#FEFEFE"/>
</g>
</g>
<defs>
<filter id="filter0_d_980_24111" x="0" y="0" width="64" height="64" filterUnits="userSpaceOnUse" color-interpolation-filters="sRGB">
<feFlood flood-opacity="0" result="BackgroundImageFix"/>
<feColorMatrix in="SourceAlpha" type="matrix" values="0 0 0 0 0 0 0 0 0 0 0 0 0 0 0 0 0 0 127 0" result="hardAlpha"/>
<feOffset dy="1"/>
<feGaussianBlur stdDeviation="2"/>
<feComposite in2="hardAlpha" operator="out"/>
<feColorMatrix type="matrix" values="0 0 0 0 0 0 0 0 0 0 0 0 0 0 0 0 0 0 0.05 0"/>
<feBlend mode="normal" in2="BackgroundImageFix" result="effect1_dropShadow_980_24111"/>
<feBlend mode="normal" in="SourceGraphic" in2="effect1_dropShadow_980_24111" result="shape"/>
</filter>
<clipPath id="clip0_980_24111">
<rect width="24" height="24" fill="white" transform="translate(20 19)"/>
</clipPath>
</defs>
</svg>
