<svg width="28" height="28" viewBox="0 0 28 28" fill="none" xmlns="http://www.w3.org/2000/svg">
<path d="M11.1826 5.85202C10.7639 6.90109 10.4501 7.98907 10.246 9.10002H17.7556C17.551 7.98902 17.2368 6.90103 16.8176 5.85202C16.3962 4.82582 15.9104 4.04042 15.4064 3.52382C14.9052 3.00862 14.4306 2.80002 14.0008 2.80002C13.571 2.80002 13.0964 3.00862 12.5952 3.52382C12.0912 4.04182 11.6054 4.82582 11.1826 5.85202ZM11.0482 3.19342C10.6086 3.78982 10.2222 4.51082 9.88899 5.31862C9.44099 6.41062 9.07699 7.69022 8.82219 9.10002H3.92639C4.62569 7.66602 5.62256 6.39752 6.85059 5.37903C8.07862 4.36054 9.5096 3.61546 11.0482 3.19342ZM16.9548 3.19342C17.393 3.78982 17.7808 4.51082 18.1126 5.31862C18.5606 6.41062 18.9246 7.69022 19.1794 9.10002H24.0752C23.3759 7.66602 22.379 6.39752 21.151 5.37903C19.923 4.36054 18.4934 3.61546 16.9548 3.19342ZM24.6436 10.5H19.3908C19.528 11.613 19.6008 12.7876 19.6008 14C19.6008 15.2124 19.528 16.387 19.3908 17.5H24.6436C25.0141 16.3704 25.2022 15.1889 25.2008 14C25.2018 12.8112 25.0137 11.6298 24.6436 10.5ZM24.0752 18.9H19.1794C18.9246 20.3098 18.562 21.5908 18.1126 22.68C17.8136 23.4329 17.4249 24.1469 16.9548 24.8066C18.4931 24.3844 19.9238 23.6392 21.1516 22.6208C22.3794 21.6023 23.376 20.3339 24.0752 18.9ZM14.0008 25.2C14.4306 25.2 14.9052 24.9914 15.4064 24.4762C15.9104 23.9582 16.3962 23.1742 16.8176 22.148C17.2368 21.099 17.551 20.011 17.7556 18.9H10.246C10.4812 20.1222 10.8018 21.2198 11.184 22.148C11.6054 23.1742 12.0912 23.9596 12.5952 24.4762C13.0964 24.9914 13.571 25.2 14.0008 25.2ZM11.0468 24.8066C9.50871 24.3842 8.07828 23.639 6.85076 22.6205C5.62323 21.602 4.62679 20.3337 3.92779 18.9H8.82359C9.07839 20.3098 9.44099 21.5908 9.89039 22.68C10.2222 23.4892 10.61 24.2102 11.0496 24.8066H11.0468ZM3.35939 17.5H8.61079C8.4696 16.3387 8.39947 15.1699 8.40079 14C8.40079 12.7876 8.47359 11.613 8.61079 10.5H3.35799C2.98751 11.6297 2.79942 12.8112 2.80079 14C2.80079 15.2222 2.99819 16.3982 3.35939 17.5ZM9.80079 14C9.80079 12.775 9.87919 11.599 10.022 10.5H17.9796C18.1224 11.599 18.2008 12.775 18.2008 14C18.2008 15.225 18.1224 16.3996 17.9796 17.5H10.022C9.87308 16.3393 9.79919 15.1702 9.80079 14Z" fill="url(#paint0_linear_105_9143)"/>
<defs>
<linearGradient id="paint0_linear_105_9143" x1="14.0008" y1="2.80002" x2="14.0008" y2="25.2" gradientUnits="userSpaceOnUse">
<stop stop-color="#5E8EF8"/>
<stop offset="1" stop-color="#4071DF"/>
</linearGradient>
</defs>
</svg>
