<svg width="29" height="29" viewBox="0 0 29 29" fill="none" xmlns="http://www.w3.org/2000/svg">
<path d="M19.3346 24.1583V4.82499H4.83464V22.95C4.83464 23.2705 4.96194 23.5778 5.18855 23.8044C5.41515 24.031 5.7225 24.1583 6.04297 24.1583H19.3346ZM22.9596 26.575H6.04297C5.08156 26.575 4.15953 26.1931 3.47971 25.5133C2.79989 24.8334 2.41797 23.9114 2.41797 22.95V3.61666C2.41797 3.29619 2.54527 2.98884 2.77188 2.76224C2.99849 2.53563 3.30583 2.40833 3.6263 2.40833H20.543C20.8634 2.40833 21.1708 2.53563 21.3974 2.76224C21.624 2.98884 21.7513 3.29619 21.7513 3.61666V12.075H26.5846V22.95C26.5846 23.9114 26.2027 24.8334 25.5229 25.5133C24.8431 26.1931 23.921 26.575 22.9596 26.575ZM21.7513 14.4917V22.95C21.7513 23.2705 21.8786 23.5778 22.1052 23.8044C22.3318 24.031 22.6392 24.1583 22.9596 24.1583C23.2801 24.1583 23.5875 24.031 23.8141 23.8044C24.0407 23.5778 24.168 23.2705 24.168 22.95V14.4917H21.7513ZM7.2513 7.24166H14.5013V14.4917H7.2513V7.24166ZM9.66797 9.65832V12.075H12.0846V9.65832H9.66797ZM7.2513 15.7H16.918V18.1167H7.2513V15.7ZM7.2513 19.325H16.918V21.7417H7.2513V19.325Z" fill="#2E2E2E"/>
</svg>
