<svg width="28" height="28" viewBox="0 0 28 28" fill="none" xmlns="http://www.w3.org/2000/svg">
<path fill-rule="evenodd" clip-rule="evenodd" d="M1.01102 9.35895V7.50248C1.01102 6.7636 1.30434 6.05536 1.82693 5.53369C2.3486 5.01109 3.05685 4.71777 3.79572 4.71777H24.2169C24.9558 4.71777 25.664 5.01109 26.1857 5.53369C26.7083 6.05536 27.0016 6.7636 27.0016 7.50248V9.35895H1.01102ZM27.0016 11.2154V20.4978C27.0016 21.2367 26.7083 21.9449 26.1857 22.4666C25.664 22.9892 24.9558 23.2825 24.2169 23.2825H3.79572C3.05685 23.2825 2.3486 22.9892 1.82693 22.4666C1.30434 21.9449 1.01102 21.2367 1.01102 20.4978V11.2154H27.0016ZM15.8628 17.7131H13.0781C12.5657 17.7131 12.1498 18.1289 12.1498 18.6413C12.1498 19.1537 12.5657 19.5695 13.0781 19.5695H15.8628C16.3752 19.5695 16.791 19.1537 16.791 18.6413C16.791 18.1289 16.3752 17.7131 15.8628 17.7131ZM22.3604 17.7131H19.5757C19.0633 17.7131 18.6475 18.1289 18.6475 18.6413C18.6475 19.1537 19.0633 19.5695 19.5757 19.5695H22.3604C22.8728 19.5695 23.2887 19.1537 23.2887 18.6413C23.2887 18.1289 22.8728 17.7131 22.3604 17.7131Z" fill="url(#paint0_linear_2_2659)"/>
<defs>
<linearGradient id="paint0_linear_2_2659" x1="14.0063" y1="4.71777" x2="14.0063" y2="23.2825" gradientUnits="userSpaceOnUse">
<stop stop-color="#5E8EF8"/>
<stop offset="1" stop-color="#4071DF"/>
</linearGradient>
</defs>
</svg>
