<svg width="28" height="28" viewBox="0 0 28 28" fill="none" xmlns="http://www.w3.org/2000/svg">
<path d="M14.6426 1.22609C14.436 0.924595 13.9234 0.924595 13.7166 1.22609C12.8786 2.45005 6.33187 5.32139 3.94021 5.32139C3.63323 5.32139 3.16467 5.56462 3.16467 5.86372V16.1643C3.16467 21.4645 13.2456 26.8255 13.8045 26.9797C13.8534 26.9929 14.0136 27.0001 14.065 27.0001C14.1164 27.0001 14.4405 26.9929 14.4895 26.9797C14.9531 26.852 25.1833 21.0926 25.1833 16.7068V5.86423C25.1833 5.56512 24.7147 5.3219 24.4078 5.3219C21.7275 5.3219 15.4562 2.41312 14.6426 1.22609Z" fill="url(#paint0_linear_100_12466)"/>
<path d="M12.431 15.8951L19.666 9.01231L20.7797 10.071L12.431 18.0125L7.42188 13.2477L8.53483 12.1891L12.431 15.8951Z" fill="white"/>
<defs>
<linearGradient id="paint0_linear_100_12466" x1="14.174" y1="0.999969" x2="14.174" y2="27.0001" gradientUnits="userSpaceOnUse">
<stop stop-color="#5E8EF8"/>
<stop offset="1" stop-color="#4071DF"/>
</linearGradient>
</defs>
</svg>
