<svg width="38" height="32" viewBox="0 0 38 32" fill="none" xmlns="http://www.w3.org/2000/svg">
<path fill-rule="evenodd" clip-rule="evenodd" d="M2.14553 31.9917C1.23749 31.9917 0.501273 31.2554 0.501273 30.3474L0.497162 15.9524H0.501273C0.571153 8.19066 6.09873 1.71271 13.4247 0.173277C13.5102 0.155466 13.5842 0.137901 13.6559 0.120899C13.8622 0.0719813 14.0489 0.0277278 14.4302 -0.00430182C14.5449 -0.0137563 14.8926 -0.00347976 14.8926 -0.00347976C15.8007 -0.00347976 16.5369 0.732735 16.5369 1.64078V4.14662C16.5369 4.99958 15.8862 5.69797 15.0554 5.77978C15.0562 5.78101 15.0595 5.78923 15.0595 5.78923C15.0595 5.78923 14.4454 5.90597 14.1457 5.98366C9.69718 7.13957 6.39428 11.1602 6.32687 15.952H14.8926C15.8007 15.952 16.5369 16.6882 16.5369 17.5962V30.3474C16.5369 31.2554 15.8007 31.9917 14.8926 31.9917H2.14553ZM35.8461 31.9925H23.0986C22.1905 31.9925 21.4543 31.2563 21.4543 30.3483L21.4502 15.9528H21.4543C21.5246 8.19195 27.0518 1.714 34.3777 0.174974C34.4625 0.157204 34.5361 0.139702 34.6073 0.122773C34.8144 0.073519 35.0011 0.0291041 35.3832 -0.00301693C35.4983 -0.0124714 35.8461 -0.00178363 35.8461 -0.00178363C36.7541 -0.00178363 37.4903 0.734432 37.4903 1.64247V4.14832C37.4903 5.00086 36.84 5.69926 36.0084 5.78106C36.0092 5.78229 36.0125 5.7901 36.0125 5.7901C36.0125 5.7901 35.3988 5.90685 35.0992 5.98454C30.6502 7.14086 27.3473 11.1615 27.2799 15.9528H35.8461C36.7541 15.9528 37.4903 16.689 37.4903 17.5971V30.3483C37.4903 31.2563 36.7541 31.9925 35.8461 31.9925Z" fill="#4071DF"/>
</svg>
