<svg width="114" height="16" viewBox="0 0 114 16" fill="none" xmlns="http://www.w3.org/2000/svg">
<path d="M0.0128126 14.9918V0.99182H9.27281V3.03182H2.35281V6.71182H7.97281V8.75182H2.35281V14.9918H0.0128126ZM11.2409 14.9918V0.831821H13.4209V14.9918H11.2409ZM20.6666 15.1518C17.6266 15.1518 15.4666 12.9718 15.4666 9.95182C15.4666 6.93182 17.6266 4.75182 20.6666 4.75182C23.6866 4.75182 25.8666 6.93182 25.8666 9.95182C25.8666 12.9718 23.6866 15.1518 20.6666 15.1518ZM20.6666 13.2518C22.4466 13.2518 23.6666 11.8918 23.6666 9.95182C23.6666 8.01182 22.4466 6.65182 20.6666 6.65182C18.8666 6.65182 17.6666 8.01182 17.6666 9.95182C17.6666 11.8918 18.8666 13.2518 20.6666 13.2518ZM29.8695 14.9918L26.7495 4.91182H28.9695L30.8695 11.9518L33.0495 4.91182H35.0695L37.2295 11.9518L39.1295 4.91182H41.3495L38.2495 14.9918H36.2295L34.0495 7.97182L31.8695 14.9918H29.8695ZM52.1239 9.57182C52.1239 9.87182 52.1039 10.2918 52.0839 10.4718H44.3839C44.5839 12.2118 45.7039 13.2918 47.3039 13.2918C48.6239 13.2918 49.5639 12.6718 49.8239 11.5718L51.8839 12.0918C51.3439 14.0318 49.6239 15.1518 47.2639 15.1518C44.0639 15.1518 42.2439 12.6718 42.2439 9.95182C42.2439 7.23182 43.9639 4.75182 47.1639 4.75182C50.4039 4.75182 52.1239 7.11182 52.1239 9.57182ZM44.4839 8.81182H49.8039C49.6639 7.45182 48.7639 6.47182 47.1639 6.47182C45.7839 6.47182 44.8039 7.31182 44.4839 8.81182ZM60.4111 7.03182C60.0511 6.87182 59.5711 6.79182 59.1111 6.79182C57.6311 6.79182 56.3311 8.11182 56.3311 11.2318V14.9918H54.1511V4.91182H56.3311V6.83182C56.8711 5.63182 58.1911 4.75182 59.4111 4.75182C59.7911 4.75182 60.2311 4.81182 60.5311 4.93182L60.4111 7.03182ZM71.5055 15.1518C68.7855 15.1518 66.5455 13.3518 66.1455 10.7918L68.2855 10.1318C68.5255 11.9318 69.9055 13.1118 71.5855 13.1118C73.2455 13.1118 74.3255 12.3318 74.3255 11.1318C74.3255 7.81182 66.6655 9.63182 66.6655 4.59182C66.6655 2.37182 68.7255 0.831821 71.4655 0.831821C74.0855 0.831821 76.1455 2.23182 76.5455 4.33182L74.4455 5.19182C74.1655 3.77182 73.0655 2.87182 71.4655 2.87182C69.9455 2.87182 69.0255 3.51182 69.0255 4.59182C69.0255 7.41182 76.7055 5.45182 76.7055 11.0918C76.7055 13.5318 74.6455 15.1518 71.5055 15.1518ZM87.8028 4.91182V14.9918H85.6228V13.3118C84.9628 14.3918 83.7828 15.1518 82.3228 15.1518C80.1628 15.1518 78.6628 13.7318 78.6628 11.5518V4.91182H80.8428V11.0518C80.8428 12.3118 81.6428 13.1918 82.9228 13.1918C84.6028 13.1918 85.6228 11.7518 85.6228 9.33182V4.91182H87.8028ZM96.1016 14.9118C95.6216 15.0718 95.0616 15.1518 94.5016 15.1518C92.6016 15.1518 91.1816 14.1118 91.1816 11.8118V6.77182H89.4216V4.91182H91.1816V1.91182H93.3616V4.91182H95.9616V6.77182H93.3616V11.6918C93.3616 12.6918 93.9216 13.2118 94.7416 13.2118C95.1216 13.2118 95.5816 13.1518 95.9616 12.9718L96.1016 14.9118ZM104.2 7.03182C103.84 6.87182 103.36 6.79182 102.9 6.79182C101.42 6.79182 100.12 8.11182 100.12 11.2318V14.9918H97.9402V4.91182H100.12V6.83182C100.66 5.63182 101.98 4.75182 103.2 4.75182C103.58 4.75182 104.02 4.81182 104.32 4.93182L104.2 7.03182ZM109.397 4.75182C111.957 4.75182 113.717 6.19182 113.717 8.71182V14.9918H111.577V13.4518C110.997 14.4718 109.757 15.1518 108.417 15.1518C106.417 15.1518 105.037 13.8918 105.037 12.1718C105.037 10.1918 106.577 9.13182 109.677 8.81182L111.577 8.61182V8.47182C111.577 7.23182 110.717 6.47182 109.397 6.47182C108.177 6.47182 107.317 7.19182 107.177 8.39182L105.217 8.03182C105.537 6.05182 107.257 4.75182 109.397 4.75182ZM108.857 13.4718C110.557 13.4718 111.557 12.2918 111.577 10.6518V10.2318L109.657 10.4518C108.017 10.6318 107.177 11.2318 107.177 12.1118C107.177 12.9118 107.837 13.4718 108.857 13.4718Z" fill="#31323B"/>
</svg>
