<svg width="28" height="28" viewBox="0 0 28 28" fill="none" xmlns="http://www.w3.org/2000/svg">
<path d="M23.2047 2H5.79528C4.7979 2 4 2.80842 4 3.81895V24.1811C4 25.1916 4.7979 26 5.79528 26H23.2047C24.2021 26 25 25.1916 25 24.1811V3.81895C25 2.80842 24.2021 2 23.2047 2ZM10.6601 9.45263C10.685 9.4021 10.71 9.35158 10.7848 9.32632C10.8097 9.30105 10.8596 9.30105 10.8845 9.30105C10.9094 9.30105 10.9344 9.30105 10.9843 9.32632L11.7572 9.62947C11.857 9.68 11.9068 9.80632 11.8819 9.90737C11.7822 10.2358 11.7572 10.5642 11.7822 10.9179C11.8819 12.1053 12.7795 13.1411 13.9265 13.3684C14.7493 13.5453 15.5722 13.3432 16.2205 12.8126C16.8688 12.2821 17.2178 11.4989 17.2178 10.6653C17.2178 9.2 16.0958 8.01263 14.6496 7.91158H14.5748V8.87158C14.5748 9.04842 14.4751 9.2 14.3255 9.27579C14.1759 9.35158 14.0013 9.35158 13.8517 9.27579L11.3084 7.70947C11.1588 7.63368 11.084 7.48211 11.084 7.30526C11.084 7.12842 11.1588 6.97684 11.3084 6.90105L13.8517 5.33474C14.0013 5.23368 14.1759 5.23368 14.3255 5.33474C14.4751 5.41053 14.5748 5.56211 14.5748 5.73895V6.62316H14.6496C16.8189 6.69895 18.5144 8.49263 18.5144 10.6905C18.5144 11.8526 18.0157 12.9895 17.143 13.7474C16.2703 14.5305 15.0984 14.8842 13.9514 14.7074C11.9816 14.4295 10.4606 12.6611 10.4856 10.6147C10.4856 10.2358 10.5354 9.83158 10.6601 9.45263ZM19.437 22.4632H9.56299C9.18898 22.4632 8.88976 22.16 8.88976 21.7811C8.88976 21.4021 9.18898 21.0989 9.56299 21.0989H19.437C19.811 21.0989 20.1102 21.4021 20.1102 21.7811C20.1102 22.16 19.811 22.4632 19.437 22.4632ZM19.437 18.5474H9.56299C9.18898 18.5474 8.88976 18.2442 8.88976 17.8653C8.88976 17.4863 9.18898 17.1832 9.56299 17.1832H19.437C19.811 17.1832 20.1102 17.4863 20.1102 17.8653C20.1102 18.2442 19.811 18.5474 19.437 18.5474Z" fill="url(#paint0_linear_2_2573)"/>
<defs>
<linearGradient id="paint0_linear_2_2573" x1="14.5" y1="2" x2="14.5" y2="26" gradientUnits="userSpaceOnUse">
<stop stop-color="#5E8EF8"/>
<stop offset="1" stop-color="#4071DF"/>
</linearGradient>
</defs>
</svg>
