<svg width="338" height="335" viewBox="0 0 338 335" fill="none" xmlns="http://www.w3.org/2000/svg">
<path d="M3 13.3469V312.653" stroke="#A6AEF5" stroke-opacity="0.5" stroke-width="0.735611"/>
<path d="M36.4648 13.3469V312.653" stroke="#A6AEF5" stroke-opacity="0.5" stroke-width="0.735611"/>
<path d="M69.9316 13.3469V312.653" stroke="#A6AEF5" stroke-opacity="0.5" stroke-width="0.735611"/>
<path d="M103.398 13.3469V312.653" stroke="#A6AEF5" stroke-opacity="0.5" stroke-width="0.735611"/>
<path d="M136.865 13.3469V312.653" stroke="#A6AEF5" stroke-opacity="0.5" stroke-width="0.735611"/>
<path d="M170.332 13.3469V312.653" stroke="#A6AEF5" stroke-opacity="0.5" stroke-width="0.735611"/>
<path d="M203.799 13.3469V312.653" stroke="#A6AEF5" stroke-opacity="0.5" stroke-width="0.735611"/>
<path d="M237.264 13.3469V312.653" stroke="#A6AEF5" stroke-opacity="0.5" stroke-width="0.735611"/>
<path d="M270.73 13.3469V312.653" stroke="#A6AEF5" stroke-opacity="0.5" stroke-width="0.735611"/>
<path d="M304.195 13.3469V312.653" stroke="#A6AEF5" stroke-opacity="0.5" stroke-width="0.735611"/>
<path d="M337.592 13.3469V312.653" stroke="#A6AEF5" stroke-opacity="0.5" stroke-width="0.735611"/>
<path d="M3 313H337.903" stroke="#A6AEF5" stroke-opacity="0.5" stroke-width="0.735611"/>
<path d="M3 279.759H337.903" stroke="#A6AEF5" stroke-opacity="0.5" stroke-width="0.735611"/>
<path d="M3 246.518L337.903 246.518" stroke="#A6AEF5" stroke-opacity="0.5" stroke-width="0.735611"/>
<path d="M3 213.277L337.903 213.277" stroke="#A6AEF5" stroke-opacity="0.5" stroke-width="0.735611"/>
<path d="M3 180.036L337.903 180.036" stroke="#A6AEF5" stroke-opacity="0.5" stroke-width="0.735611"/>
<path d="M3 145.964L337.903 145.964" stroke="#A6AEF5" stroke-opacity="0.5" stroke-width="0.735611"/>
<path d="M3 112.723L337.903 112.723" stroke="#A6AEF5" stroke-opacity="0.5" stroke-width="0.735611"/>
<path d="M3 79.4821L337.903 79.482" stroke="#A6AEF5" stroke-opacity="0.5" stroke-width="0.735611"/>
<path d="M3 46.241L337.903 46.241" stroke="#A6AEF5" stroke-opacity="0.5" stroke-width="0.735611"/>
<path d="M3 13H337.903" stroke="#A6AEF5" stroke-opacity="0.5" stroke-width="0.735611"/>
<g opacity="0.8" filter="url(#filter0_d_96_31150)">
<path d="M172.629 54.7971C170.937 52.253 166.739 52.253 165.045 54.7971C158.182 65.1249 104.564 89.3534 84.9766 89.3534C82.4625 89.3534 78.625 91.4059 78.625 93.9296V180.846C78.625 225.57 161.188 270.806 165.765 272.108C166.166 272.219 167.477 272.28 167.898 272.28C168.319 272.28 170.974 272.219 171.375 272.108C175.172 271.03 258.957 222.432 258.957 185.424V93.934C258.957 91.4101 255.12 89.3577 252.606 89.3577C230.654 89.3577 179.291 64.8176 172.628 54.8014L172.629 54.7971Z" fill="url(#paint0_linear_96_31150)" shape-rendering="crispEdges"/>
<path d="M172.629 54.7971C170.937 52.253 166.739 52.253 165.045 54.7971C158.182 65.1249 104.564 89.3534 84.9766 89.3534C82.4625 89.3534 78.625 91.4059 78.625 93.9296V180.846C78.625 225.57 161.188 270.806 165.765 272.108C166.166 272.219 167.477 272.28 167.898 272.28C168.319 272.28 170.974 272.219 171.375 272.108C175.172 271.03 258.957 222.432 258.957 185.424V93.934C258.957 91.4101 255.12 89.3577 252.606 89.3577C230.654 89.3577 179.291 64.8176 172.628 54.8014L172.629 54.7971Z" stroke="#DCE0E0" stroke-miterlimit="10" stroke-linecap="round" stroke-linejoin="round" shape-rendering="crispEdges"/>
</g>
<g filter="url(#filter1_d_96_31150)">
<circle cx="168.017" cy="162.226" r="35.3759" fill="#4071DF"/>
</g>
<path fill-rule="evenodd" clip-rule="evenodd" d="M179.482 154.038C179.482 147.706 174.349 142.573 168.017 142.573C161.686 142.573 156.553 147.706 156.553 154.038V163.865H159.829V154.038C159.829 149.515 163.495 145.849 168.017 145.849C172.54 145.849 176.206 149.515 176.206 154.038V163.865H179.482L179.482 154.038Z" fill="#F4F4F4"/>
<path fill-rule="evenodd" clip-rule="evenodd" d="M151.639 162.236V178.595C151.639 180.409 153.11 181.88 154.899 181.88H181.134C182.934 181.88 184.394 180.41 184.394 178.595V162.236C184.394 160.422 182.923 158.951 181.134 158.951H154.899C153.099 158.951 151.639 160.42 151.639 162.236Z" fill="#F4F4F4"/>
<defs>
<filter id="filter0_d_96_31150" x="65.6596" y="42.4167" width="206.263" height="245.321" filterUnits="userSpaceOnUse" color-interpolation-filters="sRGB">
<feFlood flood-opacity="0" result="BackgroundImageFix"/>
<feColorMatrix in="SourceAlpha" type="matrix" values="0 0 0 0 0 0 0 0 0 0 0 0 0 0 0 0 0 0 127 0" result="hardAlpha"/>
<feOffset dy="2.49307"/>
<feGaussianBlur stdDeviation="6.23269"/>
<feComposite in2="hardAlpha" operator="out"/>
<feColorMatrix type="matrix" values="0 0 0 0 0 0 0 0 0 0 0 0 0 0 0 0 0 0 0.04 0"/>
<feBlend mode="normal" in2="BackgroundImageFix" result="effect1_dropShadow_96_31150"/>
<feBlend mode="normal" in="SourceGraphic" in2="effect1_dropShadow_96_31150" result="shape"/>
</filter>
<filter id="filter1_d_96_31150" x="0.885207" y="0.261802" width="334.263" height="334.263" filterUnits="userSpaceOnUse" color-interpolation-filters="sRGB">
<feFlood flood-opacity="0" result="BackgroundImageFix"/>
<feColorMatrix in="SourceAlpha" type="matrix" values="0 0 0 0 0 0 0 0 0 0 0 0 0 0 0 0 0 0 127 0" result="hardAlpha"/>
<feMorphology radius="15.5006" operator="dilate" in="SourceAlpha" result="effect1_dropShadow_96_31150"/>
<feOffset dy="5.16688"/>
<feGaussianBlur stdDeviation="58.1274"/>
<feComposite in2="hardAlpha" operator="out"/>
<feColorMatrix type="matrix" values="0 0 0 0 0 0 0 0 0 0 0 0 0 0 0 0 0 0 0.05 0"/>
<feBlend mode="normal" in2="BackgroundImageFix" result="effect1_dropShadow_96_31150"/>
<feBlend mode="normal" in="SourceGraphic" in2="effect1_dropShadow_96_31150" result="shape"/>
</filter>
<linearGradient id="paint0_linear_96_31150" x1="168.791" y1="52.889" x2="168.791" y2="272.28" gradientUnits="userSpaceOnUse">
<stop stop-color="white"/>
<stop offset="1" stop-color="white" stop-opacity="0.62"/>
</linearGradient>
</defs>
</svg>
