<svg width="337" height="300" viewBox="0 0 337 300" fill="none" xmlns="http://www.w3.org/2000/svg">
<circle cx="174.248" cy="150" r="61.4898" fill="url(#paint0_linear_96_31127)" stroke="#DCE0E0"/>
<g filter="url(#filter0_d_96_31127)">
<path d="M197.285 126.511C197.265 126.49 197.238 126.483 197.215 126.464C191.079 120.456 182.835 117.092 174.248 117.092C165.661 117.092 157.416 120.456 151.281 126.464C151.259 126.483 151.231 126.49 151.21 126.511C144.536 133.323 141.338 141.407 141.338 150.005C141.338 158.586 144.523 166.674 151.212 173.499C151.233 173.52 151.26 173.527 151.282 173.546C157.418 179.553 165.663 182.917 174.249 182.917C182.836 182.917 191.082 179.553 197.216 173.546C197.238 173.527 197.265 173.52 197.287 173.499C203.961 166.687 207.159 158.604 207.159 150.005C207.159 141.424 203.975 133.336 197.285 126.511V126.511ZM166.635 120.171C163.715 122.684 161.247 126.616 159.48 131.523L159.48 131.522C157.332 130.343 155.332 128.911 153.524 127.256C157.248 123.856 161.75 121.422 166.636 120.171L166.635 120.171ZM152.01 128.746C154.061 130.638 156.344 132.262 158.804 133.577C157.336 138.569 156.566 143.74 156.517 148.943H143.488C143.744 141.391 146.779 134.199 152.01 128.747L152.01 128.746ZM143.488 151.066H156.518H156.518C156.566 156.269 157.336 161.44 158.805 166.432C156.344 167.748 154.061 169.371 152.01 171.263C146.778 165.81 143.744 158.618 143.488 151.067L143.488 151.066ZM153.525 172.753C155.333 171.098 157.332 169.666 159.481 168.486C161.25 173.393 163.715 177.325 166.636 179.839L166.636 179.838C161.751 178.587 157.248 176.153 153.524 172.753L153.525 172.753ZM173.187 180.713C168.31 180.064 164.041 174.989 161.408 167.511C165.111 165.813 169.116 164.872 173.187 164.741V180.713ZM173.187 162.618C168.894 162.747 164.669 163.719 160.752 165.48C159.407 160.791 158.696 155.943 158.64 151.065H173.186L173.187 162.618ZM173.187 148.943H158.641C158.697 144.065 159.407 139.218 160.753 134.529C164.67 136.289 168.895 137.261 173.187 137.39L173.187 148.943ZM173.187 135.268C169.116 135.137 165.111 134.196 161.408 132.499C164.041 125.021 168.31 119.946 173.187 119.297V135.268ZM194.972 127.257C193.164 128.911 191.164 130.343 189.016 131.523C187.246 126.616 184.781 122.684 181.86 120.171L181.861 120.171C186.746 121.423 191.248 123.856 194.972 127.257L194.972 127.257ZM175.31 119.296C180.187 119.946 184.455 125.02 187.088 132.499C183.385 134.196 179.381 135.137 175.31 135.268V119.296ZM175.31 137.391C179.602 137.262 183.827 136.29 187.744 134.53C189.09 139.218 189.8 144.066 189.856 148.944H175.31L175.31 137.391ZM175.31 151.066H189.856C189.8 155.944 189.089 160.792 187.744 165.481C183.827 163.72 179.602 162.748 175.309 162.619L175.31 151.066ZM175.31 180.713V164.741C179.381 164.872 183.385 165.813 187.088 167.51C184.455 174.988 180.187 180.064 175.31 180.713ZM181.861 179.838C184.781 177.324 187.249 173.393 189.016 168.486V168.486C191.165 169.666 193.164 171.098 194.972 172.752C191.249 176.153 186.746 178.586 181.861 179.838L181.861 179.838ZM196.487 171.263C194.437 169.37 192.154 167.747 189.693 166.431C191.162 161.44 191.932 156.269 191.98 151.065H205.01H205.01C204.754 158.618 201.719 165.81 196.488 171.262L196.487 171.263ZM191.98 148.943C191.932 143.74 191.162 138.569 189.693 133.577C192.154 132.261 194.437 130.638 196.487 128.746C201.719 134.198 204.754 141.39 205.01 148.942L191.98 148.943Z" fill="#4071DF"/>
<path d="M197.285 126.511C197.265 126.49 197.238 126.483 197.215 126.464C191.079 120.456 182.835 117.092 174.248 117.092C165.661 117.092 157.416 120.456 151.281 126.464C151.259 126.483 151.231 126.49 151.21 126.511C144.536 133.323 141.338 141.407 141.338 150.005C141.338 158.586 144.523 166.674 151.212 173.499C151.233 173.52 151.26 173.527 151.282 173.546C157.418 179.553 165.663 182.917 174.249 182.917C182.836 182.917 191.082 179.553 197.216 173.546C197.238 173.527 197.265 173.52 197.287 173.499C203.961 166.687 207.159 158.604 207.159 150.005C207.159 141.424 203.975 133.336 197.285 126.511V126.511ZM166.635 120.171C163.715 122.684 161.247 126.616 159.48 131.523L159.48 131.522C157.332 130.343 155.332 128.911 153.524 127.256C157.248 123.856 161.75 121.422 166.636 120.171L166.635 120.171ZM152.01 128.746C154.061 130.638 156.344 132.262 158.804 133.577C157.336 138.569 156.566 143.74 156.517 148.943H143.488C143.744 141.391 146.779 134.199 152.01 128.747L152.01 128.746ZM143.488 151.066H156.518H156.518C156.566 156.269 157.336 161.44 158.805 166.432C156.344 167.748 154.061 169.371 152.01 171.263C146.778 165.81 143.744 158.618 143.488 151.067L143.488 151.066ZM153.525 172.753C155.333 171.098 157.332 169.666 159.481 168.486C161.25 173.393 163.715 177.325 166.636 179.839L166.636 179.838C161.751 178.587 157.248 176.153 153.524 172.753L153.525 172.753ZM173.187 180.713C168.31 180.064 164.041 174.989 161.408 167.511C165.111 165.813 169.116 164.872 173.187 164.741V180.713ZM173.187 162.618C168.894 162.747 164.669 163.719 160.752 165.48C159.407 160.791 158.696 155.943 158.64 151.065H173.186L173.187 162.618ZM173.187 148.943H158.641C158.697 144.065 159.407 139.218 160.753 134.529C164.67 136.289 168.895 137.261 173.187 137.39L173.187 148.943ZM173.187 135.268C169.116 135.137 165.111 134.196 161.408 132.499C164.041 125.021 168.31 119.946 173.187 119.297V135.268ZM194.972 127.257C193.164 128.911 191.164 130.343 189.016 131.523C187.246 126.616 184.781 122.684 181.86 120.171L181.861 120.171C186.746 121.423 191.248 123.856 194.972 127.257L194.972 127.257ZM175.31 119.296C180.187 119.946 184.455 125.02 187.088 132.499C183.385 134.196 179.381 135.137 175.31 135.268V119.296ZM175.31 137.391C179.602 137.262 183.827 136.29 187.744 134.53C189.09 139.218 189.8 144.066 189.856 148.944H175.31L175.31 137.391ZM175.31 151.066H189.856C189.8 155.944 189.089 160.792 187.744 165.481C183.827 163.72 179.602 162.748 175.309 162.619L175.31 151.066ZM175.31 180.713V164.741C179.381 164.872 183.385 165.813 187.088 167.51C184.455 174.988 180.187 180.064 175.31 180.713ZM181.861 179.838C184.781 177.324 187.249 173.393 189.016 168.486V168.486C191.165 169.666 193.164 171.098 194.972 172.752C191.249 176.153 186.746 178.586 181.861 179.838L181.861 179.838ZM196.487 171.263C194.437 169.37 192.154 167.747 189.693 166.431C191.162 161.44 191.932 156.269 191.98 151.065H205.01H205.01C204.754 158.618 201.719 165.81 196.488 171.262L196.487 171.263ZM191.98 148.943C191.932 143.74 191.162 138.569 189.693 133.577C192.154 132.261 194.437 130.638 196.487 128.746C201.719 134.198 204.754 141.39 205.01 148.942L191.98 148.943Z" stroke="#4071DF" stroke-width="1.82832" stroke-miterlimit="10" stroke-linecap="round" stroke-linejoin="round"/>
</g>
<circle cx="171.95" cy="150" r="100.52" stroke="#DCE0E0" stroke-dasharray="9.18 9.18"/>
<circle cx="171.949" cy="150" r="149.5" stroke="#DCE0E0" stroke-dasharray="9.18 9.18"/>
<g filter="url(#filter1_d_96_31127)">
<rect x="12" y="193.622" width="58.8692" height="57.0987" rx="28.5494" fill="#4071DF"/>
</g>
<circle cx="83.5563" cy="28.6989" r="19.5153" fill="#4071DF"/>
<path d="M84.8685 27.0622L84.8685 27.0622L84.8724 27.0637C86.4102 27.6305 87.4649 28.2765 88.1358 29.0649C88.802 29.8475 89.1047 30.7879 89.1047 31.9776C89.1047 34.2312 87.6161 36.1683 84.8612 36.7657L84.7104 36.7984V36.9527V39.056C84.7104 39.3673 84.4716 39.6045 84.1931 39.6045H82.7761C82.4982 39.6045 82.2589 39.3672 82.2589 39.056V37.2058V37.0235L82.0768 37.0147C81.0828 36.9666 80.1076 36.7846 79.2762 36.5246L79.2761 36.5245C78.4854 36.2778 78.0105 35.4168 78.2177 34.5665L78.2235 34.5449L78.2235 34.545L78.2245 34.541C78.3086 34.1994 78.5255 33.9138 78.8187 33.7512L78.8191 33.751C79.1116 33.588 79.455 33.5622 79.7676 33.6781C80.6547 34.0071 81.6807 34.239 82.7731 34.239C83.5383 34.239 84.205 34.0856 84.6868 33.7726C85.1769 33.4542 85.4684 32.9738 85.4684 32.3587C85.4684 31.7778 85.2291 31.3044 84.7419 30.8951C84.2647 30.4941 83.5464 30.1511 82.5761 29.8087L82.5759 29.8087C81.1895 29.3213 80.046 28.7468 79.2502 27.9817C78.4616 27.2236 78.0077 26.2721 78.0077 25.0043C78.0077 22.7581 79.4916 20.9805 82.11 20.3859L82.2589 20.3521V20.1993V18.3418C82.2589 18.0312 82.4984 17.7933 82.7762 17.7933H84.1932C84.4716 17.7933 84.7105 18.031 84.7105 18.3418V19.973V20.1539L84.8911 20.164C85.6844 20.2085 86.3559 20.3134 86.9258 20.4579C87.3062 20.5544 87.6359 20.8062 87.8399 21.1609C88.0439 21.5158 88.1037 21.9425 88.0049 22.3449L87.9908 22.4012L87.9907 22.4019C87.9135 22.716 87.7156 22.9805 87.4478 23.1358L87.4476 23.1359C87.1805 23.2912 86.8647 23.3236 86.5747 23.2278C85.9157 23.0086 85.0833 22.8245 84.0514 22.8245C83.178 22.8245 82.5678 23.0208 82.1727 23.345C81.7729 23.6729 81.6169 24.1125 81.6169 24.542C81.6169 25.0747 81.8956 25.4933 82.4302 25.8786C82.9573 26.2584 83.7606 26.6267 84.8685 27.0622Z" fill="white" stroke="#4071DF" stroke-width="0.382653"/>
<circle cx="313.531" cy="92.6021" r="22.9592" fill="#4071DF"/>
<path d="M307.397 95.1439H310.941C311.254 95.1439 311.554 95.0272 311.776 94.8193C311.997 94.6115 312.122 94.3295 312.122 94.0356C312.122 93.7416 311.997 93.4597 311.776 93.2519C311.554 93.044 311.254 92.9272 310.941 92.9272H307.397C307.083 92.9272 306.783 93.044 306.561 93.2519C306.34 93.4597 306.215 93.7416 306.215 94.0356C306.215 94.3295 306.34 94.6115 306.561 94.8193C306.783 95.0272 307.083 95.1439 307.397 95.1439ZM321.572 84.0603H305.034C304.094 84.0603 303.193 84.4106 302.528 85.0342C301.864 85.6578 301.49 86.5035 301.49 87.3854V97.3607C301.49 98.2425 301.864 99.0883 302.528 99.7119C303.193 100.335 304.094 100.686 305.034 100.686H321.572C322.512 100.686 323.413 100.335 324.078 99.7119C324.743 99.0883 325.116 98.2425 325.116 97.3607V87.3854C325.116 86.5035 324.743 85.6578 324.078 85.0342C323.413 84.4106 322.512 84.0603 321.572 84.0603ZM322.753 97.3607C322.753 97.6546 322.629 97.9366 322.407 98.1444C322.186 98.3523 321.885 98.469 321.572 98.469H305.034C304.721 98.469 304.42 98.3523 304.199 98.1444C303.977 97.9366 303.853 97.6546 303.853 97.3607V90.7105H322.753V97.3607ZM322.753 88.4938H303.853V87.3854C303.853 87.0914 303.977 86.8095 304.199 86.6017C304.42 86.3938 304.721 86.277 305.034 86.277H321.572C321.885 86.277 322.186 86.3938 322.407 86.6017C322.629 86.8095 322.753 87.0914 322.753 87.3854V88.4938Z" fill="white"/>
<path d="M48.6337 228.397C49.2213 228.905 49.286 229.792 48.7788 230.379C46.827 232.64 44.2132 233.885 41.4208 233.885C37.1271 233.885 33.1242 230.858 31.6765 225.92H28.3018C27.5253 225.92 26.8965 225.291 26.8965 224.515C26.8965 223.738 27.5253 223.11 28.3018 223.11H31.1693C31.1262 222.485 31.1262 221.86 31.1693 221.236L28.3018 221.235C27.5253 221.235 26.8965 220.606 26.8965 219.83C26.8965 219.053 27.5253 218.424 28.3018 218.424H31.6758C33.1256 213.478 37.135 210.459 41.4201 210.459C44.2125 210.459 46.8269 211.704 48.7793 213.965C49.2865 214.552 49.2218 215.439 48.6342 215.947C48.0479 216.454 47.1596 216.39 46.6516 215.802C45.2405 214.17 43.3842 213.271 41.4206 213.271C38.3086 213.271 35.7869 215.482 34.6262 218.424H39.546C40.3225 218.424 40.9513 219.053 40.9513 219.83C40.9519 220.606 40.3231 221.235 39.546 221.235H33.958C33.9018 221.858 33.9018 222.486 33.958 223.109L39.546 223.11C40.3225 223.11 40.9513 223.738 40.9513 224.515C40.9519 225.291 40.3231 225.92 39.546 225.92H34.6255C35.7902 228.872 38.3171 231.074 41.4199 231.074C43.384 231.074 45.2404 230.175 46.6503 228.542C47.1588 227.955 48.0452 227.892 48.6335 228.397L48.6337 228.397Z" fill="white"/>
<g filter="url(#filter2_d_96_31127)">
<circle cx="287.894" cy="242.985" r="34.0561" fill="#4071DF"/>
</g>
<path d="M288.086 259.439C279.119 259.439 271.824 252.144 271.824 243.178C271.824 234.211 279.119 226.916 288.086 226.916C297.052 226.916 304.347 234.211 304.347 243.178C304.347 252.145 297.052 259.439 288.086 259.439ZM288.086 228.782C280.148 228.782 273.691 235.24 273.691 243.178C273.691 251.115 280.148 257.572 288.086 257.572C296.023 257.572 302.48 251.115 302.48 243.178C302.48 235.24 296.023 228.782 288.086 228.782Z" fill="white"/>
<path d="M288.086 246.075C284.739 246.075 282.016 243.351 282.016 240.004C282.016 236.657 284.739 233.934 288.086 233.934C291.433 233.934 294.157 236.657 294.157 240.004C294.157 243.351 291.433 246.075 288.086 246.075ZM288.086 235.799C285.768 235.799 283.882 237.686 283.882 240.004C283.882 242.322 285.768 244.208 288.086 244.208C290.404 244.208 292.29 242.322 292.29 240.004C292.29 237.686 290.404 235.799 288.086 235.799Z" fill="white"/>
<path d="M278.743 256.255C278.682 256.255 278.621 256.249 278.559 256.237C278.054 256.136 277.726 255.645 277.827 255.14C278.8 250.266 283.114 246.729 288.086 246.729C290.879 246.729 293.506 247.818 295.483 249.795C296.957 251.27 297.948 253.119 298.346 255.142C298.446 255.648 298.116 256.139 297.611 256.238C297.103 256.338 296.615 256.008 296.515 255.503C296.189 253.844 295.376 252.326 294.164 251.114C292.539 249.49 290.381 248.595 288.086 248.595C284.001 248.595 280.455 251.501 279.656 255.505C279.568 255.949 279.178 256.255 278.743 256.255Z" fill="white"/>
<defs>
<filter id="filter0_d_96_31127" x="134.939" y="111.79" width="78.6203" height="78.6237" filterUnits="userSpaceOnUse" color-interpolation-filters="sRGB">
<feFlood flood-opacity="0" result="BackgroundImageFix"/>
<feColorMatrix in="SourceAlpha" type="matrix" values="0 0 0 0 0 0 0 0 0 0 0 0 0 0 0 0 0 0 127 0" result="hardAlpha"/>
<feOffset dy="1.09699"/>
<feGaussianBlur stdDeviation="2.74248"/>
<feComposite in2="hardAlpha" operator="out"/>
<feColorMatrix type="matrix" values="0 0 0 0 0 0 0 0 0 0 0 0 0 0 0 0 0 0 0.04 0"/>
<feBlend mode="normal" in2="BackgroundImageFix" result="effect1_dropShadow_96_31127"/>
<feBlend mode="normal" in="SourceGraphic" in2="effect1_dropShadow_96_31127" result="shape"/>
</filter>
<filter id="filter1_d_96_31127" x="0.520409" y="184.439" width="81.8283" height="80.0579" filterUnits="userSpaceOnUse" color-interpolation-filters="sRGB">
<feFlood flood-opacity="0" result="BackgroundImageFix"/>
<feColorMatrix in="SourceAlpha" type="matrix" values="0 0 0 0 0 0 0 0 0 0 0 0 0 0 0 0 0 0 127 0" result="hardAlpha"/>
<feOffset dy="2.29592"/>
<feGaussianBlur stdDeviation="5.7398"/>
<feComposite in2="hardAlpha" operator="out"/>
<feColorMatrix type="matrix" values="0 0 0 0 0 0 0 0 0 0 0 0 0 0 0 0 0 0 0.04 0"/>
<feBlend mode="normal" in2="BackgroundImageFix" result="effect1_dropShadow_96_31127"/>
<feBlend mode="normal" in="SourceGraphic" in2="effect1_dropShadow_96_31127" result="shape"/>
</filter>
<filter id="filter2_d_96_31127" x="239.921" y="197.795" width="95.9454" height="95.9463" filterUnits="userSpaceOnUse" color-interpolation-filters="sRGB">
<feFlood flood-opacity="0" result="BackgroundImageFix"/>
<feColorMatrix in="SourceAlpha" type="matrix" values="0 0 0 0 0 0 0 0 0 0 0 0 0 0 0 0 0 0 127 0" result="hardAlpha"/>
<feOffset dy="2.78341"/>
<feGaussianBlur stdDeviation="6.95852"/>
<feComposite in2="hardAlpha" operator="out"/>
<feColorMatrix type="matrix" values="0 0 0 0 0 0 0 0 0 0 0 0 0 0 0 0 0 0 0.04 0"/>
<feBlend mode="normal" in2="BackgroundImageFix" result="effect1_dropShadow_96_31127"/>
<feBlend mode="normal" in="SourceGraphic" in2="effect1_dropShadow_96_31127" result="shape"/>
</filter>
<linearGradient id="paint0_linear_96_31127" x1="174.248" y1="88.0101" x2="174.248" y2="211.99" gradientUnits="userSpaceOnUse">
<stop stop-color="white" stop-opacity="0.84"/>
<stop offset="1" stop-color="white" stop-opacity="0.53"/>
<stop offset="1" stop-color="white" stop-opacity="0.73"/>
</linearGradient>
</defs>
</svg>
