<svg width="374" height="302" viewBox="0 0 374 302" fill="none" xmlns="http://www.w3.org/2000/svg">
<path d="M44.4888 225.535H10.4807C6.2696 225.535 2.70703 229.098 2.70703 233.309V293.226C2.70703 297.437 6.26983 301 10.4807 301H44.4888C48.6999 301 52.2625 297.437 52.2625 293.226V233.309C52.5855 229.097 49.0227 225.535 44.4888 225.535Z" fill="white" stroke="#F0F3F5" stroke-width="2" stroke-miterlimit="10" stroke-linecap="round" stroke-linejoin="round"/>
<path d="M138.282 170.149H104.274C100.063 170.149 96.5 173.712 96.5 177.923V292.9C96.5 297.111 100.063 300.673 104.274 300.673H138.282C142.493 300.673 146.055 297.111 146.055 292.9V177.923C146.055 173.711 142.818 170.149 138.282 170.149Z" fill="white" stroke="#F0F3F5" stroke-width="2" stroke-miterlimit="10" stroke-linecap="round" stroke-linejoin="round"/>
<path d="M231.584 115.092H197.576C193.365 115.092 189.803 118.654 189.803 122.865V293.226C189.803 297.437 193.366 300.999 197.576 300.999H231.584C235.796 300.999 239.358 297.437 239.358 293.226V122.865C239.356 118.654 235.793 115.092 231.584 115.092Z" fill="white" stroke="#F0F3F5" stroke-width="2" stroke-miterlimit="10" stroke-linecap="round" stroke-linejoin="round"/>
<path d="M370.927 54.5223L328.174 3.67209C324.934 0.109303 319.429 0.109303 316.191 3.67209L273.438 54.5223C269.226 59.7049 272.789 67.4763 279.266 67.4763H297.403V293.22C297.403 297.431 300.966 300.994 305.177 300.994H339.185C343.396 300.994 346.958 297.431 346.958 293.22V67.4763H365.095C371.574 67.4763 375.46 59.7026 370.926 54.5223H370.927Z" fill="white" stroke="#F0F3F5" stroke-width="2" stroke-miterlimit="10" stroke-linecap="round" stroke-linejoin="round"/>
<circle cx="213.864" cy="70.9324" r="27.0713" fill="#4071DF"/>
<path d="M221.827 75.4805C221.827 72.0805 220.089 70.0024 215.782 68.4149C212.707 67.2061 211.44 66.4128 211.44 65.166C211.44 64.1079 212.2 63.0489 214.551 63.0489C215.95 63.0489 217.076 63.2983 217.968 63.5948C218.443 63.7518 218.96 63.6985 219.396 63.4449C219.831 63.1924 220.15 62.7646 220.274 62.2606L220.293 62.1815C220.447 61.5577 220.354 60.8956 220.037 60.3435C219.719 59.7913 219.203 59.3953 218.604 59.2433C217.795 59.0382 216.846 58.8904 215.731 58.8279V56.5651C215.731 55.9986 215.292 55.5388 214.748 55.5388H212.782C212.24 55.5388 211.8 55.9986 211.8 56.5651V59.1419C208.067 59.9895 205.902 62.5479 205.902 65.8072C205.902 69.4728 208.544 71.361 212.417 72.7222C215.095 73.6673 216.252 74.5744 216.252 76.0092C216.252 77.5219 214.84 78.3521 212.778 78.3521C211.3 78.3521 209.908 78.0381 208.701 77.5905C208.195 77.4029 207.638 77.4447 207.164 77.7087C206.69 77.9713 206.344 78.43 206.211 78.9729L206.202 79.0058C205.881 80.3142 206.609 81.6545 207.848 82.0413C209.023 82.4087 210.398 82.6651 211.799 82.733V85.2995C211.799 85.8671 212.24 86.3258 212.782 86.3258H214.748C215.292 86.3258 215.731 85.8671 215.731 85.2995V82.3819C219.662 81.5293 221.827 78.744 221.827 75.4807L221.827 75.4805Z" fill="white"/>
<circle cx="237.112" cy="52.6704" r="11.9655" fill="#F8FAFB"/>
<path d="M237.326 45.6663L243.578 56.4948H231.075L237.326 45.6663Z" fill="#00B733"/>
<circle cx="120.919" cy="125.977" r="27.0713" fill="#4071DF"/>
<path d="M136.099 127.835H126.863C126.455 127.835 126.063 127.673 125.774 127.384C125.486 127.096 125.323 126.704 125.323 126.296C125.323 125.888 125.486 125.496 125.774 125.207C126.063 124.919 126.455 124.756 126.863 124.756H136.099C136.507 124.756 136.899 124.919 137.187 125.207C137.476 125.496 137.638 125.888 137.638 126.296C137.638 126.704 137.476 127.096 137.187 127.384C136.899 127.673 136.507 127.835 136.099 127.835ZM131.481 132.453C131.073 132.453 130.681 132.291 130.392 132.002C130.104 131.714 129.942 131.322 129.942 130.914V121.678C129.942 121.269 130.104 120.878 130.392 120.589C130.681 120.301 131.073 120.138 131.481 120.138C131.889 120.138 132.281 120.301 132.569 120.589C132.858 120.878 133.02 121.269 133.02 121.678V130.914C133.02 131.322 132.858 131.714 132.569 132.002C132.281 132.291 131.889 132.453 131.481 132.453ZM117.627 115.52C120.173 115.52 122.245 117.592 122.245 120.138C122.245 122.684 120.173 124.756 117.627 124.756C115.081 124.756 113.009 122.684 113.009 120.138C113.009 117.592 115.081 115.52 117.627 115.52ZM117.627 112.442C113.372 112.442 109.93 115.887 109.93 120.138C109.93 124.39 113.372 127.835 117.627 127.835C121.881 127.835 125.323 124.39 125.323 120.138C125.323 115.887 121.881 112.442 117.627 112.442ZM117.627 132.453C120.738 132.453 122.708 133.64 123.45 134.678C122.399 135.078 120.419 135.532 117.627 135.532C114.573 135.532 112.692 135.062 111.749 134.698C112.456 133.597 114.485 132.453 117.627 132.453ZM117.627 129.374C111.854 129.374 108.391 132.453 108.391 135.532C108.391 137.071 111.854 138.611 117.627 138.611C123.042 138.611 126.863 137.071 126.863 135.532C126.863 132.453 123.239 129.374 117.627 129.374Z" fill="white"/>
<circle cx="143.712" cy="107.715" r="11.9655" fill="#F8FAFB"/>
<path d="M143.926 100.711L150.178 111.539H137.674L143.926 100.711Z" fill="#00B733"/>
<circle cx="27.0733" cy="181.022" r="27.0713" fill="#4071DF"/>
<path d="M33.6013 169.292C30.9897 169.292 28.6718 170.322 27.1014 172.094C25.531 170.322 23.2131 169.292 20.6014 169.292C18.3267 169.294 16.146 170.199 14.5375 171.808C12.9291 173.416 12.0242 175.597 12.0215 177.871C12.0215 187.276 25.7767 194.79 26.3617 195.105C26.589 195.228 26.8432 195.292 27.1014 195.292C27.3596 195.292 27.6137 195.228 27.8411 195.105C28.4261 194.79 42.1813 187.276 42.1813 177.871C42.1785 175.597 41.2737 173.416 39.6652 171.808C38.0568 170.199 35.876 169.294 33.6013 169.292ZM32.8876 187.798C31.0771 189.335 29.1417 190.717 27.1014 191.932C25.0611 190.717 23.1257 189.335 21.3151 187.798C18.498 185.381 15.1415 181.696 15.1415 177.871C15.1415 176.423 15.7167 175.035 16.7406 174.011C17.7646 172.987 19.1534 172.411 20.6014 172.411C22.9154 172.411 24.8524 173.633 25.6571 175.602C25.7742 175.889 25.9741 176.134 26.2314 176.307C26.4886 176.48 26.7915 176.572 27.1014 176.572C27.4113 176.572 27.7142 176.48 27.9714 176.307C28.2286 176.134 28.4286 175.889 28.5457 175.602C29.3504 173.633 31.2874 172.411 33.6013 172.411C35.0494 172.411 36.4382 172.987 37.4621 174.011C38.4861 175.035 39.0613 176.423 39.0613 177.871C39.0613 181.696 35.7047 185.381 32.8876 187.798Z" fill="white"/>
<circle cx="48.9636" cy="162.76" r="11.9655" fill="#F8FAFB"/>
<path d="M49.178 155.756L55.4299 166.584H42.9261L49.178 155.756Z" fill="#00B733"/>
</svg>
