<svg width="225" height="40" viewBox="0 0 225 40" fill="none" xmlns="http://www.w3.org/2000/svg">
<path d="M44.5273 32.8413V5.27686H55.9406C58.7939 5.27686 61.055 6.08441 62.7778 7.64568C64.4467 9.20695 65.3081 11.3066 65.3081 13.9446C65.3081 16.5826 64.4467 18.6822 62.7778 20.2435C61.1089 21.8048 58.7939 22.6123 55.9406 22.6123H50.7185V32.8413H44.5273ZM50.7185 17.2286H55.2946C56.479 17.2286 57.3942 16.9595 58.094 16.3673C58.7401 15.775 59.1169 14.9675 59.1169 13.9446C59.1169 12.9217 58.7939 12.1141 58.094 11.5219C57.448 10.9297 56.479 10.6605 55.2946 10.6605H50.7185V17.2286Z" fill="#4071DF"/>
<path d="M74.1394 12.7085C76.9389 12.7085 79.1462 13.4084 80.7613 14.862C82.3763 16.3156 83.1839 18.3614 83.1839 21.1071V32.8435H77.5849V30.3132C76.9927 31.1745 76.1852 31.8744 75.1623 32.359C74.1394 32.8973 73.0627 33.1127 71.986 33.1127C70.0479 33.1127 68.4866 32.5743 67.2484 31.4437C66.0102 30.3132 65.418 28.9134 65.418 27.2445C65.418 23.422 68.2713 21.2147 73.9779 20.5687L77.5849 20.1918V20.0841C77.5849 19.1151 77.2619 18.3614 76.6697 17.7692C76.0775 17.2308 75.2161 16.9078 74.1394 16.9078C73.1704 16.9078 72.4167 17.177 71.7706 17.7153C71.1246 18.2537 70.7477 19.0074 70.6939 19.9765L65.6333 19.0074C65.9563 17.0693 66.9254 15.5619 68.4866 14.3774C70.1017 13.3007 71.986 12.7085 74.1394 12.7085ZM73.4395 29.0211C74.6778 29.0211 75.7007 28.5904 76.4544 27.729C77.2081 26.8676 77.5849 25.8447 77.6388 24.6064V24.5526V24.4449V24.2834L73.9241 24.7141C72.955 24.8218 72.2552 25.091 71.7168 25.5217C71.1784 25.9524 70.9631 26.4369 70.9631 27.0829C70.9631 27.6751 71.1784 28.1058 71.6091 28.4827C72.0398 28.8596 72.6858 29.0211 73.4395 29.0211Z" fill="#4071DF"/>
<path d="M98.7438 13.0278H104.666L94.2215 40.0001H88.2996L91.4221 31.8707L83.7773 13.0278H90.0223L94.2754 24.5489L98.7438 13.0278Z" fill="#4071DF"/>
<path d="M118.821 33.1651C115.052 33.1651 111.822 31.9269 109.184 29.4504C106.546 26.9739 105.254 23.5283 105.254 19.0599C105.254 14.5914 106.6 11.1458 109.345 8.66934C112.091 6.19284 115.375 4.95459 119.305 4.95459C122.751 4.95459 125.604 5.76214 127.811 7.43109C130.072 9.10003 131.418 11.415 131.957 14.3222L125.819 15.5605C125.496 13.9454 124.743 12.6533 123.558 11.6842C122.374 10.7151 120.92 10.2306 119.197 10.2306C116.883 10.2306 114.998 11.0382 113.545 12.5994C112.145 14.1607 111.445 16.3142 111.445 19.0599C111.445 21.8055 112.145 23.9052 113.545 25.4664C114.944 27.0277 116.829 27.7814 119.09 27.7814C120.92 27.7814 122.428 27.2969 123.612 26.3817C124.796 25.4664 125.496 24.282 125.712 22.7746H118.228V17.8216H131.472V32.8421H125.819V29.9887C125.227 30.9578 124.312 31.7115 123.02 32.3037C121.728 32.8959 120.328 33.1651 118.821 33.1651Z" fill="#4071DF"/>
<path d="M134.973 32.8434V5.00977H140.733V32.8434H134.973Z" fill="#4071DF"/>
<path d="M153.761 33.1665C150.692 33.1665 148.162 32.1974 146.224 30.2593C144.285 28.3212 143.316 25.8985 143.316 22.9375C143.316 19.9765 144.285 17.5 146.224 15.6157C148.162 13.6776 150.692 12.7085 153.761 12.7085C156.775 12.7085 159.252 13.6776 161.244 15.6157C163.236 17.5538 164.205 19.9765 164.205 22.9375C164.205 25.8985 163.236 28.375 161.244 30.2593C159.252 32.1974 156.775 33.1665 153.761 33.1665ZM153.761 28.2674C155.16 28.2674 156.291 27.7828 157.152 26.8138C158.014 25.8447 158.444 24.5526 158.444 22.9913C158.444 21.4301 158.014 20.138 157.152 19.1689C156.291 18.1999 155.16 17.7153 153.761 17.7153C152.361 17.7153 151.176 18.1999 150.315 19.1689C149.454 20.138 149.023 21.4301 149.023 22.9913C149.023 24.5526 149.454 25.8447 150.315 26.8138C151.176 27.7828 152.307 28.2674 153.761 28.2674Z" fill="#4071DF"/>
<path d="M175.89 33.1665C172.875 33.1665 170.452 32.1974 168.568 30.3132C166.684 28.4289 165.715 25.9524 165.715 22.9375C165.715 19.9226 166.684 17.4461 168.568 15.5619C170.452 13.6776 172.875 12.7085 175.89 12.7085C178.528 12.7085 180.735 13.3545 182.458 14.5928C184.181 15.831 185.204 17.5538 185.527 19.7611L179.928 20.8379C179.766 19.815 179.335 19.0612 178.689 18.469C177.989 17.8768 177.128 17.6077 176.105 17.6077C174.759 17.6077 173.683 18.0922 172.875 19.0612C172.068 20.0303 171.691 21.3224 171.691 22.9375C171.691 24.5526 172.121 25.8447 172.929 26.8138C173.736 27.7828 174.813 28.2674 176.159 28.2674C178.205 28.2674 179.443 27.2445 179.874 25.2525L185.527 26.3831C185.15 28.4827 184.127 30.1516 182.404 31.3361C180.681 32.5743 178.474 33.1665 175.89 33.1665Z" fill="#4071DF"/>
<path d="M195.753 12.7085C198.552 12.7085 200.759 13.4084 202.375 14.862C203.99 16.3156 204.797 18.3614 204.797 21.1071V32.8435H199.198V30.3132C198.606 31.1745 197.798 31.8744 196.776 32.359C195.753 32.8973 194.676 33.1127 193.599 33.1127C191.661 33.1127 190.1 32.5743 188.862 31.4437C187.623 30.3132 187.031 28.9134 187.031 27.2445C187.031 23.422 189.885 21.2147 195.591 20.5687L199.198 20.1918V20.0841C199.198 19.1151 198.875 18.3614 198.283 17.7692C197.691 17.2308 196.829 16.9078 195.753 16.9078C194.784 16.9078 194.03 17.177 193.384 17.7153C192.738 18.2537 192.361 19.0074 192.307 19.9765L187.247 19.0074C187.57 17.0693 188.539 15.5619 190.1 14.3774C191.715 13.3007 193.599 12.7085 195.753 12.7085ZM195.053 29.0211C196.291 29.0211 197.314 28.5904 198.068 27.729C198.821 26.8676 199.198 25.8447 199.252 24.6064V24.5526V24.4449V24.2834L195.537 24.7141C194.568 24.8218 193.868 25.091 193.33 25.5217C192.792 25.9524 192.576 26.4369 192.576 27.0829C192.576 27.6751 192.792 28.1058 193.222 28.4827C193.653 28.8596 194.245 29.0211 195.053 29.0211Z" fill="#4071DF"/>
<path d="M208.293 32.8434V5.00977H214.053V32.8434H208.293Z" fill="#4071DF"/>
<path d="M218.469 8.66984V5.27811H217.23V4.73975H220.299V5.33195H219.115V8.72368H218.469V8.66984Z" fill="#4071DF"/>
<path d="M220.68 8.66984V4.73975H221.433L222.672 7.75461L223.91 4.73975H224.664V8.66984H224.018V5.97799L222.887 8.66984H222.349L221.218 5.97799V8.66984H220.68Z" fill="#4071DF"/>
<path d="M32.5709 7.53716L20.9422 0.807553C19.058 -0.269184 16.6892 -0.269184 14.7511 0.807553L3.06866 7.53716C1.18439 8.66774 0 10.7135 0 12.9209V26.3801C0 28.5874 1.18439 30.6332 3.06866 31.7638L14.7511 38.4934C15.7201 39.0317 16.7969 39.3009 17.8198 39.3009C18.8965 39.3009 19.9732 39.0317 20.8884 38.4934L32.5709 31.7638C34.4551 30.687 35.6395 28.5874 35.6395 26.3801V12.9209C35.6933 10.7135 34.5089 8.66774 32.5709 7.53716ZM29.7175 26.7031L18.0351 33.4327C17.9274 33.4865 17.7659 33.4865 17.6582 33.4327L5.97581 26.7031C5.86814 26.6493 5.76046 26.4877 5.76046 26.3801V12.9209C5.76046 12.7593 5.8143 12.6517 5.97581 12.5978L17.6582 5.86822C17.7121 5.81438 17.7659 5.81438 17.8736 5.81438C17.9274 5.81438 18.0351 5.81438 18.0889 5.86822L29.7714 12.5978C29.879 12.6517 29.9867 12.8132 29.9867 12.9209V16.7433H17.7121C16.097 16.7433 14.8049 18.0354 14.8049 19.6505C14.8049 21.2656 16.097 22.5577 17.7121 22.5577H29.879V26.3801C29.879 26.5416 29.8252 26.6493 29.7175 26.7031Z" fill="#4071DF"/>
</svg>
