<svg width="100" height="100" viewBox="0 0 100 100" fill="none" xmlns="http://www.w3.org/2000/svg">
<rect x="0.5" y="0.5" width="99" height="99" rx="49.5" fill="white"/>
<rect x="0.5" y="0.5" width="99" height="99" rx="49.5" stroke="#F0F3F5"/>
<path d="M67.6998 43.8499C67.6998 53.7081 59.7081 61.6998 49.8499 61.6998C39.9917 61.6998 32 53.7081 32 43.8499C32 33.9917 39.9917 26 49.8499 26C59.7081 26 67.6998 33.9917 67.6998 43.8499Z" fill="#4071DF"/>
<path d="M37.337 61.5508L36.3711 65.0737C34.7688 70.9179 33.9677 73.84 35.0368 75.4397C35.4114 76.0003 35.9141 76.4503 36.4973 76.7472C38.1615 77.5946 40.731 76.2557 45.87 73.5779C47.5799 72.687 48.4349 72.2415 49.3434 72.1447C49.6801 72.1088 50.0194 72.1088 50.3561 72.1447C51.2646 72.2415 52.1195 72.6869 53.8294 73.5779C58.9685 76.2557 61.538 77.5946 63.2022 76.7472C63.7854 76.4503 64.288 76.0003 64.6627 75.4397C65.7317 73.84 64.9306 70.9179 63.3283 65.0737L62.3625 61.5508C58.8278 64.054 54.5106 65.5252 49.8497 65.5252C45.1889 65.5252 40.8716 64.054 37.337 61.5508Z" fill="#4071DF"/>
</svg>
