<svg width="100" height="100" viewBox="0 0 100 100" fill="none" xmlns="http://www.w3.org/2000/svg">
<rect x="0.5" y="0.5" width="99" height="99" rx="49.5" fill="white"/>
<rect x="0.5" y="0.5" width="99" height="99" rx="49.5" stroke="#F0F3F5"/>
<path fill-rule="evenodd" clip-rule="evenodd" d="M49.5 72C61.6503 72 71.5 62.1503 71.5 50C71.5 37.8497 61.6503 28 49.5 28C37.3497 28 27.5 37.8497 27.5 50C27.5 62.1503 37.3497 72 49.5 72ZM43.988 55.3596C43.3068 54.7619 42.2698 54.8255 41.6668 55.5038C41.0614 56.1849 41.1227 57.2278 41.8038 57.8332L42.4089 58.2983C42.7661 58.5467 43.2785 58.8672 43.9333 59.1847C45.243 59.8197 47.1389 60.45 49.5 60.45C51.8612 60.45 53.757 59.8197 55.0667 59.1847C55.7216 58.8672 56.234 58.5467 56.5911 58.2983C56.7699 58.1739 56.9107 58.0669 57.0119 57.9866L57.1962 57.8332C57.8773 57.2278 57.9387 56.1849 57.3332 55.5038C56.7302 54.8254 55.6932 54.7619 55.012 55.3596L54.7066 55.5893C54.4708 55.7533 54.1066 55.9828 53.627 56.2153C52.668 56.6803 51.2639 57.15 49.5 57.15C47.7362 57.15 46.332 56.6803 45.373 56.2153C44.8934 55.9828 44.5293 55.7533 44.2934 55.5893L43.988 55.3596ZM60.5 45.6C60.5 46.815 59.515 47.8 58.3 47.8C57.085 47.8 56.1 46.815 56.1 45.6C56.1 44.385 57.085 43.4 58.3 43.4C59.515 43.4 60.5 44.385 60.5 45.6ZM40.7 47.8C41.915 47.8 42.9 46.815 42.9 45.6C42.9 44.385 41.915 43.4 40.7 43.4C39.485 43.4 38.5 44.385 38.5 45.6C38.5 46.815 39.485 47.8 40.7 47.8Z" fill="#4071DF"/>
</svg>
