<svg width="100" height="100" viewBox="0 0 100 100" fill="none" xmlns="http://www.w3.org/2000/svg">
<rect x="0.5" y="0.5" width="99" height="99" rx="49.5" fill="white"/>
<rect x="0.5" y="0.5" width="99" height="99" rx="49.5" stroke="#F0F3F5"/>
<path d="M65.1641 28.4275C65.1641 27.6391 64.525 27 63.7366 27H58.0264C57.238 27 56.5989 27.6391 56.5989 28.4275V68.1449H53.7439V37.215C53.7439 35.8288 53.7408 34.9327 53.6521 34.2725C53.5688 33.6533 53.4344 33.4592 53.3257 33.3506C53.2171 33.2419 53.023 33.1075 52.4038 33.0242C51.7436 32.9355 50.8475 32.9324 49.4613 32.9324C48.075 32.9324 47.1789 32.9355 46.5187 33.0242C45.8995 33.1075 45.7055 33.2419 45.5968 33.3506C45.4881 33.4592 45.3537 33.6533 45.2705 34.2725C45.1817 34.9327 45.1787 35.8288 45.1787 37.215V68.1449H42.3236V45.7802C42.3236 44.9918 41.6845 44.3527 40.8961 44.3527H35.186C34.3976 44.3527 33.7584 44.9918 33.7584 45.7802V68.1449H30.9034H30.4275C29.6391 68.1449 29 68.7841 29 69.5725C29 70.3609 29.6391 71 30.4275 71H68.495C69.2834 71 69.9225 70.3609 69.9225 69.5725C69.9225 68.7841 69.2834 68.1449 68.495 68.1449H68.0192H65.1641V28.4275Z" fill="#4071DF"/>
</svg>
