<svg xmlns="http://www.w3.org/2000/svg" width="81" height="80" viewBox="0 0 81 80" fill="none" >
<g filter="url(#filter0_d_1831_88099)">
<rect x="4.5" y="3" width="72" height="72" rx="36" fill="white" shape-rendering="crispEdges"/>
<path fill-rule="evenodd" clip-rule="evenodd" d="M52.8138 23.9469C52.7253 23.9469 52.6352 23.9312 52.5475 23.898C52.1562 23.7503 51.9582 23.312 52.1052 22.9192L52.9202 20.7428C53.0674 20.35 53.504 20.151 53.8953 20.2989C54.2866 20.4465 54.4846 20.8848 54.3375 21.2776L53.5224 23.454C53.4084 23.7589 53.1201 23.9469 52.8138 23.9469ZM57.7366 23.2762C57.9781 23.6188 57.8973 24.0932 57.556 24.3355L55.6655 25.6783C55.5326 25.7728 55.3799 25.8182 55.2288 25.8182C54.9916 25.8182 54.7578 25.7063 54.6103 25.4971C54.3688 25.1544 54.4497 24.6801 54.791 24.4377L56.6815 23.0948C57.0229 22.8522 57.4952 22.9336 57.7366 23.2762ZM58.4959 27.2202H58.4803L56.165 27.2397C55.747 27.2482 55.415 27.5697 55.4235 27.9893C55.4318 28.4037 55.7691 28.7402 56.1801 28.7402H56.1958L58.5111 28.7006C58.9291 28.692 59.261 28.3545 59.2526 27.9349C59.2443 27.5205 58.907 27.2202 58.4959 27.2202ZM52.494 38.1988C52.9793 38.2974 53.4383 38.5071 53.826 38.8153C54.5425 39.3847 54.9837 40.2362 55.0367 41.1516C55.0897 42.0685 54.7505 42.9655 54.1062 43.6124L49.7369 47.9991C47.6709 50.0734 45.7038 51.771 43.8906 53.045C41.8141 54.5039 39.868 55.4549 38.1027 55.8735L36.2678 57.2882C35.8816 57.5858 35.4007 57.7499 34.9141 57.7499C34.3214 57.7499 33.7638 57.5185 33.3438 57.0978L24.554 48.2871C23.7997 47.5316 23.6986 46.3429 24.2757 45.4712L22.4037 43.595C21.584 42.7741 21.5334 41.441 22.2883 40.5598L23.5478 39.0899L25.0803 27.9043C25.1434 26.1964 26.547 24.8265 28.2634 24.8265C30.0114 24.8265 31.4353 26.2476 31.4488 27.9994L31.478 29.028L39.1541 21.3215C39.7576 20.7156 40.5618 20.3818 41.4185 20.3818C42.4043 20.382 43.3204 20.827 43.9322 21.6028C44.2665 22.0268 44.4761 22.5135 44.5646 23.0176C45.149 22.499 45.8938 22.2157 46.6832 22.2157C47.6691 22.2157 48.5852 22.6609 49.1969 23.4367C50.0059 24.4626 50.0832 25.856 49.4776 26.9739C50.2111 27.1233 50.8715 27.5253 51.3472 28.1288C52.2297 29.2483 52.2427 30.8058 51.4458 31.9647C51.4037 32.0651 51.3572 32.1641 51.3049 32.2608C52.0381 32.4104 52.6982 32.8112 53.1737 33.4143C54.181 34.692 54.0581 36.5412 52.8881 37.7161L52.5842 38.0211C52.556 38.0813 52.5261 38.1405 52.494 38.1988ZM46.6831 23.7356C46.2503 23.7356 45.8177 23.9004 45.4893 24.23L44.5084 25.2148C45.123 25.4027 45.6715 25.7737 46.0824 26.2949C46.4166 26.7187 46.6264 27.2055 46.7149 27.7096C46.8244 27.6122 46.9414 27.5262 47.0615 27.4458L47.8408 26.6635C48.4526 26.0494 48.5467 25.061 48.0097 24.3799C47.6711 23.9503 47.177 23.7356 46.6831 23.7356ZM41.4185 21.9019C40.9857 21.9019 40.5529 22.0667 40.2246 22.3962L32.4186 30.2336C33.1322 30.8154 33.5913 31.7005 33.599 32.6916L33.6284 33.7201L42.5762 24.8297C43.188 24.2156 43.2821 23.2273 42.7451 22.5462C42.4065 22.1167 41.9125 21.902 41.4185 21.9019ZM23.4362 41.551C23.1942 41.8334 23.2102 42.2555 23.4729 42.5187L25.2524 44.3023L25.6981 43.782L27.2304 32.5963C27.2882 31.0352 28.4659 29.7575 29.9784 29.549L29.9349 28.0245C29.9349 27.1016 29.1826 26.3465 28.2634 26.3465C27.3441 26.3465 26.592 27.1016 26.592 28.0245L24.9872 39.7392C24.987 39.7404 24.9864 39.7416 24.9856 39.7425L23.4362 41.551ZM48.6663 46.9241L53.0355 42.5375C53.7387 41.8317 53.689 40.6449 52.8865 40.0073C52.5861 39.7685 52.2254 39.654 51.8637 39.654C51.409 39.654 50.9528 39.8349 50.612 40.177L46.8302 43.9738C46.678 44.1267 46.4784 44.203 46.2788 44.203C46.0794 44.203 45.8798 44.1267 45.7275 43.9738L45.7176 43.9638C45.3881 43.633 45.3881 43.0965 45.7176 42.7657L51.8178 36.6413C52.4296 36.0272 52.5238 35.0388 51.9868 34.3578C51.6482 33.9282 51.1541 33.7135 50.6602 33.7135C50.2274 33.7135 49.7948 33.8781 49.4664 34.2079L43.308 40.3906C43.1492 40.5499 42.9412 40.6296 42.7333 40.6296C42.5251 40.6296 42.3172 40.5499 42.1584 40.3906C41.8363 40.0671 41.8363 39.5429 42.1584 39.2194L49.9911 31.3557C50.6029 30.7416 50.6971 29.7532 50.1602 29.0722C49.8215 28.6427 49.3274 28.428 48.8335 28.4278C48.4006 28.4278 47.968 28.5925 47.6397 28.9222L39.7701 36.8229C39.6093 36.9844 39.3984 37.0653 39.1875 37.0653C38.9767 37.0653 38.7659 36.9844 38.605 36.8229C38.2872 36.504 38.2872 35.9868 38.605 35.6676L44.7265 29.5219C45.3383 28.9078 45.4325 27.9194 44.8955 27.2383C44.5569 26.8088 44.0628 26.5941 43.5689 26.5941C43.136 26.5941 42.7035 26.7587 42.3751 27.0884L33.4889 36.0098C33.3311 36.1682 33.1363 36.2395 32.9452 36.2395C32.5536 36.2395 32.1772 35.9404 32.1641 35.4811L32.0851 32.7167C32.0851 31.7938 31.3331 31.0386 30.4138 31.0386C29.4945 31.0386 28.7423 31.7938 28.7423 32.7167L27.1376 44.4314C27.1373 44.4326 27.1368 44.4337 27.1359 44.4347L25.5866 46.243C25.3445 46.5256 25.3605 46.9477 25.6233 47.2108L34.4136 56.0219C34.5509 56.1594 34.7322 56.2297 34.9142 56.2297C35.0656 56.2297 35.2177 56.1812 35.3456 56.0825L37.3208 54.5597C37.4053 54.4945 37.5032 54.4505 37.6073 54.4276C41.0339 53.6779 44.9346 50.6706 48.6663 46.9241Z" fill="#2E2E2E"/>
<rect x="5" y="3.5" width="71" height="71" rx="35.5" stroke="#DDDDDD" shape-rendering="crispEdges"/>
</g>
<defs>
<filter id="filter0_d_1831_88099" x="0.5" y="0" width="80" height="80" filterUnits="userSpaceOnUse" color-interpolation-filters="sRGB">
<feFlood flood-opacity="0" result="BackgroundImageFix"/>
<feColorMatrix in="SourceAlpha" type="matrix" values="0 0 0 0 0 0 0 0 0 0 0 0 0 0 0 0 0 0 127 0" result="hardAlpha"/>
<feOffset dy="1"/>
<feGaussianBlur stdDeviation="2"/>
<feComposite in2="hardAlpha" operator="out"/>
<feColorMatrix type="matrix" values="0 0 0 0 0 0 0 0 0 0 0 0 0 0 0 0 0 0 0.05 0"/>
<feBlend mode="normal" in2="BackgroundImageFix" result="effect1_dropShadow_1831_88099"/>
<feBlend mode="normal" in="SourceGraphic" in2="effect1_dropShadow_1831_88099" result="shape"/>
</filter>
</defs>
</svg>
