<svg xmlns="http://www.w3.org/2000/svg" width="80" height="80" viewBox="0 0 80 80" fill="none" >
<g filter="url(#filter0_d_1831_88103)">
<rect x="4" y="3" width="72" height="72" rx="36" fill="white" shape-rendering="crispEdges"/>
<path d="M50 32.3359C52.7614 32.3359 55 30.0974 55 27.3359C55 24.5745 52.7614 22.3359 50 22.3359C47.2386 22.3359 45 24.5745 45 27.3359C45 30.0974 47.2386 32.3359 50 32.3359Z" stroke="black" stroke-width="1.875" stroke-linecap="round" stroke-linejoin="round"/>
<path d="M30 44C32.7614 44 35 41.7614 35 39C35 36.2386 32.7614 34 30 34C27.2386 34 25 36.2386 25 39C25 41.7614 27.2386 44 30 44Z" stroke="black" stroke-width="1.875" stroke-linecap="round" stroke-linejoin="round"/>
<path d="M50 55.6641C52.7614 55.6641 55 53.4255 55 50.6641C55 47.9026 52.7614 45.6641 50 45.6641C47.2386 45.6641 45 47.9026 45 50.6641C45 53.4255 47.2386 55.6641 50 55.6641Z" stroke="black" stroke-width="1.875" stroke-linecap="round" stroke-linejoin="round"/>
<path d="M34.3164 41.5156L45.6997 48.149" stroke="black" stroke-width="1.875" stroke-linecap="round" stroke-linejoin="round"/>
<path d="M45.6831 29.8496L34.3164 36.4829" stroke="black" stroke-width="1.875" stroke-linecap="round" stroke-linejoin="round"/>
<rect x="4.5" y="3.5" width="71" height="71" rx="35.5" stroke="#DDDDDD" shape-rendering="crispEdges"/>
</g>
<defs>
<filter id="filter0_d_1831_88103" x="0" y="0" width="80" height="80" filterUnits="userSpaceOnUse" color-interpolation-filters="sRGB">
<feFlood flood-opacity="0" result="BackgroundImageFix"/>
<feColorMatrix in="SourceAlpha" type="matrix" values="0 0 0 0 0 0 0 0 0 0 0 0 0 0 0 0 0 0 127 0" result="hardAlpha"/>
<feOffset dy="1"/>
<feGaussianBlur stdDeviation="2"/>
<feComposite in2="hardAlpha" operator="out"/>
<feColorMatrix type="matrix" values="0 0 0 0 0 0 0 0 0 0 0 0 0 0 0 0 0 0 0.05 0"/>
<feBlend mode="normal" in2="BackgroundImageFix" result="effect1_dropShadow_1831_88103"/>
<feBlend mode="normal" in="SourceGraphic" in2="effect1_dropShadow_1831_88103" result="shape"/>
</filter>
</defs>
</svg>
