<svg width="32" height="32" viewBox="0 0 32 32" fill="none" xmlns="http://www.w3.org/2000/svg">
<path d="M16.1517 18.1548C16.2924 17.9713 16.3903 17.7936 16.5371 17.6502C19.3268 15.0186 22.1348 12.3985 24.9244 9.76116C25.4445 9.27383 26.0318 9.03876 26.7475 9.21076C27.8793 9.48023 28.3687 10.7817 27.6896 11.6876C27.5551 11.8653 27.3899 12.0144 27.2247 12.1692C23.9884 15.2021 20.7522 18.235 17.5159 21.268C16.4759 22.2426 15.6133 22.2484 14.5855 21.2852C12.9827 19.783 6.17981 13.4018 4.57086 11.8997C4.05697 11.4238 3.87956 10.8562 4.08144 10.2198C4.26497 9.61783 4.72992 9.24516 5.38451 9.11329C6.04522 8.98143 6.58358 9.22223 7.04853 9.65223C8.30266 10.8218 14.7629 16.859 16.1517 18.149L16.1517 18.1548Z" fill="#4071DF"/>
</svg>
