<svg width="57" height="56" viewBox="0 0 57 56" fill="none" xmlns="http://www.w3.org/2000/svg">
<rect x="56.3906" width="56" height="56" rx="28" transform="rotate(90 56.3906 0)" fill="white"/>
<path d="M28.5612 32.4242C28.7195 32.2178 28.8297 32.0178 28.9948 31.8566C32.1332 28.896 35.2922 25.9484 38.4306 22.9814C39.0156 22.4331 39.6763 22.1687 40.4816 22.3622C41.7548 22.6653 42.3054 24.1295 41.5415 25.1486C41.3901 25.3485 41.2042 25.5162 41.0184 25.6904C37.3776 29.1024 33.7368 32.5145 30.096 35.9265C28.926 37.023 27.9556 37.0295 26.7993 35.9459C24.9961 34.256 17.3429 27.0771 15.5328 25.3872C14.9547 24.8519 14.7551 24.2133 14.9822 23.4974C15.1887 22.8201 15.7118 22.4009 16.4482 22.2525C17.1915 22.1042 17.7971 22.3751 18.3202 22.8588C19.7311 24.1746 26.9989 30.9665 28.5612 32.4177L28.5612 32.4242Z" fill="#1A1A1A"/>
</svg>
