<svg width="119" height="41" viewBox="0 0 119 41" fill="none" xmlns="http://www.w3.org/2000/svg">
<path fill-rule="evenodd" clip-rule="evenodd" d="M25.0911 23.0819L34.8807 23.0693L34.5239 25.2977L26.3367 33.1156L33.2094 33.103L32.8088 35.5066L22.6875 35.5129L23.1131 33.0279L30.9623 25.5105H24.6967L25.0911 23.0819Z" fill="#D13239"/>
<path fill-rule="evenodd" clip-rule="evenodd" d="M14.3836 19.2657C14.1707 19.0404 13.864 18.8651 13.526 18.7274C13.1692 18.5897 12.7749 18.4896 12.3868 18.4207C11.8986 18.3331 11.4229 18.2955 11.0849 18.283C10.7719 18.2705 10.5716 18.2705 10.5716 18.2705H6.29025H3.10425L0.25 35.5087H2.91647L3.96804 29.1242L9.13824 29.1492C9.13824 29.1492 11.1537 29.2306 12.5809 28.4732C14.008 27.7158 14.3898 25.9945 14.3898 25.9945C14.3898 25.9945 14.5463 25.3561 14.6777 24.5799C14.8217 23.7224 14.9657 22.6959 15.0408 22.1513C15.0721 21.9134 15.0909 21.7632 15.0909 21.7632C15.0909 21.7632 15.1284 21.588 15.1284 21.3125C15.1347 20.9307 15.0783 20.3549 14.7779 19.804C14.6715 19.61 14.5463 19.4347 14.3836 19.2657ZM12.3305 22.3078C12.3305 22.3391 12.0926 23.7224 11.7797 25.3623C11.6608 25.9883 11.1788 26.3263 10.628 26.4452C9.7141 26.6392 8.73139 26.6017 8.73139 26.6017L4.41245 26.5892L5.36387 20.8619L9.27595 20.8744C9.27595 20.8744 9.53884 20.8681 9.90814 20.8744C10.3275 20.8806 10.8846 20.8994 11.3415 20.962C11.7359 21.0121 12.0488 21.0935 12.149 21.2187C12.2804 21.3814 12.3305 21.5942 12.3493 21.782C12.3743 22.0574 12.3305 22.289 12.3305 22.3078Z" fill="#D13239"/>
<path fill-rule="evenodd" clip-rule="evenodd" d="M48.1605 18.2705H50.7269L47.8538 35.5087L45.2812 35.5024L48.1605 18.2705Z" fill="#D13239"/>
<path fill-rule="evenodd" clip-rule="evenodd" d="M61.8496 23.0881L64.3095 23.0819L65.1796 31.8324L68.9665 23.0693L72.0022 23.0756L72.8973 31.8637L76.678 23.0819H79.2318L73.8112 35.5066H70.7817L69.9054 26.8062L66.0809 35.5066L63.1015 35.5191L61.8496 23.0881Z" fill="#D13239"/>
<path d="M43.4189 23.1733C42.699 22.9417 41.4534 22.8916 40.3956 22.9041C39.3753 22.9166 38.9059 22.9667 38.5241 23.0481C38.5241 23.0481 36.7089 23.311 35.6761 24.5879C34.6433 25.8648 34.3366 28.6564 34.3366 28.6564C34.3366 28.6564 33.7232 31.7423 33.9047 32.7751C34.0862 33.8016 34.4054 34.7593 35.5697 35.2037C36.7339 35.6544 37.7229 35.6293 37.7229 35.6293C37.7229 35.6293 39.801 35.7921 41.3658 35.4228C42.9306 35.0535 43.7569 33.9518 43.7569 33.9518C43.7569 33.9518 44.1262 33.4761 44.3891 32.9128C44.6519 32.3494 44.7333 31.9551 44.7458 31.905L44.9086 31.2353L42.2484 31.2415C42.2484 31.2415 42.1044 33.0004 40.6648 33.1631C39.2314 33.3259 38.4615 33.2633 38.1798 33.2508C37.9044 33.2383 36.3646 33.3071 36.4898 32.0177C36.4898 31.9989 36.4898 31.9739 36.496 31.9363C36.5649 30.4716 36.7276 30.0898 36.7276 30.0898L45.0838 30.0648L45.4406 27.9992C45.8537 25.6582 45.5595 23.8743 43.4189 23.1733ZM42.8618 27.705L37.1345 27.6988L37.3598 26.7912C37.3598 26.7912 37.5601 26.0776 37.9545 25.7771C38.3551 25.4767 38.8621 25.4204 39.3378 25.3766C39.8135 25.3327 41.0841 25.2388 42.1169 25.4517C42.4612 25.5205 42.7867 25.7146 42.8743 26.0025C43.0746 26.6785 42.8618 27.705 42.8618 27.705Z" fill="#D13239"/>
<path d="M36.51 31.9572C36.51 31.976 36.5037 31.9948 36.5037 32.0135C36.4974 32.1137 36.51 31.9509 36.51 31.9572Z" fill="#D13239"/>
<path d="M52.2699 31.9758C52.2699 31.9945 52.2637 32.0133 52.2637 32.0321C52.2637 32.1322 52.2699 31.9695 52.2699 31.9758Z" fill="#D13239"/>
<path d="M59.1864 23.1908C58.4666 22.9593 57.221 22.9092 56.1632 22.9217C55.1429 22.9342 54.6735 22.9843 54.2916 23.0657C54.2916 23.0657 52.4764 23.3286 51.4436 24.6055C50.4109 25.8824 50.1042 28.674 50.1042 28.674C50.1042 28.674 49.4907 31.7599 49.6723 32.7927C49.8538 33.8192 50.173 34.7769 51.3372 35.2213C52.5015 35.6719 53.4904 35.6469 53.4904 35.6469C53.4904 35.6469 55.5685 35.8096 57.1334 35.4403C58.6982 35.071 59.5244 33.9694 59.5244 33.9694C59.5244 33.9694 59.8937 33.4937 60.1566 32.9304C60.4195 32.367 60.5009 31.9727 60.5134 31.9226L60.6762 31.2529L58.0159 31.2591C58.0159 31.2591 57.872 33.018 56.4323 33.1807C54.9989 33.3435 54.229 33.2809 53.9474 33.2746C53.672 33.2621 52.1322 33.3247 52.2574 32.0415C52.2574 32.0228 52.2574 31.9977 52.2636 31.9602C52.3325 30.4955 52.4952 30.1137 52.4952 30.1137L60.8514 30.0886L61.2082 28.023C61.6213 25.6758 61.3271 23.8856 59.1864 23.1908ZM58.6043 27.7163L52.877 27.7101L53.1024 26.8025C53.1024 26.8025 53.3027 26.0889 53.697 25.7885C54.0913 25.488 54.6046 25.4317 55.0803 25.3879C55.556 25.3441 56.8267 25.2502 57.8595 25.463C58.2037 25.5318 58.5292 25.7259 58.6168 26.0138C58.8171 26.6836 58.6043 27.7163 58.6043 27.7163Z" fill="#D13239"/>
<path fill-rule="evenodd" clip-rule="evenodd" d="M82.193 23.0824L83.8392 32.171L88.4898 23.0762L91.1062 23.1012L84.4025 36.0893C84.4025 36.0893 83.1882 38.4428 82.4371 39.0375C81.6859 39.6321 81.2228 39.9012 80.6093 39.9638C79.9959 40.0264 79.7456 40.0702 79.1572 39.9638L78.5312 39.8512L78.9193 37.529C78.9193 37.529 79.9584 37.723 80.5718 37.4789C81.1915 37.2348 81.6859 36.1832 81.6859 36.1832L81.9989 35.6574L79.5766 23.0762L82.193 23.0824Z" fill="#D13239"/>
<path fill-rule="evenodd" clip-rule="evenodd" d="M92.0528 24.3193L94.7506 24.3256L94.9133 23.2803C94.9133 23.2803 95.2012 21.39 95.8459 21.0269C96.0525 20.908 96.3842 20.8016 96.766 20.7327C97.4734 20.6076 98.3684 20.595 99.1008 20.6201C100.221 20.6576 100.647 20.6702 101.786 20.8016C102.925 20.933 102.637 22.0347 102.637 22.0347L102.412 23.6809C102.412 23.6809 102.312 24.4195 102.049 24.8764C101.817 25.2833 101.179 25.5587 100.81 25.6776C99.9208 25.9655 96.8787 26.7417 96.8787 26.7417L94.4877 27.4302C94.4877 27.4302 93.0167 27.8559 92.1967 28.7635C91.3705 29.6773 91.045 30.7101 90.9324 31.2484C90.8197 31.7867 90.1875 35.511 90.1875 35.511L103.094 35.5173L103.526 32.9384L93.3172 32.951L93.4987 31.8994C93.4987 31.8994 93.6176 30.8165 94.0558 30.4597C94.1935 30.3471 94.2623 30.1968 95.076 29.9089C95.5643 29.7337 97.2292 29.2892 97.2292 29.2892L101.079 28.2377C101.079 28.2377 103.182 27.6994 104.008 26.5477C104.834 25.4022 105.154 23.2052 105.154 23.2052C105.154 23.2052 105.379 21.0708 105.204 20.401C105.035 19.7313 104.402 18.9301 103.633 18.5858C102.863 18.2415 102.061 18.0412 99.7392 18.0725C97.417 18.1038 96.2653 18.2102 95.0886 18.6484C93.9118 19.0803 93.2295 19.869 92.7976 20.9831C92.3282 22.0409 92.0528 24.3193 92.0528 24.3193Z" fill="#B3B2B1"/>
<path fill-rule="evenodd" clip-rule="evenodd" d="M116.355 29.1117L118.164 18.2705H114.959L104.982 28.9865L104.531 31.703H113.257L112.618 35.5087L115.297 35.515L115.929 31.703L118.402 31.7093L118.846 29.1117H116.355ZM113.689 29.1179L108.049 29.1117L114.915 21.7945L113.689 29.1179Z" fill="#B3B2B1"/>
<path fill-rule="evenodd" clip-rule="evenodd" d="M20.043 19.7008H28.2615C28.2615 19.7008 30.1017 18.2111 31.4099 17.2534C32.7181 16.2957 35.0966 14.7872 35.0966 14.7872L30.4522 12.6152C30.4522 12.6152 26.5276 15.0439 24.8626 16.1893C23.2477 17.2471 20.043 19.7008 20.043 19.7008Z" fill="#B3B2B1"/>
<path fill-rule="evenodd" clip-rule="evenodd" d="M37.7065 13.2473L33.8945 10.681C33.8945 10.681 37.3434 8.72182 41.9315 6.8941C46.5133 5.06637 48.9607 4.30273 48.9607 4.30273L49.7369 7.9394C49.7369 7.9394 45.3241 9.4166 42.7953 10.6121C40.1789 11.7263 37.7065 13.2473 37.7065 13.2473Z" fill="#B3B2B1"/>
<path fill-rule="evenodd" clip-rule="evenodd" d="M52.5522 7.14494L51.8887 3.42064C51.8887 3.42064 56.5957 2.16878 60.9021 1.36758C65.2148 0.566389 70.9295 0.18457 70.9295 0.18457L69.0392 5.93689C69.0392 5.93689 64.013 5.24837 59.2935 5.89308C55.6192 6.33123 52.5522 7.14494 52.5522 7.14494Z" fill="#B3B2B1"/>
<path fill-rule="evenodd" clip-rule="evenodd" d="M72.0312 6.42625L75.211 0.0354775C75.211 0.0354775 82.1776 -0.102228 88.1866 0.830412C94.1955 1.75679 99.6912 3.18392 99.5723 3.24651L84.3371 11.2146C84.3371 11.2146 80.7755 8.96128 76.3564 7.57796C73.8527 6.83936 72.0312 6.42625 72.0312 6.42625Z" fill="#B3B2B1"/>
<path fill-rule="evenodd" clip-rule="evenodd" d="M87.0684 12.945L90.4171 15.4862H117.939C117.939 15.4862 117.883 14.5974 117.151 13.333C116.694 12.5444 115.861 11.7056 114.991 10.8356C114.672 10.5226 113.408 9.53362 112.456 8.91395C110.028 7.3366 108.669 6.72944 106.147 5.58398L87.0684 12.945Z" fill="#B3B2B1"/>
<path d="M21.8231 23.0693C20.7903 23.0693 19.8138 23.4762 18.9813 23.9331L19.1253 23.0693H16.39L14.1992 35.444H16.9408L18.1551 28.5901C18.4055 27.2005 19.4445 25.4792 21.4726 25.4792L22.8872 25.4729L23.3128 23.0693H21.8231Z" fill="#D13239"/>
</svg>
