<svg width="108" height="41" viewBox="0 0 108 41" fill="none" xmlns="http://www.w3.org/2000/svg">
<path d="M100.854 40.0283H0.84375L7.50011 0.0283203H107.51L100.854 40.0283Z" fill="#EDEDED"/>
<path d="M33.7473 13.3613C29.2545 13.3613 25.8438 16.677 25.8438 20.6276C25.8438 24.202 28.643 26.6947 32.4536 26.6947C36.9464 26.6947 40.3336 23.2849 40.3336 19.3343C40.3571 15.7364 37.558 13.3613 33.7473 13.3613ZM32.7358 23.332C31.0187 23.332 29.8191 22.2032 29.8191 20.463C29.8191 18.5348 31.301 16.7005 33.4415 16.7005C35.1587 16.7005 36.3583 17.8763 36.3583 19.6165C36.3818 21.5683 34.8764 23.332 32.7358 23.332Z" fill="#393A41"/>
<path d="M60.7726 13.3613C56.2797 13.3613 52.8926 16.677 52.8926 20.6276C52.8926 24.202 55.6917 26.6947 59.5024 26.6947C63.9948 26.6947 67.3824 23.2849 67.3824 19.3343C67.4059 15.7364 64.6068 13.3613 60.7726 13.3613ZM59.7846 23.332C58.0672 23.332 56.8677 22.2032 56.8677 20.463C56.8677 18.5348 58.3495 16.7005 60.4904 16.7005C62.2072 16.7005 63.4068 17.8763 63.4068 19.6165C63.4068 21.5683 61.925 23.332 59.7846 23.332Z" fill="#393A41"/>
<path d="M80.6043 17.5716C80.6043 15.1731 78.7461 13.6445 75.359 13.6445H70.6074L68.5137 26.4135H72.5128L73.171 22.3924H73.3594L75.4763 26.4135H80.0634L77.123 21.9456C79.3106 21.193 80.6043 19.5705 80.6043 17.5716ZM74.2061 19.688H73.6181L74.0652 17.0073H74.6061C75.8528 17.0073 76.5115 17.3835 76.5115 18.2066C76.5115 19.1707 75.5706 19.688 74.2061 19.688Z" fill="#393A41"/>
<path d="M21.256 18.7464C19.7271 17.9704 19.3978 17.7823 19.3978 17.359C19.3978 16.8416 20.0094 16.583 20.8326 16.583C21.7971 16.583 23.2555 16.7005 24.6903 18.0644C25.0432 16.9592 25.6312 15.9715 26.384 15.1015C24.361 13.9492 22.4792 13.3613 20.7621 13.3613C17.3513 13.3613 15.3754 15.1955 15.3754 17.406C15.3754 19.3108 16.8103 20.2984 18.5039 21.1685C20.0329 21.9445 20.4092 22.2032 20.4092 22.6735C20.4092 23.1908 19.7741 23.473 18.9273 23.473C17.4689 23.473 15.7753 22.5559 14.7638 21.6153L14.1758 25.1661C15.2108 25.9187 16.7162 26.6947 18.9979 26.6947C22.5263 26.6947 24.4316 24.9075 24.4316 22.6265C24.4316 20.7452 23.2084 19.734 21.256 18.7464Z" fill="#393A41"/>
<path d="M50.899 19.2412H46.1945L46.571 17.0073H51.6047C52.2634 15.6669 53.2745 14.5146 54.5212 13.6445H46.2883C44.4538 13.6445 42.9013 14.8909 42.6425 16.584L41.043 26.437H45.0418L45.7003 22.4159H50.4519L50.8047 20.2289C50.8283 19.8762 50.8519 19.5705 50.899 19.2412Z" fill="#393A41"/>
<path d="M80.7012 13.6445C81.7829 14.4676 82.4416 15.6199 82.583 17.0073H85.923L84.3941 26.4135H88.3927L89.9216 17.0073H93.6385L94.1794 13.6445H80.7012Z" fill="#393A41"/>
</svg>
