<svg width="29" height="28" viewBox="0 0 29 28" fill="none" xmlns="http://www.w3.org/2000/svg">
<g clip-path="url(#clip0_480_29861)">
<path d="M17.8214 5.21275C17.9797 5.34126 18.172 5.4209 18.3748 5.44196L22.6234 5.88311L23.0646 10.1317C23.0856 10.3345 23.1653 10.5268 23.2938 10.6851L25.9861 14.0013L23.2938 17.3175C23.1653 17.4758 23.0856 17.6681 23.0646 17.8709L22.6234 22.1195L18.3748 22.5606C18.172 22.5817 17.9797 22.6613 17.8214 22.7899L14.5052 25.4822L11.189 22.7899C11.0307 22.6613 10.8385 22.5817 10.6357 22.5606L6.38702 22.1195L5.94587 17.8709C5.92481 17.6681 5.84516 17.4758 5.71665 17.3175L3.02435 14.0013L5.71665 10.6851C5.84516 10.5268 5.92481 10.3345 5.94587 10.1317L6.38702 5.88311L10.6357 5.44196C10.8385 5.4209 11.0307 5.34126 11.189 5.21275L14.5052 2.52044L17.8214 5.21275Z" stroke="#4071DF" stroke-width="2.1" stroke-linejoin="round"/>
<path d="M8.5 14.4995L12.6252 19L19.5 11.4998L18.1243 10L12.6252 16.0004L9.87476 12.9996L8.5 14.4995Z" fill="#4071DF"/>
</g>
<defs>
<clipPath id="clip0_480_29861">
<rect width="28" height="28" fill="white" transform="translate(0.5)"/>
</clipPath>
</defs>
</svg>
