<svg width="29" height="28" viewBox="0 0 29 28" fill="none" xmlns="http://www.w3.org/2000/svg">
<g clip-path="url(#clip0_323_31514)">
<path d="M15.6667 24.4998H21.5V26.8332H7.49999V24.4998H13.3333V23.2748C11.4835 23.0891 9.70492 22.4641 8.14557 21.4518C6.58623 20.4396 5.29131 19.0695 4.36865 17.4555L6.39515 16.2982C7.10773 17.5433 8.09775 18.6074 9.28831 19.4078C10.4789 20.2082 11.8379 20.7234 13.2599 20.9134C14.6819 21.1033 16.1285 20.9629 17.4874 20.5031C18.8463 20.0432 20.081 19.2763 21.0954 18.2619C22.1098 17.2475 22.8767 16.0129 23.3366 14.6539C23.7964 13.295 23.9368 11.8484 23.7469 10.4264C23.5569 9.00443 23.0417 7.64538 22.2413 6.45482C21.4409 5.26426 20.3768 4.27424 19.1317 3.56166L20.289 1.53516C22.0752 2.55546 23.5597 4.03008 24.592 5.8094C25.6243 7.58871 26.1675 9.60942 26.1667 11.6665C26.1667 17.7157 21.5618 22.6903 15.6667 23.2748V24.4998ZM14.5 19.8332C13.4275 19.8332 12.3656 19.6219 11.3747 19.2115C10.3839 18.8011 9.48363 18.1995 8.72528 17.4412C7.96694 16.6829 7.36538 15.7826 6.95497 14.7917C6.54456 13.8009 6.33332 12.739 6.33332 11.6665C6.33332 10.594 6.54456 9.53207 6.95497 8.54124C7.36538 7.55042 7.96694 6.65013 8.72528 5.89178C9.48363 5.13344 10.3839 4.53189 11.3747 4.12147C12.3656 3.71106 13.4275 3.49982 14.5 3.49982C16.6659 3.49982 18.7431 4.36024 20.2747 5.89178C21.8062 7.42333 22.6667 9.50056 22.6667 11.6665C22.6667 13.8324 21.8062 15.9096 20.2747 17.4412C18.7431 18.9727 16.6659 19.8332 14.5 19.8332ZM14.5 17.4998C16.0471 17.4998 17.5308 16.8852 18.6248 15.7913C19.7187 14.6973 20.3333 13.2136 20.3333 11.6665C20.3333 10.1194 19.7187 8.63566 18.6248 7.5417C17.5308 6.44774 16.0471 5.83316 14.5 5.83316C12.9529 5.83316 11.4692 6.44774 10.3752 7.5417C9.28123 8.63566 8.66665 10.1194 8.66665 11.6665C8.66665 13.2136 9.28123 14.6973 10.3752 15.7913C11.4692 16.8852 12.9529 17.4998 14.5 17.4998Z" fill="#4071DF"/>
</g>
<defs>
<clipPath id="clip0_323_31514">
<rect width="28" height="28" fill="white" transform="translate(0.5)"/>
</clipPath>
</defs>
</svg>
