<svg width="46" height="46" viewBox="0 0 46 46" fill="none" xmlns="http://www.w3.org/2000/svg">
<path d="M12.9992 41.5185H4.12915V24.5332H7.90366L12.9992 41.5185ZM38.0979 16.9842H26.7762V9.4352C26.7762 7.93361 26.1797 6.49352 25.1179 5.43173C24.0561 4.36994 22.616 3.77344 21.1144 3.77344H19.2272V11.3225L13.7541 18.1638C12.4107 19.8431 11.6786 21.9297 11.6782 24.0803V26.4205L15.6414 39.6313H31.3754C33.0592 39.6314 34.6946 39.0687 36.0218 38.0326C37.3489 36.9964 38.2916 35.5464 38.6999 33.9129L41.7591 21.674C41.8982 21.1176 41.9087 20.5368 41.7897 19.9758C41.6707 19.4147 41.4254 18.8881 41.0725 18.436C40.7196 17.9839 40.2682 17.6182 39.7528 17.3667C39.2374 17.1151 38.6714 16.9843 38.0979 16.9842Z" fill="#22C373"/>
</svg>
