<svg width="29" height="28" viewBox="0 0 29 28" fill="none" xmlns="http://www.w3.org/2000/svg">
<g clip-path="url(#clip0_480_29870)">
<path d="M4.9135 3.2983L14.5 1.16797L24.0865 3.2983C24.3456 3.35589 24.5773 3.5001 24.7433 3.70711C24.9094 3.91412 25 4.17157 25 4.43697V16.0885C24.9999 17.2408 24.7153 18.3753 24.1715 19.3913C23.6277 20.4073 22.8415 21.2733 21.8827 21.9125L14.5 26.8346L7.11733 21.9125C6.15865 21.2734 5.37254 20.4076 4.82874 19.3918C4.28494 18.3761 4.00028 17.2418 4 16.0896V4.43697C4.00005 4.17157 4.09058 3.91412 4.25665 3.70711C4.42273 3.5001 4.65443 3.35589 4.9135 3.2983ZM6.33333 5.37264V16.0885C6.33335 16.8567 6.523 17.613 6.88547 18.2903C7.24794 18.9676 7.77201 19.545 8.41117 19.9711L14.5 24.0311L20.5888 19.9711C21.2278 19.5451 21.7518 18.9679 22.1143 18.2908C22.4767 17.6137 22.6665 16.8576 22.6667 16.0896V5.37264L14.5 3.55964L6.33333 5.37264ZM14.5 12.8346C13.7265 12.8346 12.9846 12.5273 12.4376 11.9804C11.8906 11.4334 11.5833 10.6915 11.5833 9.91797C11.5833 9.14442 11.8906 8.40256 12.4376 7.85557C12.9846 7.30859 13.7265 7.0013 14.5 7.0013C15.2735 7.0013 16.0154 7.30859 16.5624 7.85557C17.1094 8.40256 17.4167 9.14442 17.4167 9.91797C17.4167 10.6915 17.1094 11.4334 16.5624 11.9804C16.0154 12.5273 15.2735 12.8346 14.5 12.8346ZM9.2815 18.668C9.42292 17.3828 10.0336 16.195 10.9966 15.3321C11.9596 14.4693 13.207 13.9922 14.5 13.9922C15.793 13.9922 17.0404 14.4693 18.0034 15.3321C18.9664 16.195 19.5771 17.3828 19.7185 18.668H9.2815Z" fill="#4071DF"/>
</g>
<defs>
<clipPath id="clip0_480_29870">
<rect width="28" height="28" fill="white" transform="translate(0.5)"/>
</clipPath>
</defs>
</svg>
