<svg width="29" height="28" viewBox="0 0 29 28" fill="none" xmlns="http://www.w3.org/2000/svg">
<g clip-path="url(#clip0_323_31497)">
<path d="M21.5 9.33464H23.8333C24.1428 9.33464 24.4395 9.45755 24.6583 9.67634C24.8771 9.89514 25 10.1919 25 10.5013V24.5013C25 24.8107 24.8771 25.1075 24.6583 25.3263C24.4395 25.5451 24.1428 25.668 23.8333 25.668H5.16667C4.85725 25.668 4.5605 25.5451 4.34171 25.3263C4.12292 25.1075 4 24.8107 4 24.5013V10.5013C4 10.1919 4.12292 9.89514 4.34171 9.67634C4.5605 9.45755 4.85725 9.33464 5.16667 9.33464H7.5V8.16797C7.5 6.31145 8.2375 4.53098 9.55025 3.21822C10.863 1.90547 12.6435 1.16797 14.5 1.16797C16.3565 1.16797 18.137 1.90547 19.4497 3.21822C20.7625 4.53098 21.5 6.31145 21.5 8.16797V9.33464ZM6.33333 11.668V23.3346H22.6667V11.668H6.33333ZM13.3333 16.3346H15.6667V18.668H13.3333V16.3346ZM8.66667 16.3346H11V18.668H8.66667V16.3346ZM18 16.3346H20.3333V18.668H18V16.3346ZM19.1667 9.33464V8.16797C19.1667 6.93029 18.675 5.74331 17.7998 4.86814C16.9247 3.99297 15.7377 3.5013 14.5 3.5013C13.2623 3.5013 12.0753 3.99297 11.2002 4.86814C10.325 5.74331 9.83333 6.93029 9.83333 8.16797V9.33464H19.1667Z" fill="#4071DF"/>
</g>
<defs>
<clipPath id="clip0_323_31497">
<rect width="28" height="28" fill="white" transform="translate(0.5)"/>
</clipPath>
</defs>
</svg>
