<svg width="189" height="186" viewBox="0 0 189 186" fill="none" xmlns="http://www.w3.org/2000/svg">
<path d="M177.837 92.9408C177.837 138.195 140.526 174.882 94.5007 174.882C48.4751 174.882 11.1641 138.195 11.1641 92.9408C11.1641 47.6861 48.4751 11 94.5007 11C140.526 11 177.837 47.6861 177.837 92.9408ZM27.8314 92.9408C27.8314 129.145 57.6802 158.493 94.5007 158.493C131.321 158.493 161.17 129.145 161.17 92.9408C161.17 56.7371 131.321 27.3882 94.5007 27.3882C57.6802 27.3882 27.8314 56.7371 27.8314 92.9408Z" fill="#EBF0F9"/>
<path d="M189 93C189 144.362 146.691 186 94.5 186C42.3091 186 0 144.362 0 93C0 41.6375 42.3091 0 94.5 0C146.691 0 189 41.6375 189 93ZM5.67 93C5.67 141.281 45.4405 180.42 94.5 180.42C143.559 180.42 183.33 141.281 183.33 93C183.33 44.7193 143.559 5.58 94.5 5.58C45.4405 5.58 5.67 44.7193 5.67 93Z" fill="#EBF0F9"/>
<path fill-rule="evenodd" clip-rule="evenodd" d="M98.2483 71.2902C96.1325 69.5699 92.7022 69.5699 90.5864 71.2902L81.0332 79.0578C78.9175 80.778 78.9175 83.5672 81.0332 85.2875L91.0113 93.4005L85.4747 97.7811L88.7584 100.451L94.295 96.0704L104.518 104.382C104.82 104.628 104.82 105.027 104.518 105.272L94.9646 113.04C94.6624 113.286 94.1723 113.286 93.8701 113.04L82.1278 103.492C81.221 102.755 79.7509 102.755 78.8441 103.492C77.9374 104.23 77.9374 105.425 78.8441 106.162L90.5864 115.71C92.7022 117.43 96.1325 117.43 98.2483 115.71L107.802 107.942C109.917 106.222 109.917 103.433 107.802 101.713L97.6234 93.4369L103.526 88.7669L100.242 86.097L94.3398 90.767L84.3169 82.6176C84.0147 82.3718 84.0147 81.9734 84.3169 81.7276L93.8701 73.9601C94.1723 73.7144 94.6624 73.7144 94.9646 73.9601L106.707 83.5076C107.614 84.2448 109.084 84.2448 109.991 83.5076C110.897 82.7703 110.897 81.5749 109.991 80.8377L98.2483 71.2902Z" fill="#D8DDE6"/>
<path d="M90.5864 71.2902L90.0289 70.6046L90.5864 71.2902ZM98.2483 71.2902L97.6908 71.9759V71.9759L98.2483 71.2902ZM81.0332 79.0578L80.4757 78.3721H80.4757L81.0332 79.0578ZM81.0332 85.2875L81.5907 84.6018H81.5907L81.0332 85.2875ZM91.0113 93.4005L91.5597 94.0935L92.4237 93.4099L91.5688 92.7148L91.0113 93.4005ZM85.4747 97.7811L84.9264 97.0881L84.0624 97.7717L84.9173 98.4667L85.4747 97.7811ZM88.7584 100.451L88.2009 101.137L88.7509 101.584L89.3067 101.144L88.7584 100.451ZM94.295 96.0704L94.8525 95.3847L94.3025 94.9376L93.7467 95.3774L94.295 96.0704ZM104.518 104.382L105.075 103.697L104.518 104.382ZM104.518 105.272L105.075 105.958L105.075 105.958L104.518 105.272ZM94.9646 113.04L95.5221 113.726L95.5221 113.726L94.9646 113.04ZM93.8701 113.04L93.3126 113.726L93.3126 113.726L93.8701 113.04ZM82.1278 103.492L81.5703 104.178H81.5703L82.1278 103.492ZM78.8441 103.492L79.4016 104.178L78.8441 103.492ZM78.8441 106.162L79.4016 105.477H79.4016L78.8441 106.162ZM90.5864 115.71L90.0289 116.395L90.5864 115.71ZM98.2483 115.71L98.8058 116.395L98.2483 115.71ZM107.802 107.942L108.359 108.628L107.802 107.942ZM107.802 101.713L107.244 102.398V102.398L107.802 101.713ZM97.6234 93.4369L97.0751 92.7439L96.2111 93.4275L97.066 94.1226L97.6234 93.4369ZM103.526 88.7669L104.074 89.4599L104.938 88.7763L104.083 88.0813L103.526 88.7669ZM100.242 86.097L100.8 85.4114L100.25 84.9642L99.6938 85.404L100.242 86.097ZM94.3398 90.767L93.7823 91.4527L94.3322 91.8998L94.8881 91.46L94.3398 90.767ZM84.3169 82.6176L83.7594 83.3033L83.7594 83.3033L84.3169 82.6176ZM84.3169 81.7276L83.7594 81.042L83.7594 81.042L84.3169 81.7276ZM93.8701 73.9601L94.4276 74.6458L94.4276 74.6458L93.8701 73.9601ZM94.9646 73.9601L95.5221 73.2745L95.5221 73.2745L94.9646 73.9601ZM106.707 83.5076L107.264 82.8219V82.8219L106.707 83.5076ZM109.991 83.5076L109.433 82.8219V82.8219L109.991 83.5076ZM109.991 80.8377L110.548 80.152L109.991 80.8377ZM91.1439 71.9759C92.9349 70.5196 95.8998 70.5196 97.6908 71.9759L98.8058 70.6046C96.3653 68.6202 92.4695 68.6202 90.0289 70.6046L91.1439 71.9759ZM81.5907 79.7434L91.1439 71.9759L90.0289 70.6046L80.4757 78.3721L81.5907 79.7434ZM81.5907 84.6018C80.7201 83.8939 80.3301 83.0102 80.3301 82.1726C80.3301 81.335 80.7201 80.4513 81.5907 79.7434L80.4757 78.3721C79.2306 79.3845 78.5627 80.7555 78.5627 82.1726C78.5627 83.5897 79.2307 84.9608 80.4757 85.9731L81.5907 84.6018ZM91.5688 92.7148L81.5907 84.6018L80.4757 85.9731L90.4538 94.0862L91.5688 92.7148ZM86.0231 98.4741L91.5597 94.0935L90.463 92.7075L84.9264 97.0881L86.0231 98.4741ZM89.3159 99.7653L86.0322 97.0954L84.9173 98.4667L88.2009 101.137L89.3159 99.7653ZM93.7467 95.3774L88.2101 99.7579L89.3067 101.144L94.8433 96.7634L93.7467 95.3774ZM105.075 103.697L94.8525 95.3847L93.7375 96.756L103.96 105.068L105.075 103.697ZM105.075 105.958C105.414 105.683 105.628 105.278 105.628 104.827C105.628 104.377 105.414 103.972 105.075 103.697L103.96 105.068C103.924 105.039 103.861 104.956 103.861 104.827C103.861 104.699 103.924 104.616 103.96 104.587L105.075 105.958ZM95.5221 113.726L105.075 105.958L103.96 104.587L94.4072 112.354L95.5221 113.726ZM93.3126 113.726C93.9396 114.235 94.8951 114.235 95.5221 113.726L94.4072 112.354C94.4147 112.348 94.4211 112.344 94.4253 112.342C94.4294 112.34 94.4318 112.339 94.4319 112.339C94.432 112.339 94.4306 112.339 94.4278 112.34C94.4249 112.34 94.4213 112.341 94.4174 112.341C94.4134 112.341 94.4098 112.34 94.407 112.34C94.4041 112.339 94.4027 112.339 94.4028 112.339C94.403 112.339 94.4053 112.34 94.4095 112.342C94.4137 112.344 94.42 112.348 94.4276 112.354L93.3126 113.726ZM81.5703 104.178L93.3126 113.726L94.4276 112.354L82.6853 102.807L81.5703 104.178ZM79.4016 104.178C79.9836 103.705 80.9883 103.705 81.5703 104.178L82.6853 102.807C81.4538 101.805 79.5182 101.805 78.2866 102.807L79.4016 104.178ZM79.4016 105.477C79.1355 105.26 79.0478 105.021 79.0478 104.827C79.0478 104.634 79.1355 104.395 79.4016 104.178L78.2866 102.807C77.646 103.328 77.2804 104.054 77.2804 104.827C77.2804 105.6 77.646 106.327 78.2866 106.848L79.4016 105.477ZM91.1439 115.024L79.4016 105.477L78.2866 106.848L90.0289 116.395L91.1439 115.024ZM97.6908 115.024C95.8998 116.48 92.9349 116.48 91.1439 115.024L90.0289 116.395C92.4695 118.38 96.3653 118.38 98.8058 116.395L97.6908 115.024ZM107.244 107.257L97.6908 115.024L98.8058 116.395L108.359 108.628L107.244 107.257ZM107.244 102.398C108.115 103.106 108.505 103.99 108.505 104.827C108.505 105.665 108.115 106.549 107.244 107.257L108.359 108.628C109.604 107.616 110.272 106.245 110.272 104.827C110.272 103.41 109.604 102.039 108.359 101.027L107.244 102.398ZM97.066 94.1226L107.244 102.398L108.359 101.027L98.1809 92.7513L97.066 94.1226ZM102.978 88.0739L97.0751 92.7439L98.1718 94.1299L104.074 89.4599L102.978 88.0739ZM99.6847 86.7827L102.968 89.4526L104.083 88.0813L100.8 85.4114L99.6847 86.7827ZM94.8881 91.46L100.79 86.7901L99.6938 85.404L93.7915 90.074L94.8881 91.46ZM83.7594 83.3033L93.7823 91.4527L94.8973 90.0814L84.8744 81.9319L83.7594 83.3033ZM83.7594 81.042C83.4211 81.3171 83.2065 81.7218 83.2065 82.1726C83.2065 82.6234 83.4211 83.0282 83.7594 83.3033L84.8744 81.932C84.9105 81.9613 84.9739 82.0439 84.9739 82.1726C84.9739 82.3013 84.9105 82.384 84.8744 82.4133L83.7594 81.042ZM93.3126 73.2745L83.7594 81.042L84.8744 82.4133L94.4276 74.6458L93.3126 73.2745ZM95.5221 73.2745C94.8951 72.7646 93.9396 72.7646 93.3126 73.2745L94.4276 74.6458C94.42 74.6519 94.4137 74.6558 94.4095 74.6581C94.4053 74.6603 94.403 74.6611 94.4028 74.6611C94.4027 74.6612 94.4041 74.6607 94.407 74.6603C94.4098 74.6598 94.4134 74.6595 94.4174 74.6595C94.4213 74.6595 94.4249 74.6598 94.4278 74.6603C94.4306 74.6607 94.432 74.6612 94.4319 74.6611C94.4317 74.6611 94.4294 74.6603 94.4253 74.6581C94.421 74.6558 94.4147 74.6519 94.4072 74.6458L95.5221 73.2745ZM107.264 82.8219L95.5221 73.2745L94.4072 74.6458L106.149 84.1932L107.264 82.8219ZM109.433 82.8219C108.851 83.2951 107.846 83.2951 107.264 82.8219L106.149 84.1932C107.381 85.1945 109.317 85.1945 110.548 84.1932L109.433 82.8219ZM109.433 81.5233C109.699 81.7397 109.787 81.9792 109.787 82.1726C109.787 82.366 109.699 82.6055 109.433 82.8219L110.548 84.1932C111.189 83.6724 111.554 82.9455 111.554 82.1726C111.554 81.3997 111.189 80.6729 110.548 80.152L109.433 81.5233ZM97.6908 71.9759L109.433 81.5233L110.548 80.152L98.8058 70.6046L97.6908 71.9759Z" fill="#D8DDE6"/>
</svg>
