<svg width="182" height="70" viewBox="0 0 182 70" fill="none" xmlns="http://www.w3.org/2000/svg">
<path d="M124.062 39.9857L125.868 40.5275C125.748 41.0392 125.567 41.4606 125.296 41.7917C125.025 42.1228 124.724 42.3937 124.333 42.5442C123.942 42.7248 123.46 42.8151 122.858 42.8151C122.136 42.8151 121.564 42.7248 121.082 42.5141C120.631 42.3034 120.239 41.9422 119.908 41.4004C119.577 40.8887 119.396 40.1964 119.396 39.3837C119.396 38.3001 119.697 37.4573 120.269 36.8553C120.841 36.2533 121.684 35.9824 122.738 35.9824C123.58 35.9824 124.212 36.163 124.694 36.4941C125.176 36.8252 125.537 37.3369 125.748 38.0593L123.942 38.4506C123.881 38.2399 123.821 38.0894 123.731 37.9991C123.61 37.8486 123.49 37.7282 123.309 37.6379C123.129 37.5476 122.948 37.5175 122.768 37.5175C122.316 37.5175 121.955 37.6981 121.714 38.0894C121.534 38.3603 121.443 38.8118 121.443 39.3837C121.443 40.1061 121.564 40.6178 121.774 40.8887C121.985 41.1596 122.316 41.3101 122.707 41.3101C123.099 41.3101 123.4 41.1897 123.58 40.979C123.821 40.7081 123.972 40.4071 124.062 39.9857Z" fill="#225E63"/>
<path d="M126.594 39.3825C126.594 38.299 126.895 37.4562 127.497 36.8542C128.099 36.2522 128.942 35.9512 130.025 35.9512C131.139 35.9512 131.982 36.2522 132.584 36.8241C133.186 37.4261 133.487 38.2388 133.487 39.3223C133.487 40.1049 133.366 40.737 133.095 41.2186C132.824 41.7002 132.463 42.0915 131.952 42.3624C131.47 42.6333 130.838 42.7838 130.115 42.7838C129.363 42.7838 128.761 42.6634 128.249 42.4226C127.768 42.1818 127.376 41.8206 127.045 41.2788C126.714 40.737 126.594 40.1651 126.594 39.3825ZM128.641 39.3825C128.641 40.0447 128.761 40.5263 129.002 40.8273C129.243 41.1283 129.574 41.2788 130.025 41.2788C130.477 41.2788 130.808 41.1283 131.049 40.8574C131.289 40.5564 131.41 40.0447 131.41 39.3223C131.41 38.6902 131.289 38.2388 131.018 37.9679C130.778 37.6669 130.416 37.5465 129.995 37.5465C129.574 37.5465 129.243 37.697 129.002 37.998C128.761 38.2388 128.641 38.7204 128.641 39.3825Z" fill="#225E63"/>
<path d="M134.531 36.0723H137.21L138.233 40.1056L139.257 36.0723H141.935V42.6942H140.25V37.6374L138.956 42.6942H137.451L136.156 37.6374V42.6942H134.471V36.0723H134.531Z" fill="#225E63"/>
<path d="M143.264 36.0723H146.665C147.417 36.0723 147.959 36.2529 148.32 36.6141C148.682 36.9753 148.862 37.4568 148.862 38.119C148.862 38.7812 148.652 39.323 148.26 39.6842C147.869 40.0755 147.237 40.2561 146.424 40.2561H145.31V42.7243H143.264V36.0723ZM145.31 38.9016H145.822C146.213 38.9016 146.484 38.8414 146.665 38.6909C146.815 38.5404 146.906 38.3899 146.906 38.1792C146.906 37.9685 146.846 37.7879 146.695 37.6374C146.545 37.4869 146.304 37.4268 145.912 37.4268H145.341V38.9016H145.31Z" fill="#225E63"/>
<path d="M149.949 36.0723H151.996V41.0688H155.187V42.6942H149.949V36.0723Z" fill="#225E63"/>
<path d="M156.209 36.0723H158.256V42.6942H156.209V36.0723Z" fill="#225E63"/>
<path d="M163.788 41.5774H161.47L161.139 42.661H159.062L161.561 36.0391H163.788L166.286 42.661H164.149L163.788 41.5774ZM163.367 40.1627L162.644 37.7848L161.922 40.1627H163.367Z" fill="#225E63"/>
<path d="M166.922 36.0723H168.818L171.316 39.7444V36.0723H173.243V42.6942H171.316L168.848 39.0521V42.6942H166.922V36.0723Z" fill="#225E63"/>
<path d="M174.146 36.0723H180.377V37.6976H178.3V42.6942H176.253V37.6976H174.177V36.0723H174.146Z" fill="#225E63"/>
<path d="M99.4293 46.1529L105.359 44.2867L103.433 40.0125C102.018 41.7884 100.603 44.076 99.4293 46.1529ZM97.4127 26.6182L85.7942 0.732422L0.732422 5.54837L24.3005 69.8413L69.6607 55.544C66.7712 51.3902 65.7177 46.4539 69.0587 44.0459C72.7911 41.3369 78.4197 44.4673 82.0016 48.8919C85.4631 43.1128 95.1853 29.6582 97.4127 26.6182Z" fill="#225E63"/>
<path d="M83.1464 19.4337C86.6982 19.4337 89.5877 16.7247 89.5877 13.3536C89.5877 9.98241 86.6982 7.27344 83.1464 7.27344C79.5947 7.27344 76.7051 9.98241 76.7051 13.3536C76.7051 16.6946 79.5947 19.4337 83.1464 19.4337ZM77.879 22.0524H88.4139V49.5936H77.879V22.0524Z" fill="#FEFEFE"/>
<path d="M72.6678 30.0912C72.7581 30.1213 72.8183 30.0912 72.8183 30.0009V23.0177C72.8183 22.9274 72.7581 22.8371 72.6678 22.7769C72.6678 22.7769 71.2832 21.8739 67.0692 21.6331C66.8585 21.5127 63.1563 21.4826 62.163 21.6331C46.8121 22.8672 46.2402 33.974 46.2402 34.4556V37.1646C46.2402 37.4957 46.2402 48.8433 62.163 49.8366C63.7282 49.957 66.7682 49.8366 67.0692 49.8366C70.7414 49.8366 73.2698 48.7229 73.2698 48.7229C73.3601 48.6928 73.4203 48.6025 73.4203 48.5122V41.9805C73.4203 41.8902 73.3601 41.8601 73.2999 41.9203C73.2999 41.9203 72.1561 42.8233 67.1595 43.335C65.7448 43.4855 65.0525 43.4253 64.5408 43.335C57.4373 42.131 57.1062 36.9539 57.1062 36.9539C57.1062 36.8636 57.0761 36.7131 57.0761 36.6529V34.6663C57.0761 34.576 57.0761 34.4255 57.1062 34.3653C57.1062 34.3653 57.5878 28.7969 64.5408 28.1949H67.1595C70.1996 28.5862 72.6678 30.0912 72.6678 30.0912Z" fill="#FEFEFE"/>
<path d="M16.9844 49.502C16.9844 49.5923 17.0446 49.6525 17.1349 49.6525H27.3989C27.4892 49.6525 27.5494 49.5923 27.5494 49.502V41.4955C27.5494 41.4052 27.6096 41.345 27.6999 41.345C27.6999 41.345 44.1042 42.5188 44.1042 31.5325C44.1042 22.8336 33.8101 21.9006 30.4389 22.0511C30.3787 22.0511 17.1349 22.0511 17.1349 22.0511C17.0446 22.0511 16.9844 22.1113 16.9844 22.2016V49.502ZM27.3688 35.2347V28.0409H29.8971C29.8971 28.0409 33.5392 28.1914 33.8402 30.6897C33.9004 30.8703 33.9004 32.1044 33.8402 32.1646C33.3586 35.0842 30.1981 35.2347 30.1981 35.2347H27.3688Z" fill="#FEFEFE"/>
<path d="M83.4444 62.887C84.2872 62.887 84.9494 62.887 86.033 62.4054C89.7654 60.4489 102.377 29.657 115.681 20.1756C115.772 20.1154 115.862 20.0251 115.922 19.9348C116.012 19.8144 116.012 19.694 116.012 19.694C116.012 19.694 116.012 19.0619 114.056 19.0619C102.227 18.7308 89.9159 43.563 83.4444 53.3755C83.3541 53.4959 82.9328 53.3755 82.9328 53.3755C82.9328 53.3755 78.5984 48.2586 74.8359 46.3021C74.7456 46.272 74.3242 46.1215 73.8727 46.1516C73.5717 46.1516 71.826 46.5128 71.0133 47.3556C70.0501 48.379 70.0802 48.9509 70.0802 50.1849C70.0802 50.2752 70.1404 50.6966 70.2608 50.9073C71.1939 52.5327 75.3777 58.3119 78.8392 61.5024C79.3509 61.8937 80.1636 62.887 83.4444 62.887Z" fill="#2BBC5D"/>
<path d="M119.182 10.875H129.024C130.981 10.875 132.546 11.1459 133.72 11.6576C134.924 12.1994 135.917 12.9519 136.67 13.9151C137.452 14.9084 138.024 16.0521 138.355 17.3464C138.716 18.6407 138.897 20.0253 138.897 21.5002C138.897 23.7878 138.626 25.5637 138.114 26.8278C137.603 28.092 136.88 29.1455 135.947 30.0184C135.014 30.8612 134.021 31.4331 132.967 31.7341C131.523 32.1254 130.198 32.306 129.024 32.306H119.182V10.875ZM125.804 15.7211V27.4298H127.429C128.814 27.4298 129.807 27.2793 130.379 26.9783C130.951 26.6773 131.432 26.1355 131.763 25.3831C132.094 24.6306 132.275 23.3664 132.275 21.6507C132.275 19.3631 131.914 17.828 131.161 16.9852C130.409 16.1424 129.205 15.7211 127.459 15.7211H125.804Z" fill="#225E63"/>
<path d="M140.738 25.2332L147.059 24.8419C147.21 25.8653 147.481 26.6479 147.902 27.1897C148.594 28.0626 149.558 28.484 150.822 28.484C151.755 28.484 152.507 28.2733 153.019 27.8218C153.531 27.3703 153.802 26.8586 153.802 26.2867C153.802 25.7449 153.561 25.2332 153.079 24.7817C152.598 24.3302 151.454 23.9389 149.678 23.5476C146.758 22.8855 144.711 22.0126 143.447 20.929C142.183 19.8454 141.581 18.4608 141.581 16.7752C141.581 15.6615 141.912 14.6381 142.544 13.6448C143.176 12.6516 144.14 11.8991 145.434 11.3272C146.728 10.7553 148.474 10.4844 150.701 10.4844C153.44 10.4844 155.547 10.9961 156.962 12.0195C158.407 13.0429 159.25 14.6682 159.52 16.8956L153.26 17.2568C153.079 16.2936 152.748 15.6013 152.206 15.1498C151.664 14.6983 150.942 14.4876 150.009 14.4876C149.226 14.4876 148.655 14.6381 148.263 14.9692C147.872 15.3003 147.691 15.6916 147.691 16.1732C147.691 16.5043 147.842 16.8354 148.173 17.1063C148.474 17.3772 149.226 17.6481 150.4 17.8889C153.29 18.521 155.367 19.1531 156.631 19.7852C157.895 20.4173 158.798 21.23 159.37 22.1631C159.942 23.0961 160.213 24.1797 160.213 25.3536C160.213 26.7382 159.821 28.0024 159.069 29.1462C158.316 30.3201 157.233 31.193 155.878 31.795C154.524 32.397 152.778 32.698 150.701 32.698C147.059 32.698 144.531 32.0057 143.116 30.591C141.732 29.1763 140.949 27.4004 140.738 25.2332Z" fill="#225E63"/>
<path d="M161.883 25.2332L168.204 24.8419C168.354 25.8653 168.625 26.6479 169.047 27.1897C169.739 28.0626 170.702 28.484 171.966 28.484C172.899 28.484 173.652 28.2733 174.163 27.8218C174.675 27.3703 174.946 26.8586 174.946 26.2867C174.946 25.7449 174.705 25.2332 174.224 24.7817C173.742 24.3302 172.598 23.9389 170.822 23.5476C167.903 22.8855 165.856 22.0126 164.592 20.929C163.358 19.8454 162.726 18.4608 162.726 16.7752C162.726 15.6615 163.057 14.6381 163.689 13.6448C164.321 12.6516 165.284 11.8991 166.578 11.3272C167.873 10.7553 169.618 10.4844 171.846 10.4844C174.585 10.4844 176.692 10.9961 178.107 12.0195C179.551 13.0429 180.394 14.6682 180.665 16.8956L174.404 17.2568C174.224 16.2936 173.893 15.6013 173.351 15.1498C172.809 14.6983 172.087 14.4876 171.154 14.4876C170.371 14.4876 169.799 14.6381 169.408 14.9692C169.016 15.3003 168.836 15.6916 168.836 16.1732C168.836 16.5043 168.986 16.8354 169.317 17.1063C169.618 17.3772 170.371 17.6481 171.545 17.8889C174.434 18.521 176.511 19.1531 177.775 19.7852C179.04 20.4173 179.943 21.23 180.515 22.1631C181.086 23.0961 181.357 24.1797 181.357 25.3536C181.357 26.7382 180.966 28.0024 180.214 29.1462C179.461 30.3201 178.377 31.193 177.023 31.795C175.668 32.397 173.923 32.698 171.846 32.698C168.204 32.698 165.675 32.0057 164.261 30.591C162.846 29.1763 162.063 27.4004 161.883 25.2332Z" fill="#225E63"/>
</svg>
