<svg width="100" height="100" viewBox="0 0 100 100" fill="none" xmlns="http://www.w3.org/2000/svg">
<circle opacity="0.1" cx="50" cy="50" r="50" fill="#00B833"/>
<path d="M38.6363 71.4468H28.5566V52.1454H32.8459L38.6363 71.4468ZM67.1574 43.5669H54.2919V34.9885C54.2919 33.2822 53.6141 31.6457 52.4075 30.4391C51.2009 29.2325 49.5645 28.5547 47.8581 28.5547H45.7135V37.1331L39.4941 44.9073C37.9675 46.8157 37.1355 49.1868 37.1351 51.6307V54.29L41.6387 69.3022H59.5183C61.4317 69.3024 63.2901 68.663 64.7982 67.4855C66.3064 66.3081 67.3776 64.6603 67.8416 62.8041L71.318 48.8963C71.476 48.264 71.4879 47.604 71.3527 46.9664C71.2175 46.3288 70.9388 45.7305 70.5377 45.2167C70.1367 44.703 69.6238 44.2874 69.0381 44.0015C68.4524 43.7157 67.8092 43.567 67.1574 43.5669Z" fill="#00B833"/>
</svg>
