<svg width="32" height="32" viewBox="0 0 32 32" fill="none" xmlns="http://www.w3.org/2000/svg">
<path d="M26.2051 7.36986L17.9203 2.57534C16.5779 1.80822 14.8902 1.80822 13.5094 2.57534L5.18627 7.36986C3.84382 8.17534 3 9.63288 3 11.2055V20.7945C3 22.3671 3.84382 23.8247 5.18627 24.6301L13.5094 29.4247C14.1998 29.8082 14.9669 30 15.6957 30C16.4628 30 17.2299 29.8082 17.882 29.4247L26.2051 24.6301C27.5476 23.863 28.3914 22.3671 28.3914 20.7945V11.2055C28.4298 9.63288 27.5859 8.17534 26.2051 7.36986ZM24.1723 21.0247L15.8491 25.8192C15.7724 25.8575 15.6573 25.8575 15.5806 25.8192L7.25747 21.0247C7.18076 20.9863 7.10405 20.8712 7.10405 20.7945V11.2055C7.10405 11.0904 7.14241 11.0137 7.25747 10.9753L15.5806 6.18082C15.619 6.14247 15.6573 6.14247 15.7341 6.14247C15.7724 6.14247 15.8491 6.14247 15.8875 6.18082L24.2106 10.9753C24.2874 11.0137 24.3641 11.1288 24.3641 11.2055V13.9288H15.619C14.4683 13.9288 13.5478 14.8493 13.5478 16C13.5478 17.1507 14.4683 18.0712 15.619 18.0712H24.2874V20.7945C24.2874 20.9096 24.249 20.9863 24.1723 21.0247Z" fill="white"/>
</svg>
