<svg width="100" height="100" viewBox="0 0 100 100" fill="none" xmlns="http://www.w3.org/2000/svg">
<rect x="0.5" y="0.5" width="99" height="99" rx="49.5" fill="white"/>
<rect x="0.5" y="0.5" width="99" height="99" rx="49.5" stroke="#F0F3F5"/>
<path d="M32.6291 28.5094C31.5339 28.5121 30.4834 28.9494 29.7095 29.7253C28.9356 30.5006 28.501 31.5518 28.501 32.6477L28.501 46.1223C28.503 47.2169 28.9349 48.2674 29.7055 49.046L50.9496 70.2901C51.7235 71.0647 52.774 71.5 53.8686 71.5C54.9638 71.5 56.0136 71.0647 56.7882 70.2901L70.2814 56.8061C71.0567 56.0302 71.492 54.9783 71.492 53.8817C71.492 52.7851 71.0567 51.7339 70.2814 50.958L49.0373 29.7139C48.2614 28.9393 47.2102 28.5027 46.1136 28.5L32.6291 28.5094ZM42.1855 54.1972L42.1855 54.1979C41.5049 53.5193 41.1216 52.5974 41.1203 51.6361C41.1189 50.6749 41.5002 49.7523 42.1795 49.0725C42.8588 48.3919 43.7807 48.0099 44.742 48.0099C45.7039 48.0099 46.6257 48.3919 47.3051 49.0725C47.9844 49.7524 48.365 50.675 48.3643 51.6361C48.363 52.5974 47.9797 53.5192 47.2984 54.1979C46.6198 54.8738 45.7006 55.2538 44.7421 55.2538C43.7842 55.2538 42.865 54.8738 42.1858 54.1979L42.1855 54.1972ZM61.0593 49.0464C61.7405 49.725 62.1238 50.6469 62.1252 51.6082C62.1258 52.5694 61.7452 53.4919 61.066 54.1718C60.386 54.8517 59.4641 55.2344 58.5028 55.2344C57.5416 55.2344 56.6197 54.8517 55.9403 54.1718C55.2611 53.4919 54.8798 52.5693 54.8811 51.6082C54.8824 50.6469 55.2657 49.725 55.9463 49.0464C56.6243 48.3678 57.5435 47.9865 58.5027 47.9865C59.4619 47.9865 60.3819 48.3678 61.059 49.0464L61.0593 49.0464ZM52.3915 41.1626C52.4775 41.1572 52.5621 41.1885 52.6241 41.2485C52.6861 41.3085 52.7195 41.3919 52.7168 41.4779L52.7168 61.7561C52.7115 61.9334 52.5688 62.0761 52.3915 62.0814L50.8437 62.0814C50.6677 62.0761 50.5284 61.9321 50.5284 61.7561L50.5284 41.5069C50.5284 41.4209 50.5624 41.3382 50.6237 41.2776C50.6843 41.2162 50.767 41.1822 50.853 41.1822L52.3915 41.1626ZM37.9423 32.906C38.6089 33.5706 38.9835 34.4725 38.9842 35.413C38.9849 36.3536 38.6116 37.2562 37.947 37.9221C37.2817 38.5874 36.3798 38.9613 35.4386 38.9613C34.498 38.9613 33.5954 38.5874 32.9309 37.9221C32.2657 37.2562 31.8924 36.3536 31.8937 35.413C31.8944 34.4725 32.269 33.5705 32.9349 32.906C33.6049 32.2494 34.5068 31.8835 35.4447 31.8888C36.3826 31.8942 37.2805 32.2701 37.9425 32.9347L37.9423 32.906Z" fill="#4071DF"/>
<path d="M45.7499 50.6235C45.3432 50.2142 44.73 50.0902 44.1967 50.3102C43.6634 50.5302 43.3154 51.0501 43.3154 51.6267C43.3154 52.2034 43.6634 52.7233 44.1967 52.9433C44.73 53.1632 45.3432 53.0393 45.7499 52.63C46.3011 52.0747 46.3011 51.1788 45.7499 50.6235Z" fill="#4071DF"/>
<path d="M57.4948 52.6412C57.9021 53.0472 58.514 53.1685 59.046 52.9479C59.5772 52.7272 59.9239 52.2086 59.9239 51.6327C59.9239 51.0574 59.5772 50.5381 59.046 50.3175C58.514 50.0968 57.9021 50.2182 57.4948 50.6248C57.2268 50.8921 57.0762 51.2547 57.0762 51.6327C57.0762 52.0113 57.2268 52.3739 57.4948 52.6412Z" fill="#4071DF"/>
</svg>
