<svg width="100" height="100" viewBox="0 0 100 100" fill="none" xmlns="http://www.w3.org/2000/svg">
<rect x="0.5" y="0.5" width="99" height="99" rx="49.5" fill="white"/>
<rect x="0.5" y="0.5" width="99" height="99" rx="49.5" stroke="#F0F3F5"/>
<path d="M68.9839 47.0053C68.2799 47.0053 67.6186 47.144 66.9892 47.368V37.0001H56.6213C56.8453 36.3707 56.984 35.7094 56.984 34.9948C56.984 31.6774 54.296 29 50.9893 29C47.6825 29 44.9945 31.688 44.9945 34.9948C44.9945 35.6988 45.1438 36.3707 45.3572 37.0001H35V69H45.3679C45.1439 68.3707 45.0052 67.7094 45.0052 66.9947C45.0052 63.6773 47.6932 60.9999 51 60.9999C54.3068 60.9999 56.9947 63.6879 56.9947 66.9947C56.9947 67.6987 56.8561 68.3707 56.6321 69H67V58.6321C67.6293 58.8561 68.2906 58.9948 68.9946 58.9948C72.312 58.9948 74.9894 56.3068 74.9894 53C74.9787 49.6826 72.3014 47.0053 68.984 47.0053L68.9839 47.0053Z" fill="#4071DF"/>
</svg>
