<svg width="100" height="100" viewBox="0 0 100 100" fill="none" xmlns="http://www.w3.org/2000/svg">
<rect x="0.5" y="0.5" width="99" height="99" rx="49.5" fill="white"/>
<rect x="0.5" y="0.5" width="99" height="99" rx="49.5" stroke="#F0F3F5"/>
<path d="M42.4217 59.5912C44.8949 59.3656 47.4389 59.2527 50.0141 59.2527C52.5893 59.2527 55.1176 59.3656 57.5831 59.5912C58.1012 56.9 58.4075 53.9189 58.4545 50.793L41.542 50.7933C41.589 53.9193 41.8953 56.9086 42.4134 59.5994L42.4217 59.5912Z" fill="#4071DF"/>
<path d="M50.0088 39.1268C52.4586 39.1268 54.8767 39.0138 57.2399 38.8045C55.7481 32.3914 53.0317 28 50.0088 28C46.986 28 44.2538 32.391 42.7539 38.8045C45.1251 39.0221 47.551 39.1347 50.0088 39.1347V39.1268Z" fill="#4071DF"/>
<path d="M45.9003 28.3867C40.31 29.442 35.4575 32.6166 32.2227 37.04C35.0334 37.7489 38.0405 38.2809 41.1656 38.6351C42.2098 34.083 43.8667 30.4736 45.9 28.3868L45.9003 28.3867Z" fill="#4071DF"/>
<path d="M60.0255 49.1819H71.9992C71.8579 45.2665 70.688 41.6005 68.7409 38.4658C65.7496 39.2553 62.5224 39.8434 59.1621 40.2304C59.6802 42.9618 59.9788 45.9832 60.0258 49.1897L60.0255 49.1819Z" fill="#4071DF"/>
<path d="M67.7819 37.04C64.547 32.6166 59.7026 29.4424 54.1123 28.3867C56.1379 30.4736 57.7948 34.083 58.839 38.635C61.9718 38.2887 64.9789 37.7488 67.7896 37.0399L67.7819 37.04Z" fill="#4071DF"/>
<path d="M57.5845 40.3906C55.1113 40.6161 52.5754 40.737 50.0155 40.737C47.4561 40.737 44.9044 40.6161 42.4231 40.3906C41.9051 43.0735 41.5987 46.0546 41.5518 49.1805H58.4562C58.4092 46.0625 58.1029 43.0814 57.5848 40.3985L57.5845 40.3906Z" fill="#4071DF"/>
<path d="M50.0088 60.8652C47.5514 60.8652 45.1251 60.9782 42.7539 61.1875C44.2534 67.6089 46.9702 72.0003 50.0088 72.0003C53.0474 72.0003 55.7481 67.6092 57.2399 61.1875C54.8845 60.9782 52.4582 60.8652 50.0088 60.8652Z" fill="#4071DF"/>
<path d="M59.1621 59.7612C62.5382 60.1399 65.7651 60.728 68.749 61.5096C70.6883 58.3674 71.858 54.7094 71.9996 50.7861H60.026C59.979 53.9927 59.6803 57.0223 59.1623 59.7534L59.1621 59.7612Z" fill="#4071DF"/>
<path d="M54.1125 71.6044C59.7105 70.5408 64.5554 67.3667 67.7973 62.9271C65.0024 62.2182 61.9873 61.6862 58.839 61.3398C57.8025 65.8998 56.1379 69.5097 54.1123 71.6047L54.1125 71.6044Z" fill="#4071DF"/>
<path d="M39.9725 50.7934H28.0068C28.1481 54.7089 29.3181 58.3748 31.2575 61.5169C34.2411 60.7353 37.4679 60.1472 40.8444 59.7685C40.3263 57.0292 40.0277 54.0079 39.9807 50.793L39.9725 50.7934Z" fill="#4071DF"/>
<path d="M32.208 62.927C35.4429 67.3583 40.3027 70.5408 45.9009 71.6043C43.8673 69.5095 42.2108 65.908 41.1666 61.3477C38.0183 61.694 35.0108 62.226 32.2082 62.9266L32.208 62.927Z" fill="#4071DF"/>
<path d="M40.8371 40.2231C37.4768 39.8444 34.2577 39.2484 31.2583 38.4668C29.3112 41.609 28.1412 45.267 28 49.1829H39.9737C40.0207 45.9763 40.3193 42.955 40.8374 40.2236L40.8371 40.2231Z" fill="#4071DF"/>
</svg>
