<svg width="406" height="253" viewBox="0 0 406 253" fill="none" xmlns="http://www.w3.org/2000/svg">
<rect x="0.427998" y="0.427998" width="271.16" height="233.128" rx="14.5322" fill="white" stroke="#DCE0E0" stroke-width="0.855997"/>
<rect x="272.017" y="55.3955" width="272.016" height="0.826774" transform="rotate(-180 272.017 55.3955)" fill="#D9D9D9"/>
<path d="M36.1843 36.0335C33.6246 36.0335 31.5768 34.3839 31.1407 31.9569L32.7713 31.426C33.0368 33.2842 34.4588 34.4977 36.2222 34.4977C38.0425 34.4977 39.218 33.6444 39.218 32.3172C39.218 28.7715 31.6716 30.6297 31.6716 25.9274C31.6716 23.8606 33.5298 22.4575 36.1464 22.4575C38.5734 22.4575 40.4505 23.7658 40.7918 25.7377L39.218 26.3445C38.9526 24.9035 37.8149 23.9933 36.1464 23.9933C34.4399 23.9933 33.416 24.7328 33.416 25.9274C33.416 28.9611 41.0004 26.9892 41.0004 32.2982C41.0004 34.5546 39.0853 36.0335 36.1843 36.0335ZM47.1994 36.0335C44.3553 36.0335 42.4592 34.0616 42.4592 31.1037C42.4592 28.1458 44.3553 26.1738 47.1994 26.1738C49.4178 26.1738 51.0485 27.3873 51.3898 29.2834L49.797 29.6058C49.5885 28.4492 48.5835 27.6149 47.2373 27.6149C45.3602 27.6149 44.1467 28.999 44.1467 31.1037C44.1467 33.2083 45.3602 34.5925 47.2373 34.5925C48.5835 34.5925 49.5695 33.853 49.835 32.5826L51.4087 32.905C50.9916 34.8769 49.3989 36.0335 47.1994 36.0335ZM53.4153 35.8818V22.4575H55.027V28.2027C55.7286 26.8375 56.8852 26.1738 58.2883 26.1738C60.4498 26.1738 61.8719 27.5201 61.8719 29.5868V35.8818H60.2602V29.8902C60.2602 28.4871 59.388 27.6338 57.928 27.6338C56.1647 27.6338 55.027 29.2266 55.027 31.7863V35.8818H53.4153ZM73.1344 30.6676C73.1344 30.8951 73.1154 31.2364 73.0965 31.4071H65.55C65.6638 33.3411 66.8773 34.6115 68.6027 34.6115C70.0627 34.6115 71.0676 33.9289 71.3521 32.7343L72.8689 33.0946C72.3949 34.9528 70.8022 36.0335 68.6027 36.0335C65.7396 36.0335 63.9383 33.8151 63.9383 31.1037C63.9383 28.3923 65.6827 26.1738 68.5648 26.1738C71.39 26.1738 73.1344 28.2027 73.1344 30.6676ZM65.6448 30.0608H71.4279C71.2762 28.6008 70.2523 27.5201 68.5648 27.5201C67.0669 27.5201 65.9672 28.4681 65.6448 30.0608ZM79.2669 36.0335C76.29 36.0335 74.6594 33.9099 74.6594 31.1037C74.6594 28.2975 76.29 26.1738 79.248 26.1738C80.5183 26.1738 81.7698 26.7996 82.3765 27.6907V22.4575H83.9882V35.8818H82.3765V34.4977C81.9404 35.3699 80.67 36.0335 79.2669 36.0335ZM79.4186 34.5925C81.2957 34.5925 82.5282 33.2083 82.5282 31.1037C82.5282 28.999 81.2957 27.6149 79.4186 27.6149C77.5415 27.6149 76.309 28.999 76.309 31.1037C76.309 33.2083 77.5415 34.5925 79.4186 34.5925ZM94.9018 26.3255V35.8818H93.2901V34.0805C92.6265 35.2182 91.4699 36.0335 90.0099 36.0335C88.019 36.0335 86.5969 34.6873 86.5969 32.6585V26.3255H88.2086V32.3551C88.2086 33.6444 89.0239 34.5735 90.3702 34.5735C92.1525 34.5735 93.2901 33.0377 93.2901 30.5159V26.3255H94.9018ZM97.5217 35.8818V22.4575H99.1334V35.8818H97.5217ZM110.39 30.6676C110.39 30.8951 110.371 31.2364 110.352 31.4071H102.805C102.919 33.3411 104.133 34.6115 105.858 34.6115C107.318 34.6115 108.323 33.9289 108.607 32.7343L110.124 33.0946C109.65 34.9528 108.057 36.0335 105.858 36.0335C102.995 36.0335 101.194 33.8151 101.194 31.1037C101.194 28.3923 102.938 26.1738 105.82 26.1738C108.645 26.1738 110.39 28.2027 110.39 30.6676ZM102.9 30.0608H108.683C108.531 28.6008 107.508 27.5201 105.82 27.5201C104.322 27.5201 103.222 28.4681 102.9 30.0608ZM120.242 36.0335C117.929 36.0335 116.678 34.5925 116.261 33.2463L117.645 32.6395C118.005 33.7582 118.764 34.6683 120.242 34.6683C121.418 34.6683 122.177 33.9857 122.177 33.2083C122.177 30.7624 116.678 32.3361 116.678 28.7146C116.678 27.1977 117.986 26.1738 120.034 26.1738C121.721 26.1738 123.181 27.1219 123.58 28.525L122.233 29.1128C121.968 28.1268 121.02 27.5011 119.996 27.5011C118.915 27.5011 118.233 27.9372 118.233 28.6956C118.233 30.7434 123.769 29.2455 123.75 33.1894C123.75 34.8579 122.347 36.0335 120.242 36.0335ZM134.101 26.3255V35.8818H132.49V34.0805C131.826 35.2182 130.669 36.0335 129.209 36.0335C127.218 36.0335 125.796 34.6873 125.796 32.6585V26.3255H127.408V32.3551C127.408 33.6444 128.223 34.5735 129.57 34.5735C131.352 34.5735 132.49 33.0377 132.49 30.5159V26.3255H134.101ZM141.442 36.0335C140.039 36.0335 138.769 35.3699 138.333 34.4977V35.8818H136.721V22.4575H138.333V27.6907C138.94 26.7996 140.191 26.1738 141.461 26.1738C144.419 26.1738 146.05 28.2975 146.05 31.1037C146.05 33.9099 144.419 36.0335 141.442 36.0335ZM141.291 34.5925C143.168 34.5925 144.4 33.2083 144.4 31.1037C144.4 28.999 143.168 27.6149 141.291 27.6149C139.414 27.6149 138.2 28.999 138.2 31.1037C138.2 33.2083 139.414 34.5925 141.291 34.5925ZM151.221 36.0335C148.907 36.0335 147.656 34.5925 147.239 33.2463L148.623 32.6395C148.983 33.7582 149.742 34.6683 151.221 34.6683C152.396 34.6683 153.155 33.9857 153.155 33.2083C153.155 30.7624 147.656 32.3361 147.656 28.7146C147.656 27.1977 148.964 26.1738 151.012 26.1738C152.7 26.1738 154.16 27.1219 154.558 28.525L153.212 29.1128C152.946 28.1268 151.998 27.5011 150.974 27.5011C149.893 27.5011 149.211 27.9372 149.211 28.6956C149.211 30.7434 154.747 29.2455 154.728 33.1894C154.728 34.8579 153.325 36.0335 151.221 36.0335ZM160.891 36.0335C158.047 36.0335 156.151 34.0616 156.151 31.1037C156.151 28.1458 158.047 26.1738 160.891 26.1738C163.109 26.1738 164.74 27.3873 165.081 29.2834L163.489 29.6058C163.28 28.4492 162.275 27.6149 160.929 27.6149C159.052 27.6149 157.838 28.999 157.838 31.1037C157.838 33.2083 159.052 34.5925 160.929 34.5925C162.275 34.5925 163.261 33.853 163.526 32.5826L165.1 32.905C164.683 34.8769 163.09 36.0335 160.891 36.0335ZM172.7 27.8993C172.34 27.7476 171.885 27.6718 171.468 27.6718C169.951 27.6718 168.718 29.1317 168.718 32.2413V35.8818H167.107V26.3255H168.718V28.2595C169.268 27.046 170.52 26.1738 171.695 26.1738C172.094 26.1738 172.473 26.2307 172.795 26.3445L172.7 27.8993ZM174.251 22.4575H176.11V24.5053H174.251V22.4575ZM174.365 35.8818V26.3255H175.977V35.8818H174.365ZM178.587 39.3327V26.3255H180.199V27.7097C180.711 26.8375 181.962 26.1738 183.346 26.1738C186.285 26.1738 187.916 28.2975 187.916 31.1037C187.916 33.9099 186.247 36.0335 183.308 36.0335C182.095 36.0335 180.843 35.4268 180.199 34.5546V39.3327H178.587ZM183.157 34.5925C185.053 34.5925 186.285 33.2083 186.285 31.1037C186.285 28.999 185.053 27.6149 183.157 27.6149C181.298 27.6149 180.066 28.999 180.066 31.1037C180.066 33.2083 181.298 34.5925 183.157 34.5925ZM194.927 35.806C194.453 35.9766 193.941 36.0335 193.429 36.0335C191.798 36.0335 190.604 35.1234 190.604 33.0187V27.7476H188.821V26.3255H190.604V23.4245H192.215V26.3255H194.775V27.7476H192.215V33.0756C192.215 34.0805 192.784 34.5735 193.618 34.5735C193.998 34.5735 194.434 34.5166 194.813 34.327L194.927 35.806ZM196.694 22.4575H198.552V24.5053H196.694V22.4575ZM196.807 35.8818V26.3255H198.419V35.8818H196.807ZM205.333 36.0335C202.489 36.0335 200.479 33.9668 200.479 31.1037C200.479 28.2406 202.489 26.1738 205.333 26.1738C208.158 26.1738 210.206 28.2406 210.206 31.1037C210.206 33.9668 208.158 36.0335 205.333 36.0335ZM205.333 34.5925C207.248 34.5925 208.538 33.1515 208.538 31.1037C208.538 29.0559 207.248 27.6149 205.333 27.6149C203.418 27.6149 202.129 29.0559 202.129 31.1037C202.129 33.1515 203.418 34.5925 205.333 34.5925ZM212.269 35.8818V26.3255H213.88V28.1268C214.544 26.9892 215.701 26.1738 217.161 26.1738C219.151 26.1738 220.573 27.5201 220.573 29.5489V35.8818H218.962V29.8523C218.962 28.5629 218.146 27.6338 216.8 27.6338C215.018 27.6338 213.88 29.1697 213.88 31.6915V35.8818H212.269Z" fill="#4071DF"/>
<path d="M34.9811 85.703C32.972 85.703 31.3647 84.4083 31.0224 82.5033L32.3023 82.0866C32.5106 83.5451 33.6268 84.4976 35.0109 84.4976C36.4396 84.4976 37.3623 83.8279 37.3623 82.7861C37.3623 80.0031 31.4391 81.4616 31.4391 77.7707C31.4391 76.1486 32.8976 75.0473 34.9513 75.0473C36.8563 75.0473 38.3296 76.0742 38.5975 77.6219L37.3623 78.0982C37.1539 76.9671 36.261 76.2527 34.9513 76.2527C33.6119 76.2527 32.8083 76.8332 32.8083 77.7707C32.8083 80.1519 38.7612 78.6042 38.7612 82.7712C38.7612 84.5422 37.2581 85.703 34.9811 85.703ZM44.3118 85.5245C43.9397 85.6584 43.5379 85.703 43.1361 85.703C41.8562 85.703 40.9186 84.9887 40.9186 83.3367V79.1995H39.5197V78.0833H40.9186V75.8063H42.1836V78.0833H44.1927V79.1995H42.1836V83.3814C42.1836 84.1702 42.6301 84.5571 43.2849 84.5571C43.5825 84.5571 43.9248 84.5125 44.2225 84.3636L44.3118 85.5245ZM48.455 77.9642C50.2706 77.9642 51.5356 79.0357 51.5356 80.777V85.584H50.2855V84.3041C49.8539 85.1673 48.8717 85.703 47.7853 85.703C46.2822 85.703 45.2553 84.7803 45.2553 83.4856C45.2553 82.042 46.431 81.2532 48.8271 81.0151L50.2855 80.8514V80.7026C50.2855 79.6757 49.5563 79.0209 48.455 79.0209C47.4281 79.0209 46.6989 79.631 46.5947 80.643L45.419 80.4198C45.6422 78.9316 46.8775 77.9642 48.455 77.9642ZM47.9788 84.6613C49.4372 84.6613 50.2855 83.6939 50.2855 82.1908V81.8336L48.8271 81.9973C47.3091 82.161 46.5203 82.6819 46.5203 83.4707C46.5203 84.1702 47.1156 84.6613 47.9788 84.6613ZM57.4023 79.2292C57.4023 79.2292 57.194 79.1697 56.8963 79.1697C55.7206 79.1697 54.8574 80.2859 54.8574 82.7266V85.584H53.5924V78.0833H54.8574V79.6013C55.2444 78.6488 56.1373 77.9642 57.06 77.9642C57.313 77.9642 57.4767 77.994 57.4767 77.994L57.4023 79.2292ZM63.1763 85.5245C62.8043 85.6584 62.4024 85.703 62.0006 85.703C60.7207 85.703 59.7831 84.9887 59.7831 83.3367V79.1995H58.3842V78.0833H59.7831V75.8063H61.0481V78.0833H63.0573V79.1995H61.0481V83.3814C61.0481 84.1702 61.4946 84.5571 62.1494 84.5571C62.4471 84.5571 62.7894 84.5125 63.087 84.3636L63.1763 85.5245Z" fill="#484848"/>
<circle cx="96.1625" cy="80.4525" r="8.52282" fill="#008442"/>
<path d="M99.8815 78.251L94.7678 83.3647L92.4434 81.0403" stroke="white" stroke-width="1.27842" stroke-linecap="round" stroke-linejoin="round"/>
<path d="M110.808 84.4102V76.3075H111.861V84.4102H110.808ZM113.497 84.4102V78.5763H114.481V79.6759C114.77 78.9814 115.349 78.4837 116.24 78.4837C117.19 78.4837 117.93 78.9235 118.139 79.7106C118.451 79.0161 119.146 78.4837 120.026 78.4837C121.276 78.4837 122.063 79.2708 122.063 80.4978V84.4102H121.079V80.6945C121.079 79.8958 120.627 79.3518 119.806 79.3518C118.81 79.3518 118.266 80.2431 118.266 81.4816V84.4102H117.282V80.6945C117.282 79.8958 116.831 79.3518 116.02 79.3518C115.025 79.3518 114.481 80.2431 114.481 81.4816V84.4102H113.497ZM123.659 84.4102V78.5763H124.643V79.6759C124.933 78.9814 125.511 78.4837 126.403 78.4837C127.352 78.4837 128.093 78.9235 128.301 79.7106C128.613 79.0161 129.308 78.4837 130.188 78.4837C131.438 78.4837 132.225 79.2708 132.225 80.4978V84.4102H131.241V80.6945C131.241 79.8958 130.79 79.3518 129.968 79.3518C128.972 79.3518 128.428 80.2431 128.428 81.4816V84.4102H127.444V80.6945C127.444 79.8958 126.993 79.3518 126.183 79.3518C125.187 79.3518 124.643 80.2431 124.643 81.4816V84.4102H123.659ZM139.1 81.227C139.1 81.3659 139.088 81.5742 139.077 81.6784H134.47C134.539 82.8591 135.28 83.6346 136.333 83.6346C137.225 83.6346 137.838 83.2179 138.012 82.4887L138.938 82.7086C138.648 83.843 137.676 84.5028 136.333 84.5028C134.585 84.5028 133.486 83.1485 133.486 81.4932C133.486 79.838 134.551 78.4837 136.31 78.4837C138.035 78.4837 139.1 79.7222 139.1 81.227ZM134.528 80.8566H138.058C137.965 79.9653 137.34 79.3055 136.31 79.3055C135.396 79.3055 134.724 79.8843 134.528 80.8566ZM142.843 84.5028C141.026 84.5028 140.031 83.2063 140.031 81.4932C140.031 79.7801 141.026 78.4837 142.832 78.4837C143.607 78.4837 144.371 78.8657 144.742 79.4097V76.2149H145.726V84.4102H144.742V83.5652C144.476 84.0976 143.7 84.5028 142.843 84.5028ZM142.936 83.623C144.082 83.623 144.834 82.7781 144.834 81.4932C144.834 80.2084 144.082 79.3634 142.936 79.3634C141.79 79.3634 141.038 80.2084 141.038 81.4932C141.038 82.7781 141.79 83.623 142.936 83.623ZM147.249 76.2149H148.383V77.4651H147.249V76.2149ZM147.318 84.4102V78.5763H148.302V84.4102H147.318ZM152.072 78.4837C153.484 78.4837 154.468 79.3171 154.468 80.6714V84.4102H153.495V83.4147C153.16 84.0861 152.396 84.5028 151.551 84.5028C150.382 84.5028 149.583 83.7851 149.583 82.7781C149.583 81.6553 150.497 81.0418 152.361 80.8566L153.495 80.7293V80.6135C153.495 79.8148 152.928 79.3055 152.072 79.3055C151.273 79.3055 150.706 79.7801 150.625 80.5672L149.71 80.3936C149.884 79.2361 150.845 78.4837 152.072 78.4837ZM151.701 83.6925C152.836 83.6925 153.495 82.9401 153.495 81.771V81.4932L152.361 81.6205C151.18 81.7479 150.567 82.153 150.567 82.7665C150.567 83.3105 151.03 83.6925 151.701 83.6925ZM159.136 84.3639C158.846 84.468 158.534 84.5028 158.221 84.5028C157.226 84.5028 156.497 83.9471 156.497 82.6623V79.4444H155.409V78.5763H156.497V76.8053H157.48V78.5763H159.043V79.4444H157.48V82.697C157.48 83.3105 157.828 83.6115 158.337 83.6115C158.569 83.6115 158.835 83.5767 159.066 83.461L159.136 84.3639ZM165.415 81.227C165.415 81.3659 165.404 81.5742 165.392 81.6784H160.785C160.855 82.8591 161.595 83.6346 162.649 83.6346C163.54 83.6346 164.153 83.2179 164.327 82.4887L165.253 82.7086C164.964 83.843 163.991 84.5028 162.649 84.5028C160.901 84.5028 159.801 83.1485 159.801 81.4932C159.801 79.838 160.866 78.4837 162.626 78.4837C164.35 78.4837 165.415 79.7222 165.415 81.227ZM160.843 80.8566H164.373C164.281 79.9653 163.656 79.3055 162.626 79.3055C161.711 79.3055 161.04 79.8843 160.843 80.8566ZM166.682 84.4102V76.2149H167.666V84.4102H166.682ZM173.102 78.5763H174.109L171.053 86.5168H170.046L170.891 84.3291L168.611 78.5763H169.676L171.389 83.0443L173.102 78.5763ZM173.871 85.6371L174.543 83.2063H175.862L174.566 85.6371H173.871ZM182.727 84.5028C181.164 84.5028 179.914 83.4957 179.648 82.0141L180.643 81.69C180.805 82.8244 181.673 83.5652 182.75 83.5652C183.861 83.5652 184.579 83.0443 184.579 82.234C184.579 80.0695 179.972 81.2038 179.972 78.3332C179.972 77.0715 181.106 76.2149 182.704 76.2149C184.185 76.2149 185.331 77.0136 185.54 78.2174L184.579 78.5878C184.417 77.7081 183.722 77.1525 182.704 77.1525C181.662 77.1525 181.037 77.604 181.037 78.3332C181.037 80.1852 185.667 78.9814 185.667 82.2225C185.667 83.5999 184.498 84.5028 182.727 84.5028ZM192.171 81.227C192.171 81.3659 192.16 81.5742 192.148 81.6784H187.541C187.611 82.8591 188.352 83.6346 189.405 83.6346C190.296 83.6346 190.91 83.2179 191.083 82.4887L192.009 82.7086C191.72 83.843 190.748 84.5028 189.405 84.5028C187.657 84.5028 186.557 83.1485 186.557 81.4932C186.557 79.838 187.622 78.4837 189.382 78.4837C191.106 78.4837 192.171 79.7222 192.171 81.227ZM187.599 80.8566H191.13C191.037 79.9653 190.412 79.3055 189.382 79.3055C188.467 79.3055 187.796 79.8843 187.599 80.8566ZM193.438 86.5168V78.5763H194.422V79.4213C194.735 78.8888 195.498 78.4837 196.343 78.4837C198.138 78.4837 199.133 79.7801 199.133 81.4932C199.133 83.2063 198.114 84.5028 196.32 84.5028C195.579 84.5028 194.816 84.1324 194.422 83.5999V86.5168H193.438ZM196.228 83.623C197.385 83.623 198.138 82.7781 198.138 81.4932C198.138 80.2084 197.385 79.3634 196.228 79.3634C195.093 79.3634 194.341 80.2084 194.341 81.4932C194.341 82.7781 195.093 83.623 196.228 83.623ZM202.731 84.4102L202.719 83.4957L205.763 80.8682C206.712 80.0463 207.118 79.375 207.118 78.6457C207.118 77.7429 206.516 77.1525 205.567 77.1525C204.432 77.1525 203.796 77.9512 203.911 79.155L202.893 79.0856C202.765 77.384 203.877 76.2149 205.567 76.2149C207.164 76.2149 208.206 77.1757 208.206 78.6457C208.206 79.6296 207.662 80.5325 206.411 81.5858L204.212 83.461H208.206V84.4102H202.731ZM212 84.4102L211.988 83.4957L215.032 80.8682C215.982 80.0463 216.387 79.375 216.387 78.6457C216.387 77.7429 215.785 77.1525 214.836 77.1525C213.701 77.1525 213.065 77.9512 213.18 79.155L212.162 79.0856C212.034 77.384 213.146 76.2149 214.836 76.2149C216.433 76.2149 217.475 77.1757 217.475 78.6457C217.475 79.6296 216.931 80.5325 215.681 81.5858L213.481 83.461H217.475V84.4102H212ZM221.706 84.5028C219.669 84.5028 218.604 82.8475 218.604 80.3588C218.604 77.8702 219.669 76.2149 221.706 76.2149C223.72 76.2149 224.808 77.8702 224.808 80.3588C224.808 82.8475 223.72 84.5028 221.706 84.5028ZM221.706 83.5536C223.014 83.5536 223.72 82.3035 223.72 80.3588C223.72 78.4142 223.014 77.1525 221.706 77.1525C220.375 77.1525 219.681 78.4142 219.681 80.3588C219.681 82.3035 220.375 83.5536 221.706 83.5536ZM225.621 84.4102L225.609 83.4957L228.654 80.8682C229.603 80.0463 230.008 79.375 230.008 78.6457C230.008 77.7429 229.406 77.1525 228.457 77.1525C227.322 77.1525 226.686 77.9512 226.802 79.155L225.783 79.0856C225.656 77.384 226.767 76.2149 228.457 76.2149C230.054 76.2149 231.096 77.1757 231.096 78.6457C231.096 79.6296 230.552 80.5325 229.302 81.5858L227.103 83.461H231.096V84.4102H225.621ZM234.776 84.5028C233.178 84.5028 232.032 83.5767 231.882 82.1646L232.877 82.0141C232.993 82.9517 233.746 83.5536 234.776 83.5536C235.898 83.5536 236.628 82.8822 236.628 81.8636C236.628 80.8103 235.956 80.1968 234.834 80.1968C234.533 80.1968 234.197 80.2894 233.942 80.4515L233.491 79.7801L236.049 77.2451H232.113V76.3075H237.288V77.222L234.984 79.4676C236.581 79.3171 237.716 80.2894 237.716 81.8868C237.716 83.4494 236.558 84.5028 234.776 84.5028Z" fill="#484848"/>
<rect x="30.5908" y="114.098" width="206.699" height="8.26797" rx="4.13399" fill="#F4F4F4"/>
<rect x="30.5908" y="148.823" width="206.699" height="8.26797" rx="4.13399" fill="#F4F4F4"/>
<path d="M30.5908 188.628C30.5908 186.737 32.5437 185.203 34.9527 185.203H137.02C139.429 185.203 141.382 186.737 141.382 188.628V205.755C141.382 207.647 139.429 209.18 137.02 209.18H34.9527C32.5437 209.18 30.5908 207.647 30.5908 205.755V188.628Z" fill="#4071DF"/>
<path d="M40.3633 200.066C39.0782 200.066 38.0502 199.238 37.8313 198.02L38.6499 197.753C38.7831 198.686 39.4971 199.295 40.3823 199.295C41.2961 199.295 41.8863 198.867 41.8863 198.201C41.8863 196.421 38.0978 197.353 38.0978 194.993C38.0978 193.955 39.0306 193.251 40.3443 193.251C41.5627 193.251 42.505 193.908 42.6764 194.898L41.8863 195.202C41.753 194.479 41.1819 194.022 40.3443 194.022C39.4875 194.022 38.9735 194.393 38.9735 194.993C38.9735 196.516 42.7811 195.526 42.7811 198.191C42.7811 199.324 41.8197 200.066 40.3633 200.066ZM45.8932 200.066C44.4653 200.066 43.5135 199.076 43.5135 197.591C43.5135 196.107 44.4653 195.117 45.8932 195.117C47.0069 195.117 47.8255 195.726 47.9969 196.678L47.1973 196.839C47.0926 196.259 46.5881 195.84 45.9122 195.84C44.9698 195.84 44.3606 196.535 44.3606 197.591C44.3606 198.648 44.9698 199.343 45.9122 199.343C46.5881 199.343 47.083 198.972 47.2163 198.334L48.0064 198.496C47.797 199.486 46.9974 200.066 45.8932 200.066ZM49.0137 199.99V193.251H49.8229V196.135C50.1751 195.45 50.7557 195.117 51.4601 195.117C52.5453 195.117 53.2592 195.792 53.2592 196.83V199.99H52.4501V196.982C52.4501 196.278 52.0122 195.85 51.2792 195.85C50.394 195.85 49.8229 196.649 49.8229 197.934V199.99H49.0137ZM58.9133 197.373C58.9133 197.487 58.9037 197.658 58.8942 197.744H55.1057C55.1628 198.715 55.772 199.352 56.6382 199.352C57.3712 199.352 57.8757 199.01 58.0185 198.41L58.78 198.591C58.542 199.524 57.7424 200.066 56.6382 200.066C55.2009 200.066 54.2966 198.953 54.2966 197.591C54.2966 196.23 55.1723 195.117 56.6192 195.117C58.0375 195.117 58.9133 196.135 58.9133 197.373ZM55.1533 197.068H58.0566C57.9804 196.335 57.4664 195.792 56.6192 195.792C55.8672 195.792 55.3151 196.268 55.1533 197.068ZM61.992 200.066C60.4975 200.066 59.6789 199 59.6789 197.591C59.6789 196.183 60.4975 195.117 61.9824 195.117C62.6202 195.117 63.2485 195.431 63.5531 195.878V193.251H64.3622V199.99H63.5531V199.295C63.3341 199.733 62.6964 200.066 61.992 200.066ZM62.0681 199.343C63.0105 199.343 63.6292 198.648 63.6292 197.591C63.6292 196.535 63.0105 195.84 62.0681 195.84C61.1257 195.84 60.507 196.535 60.507 197.591C60.507 198.648 61.1257 199.343 62.0681 199.343ZM69.8411 195.193V199.99H69.032V199.086C68.6989 199.657 68.1182 200.066 67.3852 200.066C66.3858 200.066 65.6718 199.391 65.6718 198.372V195.193H66.4809V198.22C66.4809 198.867 66.8903 199.333 67.5661 199.333C68.4609 199.333 69.032 198.562 69.032 197.296V195.193H69.8411ZM71.1564 199.99V193.251H71.9655V199.99H71.1564ZM77.6164 197.373C77.6164 197.487 77.6069 197.658 77.5974 197.744H73.8089C73.866 198.715 74.4752 199.352 75.3414 199.352C76.0744 199.352 76.5789 199.01 76.7217 198.41L77.4832 198.591C77.2452 199.524 76.4456 200.066 75.3414 200.066C73.9041 200.066 72.9998 198.953 72.9998 197.591C72.9998 196.23 73.8755 195.117 75.3224 195.117C76.7407 195.117 77.6164 196.135 77.6164 197.373ZM73.8565 197.068H76.7597C76.6836 196.335 76.1696 195.792 75.3224 195.792C74.5704 195.792 74.0183 196.268 73.8565 197.068ZM82.5628 200.066C81.4015 200.066 80.7733 199.343 80.5639 198.667L81.2588 198.363C81.4396 198.924 81.8204 199.381 82.5628 199.381C83.153 199.381 83.5338 199.038 83.5338 198.648C83.5338 197.42 80.7733 198.21 80.7733 196.392C80.7733 195.631 81.4301 195.117 82.4581 195.117C83.3053 195.117 84.0383 195.592 84.2382 196.297L83.5623 196.592C83.4291 196.097 82.9531 195.783 82.4391 195.783C81.8965 195.783 81.5538 196.002 81.5538 196.383C81.5538 197.411 84.3334 196.659 84.3238 198.639C84.3238 199.476 83.6194 200.066 82.5628 200.066ZM89.5204 195.193V199.99H88.7112V199.086C88.3781 199.657 87.7974 200.066 87.0645 200.066C86.065 200.066 85.3511 199.391 85.3511 198.372V195.193H86.1602V198.22C86.1602 198.867 86.5695 199.333 87.2453 199.333C88.1401 199.333 88.7112 198.562 88.7112 197.296V195.193H89.5204ZM93.2058 200.066C92.5014 200.066 91.8636 199.733 91.6447 199.295V199.99H90.8356V193.251H91.6447V195.878C91.9493 195.431 92.5776 195.117 93.2153 195.117C94.7003 195.117 95.5189 196.183 95.5189 197.591C95.5189 199 94.7003 200.066 93.2058 200.066ZM93.1297 199.343C94.072 199.343 94.6908 198.648 94.6908 197.591C94.6908 196.535 94.072 195.84 93.1297 195.84C92.1873 195.84 91.5781 196.535 91.5781 197.591C91.5781 198.648 92.1873 199.343 93.1297 199.343ZM98.1147 200.066C96.9534 200.066 96.3252 199.343 96.1158 198.667L96.8106 198.363C96.9915 198.924 97.3723 199.381 98.1147 199.381C98.7049 199.381 99.0857 199.038 99.0857 198.648C99.0857 197.42 96.3252 198.21 96.3252 196.392C96.3252 195.631 96.982 195.117 98.01 195.117C98.8572 195.117 99.5902 195.592 99.7901 196.297L99.1142 196.592C98.981 196.097 98.505 195.783 97.991 195.783C97.4484 195.783 97.1057 196.002 97.1057 196.383C97.1057 197.411 99.8853 196.659 99.8757 198.639C99.8757 199.476 99.1713 200.066 98.1147 200.066ZM102.969 200.066C101.542 200.066 100.59 199.076 100.59 197.591C100.59 196.107 101.542 195.117 102.969 195.117C104.083 195.117 104.902 195.726 105.073 196.678L104.274 196.839C104.169 196.259 103.664 195.84 102.988 195.84C102.046 195.84 101.437 196.535 101.437 197.591C101.437 198.648 102.046 199.343 102.988 199.343C103.664 199.343 104.159 198.972 104.293 198.334L105.083 198.496C104.873 199.486 104.074 200.066 102.969 200.066ZM108.898 195.983C108.717 195.907 108.489 195.869 108.279 195.869C107.518 195.869 106.899 196.602 106.899 198.163V199.99H106.09V195.193H106.899V196.164C107.175 195.554 107.803 195.117 108.394 195.117C108.594 195.117 108.784 195.145 108.946 195.202L108.898 195.983ZM109.677 193.251H110.61V194.279H109.677V193.251ZM109.734 199.99V195.193H110.543V199.99H109.734ZM111.853 201.723V195.193H112.663V195.888C112.92 195.45 113.548 195.117 114.243 195.117C115.718 195.117 116.537 196.183 116.537 197.591C116.537 199 115.699 200.066 114.224 200.066C113.614 200.066 112.986 199.762 112.663 199.324V201.723H111.853ZM114.147 199.343C115.099 199.343 115.718 198.648 115.718 197.591C115.718 196.535 115.099 195.84 114.147 195.84C113.215 195.84 112.596 196.535 112.596 197.591C112.596 198.648 113.215 199.343 114.147 199.343ZM120.056 199.952C119.818 200.038 119.561 200.066 119.304 200.066C118.486 200.066 117.886 199.609 117.886 198.553V195.907H116.991V195.193H117.886V193.736H118.695V195.193H119.98V195.907H118.695V198.581C118.695 199.086 118.981 199.333 119.4 199.333C119.59 199.333 119.809 199.305 119.999 199.21L120.056 199.952ZM120.943 193.251H121.876V194.279H120.943V193.251ZM121.001 199.99V195.193H121.81V199.99H121.001ZM125.281 200.066C123.853 200.066 122.844 199.029 122.844 197.591C122.844 196.154 123.853 195.117 125.281 195.117C126.699 195.117 127.727 196.154 127.727 197.591C127.727 199.029 126.699 200.066 125.281 200.066ZM125.281 199.343C126.242 199.343 126.889 198.62 126.889 197.591C126.889 196.563 126.242 195.84 125.281 195.84C124.319 195.84 123.672 196.563 123.672 197.591C123.672 198.62 124.319 199.343 125.281 199.343ZM128.763 199.99V195.193H129.572V196.097C129.905 195.526 130.485 195.117 131.218 195.117C132.218 195.117 132.932 195.792 132.932 196.811V199.99H132.123V196.963C132.123 196.316 131.713 195.85 131.038 195.85C130.143 195.85 129.572 196.621 129.572 197.887V199.99H128.763Z" fill="white"/>
<path fill-rule="evenodd" clip-rule="evenodd" d="M192.389 185.897H152.455C150.851 185.897 149.55 187.138 149.55 188.668V205.989C149.55 207.52 150.851 208.76 152.455 208.76H192.389C193.993 208.76 195.293 207.52 195.293 205.989V188.668C195.293 187.138 193.993 185.897 192.389 185.897ZM152.455 185.204C150.45 185.204 148.824 186.755 148.824 188.668V205.989C148.824 207.902 150.45 209.453 152.455 209.453H192.389C194.394 209.453 196.019 207.902 196.019 205.989V188.668C196.019 186.755 194.394 185.204 192.389 185.204H152.455Z" fill="#D9D9D9"/>
<path d="M163.874 199.976C162.199 199.976 160.638 198.862 160.638 196.568C160.638 194.274 162.208 193.16 163.874 193.16C165.33 193.16 166.406 193.979 166.682 195.264L165.825 195.454C165.616 194.493 164.902 193.931 163.865 193.931C162.513 193.931 161.532 194.864 161.532 196.568C161.532 198.272 162.513 199.195 163.865 199.195C164.902 199.195 165.578 198.662 165.816 197.739L166.682 197.919C166.349 199.176 165.311 199.976 163.874 199.976ZM167.699 199.899V193.16H168.509V199.899H167.699ZM171.98 199.976C170.552 199.976 169.543 198.938 169.543 197.501C169.543 196.063 170.552 195.026 171.98 195.026C173.398 195.026 174.426 196.063 174.426 197.501C174.426 198.938 173.398 199.976 171.98 199.976ZM171.98 199.252C172.941 199.252 173.588 198.529 173.588 197.501C173.588 196.473 172.941 195.749 171.98 195.749C171.018 195.749 170.371 196.473 170.371 197.501C170.371 198.529 171.018 199.252 171.98 199.252ZM177.024 199.976C175.862 199.976 175.234 199.252 175.025 198.576L175.72 198.272C175.9 198.833 176.281 199.29 177.024 199.29C177.614 199.29 177.995 198.948 177.995 198.557C177.995 197.329 175.234 198.119 175.234 196.301C175.234 195.54 175.891 195.026 176.919 195.026C177.766 195.026 178.499 195.502 178.699 196.206L178.023 196.501C177.89 196.006 177.414 195.692 176.9 195.692C176.357 195.692 176.015 195.911 176.015 196.292C176.015 197.32 178.794 196.568 178.785 198.548C178.785 199.385 178.08 199.976 177.024 199.976ZM184.115 197.282C184.115 197.396 184.106 197.567 184.096 197.653H180.308C180.365 198.624 180.974 199.262 181.84 199.262C182.573 199.262 183.078 198.919 183.221 198.319L183.982 198.5C183.744 199.433 182.944 199.976 181.84 199.976C180.403 199.976 179.499 198.862 179.499 197.501C179.499 196.139 180.374 195.026 181.821 195.026C183.24 195.026 184.115 196.044 184.115 197.282ZM180.355 196.977H183.259C183.182 196.244 182.668 195.702 181.821 195.702C181.069 195.702 180.517 196.178 180.355 196.977Z" fill="#1A1A1A"/>
<rect x="136.428" y="146.772" width="268.68" height="105.801" rx="14.5322" fill="white" stroke="#DCE0E0" stroke-width="0.855997"/>
<path d="M155.711 236.023V229.36H157.691C159.557 229.36 161.033 230.55 161.033 232.692C161.033 234.834 159.557 236.023 157.691 236.023H155.711ZM156.568 235.243H157.663C158.948 235.243 160.138 234.51 160.138 232.692C160.138 230.874 158.948 230.131 157.663 230.131H156.568V235.243ZM164.239 236.1C162.811 236.1 161.802 235.062 161.802 233.625C161.802 232.187 162.811 231.15 164.239 231.15C165.657 231.15 166.685 232.187 166.685 233.625C166.685 235.062 165.657 236.1 164.239 236.1ZM164.239 235.376C165.2 235.376 165.848 234.653 165.848 233.625C165.848 232.597 165.2 231.873 164.239 231.873C163.278 231.873 162.63 232.597 162.63 233.625C162.63 234.653 163.278 235.376 164.239 235.376ZM167.721 236.023V231.226H168.53V232.13C168.863 231.559 169.444 231.15 170.177 231.15C171.176 231.15 171.89 231.826 171.89 232.844V236.023H171.081V232.996C171.081 232.349 170.672 231.883 169.996 231.883C169.101 231.883 168.53 232.654 168.53 233.92V236.023H167.721ZM172.508 231.169L173.022 229.284H174.059L173.06 231.169H172.508ZM177.346 235.985C177.108 236.071 176.851 236.1 176.594 236.1C175.775 236.1 175.176 235.643 175.176 234.586V231.94H174.281V231.226H175.176V229.77H175.985V231.226H177.27V231.94H175.985V234.615C175.985 235.119 176.27 235.367 176.689 235.367C176.88 235.367 177.098 235.338 177.289 235.243L177.346 235.985ZM183.556 236.1C181.881 236.1 180.32 234.986 180.32 232.692C180.32 230.398 181.89 229.284 183.556 229.284C185.012 229.284 186.088 230.103 186.364 231.388L185.507 231.578C185.298 230.617 184.584 230.055 183.547 230.055C182.195 230.055 181.214 230.988 181.214 232.692C181.214 234.396 182.195 235.319 183.547 235.319C184.584 235.319 185.26 234.786 185.498 233.863L186.364 234.044C186.031 235.3 184.993 236.1 183.556 236.1ZM189.171 231.15C190.332 231.15 191.141 231.835 191.141 232.949V236.023H190.342V235.205C190.066 235.757 189.438 236.1 188.743 236.1C187.781 236.1 187.124 235.509 187.124 234.681C187.124 233.758 187.876 233.253 189.409 233.101L190.342 232.996V232.901C190.342 232.244 189.875 231.826 189.171 231.826C188.514 231.826 188.048 232.216 187.981 232.863L187.229 232.72C187.372 231.768 188.162 231.15 189.171 231.15ZM188.866 235.433C189.799 235.433 190.342 234.815 190.342 233.853V233.625L189.409 233.729C188.438 233.834 187.934 234.167 187.934 234.672C187.934 235.119 188.314 235.433 188.866 235.433ZM192.457 236.023V231.226H193.266V232.13C193.599 231.559 194.18 231.15 194.913 231.15C195.912 231.15 196.626 231.826 196.626 232.844V236.023H195.817V232.996C195.817 232.349 195.408 231.883 194.732 231.883C193.837 231.883 193.266 232.654 193.266 233.92V236.023H192.457ZM200.045 236.1C198.617 236.1 197.665 235.11 197.665 233.625C197.665 232.14 198.617 231.15 200.045 231.15C201.159 231.15 201.977 231.759 202.149 232.711L201.349 232.873C201.245 232.292 200.74 231.873 200.064 231.873C199.122 231.873 198.513 232.568 198.513 233.625C198.513 234.681 199.122 235.376 200.064 235.376C200.74 235.376 201.235 235.005 201.368 234.367L202.158 234.529C201.949 235.519 201.149 236.1 200.045 236.1ZM207.506 233.406C207.506 233.52 207.497 233.691 207.487 233.777H203.699C203.756 234.748 204.365 235.386 205.231 235.386C205.964 235.386 206.469 235.043 206.612 234.443L207.373 234.624C207.135 235.557 206.336 236.1 205.231 236.1C203.794 236.1 202.89 234.986 202.89 233.625C202.89 232.263 203.765 231.15 205.212 231.15C206.631 231.15 207.506 232.168 207.506 233.406ZM203.746 233.101H206.65C206.573 232.368 206.059 231.826 205.212 231.826C204.46 231.826 203.908 232.302 203.746 233.101ZM208.548 236.023V229.284H209.357V236.023H208.548Z" fill="#4071DF"/>
<path d="M253.491 236.023H252.501L250.655 233.054H249.179V236.023H248.313V229.36H250.712C251.978 229.36 252.806 230.093 252.806 231.207C252.806 232.025 252.34 232.654 251.569 232.92L253.491 236.023ZM249.179 230.131V232.273H250.617C251.435 232.273 251.921 231.883 251.921 231.207C251.921 230.531 251.435 230.131 250.617 230.131H249.179ZM258.388 233.406C258.388 233.52 258.379 233.691 258.369 233.777H254.581C254.638 234.748 255.247 235.386 256.113 235.386C256.846 235.386 257.351 235.043 257.494 234.443L258.255 234.624C258.017 235.557 257.217 236.1 256.113 236.1C254.676 236.1 253.772 234.986 253.772 233.625C253.772 232.263 254.647 231.15 256.094 231.15C257.513 231.15 258.388 232.168 258.388 233.406ZM254.628 233.101H257.532C257.455 232.368 256.941 231.826 256.094 231.826C255.342 231.826 254.79 232.302 254.628 233.101ZM260.992 236.1C259.831 236.1 259.203 235.376 258.993 234.7L259.688 234.396C259.869 234.957 260.25 235.414 260.992 235.414C261.582 235.414 261.963 235.072 261.963 234.681C261.963 233.453 259.203 234.243 259.203 232.425C259.203 231.664 259.859 231.15 260.887 231.15C261.735 231.15 262.468 231.626 262.667 232.33L261.992 232.625C261.858 232.13 261.382 231.816 260.868 231.816C260.326 231.816 259.983 232.035 259.983 232.416C259.983 233.444 262.763 232.692 262.753 234.672C262.753 235.509 262.049 236.1 260.992 236.1ZM265.847 236.1C264.419 236.1 263.467 235.11 263.467 233.625C263.467 232.14 264.419 231.15 265.847 231.15C266.961 231.15 267.779 231.759 267.951 232.711L267.151 232.873C267.046 232.292 266.542 231.873 265.866 231.873C264.924 231.873 264.314 232.568 264.314 233.625C264.314 234.681 264.924 235.376 265.866 235.376C266.542 235.376 267.037 235.005 267.17 234.367L267.96 234.529C267.751 235.519 266.951 236.1 265.847 236.1ZM268.967 236.023V229.284H269.777V232.168C270.129 231.483 270.709 231.15 271.414 231.15C272.499 231.15 273.213 231.826 273.213 232.863V236.023H272.404V233.015C272.404 232.311 271.966 231.883 271.233 231.883C270.348 231.883 269.777 232.682 269.777 233.967V236.023H268.967ZM278.867 233.406C278.867 233.52 278.857 233.691 278.848 233.777H275.059C275.117 234.748 275.726 235.386 276.592 235.386C277.325 235.386 277.829 235.043 277.972 234.443L278.734 234.624C278.496 235.557 277.696 236.1 276.592 236.1C275.155 236.1 274.25 234.986 274.25 233.625C274.25 232.263 275.126 231.15 276.573 231.15C277.991 231.15 278.867 232.168 278.867 233.406ZM275.107 233.101H278.01C277.934 232.368 277.42 231.826 276.573 231.826C275.821 231.826 275.269 232.302 275.107 233.101ZM281.946 236.1C280.451 236.1 279.633 235.033 279.633 233.625C279.633 232.216 280.451 231.15 281.936 231.15C282.574 231.15 283.202 231.464 283.507 231.911V229.284H284.316V236.023H283.507V235.329C283.288 235.766 282.65 236.1 281.946 236.1ZM282.022 235.376C282.964 235.376 283.583 234.681 283.583 233.625C283.583 232.568 282.964 231.873 282.022 231.873C281.079 231.873 280.461 232.568 280.461 233.625C280.461 234.681 281.079 235.376 282.022 235.376ZM289.795 231.226V236.023H288.986V235.119C288.653 235.69 288.072 236.1 287.339 236.1C286.339 236.1 285.626 235.424 285.626 234.405V231.226H286.435V234.253C286.435 234.9 286.844 235.367 287.52 235.367C288.415 235.367 288.986 234.596 288.986 233.33V231.226H289.795ZM291.11 236.023V229.284H291.919V236.023H291.11ZM297.57 233.406C297.57 233.52 297.561 233.691 297.551 233.777H293.763C293.82 234.748 294.429 235.386 295.295 235.386C296.028 235.386 296.533 235.043 296.675 234.443L297.437 234.624C297.199 235.557 296.399 236.1 295.295 236.1C293.858 236.1 292.953 234.986 292.953 233.625C292.953 232.263 293.829 231.15 295.276 231.15C296.694 231.15 297.57 232.168 297.57 233.406ZM293.81 233.101H296.713C296.637 232.368 296.123 231.826 295.276 231.826C294.524 231.826 293.972 232.302 293.81 233.101Z" fill="#4071DF"/>
<path d="M338.885 236.1C337.21 236.1 335.649 234.986 335.649 232.692C335.649 230.398 337.22 229.284 338.885 229.284C340.342 229.284 341.418 230.103 341.694 231.388L340.837 231.578C340.627 230.617 339.914 230.055 338.876 230.055C337.524 230.055 336.544 230.988 336.544 232.692C336.544 234.396 337.524 235.319 338.876 235.319C339.914 235.319 340.589 234.786 340.827 233.863L341.694 234.044C341.36 235.3 340.323 236.1 338.885 236.1ZM344.5 231.15C345.662 231.15 346.471 231.835 346.471 232.949V236.023H345.671V235.205C345.395 235.757 344.767 236.1 344.072 236.1C343.111 236.1 342.454 235.509 342.454 234.681C342.454 233.758 343.206 233.253 344.738 233.101L345.671 232.996V232.901C345.671 232.244 345.205 231.826 344.5 231.826C343.844 231.826 343.377 232.216 343.311 232.863L342.559 232.72C342.701 231.768 343.491 231.15 344.5 231.15ZM344.196 235.433C345.129 235.433 345.671 234.815 345.671 233.853V233.625L344.738 233.729C343.767 233.834 343.263 234.167 343.263 234.672C343.263 235.119 343.644 235.433 344.196 235.433ZM347.786 236.023V231.226H348.595V232.13C348.929 231.559 349.509 231.15 350.242 231.15C351.242 231.15 351.956 231.826 351.956 232.844V236.023H351.147V232.996C351.147 232.349 350.737 231.883 350.061 231.883C349.167 231.883 348.595 232.654 348.595 233.92V236.023H347.786ZM355.375 236.1C353.947 236.1 352.995 235.11 352.995 233.625C352.995 232.14 353.947 231.15 355.375 231.15C356.488 231.15 357.307 231.759 357.478 232.711L356.679 232.873C356.574 232.292 356.069 231.873 355.394 231.873C354.451 231.873 353.842 232.568 353.842 233.625C353.842 234.681 354.451 235.376 355.394 235.376C356.069 235.376 356.564 235.005 356.698 234.367L357.488 234.529C357.278 235.519 356.479 236.1 355.375 236.1ZM362.836 233.406C362.836 233.52 362.826 233.691 362.817 233.777H359.028C359.085 234.748 359.695 235.386 360.561 235.386C361.294 235.386 361.798 235.043 361.941 234.443L362.702 234.624C362.465 235.557 361.665 236.1 360.561 236.1C359.123 236.1 358.219 234.986 358.219 233.625C358.219 232.263 359.095 231.15 360.542 231.15C361.96 231.15 362.836 232.168 362.836 233.406ZM359.076 233.101H361.979C361.903 232.368 361.389 231.826 360.542 231.826C359.79 231.826 359.238 232.302 359.076 233.101ZM363.877 236.023V229.284H364.687V236.023H363.877ZM368.293 236.023V231.226H369.102V232.13C369.435 231.559 370.016 231.15 370.749 231.15C371.748 231.15 372.462 231.826 372.462 232.844V236.023H371.653V232.996C371.653 232.349 371.244 231.883 370.568 231.883C369.673 231.883 369.102 232.654 369.102 233.92V236.023H368.293ZM375.938 236.1C374.51 236.1 373.501 235.062 373.501 233.625C373.501 232.187 374.51 231.15 375.938 231.15C377.357 231.15 378.385 232.187 378.385 233.625C378.385 235.062 377.357 236.1 375.938 236.1ZM375.938 235.376C376.9 235.376 377.547 234.653 377.547 233.625C377.547 232.597 376.9 231.873 375.938 231.873C374.977 231.873 374.33 232.597 374.33 233.625C374.33 234.653 374.977 235.376 375.938 235.376ZM380.365 236.023L378.899 231.226H379.727L380.765 234.891L381.888 231.226H382.669L383.792 234.891L384.82 231.226H385.667L384.192 236.023H383.402L382.279 232.378L381.155 236.023H380.365Z" fill="#4071DF"/>
<rect x="155.017" y="193.472" width="206.699" height="4.96078" rx="2.48039" fill="#F4F4F4"/>
<rect x="405.535" y="215.795" width="269.536" height="0.826774" transform="rotate(-180 405.535 215.795)" fill="#D9D9D9"/>
<path d="M158.919 174.159C157.133 174.159 155.704 173.008 155.4 171.314L156.538 170.944C156.723 172.24 157.715 173.087 158.946 173.087C160.216 173.087 161.036 172.492 161.036 171.566C161.036 169.092 155.771 170.388 155.771 167.108C155.771 165.666 157.067 164.687 158.893 164.687C160.586 164.687 161.896 165.6 162.134 166.975L161.036 167.399C160.85 166.393 160.057 165.758 158.893 165.758C157.702 165.758 156.988 166.274 156.988 167.108C156.988 169.224 162.279 167.848 162.279 171.552C162.279 173.127 160.943 174.159 158.919 174.159ZM169.475 167.385V174.053H168.35V172.796C167.887 173.59 167.08 174.159 166.062 174.159C164.673 174.159 163.681 173.219 163.681 171.804V167.385H164.805V171.592C164.805 172.492 165.374 173.14 166.313 173.14C167.557 173.14 168.35 172.068 168.35 170.309V167.385H169.475ZM174.597 174.159C173.618 174.159 172.731 173.696 172.427 173.087V174.053H171.303V164.687H172.427V168.338C172.85 167.716 173.724 167.28 174.61 167.28C176.674 167.28 177.811 168.761 177.811 170.719C177.811 172.677 176.674 174.159 174.597 174.159ZM174.491 173.153C175.8 173.153 176.66 172.187 176.66 170.719C176.66 169.251 175.8 168.285 174.491 168.285C173.181 168.285 172.334 169.251 172.334 170.719C172.334 172.187 173.181 173.153 174.491 173.153ZM181.419 174.159C179.805 174.159 178.932 173.153 178.641 172.214L179.606 171.791C179.858 172.571 180.387 173.206 181.419 173.206C182.239 173.206 182.768 172.73 182.768 172.187C182.768 170.481 178.932 171.579 178.932 169.052C178.932 167.994 179.845 167.28 181.273 167.28C182.451 167.28 183.469 167.941 183.747 168.92L182.808 169.33C182.623 168.642 181.961 168.206 181.247 168.206C180.493 168.206 180.016 168.51 180.016 169.039C180.016 170.468 183.879 169.423 183.866 172.174C183.866 173.338 182.887 174.159 181.419 174.159ZM188.165 174.159C186.181 174.159 184.858 172.783 184.858 170.719C184.858 168.655 186.181 167.28 188.165 167.28C189.713 167.28 190.851 168.126 191.089 169.449L189.978 169.674C189.832 168.867 189.131 168.285 188.192 168.285C186.882 168.285 186.036 169.251 186.036 170.719C186.036 172.187 186.882 173.153 188.192 173.153C189.131 173.153 189.819 172.637 190.004 171.751L191.102 171.976C190.811 173.352 189.7 174.159 188.165 174.159ZM196.405 168.483C196.153 168.378 195.836 168.325 195.545 168.325C194.487 168.325 193.627 169.343 193.627 171.513V174.053H192.502V167.385H193.627V168.735C194.01 167.888 194.883 167.28 195.704 167.28C195.981 167.28 196.246 167.319 196.471 167.399L196.405 168.483ZM197.487 164.687H198.783V166.115H197.487V164.687ZM197.566 174.053V167.385H198.691V174.053H197.566ZM200.512 176.46V167.385H201.636V168.351C201.993 167.743 202.867 167.28 203.832 167.28C205.883 167.28 207.02 168.761 207.02 170.719C207.02 172.677 205.856 174.159 203.806 174.159C202.959 174.159 202.086 173.735 201.636 173.127V176.46H200.512ZM203.7 173.153C205.023 173.153 205.883 172.187 205.883 170.719C205.883 169.251 205.023 168.285 203.7 168.285C202.404 168.285 201.544 169.251 201.544 170.719C201.544 172.187 202.404 173.153 203.7 173.153ZM211.912 174C211.581 174.119 211.224 174.159 210.867 174.159C209.729 174.159 208.896 173.524 208.896 172.055V168.378H207.652V167.385H208.896V165.361H210.02V167.385H211.806V168.378H210.02V172.095C210.02 172.796 210.417 173.14 210.999 173.14C211.264 173.14 211.568 173.1 211.832 172.968L211.912 174ZM213.144 164.687H214.441V166.115H213.144V164.687ZM213.224 174.053V167.385H214.348V174.053H213.224ZM219.172 174.159C217.188 174.159 215.786 172.717 215.786 170.719C215.786 168.722 217.188 167.28 219.172 167.28C221.143 167.28 222.572 168.722 222.572 170.719C222.572 172.717 221.143 174.159 219.172 174.159ZM219.172 173.153C220.508 173.153 221.408 172.148 221.408 170.719C221.408 169.29 220.508 168.285 219.172 168.285C217.836 168.285 216.937 169.29 216.937 170.719C216.937 172.148 217.836 173.153 219.172 173.153ZM224.011 174.053V167.385H225.135V168.642C225.598 167.848 226.405 167.28 227.424 167.28C228.813 167.28 229.805 168.219 229.805 169.634V174.053H228.681V169.846C228.681 168.946 228.112 168.298 227.173 168.298C225.929 168.298 225.135 169.37 225.135 171.129V174.053H224.011ZM236.306 174.053L234.268 167.385H235.419L236.861 172.479L238.422 167.385H239.507L241.068 172.479L242.497 167.385H243.674L241.624 174.053H240.526L238.965 168.986L237.404 174.053H236.306ZM244.847 164.687H246.143V166.115H244.847V164.687ZM244.926 174.053V167.385H246.051V174.053H244.926ZM247.872 174.053V164.687H248.996V174.053H247.872ZM250.817 174.053V164.687H251.942V174.053H250.817ZM259.877 174.159C257.893 174.159 256.57 172.783 256.57 170.719C256.57 168.655 257.893 167.28 259.877 167.28C261.425 167.28 262.563 168.126 262.801 169.449L261.69 169.674C261.544 168.867 260.843 168.285 259.904 168.285C258.594 168.285 257.747 169.251 257.747 170.719C257.747 172.187 258.594 173.153 259.904 173.153C260.843 173.153 261.531 172.637 261.716 171.751L262.814 171.976C262.523 173.352 261.412 174.159 259.877 174.159ZM266.636 167.28C268.25 167.28 269.375 168.232 269.375 169.78V174.053H268.264V172.915C267.88 173.682 267.007 174.159 266.041 174.159C264.705 174.159 263.792 173.338 263.792 172.187C263.792 170.904 264.837 170.203 266.967 169.992L268.264 169.846V169.714C268.264 168.801 267.615 168.219 266.636 168.219C265.724 168.219 265.075 168.761 264.983 169.661L263.938 169.462C264.136 168.139 265.234 167.28 266.636 167.28ZM266.213 173.233C267.51 173.233 268.264 172.373 268.264 171.037V170.719L266.967 170.865C265.618 171.01 264.917 171.473 264.917 172.174C264.917 172.796 265.446 173.233 266.213 173.233ZM271.203 174.053V167.385H272.327V168.642C272.79 167.848 273.597 167.28 274.616 167.28C276.005 167.28 276.997 168.219 276.997 169.634V174.053H275.873V169.846C275.873 168.946 275.304 168.298 274.365 168.298C273.121 168.298 272.327 169.37 272.327 171.129V174.053H271.203ZM281.749 174.159C279.764 174.159 278.441 172.783 278.441 170.719C278.441 168.655 279.764 167.28 281.749 167.28C283.296 167.28 284.434 168.126 284.672 169.449L283.561 169.674C283.415 168.867 282.714 168.285 281.775 168.285C280.465 168.285 279.619 169.251 279.619 170.719C279.619 172.187 280.465 173.153 281.775 173.153C282.714 173.153 283.402 172.637 283.587 171.751L284.685 171.976C284.394 173.352 283.283 174.159 281.749 174.159ZM292.118 170.415C292.118 170.574 292.104 170.812 292.091 170.931H286.826C286.906 172.28 287.752 173.166 288.956 173.166C289.975 173.166 290.676 172.69 290.874 171.857L291.932 172.108C291.602 173.405 290.491 174.159 288.956 174.159C286.958 174.159 285.702 172.611 285.702 170.719C285.702 168.827 286.919 167.28 288.93 167.28C290.901 167.28 292.118 168.695 292.118 170.415ZM286.892 169.992H290.927C290.821 168.973 290.107 168.219 288.93 168.219C287.884 168.219 287.117 168.88 286.892 169.992ZM293.565 174.053V164.687H294.69V174.053H293.565ZM302.189 167.28C303.803 167.28 304.927 168.232 304.927 169.78V174.053H303.816V172.915C303.432 173.682 302.559 174.159 301.593 174.159C300.257 174.159 299.345 173.338 299.345 172.187C299.345 170.904 300.39 170.203 302.519 169.992L303.816 169.846V169.714C303.816 168.801 303.168 168.219 302.189 168.219C301.276 168.219 300.628 168.761 300.535 169.661L299.49 169.462C299.688 168.139 300.786 167.28 302.189 167.28ZM301.765 173.233C303.062 173.233 303.816 172.373 303.816 171.037V170.719L302.519 170.865C301.17 171.01 300.469 171.473 300.469 172.174C300.469 172.796 300.998 173.233 301.765 173.233ZM312.511 167.385V174.053H311.386V172.796C310.923 173.59 310.116 174.159 309.098 174.159C307.709 174.159 306.717 173.219 306.717 171.804V167.385H307.841V171.592C307.841 172.492 308.41 173.14 309.349 173.14C310.593 173.14 311.386 172.068 311.386 170.309V167.385H312.511ZM317.884 174C317.553 174.119 317.196 174.159 316.839 174.159C315.701 174.159 314.868 173.524 314.868 172.055V168.378H313.624V167.385H314.868V165.361H315.992V167.385H317.778V168.378H315.992V172.095C315.992 172.796 316.389 173.14 316.971 173.14C317.236 173.14 317.54 173.1 317.805 172.968L317.884 174ZM322.031 174.159C320.047 174.159 318.644 172.717 318.644 170.719C318.644 168.722 320.047 167.28 322.031 167.28C324.002 167.28 325.431 168.722 325.431 170.719C325.431 172.717 324.002 174.159 322.031 174.159ZM322.031 173.153C323.367 173.153 324.267 172.148 324.267 170.719C324.267 169.29 323.367 168.285 322.031 168.285C320.695 168.285 319.795 169.29 319.795 170.719C319.795 172.148 320.695 173.153 322.031 173.153ZM326.87 174.053V167.385H327.994V168.642C328.325 167.848 328.986 167.28 330.005 167.28C331.09 167.28 331.936 167.782 332.174 168.682C332.532 167.888 333.325 167.28 334.331 167.28C335.759 167.28 336.659 168.179 336.659 169.581V174.053H335.535V169.806C335.535 168.894 335.019 168.272 334.079 168.272C332.942 168.272 332.32 169.29 332.32 170.706V174.053H331.196V169.806C331.196 168.894 330.68 168.272 329.754 168.272C328.616 168.272 327.994 169.29 327.994 170.706V174.053H326.87ZM340.971 167.28C342.585 167.28 343.709 168.232 343.709 169.78V174.053H342.598V172.915C342.214 173.682 341.341 174.159 340.375 174.159C339.039 174.159 338.126 173.338 338.126 172.187C338.126 170.904 339.172 170.203 341.301 169.992L342.598 169.846V169.714C342.598 168.801 341.95 168.219 340.971 168.219C340.058 168.219 339.41 168.761 339.317 169.661L338.272 169.462C338.47 168.139 339.568 167.28 340.971 167.28ZM340.547 173.233C341.844 173.233 342.598 172.373 342.598 171.037V170.719L341.301 170.865C339.952 171.01 339.251 171.473 339.251 172.174C339.251 172.796 339.78 173.233 340.547 173.233ZM349.044 174C348.713 174.119 348.356 174.159 347.999 174.159C346.861 174.159 346.028 173.524 346.028 172.055V168.378H344.784V167.385H346.028V165.361H347.152V167.385H348.938V168.378H347.152V172.095C347.152 172.796 347.549 173.14 348.131 173.14C348.396 173.14 348.7 173.1 348.964 172.968L349.044 174ZM350.277 164.687H351.573V166.115H350.277V164.687ZM350.356 174.053V167.385H351.48V174.053H350.356ZM356.225 174.159C354.241 174.159 352.918 172.783 352.918 170.719C352.918 168.655 354.241 167.28 356.225 167.28C357.773 167.28 358.91 168.126 359.149 169.449L358.037 169.674C357.892 168.867 357.191 168.285 356.251 168.285C354.942 168.285 354.095 169.251 354.095 170.719C354.095 172.187 354.942 173.153 356.251 173.153C357.191 173.153 357.879 172.637 358.064 171.751L359.162 171.976C358.871 173.352 357.76 174.159 356.225 174.159ZM362.984 167.28C364.598 167.28 365.722 168.232 365.722 169.78V174.053H364.611V172.915C364.228 173.682 363.355 174.159 362.389 174.159C361.053 174.159 360.14 173.338 360.14 172.187C360.14 170.904 361.185 170.203 363.315 169.992L364.611 169.846V169.714C364.611 168.801 363.963 168.219 362.984 168.219C362.071 168.219 361.423 168.761 361.331 169.661L360.285 169.462C360.484 168.139 361.582 167.28 362.984 167.28ZM362.561 173.233C363.857 173.233 364.611 172.373 364.611 171.037V170.719L363.315 170.865C361.966 171.01 361.264 171.473 361.264 172.174C361.264 172.796 361.794 173.233 362.561 173.233ZM367.551 174.053V164.687H368.675V174.053H367.551ZM370.496 174.053V164.687H371.621V174.053H370.496ZM377.834 167.385H378.985L375.492 176.46H374.341L375.307 173.96L372.701 167.385H373.918L375.876 172.492L377.834 167.385Z" fill="#484848"/>
</svg>
