<svg width="579" height="389" viewBox="0 0 579 389" fill="none" xmlns="http://www.w3.org/2000/svg">
<g filter="url(#filter0_d_440_28876)">
<path fill-rule="evenodd" clip-rule="evenodd" d="M10.4048 57.2473L263.225 7.53906L516.045 57.2473L516.045 362.67L10.4048 362.67L10.4048 57.2473Z" fill="url(#paint0_linear_440_28876)"/>
<path d="M11.4048 361.67L11.4048 58.0699L263.225 8.55821L515.045 58.0699L515.045 361.67L11.4048 361.67Z" stroke="url(#paint1_linear_440_28876)" stroke-width="2"/>
</g>
<path d="M47.6542 101.293L22.3596 101.293L22.3596 362.67L47.6542 362.67L47.6542 101.293Z" fill="#EAEAEA"/>
<path d="M502.894 101.293L477.6 101.293L477.6 362.67L502.894 362.67L502.894 101.293Z" fill="#EAEAEA"/>
<g filter="url(#filter1_d_440_28876)">
<path fill-rule="evenodd" clip-rule="evenodd" d="M10.4048 57.2473L516.045 57.2473L263.225 7.53906L10.4048 57.2473Z" fill="url(#paint2_linear_440_28876)"/>
<path fill-rule="evenodd" clip-rule="evenodd" d="M10.4048 57.2473L516.045 57.2473L263.225 7.53906L10.4048 57.2473Z" stroke="url(#paint3_linear_440_28876)" stroke-width="1.8797"/>
</g>
<path d="M502.957 101.293L22.3596 101.293L22.3596 126.588L502.957 126.588L502.957 101.293Z" fill="#EAEAEA"/>
<path fill-rule="evenodd" clip-rule="evenodd" d="M47.6541 126.588L90.1892 152.763L90.1892 362.671L47.6541 362.671L47.6541 126.588Z" fill="#E6E6E6"/>
<path d="M254.29 202.912L184.761 202.912L184.761 265.268L254.29 265.268L254.29 202.912Z" fill="#F5B977"/>
<path d="M255.171 202.912L183.818 202.912L183.818 213.294L255.171 213.294L255.171 202.912Z" fill="#F5B977"/>
<path fill-rule="evenodd" clip-rule="evenodd" d="M254.29 265.205L228.177 265.205L184.761 213.295L254.29 213.295L254.29 265.205Z" fill="#DE9761"/>
<path fill-rule="evenodd" clip-rule="evenodd" d="M248.313 202.912L240.699 202.912L240.699 217.258L242.335 216.44L243.783 217.195L245.859 215.937L248.313 217.258L248.313 202.912Z" fill="#4071DF"/>
<path fill-rule="evenodd" clip-rule="evenodd" d="M198.353 202.912L190.74 202.912L190.74 217.258L192.376 216.44L193.886 217.195L195.899 215.937L198.353 217.258L198.353 202.912Z" fill="#4071DF"/>
<path d="M181.991 202.912L112.462 202.912L112.462 265.268L181.991 265.268L181.991 202.912Z" fill="#F5B977"/>
<path d="M182.872 202.912L111.519 202.912L111.519 213.294L182.872 213.294L182.872 202.912Z" fill="#F5B977"/>
<path fill-rule="evenodd" clip-rule="evenodd" d="M181.991 265.205L155.878 265.205L112.462 213.295L181.991 213.295L181.991 265.205Z" fill="#DE9761"/>
<path fill-rule="evenodd" clip-rule="evenodd" d="M176.014 202.912L168.401 202.912L168.401 217.258L170.037 216.44L171.547 217.195L173.56 215.937L176.014 217.258L176.014 202.912Z" fill="#4071DF"/>
<path fill-rule="evenodd" clip-rule="evenodd" d="M126.055 202.912L118.441 202.912L118.441 217.258L120.077 216.44L121.587 217.195L123.664 215.937L126.055 217.258L126.055 202.912Z" fill="#4071DF"/>
<path d="M161.103 267.658L62.6934 267.658L62.6934 362.67L161.103 362.67L161.103 267.658Z" fill="#F5B977"/>
<path d="M83.3949 275.713L71.0623 275.713L71.0623 353.862L83.3949 353.862L83.3949 275.713Z" fill="#DE9761"/>
<path d="M95.7275 275.713L83.3948 275.713L83.3948 353.862L95.7275 353.862L95.7275 275.713Z" fill="#DE9761"/>
<path d="M108.121 275.713L95.7886 275.713L95.7886 353.862L108.121 353.862L108.121 275.713Z" fill="#DE9761"/>
<path d="M120.457 275.713L108.125 275.713L108.125 353.862L120.457 353.862L120.457 275.713Z" fill="#DE9761"/>
<path d="M132.789 275.713L120.457 275.713L120.457 353.862L132.789 353.862L132.789 275.713Z" fill="#DE9761"/>
<path d="M145.184 275.713L132.851 275.713L132.851 353.862L145.184 353.862L145.184 275.713Z" fill="#DE9761"/>
<path d="M152.356 275.713L145.183 275.713L145.183 353.862L152.356 353.862L152.356 275.713Z" fill="#DE9761"/>
<path d="M78.173 281.816L73.2651 281.816L73.2651 352.289L78.173 352.289L78.173 281.816Z" fill="#DE9761"/>
<path d="M90.5671 281.816L85.6592 281.816L85.6592 352.289L90.5671 352.289L90.5671 281.816Z" fill="#DE9761"/>
<path d="M102.899 281.816L97.9915 281.816L97.9915 352.289L102.899 352.289L102.899 281.816Z" fill="#DE9761"/>
<path d="M115.232 281.816L110.324 281.816L110.324 352.289L115.232 352.289L115.232 281.816Z" fill="#DE9761"/>
<path d="M127.629 281.816L122.721 281.816L122.721 352.289L127.629 352.289L127.629 281.816Z" fill="#DE9761"/>
<path d="M139.962 281.816L135.054 281.816L135.054 352.289L139.962 352.289L139.962 281.816Z" fill="#DE9761"/>
<path d="M152.358 281.816L147.45 281.816L147.45 352.289L152.358 352.289L152.358 281.816Z" fill="#DE9761"/>
<path d="M83.3946 275.713L78.1721 275.713L78.1721 353.862L83.3946 353.862L83.3946 275.713Z" fill="#F5B977"/>
<path d="M95.7914 275.713L90.5688 275.713L90.5688 353.862L95.7914 353.862L95.7914 275.713Z" fill="#F5B977"/>
<path d="M108.124 275.713L102.901 275.713L102.901 353.862L108.124 353.862L108.124 275.713Z" fill="#F5B977"/>
<path d="M120.518 275.713L115.295 275.713L115.295 353.862L120.518 353.862L120.518 275.713Z" fill="#F5B977"/>
<path d="M132.85 275.713L127.628 275.713L127.628 353.862L132.85 353.862L132.85 275.713Z" fill="#F5B977"/>
<path d="M145.183 275.713L139.96 275.713L139.96 353.862L145.183 353.862L145.183 275.713Z" fill="#F5B977"/>
<path d="M261.904 267.658L163.494 267.658L163.494 362.67L261.904 362.67L261.904 267.658Z" fill="#F5B977"/>
<path d="M184.196 275.713L171.864 275.713L171.864 353.862L184.196 353.862L184.196 275.713Z" fill="#DE9761"/>
<path d="M196.59 275.713L184.257 275.713L184.257 353.862L196.59 353.862L196.59 275.713Z" fill="#DE9761"/>
<path d="M208.923 275.713L196.59 275.713L196.59 353.862L208.923 353.862L208.923 275.713Z" fill="#DE9761"/>
<path d="M221.32 275.713L208.987 275.713L208.987 353.862L221.32 353.862L221.32 275.713Z" fill="#DE9761"/>
<path d="M233.652 275.713L221.32 275.713L221.32 353.862L233.652 353.862L233.652 275.713Z" fill="#DE9761"/>
<path d="M245.985 275.713L233.652 275.713L233.652 353.862L245.985 353.862L245.985 275.713Z" fill="#DE9761"/>
<path d="M253.222 275.713L246.049 275.713L246.049 353.862L253.222 353.862L253.222 275.713Z" fill="#DE9761"/>
<path d="M179.036 281.816L174.128 281.816L174.128 352.289L179.036 352.289L179.036 281.816Z" fill="#DE9761"/>
<path d="M191.368 281.816L186.46 281.816L186.46 352.289L191.368 352.289L191.368 281.816Z" fill="#DE9761"/>
<path d="M203.765 281.816L198.857 281.816L198.857 352.289L203.765 352.289L203.765 281.816Z" fill="#DE9761"/>
<path d="M216.098 281.816L211.19 281.816L211.19 352.289L216.098 352.289L216.098 281.816Z" fill="#DE9761"/>
<path d="M228.43 281.816L223.522 281.816L223.522 352.289L228.43 352.289L228.43 281.816Z" fill="#DE9761"/>
<path d="M240.824 281.816L235.916 281.816L235.916 352.289L240.824 352.289L240.824 281.816Z" fill="#DE9761"/>
<path d="M253.16 281.816L248.252 281.816L248.252 352.289L253.16 352.289L253.16 281.816Z" fill="#DE9761"/>
<path d="M184.26 275.713L179.038 275.713L179.038 353.862L184.26 353.862L184.26 275.713Z" fill="#F5B977"/>
<path d="M196.593 275.713L191.37 275.713L191.37 353.862L196.593 353.862L196.593 275.713Z" fill="#F5B977"/>
<path d="M208.986 275.713L203.764 275.713L203.764 353.862L208.986 353.862L208.986 275.713Z" fill="#F5B977"/>
<path d="M221.319 275.713L216.096 275.713L216.096 353.862L221.319 353.862L221.319 275.713Z" fill="#F5B977"/>
<path d="M233.651 275.713L228.429 275.713L228.429 353.862L233.651 353.862L233.651 275.713Z" fill="#F5B977"/>
<path d="M246.048 275.713L240.826 275.713L240.826 353.862L246.048 353.862L246.048 275.713Z" fill="#F5B977"/>
<path d="M254.165 265.205L112.465 265.205L112.465 267.596L254.165 267.596L254.165 265.205Z" fill="#DE9761"/>
<path d="M163.495 267.658L161.104 267.658L161.104 362.67L163.495 362.67L163.495 267.658Z" fill="#1A2A3A"/>
<path d="M333.636 300.314L264.107 300.314L264.107 362.67L333.636 362.67L333.636 300.314Z" fill="#F5B977"/>
<path d="M334.579 300.314L263.226 300.314L263.226 310.697L334.579 310.697L334.579 300.314Z" fill="#F5B977"/>
<path fill-rule="evenodd" clip-rule="evenodd" d="M333.699 362.671L307.586 362.671L264.107 310.697L333.699 310.697L333.699 362.671Z" fill="#DE9761"/>
<path fill-rule="evenodd" clip-rule="evenodd" d="M327.719 300.314L320.043 300.314L320.043 314.661L321.679 313.906L323.189 314.598L325.265 313.339L327.719 314.661L327.719 300.314Z" fill="#4071DF"/>
<path fill-rule="evenodd" clip-rule="evenodd" d="M277.76 300.314L270.083 300.314L270.083 314.661L271.719 313.906L273.229 314.598L275.306 313.339L277.76 314.661L277.76 300.314Z" fill="#4071DF"/>
<path fill-rule="evenodd" clip-rule="evenodd" d="M47.6541 126.588L90.1892 152.763L435.064 152.763L477.599 126.588L47.6541 126.588Z" fill="#CCCCCC"/>
<path fill-rule="evenodd" clip-rule="evenodd" d="M477.601 126.588L435.066 152.763L435.066 362.671L477.601 362.671L477.601 126.588Z" fill="#E6E6E6"/>
<path d="M395.613 293.77L336.404 293.77L336.404 362.606L395.613 362.606L395.613 293.77Z" fill="#DE9761"/>
<path d="M366.04 293.77L336.404 293.77L336.404 362.606L366.04 362.606L366.04 293.77Z" fill="#F5B977"/>
<path fill-rule="evenodd" clip-rule="evenodd" d="M346.347 348.135L346.347 356.944L343.138 356.944L343.138 348.135L340.936 348.135L342.823 344.612L344.774 341.088L346.662 344.612L348.612 348.135L346.347 348.135Z" fill="#435D76"/>
<path fill-rule="evenodd" clip-rule="evenodd" d="M355.03 348.135L355.03 356.944L351.821 356.944L351.821 348.135L349.619 348.135L351.506 344.612L353.394 341.088L355.345 344.612L357.232 348.135L355.03 348.135Z" fill="#435D76"/>
<path d="M356.163 356.945L342.005 356.945L342.005 358.204L356.163 358.204L356.163 356.945Z" fill="#435D76"/>
<path fill-rule="evenodd" clip-rule="evenodd" d="M341.501 293.77L348.485 293.77L348.485 306.857L346.975 306.165L345.654 306.794L343.766 305.725L341.501 306.857L341.501 293.77Z" fill="#4071DF"/>
<path fill-rule="evenodd" clip-rule="evenodd" d="M383.534 293.77L390.518 293.77L390.518 306.857L389.008 306.165L387.624 306.794L385.736 305.725L383.534 306.857L383.534 293.77Z" fill="#4071DF"/>
<path d="M456.081 309.563L396.871 309.562L396.871 362.669L456.081 362.669L456.081 309.563Z" fill="#DE9761"/>
<path d="M426.507 309.563L396.871 309.562L396.871 362.669L426.507 362.669L426.507 309.563Z" fill="#F5B977"/>
<path fill-rule="evenodd" clip-rule="evenodd" d="M406.814 348.133L406.814 356.942L403.605 356.942L403.605 348.133L401.403 348.133L403.29 344.61L405.241 341.086L407.129 344.61L409.016 348.133L406.814 348.133Z" fill="#435D76"/>
<path fill-rule="evenodd" clip-rule="evenodd" d="M415.497 348.133L415.497 356.942L412.288 356.942L412.288 348.133L410.085 348.133L411.973 344.61L413.861 341.086L415.811 344.61L417.699 348.133L415.497 348.133Z" fill="#435D76"/>
<path d="M416.629 356.943L402.472 356.943L402.472 358.202L416.629 358.202L416.629 356.943Z" fill="#435D76"/>
<path fill-rule="evenodd" clip-rule="evenodd" d="M401.968 309.562L408.952 309.563L408.952 322.65L407.442 321.895L406.121 322.587L404.233 321.455L401.968 322.65L401.968 309.562Z" fill="#4071DF"/>
<path fill-rule="evenodd" clip-rule="evenodd" d="M444.001 309.562L450.985 309.563L450.985 322.65L449.475 321.895L448.091 322.587L446.203 321.455L444.001 322.65L444.001 309.562Z" fill="#4071DF"/>
<path d="M396.873 309.563L395.615 309.562L395.615 362.669L396.873 362.669L396.873 309.563Z" fill="#4071DF"/>
<defs>
<filter id="filter0_d_440_28876" x="1.00629" y="1.89996" width="524.437" height="373.928" filterUnits="userSpaceOnUse" color-interpolation-filters="sRGB">
<feFlood flood-opacity="0" result="BackgroundImageFix"/>
<feColorMatrix in="SourceAlpha" type="matrix" values="0 0 0 0 0 0 0 0 0 0 0 0 0 0 0 0 0 0 127 0" result="hardAlpha"/>
<feOffset dy="3.7594"/>
<feGaussianBlur stdDeviation="4.69925"/>
<feComposite in2="hardAlpha" operator="out"/>
<feColorMatrix type="matrix" values="0 0 0 0 0 0 0 0 0 0 0 0 0 0 0 0 0 0 0.02 0"/>
<feBlend mode="normal" in2="BackgroundImageFix" result="effect1_dropShadow_440_28876"/>
<feBlend mode="normal" in="SourceGraphic" in2="effect1_dropShadow_440_28876" result="shape"/>
</filter>
<filter id="filter1_d_440_28876" x="0.824892" y="0.942933" width="524.8" height="70.4025" filterUnits="userSpaceOnUse" color-interpolation-filters="sRGB">
<feFlood flood-opacity="0" result="BackgroundImageFix"/>
<feColorMatrix in="SourceAlpha" type="matrix" values="0 0 0 0 0 0 0 0 0 0 0 0 0 0 0 0 0 0 127 0" result="hardAlpha"/>
<feOffset dy="3.7594"/>
<feGaussianBlur stdDeviation="4.69925"/>
<feComposite in2="hardAlpha" operator="out"/>
<feColorMatrix type="matrix" values="0 0 0 0 0 0 0 0 0 0 0 0 0 0 0 0 0 0 0.02 0"/>
<feBlend mode="normal" in2="BackgroundImageFix" result="effect1_dropShadow_440_28876"/>
<feBlend mode="normal" in="SourceGraphic" in2="effect1_dropShadow_440_28876" result="shape"/>
</filter>
<linearGradient id="paint0_linear_440_28876" x1="29.5793" y1="11.6464" x2="143.465" y2="451.888" gradientUnits="userSpaceOnUse">
<stop offset="0.005" stop-color="#F7F7F7"/>
<stop offset="0.285" stop-color="white"/>
<stop offset="0.53" stop-color="#F4F4F4"/>
<stop offset="0.575" stop-color="#F4F4F4"/>
<stop offset="0.92" stop-color="white"/>
</linearGradient>
<linearGradient id="paint1_linear_440_28876" x1="38.1014" y1="7.53906" x2="149.808" y2="449.194" gradientUnits="userSpaceOnUse">
<stop stop-color="#E0E0E0"/>
<stop offset="0.41" stop-color="#E8E8E8"/>
<stop offset="1" stop-color="#D5D5D5"/>
</linearGradient>
<linearGradient id="paint2_linear_440_28876" x1="-44.5952" y1="-167.961" x2="-91.8032" y2="-110.601" gradientUnits="userSpaceOnUse">
<stop stop-color="#F7F7F7"/>
<stop offset="0.285" stop-color="white"/>
<stop offset="0.53" stop-color="#F4F4F4"/>
<stop offset="0.575" stop-color="#F4F4F4"/>
<stop offset="0.92" stop-color="white"/>
</linearGradient>
<linearGradient id="paint3_linear_440_28876" x1="271.405" y1="-11.4608" x2="252.294" y2="-15.3006" gradientUnits="userSpaceOnUse">
<stop offset="0.41" stop-color="#E8E8E8"/>
<stop offset="1" stop-color="#D5D5D5"/>
</linearGradient>
</defs>
</svg>
