<svg width="225" height="40" viewBox="0 0 225 40" fill="none" xmlns="http://www.w3.org/2000/svg">
<path d="M44.5273 32.8418V5.27734H55.9406C58.7939 5.27734 61.055 6.0849 62.7778 7.64617C64.4467 9.20744 65.3081 11.3071 65.3081 13.9451C65.3081 16.5831 64.4467 18.6827 62.7778 20.244C61.1089 21.8053 58.7939 22.6128 55.9406 22.6128H50.7185V32.8418H44.5273ZM50.7185 17.2291H55.2946C56.479 17.2291 57.3942 16.9599 58.094 16.3677C58.7401 15.7755 59.1169 14.968 59.1169 13.9451C59.1169 12.9222 58.7939 12.1146 58.094 11.5224C57.448 10.9302 56.479 10.661 55.2946 10.661H50.7185V17.2291Z" fill="#4071DF"/>
<path d="M74.1394 12.709C76.9389 12.709 79.1462 13.4089 80.7613 14.8625C82.3763 16.3161 83.1839 18.3619 83.1839 21.1075V32.844H77.5849V30.3136C76.9927 31.175 76.1852 31.8749 75.1623 32.3594C74.1394 32.8978 73.0627 33.1132 71.986 33.1132C70.0479 33.1132 68.4866 32.5748 67.2484 31.4442C66.0102 30.3136 65.418 28.9139 65.418 27.2449C65.418 23.4225 68.2713 21.2152 73.9779 20.5692L77.5849 20.1923V20.0846C77.5849 19.1156 77.2619 18.3619 76.6697 17.7697C76.0775 17.2313 75.2161 16.9083 74.1394 16.9083C73.1704 16.9083 72.4167 17.1774 71.7706 17.7158C71.1246 18.2542 70.7477 19.0079 70.6939 19.977L65.6333 19.0079C65.9563 17.0698 66.9254 15.5623 68.4866 14.3779C70.1017 13.3012 71.986 12.709 74.1394 12.709ZM73.4395 29.0216C74.6778 29.0216 75.7007 28.5909 76.4544 27.7295C77.2081 26.8681 77.5849 25.8452 77.6388 24.6069V24.5531V24.4454V24.2839L73.9241 24.7146C72.955 24.8223 72.2552 25.0915 71.7168 25.5222C71.1784 25.9529 70.9631 26.4374 70.9631 27.0834C70.9631 27.6756 71.1784 28.1063 71.6091 28.4832C72.0398 28.8601 72.6858 29.0216 73.4395 29.0216Z" fill="#4071DF"/>
<path d="M98.7438 13.0273H104.666L94.2215 39.9996H88.2996L91.4221 31.8703L83.7773 13.0273H90.0223L94.2754 24.5484L98.7438 13.0273Z" fill="#4071DF"/>
<path d="M118.821 33.1656C115.052 33.1656 111.822 31.9274 109.184 29.4509C106.546 26.9744 105.254 23.5288 105.254 19.0603C105.254 14.5919 106.6 11.1463 109.345 8.66982C112.091 6.19333 115.375 4.95508 119.305 4.95508C122.751 4.95508 125.604 5.76263 127.811 7.43158C130.072 9.10052 131.418 11.4155 131.957 14.3227L125.819 15.5609C125.496 13.9458 124.743 12.6538 123.558 11.6847C122.374 10.7156 120.92 10.2311 119.197 10.2311C116.883 10.2311 114.998 11.0386 113.545 12.5999C112.145 14.1612 111.445 16.3147 111.445 19.0603C111.445 21.806 112.145 23.9057 113.545 25.4669C114.944 27.0282 116.829 27.7819 119.09 27.7819C120.92 27.7819 122.428 27.2974 123.612 26.3822C124.796 25.4669 125.496 24.2825 125.712 22.7751H118.228V17.8221H131.472V32.8426H125.819V29.9892C125.227 30.9583 124.312 31.712 123.02 32.3042C121.728 32.8964 120.328 33.1656 118.821 33.1656Z" fill="#4071DF"/>
<path d="M134.973 32.8434V5.00977H140.733V32.8434H134.973Z" fill="#4071DF"/>
<path d="M153.761 33.167C150.692 33.167 148.162 32.1979 146.224 30.2598C144.285 28.3217 143.316 25.899 143.316 22.938C143.316 19.977 144.285 17.5005 146.224 15.6162C148.162 13.678 150.692 12.709 153.761 12.709C156.775 12.709 159.252 13.678 161.244 15.6162C163.236 17.5543 164.205 19.977 164.205 22.938C164.205 25.899 163.236 28.3755 161.244 30.2598C159.252 32.1979 156.775 33.167 153.761 33.167ZM153.761 28.2678C155.16 28.2678 156.291 27.7833 157.152 26.8142C158.014 25.8452 158.444 24.5531 158.444 22.9918C158.444 21.4306 158.014 20.1385 157.152 19.1694C156.291 18.2003 155.16 17.7158 153.761 17.7158C152.361 17.7158 151.176 18.2003 150.315 19.1694C149.454 20.1385 149.023 21.4306 149.023 22.9918C149.023 24.5531 149.454 25.8452 150.315 26.8142C151.176 27.7833 152.307 28.2678 153.761 28.2678Z" fill="#4071DF"/>
<path d="M175.89 33.167C172.875 33.167 170.452 32.1979 168.568 30.3136C166.684 28.4294 165.715 25.9529 165.715 22.938C165.715 19.9231 166.684 17.4466 168.568 15.5623C170.452 13.678 172.875 12.709 175.89 12.709C178.528 12.709 180.735 13.355 182.458 14.5933C184.181 15.8315 185.204 17.5543 185.527 19.7616L179.928 20.8384C179.766 19.8155 179.335 19.0617 178.689 18.4695C177.989 17.8773 177.128 17.6081 176.105 17.6081C174.759 17.6081 173.683 18.0927 172.875 19.0617C172.068 20.0308 171.691 21.3229 171.691 22.938C171.691 24.5531 172.121 25.8452 172.929 26.8142C173.736 27.7833 174.813 28.2678 176.159 28.2678C178.205 28.2678 179.443 27.2449 179.874 25.253L185.527 26.3836C185.15 28.4832 184.127 30.1521 182.404 31.3365C180.681 32.5748 178.474 33.167 175.89 33.167Z" fill="#4071DF"/>
<path d="M195.753 12.709C198.552 12.709 200.759 13.4089 202.375 14.8625C203.99 16.3161 204.797 18.3619 204.797 21.1075V32.844H199.198V30.3136C198.606 31.175 197.798 31.8749 196.776 32.3594C195.753 32.8978 194.676 33.1132 193.599 33.1132C191.661 33.1132 190.1 32.5748 188.862 31.4442C187.623 30.3136 187.031 28.9139 187.031 27.2449C187.031 23.4225 189.885 21.2152 195.591 20.5692L199.198 20.1923V20.0846C199.198 19.1156 198.875 18.3619 198.283 17.7697C197.691 17.2313 196.829 16.9083 195.753 16.9083C194.784 16.9083 194.03 17.1774 193.384 17.7158C192.738 18.2542 192.361 19.0079 192.307 19.977L187.247 19.0079C187.57 17.0698 188.539 15.5623 190.1 14.3779C191.715 13.3012 193.599 12.709 195.753 12.709ZM195.053 29.0216C196.291 29.0216 197.314 28.5909 198.068 27.7295C198.821 26.8681 199.198 25.8452 199.252 24.6069V24.5531V24.4454V24.2839L195.537 24.7146C194.568 24.8223 193.868 25.0915 193.33 25.5222C192.792 25.9529 192.576 26.4374 192.576 27.0834C192.576 27.6756 192.792 28.1063 193.222 28.4832C193.653 28.8601 194.245 29.0216 195.053 29.0216Z" fill="#4071DF"/>
<path d="M208.293 32.8434V5.00977H214.053V32.8434H208.293Z" fill="#4071DF"/>
<path d="M218.469 8.67033V5.2786H217.23V4.74023H220.299V5.33244H219.115V8.72416H218.469V8.67033Z" fill="#4071DF"/>
<path d="M220.68 8.67033V4.74023H221.433L222.672 7.7551L223.91 4.74023H224.664V8.67033H224.018V5.97848L222.887 8.67033H222.349L221.218 5.97848V8.67033H220.68Z" fill="#4071DF"/>
<path d="M32.5709 7.53716L20.9422 0.807553C19.058 -0.269184 16.6892 -0.269184 14.7511 0.807553L3.06866 7.53716C1.18439 8.66774 0 10.7135 0 12.9209V26.3801C0 28.5874 1.18439 30.6332 3.06866 31.7638L14.7511 38.4934C15.7201 39.0317 16.7969 39.3009 17.8198 39.3009C18.8965 39.3009 19.9732 39.0317 20.8884 38.4934L32.5709 31.7638C34.4551 30.687 35.6395 28.5874 35.6395 26.3801V12.9209C35.6933 10.7135 34.5089 8.66774 32.5709 7.53716ZM29.7175 26.7031L18.0351 33.4327C17.9274 33.4865 17.7659 33.4865 17.6582 33.4327L5.97581 26.7031C5.86814 26.6493 5.76046 26.4877 5.76046 26.3801V12.9209C5.76046 12.7593 5.8143 12.6517 5.97581 12.5978L17.6582 5.86822C17.7121 5.81438 17.7659 5.81438 17.8736 5.81438C17.9274 5.81438 18.0351 5.81438 18.0889 5.86822L29.7714 12.5978C29.879 12.6517 29.9867 12.8132 29.9867 12.9209V16.7433H17.7121C16.097 16.7433 14.8049 18.0354 14.8049 19.6505C14.8049 21.2656 16.097 22.5577 17.7121 22.5577H29.879V26.3801C29.879 26.5416 29.8252 26.6493 29.7175 26.7031Z" fill="#4071DF"/>
</svg>
