<svg width="40" height="40" viewBox="0 0 40 40" fill="none" xmlns="http://www.w3.org/2000/svg">
<path d="M23.3346 3.33398H10.0013C9.11725 3.33398 8.2694 3.68517 7.64428 4.31029C7.01916 4.93542 6.66797 5.78326 6.66797 6.66732V33.334C6.66797 34.218 7.01916 35.0659 7.64428 35.691C8.2694 36.3161 9.11725 36.6673 10.0013 36.6673H30.0013C30.8854 36.6673 31.7332 36.3161 32.3583 35.691C32.9834 35.0659 33.3346 34.218 33.3346 33.334V13.334L23.3346 3.33398Z" stroke="#282A2B" stroke-width="2" stroke-linecap="round" stroke-linejoin="round"/>
<path d="M23.332 3.33398V13.334H33.332" stroke="#282A2B" stroke-width="2" stroke-linecap="round" stroke-linejoin="round"/>
<path d="M26.6654 21.666H13.332" stroke="#282A2B" stroke-width="2" stroke-linecap="round" stroke-linejoin="round"/>
<path d="M26.6654 28.334H13.332" stroke="#282A2B" stroke-width="2" stroke-linecap="round" stroke-linejoin="round"/>
<path d="M16.6654 15H14.9987H13.332" stroke="#282A2B" stroke-width="2" stroke-linecap="round" stroke-linejoin="round"/>
</svg>
