<svg width="100" height="100" viewBox="0 0 100 100" fill="none" xmlns="http://www.w3.org/2000/svg">
<rect x="0.5" y="0.5" width="99" height="99" rx="49.5" fill="white"/>
<rect x="0.5" y="0.5" width="99" height="99" rx="49.5" stroke="#F0F3F5"/>
<path d="M33.8551 57.8282V53.3712V47.2375C33.8551 46.2571 33.8788 45.2814 34.0114 44.3104C33.9925 44.4383 33.9783 44.5614 33.9593 44.6893C34.163 43.2021 34.5608 41.748 35.1434 40.3649L35.0013 40.7059C35.3376 39.9102 35.7308 39.1429 36.1807 38.404C36.408 38.0298 36.6543 37.6604 36.9101 37.3051C36.9717 37.2199 37.0333 37.1346 37.0948 37.0541C37.1185 37.0209 37.1469 36.9878 37.1706 36.9546C37.3222 36.751 36.9433 37.2435 37.0996 37.0446C37.2369 36.8741 37.3743 36.7036 37.5164 36.5331C38.0658 35.8795 38.6673 35.2684 39.3115 34.7001C39.4584 34.5675 39.6099 34.4396 39.7662 34.3164C39.8468 34.2501 39.9273 34.1838 40.0078 34.1222C40.0883 34.0559 40.292 33.9091 39.9178 34.1885C39.9699 34.1507 40.0173 34.1128 40.0694 34.0749C40.4104 33.8191 40.7656 33.5728 41.1256 33.3407C41.9497 32.815 42.8118 32.3603 43.7116 31.9766L43.3706 32.1187C44.73 31.5503 46.1604 31.1572 47.6239 30.9536C47.496 30.9725 47.3729 30.9867 47.245 31.0057C48.7559 30.802 50.2858 30.8067 51.8014 31.0057C51.6735 30.9867 51.5504 30.9725 51.4225 30.9536C52.9002 31.1572 54.3402 31.5503 55.7138 32.1235C55.6001 32.0761 55.4864 32.0287 55.3727 31.9814C56.1732 32.3177 56.9452 32.7155 57.6842 33.1655C58.0394 33.3834 58.3899 33.6155 58.7309 33.8618C58.8114 33.9186 58.892 33.9754 58.9678 34.037C59.0151 34.0749 59.0672 34.1128 59.1146 34.146C59.2519 34.2502 58.8636 33.9518 59.0009 34.0607C59.1762 34.1981 59.3467 34.3354 59.5172 34.4775C60.1613 35.0222 60.7676 35.619 61.3265 36.2489C61.4639 36.4052 61.5965 36.5615 61.7291 36.7226C61.7907 36.7984 61.8523 36.8741 61.9138 36.9499C61.9517 36.9973 62.0559 37.1346 61.9138 36.9499C61.7575 36.7463 61.9281 36.9689 61.9565 37.0115C62.2122 37.3525 62.4585 37.7078 62.6906 38.0677C63.2069 38.8776 63.6568 39.7302 64.0311 40.6159C63.9837 40.5023 63.9364 40.3886 63.889 40.2749C64.4763 41.6674 64.8742 43.1263 65.0779 44.623C65.0589 44.4951 65.0447 44.3719 65.0258 44.244C65.2531 45.9918 65.1726 47.7869 65.1726 49.5441V56.213V57.8187C65.1726 58.5623 65.8262 59.2728 66.5935 59.2396C67.3656 59.2064 68.0144 58.6144 68.0144 57.8187V53.6742V47.4695C68.0144 46.9106 68.0239 46.3469 68.0002 45.7833C67.9197 43.8365 67.5455 41.8899 66.8493 40.0711C65.4426 36.3956 62.9512 33.2506 59.6735 31.062C56.4622 28.9164 52.5309 27.8317 48.6758 28.0212C45.3414 28.187 42.0543 29.2527 39.2882 31.1331C36.5837 32.9755 34.3339 35.5001 32.9083 38.4509C31.6436 41.0655 31.0137 43.8883 31.0137 46.7918V51.9499V57.4962V57.8183C31.0137 58.5619 31.6673 59.2724 32.4346 59.2392C33.2019 59.2155 33.8555 58.6235 33.8555 57.8278L33.8551 57.8282Z" fill="#4071DF"/>
<path d="M40.3354 48.8755V57.1311C40.3354 58.3578 39.3408 59.3525 38.1141 59.3525H33.9508C33.1077 59.3525 32.4209 58.6704 32.4209 57.8226V46.6543H38.1141C39.3408 46.6543 40.3354 47.6489 40.3354 48.8757V48.8755Z" fill="#4071DF"/>
<path d="M38.9146 48.8768V51.7471V56.2278C38.9146 56.6351 38.943 57.0614 38.8909 57.464C38.9098 57.3361 38.924 57.2129 38.943 57.0851C38.9098 57.2745 38.8625 57.4592 38.7867 57.6345C38.834 57.5208 38.8814 57.4071 38.9288 57.2935C38.8767 57.4071 38.8198 57.5208 38.7535 57.625C38.5877 57.8808 38.834 57.5492 38.8293 57.5398C38.8388 57.5587 38.7014 57.6819 38.6825 57.7008C38.6398 57.7434 38.5877 57.7813 38.5451 57.8287C38.4504 57.9282 38.8767 57.6156 38.6351 57.7576C38.5167 57.8287 38.403 57.895 38.2799 57.9518L38.6209 57.8098C38.4409 57.8855 38.2609 57.9376 38.0715 57.9661C38.1994 57.9471 38.3225 57.9329 38.4504 57.914C37.9104 57.985 37.3468 57.9376 36.8021 57.9376H34.4386C34.2113 57.9376 33.9839 57.9471 33.7613 57.9234C33.8892 57.9424 34.0123 57.9566 34.1402 57.9755C34.0123 57.9566 33.8939 57.9234 33.7708 57.8808C33.8845 57.9282 33.9981 57.9755 34.1118 58.0229C34.0266 57.985 33.946 57.9376 33.8608 57.895C33.8134 57.8713 33.6808 57.7624 33.8797 57.9139C34.0881 58.075 33.9224 57.9424 33.8845 57.9045C33.875 57.895 33.7992 57.8192 33.7992 57.8145C33.8087 57.8003 34.0076 58.1271 33.9082 57.9518C33.8561 57.8618 33.804 57.7718 33.7661 57.6771C33.8134 57.7908 33.8608 57.9045 33.9082 58.0181C33.8608 57.895 33.8324 57.7766 33.8134 57.6487C33.8324 57.7766 33.8466 57.8997 33.8655 58.0276C33.8229 57.6203 33.8513 57.194 33.8513 56.7819V54.1295V48.0621V46.6554L32.4304 48.0763H37.5363C37.8394 48.0763 38.152 48.0621 38.4504 48.1C38.3226 48.081 38.1994 48.0668 38.0715 48.0479C38.261 48.081 38.4457 48.1284 38.621 48.2042L38.2799 48.0621C38.3936 48.1142 38.5073 48.171 38.6115 48.2373C38.8673 48.4031 38.5357 48.1568 38.5262 48.1615C38.5452 48.1521 38.6683 48.2894 38.6873 48.3084C38.7299 48.351 38.7678 48.4031 38.8152 48.4457C38.9146 48.5404 38.602 48.1142 38.7441 48.3557C38.8152 48.4741 38.8815 48.5878 38.9383 48.711C38.8909 48.5973 38.8436 48.4836 38.7962 48.3699C38.872 48.5499 38.9241 48.7299 38.9525 48.9194C38.9336 48.7915 38.9194 48.6683 38.9004 48.5404C38.9052 48.6589 38.9099 48.7678 38.9146 48.8767C38.9241 49.6204 39.5588 50.3308 40.3355 50.2976C41.0981 50.2645 41.766 49.6724 41.7565 48.8767C41.7328 47.2901 40.7476 45.978 39.284 45.4286C38.7393 45.225 38.1567 45.2344 37.5884 45.2344H33.6003H32.4209C31.6536 45.2344 31 45.8833 31 46.6554V51.7707V57.7197C31 58.5296 31.27 59.2733 31.8194 59.8748C32.4304 60.5379 33.2971 60.7842 34.1687 60.7842H37.5647C38.0905 60.7842 38.6209 60.7937 39.1325 60.6374C40.3545 60.2679 41.3966 59.2401 41.657 57.9708C41.8228 57.1703 41.7565 56.3083 41.7565 55.4936V49.0236V48.8815C41.7565 48.1379 41.1029 47.4274 40.3356 47.4606C39.5635 47.489 38.9146 48.081 38.9146 48.8767L38.9146 48.8768Z" fill="#4071DF"/>
<path d="M66.5751 46.6543V57.8278C66.5751 58.6709 65.893 59.3577 65.0452 59.3577H60.9245C59.6977 59.3577 58.7031 58.363 58.7031 57.1363V48.8759C58.7031 47.6492 59.6977 46.6546 60.9245 46.6546L66.5751 46.6543Z" fill="#4071DF"/>
<path d="M65.1547 46.6547V50.4912V56.5207C65.1547 57.018 65.1974 57.5295 65.1405 58.0269C65.1595 57.899 65.1737 57.7759 65.1926 57.648C65.1737 57.7759 65.1405 57.8943 65.0979 58.0174L65.24 57.6764C65.2021 57.7617 65.1547 57.8422 65.1121 57.9274C65.0884 57.9748 64.9795 58.1074 65.131 57.9085C65.2921 57.7001 65.1595 57.8659 65.1216 57.9038C65.1121 57.9132 65.0363 57.989 65.0316 57.989C65.0174 57.9795 65.3442 57.7806 65.1689 57.8801C65.0789 57.9322 64.989 57.9843 64.8942 58.0222C65.0079 57.9748 65.1216 57.9274 65.2352 57.8801C65.1121 57.9274 64.9937 57.9559 64.8658 57.9748C64.9937 57.9559 65.1168 57.9417 65.2447 57.9227C64.7237 57.9796 64.1837 57.9369 63.658 57.9369H61.3466C61.0956 57.9369 60.8445 57.9464 60.5935 57.9132C60.7214 57.9322 60.8445 57.9464 60.9724 57.9653C60.783 57.9322 60.5982 57.8848 60.423 57.809L60.764 57.9511C60.6503 57.899 60.5367 57.8422 60.4325 57.7759C60.1767 57.6101 60.5082 57.8564 60.5177 57.8517C60.4988 57.8611 60.3756 57.7238 60.3567 57.7048C60.314 57.6622 60.2762 57.6101 60.2288 57.5675C60.1293 57.4728 60.4419 57.899 60.2998 57.6575C60.2288 57.5391 60.1625 57.4254 60.1056 57.3022L60.2477 57.6433C60.1719 57.4633 60.1198 57.2833 60.0914 57.0938C60.1104 57.2217 60.1246 57.3449 60.1435 57.4727C60.0962 57.127 60.1198 56.7623 60.1198 56.4165V54.413V49.8281C60.1198 49.4113 60.0867 48.9755 60.1435 48.5587C60.1246 48.6866 60.1104 48.8098 60.0914 48.9377C60.1246 48.7482 60.1719 48.5635 60.2477 48.3882L60.1056 48.7292C60.1577 48.6156 60.2146 48.5019 60.2809 48.3977C60.4467 48.1419 60.2004 48.4735 60.2051 48.4829C60.1956 48.464 60.333 48.3409 60.3519 48.3219C60.3946 48.2793 60.4467 48.2414 60.4893 48.194C60.584 48.0946 60.1577 48.4072 60.3993 48.2651C60.5177 48.194 60.6314 48.1277 60.7545 48.0709L60.4135 48.213C60.5935 48.1372 60.7735 48.0851 60.9629 48.0567C60.835 48.0756 60.7119 48.0898 60.584 48.1088C60.8398 48.0756 61.105 48.0851 61.3608 48.0851H62.6917H65.8225H66.5614C67.305 48.0851 68.0155 47.4314 67.9823 46.6642C67.9491 45.8921 67.3571 45.2432 66.5614 45.2432H62.938H61.086C60.0014 45.2432 58.9025 45.6174 58.1873 46.47C57.6094 47.1615 57.2779 47.9762 57.2637 48.8856V49.1224V50.7233V55.4787V56.9707C57.2637 58.0033 57.6 59.0074 58.353 59.7415C58.9972 60.3667 59.7929 60.6841 60.6739 60.7741C60.8681 60.793 61.0623 60.7883 61.2565 60.7883H63.4826C63.9989 60.7883 64.5152 60.7978 65.0267 60.7883C66.6608 60.7599 67.9538 59.4526 67.9775 57.8233C67.9917 56.9045 67.9775 55.9855 67.9775 55.0667V50.1882V46.8347V46.6642C67.9775 45.9206 67.3239 45.2101 66.5566 45.2433C65.8082 45.267 65.1545 45.859 65.1545 46.6548L65.1547 46.6547Z" fill="#4071DF"/>
<path d="M51.3335 71.2801H47.6818C46.3224 71.2801 45.2188 70.1765 45.2188 68.8171V68.3292C45.2188 66.9699 46.3223 65.8662 47.6818 65.8662H51.3335C52.6929 65.8662 53.7965 66.9698 53.7965 68.3292V68.8171C53.7965 70.1764 52.693 71.2801 51.3335 71.2801Z" fill="#4071DF"/>
<path d="M51.3339 70.5693H47.9947C47.8431 70.5693 47.6963 70.574 47.5447 70.5646C47.5258 70.5646 47.3126 70.5361 47.4737 70.5646C47.4121 70.5551 47.3458 70.5409 47.2842 70.5267C47.2226 70.5125 47.1611 70.4935 47.0995 70.4746C47.0805 70.4698 46.8863 70.3893 47.0332 70.4556C46.9384 70.413 46.8437 70.3656 46.7585 70.3088C46.7064 70.2756 46.6543 70.2425 46.6021 70.2046C46.7253 70.2898 46.5264 70.1383 46.5074 70.1193C46.4174 70.0341 46.3322 69.9441 46.2564 69.8446C46.3369 69.9488 46.2706 69.8588 46.2564 69.8399C46.2232 69.7878 46.1901 69.7357 46.1569 69.6836C46.1238 69.6315 46.1001 69.5746 46.0717 69.5178C45.9817 69.3426 46.1048 69.6409 46.048 69.4562C46.0054 69.3141 45.9627 69.172 45.939 69.0252C45.9438 69.0584 45.9485 69.1578 45.939 69.0205C45.9343 68.9542 45.9343 68.8879 45.9296 68.8215V68.6652C45.9296 68.5089 45.9248 68.3526 45.9343 68.2011C45.9343 68.1821 45.9627 67.969 45.9343 68.13C45.9438 68.0684 45.958 68.0021 45.9722 67.9406C45.9959 67.8364 46.029 67.7369 46.0669 67.6374C46.0101 67.7842 46.0859 67.5948 46.0954 67.5758C46.1238 67.519 46.1522 67.4669 46.1854 67.4101C46.2185 67.358 46.2517 67.3059 46.2896 67.2538C46.2043 67.3769 46.3559 67.178 46.3748 67.159C46.4459 67.0832 46.5216 67.0122 46.5974 66.9459C46.7443 66.818 46.4837 67.0075 46.6495 66.908C46.7016 66.8748 46.7537 66.8417 46.8058 66.8085C46.8579 66.7754 46.9148 66.7517 46.9716 66.7233C47.1468 66.6333 46.8485 66.7564 47.0332 66.6996C47.1563 66.6617 47.2747 66.6285 47.4026 66.6001C47.5968 66.5528 47.27 66.6001 47.4737 66.5907C47.54 66.5907 47.6063 66.5859 47.6726 66.5812H47.701H47.9094H48.743H50.827H51.3149C51.3622 66.5812 51.4143 66.5812 51.4617 66.5859C51.4807 66.5859 51.6938 66.6143 51.5328 66.5859C51.5943 66.5954 51.6606 66.6096 51.7222 66.6238C51.8264 66.6475 51.9259 66.6807 52.0253 66.7185C51.8785 66.6617 52.068 66.7375 52.0869 66.747C52.1627 66.7849 52.2338 66.8275 52.3048 66.8701C52.319 66.8796 52.4848 66.998 52.3616 66.9033C52.409 66.9412 52.4564 66.9838 52.5037 67.0264C52.5511 67.0691 52.5937 67.1117 52.6363 67.159C52.6553 67.1827 52.8069 67.3817 52.7216 67.2538C52.8069 67.3769 52.8779 67.5001 52.9442 67.6279C53.0342 67.8032 52.9205 67.5474 52.9584 67.6611C52.9821 67.7322 53.0058 67.8032 53.0247 67.8742C53.0437 67.9358 53.0532 67.9974 53.0674 68.0637C53.0816 68.149 53.0816 68.149 53.0721 68.0684C53.0768 68.1111 53.0816 68.1537 53.0816 68.2011C53.0863 68.2721 53.0863 68.3384 53.0863 68.4095C53.0863 68.5894 53.091 68.7742 53.0816 68.9541C53.0816 68.9494 53.0626 69.1625 53.0768 69.0536C53.0863 68.9731 53.0484 69.191 53.0437 69.2147C53.0295 69.2762 53.0105 69.3378 52.9916 69.3994C52.9774 69.4373 52.9632 69.4799 52.9489 69.5178C52.9821 69.4467 52.9821 69.4467 52.9442 69.5225C52.8826 69.6457 52.8163 69.7593 52.7405 69.873C52.6742 69.9725 52.8495 69.7546 52.7216 69.9014C52.6648 69.963 52.6127 70.0246 52.5511 70.0814C52.5084 70.1241 52.4611 70.1667 52.4137 70.2046C52.3521 70.2567 52.3474 70.2567 52.409 70.2093C52.3758 70.233 52.3427 70.2567 52.3048 70.2804C52.2006 70.3467 52.0917 70.4082 51.9732 70.4603C52.1201 70.3988 51.9259 70.4745 51.9069 70.4793C51.8264 70.5077 51.7459 70.5267 51.6606 70.5456C51.6417 70.5503 51.4333 70.5788 51.5943 70.5598C51.5091 70.5645 51.4192 70.5646 51.3339 70.5693C50.9645 70.574 50.6044 70.8914 50.6233 71.2797C50.6423 71.6587 50.936 71.9949 51.3338 71.9902C52.6789 71.9713 53.8394 71.1424 54.3178 69.8919C54.4978 69.4277 54.5072 68.9351 54.5072 68.4426C54.5072 67.8648 54.3936 67.3106 54.1141 66.799C53.5599 65.776 52.4611 65.165 51.3101 65.1554C50.7181 65.1507 50.126 65.1554 49.5293 65.1554C48.923 65.1554 48.3167 65.1507 47.7105 65.1554C46.5643 65.1602 45.4749 65.7617 44.9112 66.7705C44.6271 67.2821 44.5039 67.8409 44.5039 68.4235C44.5039 68.9114 44.5134 69.3993 44.6839 69.8587C45.1433 71.0996 46.2848 71.9474 47.611 71.9854C48.8046 72.0185 50.0077 71.9854 51.2012 71.9854H51.3291C51.6986 71.9854 52.0586 71.6585 52.0396 71.2749C52.0254 70.8912 51.7317 70.5692 51.3339 70.5692L51.3339 70.5693Z" fill="#4071DF"/>
<path d="M53.7971 69.9905H56.6959C57.9084 69.9905 59.1115 70.0284 60.3145 69.8247C62.2706 69.4884 64.1463 68.437 65.4819 66.9781C66.9408 65.3914 67.7886 63.4069 67.9828 61.266C68.0349 60.6692 68.0159 60.0629 68.0159 59.4661V57.8273C68.0159 57.0837 67.3623 56.3732 66.595 56.4064C65.823 56.4395 65.1741 57.0316 65.1741 57.8273V59.5561C65.1741 60.2334 65.1931 60.9155 65.1078 61.5881C65.1268 61.4602 65.141 61.337 65.1599 61.2091C65.0604 61.9291 64.871 62.6301 64.5915 63.2979C64.6389 63.1842 64.6863 63.0706 64.7336 62.9569C64.5347 63.4163 64.2979 63.8568 64.0232 64.2736C63.9521 64.3778 63.8811 64.4773 63.81 64.5767C63.649 64.7993 63.8763 64.5483 63.8811 64.4867C63.8763 64.5294 63.7911 64.5957 63.7627 64.6336C63.5969 64.8325 63.4264 65.022 63.2416 65.2067C63.0664 65.3819 62.8817 65.5477 62.6922 65.7087C62.6449 65.7466 62.5975 65.7845 62.5454 65.8272C62.4317 65.9266 62.8675 65.5903 62.6354 65.7561C62.5359 65.8272 62.4365 65.9029 62.3323 65.974C61.9107 66.2582 61.456 66.5045 60.9871 66.7034L61.3281 66.5613C60.6603 66.8408 59.9593 67.035 59.2394 67.1297C59.3673 67.1107 59.4904 67.0965 59.6183 67.0776C58.8794 67.1723 58.131 67.1439 57.3874 67.1439H54.5219H53.8019C53.0583 67.1439 52.3478 67.7975 52.381 68.5648C52.4094 69.3416 52.9967 69.9905 53.7972 69.9905L53.7971 69.9905Z" fill="#4071DF"/>
</svg>
