<svg width="337" height="301" viewBox="0 0 337 301" fill="none" xmlns="http://www.w3.org/2000/svg">
<path d="M1.13015 14.8714C1.13015 7.31711 8.30075 1.08522 17.29 1.08522H272.742C281.731 1.08522 288.902 7.31711 288.902 14.8714V211.026C288.902 218.581 281.731 224.812 272.742 224.812H17.29C8.30075 224.812 1.13015 218.581 1.13015 211.026V14.8714Z" fill="white" stroke="#DCE0E0" stroke-width="0.855997"/>
<path d="M1.45996 63.6113H289.622V64.3349H1.45996V63.6113Z" fill="#CCCCCC"/>
<path d="M32.2544 43.0898L30.9645 39.7621H25.1502L23.8602 43.0898H22.1028L27.2815 30.003H28.8332L34.0305 43.0898H32.2544ZM25.7297 38.2477H30.3849L28.0667 32.2465L25.7297 38.2477ZM39.403 43.2394C36.4678 43.2394 34.86 41.1455 34.86 38.3786C34.86 35.6117 36.4678 33.5178 39.3843 33.5178C40.6369 33.5178 41.8708 34.1347 42.469 35.0134V29.8535H44.0581V43.0898H42.469V41.7251C42.039 42.5851 40.7864 43.2394 39.403 43.2394ZM39.5525 41.8186C41.4034 41.8186 42.6186 40.4538 42.6186 38.3786C42.6186 36.3034 41.4034 34.9386 39.5525 34.9386C37.7017 34.9386 36.4865 36.3034 36.4865 38.3786C36.4865 40.4538 37.7017 41.8186 39.5525 41.8186ZM50.6312 43.2394C47.696 43.2394 46.0882 41.1455 46.0882 38.3786C46.0882 35.6117 47.696 33.5178 50.6125 33.5178C51.8651 33.5178 53.099 34.1347 53.6972 35.0134V29.8535H55.2863V43.0898H53.6972V41.7251C53.2672 42.5851 52.0146 43.2394 50.6312 43.2394ZM50.7807 41.8186C52.6316 41.8186 53.8468 40.4538 53.8468 38.3786C53.8468 36.3034 52.6316 34.9386 50.7807 34.9386C48.9299 34.9386 47.7147 36.3034 47.7147 38.3786C47.7147 40.4538 48.9299 41.8186 50.7807 41.8186ZM62.3681 43.0898V33.6674H63.9572V35.4434C64.6115 34.3217 65.752 33.5178 67.1915 33.5178C69.1545 33.5178 70.5567 34.8452 70.5567 36.8456V43.0898H68.9676V37.1447C68.9676 35.8734 68.1637 34.9573 66.8363 34.9573C65.0789 34.9573 63.9572 36.4717 63.9572 38.9582V43.0898H62.3681ZM81.665 37.9486C81.665 38.1729 81.6463 38.5095 81.6276 38.6777H74.1868C74.299 40.5847 75.4955 41.8373 77.1968 41.8373C78.6363 41.8373 79.6272 41.1642 79.9076 39.9864L81.4032 40.3416C80.9359 42.1738 79.3654 43.2394 77.1968 43.2394C74.3738 43.2394 72.5977 41.052 72.5977 38.3786C72.5977 35.7052 74.3177 33.5178 77.1594 33.5178C79.945 33.5178 81.665 35.5182 81.665 37.9486ZM74.2803 37.3503H79.9824C79.8328 35.9108 78.8233 34.8452 77.1594 34.8452C75.6824 34.8452 74.5981 35.7799 74.2803 37.3503ZM85.5674 43.0898L82.6883 33.6674H84.3148L86.3526 40.8651L88.5586 33.6674H90.0917L92.2977 40.8651L94.3168 33.6674H95.9807L93.0829 43.0898H91.5312L89.3251 35.9295L87.1191 43.0898H85.5674ZM107.775 35.2191C107.42 35.0695 106.971 34.9947 106.56 34.9947C105.064 34.9947 103.849 36.4343 103.849 39.5003V43.0898H102.26V33.6674H103.849V35.5743C104.391 34.3778 105.625 33.5178 106.784 33.5178C107.177 33.5178 107.551 33.5739 107.869 33.686L107.775 35.2191ZM117.533 33.6674V43.0898H115.943V41.3138C115.289 42.4355 114.149 43.2394 112.709 43.2394C110.746 43.2394 109.344 41.912 109.344 39.9116V33.6674H110.933V39.6125C110.933 40.8838 111.737 41.7999 113.064 41.7999C114.822 41.7999 115.943 40.2855 115.943 37.799V33.6674H117.533ZM120.116 43.0898V29.8535H121.705V43.0898H120.116ZM132.804 37.9486C132.804 38.1729 132.785 38.5095 132.766 38.6777H125.325C125.438 40.5847 126.634 41.8373 128.335 41.8373C129.775 41.8373 130.766 41.1642 131.046 39.9864L132.542 40.3416C132.074 42.1738 130.504 43.2394 128.335 43.2394C125.512 43.2394 123.736 41.052 123.736 38.3786C123.736 35.7052 125.456 33.5178 128.298 33.5178C131.084 33.5178 132.804 35.5182 132.804 37.9486ZM125.419 37.3503H131.121C130.971 35.9108 129.962 34.8452 128.298 34.8452C126.821 34.8452 125.737 35.7799 125.419 37.3503ZM137.918 43.2394C135.637 43.2394 134.403 41.8186 133.992 40.4912L135.356 39.8929C135.712 40.996 136.459 41.8933 137.918 41.8933C139.077 41.8933 139.825 41.2203 139.825 40.4538C139.825 38.0421 134.403 39.5938 134.403 36.023C134.403 34.5273 135.693 33.5178 137.712 33.5178C139.376 33.5178 140.815 34.4526 141.208 35.836L139.881 36.4156C139.619 35.4434 138.684 34.8265 137.675 34.8265C136.609 34.8265 135.936 35.2565 135.936 36.0043C135.936 38.0234 141.395 36.5464 141.376 40.4351C141.376 42.0803 139.993 43.2394 137.918 43.2394Z" fill="#1A1A1A"/>
<path fill-rule="evenodd" clip-rule="evenodd" d="M22.2715 96.9202C22.2715 93.2024 25.43 90.1885 29.3262 90.1885C33.2224 90.1885 36.381 93.2024 36.381 96.9202C36.381 100.638 33.2224 103.652 29.3262 103.652C25.43 103.652 22.2715 100.638 22.2715 96.9202ZM29.3262 90.9804C25.8884 90.9804 23.1015 93.6398 23.1015 96.9202C23.1015 100.201 25.8884 102.86 29.3262 102.86C32.7641 102.86 35.551 100.201 35.551 96.9202C35.551 93.6398 32.7641 90.9804 29.3262 90.9804Z" fill="#96969C"/>
<path d="M57.4533 102.134V90.7088H64.4226V91.7207H58.5469V95.5399H63.3617V96.5519H58.5469V101.122H64.6021V102.134H57.4533ZM66.5373 102.134V93.9078H67.5656V95.6216C68.1695 94.5443 69.1977 93.7772 70.5034 93.7772C72.1845 93.7772 73.4086 94.9197 73.4086 96.6498V102.134H72.3804V96.7804C72.3804 95.5889 71.6296 94.7239 70.3565 94.7239C68.6917 94.7239 67.5656 96.1928 67.5656 98.5268V102.134H66.5373ZM78.8173 93.7772C80.7269 93.7772 82.0652 94.9687 82.0652 96.7151V102.134H81.037V100.632C80.5473 101.628 79.4212 102.264 78.1318 102.264C76.467 102.264 75.3408 101.285 75.3408 99.8488C75.3408 98.2656 76.6628 97.4169 79.3885 97.1394L81.037 96.9762V96.7477C81.037 95.5073 80.1393 94.7239 78.8173 94.7239C77.5605 94.7239 76.6955 95.4583 76.5486 96.6661L75.553 96.4703C75.7978 94.8544 77.1035 93.7772 78.8173 93.7772ZM78.2134 101.318C79.9924 101.318 81.037 100.224 81.037 98.3309V97.8413L79.4212 98.0045C77.4299 98.2167 76.418 98.8369 76.418 99.8488C76.418 100.73 77.1688 101.318 78.2134 101.318ZM88.3371 102.264C87.0314 102.264 85.8399 101.612 85.4809 100.812V102.134H84.4526V90.5782H85.4809V95.2298C86.0195 94.3811 87.2109 93.7772 88.3371 93.7772C90.9485 93.7772 92.3358 95.6705 92.3358 98.0208C92.3358 100.371 90.9485 102.264 88.3371 102.264ZM88.3045 101.318C90.0835 101.318 91.2423 100.012 91.2423 98.0208C91.2423 96.0296 90.0835 94.7239 88.3045 94.7239C86.5254 94.7239 85.3666 96.0296 85.3666 98.0208C85.3666 100.012 86.5254 101.318 88.3045 101.318ZM94.2231 102.134V90.5782H95.2514V102.134H94.2231ZM104.913 97.5801C104.913 97.727 104.897 98.0045 104.881 98.1187H98.189C98.2053 100.028 99.3968 101.318 101.062 101.318C102.465 101.318 103.444 100.665 103.689 99.506L104.669 99.7019C104.293 101.334 102.955 102.264 101.078 102.264C98.7439 102.264 97.1444 100.469 97.1444 98.0208C97.1444 95.5726 98.7439 93.7772 101.078 93.7772C103.33 93.7772 104.913 95.3604 104.913 97.5801ZM98.2706 97.1721H103.853C103.689 95.7521 102.694 94.7239 101.078 94.7239C99.6253 94.7239 98.5644 95.6542 98.2706 97.1721Z" fill="#484848"/>
<path fill-rule="evenodd" clip-rule="evenodd" d="M22.0742 135.985C22.0742 132.267 25.2327 129.253 29.129 129.253C33.0252 129.253 36.1837 132.267 36.1837 135.985C36.1837 139.702 33.0252 142.716 29.129 142.716C25.2327 142.716 22.0742 139.702 22.0742 135.985ZM29.129 130.045C25.6911 130.045 22.9042 132.704 22.9042 135.985C22.9042 139.265 25.6911 141.924 29.129 141.924C32.5668 141.924 35.3537 139.265 35.3537 135.985C35.3537 132.704 32.5668 130.045 29.129 130.045Z" fill="#96969C"/>
<path d="M25.3545 97.0633C25.3545 94.8764 27.2124 93.1035 29.5043 93.1035C31.7962 93.1035 33.6542 94.8764 33.6542 97.0633C33.6542 99.2503 31.7962 101.023 29.5043 101.023C27.2124 101.023 25.3545 99.2503 25.3545 97.0633Z" fill="#4071DF"/>
<path d="M57.385 140.981V129.556H60.6166C63.8319 129.556 66.2638 131.695 66.2638 135.269C66.2638 138.843 63.8319 140.981 60.6166 140.981H57.385ZM58.4785 139.97H60.6492C62.9669 139.97 65.105 138.55 65.105 135.269C65.105 131.988 62.9669 130.568 60.6492 130.568H58.4785V139.97ZM75.4538 136.428C75.4538 136.575 75.4374 136.852 75.4211 136.966H68.7294C68.7457 138.876 69.9371 140.165 71.6019 140.165C73.0056 140.165 73.9848 139.513 74.2297 138.354L75.2089 138.55C74.8336 140.182 73.4952 141.112 71.6182 141.112C69.2843 141.112 67.6848 139.317 67.6848 136.868C67.6848 134.42 69.2843 132.625 71.6182 132.625C73.8706 132.625 75.4538 134.208 75.4538 136.428ZM68.811 136.02H74.3929C74.2297 134.6 73.2341 133.572 71.6182 133.572C70.1656 133.572 69.1047 134.502 68.811 136.02ZM80.881 141.112C78.4328 141.112 76.8496 139.431 76.8496 136.868C76.8496 134.306 78.4328 132.625 80.881 132.625C82.6764 132.625 84.031 133.653 84.3412 135.204L83.3292 135.416C83.117 134.355 82.1704 133.572 80.881 133.572C79.0857 133.572 77.9268 134.877 77.9268 136.868C77.9268 138.86 79.0857 140.165 80.881 140.165C82.1704 140.165 83.117 139.48 83.3619 138.256L84.3738 138.452C83.9984 140.149 82.6764 141.112 80.881 141.112ZM86.1853 140.981V129.426H87.2136V140.981H86.1853ZM89.482 129.426H90.7551V130.993H89.482V129.426ZM89.5963 140.981V132.755H90.6245V140.981H89.5963ZM93.0072 140.981V132.755H94.0354V134.469C94.6393 133.392 95.6676 132.625 96.9733 132.625C98.6544 132.625 99.8785 133.767 99.8785 135.497V140.981H98.8502V135.628C98.8502 134.437 98.0995 133.572 96.8264 133.572C95.1616 133.572 94.0354 135.04 94.0354 137.374V140.981H93.0072ZM109.547 136.428C109.547 136.575 109.531 136.852 109.514 136.966H102.823C102.839 138.876 104.03 140.165 105.695 140.165C107.099 140.165 108.078 139.513 108.323 138.354L109.302 138.55C108.927 140.182 107.588 141.112 105.711 141.112C103.378 141.112 101.778 139.317 101.778 136.868C101.778 134.42 103.378 132.625 105.711 132.625C107.964 132.625 109.547 134.208 109.547 136.428ZM102.904 136.02H108.486C108.323 134.6 107.327 133.572 105.711 133.572C104.259 133.572 103.198 134.502 102.904 136.02Z" fill="#484848"/>
<path fill-rule="evenodd" clip-rule="evenodd" d="M22.0742 174.669C22.0742 170.951 25.2327 167.938 29.129 167.938C33.0252 167.938 36.1837 170.951 36.1837 174.669C36.1837 178.387 33.0252 181.401 29.129 181.401C25.2327 181.401 22.0742 178.387 22.0742 174.669ZM29.129 168.729C25.6911 168.729 22.9042 171.389 22.9042 174.669C22.9042 177.95 25.6911 180.609 29.129 180.609C32.5668 180.609 35.3537 177.95 35.3537 174.669C35.3537 171.389 32.5668 168.729 29.129 168.729Z" fill="#96969C"/>
<path d="M65.3345 179.665L64.1104 176.548H58.6753L57.4349 179.665H56.3087L60.9114 168.24H61.8743L66.477 179.665H65.3345ZM59.0834 175.536H63.7023L61.401 169.693L59.0834 175.536ZM67.8247 179.665V168.109H68.853V179.665H67.8247ZM78.515 175.111C78.515 175.258 78.4987 175.536 78.4824 175.65H71.7906C71.8069 177.56 72.9984 178.849 74.6632 178.849C76.0668 178.849 77.0461 178.196 77.2909 177.037L78.2702 177.233C77.8948 178.865 76.5564 179.796 74.6795 179.796C72.3455 179.796 70.746 178 70.746 175.552C70.746 173.104 72.3455 171.308 74.6795 171.308C76.9318 171.308 78.515 172.892 78.515 175.111ZM71.8722 174.703H77.4541C77.2909 173.283 76.2953 172.255 74.6795 172.255C73.2269 172.255 72.166 173.185 71.8722 174.703ZM84.285 172.337C84.285 172.337 84.0565 172.288 83.7301 172.288C82.3591 172.288 81.4288 173.675 81.4288 176.482V179.665H80.4005V171.439H81.4288V173.185C81.8858 172.092 82.8814 171.308 83.8933 171.308C84.1708 171.308 84.3503 171.341 84.3503 171.341L84.285 172.337ZM90.3627 179.616C89.971 179.747 89.5303 179.796 89.1059 179.796C87.8329 179.796 86.9189 179.061 86.9189 177.331V172.386H85.3194V171.439H86.9189V168.909H87.9471V171.439H90.2158V172.386H87.9471V177.494C87.9471 178.425 88.4694 178.849 89.2365 178.849C89.5793 178.849 89.9546 178.8 90.2974 178.62L90.3627 179.616Z" fill="#484848"/>
<rect x="152.276" y="43.7825" width="183.262" height="256.448" rx="14.5322" fill="white" stroke="#DCE0E0" stroke-width="0.855997"/>
<path d="M151.848 106.525H335.966V107.296H151.848V106.525Z" fill="#CCCCCC"/>
<path d="M174.446 85.7861V72.6993H179.419C181.961 72.6993 183.607 74.195 183.607 76.4945C183.607 78.794 181.961 80.2897 179.419 80.2897H176.147V85.7861H174.446ZM176.147 78.7567H179.363C180.914 78.7567 181.849 77.9154 181.849 76.4945C181.849 75.0737 180.914 74.2137 179.363 74.2137H176.147V78.7567ZM188.42 76.2141C190.701 76.2141 192.29 77.5601 192.29 79.7475V85.7861H190.72V84.1783C190.178 85.2627 188.944 85.9357 187.579 85.9357C185.691 85.9357 184.401 84.7766 184.401 83.1501C184.401 81.3366 185.878 80.3458 188.888 80.0466L190.72 79.841V79.654C190.72 78.3641 189.804 77.5415 188.42 77.5415C187.13 77.5415 186.214 78.308 186.083 79.5793L184.606 79.2988C184.887 77.4293 186.438 76.2141 188.42 76.2141ZM187.822 84.627C189.654 84.627 190.72 83.4118 190.72 81.5236V81.0749L188.888 81.2805C186.981 81.4862 185.99 82.1405 185.99 83.1314C185.99 84.0101 186.738 84.627 187.822 84.627ZM200.389 77.9154C200.034 77.7658 199.585 77.691 199.174 77.691C197.678 77.691 196.463 79.1306 196.463 82.1966V85.7861H194.874V76.3636H196.463V78.2706C197.005 77.0741 198.239 76.2141 199.398 76.2141C199.791 76.2141 200.165 76.2702 200.483 76.3823L200.389 77.9154ZM205.217 76.2141C207.498 76.2141 209.087 77.5601 209.087 79.7475V85.7861H207.516V84.1783C206.974 85.2627 205.74 85.9357 204.376 85.9357C202.487 85.9357 201.197 84.7766 201.197 83.1501C201.197 81.3366 202.674 80.3458 205.684 80.0466L207.516 79.841V79.654C207.516 78.3641 206.6 77.5415 205.217 77.5415C203.927 77.5415 203.011 78.308 202.88 79.5793L201.403 79.2988C201.683 77.4293 203.235 76.2141 205.217 76.2141ZM204.619 84.627C206.451 84.627 207.516 83.4118 207.516 81.5236V81.0749L205.684 81.2805C203.777 81.4862 202.786 82.1405 202.786 83.1314C202.786 84.0101 203.534 84.627 204.619 84.627ZM211.671 85.7861V76.3636H213.26V78.1397C213.727 77.018 214.662 76.2141 216.101 76.2141C217.634 76.2141 218.831 76.9245 219.167 78.1958C219.672 77.0741 220.794 76.2141 222.215 76.2141C224.234 76.2141 225.505 77.4854 225.505 79.4671V85.7861H223.916V79.7849C223.916 78.4949 223.187 77.6162 221.86 77.6162C220.252 77.6162 219.373 79.0558 219.373 81.0562V85.7861H217.784V79.7849C217.784 78.4949 217.055 77.6162 215.746 77.6162C214.138 77.6162 213.26 79.0558 213.26 81.0562V85.7861H211.671ZM236.609 80.6449C236.609 80.8692 236.59 81.2058 236.572 81.374H229.131C229.243 83.2809 230.439 84.5335 232.141 84.5335C233.58 84.5335 234.571 83.8605 234.852 82.6827L236.347 83.0379C235.88 84.8701 234.309 85.9357 232.141 85.9357C229.318 85.9357 227.542 83.7483 227.542 81.0749C227.542 78.4014 229.262 76.2141 232.103 76.2141C234.889 76.2141 236.609 78.2145 236.609 80.6449ZM229.224 80.0466H234.926C234.777 78.6071 233.767 77.5415 232.103 77.5415C230.626 77.5415 229.542 78.4762 229.224 80.0466ZM243.537 85.7114C243.07 85.8796 242.565 85.9357 242.06 85.9357C240.453 85.9357 239.275 85.0383 239.275 82.9631V77.7658H237.517V76.3636H239.275V73.5032H240.864V76.3636H243.388V77.7658H240.864V83.0192C240.864 84.0101 241.425 84.4961 242.247 84.4961C242.621 84.4961 243.051 84.4401 243.425 84.2531L243.537 85.7114ZM253.679 80.6449C253.679 80.8692 253.661 81.2058 253.642 81.374H246.201C246.314 83.2809 247.51 84.5335 249.211 84.5335C250.651 84.5335 251.642 83.8605 251.922 82.6827L253.418 83.0379C252.95 84.8701 251.38 85.9357 249.211 85.9357C246.388 85.9357 244.612 83.7483 244.612 81.0749C244.612 78.4014 246.332 76.2141 249.174 76.2141C251.96 76.2141 253.679 78.2145 253.679 80.6449ZM246.295 80.0466H251.997C251.847 78.6071 250.838 77.5415 249.174 77.5415C247.697 77.5415 246.613 78.4762 246.295 80.0466ZM261.24 77.9154C260.885 77.7658 260.437 77.691 260.025 77.691C258.53 77.691 257.314 79.1306 257.314 82.1966V85.7861H255.725V76.3636H257.314V78.2706C257.857 77.0741 259.091 76.2141 260.25 76.2141C260.642 76.2141 261.016 76.2702 261.334 76.3823L261.24 77.9154ZM265.786 85.9357C263.505 85.9357 262.271 84.5148 261.86 83.1875L263.225 82.5892C263.58 83.6922 264.328 84.5896 265.786 84.5896C266.945 84.5896 267.693 83.9166 267.693 83.1501C267.693 80.7384 262.271 82.2901 262.271 78.7193C262.271 77.2236 263.561 76.2141 265.58 76.2141C267.244 76.2141 268.684 77.1488 269.076 78.5323L267.749 79.1119C267.487 78.1397 266.553 77.5228 265.543 77.5228C264.477 77.5228 263.804 77.9528 263.804 78.7006C263.804 80.7197 269.263 79.2427 269.245 83.1314C269.245 84.7766 267.861 85.9357 265.786 85.9357Z" fill="#1A1A1A"/>
<path d="M309.437 78.4745L304.815 83.0967L300.192 78.4745" stroke="#1A1A1A" stroke-width="1.54074" stroke-linecap="round" stroke-linejoin="round"/>
<path d="M174.658 144.554V133.129H181.628V134.141H175.752V137.96H180.567V138.972H175.752V143.542H181.807V144.554H174.658ZM183.742 144.554V136.328H184.771V138.041C185.146 136.964 185.995 136.197 187.3 136.197C188.671 136.197 189.798 136.85 190.059 138.025C190.499 136.981 191.462 136.197 192.687 136.197C194.433 136.197 195.526 137.274 195.526 139.07V144.554H194.498V139.2C194.498 137.976 193.796 137.144 192.523 137.144C190.989 137.144 190.14 138.547 190.14 140.457V144.554H189.112V139.2C189.112 137.976 188.427 137.144 187.154 137.144C185.619 137.144 184.771 138.547 184.771 140.457V144.554H183.742ZM200.932 136.197C202.841 136.197 204.179 137.389 204.179 139.135V144.554H203.151V143.052C202.662 144.048 201.535 144.684 200.246 144.684C198.581 144.684 197.455 143.705 197.455 142.269C197.455 140.686 198.777 139.837 201.503 139.559L203.151 139.396V139.168C203.151 137.927 202.254 137.144 200.932 137.144C199.675 137.144 198.81 137.878 198.663 139.086L197.667 138.89C197.912 137.274 199.218 136.197 200.932 136.197ZM200.328 143.738C202.107 143.738 203.151 142.644 203.151 140.751V140.261L201.535 140.424C199.544 140.637 198.532 141.257 198.532 142.269C198.532 143.15 199.283 143.738 200.328 143.738ZM206.453 132.998H207.726V134.565H206.453V132.998ZM206.567 144.554V136.328H207.595V144.554H206.567ZM209.978 144.554V132.998H211.006V144.554H209.978ZM217.39 144.554V133.129H218.484V144.554H217.39ZM220.961 144.554V133.129H224.192C227.408 133.129 229.84 135.267 229.84 138.841C229.84 142.416 227.408 144.554 224.192 144.554H220.961ZM222.054 143.542H224.225C226.543 143.542 228.681 142.122 228.681 138.841C228.681 135.561 226.543 134.141 224.225 134.141H222.054V143.542Z" fill="#484848"/>
<rect x="151.848" y="157.781" width="184.449" height="40.1346" fill="#F4F4F4"/>
<path d="M174.658 183.843V172.418H178.853C181.024 172.418 182.427 173.691 182.427 175.633C182.427 177.575 181.024 178.848 178.853 178.848H175.752V183.843H174.658ZM175.752 177.836H178.886C180.387 177.836 181.285 177.02 181.285 175.633C181.285 174.246 180.387 173.43 178.886 173.43H175.752V177.836ZM184.077 183.843V172.287H185.105V177.412C185.742 176.09 186.786 175.486 188.027 175.486C189.888 175.486 191.112 176.629 191.112 178.391V183.843H190.083V178.522C190.083 177.216 189.267 176.433 187.88 176.433C186.215 176.433 185.105 177.951 185.105 180.334V183.843H184.077ZM197.137 183.973C194.721 183.973 193.007 182.211 193.007 179.73C193.007 177.249 194.721 175.486 197.137 175.486C199.536 175.486 201.266 177.249 201.266 179.73C201.266 182.211 199.536 183.973 197.137 183.973ZM197.137 183.027C198.948 183.027 200.189 181.656 200.189 179.73C200.189 177.804 198.948 176.433 197.137 176.433C195.309 176.433 194.085 177.804 194.085 179.73C194.085 181.656 195.309 183.027 197.137 183.027ZM203.156 183.843V175.617H204.184V177.331C204.788 176.253 205.816 175.486 207.122 175.486C208.803 175.486 210.027 176.629 210.027 178.359V183.843H208.999V178.489C208.999 177.298 208.248 176.433 206.975 176.433C205.31 176.433 204.184 177.902 204.184 180.236V183.843H203.156ZM219.696 179.289C219.696 179.436 219.679 179.713 219.663 179.828H212.971C212.988 181.737 214.179 183.027 215.844 183.027C217.248 183.027 218.227 182.374 218.472 181.215L219.451 181.411C219.076 183.043 217.737 183.973 215.86 183.973C213.526 183.973 211.927 182.178 211.927 179.73C211.927 177.282 213.526 175.486 215.86 175.486C218.113 175.486 219.696 177.069 219.696 179.289ZM213.053 178.881H218.635C218.472 177.461 217.476 176.433 215.86 176.433C214.408 176.433 213.347 177.363 213.053 178.881ZM225.534 183.843V175.617H226.562V177.331C227.166 176.253 228.194 175.486 229.5 175.486C231.181 175.486 232.405 176.629 232.405 178.359V183.843H231.377V178.489C231.377 177.298 230.626 176.433 229.353 176.433C227.689 176.433 226.562 177.902 226.562 180.236V183.843H225.534ZM241.586 175.617V183.843H240.558V182.129C239.954 183.206 238.926 183.973 237.62 183.973C235.939 183.973 234.715 182.831 234.715 181.101V175.617H235.743V180.97C235.743 182.162 236.494 183.027 237.767 183.027C239.432 183.027 240.558 181.558 240.558 179.224V175.617H241.586ZM243.975 183.843V175.617H245.004V177.331C245.379 176.253 246.228 175.486 247.533 175.486C248.904 175.486 250.031 176.139 250.292 177.314C250.732 176.27 251.695 175.486 252.92 175.486C254.666 175.486 255.759 176.563 255.759 178.359V183.843H254.731V178.489C254.731 177.265 254.029 176.433 252.756 176.433C251.222 176.433 250.373 177.836 250.373 179.746V183.843H249.345V178.489C249.345 177.265 248.66 176.433 247.387 176.433C245.852 176.433 245.004 177.836 245.004 179.746V183.843H243.975ZM262.03 183.973C260.724 183.973 259.532 183.32 259.173 182.521V183.843H258.145V172.287H259.173V176.939C259.712 176.09 260.903 175.486 262.03 175.486C264.641 175.486 266.028 177.379 266.028 179.73C266.028 182.08 264.641 183.973 262.03 183.973ZM261.997 183.027C263.776 183.027 264.935 181.721 264.935 179.73C264.935 177.739 263.776 176.433 261.997 176.433C260.218 176.433 259.059 177.739 259.059 179.73C259.059 181.721 260.218 183.027 261.997 183.027ZM275.195 179.289C275.195 179.436 275.179 179.713 275.162 179.828H268.47C268.487 181.737 269.678 183.027 271.343 183.027C272.747 183.027 273.726 182.374 273.971 181.215L274.95 181.411C274.575 183.043 273.236 183.973 271.359 183.973C269.025 183.973 267.426 182.178 267.426 179.73C267.426 177.282 269.025 175.486 271.359 175.486C273.612 175.486 275.195 177.069 275.195 179.289ZM268.552 178.881H274.134C273.971 177.461 272.975 176.433 271.359 176.433C269.907 176.433 268.846 177.363 268.552 178.881ZM281.634 176.629C281.308 176.498 280.932 176.433 280.557 176.433C279.186 176.433 278.109 177.853 278.109 180.66V183.843H277.08V175.617H278.109V177.363C278.615 176.27 279.708 175.486 280.72 175.486C281.079 175.486 281.406 175.535 281.699 175.633L281.634 176.629Z" fill="#484848"/>
<path d="M174.658 222.361V210.936H175.752V222.361H174.658ZM178.229 222.361V210.936H182.423C184.594 210.936 185.998 212.209 185.998 214.152C185.998 216.094 184.594 217.367 182.423 217.367H179.322V222.361H178.229ZM179.322 216.355H182.456C183.958 216.355 184.855 215.539 184.855 214.152C184.855 212.764 183.958 211.948 182.456 211.948H179.322V216.355ZM199.598 222.361L198.374 219.244H192.939L191.698 222.361H190.572L195.175 210.936H196.138L200.74 222.361H199.598ZM193.347 218.232H197.966L195.664 212.389L193.347 218.232ZM205.597 222.492C202.986 222.492 201.598 220.599 201.598 218.248C201.598 215.898 202.986 214.005 205.597 214.005C206.723 214.005 207.915 214.609 208.453 215.457V210.806H209.482V222.361H208.453V221.039C208.094 221.839 206.903 222.492 205.597 222.492ZM205.63 221.545C207.409 221.545 208.568 220.24 208.568 218.248C208.568 216.257 207.409 214.951 205.63 214.951C203.851 214.951 202.692 216.257 202.692 218.248C202.692 220.24 203.851 221.545 205.63 221.545ZM215.368 222.492C212.756 222.492 211.369 220.599 211.369 218.248C211.369 215.898 212.756 214.005 215.368 214.005C216.494 214.005 217.685 214.609 218.224 215.457V210.806H219.252V222.361H218.224V221.039C217.865 221.839 216.673 222.492 215.368 222.492ZM215.4 221.545C217.179 221.545 218.338 220.24 218.338 218.248C218.338 216.257 217.179 214.951 215.4 214.951C213.621 214.951 212.462 216.257 212.462 218.248C212.462 220.24 213.621 221.545 215.4 221.545ZM226.183 215.147C225.856 215.017 225.481 214.951 225.106 214.951C223.735 214.951 222.657 216.371 222.657 219.179V222.361H221.629V214.135H222.657V215.882C223.163 214.788 224.257 214.005 225.269 214.005C225.628 214.005 225.954 214.054 226.248 214.152L226.183 215.147ZM234.551 217.808C234.551 217.955 234.534 218.232 234.518 218.346H227.826C227.843 220.256 229.034 221.545 230.699 221.545C232.103 221.545 233.082 220.892 233.327 219.734L234.306 219.929C233.931 221.562 232.592 222.492 230.715 222.492C228.381 222.492 226.782 220.697 226.782 218.248C226.782 215.8 228.381 214.005 230.715 214.005C232.968 214.005 234.551 215.588 234.551 217.808ZM227.908 217.4H233.49C233.327 215.98 232.331 214.951 230.715 214.951C229.263 214.951 228.202 215.882 227.908 217.4ZM239.066 222.492C237.058 222.492 236.046 221.251 235.72 220.125L236.634 219.668C236.993 220.713 237.646 221.545 239.066 221.545C240.192 221.545 240.943 220.86 240.943 220.109C240.943 217.71 236.079 219.244 236.079 216.127C236.079 214.821 237.205 214.005 238.935 214.005C240.306 214.005 241.53 214.821 241.857 216.029L240.959 216.437C240.731 215.555 239.866 214.951 238.87 214.951C237.793 214.951 237.14 215.359 237.14 216.127C237.14 218.052 242.02 216.681 242.004 220.109C242.004 221.545 240.829 222.492 239.066 222.492ZM246.621 222.492C244.613 222.492 243.602 221.251 243.275 220.125L244.189 219.668C244.548 220.713 245.201 221.545 246.621 221.545C247.747 221.545 248.498 220.86 248.498 220.109C248.498 217.71 243.634 219.244 243.634 216.127C243.634 214.821 244.76 214.005 246.49 214.005C247.861 214.005 249.086 214.821 249.412 216.029L248.514 216.437C248.286 215.555 247.421 214.951 246.425 214.951C245.348 214.951 244.695 215.359 244.695 216.127C244.695 218.052 249.575 216.681 249.559 220.109C249.559 221.545 248.384 222.492 246.621 222.492Z" fill="#484848"/>
<path d="M179.604 261.781C176.813 261.781 174.136 259.904 174.136 255.938C174.136 251.972 176.829 250.095 179.604 250.095C181.97 250.095 183.766 251.45 184.304 253.604L183.227 253.849C182.835 252.102 181.53 251.107 179.604 251.107C177.074 251.107 175.279 252.821 175.279 255.938C175.279 259.055 177.074 260.769 179.604 260.769C181.53 260.769 182.77 259.79 183.227 258.076L184.304 258.288C183.717 260.41 181.987 261.781 179.604 261.781ZM189.137 253.294C191.046 253.294 192.385 254.485 192.385 256.232V261.65H191.356V260.149C190.867 261.144 189.741 261.781 188.451 261.781C186.786 261.781 185.66 260.802 185.66 259.365C185.66 257.782 186.982 256.934 189.708 256.656L191.356 256.493V256.264C191.356 255.024 190.459 254.24 189.137 254.24C187.88 254.24 187.015 254.975 186.868 256.183L185.872 255.987C186.117 254.371 187.423 253.294 189.137 253.294ZM188.533 260.834C190.312 260.834 191.356 259.741 191.356 257.848V257.358L189.741 257.521C187.749 257.733 186.738 258.353 186.738 259.365C186.738 260.247 187.488 260.834 188.533 260.834ZM199.326 254.436C198.999 254.306 198.624 254.24 198.249 254.24C196.878 254.24 195.8 255.66 195.8 258.468V261.65H194.772V253.424H195.8V255.171C196.306 254.077 197.4 253.294 198.412 253.294C198.771 253.294 199.097 253.343 199.391 253.441L199.326 254.436ZM203.924 261.781C201.312 261.781 199.925 259.888 199.925 257.537C199.925 255.187 201.312 253.294 203.924 253.294C205.05 253.294 206.241 253.898 206.78 254.746V250.095H207.808V261.65H206.78V260.328C206.421 261.128 205.229 261.781 203.924 261.781ZM203.956 260.834C205.735 260.834 206.894 259.529 206.894 257.537C206.894 255.546 205.735 254.24 203.956 254.24C202.177 254.24 201.018 255.546 201.018 257.537C201.018 259.529 202.177 260.834 203.956 260.834ZM214.187 261.65V250.225H215.509L221.76 259.937V250.225H222.87V261.65H221.548L215.297 251.972V261.65H214.187ZM232.166 253.424V261.65H231.138V259.937C230.534 261.014 229.506 261.781 228.2 261.781C226.519 261.781 225.295 260.638 225.295 258.908V253.424H226.323V258.778C226.323 259.969 227.074 260.834 228.347 260.834C230.012 260.834 231.138 259.365 231.138 257.031V253.424H232.166ZM234.556 261.65V253.424H235.584V255.138C235.959 254.061 236.808 253.294 238.114 253.294C239.485 253.294 240.611 253.947 240.872 255.122C241.313 254.077 242.276 253.294 243.5 253.294C245.246 253.294 246.34 254.371 246.34 256.166V261.65H245.311V256.297C245.311 255.073 244.609 254.24 243.336 254.24C241.802 254.24 240.953 255.644 240.953 257.554V261.65H239.925V256.297C239.925 255.073 239.24 254.24 237.967 254.24C236.432 254.24 235.584 255.644 235.584 257.554V261.65H234.556ZM252.61 261.781C251.304 261.781 250.112 261.128 249.753 260.328V261.65H248.725V250.095H249.753V254.746C250.292 253.898 251.483 253.294 252.61 253.294C255.221 253.294 256.608 255.187 256.608 257.537C256.608 259.888 255.221 261.781 252.61 261.781ZM252.577 260.834C254.356 260.834 255.515 259.529 255.515 257.537C255.515 255.546 254.356 254.24 252.577 254.24C250.798 254.24 249.639 255.546 249.639 257.537C249.639 259.529 250.798 260.834 252.577 260.834ZM265.775 257.097C265.775 257.244 265.759 257.521 265.742 257.635H259.051C259.067 259.545 260.258 260.834 261.923 260.834C263.327 260.834 264.306 260.181 264.551 259.023L265.53 259.219C265.155 260.851 263.816 261.781 261.939 261.781C259.606 261.781 258.006 259.986 258.006 257.537C258.006 255.089 259.606 253.294 261.939 253.294C264.192 253.294 265.775 254.877 265.775 257.097ZM259.132 256.689H264.714C264.551 255.269 263.555 254.24 261.939 254.24C260.487 254.24 259.426 255.171 259.132 256.689ZM272.214 254.436C271.888 254.306 271.512 254.24 271.137 254.24C269.766 254.24 268.689 255.66 268.689 258.468V261.65H267.661V253.424H268.689V255.171C269.195 254.077 270.288 253.294 271.3 253.294C271.659 253.294 271.986 253.343 272.279 253.441L272.214 254.436ZM285.243 250.225H286.337V261.65H285.243V256.085H278.813V261.65H277.719V250.225H278.813V255.073H285.243V250.225ZM291.783 253.294C293.693 253.294 295.031 254.485 295.031 256.232V261.65H294.003V260.149C293.513 261.144 292.387 261.781 291.098 261.781C289.433 261.781 288.307 260.802 288.307 259.365C288.307 257.782 289.629 256.934 292.354 256.656L294.003 256.493V256.264C294.003 255.024 293.105 254.24 291.783 254.24C290.526 254.24 289.661 254.975 289.514 256.183L288.519 255.987C288.764 254.371 290.069 253.294 291.783 253.294ZM291.179 260.834C292.958 260.834 294.003 259.741 294.003 257.848V257.358L292.387 257.521C290.396 257.733 289.384 258.353 289.384 259.365C289.384 260.247 290.135 260.834 291.179 260.834ZM300.128 261.781C298.12 261.781 297.108 260.541 296.782 259.414L297.696 258.957C298.055 260.002 298.708 260.834 300.128 260.834C301.254 260.834 302.005 260.149 302.005 259.398C302.005 256.999 297.141 258.533 297.141 255.416C297.141 254.11 298.267 253.294 299.997 253.294C301.368 253.294 302.592 254.11 302.919 255.318L302.021 255.726C301.793 254.844 300.927 254.24 299.932 254.24C298.855 254.24 298.202 254.649 298.202 255.416C298.202 257.342 303.082 255.971 303.066 259.398C303.066 260.834 301.89 261.781 300.128 261.781ZM304.973 261.65V250.095H306.002V255.22C306.638 253.898 307.683 253.294 308.923 253.294C310.784 253.294 312.008 254.436 312.008 256.199V261.65H310.98V256.33C310.98 255.024 310.164 254.24 308.776 254.24C307.112 254.24 306.002 255.758 306.002 258.141V261.65H304.973Z" fill="#484848"/>
</svg>
