<svg width="100" height="100" viewBox="0 0 100 100" fill="none" xmlns="http://www.w3.org/2000/svg">
<rect x="0.5" y="0.5" width="99" height="99" rx="49.5" fill="white"/>
<rect x="0.5" y="0.5" width="99" height="99" rx="49.5" stroke="#F0F3F5"/>
<path d="M51.5371 30C50.8911 30 50.2475 30.0488 49.6117 30.1209C44.5248 30.6983 39.824 33.1902 36.5091 36.505C33.1943 39.8198 30.6995 44.5206 30.1221 49.6076C29.5446 54.6945 30.9841 60.1998 35.4771 64.6733C37.7448 66.931 41.3988 68.8729 45.0574 69.6595C46.8869 70.0528 48.7283 70.1539 50.4244 69.7023C52.1201 69.251 53.6798 68.1403 54.5113 66.3819C55.6203 64.0363 55.0413 61.5681 54.7705 59.5252C54.6355 58.5034 54.5554 57.5788 54.6322 56.8676C54.7089 56.1564 54.8891 55.7045 55.2979 55.2967H55.3008C55.7086 54.8879 56.1605 54.7074 56.8718 54.6309C57.5829 54.5542 58.5075 54.6309 59.529 54.7696C61.5723 55.0401 64.0405 55.6195 66.3858 54.5101C68.1442 53.6786 69.2548 52.119 69.7061 50.4232C70.1574 48.7275 70.0563 46.8858 69.663 45.0566C68.876 41.3972 66.9343 37.7432 64.6765 35.4763C61.3213 32.1062 57.3859 30.4552 53.4822 30.0837C52.8316 30.0218 52.1827 29.9951 51.5368 30.0026L51.5371 30ZM50.0469 34.5279C50.8147 34.5391 51.5476 34.8497 52.0904 35.3926C52.6438 35.9463 52.9548 36.6967 52.9548 37.4797C52.9548 38.2623 52.6438 39.0127 52.0904 39.5664C51.537 40.1198 50.7863 40.4304 50.0037 40.4304C49.2211 40.4304 48.4703 40.1198 47.917 39.5664C47.3636 39.0127 47.0526 38.2623 47.0526 37.4797C47.0526 36.6967 47.3636 35.9463 47.917 35.3926C48.4809 34.8286 49.2491 34.5163 50.0469 34.5279ZM58.3969 36.6146C59.1644 36.6258 59.8976 36.9365 60.4404 37.4797C60.9935 38.033 61.3044 38.7838 61.3044 39.5661C61.3044 40.3487 60.9935 41.0994 60.4404 41.6528C59.8867 42.2072 59.1353 42.5185 58.352 42.5185C57.5687 42.5185 56.8173 42.2072 56.2639 41.6528C55.7105 41.0994 55.3996 40.3487 55.3996 39.5661C55.3996 38.7837 55.7105 38.033 56.2639 37.4797C56.8285 36.9144 57.598 36.6022 58.3969 36.6146ZM41.7003 38.7014C42.4681 38.7129 43.201 39.0232 43.7438 39.5664C44.2972 40.1198 44.6078 40.8705 44.6078 41.6531C44.6078 42.4358 44.2972 43.1862 43.7438 43.7399C43.1904 44.2933 42.4397 44.6039 41.6571 44.6039C40.8744 44.6039 40.1237 44.2933 39.5703 43.7399C39.0169 43.1862 38.706 42.4358 38.706 41.6531C38.706 40.8705 39.0169 40.1197 39.5703 39.5664C40.1343 39.0021 40.9024 38.6902 41.7003 38.7014ZM62.571 44.9616C63.3385 44.9731 64.0718 45.2834 64.6146 45.8263C65.168 46.38 65.4786 47.1304 65.4786 47.913C65.4786 48.696 65.168 49.4464 64.6146 50.0001C64.0609 50.5535 63.3105 50.8641 62.5278 50.8641C61.7452 50.8641 60.9944 50.5535 60.4411 50.0001C59.8877 49.4464 59.5768 48.696 59.5768 47.913C59.5768 47.1304 59.8877 46.38 60.4411 45.8263C61.005 45.262 61.7732 44.9504 62.571 44.9616ZM37.5269 47.0483C38.2948 47.0595 39.0277 47.3702 39.5705 47.913C40.1239 48.4667 40.4345 49.2171 40.4345 49.9997C40.4345 50.7824 40.1239 51.5331 39.5705 52.0865C39.0171 52.6398 38.2664 52.9508 37.4838 52.9508C36.7011 52.9508 35.9504 52.6399 35.397 52.0865C34.8437 51.5331 34.5327 50.7824 34.5327 49.9997C34.5327 49.2171 34.8436 48.4667 35.397 47.913C35.961 47.3491 36.7291 47.0368 37.5269 47.0483ZM39.6137 55.3983C40.3809 55.4092 41.1141 55.7182 41.6572 56.2604C42.2106 56.8138 42.5213 57.5645 42.5213 58.3471C42.5213 59.1298 42.2106 59.8802 41.6572 60.4339C41.1039 60.9873 40.3531 61.2979 39.5705 61.2979C38.7879 61.2979 38.0371 60.9873 37.4838 60.4339C36.9304 59.8801 36.6194 59.1298 36.6194 58.3471C36.6194 57.5645 36.9304 56.8137 37.4838 56.2604C38.048 55.6971 38.8165 55.3862 39.6137 55.3983Z" fill="#4071DF"/>
</svg>
