<svg width="40" height="40" viewBox="0 0 40 40" fill="none" xmlns="http://www.w3.org/2000/svg">
<path d="M32 32L26.2 26.2M29.3333 18.6667C29.3333 24.5577 24.5577 29.3333 18.6667 29.3333C12.7756 29.3333 8 24.5577 8 18.6667C8 12.7756 12.7756 8 18.6667 8C24.5577 8 29.3333 12.7756 29.3333 18.6667Z" stroke="white" stroke-width="2.85714" stroke-linecap="round" stroke-linejoin="round"/>
<g clip-path="url(#clip0_718_22905)">
<path d="M24.25 14.3417C24.1395 14.3417 24.05 14.4312 24.05 14.5417C24.05 14.6521 24.1395 14.7417 24.25 14.7417C26.7654 14.7417 28.5248 15.2867 29.6588 16.4189C30.7928 17.551 31.3417 19.3102 31.3417 21.8333C31.3417 21.9438 31.4312 22.0333 31.5417 22.0333C31.6521 22.0333 31.7417 21.9438 31.7417 21.8333C31.7417 19.3099 32.2868 17.5507 33.4188 16.4188C34.5507 15.2868 36.3099 14.7417 38.8333 14.7417C38.9438 14.7417 39.0333 14.6521 39.0333 14.5417C39.0333 14.4312 38.9438 14.3417 38.8333 14.3417C36.3086 14.3417 34.5498 13.8113 33.4183 12.6872C32.2871 11.5633 31.7417 9.80482 31.7417 7.25C31.7417 7.13954 31.6521 7.05 31.5417 7.05C31.4312 7.05 31.3417 7.13954 31.3417 7.25C31.3417 9.80449 30.7925 11.563 29.6593 12.687C28.5258 13.8114 26.7668 14.3417 24.25 14.3417ZM18 5.4875C17.8895 5.4875 17.8 5.57704 17.8 5.6875C17.8 5.79796 17.8895 5.8875 18 5.8875C19.6087 5.8875 20.717 6.23646 21.4267 6.94505C22.1363 7.65357 22.4875 8.76181 22.4875 10.375C22.4875 10.4855 22.577 10.575 22.6875 10.575C22.798 10.575 22.8875 10.4855 22.8875 10.375C22.8875 8.7615 23.2365 7.65335 23.9449 6.94494C24.6533 6.23653 25.7615 5.8875 27.375 5.8875C27.4855 5.8875 27.575 5.79796 27.575 5.6875C27.575 5.57704 27.4855 5.4875 27.375 5.4875C25.7601 5.4875 24.6524 5.14802 23.9445 4.44483C23.2368 3.7419 22.8875 2.6345 22.8875 1C22.8875 0.889543 22.798 0.8 22.6875 0.8C22.577 0.8 22.4875 0.889543 22.4875 1C22.4875 2.63419 22.136 3.74168 21.4271 4.44472C20.718 5.14809 19.61 5.4875 18 5.4875Z" fill="white" stroke="#2D62D8" stroke-width="0.4" stroke-linejoin="round"/>
</g>
<defs>
<clipPath id="clip0_718_22905">
<rect width="23" height="23" fill="white" transform="translate(17 1)"/>
</clipPath>
</defs>
</svg>
