<svg width="18" height="18" viewBox="0 0 18 18" fill="none" xmlns="http://www.w3.org/2000/svg">
<g clip-path="url(#clip0_478_26453)">
<path d="M17.5725 9.00112C17.5725 4.26724 13.735 0.429688 9.00112 0.429688C4.26724 0.429688 0.429688 4.26724 0.429688 9.00112C0.429688 13.2793 3.56412 16.8254 7.66183 17.4684V11.4788H5.48549V9.00112H7.66183V7.11272C7.66183 4.96451 8.94152 3.7779 10.8994 3.7779C11.8369 3.7779 12.8181 3.94531 12.8181 3.94531V6.05469H11.7373C10.6725 6.05469 10.3404 6.71546 10.3404 7.39397V9.00112H12.7176L12.3376 11.4788H10.3404V17.4684C14.4381 16.8254 17.5725 13.2793 17.5725 9.00112Z" fill="#1877F2"/>
<path d="M12.3365 11.4782L12.7165 9.00056H10.3393V7.39342C10.3393 6.71557 10.6714 6.05413 11.7362 6.05413H12.817V3.94475C12.817 3.94475 11.8361 3.77734 10.8983 3.77734C8.9404 3.77734 7.66071 4.96395 7.66071 7.11217V9.00056H5.48438V11.4782H7.66071V17.4679C8.54817 17.6067 9.45183 17.6067 10.3393 17.4679V11.4782H12.3365Z" fill="white"/>
</g>
<defs>
<clipPath id="clip0_478_26453">
<rect width="17.1429" height="17.1429" fill="white" transform="translate(0.429688 0.429688)"/>
</clipPath>
</defs>
</svg>
