<svg width="18" height="18" viewBox="0 0 18 18" fill="none" xmlns="http://www.w3.org/2000/svg">
<g clip-path="url(#clip0_478_26455)">
<path d="M16.3071 0.429688H1.69516C1.35954 0.429688 1.03766 0.563014 0.800337 0.800337C0.563014 1.03766 0.429688 1.35954 0.429688 1.69516V16.3071C0.429688 16.6427 0.563014 16.9646 0.800337 17.2019C1.03766 17.4392 1.35954 17.5725 1.69516 17.5725H16.3071C16.6427 17.5725 16.9646 17.4392 17.2019 17.2019C17.4392 16.9646 17.5725 16.6427 17.5725 16.3071V1.69516C17.5725 1.35954 17.4392 1.03766 17.2019 0.800337C16.9646 0.563014 16.6427 0.429688 16.3071 0.429688ZM5.53921 15.0333H2.96183V6.84635H5.53921V15.0333ZM4.24874 5.71183C3.95638 5.71018 3.67106 5.62197 3.42878 5.45832C3.18651 5.29467 2.99814 5.06292 2.88746 4.79232C2.77677 4.52172 2.74872 4.2244 2.80685 3.93787C2.86498 3.65134 3.00669 3.38846 3.21408 3.18239C3.42148 2.97632 3.68527 2.83631 3.97216 2.78002C4.25906 2.72373 4.5562 2.75368 4.82608 2.86611C5.09597 2.97853 5.3265 3.16838 5.48859 3.4117C5.65068 3.65501 5.73706 3.9409 5.73683 4.23326C5.73959 4.429 5.70291 4.62329 5.62898 4.80455C5.55505 4.98581 5.44539 5.15033 5.30652 5.28831C5.16766 5.42628 5.00244 5.53489 4.8207 5.60765C4.63897 5.68042 4.44445 5.71584 4.24874 5.71183ZM15.0392 15.0404H12.463V10.5678C12.463 9.24874 11.9023 8.84159 11.1785 8.84159C10.4142 8.84159 9.66421 9.41778 9.66421 10.6011V15.0404H7.08683V6.85231H9.5654V7.98683H9.59874C9.84754 7.48326 10.719 6.62255 12.0487 6.62255C13.4868 6.62255 15.0404 7.47612 15.0404 9.97612L15.0392 15.0404Z" fill="#0A66C2"/>
</g>
<defs>
<clipPath id="clip0_478_26455">
<rect width="17.1429" height="17.1429" fill="white" transform="translate(0.429688 0.429688)"/>
</clipPath>
</defs>
</svg>
