<svg width="18" height="18" viewBox="0 0 18 18" fill="none" xmlns="http://www.w3.org/2000/svg">
<g clip-path="url(#clip0_478_26457)">
<path d="M5.82077 15.9646C12.2898 15.9646 15.8281 10.6051 15.8281 5.95731C15.8281 5.80508 15.8281 5.65353 15.8178 5.50268C16.5061 5.00479 17.1003 4.38831 17.5725 3.68211C16.9307 3.96668 16.2497 4.15322 15.5524 4.23548C16.2867 3.79597 16.8362 3.10461 17.0987 2.29011C16.4083 2.69983 15.653 2.98855 14.8653 3.14382C14.3351 2.57995 13.6337 2.20656 12.8698 2.08145C12.1059 1.95634 11.3221 2.08647 10.6397 2.45171C9.9572 2.81696 9.41413 3.39694 9.0945 4.10193C8.77487 4.80691 8.6965 5.59758 8.87152 6.35159C7.47318 6.28145 6.10523 5.91804 4.85644 5.28497C3.60765 4.65189 2.50595 3.76329 1.62283 2.67685C1.17306 3.45113 1.03531 4.36772 1.23762 5.24001C1.43992 6.11229 1.96707 6.87467 2.71174 7.37193C2.152 7.35553 1.60444 7.20453 1.1154 6.93171V6.97628C1.11562 7.78831 1.39672 8.57527 1.91102 9.20368C2.42532 9.83209 3.14116 10.2633 3.93712 10.424C3.41932 10.5653 2.87603 10.5859 2.349 10.4844C2.57384 11.1832 3.01142 11.7943 3.60057 12.2322C4.18972 12.6701 4.90099 12.913 5.63494 12.9269C4.90571 13.5001 4.07063 13.9239 3.17745 14.174C2.28428 14.4242 1.35056 14.4958 0.429688 14.3847C2.03814 15.4169 3.90963 15.9644 5.82077 15.9619" fill="#1DA1F2"/>
</g>
<defs>
<clipPath id="clip0_478_26457">
<rect width="17.1429" height="17.1429" fill="white" transform="translate(0.429688 0.429688)"/>
</clipPath>
</defs>
</svg>
