<svg width="61" height="60" viewBox="0 0 61 60" fill="none" xmlns="http://www.w3.org/2000/svg">
<path d="M31.7408 12.675C27.8453 12.3998 24.1366 13.7017 21.2948 16.3485C18.4943 18.9563 16.8886 22.644 16.8886 26.4652C16.8886 29.5785 17.9123 32.529 19.8496 34.995C21.2633 36.7943 22.6373 38.793 23.8328 40.7887V44.352C23.8328 45.1222 24.4591 45.7493 25.2301 45.7493H36.1538C36.9241 45.7493 37.5503 45.1222 37.5503 44.352V40.9058C38.8111 38.8185 40.3096 36.6255 41.5891 34.998C43.6276 32.4187 44.6761 29.1803 44.5396 25.8787C44.2553 18.9668 38.6333 13.1678 31.7408 12.675ZM40.0891 33.8152C38.7143 35.5635 37.1018 37.932 35.7751 40.1505L35.6401 40.3777V43.839H25.7431V40.2653L25.6096 40.0403C24.3413 37.8997 22.8691 35.7472 21.3518 33.8167C19.6816 31.689 18.7988 29.148 18.7988 26.4667C18.7988 23.1735 20.1833 19.995 22.5968 17.748C25.0471 15.4672 28.2473 14.3422 31.6051 14.5822C37.5421 15.006 42.3856 20.0033 42.6316 25.9583C42.7501 28.8442 41.8718 31.56 40.0891 33.8152ZM14.1338 30.7245C14.0243 30.7245 13.9118 30.7417 13.8091 30.7732L9.86481 32.0535C9.30156 32.2387 8.99406 32.8463 9.17856 33.4065C9.31731 33.8347 9.73356 34.1348 10.1903 34.1348C10.3118 34.1348 10.4206 34.1197 10.5181 34.0897L14.4623 32.8095C14.7383 32.7187 14.9618 32.5267 15.0908 32.268C15.2168 32.0175 15.2363 31.731 15.1471 31.4632C15.0061 31.0215 14.5996 30.7245 14.1338 30.7245ZM14.4638 19.9958L10.5278 18.714C10.4161 18.678 10.3021 18.6592 10.1888 18.6592C9.72906 18.6592 9.32406 18.9532 9.17856 19.3927C8.99931 19.9582 9.30681 20.562 9.86256 20.7383L13.8001 22.0282C13.9028 22.0605 14.0123 22.0762 14.1361 22.0762C14.6003 22.0762 15.0083 21.7755 15.1493 21.3307C15.2371 21.069 15.2161 20.787 15.0901 20.5365C14.9603 20.2785 14.7383 20.0865 14.4638 19.9958ZM19.6163 12.9262C19.8091 13.197 20.1301 13.3582 20.4751 13.3582C20.7008 13.3582 20.9123 13.287 21.0998 13.1483C21.3271 12.9863 21.4771 12.7425 21.5228 12.4643C21.5686 12.1815 21.5033 11.8988 21.3361 11.6693L18.9031 8.31075C18.6961 8.031 18.3788 7.86975 18.0331 7.86975C17.8073 7.86975 17.5906 7.94175 17.4053 8.076C17.1766 8.24175 17.0258 8.48925 16.9823 8.772C16.9388 9.05175 17.0078 9.3315 17.1758 9.558L19.6163 12.9262ZM30.7261 10.029C31.3156 10.029 31.7941 9.54975 31.7941 8.96025V4.80675C31.7941 4.22475 31.3148 3.75 30.7261 3.75C30.1366 3.75 29.6573 4.224 29.6573 4.80675V8.96025C29.6573 9.54975 30.1366 10.029 30.7261 10.029ZM40.3628 13.1558C40.5421 13.2885 40.7543 13.3582 40.9771 13.3582C41.3213 13.3582 41.6438 13.1948 41.8388 12.9218L44.2793 9.55275C44.4451 9.3285 44.5118 9.051 44.4691 8.772C44.4256 8.48925 44.2748 8.241 44.0453 8.07525C43.8601 7.941 43.6441 7.8705 43.4191 7.8705C43.0778 7.8705 42.7553 8.0325 42.5536 8.3055L40.1161 11.6693C39.9496 11.8988 39.8836 12.1808 39.9293 12.4635C39.9751 12.7463 40.1258 12.9863 40.3628 13.1558ZM51.5903 32.055L47.6476 30.7755C47.5411 30.7418 47.4308 30.7245 47.3206 30.7245C46.8601 30.7245 46.4408 31.0282 46.3013 31.461C46.1176 32.019 46.4236 32.6235 46.9853 32.8088L50.9251 34.0882C51.0286 34.1198 51.1381 34.1355 51.2603 34.1355C51.7208 34.1355 52.1251 33.8453 52.2706 33.411C52.4513 32.8463 52.1461 32.238 51.5903 32.055ZM47.3153 22.0762C47.4376 22.0762 47.5471 22.0613 47.6431 22.0312L51.5873 20.751C52.1438 20.568 52.4521 19.9635 52.2751 19.4017C52.1296 18.9607 51.7208 18.6653 51.2573 18.6653C51.1471 18.6653 51.0391 18.6825 50.9348 18.7155L46.9906 19.9958C46.7146 20.0865 46.4911 20.2785 46.3621 20.5365C46.2368 20.787 46.2166 21.0735 46.3058 21.3397C46.4453 21.7808 46.8511 22.0762 47.3153 22.0762ZM36.5393 47.6085H24.5978C24.0706 47.6085 23.6423 48.036 23.6423 48.564C23.6423 49.0912 24.0698 49.5195 24.5978 49.5195H36.5401C37.0681 49.5195 37.4956 49.092 37.4956 48.564C37.4956 48.036 37.0666 47.6085 36.5393 47.6085ZM36.5393 50.952H24.5978C24.0706 50.952 23.6423 51.3795 23.6423 51.9075C23.6423 52.4355 24.0698 52.863 24.5978 52.863H36.5401C37.0681 52.863 37.4956 52.4355 37.4956 51.9075C37.4956 51.3795 37.0666 50.952 36.5393 50.952ZM34.0688 54.3398H26.9041C26.3768 54.3398 25.9486 54.7672 25.9486 55.2952C25.9486 55.8232 26.3761 56.2507 26.9033 56.2507H34.0681C34.5953 56.2507 35.0236 55.8232 35.0236 55.2952C35.0236 54.7672 34.5961 54.3398 34.0688 54.3398Z" fill="#484A4B"/>
</svg>
