<svg width="100" height="100" viewBox="0 0 100 100" fill="none" xmlns="http://www.w3.org/2000/svg">
<rect x="0.5" y="0.5" width="99" height="99" rx="49.5" fill="white"/>
<rect x="0.5" y="0.5" width="99" height="99" rx="49.5" stroke="#F0F3F5"/>
<path d="M31.5215 43.1667C31.5215 39.5526 31.5215 37.7455 32.6442 36.6228C33.767 35.5 35.574 35.5 39.1882 35.5H61.0353C64.6494 35.5 66.4564 35.5 67.5792 36.6228C68.7019 37.7455 68.7019 39.5526 68.7019 43.1667C68.7019 44.0702 68.7019 44.522 68.4212 44.8026C68.1406 45.0833 67.6888 45.0833 66.7853 45.0833H33.4382C32.5346 45.0833 32.0829 45.0833 31.8022 44.8026C31.5215 44.522 31.5215 44.0702 31.5215 43.1667Z" fill="#4071DF"/>
<path d="M31.5215 60.4168C31.5215 64.0309 31.5215 65.838 32.6442 66.9607C33.767 68.0835 35.574 68.0835 39.1882 68.0835H61.0353C64.6494 68.0835 66.4564 68.0835 67.5792 66.9607C68.7019 65.838 68.7019 64.0309 68.7019 60.4168V50.8335C68.7019 49.93 68.7019 49.4782 68.4212 49.1975C68.1406 48.9168 67.6888 48.9168 66.7853 48.9168H33.4382C32.5346 48.9168 32.0829 48.9168 31.8022 49.1975C31.5215 49.4782 31.5215 49.93 31.5215 50.8335V60.4168Z" fill="#4071DF"/>
<path d="M40.8164 31.6667L40.8164 37.4167" stroke="#4071DF" stroke-width="3.83333" stroke-linecap="round"/>
<path d="M59.4062 31.6667L59.4062 37.4167" stroke="#4071DF" stroke-width="3.83333" stroke-linecap="round"/>
</svg>
