<svg width="100" height="100" viewBox="0 0 100 100" fill="none" xmlns="http://www.w3.org/2000/svg">
<rect x="0.5" y="0.5" width="99" height="99" rx="49.5" fill="white"/>
<rect x="0.5" y="0.5" width="99" height="99" rx="49.5" stroke="#F0F3F5"/>
<path fill-rule="evenodd" clip-rule="evenodd" d="M70.642 49.9998C70.642 61.5058 61.5952 70.8332 50.4353 70.8332C39.2754 70.8332 30.2285 61.5058 30.2285 49.9998C30.2285 38.4939 39.2754 29.1665 50.4353 29.1665C61.5952 29.1665 70.642 38.4939 70.642 49.9998ZM53.4422 38.4288C54.2506 38.6522 54.7304 39.5089 54.5138 40.3425L49.2839 60.4659C49.0673 61.2995 48.2363 61.7941 47.4278 61.5708C46.6193 61.3474 46.1395 60.4907 46.3562 59.6571L51.5861 39.5337C51.8027 38.7001 52.6337 38.2055 53.4422 38.4288ZM56.436 42.645C57.0279 42.0348 57.9874 42.0348 58.5793 42.645L59.0003 43.079C60.2841 44.4025 61.3546 45.5063 62.0902 46.5002C62.8666 47.5494 63.4112 48.6579 63.4112 49.9998C63.4112 51.3418 62.8666 52.4503 62.0902 53.4995C61.3546 54.4934 60.2841 55.5971 59.0003 56.9206L58.5793 57.3547C57.9874 57.9649 57.0279 57.9649 56.436 57.3547C55.8442 56.7445 55.8442 55.7552 56.436 55.145L56.7827 54.7875C58.1601 53.3674 59.0831 52.4111 59.6805 51.6039C60.2512 50.8327 60.3802 50.3838 60.3802 49.9998C60.3802 49.6159 60.2512 49.167 59.6805 48.3958C59.0831 47.5886 58.1601 46.6323 56.7827 45.2121L56.436 44.8547C55.8442 44.2445 55.8442 43.2552 56.436 42.645ZM42.2917 42.645C42.8835 42.0348 43.8431 42.0348 44.4349 42.645C45.0268 43.2552 45.0268 44.2445 44.4349 44.8547L44.0882 45.2121C42.7108 46.6323 41.7878 47.5886 41.1904 48.3958C40.6197 49.167 40.4908 49.6159 40.4908 49.9998C40.4908 50.3838 40.6197 50.8327 41.1904 51.6039C41.7878 52.4111 42.7108 53.3674 44.0882 54.7875L44.4349 55.145C45.0268 55.7552 45.0268 56.7445 44.4349 57.3547C43.8431 57.9649 42.8835 57.9649 42.2917 57.3547L41.8707 56.9207C40.5868 55.5971 39.5163 54.4934 38.7807 53.4995C38.0043 52.4503 37.4597 51.3418 37.4597 49.9998C37.4597 48.6579 38.0043 47.5494 38.7807 46.5002C39.5163 45.5062 40.5869 44.4026 41.8707 43.079L42.2917 42.645Z" fill="#4071DF"/>
</svg>
