<svg width="100" height="100" viewBox="0 0 100 100" fill="none" xmlns="http://www.w3.org/2000/svg">
<rect x="0.5" y="0.5" width="99" height="99" rx="49.5" fill="white"/>
<rect x="0.5" y="0.5" width="99" height="99" rx="49.5" stroke="#F0F3F5"/>
<path d="M33.1701 46.6859C32.9844 47.6046 33.6447 48.4473 34.5495 48.5504L36.1878 48.7372C37.0926 48.8403 37.8961 48.1627 38.1161 47.2519C39.4552 41.7076 44.3197 37.598 50.1123 37.598C52.615 37.598 54.7397 38.5904 56.8501 40.2107C56.995 40.322 57.1385 40.4349 57.2806 40.5495L54.7157 43.1939C54.2443 43.6799 54.1033 44.4108 54.3584 45.0458C54.6135 45.6808 55.2145 46.0948 55.8812 46.0948H64.9465C65.8568 46.0948 66.5947 45.334 66.5947 44.3955V35.0491C66.5947 34.3617 66.1932 33.7421 65.5773 33.4791C64.9614 33.2161 64.2524 33.3614 63.781 33.8475L60.7974 36.9236C60.4694 36.6469 60.1378 36.3786 59.8033 36.1218C57.1779 34.1061 54.0353 32.5 50.1123 32.5C41.7693 32.5 34.8077 38.5847 33.1701 46.6859Z" fill="#4071DF"/>
<path d="M67.0546 54.0004C67.2403 53.0817 66.58 52.239 65.6752 52.1359L64.0369 51.9491C63.1321 51.846 62.3286 52.5236 62.1086 53.4343C60.7695 58.9787 55.905 63.0883 50.1124 63.0883C47.6097 63.0883 45.485 62.0959 43.3746 60.4756C43.2297 60.3643 43.0862 60.2514 42.9441 60.1368L45.509 57.4924C45.9803 57.0064 46.1214 56.2755 45.8662 55.6405C45.6111 55.0055 45.0101 54.5915 44.3435 54.5915H35.2782C34.3679 54.5915 33.6299 55.3523 33.6299 56.2908V65.6372C33.6299 66.3245 34.0315 66.9442 34.6474 67.2072C35.2633 67.4702 35.9722 67.3249 36.4436 66.8388L39.4272 63.7627C39.7553 64.0394 40.0869 64.3077 40.4214 64.5645C43.0468 66.5802 46.1894 68.1863 50.1124 68.1863C58.4554 68.1863 65.417 62.1016 67.0546 54.0004Z" fill="#4071DF"/>
</svg>
