<svg width="100" height="100" viewBox="0 0 100 100" fill="none" xmlns="http://www.w3.org/2000/svg">
<rect x="0.5" y="0.5" width="99" height="99" rx="49.5" fill="white"/>
<rect x="0.5" y="0.5" width="99" height="99" rx="49.5" stroke="#F0F3F5"/>
<path fill-rule="evenodd" clip-rule="evenodd" d="M49.7086 70.8333C61.0916 70.8333 70.3195 61.3193 70.3195 49.5833C70.3195 37.8472 61.0916 28.3333 49.7086 28.3333C38.3255 28.3333 29.0977 37.8472 29.0977 49.5833C29.0977 61.3193 38.3255 70.8333 49.7086 70.8333ZM44.5446 54.7601C43.9064 54.1828 42.9349 54.2442 42.3699 54.8994C41.8028 55.5573 41.8602 56.5647 42.4983 57.1495L43.0652 57.5986C43.3998 57.8386 43.8799 58.1482 44.4933 58.4548C45.7204 59.0682 47.4965 59.677 49.7086 59.677C51.9206 59.677 53.6968 59.0682 54.9238 58.4548C55.5373 58.1482 56.0173 57.8386 56.3519 57.5986C56.5195 57.4785 56.6514 57.3751 56.7461 57.2975L56.9188 57.1495C57.5569 56.5647 57.6144 55.5573 57.0472 54.8994C56.4823 54.2442 55.5107 54.1828 54.8725 54.7601L54.5864 54.982C54.3655 55.1405 54.0243 55.3621 53.575 55.5867C52.6766 56.0358 51.3611 56.4895 49.7086 56.4895C48.0561 56.4895 46.7406 56.0358 45.8421 55.5867C45.3929 55.3621 45.0517 55.1405 44.8308 54.982L44.5446 54.7601ZM60.014 45.3333C60.014 46.5069 59.0912 47.4583 57.9529 47.4583C56.8146 47.4583 55.8918 46.5069 55.8918 45.3333C55.8918 44.1596 56.8146 43.2083 57.9529 43.2083C59.0912 43.2083 60.014 44.1596 60.014 45.3333ZM41.4642 47.4583C42.6025 47.4583 43.5253 46.5069 43.5253 45.3333C43.5253 44.1596 42.6025 43.2083 41.4642 43.2083C40.3259 43.2083 39.4031 44.1596 39.4031 45.3333C39.4031 46.5069 40.3259 47.4583 41.4642 47.4583Z" fill="#4071DF"/>
</svg>
