<svg width="158" height="28" viewBox="0 0 158 28" fill="none" xmlns="http://www.w3.org/2000/svg">
<path d="M31.2158 22.9912V3.69531H39.2175C41.2179 3.69531 42.8031 4.26062 44.0109 5.35355C45.181 6.44649 45.7849 7.91629 45.7849 9.76297C45.7849 11.6097 45.181 13.0795 44.0109 14.1724C42.8409 15.2653 41.2179 15.8306 39.2175 15.8306H35.5563V22.9912H31.2158ZM35.5563 12.0619H38.7645C39.5949 12.0619 40.2365 11.8735 40.7272 11.4589C41.1801 11.0443 41.4443 10.479 41.4443 9.76297C41.4443 9.04691 41.2179 8.4816 40.7272 8.06704C40.2743 7.65248 39.5949 7.46405 38.7645 7.46405H35.5563V12.0619Z" fill="#4071DF"/>
<path d="M51.9748 8.89844C53.9375 8.89844 55.485 9.38837 56.6173 10.4059C57.7496 11.4235 58.3157 12.8556 58.3157 14.7777V22.9935H54.3904V21.2222C53.9752 21.8252 53.4091 22.3151 52.6919 22.6543C51.9748 23.0312 51.2199 23.1819 50.4651 23.1819C49.1063 23.1819 48.0117 22.8051 47.1436 22.0136C46.2755 21.2222 45.8604 20.2423 45.8604 19.074C45.8604 16.3982 47.8608 14.853 51.8616 14.4008L54.3904 14.137V14.0616C54.3904 13.3832 54.1639 12.8556 53.7488 12.441C53.3336 12.0642 52.7297 11.838 51.9748 11.838C51.2954 11.838 50.767 12.0265 50.3141 12.4034C49.8612 12.7802 49.597 13.3079 49.5592 13.9862L46.0113 13.3079C46.2378 11.9511 46.9172 10.8959 48.0117 10.0667C49.144 9.313 50.4651 8.89844 51.9748 8.89844ZM51.4841 20.3177C52.3523 20.3177 53.0694 20.0162 53.5978 19.4132C54.1262 18.8102 54.3904 18.0941 54.4282 17.2273V17.1896V17.1143V17.0012L51.8238 17.3027C51.1445 17.3781 50.6538 17.5665 50.2764 17.868C49.8989 18.1695 49.7479 18.5087 49.7479 18.961C49.7479 19.3755 49.8989 19.677 50.2009 19.9408C50.5028 20.2046 50.9557 20.3177 51.4841 20.3177Z" fill="#4071DF"/>
<path d="M69.2281 9.12109H73.3799L66.0576 28.0024H61.9058L64.0949 22.3117L58.7354 9.12109H63.1136L66.0954 17.1862L69.2281 9.12109Z" fill="#4071DF"/>
<path d="M83.2975 23.2169C80.6555 23.2169 78.3909 22.3501 76.5414 20.6165C74.692 18.8829 73.7861 16.4709 73.7861 13.3428C73.7861 10.2148 74.7297 7.80279 76.6547 6.06918C78.5796 4.33556 80.8819 3.46875 83.6372 3.46875C86.0528 3.46875 88.0532 4.03406 89.6007 5.20237C91.1859 6.37067 92.1295 7.99123 92.507 10.0263L88.2042 10.8932C87.9777 9.76253 87.4493 8.85804 86.619 8.17967C85.7886 7.50129 84.7695 7.16211 83.5617 7.16211C81.9388 7.16211 80.6177 7.72742 79.5986 8.82035C78.6173 9.91328 78.1266 11.4208 78.1266 13.3428C78.1266 15.2649 78.6173 16.7347 79.5986 17.8276C80.58 18.9206 81.901 19.4482 83.4862 19.4482C84.7695 19.4482 85.8264 19.109 86.6567 18.4683C87.4871 17.8276 87.9777 16.9985 88.1287 15.9433H82.8823V12.476H92.1673V22.9908H88.2042V20.9934C87.789 21.6717 87.1474 22.1994 86.2415 22.6139C85.3357 23.0285 84.3543 23.2169 83.2975 23.2169Z" fill="#4071DF"/>
<path d="M94.626 22.9922V3.50781H98.6645V22.9922H94.626Z" fill="#4071DF"/>
<path d="M107.8 23.2196C105.648 23.2196 103.874 22.5413 102.516 21.1845C101.157 19.8278 100.478 18.1318 100.478 16.059C100.478 13.9862 101.157 12.2526 102.516 10.9336C103.874 9.57681 105.648 8.89844 107.8 8.89844C109.913 8.89844 111.65 9.57681 113.046 10.9336C114.443 12.2903 115.122 13.9862 115.122 16.059C115.122 18.1318 114.443 19.8654 113.046 21.1845C111.65 22.5413 109.913 23.2196 107.8 23.2196ZM107.8 19.7901C108.781 19.7901 109.574 19.4509 110.178 18.7725C110.782 18.0941 111.083 17.1897 111.083 16.0967C111.083 15.0038 110.782 14.0993 110.178 13.4209C109.574 12.7425 108.781 12.4034 107.8 12.4034C106.818 12.4034 105.988 12.7425 105.384 13.4209C104.78 14.0993 104.478 15.0038 104.478 16.0967C104.478 17.1897 104.78 18.0941 105.384 18.7725C105.988 19.4509 106.781 19.7901 107.8 19.7901Z" fill="#4071DF"/>
<path d="M123.314 23.2196C121.201 23.2196 119.502 22.5413 118.181 21.2222C116.86 19.9031 116.181 18.1695 116.181 16.059C116.181 13.9485 116.86 12.2149 118.181 10.8959C119.502 9.57681 121.201 8.89844 123.314 8.89844C125.164 8.89844 126.711 9.35069 127.919 10.2175C129.127 11.0843 129.844 12.2903 130.07 13.8355L126.145 14.5892C126.032 13.8732 125.73 13.3455 125.277 12.931C124.786 12.5164 124.182 12.328 123.465 12.328C122.522 12.328 121.767 12.6672 121.201 13.3455C120.634 14.0239 120.37 14.9284 120.37 16.059C120.37 17.1896 120.672 18.0941 121.238 18.7725C121.804 19.4509 122.559 19.7901 123.503 19.7901C124.937 19.7901 125.805 19.074 126.107 17.6796L130.07 18.471C129.806 19.9408 129.089 21.1091 127.881 21.9383C126.673 22.8051 125.126 23.2196 123.314 23.2196Z" fill="#4071DF"/>
<path d="M137.237 8.89844C139.199 8.89844 140.747 9.38837 141.879 10.4059C143.011 11.4235 143.577 12.8556 143.577 14.7777V22.9935H139.652V21.2222C139.237 21.8252 138.671 22.3151 137.954 22.6543C137.237 23.0312 136.482 23.1819 135.727 23.1819C134.368 23.1819 133.273 22.8051 132.405 22.0136C131.537 21.2222 131.122 20.2423 131.122 19.074C131.122 16.3982 133.122 14.853 137.123 14.4008L139.652 14.137V14.0616C139.652 13.3832 139.426 12.8556 139.01 12.441C138.595 12.0642 137.991 11.838 137.237 11.838C136.557 11.838 136.029 12.0265 135.576 12.4034C135.123 12.7802 134.859 13.3079 134.821 13.9862L131.273 13.3079C131.5 11.9511 132.179 10.8959 133.273 10.0667C134.406 9.313 135.727 8.89844 137.237 8.89844ZM136.746 20.3177C137.614 20.3177 138.331 20.0162 138.86 19.4132C139.388 18.8102 139.652 18.0941 139.69 17.2273V17.1896V17.1143V17.0012L137.086 17.3027C136.406 17.3781 135.916 17.5665 135.538 17.868C135.161 18.1695 135.01 18.5087 135.01 18.961C135.01 19.3755 135.161 19.677 135.463 19.9408C135.765 20.2046 136.18 20.3177 136.746 20.3177Z" fill="#4071DF"/>
<path d="M146.032 22.9922V3.50781H150.071V22.9922H146.032Z" fill="#4071DF"/>
<path d="M153.166 6.06758V3.69328H152.298V3.31641H154.449V3.73097H153.619V6.10527H153.166V6.06758Z" fill="#4071DF"/>
<path d="M154.716 6.06758V3.31641H155.244L156.112 5.4269L156.98 3.31641H157.509V6.06758H157.056V4.18321L156.263 6.06758H155.886L155.093 4.18321V6.06758H154.716Z" fill="#4071DF"/>
<path d="M22.8349 5.27623L14.6823 0.56531C13.3612 -0.188437 11.7005 -0.188437 10.3418 0.56531L2.15139 5.27623C0.83036 6.06766 0 7.49978 0 9.04496V18.4668C0 20.012 0.83036 21.4441 2.15139 22.2355L10.3418 26.9464C11.0211 27.3233 11.776 27.5118 12.4931 27.5118C13.248 27.5118 14.0029 27.3233 14.6445 26.9464L22.8349 22.2355C24.1559 21.4818 24.9863 20.012 24.9863 18.4668V9.04496C25.024 7.49978 24.1937 6.06766 22.8349 5.27623ZM20.8345 18.6929L12.6441 23.4038C12.5686 23.4415 12.4554 23.4415 12.3799 23.4038L4.18954 18.6929C4.11406 18.6552 4.03857 18.5422 4.03857 18.4668V9.04496C4.03857 8.9319 4.07631 8.85652 4.18954 8.81884L12.3799 4.10792C12.4177 4.07023 12.4554 4.07023 12.5309 4.07023C12.5686 4.07023 12.6441 4.07023 12.6819 4.10792L20.8722 8.81884C20.9477 8.85652 21.0232 8.96958 21.0232 9.04496V11.7208H12.4177C11.2853 11.7208 10.3795 12.6253 10.3795 13.7559C10.3795 14.8865 11.2853 15.791 12.4177 15.791H20.9477V18.4668C20.9477 18.5799 20.91 18.6552 20.8345 18.6929Z" fill="#4071DF"/>
</svg>
