<svg width="1920" height="105" viewBox="0 0 1920 105" fill="none" xmlns="http://www.w3.org/2000/svg">
<path d="M68.5681 52.4185H0V103.845H68.5681V52.4185Z" fill="#282A2B" stroke="#CCCCCC" stroke-width="0.5" stroke-miterlimit="10"/>
<path d="M137.136 52.4185H68.5684V103.845H137.136V52.4185Z" fill="#282A2B" stroke="#CCCCCC" stroke-width="0.5" stroke-miterlimit="10"/>
<path d="M342.847 52.4185H274.279V103.845H342.847V52.4185Z" fill="#282A2B" stroke="#CCCCCC" stroke-width="0.5" stroke-miterlimit="10"/>
<path d="M411.416 52.4185H342.847V103.845H411.416V52.4185Z" fill="#282A2B" stroke="#CCCCCC" stroke-width="0.5" stroke-miterlimit="10"/>
<path d="M479.984 52.4185H411.416V103.845H479.984V52.4185Z" fill="#282A2B" stroke="#CCCCCC" stroke-width="0.5" stroke-miterlimit="10"/>
<path d="M548.555 52.4185H479.987V103.845H548.555V52.4185Z" fill="#282A2B" stroke="#CCCCCC" stroke-width="0.5" stroke-miterlimit="10"/>
<path d="M617.126 52.4185H548.558V103.845H617.126V52.4185Z" fill="#282A2B" stroke="#CCCCCC" stroke-width="0.5" stroke-miterlimit="10"/>
<path d="M685.695 52.4185H617.126V103.845H685.695V52.4185Z" fill="#282A2B" stroke="#CCCCCC" stroke-width="0.5" stroke-miterlimit="10"/>
<path d="M68.5681 0.992188H0V52.4182H68.5681V0.992188Z" fill="#282A2B" stroke="#CCCCCC" stroke-width="0.5" stroke-miterlimit="10"/>
<path d="M137.136 0.992188H68.5684V52.4182H137.136V0.992188Z" fill="#282A2B" stroke="#CCCCCC" stroke-width="0.5" stroke-miterlimit="10"/>
<path d="M205.707 52.4185H137.139V103.845H205.707V52.4185Z" fill="#282A2B" stroke="#CCCCCC" stroke-width="0.5" stroke-miterlimit="10"/>
<path d="M274.274 52.4185H205.706V103.845H274.274V52.4185Z" fill="#282A2B" stroke="#CCCCCC" stroke-width="0.5" stroke-miterlimit="10"/>
<path d="M205.707 0.992188H137.139V52.4182H205.707V0.992188Z" fill="#282A2B" stroke="#CCCCCC" stroke-width="0.5" stroke-miterlimit="10"/>
<path d="M274.274 0.992188H205.706V52.4182H274.274V0.992188Z" fill="#282A2B" stroke="#CCCCCC" stroke-width="0.5" stroke-miterlimit="10"/>
<path d="M342.847 0.992188H274.279V52.4182H342.847V0.992188Z" fill="#282A2B" stroke="#CCCCCC" stroke-width="0.5" stroke-miterlimit="10"/>
<path d="M411.416 0.992188H342.847V52.4182H411.416V0.992188Z" fill="#282A2B" stroke="#CCCCCC" stroke-width="0.5" stroke-miterlimit="10"/>
<path d="M479.984 0.992188H411.416V52.4182H479.984V0.992188Z" fill="#282A2B" stroke="#CCCCCC" stroke-width="0.5" stroke-miterlimit="10"/>
<path d="M548.555 0.992188H479.987V52.4182H548.555V0.992188Z" fill="#282A2B" stroke="#CCCCCC" stroke-width="0.5" stroke-miterlimit="10"/>
<path d="M617.126 0.992188H548.558V52.4182H617.126V0.992188Z" fill="#282A2B" stroke="#CCCCCC" stroke-width="0.5" stroke-miterlimit="10"/>
<path d="M137.14 52.4185L68.5684 103.847" stroke="#CCCCCC" stroke-width="0.5" stroke-miterlimit="10"/>
<path d="M274.279 0.992188L239.995 26.7052" stroke="#CCCCCC" stroke-width="0.5" stroke-miterlimit="10"/>
<path d="M239.993 26.7052L205.706 0.992188" stroke="#CCCCCC" stroke-width="0.5" stroke-miterlimit="10"/>
<path d="M137.139 52.4185V45.4878" stroke="#CCCCCC" stroke-width="0.5" stroke-miterlimit="10"/>
<path d="M274.277 52.4182C274.277 24.0146 304.977 0.992188 342.845 0.992188L274.277 52.4182Z" fill="#282A2B"/>
<path d="M274.277 52.4182C274.277 24.0146 304.977 0.992188 342.845 0.992188" stroke="#CCCCCC" stroke-width="0.5" stroke-miterlimit="10"/>
<path d="M313.867 52.4181C313.867 40.4138 326.842 30.6846 342.845 30.6846L313.867 52.4181Z" fill="#282A2B"/>
<path d="M313.867 52.4181C313.867 40.4138 326.842 30.6846 342.845 30.6846" stroke="#CCCCCC" stroke-width="0.5" stroke-miterlimit="10"/>
<path d="M342.846 103.846C380.717 103.846 411.414 80.8217 411.414 52.4204L342.846 103.846Z" fill="#282A2B"/>
<path d="M342.846 103.846C380.717 103.846 411.414 80.8217 411.414 52.4204" stroke="#CCCCCC" stroke-width="0.5" stroke-miterlimit="10"/>
<path d="M342.846 74.152C358.851 74.152 371.824 64.4204 371.824 52.4185L342.846 74.152Z" fill="#282A2B"/>
<path d="M342.846 74.152C358.851 74.152 371.824 64.4204 371.824 52.4185" stroke="#CCCCCC" stroke-width="0.5" stroke-miterlimit="10"/>
<path d="M617.144 52.4182C617.144 24.0146 647.843 0.992188 685.712 0.992188L617.144 52.4182Z" fill="#282A2B"/>
<path d="M617.144 52.4182C617.144 24.0146 647.843 0.992188 685.712 0.992188" stroke="#CCCCCC" stroke-width="0.5" stroke-miterlimit="10"/>
<path d="M685.712 103.846C647.84 103.846 617.144 80.8217 617.144 52.4204L685.712 103.846Z" fill="#282A2B"/>
<path d="M685.712 103.846C647.84 103.846 617.144 80.8217 617.144 52.4204" stroke="#CCCCCC" stroke-width="0.5" stroke-miterlimit="10"/>
<path d="M656.731 52.4191C656.731 40.4148 669.706 30.6855 685.709 30.6855L656.731 52.4191Z" fill="#282A2B"/>
<path d="M656.731 52.4191C656.731 40.4148 669.706 30.6855 685.709 30.6855" stroke="#CCCCCC" stroke-width="0.5" stroke-miterlimit="10"/>
<path d="M685.709 74.152C669.703 74.152 656.731 64.4204 656.731 52.4185L685.709 74.152Z" fill="#282A2B"/>
<path d="M685.709 74.152C669.703 74.152 656.731 64.4204 656.731 52.4185" stroke="#CCCCCC" stroke-width="0.5" stroke-miterlimit="10"/>
<path d="M34.284 52.4182C53.2186 52.4182 68.5681 40.9061 68.5681 26.7052C68.5681 12.5043 53.2186 0.992188 34.284 0.992188C15.3495 0.992188 0 12.5043 0 26.7052C0 40.9061 15.3495 52.4182 34.284 52.4182Z" fill="#282A2B" stroke="#CCCCCC" stroke-width="0.5" stroke-miterlimit="10"/>
<path d="M205.708 52.3646V52.4186H137.259L137.159 52.3763V52.4186H137.137V52.3646L171.421 26.7056L205.705 52.3646H205.708Z" fill="#282A2B" stroke="#CCCCCC" stroke-width="0.5" stroke-miterlimit="10"/>
<path d="M274.277 52.4783V52.4243H205.828L205.727 52.4666V52.4243H205.706V52.4783L239.99 78.1303L274.274 52.4783H274.277Z" fill="#282A2B" stroke="#CCCCCC" stroke-width="0.5" stroke-miterlimit="10"/>
<path d="M754.289 52.4185H685.721V103.845H754.289V52.4185Z" fill="#282A2B" stroke="#CCCCCC" stroke-width="0.5" stroke-miterlimit="10"/>
<path d="M822.863 52.4185H754.295V103.845H822.863V52.4185Z" fill="#282A2B" stroke="#CCCCCC" stroke-width="0.5" stroke-miterlimit="10"/>
<path d="M891.429 52.4185H822.861V103.845H891.429V52.4185Z" fill="#282A2B" stroke="#CCCCCC" stroke-width="0.5" stroke-miterlimit="10"/>
<path d="M960 52.4185H891.432V103.845H960V52.4185Z" fill="#282A2B" stroke="#CCCCCC" stroke-width="0.5" stroke-miterlimit="10"/>
<path d="M754.289 0.992188H685.721V52.4182H754.289V0.992188Z" fill="#282A2B" stroke="#CCCCCC" stroke-width="0.5" stroke-miterlimit="10"/>
<path d="M685.695 0.992188H617.126V52.4182H685.695V0.992188Z" fill="#282A2B" stroke="#CCCCCC" stroke-width="0.5" stroke-miterlimit="10"/>
<path d="M822.86 0.992188H754.292V52.4182H822.86V0.992188Z" fill="#282A2B" stroke="#CCCCCC" stroke-width="0.5" stroke-miterlimit="10"/>
<path d="M891.429 0.992188H822.861V52.4182H891.429V0.992188Z" fill="#282A2B" stroke="#CCCCCC" stroke-width="0.5" stroke-miterlimit="10"/>
<path d="M960 0.992188H891.432V52.4182H960V0.992188Z" fill="#282A2B" stroke="#CCCCCC" stroke-width="0.5" stroke-miterlimit="10"/>
<path d="M617.142 74.1936L548.858 103.762C548.73 103.818 548.567 103.748 548.567 103.635L479.896 74.1514" fill="#282A2B"/>
<path d="M617.142 74.1936L548.858 103.762C548.73 103.818 548.567 103.748 548.567 103.635L479.896 74.1514" stroke="#CCCCCC" stroke-width="0.5" stroke-miterlimit="10"/>
<path d="M617.14 30.6426L548.853 1.07452C548.725 1.01817 548.562 1.08861 548.562 1.2013L479.891 30.6849" fill="#282A2B"/>
<path d="M617.14 30.6426L548.853 1.07452C548.725 1.01817 548.562 1.08861 548.562 1.2013L479.891 30.6849" stroke="#CCCCCC" stroke-width="0.5" stroke-miterlimit="10"/>
<path d="M479.99 52.4182L411.4 0.992188V52.4112L479.99 52.4182Z" fill="#282A2B" stroke="#CCCCCC" stroke-width="0.5" stroke-miterlimit="10"/>
<path d="M479.99 52.4185L411.4 103.847V52.4255L479.99 52.4185Z" fill="#282A2B" stroke="#CCCCCC" stroke-width="0.5" stroke-miterlimit="10"/>
<path d="M960 52.4182C960 24.0146 929.3 0.992188 891.432 0.992188L960 52.4182Z" fill="#282A2B"/>
<path d="M960 52.4182C960 24.0146 929.3 0.992188 891.432 0.992188" stroke="#CCCCCC" stroke-width="0.5" stroke-miterlimit="10"/>
<path d="M960 53.4019C960 67.6037 944.651 79.1149 925.716 79.1149C906.78 79.1149 891.432 67.6037 891.432 53.4019" fill="#282A2B"/>
<path d="M960 53.4019C960 67.6037 944.651 79.1149 925.716 79.1149C906.78 79.1149 891.432 67.6037 891.432 53.4019" stroke="#CCCCCC" stroke-width="0.5" stroke-miterlimit="10"/>
<path d="M685.708 52.3287L754.286 1.08105L822.86 52.3287" fill="#282A2B"/>
<path d="M685.708 52.3287L754.286 1.08105L822.86 52.3287" stroke="#CCCCCC" stroke-width="0.5" stroke-miterlimit="10"/>
<path d="M685.721 103.847L754.292 52.4185L822.86 103.847" fill="#282A2B"/>
<path d="M685.721 103.847L754.292 52.4185L822.86 103.847" stroke="#CCCCCC" stroke-width="0.5" stroke-miterlimit="10"/>
<path d="M891.429 1.08008H822.861V26.7039H891.429V1.08008Z" fill="#282A2B" stroke="#CCCCCC" stroke-width="0.5" stroke-miterlimit="10"/>
<path d="M891.429 78.1318H822.861V103.756H891.429V78.1318Z" fill="#282A2B" stroke="#CCCCCC" stroke-width="0.5" stroke-miterlimit="10"/>
<path d="M1028.57 52.4185H960V103.845H1028.57V52.4185Z" fill="#282A2B" stroke="#CCCCCC" stroke-width="0.5" stroke-miterlimit="10"/>
<path d="M1097.14 52.4185H1028.57V103.845H1097.14V52.4185Z" fill="#282A2B" stroke="#CCCCCC" stroke-width="0.5" stroke-miterlimit="10"/>
<path d="M1302.85 52.4185H1234.28V103.845H1302.85V52.4185Z" fill="#282A2B" stroke="#CCCCCC" stroke-width="0.5" stroke-miterlimit="10"/>
<path d="M1371.42 52.4185H1302.85V103.845H1371.42V52.4185Z" fill="#282A2B" stroke="#CCCCCC" stroke-width="0.5" stroke-miterlimit="10"/>
<path d="M1439.98 52.4185H1371.42V103.845H1439.98V52.4185Z" fill="#282A2B" stroke="#CCCCCC" stroke-width="0.5" stroke-miterlimit="10"/>
<path d="M1508.56 52.4185H1439.99V103.845H1508.56V52.4185Z" fill="#282A2B" stroke="#CCCCCC" stroke-width="0.5" stroke-miterlimit="10"/>
<path d="M1577.13 52.4185H1508.56V103.845H1577.13V52.4185Z" fill="#282A2B" stroke="#CCCCCC" stroke-width="0.5" stroke-miterlimit="10"/>
<path d="M1645.69 52.4185H1577.13V103.845H1645.69V52.4185Z" fill="#282A2B" stroke="#CCCCCC" stroke-width="0.5" stroke-miterlimit="10"/>
<path d="M1028.57 0.992188H960V52.4182H1028.57V0.992188Z" fill="#282A2B" stroke="#CCCCCC" stroke-width="0.5" stroke-miterlimit="10"/>
<path d="M1097.14 0.992188H1028.57V52.4182H1097.14V0.992188Z" fill="#282A2B" stroke="#CCCCCC" stroke-width="0.5" stroke-miterlimit="10"/>
<path d="M1165.71 52.4185H1097.14V103.845H1165.71V52.4185Z" fill="#282A2B" stroke="#CCCCCC" stroke-width="0.5" stroke-miterlimit="10"/>
<path d="M1234.27 52.4185H1165.71V103.845H1234.27V52.4185Z" fill="#282A2B" stroke="#CCCCCC" stroke-width="0.5" stroke-miterlimit="10"/>
<path d="M1165.71 0.992188H1097.14V52.4182H1165.71V0.992188Z" fill="#282A2B" stroke="#CCCCCC" stroke-width="0.5" stroke-miterlimit="10"/>
<path d="M1234.27 0.992188H1165.71V52.4182H1234.27V0.992188Z" fill="#282A2B" stroke="#CCCCCC" stroke-width="0.5" stroke-miterlimit="10"/>
<path d="M1302.85 0.992188H1234.28V52.4182H1302.85V0.992188Z" fill="#282A2B" stroke="#CCCCCC" stroke-width="0.5" stroke-miterlimit="10"/>
<path d="M1371.42 0.992188H1302.85V52.4182H1371.42V0.992188Z" fill="#282A2B" stroke="#CCCCCC" stroke-width="0.5" stroke-miterlimit="10"/>
<path d="M1439.98 0.992188H1371.42V52.4182H1439.98V0.992188Z" fill="#282A2B" stroke="#CCCCCC" stroke-width="0.5" stroke-miterlimit="10"/>
<path d="M1508.56 0.992188H1439.99V52.4182H1508.56V0.992188Z" fill="#282A2B" stroke="#CCCCCC" stroke-width="0.5" stroke-miterlimit="10"/>
<path d="M1577.13 0.992188H1508.56V52.4182H1577.13V0.992188Z" fill="#282A2B" stroke="#CCCCCC" stroke-width="0.5" stroke-miterlimit="10"/>
<path d="M1097.14 52.4185L1028.57 103.847" stroke="#CCCCCC" stroke-width="0.5" stroke-miterlimit="10"/>
<path d="M1234.28 0.992188L1199.99 26.7052" stroke="#CCCCCC" stroke-width="0.5" stroke-miterlimit="10"/>
<path d="M1199.99 26.7052L1165.71 0.992188" stroke="#CCCCCC" stroke-width="0.5" stroke-miterlimit="10"/>
<path d="M1097.14 52.4185V45.4878" stroke="#CCCCCC" stroke-width="0.5" stroke-miterlimit="10"/>
<path d="M1234.28 52.4182C1234.28 24.0146 1264.98 0.992188 1302.84 0.992188L1234.28 52.4182Z" fill="#282A2B"/>
<path d="M1234.28 52.4182C1234.28 24.0146 1264.98 0.992188 1302.84 0.992188" stroke="#CCCCCC" stroke-width="0.5" stroke-miterlimit="10"/>
<path d="M1273.87 52.4181C1273.87 40.4138 1286.84 30.6846 1302.84 30.6846L1273.87 52.4181Z" fill="#282A2B"/>
<path d="M1273.87 52.4181C1273.87 40.4138 1286.84 30.6846 1302.84 30.6846" stroke="#CCCCCC" stroke-width="0.5" stroke-miterlimit="10"/>
<path d="M1302.85 103.846C1340.72 103.846 1371.41 80.8217 1371.41 52.4204L1302.85 103.846Z" fill="#282A2B"/>
<path d="M1302.85 103.846C1340.72 103.846 1371.41 80.8217 1371.41 52.4204" stroke="#CCCCCC" stroke-width="0.5" stroke-miterlimit="10"/>
<path d="M1302.85 74.152C1318.85 74.152 1331.82 64.4204 1331.82 52.4185L1302.85 74.152Z" fill="#282A2B"/>
<path d="M1302.85 74.152C1318.85 74.152 1331.82 64.4204 1331.82 52.4185" stroke="#CCCCCC" stroke-width="0.5" stroke-miterlimit="10"/>
<path d="M1577.14 52.4182C1577.14 24.0146 1607.84 0.992188 1645.71 0.992188L1577.14 52.4182Z" fill="#282A2B"/>
<path d="M1577.14 52.4182C1577.14 24.0146 1607.84 0.992188 1645.71 0.992188" stroke="#CCCCCC" stroke-width="0.5" stroke-miterlimit="10"/>
<path d="M1645.71 103.846C1607.84 103.846 1577.14 80.8217 1577.14 52.4204L1645.71 103.846Z" fill="#282A2B"/>
<path d="M1645.71 103.846C1607.84 103.846 1577.14 80.8217 1577.14 52.4204" stroke="#CCCCCC" stroke-width="0.5" stroke-miterlimit="10"/>
<path d="M1616.73 52.4191C1616.73 40.4148 1629.71 30.6855 1645.71 30.6855L1616.73 52.4191Z" fill="#282A2B"/>
<path d="M1616.73 52.4191C1616.73 40.4148 1629.71 30.6855 1645.71 30.6855" stroke="#CCCCCC" stroke-width="0.5" stroke-miterlimit="10"/>
<path d="M1645.71 74.152C1629.7 74.152 1616.73 64.4204 1616.73 52.4185L1645.71 74.152Z" fill="#282A2B"/>
<path d="M1645.71 74.152C1629.7 74.152 1616.73 64.4204 1616.73 52.4185" stroke="#CCCCCC" stroke-width="0.5" stroke-miterlimit="10"/>
<path d="M994.284 52.4182C1013.22 52.4182 1028.57 40.9061 1028.57 26.7052C1028.57 12.5043 1013.22 0.992188 994.284 0.992188C975.35 0.992188 960 12.5043 960 26.7052C960 40.9061 975.35 52.4182 994.284 52.4182Z" fill="#282A2B" stroke="#CCCCCC" stroke-width="0.5" stroke-miterlimit="10"/>
<path d="M1165.71 52.3646V52.4186H1097.26L1097.16 52.3763V52.4186H1097.14V52.3646L1131.42 26.7056L1165.71 52.3646H1165.71Z" fill="#282A2B" stroke="#CCCCCC" stroke-width="0.5" stroke-miterlimit="10"/>
<path d="M1234.28 52.4783V52.4243H1165.83L1165.73 52.4666V52.4243H1165.71V52.4783L1199.99 78.1303L1234.27 52.4783H1234.28Z" fill="#282A2B" stroke="#CCCCCC" stroke-width="0.5" stroke-miterlimit="10"/>
<path d="M1714.29 52.4185H1645.72V103.845H1714.29V52.4185Z" fill="#282A2B" stroke="#CCCCCC" stroke-width="0.5" stroke-miterlimit="10"/>
<path d="M1782.86 52.4185H1714.29V103.845H1782.86V52.4185Z" fill="#282A2B" stroke="#CCCCCC" stroke-width="0.5" stroke-miterlimit="10"/>
<path d="M1851.43 52.4185H1782.86V103.845H1851.43V52.4185Z" fill="#282A2B" stroke="#CCCCCC" stroke-width="0.5" stroke-miterlimit="10"/>
<path d="M1920 52.4185H1851.43V103.845H1920V52.4185Z" fill="#282A2B" stroke="#CCCCCC" stroke-width="0.5" stroke-miterlimit="10"/>
<path d="M1714.29 0.992188H1645.72V52.4182H1714.29V0.992188Z" fill="#282A2B" stroke="#CCCCCC" stroke-width="0.5" stroke-miterlimit="10"/>
<path d="M1645.69 0.992188H1577.13V52.4182H1645.69V0.992188Z" fill="#282A2B" stroke="#CCCCCC" stroke-width="0.5" stroke-miterlimit="10"/>
<path d="M1782.86 0.992188H1714.29V52.4182H1782.86V0.992188Z" fill="#282A2B" stroke="#CCCCCC" stroke-width="0.5" stroke-miterlimit="10"/>
<path d="M1851.43 0.992188H1782.86V52.4182H1851.43V0.992188Z" fill="#282A2B" stroke="#CCCCCC" stroke-width="0.5" stroke-miterlimit="10"/>
<path d="M1920 0.992188H1851.43V52.4182H1920V0.992188Z" fill="#282A2B" stroke="#CCCCCC" stroke-width="0.5" stroke-miterlimit="10"/>
<path d="M1577.14 74.1936L1508.86 103.762C1508.73 103.818 1508.57 103.748 1508.57 103.635L1439.9 74.1514" fill="#282A2B"/>
<path d="M1577.14 74.1936L1508.86 103.762C1508.73 103.818 1508.57 103.748 1508.57 103.635L1439.9 74.1514" stroke="#CCCCCC" stroke-width="0.5" stroke-miterlimit="10"/>
<path d="M1577.14 30.6426L1508.85 1.07452C1508.72 1.01817 1508.56 1.08861 1508.56 1.2013L1439.89 30.6849" fill="#282A2B"/>
<path d="M1577.14 30.6426L1508.85 1.07452C1508.72 1.01817 1508.56 1.08861 1508.56 1.2013L1439.89 30.6849" stroke="#CCCCCC" stroke-width="0.5" stroke-miterlimit="10"/>
<path d="M1439.99 52.4182L1371.4 0.992188V52.4112L1439.99 52.4182Z" fill="#282A2B" stroke="#CCCCCC" stroke-width="0.5" stroke-miterlimit="10"/>
<path d="M1439.99 52.4185L1371.4 103.847V52.4255L1439.99 52.4185Z" fill="#282A2B" stroke="#CCCCCC" stroke-width="0.5" stroke-miterlimit="10"/>
<path d="M1920 52.4182C1920 24.0146 1889.3 0.992188 1851.43 0.992188L1920 52.4182Z" fill="#282A2B"/>
<path d="M1920 52.4182C1920 24.0146 1889.3 0.992188 1851.43 0.992188" stroke="#CCCCCC" stroke-width="0.5" stroke-miterlimit="10"/>
<path d="M1920 53.4019C1920 67.6037 1904.65 79.1149 1885.72 79.1149C1866.78 79.1149 1851.43 67.6037 1851.43 53.4019" fill="#282A2B"/>
<path d="M1920 53.4019C1920 67.6037 1904.65 79.1149 1885.72 79.1149C1866.78 79.1149 1851.43 67.6037 1851.43 53.4019" stroke="#CCCCCC" stroke-width="0.5" stroke-miterlimit="10"/>
<path d="M1645.71 52.3287L1714.29 1.08105L1782.86 52.3287" fill="#282A2B"/>
<path d="M1645.71 52.3287L1714.29 1.08105L1782.86 52.3287" stroke="#CCCCCC" stroke-width="0.5" stroke-miterlimit="10"/>
<path d="M1645.72 103.847L1714.29 52.4185L1782.86 103.847" fill="#282A2B"/>
<path d="M1645.72 103.847L1714.29 52.4185L1782.86 103.847" stroke="#CCCCCC" stroke-width="0.5" stroke-miterlimit="10"/>
<path d="M1851.43 1.08008H1782.86V26.7039H1851.43V1.08008Z" fill="#282A2B" stroke="#CCCCCC" stroke-width="0.5" stroke-miterlimit="10"/>
<path d="M1851.43 78.1318H1782.86V103.756H1851.43V78.1318Z" fill="#282A2B" stroke="#CCCCCC" stroke-width="0.5" stroke-miterlimit="10"/>
</svg>
