<svg width="225" height="41" viewBox="0 0 225 41" fill="none" xmlns="http://www.w3.org/2000/svg">
<path d="M44.5273 33.688V6.12354H55.9406C58.7939 6.12354 61.055 6.93109 62.7778 8.49236C64.4467 10.0536 65.3081 12.1533 65.3081 14.7913C65.3081 17.4293 64.4467 19.5289 62.7778 21.0902C61.1089 22.6515 58.7939 23.459 55.9406 23.459H50.7185V33.688H44.5273ZM50.7185 18.0753H55.2946C56.479 18.0753 57.3942 17.8061 58.094 17.2139C58.7401 16.6217 59.1169 15.8142 59.1169 14.7913C59.1169 13.7684 58.7939 12.9608 58.094 12.3686C57.448 11.7764 56.479 11.5072 55.2946 11.5072H50.7185V18.0753Z" fill="white"/>
<path d="M74.1394 13.5552C76.9389 13.5552 79.1462 14.2551 80.7613 15.7087C82.3763 17.1622 83.1839 19.208 83.1839 21.9537V33.6902H77.5849V31.1598C76.9927 32.0212 76.1852 32.7211 75.1623 33.2056C74.1394 33.744 73.0627 33.9594 71.986 33.9594C70.0479 33.9594 68.4866 33.421 67.2484 32.2904C66.0102 31.1598 65.418 29.7601 65.418 28.0911C65.418 24.2687 68.2713 22.0614 73.9779 21.4154L77.5849 21.0385V20.9308C77.5849 19.9618 77.2619 19.208 76.6697 18.6158C76.0775 18.0775 75.2161 17.7545 74.1394 17.7545C73.1704 17.7545 72.4167 18.0236 71.7706 18.562C71.1246 19.1004 70.7477 19.8541 70.6939 20.8232L65.6333 19.8541C65.9563 17.916 66.9254 16.4085 68.4866 15.2241C70.1017 14.1474 71.986 13.5552 74.1394 13.5552ZM73.4395 29.8678C74.6778 29.8678 75.7007 29.4371 76.4544 28.5757C77.2081 27.7143 77.5849 26.6914 77.6388 25.4531V25.3993V25.2916V25.1301L73.9241 25.5608C72.955 25.6685 72.2552 25.9377 71.7168 26.3684C71.1784 26.7991 70.9631 27.2836 70.9631 27.9296C70.9631 28.5218 71.1784 28.9525 71.6091 29.3294C72.0398 29.7062 72.6858 29.8678 73.4395 29.8678Z" fill="white"/>
<path d="M98.7438 13.8745H104.666L94.2215 40.8468H88.2996L91.4221 32.7174L83.7773 13.8745H90.0223L94.2754 25.3956L98.7438 13.8745Z" fill="white"/>
<path d="M118.821 34.0118C115.052 34.0118 111.822 32.7736 109.184 30.2971C106.546 27.8206 105.254 24.375 105.254 19.9065C105.254 15.4381 106.6 11.9925 109.345 9.51602C112.091 7.03952 115.375 5.80127 119.305 5.80127C122.751 5.80127 125.604 6.60882 127.811 8.27777C130.072 9.94671 131.418 12.2617 131.957 15.1689L125.819 16.4071C125.496 14.792 124.743 13.4999 123.558 12.5309C122.374 11.5618 120.92 11.0773 119.197 11.0773C116.883 11.0773 114.998 11.8848 113.545 13.4461C112.145 15.0074 111.445 17.1609 111.445 19.9065C111.445 22.6522 112.145 24.7519 113.545 26.3131C114.944 27.8744 116.829 28.6281 119.09 28.6281C120.92 28.6281 122.428 28.1436 123.612 27.2283C124.796 26.3131 125.496 25.1287 125.712 23.6213H118.228V18.6683H131.472V33.6888H125.819V30.8354C125.227 31.8045 124.312 32.5582 123.02 33.1504C121.728 33.7426 120.328 34.0118 118.821 34.0118Z" fill="white"/>
<path d="M134.973 33.6901V5.85645H140.733V33.6901H134.973Z" fill="white"/>
<path d="M153.761 34.0132C150.692 34.0132 148.162 33.0441 146.224 31.106C144.285 29.1679 143.316 26.7452 143.316 23.7842C143.316 20.8232 144.285 18.3467 146.224 16.4624C148.162 14.5242 150.692 13.5552 153.761 13.5552C156.775 13.5552 159.252 14.5242 161.244 16.4624C163.236 18.4005 164.205 20.8232 164.205 23.7842C164.205 26.7452 163.236 29.2217 161.244 31.106C159.252 33.0441 156.775 34.0132 153.761 34.0132ZM153.761 29.114C155.16 29.114 156.291 28.6295 157.152 27.6604C158.014 26.6914 158.444 25.3993 158.444 23.838C158.444 22.2768 158.014 20.9847 157.152 20.0156C156.291 19.0465 155.16 18.562 153.761 18.562C152.361 18.562 151.176 19.0465 150.315 20.0156C149.454 20.9847 149.023 22.2768 149.023 23.838C149.023 25.3993 149.454 26.6914 150.315 27.6604C151.176 28.6295 152.307 29.114 153.761 29.114Z" fill="white"/>
<path d="M175.89 34.0132C172.875 34.0132 170.452 33.0441 168.568 31.1598C166.684 29.2755 165.715 26.799 165.715 23.7842C165.715 20.7693 166.684 18.2928 168.568 16.4085C170.452 14.5242 172.875 13.5552 175.89 13.5552C178.528 13.5552 180.735 14.2012 182.458 15.4395C184.181 16.6777 185.204 18.4005 185.527 20.6078L179.928 21.6845C179.766 20.6616 179.335 19.9079 178.689 19.3157C177.989 18.7235 177.128 18.4543 176.105 18.4543C174.759 18.4543 173.683 18.9389 172.875 19.9079C172.068 20.877 171.691 22.1691 171.691 23.7842C171.691 25.3993 172.121 26.6914 172.929 27.6604C173.736 28.6295 174.813 29.114 176.159 29.114C178.205 29.114 179.443 28.0911 179.874 26.0992L185.527 27.2297C185.15 29.3294 184.127 30.9983 182.404 32.1827C180.681 33.421 178.474 34.0132 175.89 34.0132Z" fill="white"/>
<path d="M195.753 13.5552C198.552 13.5552 200.759 14.2551 202.375 15.7087C203.99 17.1622 204.797 19.208 204.797 21.9537V33.6902H199.198V31.1598C198.606 32.0212 197.798 32.7211 196.776 33.2056C195.753 33.744 194.676 33.9594 193.599 33.9594C191.661 33.9594 190.1 33.421 188.862 32.2904C187.623 31.1598 187.031 29.7601 187.031 28.0911C187.031 24.2687 189.885 22.0614 195.591 21.4154L199.198 21.0385V20.9308C199.198 19.9618 198.875 19.208 198.283 18.6158C197.691 18.0775 196.829 17.7545 195.753 17.7545C194.784 17.7545 194.03 18.0236 193.384 18.562C192.738 19.1004 192.361 19.8541 192.307 20.8232L187.247 19.8541C187.57 17.916 188.539 16.4085 190.1 15.2241C191.715 14.1474 193.599 13.5552 195.753 13.5552ZM195.053 29.8678C196.291 29.8678 197.314 29.4371 198.068 28.5757C198.821 27.7143 199.198 26.6914 199.252 25.4531V25.3993V25.2916V25.1301L195.537 25.5608C194.568 25.6685 193.868 25.9377 193.33 26.3684C192.792 26.7991 192.576 27.2836 192.576 27.9296C192.576 28.5218 192.792 28.9525 193.222 29.3294C193.653 29.7062 194.245 29.8678 195.053 29.8678Z" fill="white"/>
<path d="M208.293 33.6901V5.85645H214.053V33.6901H208.293Z" fill="white"/>
<path d="M218.469 9.51652V6.12479H217.23V5.58643H220.299V6.17863H219.115V9.57036H218.469V9.51652Z" fill="white"/>
<path d="M220.68 9.51652V5.58643H221.433L222.672 8.60129L223.91 5.58643H224.664V9.51652H224.018V6.82467L222.887 9.51652H222.349L221.218 6.82467V9.51652H220.68Z" fill="white"/>
<path d="M32.5709 8.38384L20.9422 1.65423C19.058 0.577495 16.6892 0.577495 14.7511 1.65423L3.06866 8.38384C1.18439 9.51442 0 11.5602 0 13.7675V27.2268C0 29.4341 1.18439 31.4799 3.06866 32.6104L14.7511 39.3401C15.7201 39.8784 16.7969 40.1476 17.8198 40.1476C18.8965 40.1476 19.9732 39.8784 20.8884 39.3401L32.5709 32.6104C34.4551 31.5337 35.6395 29.4341 35.6395 27.2268V13.7675C35.6933 11.5602 34.5089 9.51442 32.5709 8.38384ZM29.7175 27.5498L18.0351 34.2794C17.9274 34.3332 17.7659 34.3332 17.6582 34.2794L5.97581 27.5498C5.86814 27.4959 5.76046 27.3344 5.76046 27.2268V13.7675C5.76046 13.606 5.8143 13.4983 5.97581 13.4445L17.6582 6.7149C17.7121 6.66106 17.7659 6.66106 17.8736 6.66106C17.9274 6.66106 18.0351 6.66106 18.0889 6.7149L29.7714 13.4445C29.879 13.4983 29.9867 13.6599 29.9867 13.7675V17.59H17.7121C16.097 17.59 14.8049 18.882 14.8049 20.4971C14.8049 22.1123 16.097 23.4043 17.7121 23.4043H29.879V27.2268C29.879 27.3883 29.8252 27.4959 29.7175 27.5498Z" fill="white"/>
</svg>
